<svg width="158" height="34" viewBox="0 0 158 34" fill="none" xmlns="http://www.w3.org/2000/svg">
<path d="M56.6418 15.8594H44.2244V6.28491H41.7952V27.8374H44.2244V18.1391H56.6418V27.8374H59.0681V6.28491H56.6418V15.8594Z" fill="white"/>
<path d="M69.6599 11.6716C68.613 11.6574 67.569 11.7833 66.5555 12.046C65.6405 12.3022 64.7491 12.6366 63.8912 13.0455L64.5964 14.999C65.3223 14.6536 66.0778 14.3747 66.8539 14.1656C67.6931 13.9539 68.5563 13.8524 69.4217 13.8637C70.9167 13.8637 72.074 14.226 72.8938 14.9507C73.7136 15.6753 74.1235 16.7412 74.1235 18.1482V18.6374C73.4011 18.4314 72.6675 18.2671 71.9263 18.1452C71.0466 18.0124 70.1576 17.9508 69.268 17.961C68.3399 17.9511 67.4145 18.0649 66.5163 18.2992C65.7473 18.4968 65.0196 18.8301 64.3674 19.2835C63.7754 19.6982 63.2949 20.2531 62.9689 20.8989C62.628 21.604 62.4596 22.3802 62.4776 23.1635V23.2238C62.4605 23.9739 62.6348 24.716 62.984 25.3797C63.3141 25.9869 63.7692 26.5169 64.3192 26.9347C64.8896 27.3647 65.5358 27.6833 66.224 27.8737C66.9347 28.076 67.6702 28.1776 68.4091 28.1757C69.6231 28.219 70.8267 27.9376 71.8962 27.3604C72.7544 26.8804 73.511 26.2374 74.1235 25.4673V27.8375H76.4593V18.109C76.4593 16.096 75.9067 14.536 74.8016 13.4289C73.6262 12.2574 71.9123 11.6716 69.6599 11.6716ZM74.1386 21.9768C74.1456 22.5792 74.0027 23.1738 73.7226 23.7069C73.4448 24.2323 73.0585 24.6924 72.5894 25.0566C72.0897 25.4456 71.524 25.7412 70.9197 25.9292C70.2556 26.1371 69.5629 26.239 68.8672 26.2312C68.3572 26.2324 67.8497 26.1602 67.3602 26.0168C66.9057 25.8876 66.4759 25.6835 66.0883 25.4129C65.7255 25.1522 65.4274 24.8112 65.2173 24.4165C64.9997 24.0058 64.8887 23.5469 64.8948 23.0819V23.0216C64.8859 22.5657 64.9917 22.1149 65.2024 21.7107C65.4131 21.3065 65.7219 20.9619 66.1004 20.7087C66.9041 20.127 68.0434 19.8361 69.5182 19.8361C70.391 19.826 71.2628 19.8978 72.1222 20.0505C72.8757 20.1914 73.5498 20.3443 74.1446 20.5094L74.1386 21.9768Z" fill="white"/>
<path d="M90.3631 25.4037C89.5348 25.8665 88.5988 26.1009 87.6505 26.083C86.8682 26.0913 86.0929 25.9342 85.3752 25.622C84.6575 25.3099 84.0135 24.8497 83.4853 24.2714C82.9547 23.6979 82.5374 23.0289 82.2556 22.2997C81.9552 21.5302 81.8038 20.7104 81.8095 19.8842V19.8238C81.8036 18.9989 81.9497 18.18 82.2405 17.4083C82.5136 16.6848 82.9229 16.0205 83.4461 15.4517C83.9566 14.9003 84.5713 14.4559 85.2545 14.1443C85.9599 13.8251 86.7258 13.6623 87.4998 13.6673C88.465 13.635 89.4191 13.8813 90.2486 14.3768C91.0062 14.8558 91.7034 15.4245 92.3252 16.0707L93.8924 14.407C93.5154 14.0113 93.1127 13.6412 92.6868 13.2989C91.7817 12.5631 90.7194 12.0465 89.5825 11.7892C88.9068 11.6388 88.2161 11.5669 87.524 11.5748C86.4086 11.5643 85.3035 11.7896 84.281 12.2361C83.3103 12.6639 82.4336 13.2795 81.701 14.0477C80.2031 15.6256 79.3707 17.7217 79.3773 19.8993V19.9597C79.3722 21.0467 79.5811 22.124 79.9921 23.13C80.783 25.1114 82.3235 26.6992 84.2779 27.5474C85.3005 27.9939 86.4056 28.2192 87.5209 28.2087C88.8282 28.2559 90.1252 27.9626 91.2854 27.3572C92.3064 26.7749 93.2232 26.0259 93.9979 25.141L92.4909 23.7219C91.87 24.3864 91.1527 24.9534 90.3631 25.4037Z" fill="white"/>
<path d="M110.712 11.919H107.758L99.1836 20.8775V5.36084H96.8176V27.8372H99.1836V23.6795L102.411 20.4156L108.099 27.8372H110.926L104.042 18.7549L110.712 11.919Z" fill="white"/>
<path d="M136.087 6.28491L127.636 26.1133L119.215 6.28491H117.431L126.897 27.9914H128.311L137.778 6.28491H136.087Z" fill="white"/>
<path d="M155.944 23.4047C154.969 24.4099 153.838 25.2511 152.595 25.8958C151.328 26.496 149.937 26.7897 148.536 26.7533C147.298 26.7647 146.072 26.5072 144.943 25.9984C143.856 25.5122 142.877 24.8108 142.068 23.9362C141.242 23.0384 140.591 21.9939 140.148 20.8564C139.67 19.6467 139.429 18.356 139.439 17.055V16.9916C139.433 15.6983 139.671 14.4155 140.142 13.2113C140.576 12.0796 141.219 11.0399 142.037 10.1466C142.862 9.25662 143.864 8.54925 144.978 8.06983C146.092 7.59042 147.293 7.34955 148.505 7.36269C149.256 7.35701 150.004 7.43908 150.736 7.60726C151.391 7.76315 152.029 7.98468 152.641 8.26851C153.221 8.54492 153.772 8.88087 154.283 9.27095C154.799 9.66327 155.292 10.0846 155.76 10.5331L156.896 9.36153C156.356 8.86062 155.787 8.39278 155.19 7.96053C154.601 7.5376 153.974 7.17162 153.316 6.86751C152.622 6.55031 151.895 6.31326 151.149 6.16096C150.289 5.98738 149.413 5.9044 148.536 5.91338C147.096 5.89734 145.669 6.18044 144.344 6.74483C143.019 7.30921 141.825 8.14261 140.838 9.19244C139.873 10.2259 139.113 11.4327 138.596 12.7493C138.048 14.1201 137.77 15.5844 137.779 17.061V17.1214C137.769 18.6062 138.04 20.0794 138.578 21.4633C139.083 22.7738 139.841 23.9721 140.808 24.9899C141.772 25.9938 142.927 26.7946 144.205 27.3451C145.553 27.9265 147.007 28.2196 148.475 28.2056C149.354 28.213 150.23 28.1209 151.088 27.9308C151.856 27.7556 152.603 27.4974 153.316 27.1609C154.001 26.8329 154.65 26.4352 155.254 25.9743C155.871 25.5056 156.461 25.0016 157.02 24.4646L155.944 23.4047Z" fill="white"/>
<path d="M21.8029 4.37687L15.1873 11.0044H8.48127L0.29541 19.2051H8.04727V25.9263H14.7623V33.6983L22.9452 25.4976V18.7703L29.5608 12.1428L33.4307 0.484863L21.8933 4.33762L21.8029 4.37687ZM3.86391 17.7226L9.0931 12.484H13.7105L8.48127 17.7226H3.86391ZM31.0949 2.83698L28.2618 11.3547L15.1873 24.4529H9.52711V18.7703L22.5986 5.67219L31.0949 2.83698ZM16.2331 30.1142V25.4885L21.4623 20.2498V24.8756L16.2331 30.1142Z" fill="white"/>
<path d="M1.56232 29.5224L6.59259 24.483C6.65454 24.4214 6.6895 24.3376 6.68978 24.2501C6.69006 24.1626 6.65564 24.0786 6.5941 24.0166C6.53255 23.9545 6.4489 23.9195 6.36157 23.9192C6.27425 23.9189 6.19039 23.9534 6.12844 24.015L1.09817 29.0544C1.0675 29.085 1.04313 29.1212 1.02645 29.1612C1.00978 29.2012 1.00112 29.244 1.00098 29.2874C1.00084 29.3307 1.00922 29.3736 1.02564 29.4137C1.04206 29.4537 1.06619 29.4902 1.09667 29.5209C1.12714 29.5516 1.16336 29.5761 1.20326 29.5928C1.24315 29.6095 1.28594 29.6182 1.32918 29.6183C1.37242 29.6184 1.41527 29.61 1.45527 29.5936C1.49527 29.5771 1.53165 29.553 1.56232 29.5224Z" fill="white"/>
<path d="M9.48264 27.3756L4.45238 32.4149C4.4219 32.4457 4.39777 32.4821 4.38135 32.5222C4.36493 32.5622 4.35655 32.6052 4.35669 32.6485C4.35683 32.6918 4.36549 32.7347 4.38216 32.7746C4.39884 32.8146 4.42321 32.8509 4.45388 32.8814C4.48456 32.912 4.52094 32.9362 4.56094 32.9526C4.60094 32.969 4.64379 32.9774 4.68703 32.9773C4.73027 32.9772 4.77305 32.9685 4.81295 32.9518C4.85284 32.9351 4.88907 32.9106 4.91954 32.8799L9.93775 27.8405C9.96855 27.8102 9.99302 27.774 10.0097 27.7341C10.0264 27.6942 10.035 27.6513 10.035 27.6081C10.035 27.5648 10.0264 27.5219 10.0097 27.482C9.99302 27.4421 9.96855 27.4059 9.93775 27.3756C9.87657 27.3167 9.79503 27.2838 9.7102 27.2838C9.62537 27.2838 9.54383 27.3167 9.48264 27.3756Z" fill="white"/>
<path d="M7.01342 26.9556C6.98313 26.9247 6.94701 26.9002 6.90717 26.8835C6.86732 26.8668 6.82455 26.8582 6.78135 26.8582C6.73815 26.8582 6.69538 26.8668 6.65553 26.8835C6.61569 26.9002 6.57957 26.9247 6.54928 26.9556L1.10007 32.4147C1.06736 32.4447 1.04105 32.481 1.02273 32.5215C1.00441 32.562 0.994464 32.6057 0.993488 32.6502C0.992512 32.6946 1.00052 32.7388 1.01705 32.78C1.03357 32.8212 1.05826 32.8587 1.08963 32.8901C1.12099 32.9215 1.15839 32.9463 1.19956 32.9628C1.24072 32.9794 1.28481 32.9874 1.32916 32.9864C1.37351 32.9855 1.4172 32.9755 1.4576 32.9571C1.498 32.9388 1.53427 32.9124 1.56422 32.8797L7.01342 27.4206C7.04422 27.3902 7.06869 27.354 7.08539 27.3141C7.10208 27.2742 7.11069 27.2314 7.11069 27.1881C7.11069 27.1448 7.10208 27.102 7.08539 27.0621C7.06869 27.0221 7.04422 26.9859 7.01342 26.9556Z" fill="white"/>
<path d="M26.0594 10.4881C26.3164 10.2304 26.4914 9.90224 26.5622 9.545C26.633 9.18776 26.5965 8.8175 26.4573 8.48103C26.3181 8.14456 26.0825 7.85699 25.7802 7.65467C25.4779 7.45235 25.1225 7.34436 24.7589 7.34436C24.3954 7.34436 24.04 7.45235 23.7376 7.65467C23.4353 7.85699 23.1997 8.14456 23.0605 8.48103C22.9213 8.8175 22.8848 9.18776 22.9556 9.545C23.0265 9.90224 23.2014 10.2304 23.4584 10.4881C23.8036 10.833 24.2713 11.0268 24.7589 11.0268C25.2465 11.0268 25.7142 10.833 26.0594 10.4881Z" fill="white"/>
</svg>
