<svg width="183" height="30" viewBox="0 0 183 30" fill="none" xmlns="http://www.w3.org/2000/svg">
<g clip-path="url(#clip0_5868_277550)">
<path d="M47.3149 8.80106C47.2357 8.53727 47.394 8.35262 47.6578 8.35262H49.3988C49.5571 8.35262 49.7153 8.48451 49.7417 8.6164L51.7201 16.2399H51.7993L54.8328 8.379C54.8592 8.27348 54.9647 8.16797 55.1494 8.16797H55.4923C55.6769 8.16797 55.7825 8.27348 55.8088 8.379L58.8688 16.2399H58.9479L60.8999 8.6164C60.9263 8.48451 61.0846 8.35262 61.2429 8.35262H62.9839C63.2476 8.35262 63.4059 8.53727 63.3268 8.80106L59.7129 21.6211C59.6865 21.7794 59.5282 21.8849 59.37 21.8849H59.0534C58.8688 21.8849 58.7633 21.7794 58.7369 21.6739L55.3604 13.048H55.2549L51.8784 21.7003C51.8256 21.8058 51.7465 21.9113 51.5619 21.9113H51.2453C51.087 21.9113 50.9288 21.8058 50.9024 21.6475L47.3149 8.80106Z" fill="white"/>
<path d="M67.1272 8.72185C67.1272 8.5372 67.3118 8.35254 67.4965 8.35254H69.2639C69.4485 8.35254 69.6332 8.5372 69.6332 8.72185V21.3573C69.6332 21.5419 69.4485 21.7266 69.2639 21.7266H67.4965C67.3118 21.7266 67.1272 21.5419 67.1272 21.3573V8.72185Z" fill="white"/>
<path d="M74.7236 8.51089C74.7236 8.32624 74.9083 8.16797 75.0929 8.16797H75.5678L83.5078 16.6092H83.5342V8.72192C83.5342 8.53727 83.6924 8.35262 83.9035 8.35262H85.6445C85.8291 8.35262 86.0138 8.53727 86.0138 8.72192V21.5684C86.0138 21.753 85.8291 21.9113 85.6445 21.9113H85.1696L77.2032 13.1536H77.1769V21.3574C77.1769 21.542 77.0186 21.7267 76.8076 21.7267H75.0666C74.8819 21.7267 74.6973 21.542 74.6973 21.3574L74.7236 8.51089Z" fill="white"/>
<path d="M92.845 10.6475H89.9169C89.7059 10.6475 89.5476 10.4628 89.5476 10.2782V8.72185C89.5476 8.5372 89.7059 8.35254 89.9169 8.35254H98.2526C98.4636 8.35254 98.6219 8.5372 98.6219 8.72185V10.2782C98.6219 10.4628 98.4636 10.6475 98.2526 10.6475H95.3246V21.3573C95.3246 21.5419 95.1399 21.7266 94.9553 21.7266H93.1879C93.0032 21.7266 92.8186 21.5419 92.8186 21.3573V10.6475H92.845Z" fill="white"/>
<path d="M102.183 8.72185C102.183 8.5372 102.341 8.35254 102.552 8.35254H110.308C110.519 8.35254 110.677 8.5372 110.677 8.72185V10.2782C110.677 10.4628 110.519 10.6475 110.308 10.6475H104.663V13.7866H109.385C109.569 13.7866 109.754 13.9712 109.754 14.1559V15.7386C109.754 15.9496 109.569 16.1079 109.385 16.1079H104.663V19.458H110.308C110.519 19.458 110.677 19.6426 110.677 19.8273V21.3837C110.677 21.5683 110.519 21.753 110.308 21.753H102.552C102.341 21.753 102.183 21.5683 102.183 21.3837V8.72185Z" fill="white"/>
<path d="M115.135 8.72185C115.135 8.5372 115.294 8.35254 115.505 8.35254H120.965C123.26 8.35254 125.133 10.1727 125.133 12.4412C125.133 14.1822 123.972 15.6331 122.31 16.2925L124.922 21.1462C125.054 21.3836 124.922 21.7002 124.605 21.7002H122.6C122.416 21.7002 122.337 21.5947 122.284 21.5155L119.752 16.4508H117.641V21.3045C117.641 21.4892 117.457 21.6738 117.272 21.6738H115.505C115.294 21.6738 115.135 21.4892 115.135 21.3045V8.72185ZM120.728 14.4197C121.73 14.4197 122.627 13.5492 122.627 12.4676C122.627 11.4652 121.756 10.6211 120.728 10.6211H117.615V14.4197H120.728Z" fill="white"/>
<path d="M130.779 8.43165C130.805 8.27337 130.911 8.14148 131.122 8.14148H131.438C131.597 8.14148 131.702 8.22062 131.755 8.32613L135.949 17.3213C135.976 17.3213 135.976 17.3213 136.002 17.3213L140.196 8.32613C140.249 8.22062 140.354 8.14148 140.513 8.14148H140.829C141.04 8.14148 141.146 8.27337 141.172 8.43165L143.414 21.2517C143.467 21.5155 143.309 21.7002 143.071 21.7002H141.357C141.172 21.7002 141.04 21.5419 140.988 21.41L139.853 14.1822C139.827 14.1822 139.801 14.1822 139.801 14.1822L136.45 21.6738C136.424 21.7793 136.292 21.8848 136.134 21.8848H135.817C135.633 21.8848 135.554 21.7793 135.501 21.6738L132.124 14.1822C132.124 14.1822 132.098 14.1822 132.072 14.1822L130.964 21.41C130.937 21.5419 130.779 21.7002 130.621 21.7002H128.906C128.669 21.7002 128.51 21.5155 128.537 21.2517L130.779 8.43165Z" fill="white"/>
<path d="M147.371 8.72185C147.371 8.5372 147.555 8.35254 147.74 8.35254H149.56C149.771 8.35254 149.929 8.5372 149.929 8.72185V16.53C149.929 18.1391 151.037 19.4316 152.699 19.4316C154.361 19.4316 155.495 18.1654 155.495 16.5563V8.74822C155.495 8.56357 155.654 8.37892 155.865 8.37892H157.685C157.869 8.37892 158.054 8.56357 158.054 8.74822V16.6882C158.054 19.5899 155.759 21.9376 152.725 21.9376C149.745 21.9376 147.423 19.5899 147.423 16.6882V8.72185H147.371Z" fill="white"/>
<path d="M164.754 10.6475H161.826C161.615 10.6475 161.456 10.4628 161.456 10.2782V8.72185C161.456 8.5372 161.615 8.35254 161.826 8.35254H170.161C170.372 8.35254 170.531 8.5372 170.531 8.72185V10.2782C170.531 10.4628 170.372 10.6475 170.161 10.6475H167.233V21.3573C167.233 21.5419 167.075 21.7266 166.864 21.7266H165.097C164.912 21.7266 164.727 21.5419 164.727 21.3573V10.6475H164.754Z" fill="white"/>
<path d="M174.093 8.72185C174.093 8.5372 174.251 8.35254 174.462 8.35254H182.217C182.428 8.35254 182.586 8.5372 182.586 8.72185V10.2782C182.586 10.4628 182.428 10.6475 182.217 10.6475H176.572V13.7866H181.294C181.479 13.7866 181.663 13.9712 181.663 14.1559V15.7386C181.663 15.9496 181.505 16.1079 181.294 16.1079H176.572V19.458H182.217C182.428 19.458 182.586 19.6426 182.586 19.8273V21.3837C182.586 21.5683 182.428 21.753 182.217 21.753H174.462C174.251 21.753 174.093 21.5683 174.093 21.3837V8.72185Z" fill="white"/>
<path d="M0.256592 19.5108C0.256592 19.5371 0.256592 19.5635 0.256592 19.5899C0.256592 19.6163 0.256592 19.6427 0.256592 19.669V19.6954C0.256592 19.7218 0.256592 19.7218 0.256592 19.7482C0.256592 19.7745 0.256592 19.8009 0.256592 19.8273C0.256592 19.8537 0.256592 19.8801 0.282971 19.9064C0.282971 19.9328 0.30935 19.9592 0.30935 19.9856C0.30935 20.012 0.335729 20.0383 0.335729 20.0647C0.335729 20.0911 0.362107 20.1175 0.362107 20.1175C0.388486 20.1438 0.388486 20.1702 0.414865 20.1702C0.441244 20.1966 0.441244 20.223 0.467623 20.223C0.494001 20.2494 0.494001 20.2494 0.520379 20.2757C0.546758 20.3021 0.546758 20.3021 0.573137 20.3285C0.599516 20.3549 0.625894 20.3549 0.652273 20.3813C0.678652 20.3813 0.678652 20.4076 0.705031 20.4076L19.3284 29.7193H19.3548C19.3548 29.7193 19.3812 29.7193 19.3812 29.7457H19.4076C19.434 29.7457 19.434 29.7457 19.4603 29.7721C19.4867 29.7721 19.4867 29.7721 19.5131 29.7721H19.5395H19.5658C19.5922 29.7721 19.5922 29.7721 19.6186 29.7721C19.645 29.7721 19.645 29.7721 19.6714 29.7721C19.6977 29.7721 19.6977 29.7721 19.7241 29.7721C19.7505 29.7721 19.7505 29.7721 19.7769 29.7721C19.8033 29.7721 19.8033 29.7721 19.8296 29.7721H19.856H19.8824C19.9088 29.7721 19.9088 29.7721 19.9351 29.7721C19.9615 29.7721 19.9615 29.7721 19.9879 29.7457H20.0143C20.0143 29.7457 20.0407 29.7457 20.0407 29.7193H20.067L38.6905 20.4076C38.7168 20.4076 38.7168 20.3813 38.7432 20.3813C38.7696 20.3549 38.796 20.3549 38.8223 20.3285C38.8487 20.3021 38.8487 20.3021 38.8751 20.2757C38.9015 20.2494 38.9015 20.2494 38.9279 20.223C38.9542 20.1966 38.9542 20.1966 38.9806 20.1702C39.007 20.1439 39.007 20.1175 39.0334 20.1175C39.0598 20.0911 39.0598 20.0647 39.0598 20.0647C39.0598 20.0383 39.0861 20.012 39.0861 19.9856C39.0861 19.9592 39.1125 19.9328 39.1125 19.9064C39.1125 19.8801 39.1125 19.8537 39.1389 19.8273C39.1389 19.8009 39.1389 19.7745 39.1389 19.7482C39.1389 19.7218 39.1389 19.7218 39.1389 19.6954V19.669C39.1389 19.6427 39.1389 19.6163 39.1389 19.5899C39.1389 19.5635 39.1389 19.5371 39.1389 19.5108C39.1389 19.4844 39.1125 19.458 39.1125 19.4316C39.1125 19.4052 39.0861 19.3789 39.0861 19.3525V19.3261L29.7744 0.702701C29.7744 0.702701 29.7744 0.676321 29.748 0.676321C29.7217 0.623564 29.6953 0.570806 29.6425 0.544427L29.6162 0.518051C29.5634 0.465293 29.537 0.438912 29.4843 0.412533C29.4579 0.412533 29.4579 0.386157 29.4315 0.386157C29.3787 0.359778 29.3524 0.333396 29.2996 0.333396C29.2732 0.333396 29.2732 0.333399 29.2469 0.30702C29.1941 0.280641 29.115 0.28064 29.0622 0.28064H29.0358C28.9831 0.28064 28.9303 0.280641 28.9039 0.30702C28.8775 0.30702 28.8776 0.307018 28.8512 0.333396C28.7984 0.333396 28.772 0.359778 28.7457 0.386157H28.7193C28.6929 0.386157 28.6929 0.412533 28.6665 0.412533C28.6401 0.438912 28.6138 0.438911 28.5874 0.46529C28.561 0.491669 28.561 0.491672 28.5346 0.518051C28.5082 0.54443 28.5082 0.544429 28.4819 0.570808C28.4555 0.597186 28.4555 0.597186 28.4291 0.623564C28.4027 0.649943 28.4027 0.676321 28.3764 0.676321C28.35 0.7027 28.35 0.729078 28.35 0.729078C28.35 0.755457 28.3236 0.781836 28.3236 0.808215C28.3236 0.834594 28.2972 0.860973 28.2972 0.887352C28.2972 0.913731 28.2972 0.94011 28.2708 0.966489C28.2708 0.992868 28.2708 1.01925 28.2708 1.04563C28.2708 1.072 28.2708 1.072 28.2708 1.09838V17.8489L20.2781 9.85613C20.2517 9.82975 20.1989 9.777 20.1462 9.75062C20.1198 9.75062 20.1198 9.72424 20.0934 9.72424C20.067 9.69786 20.0407 9.69786 20.0143 9.67148C19.9879 9.67148 19.9615 9.6451 19.9351 9.6451C19.9088 9.6451 19.8824 9.61872 19.856 9.61872C19.8033 9.61872 19.7505 9.59234 19.6977 9.59234C19.645 9.59234 19.5922 9.59235 19.5395 9.61872C19.5131 9.61872 19.4867 9.6451 19.4603 9.6451C19.434 9.6451 19.4076 9.67148 19.3812 9.67148C19.3548 9.67148 19.3284 9.69786 19.3021 9.72424C19.2757 9.72424 19.2757 9.75062 19.2493 9.75062C19.1965 9.777 19.1702 9.80337 19.1174 9.85613L11.1246 17.8489V1.09838C11.1246 1.072 11.1246 1.072 11.1246 1.04563C11.1246 1.01925 11.1246 0.992868 11.1246 0.966489C11.1246 0.94011 11.1246 0.913731 11.0983 0.887352C11.0983 0.860973 11.0719 0.834594 11.0719 0.808215C11.0719 0.781836 11.0455 0.755457 11.0455 0.729078C11.0455 0.702699 11.0191 0.676321 11.0191 0.676321C10.9927 0.649942 10.9927 0.623564 10.9664 0.623564C10.94 0.597186 10.94 0.570808 10.9136 0.570808C10.8872 0.544429 10.8872 0.54443 10.8609 0.518051C10.8345 0.491672 10.8345 0.491669 10.8081 0.46529C10.7817 0.438911 10.7553 0.438912 10.729 0.412533C10.7026 0.412533 10.7026 0.386157 10.6762 0.386157H10.6498C10.6234 0.359778 10.5707 0.359775 10.5443 0.333396C10.5179 0.333396 10.5179 0.333399 10.4916 0.30702C10.4388 0.30702 10.4124 0.28064 10.3597 0.28064H10.3333C10.2805 0.28064 10.2014 0.280641 10.1486 0.30702C10.1222 0.30702 10.1222 0.307018 10.0959 0.333396C10.0431 0.359775 9.99036 0.359778 9.96398 0.386157C9.9376 0.386157 9.9376 0.412533 9.91122 0.412533C9.85846 0.438912 9.8057 0.491672 9.77932 0.518051L9.75295 0.544427C9.72657 0.597185 9.67381 0.623564 9.64743 0.676321C9.64743 0.676321 9.64743 0.702701 9.62105 0.702701L0.30935 19.3261V19.3525C0.30935 19.3789 0.282971 19.4052 0.282971 19.4316C0.282971 19.458 0.256592 19.4844 0.256592 19.5108ZM9.99036 20.4604L15.6882 26.1582L4.29254 20.4604H9.99036ZM29.2469 20.4604H34.9447L23.549 26.1582L29.2469 20.4604ZM29.7217 18.904V4.34297L37.0022 18.904H29.7217ZM20.41 27.1078V12.2302L27.8488 19.669L20.41 27.1078ZM18.8536 27.1078L11.4148 19.669L18.8536 12.2302V27.1078ZM2.26138 18.904L9.54192 4.34297V18.904H2.26138Z" fill="white"/>
</g>
<defs>
<clipPath id="clip0_5868_277550">
<rect width="182.541" height="29.808" fill="white" transform="translate(0.229492 0.0959473)"/>
</clipPath>
</defs>
</svg>
