<svg width="142" height="20" fill="none" xmlns="http://www.w3.org/2000/svg">
    <g opacity=".4">
        <g clip-path="url(#a)" fill="#fff">
            <path d="m17.386 6.653 3.413 9.247h2.384l3.414-9.247h-2.058l-2.51 7.151-2.547-7.151h-2.096Zm9.59 2.149c-.38.722-.562 1.553-.562 2.494 0 .941.18 1.77.578 2.475a4.09 4.09 0 0 0 1.662 1.661c.722.397 1.553.578 2.528.578 1.102 0 2.023-.29 2.764-.903.74-.596 1.192-1.372 1.372-2.312h-1.951c-.145.524-.415.921-.81 1.21-.417.289-.922.416-1.518.416-.758 0-1.372-.235-1.824-.704-.47-.47-.723-1.103-.759-1.915v-.109h6.972c.036-.245.054-.492.054-.74-.018-.885-.217-1.662-.614-2.33a4.107 4.107 0 0 0-1.608-1.535c-.686-.361-1.463-.542-2.348-.542-.885 0-1.661.199-2.348.596a4.03 4.03 0 0 0-1.591 1.66h.002Zm6.52 1.463h-4.968c.073-.65.326-1.156.795-1.553a2.465 2.465 0 0 1 1.662-.596c.686 0 1.247.198 1.697.578.45.38.72.903.811 1.57h.002Zm7.951-3.612h-.436c-.722 0-1.282.124-1.698.379-.426.24-.781.59-1.03 1.011l-.216-1.39h-1.734v9.25h1.95V11.26c0-.795.182-1.463.543-1.987.36-.524.939-.795 1.751-.795h.867l.003-1.826Zm.829-2.583v9.32c0 .866.198 1.498.595 1.896.397.415 1.03.614 1.915.614h1.878v-1.716h-1.481c-.361 0-.596-.072-.74-.217-.145-.145-.217-.415-.217-.776V8.368h2.24V6.653h-2.24V4.07h-1.95Zm5.123 4.732c-.378.722-.56 1.553-.56 2.494 0 .941.18 1.77.577 2.475a4.09 4.09 0 0 0 1.662 1.661c.722.397 1.552.578 2.528.578 1.102 0 2.023-.29 2.763-.903.741-.596 1.193-1.372 1.372-2.312h-1.95c-.145.524-.415.921-.81 1.21-.416.289-.922.416-1.517.416-.759 0-1.372-.235-1.825-.704-.47-.47-.722-1.103-.758-1.915v-.109h6.972c.035-.245.053-.492.053-.74-.018-.885-.217-1.662-.614-2.33a4.106 4.106 0 0 0-1.61-1.537c-.687-.361-1.464-.542-2.349-.542-.885 0-1.661.199-2.348.596a4.036 4.036 0 0 0-1.588 1.662h.002Zm6.52 1.463h-4.966c.072-.65.325-1.156.794-1.553a2.469 2.469 0 0 1 1.662-.596c.686 0 1.248.198 1.699.578.45.38.719.903.809 1.57h.002Zm5.073.903L55.524 15.9h2.113l2.456-3.36 2.439 3.36h2.276l-3.487-4.732 3.288-4.515h-2.135l-2.257 3.124-2.222-3.124h-2.276l3.273 4.515Z"/>
            <g clip-path="url(#b)">
                <path d="M8.243 14.634a1.533 1.533 0 0 1-1.42 1.113h-2.16L.266 6.553h4.391l2.197 4.599s1.603 2.727 1.389 3.482Z"/>
                <path d="M8.243 14.634c.214-.755-1.389-3.48-1.389-3.48H9.23l-.986 3.48ZM9.23 11.154h4.288v-4.6h-1.713a1.535 1.535 0 0 0-1.46 1.07l-1.116 3.53Z"/>
            </g>
        </g>
        <path fill-rule="evenodd" clip-rule="evenodd" d="m76.266 10.238 2.583 2.582.188-.188-2.583-2.582 2.682-2.682-.188-.188-2.682 2.682-2.682-2.682-.188.188 2.683 2.682-2.583 2.582.188.188 2.582-2.582Z" fill="url(#c)" opacity=".9"/>
        <g clip-path="url(#d)" fill="#fff">
            <path d="M113.676 9.71h-.002c-.327-.157-.745-.237-1.242-.237h-1.413c-.377 0-.678-.105-.893-.306l-.011-.01a1.06 1.06 0 0 1-.311-.761c0-.29.105-.56.311-.777.209-.22.494-.332.846-.332h3.479v-.754h-3.608c-.392 0-.729.09-1.03.276a1.859 1.859 0 0 0-.944 1.629c0 .402.086.743.258 1.015.183.276.427.483.744.635.329.14.719.21 1.159.21h1.487c.25 0 .473.057.661.171a.997.997 0 0 1 .431.435c.093.174.137.351.137.56a1.247 1.247 0 0 1-.613 1.083 1.338 1.338 0 0 1-.688.167h-3.347v.752h3.506c.42 0 .774-.094 1.084-.287.322-.195.563-.438.74-.748a2.01 2.01 0 0 0 .264-1.012c0-.42-.089-.781-.262-1.067a1.545 1.545 0 0 0-.743-.642ZM121.882 6.887v-.002c-.547-.322-1.19-.485-1.908-.485s-1.359.163-1.91.485c-.549.312-.99.748-1.312 1.295a3.488 3.488 0 0 0-.483 1.82c0 .671.162 1.291.483 1.835.322.537.763.973 1.312 1.295.524.3 1.137.457 1.818.47h.092c.718.001 1.359-.155 1.908-.468a3.544 3.544 0 0 0 1.314-1.293 3.57 3.57 0 0 0 .483-1.836c0-.673-.162-1.302-.483-1.838a3.439 3.439 0 0 0-1.314-1.278Zm.828 3.116v-.001c0 .53-.115 1.018-.343 1.45a2.671 2.671 0 0 1-.953 1.02c-.403.252-.902.385-1.442.385-.54 0-1.024-.13-1.443-.384a2.711 2.711 0 0 1-.955-1.023 3.08 3.08 0 0 1-.342-1.447c0-.53.115-1.012.342-1.434.228-.436.551-.785.958-1.039.416-.255.902-.381 1.44-.381.538 0 1.032.128 1.442.384.407.255.728.602.955 1.034a3 3 0 0 1 .343 1.436h-.002ZM130.622 6.787l-.001.002c-.47-.257-1.023-.39-1.647-.39-.625 0-1.171.133-1.652.394-.481.25-.85.597-1.126 1.054-.264.453-.398.992-.398 1.601v4.019h.926V9.462c0-.47.105-.884.311-1.228.212-.349.493-.62.835-.81a2.313 2.313 0 0 1 1.104-.278c.387 0 .754.093 1.09.278.348.187.629.46.836.812.215.342.323.753.323 1.223v4.005h.927V9.445c0-.607-.139-1.147-.412-1.6a2.703 2.703 0 0 0-1.116-1.058ZM135.589 6.533h-.926v6.933h.926V6.533ZM141.37 7.286h.704v-.753h-.661c-.71 0-1.352.157-1.906.465a3.55 3.55 0 0 0-1.319 1.253 3.25 3.25 0 0 0-.481 1.749c0 .65.162 1.24.481 1.763.322.514.766.93 1.319 1.239.485.267 1.434.464 1.858.464h.709v-.753h-.704a2.79 2.79 0 0 1-1.399-.357 2.846 2.846 0 0 1-.972-.986 2.75 2.75 0 0 1-.35-1.372c0-.5.118-.962.352-1.372.241-.407.569-.735.973-.97.414-.244.882-.37 1.396-.37ZM97.874 12.133c-3.185.964-5.82 2.37-7.47 4.017l-.073.073c.439.418.92.792 1.44 1.11l.112-.137a21.183 21.183 0 0 1 5.992-5.062ZM98.402 10.666h-10.72a8.639 8.639 0 0 0 1.79 4.667l.046-.047c1.041-1.035 2.397-1.976 4.032-2.796 1.433-.72 3.078-1.337 4.852-1.824ZM94.293 3.456c2.911 2.934 6.575 4.874 10.595 5.61-.484-4.35-4.145-7.733-8.594-7.733a8.578 8.578 0 0 0-3.316.664c.415.505.858.998 1.315 1.46v-.001ZM90.403 3.85c1.65 1.648 4.285 3.051 7.471 4.017a21.235 21.235 0 0 1-5.994-5.063l-.111-.137c-.52.317-1.001.69-1.438 1.109l.073.073ZM94.292 16.544c-.458.461-.901.953-1.314 1.459a8.575 8.575 0 0 0 3.316.664c4.448 0 8.108-3.384 8.594-7.734-4.018.736-7.682 2.676-10.594 5.61h-.002ZM93.549 7.507v.002c-1.634-.82-2.99-1.762-4.03-2.796l-.047-.046a8.639 8.639 0 0 0-1.79 4.666h10.72c-1.773-.487-3.418-1.104-4.853-1.826Z"/>
        </g>
    </g>
    <defs>
        <clipPath id="a">
            <path fill="#fff" d="M.266 4.067h64.552v11.867H.266z"/>
        </clipPath>
        <clipPath id="b">
            <path fill="#fff" d="M.266 6.553h13.252v9.194H.266z"/>
        </clipPath>
        <clipPath id="d">
            <path fill="#fff" d="M87.714 0H142v20H87.714z"/>
        </clipPath>
        <linearGradient id="c" x1="76.266" y1="7.18" x2="76.266" y2="12.82" gradientUnits="userSpaceOnUse">
            <stop stop-color="#fff"/>
            <stop offset="1" stop-color="#fff" stop-opacity=".7"/>
        </linearGradient>
    </defs>
</svg>
