<svg width="179" height="203" viewBox="0 0 179 203" fill="none" xmlns="http://www.w3.org/2000/svg">
<path d="M9.49658 202.852V154.885H15.5488V130.652H21.601V106.42H27.6533V82.1869H33.7055V57.9543H39.7577V33.7217H45.8099V9.48903H166.427V33.7217H178.532V105.897H148.247V106.396H160.351V178.572H130.066V202.804H9.49658V202.852ZM112.432 154.885V130.178H69.5679V154.41H63.5157V154.909H112.456L112.432 154.885ZM130.589 82.2107V57.5033H87.7245V81.736H81.6723V82.2344H130.612L130.589 82.2107Z" fill="url(#paint0_linear_739_68879)" fill-opacity="0.22"/>
<path d="M4.74731 198.097V150.13H10.7995V125.898H16.8518V101.665H22.904V77.4325H28.9562V53.1998H35.0084V28.9672H41.0607V4.73457H161.678V28.9672H173.782V101.143H143.498V101.641H155.602V173.817H125.317V198.05H4.74731V198.097ZM107.683 150.13V125.423H64.8186V149.656H58.7664V150.154H107.706L107.683 150.13ZM125.839 77.4562V52.7489H82.9753V76.9815H76.9231V77.4799H125.863L125.839 77.4562Z" fill="url(#paint1_linear_739_68879)" fill-opacity="0.22"/>
<path d="M0 193.363V145.396H6.05222V121.163H12.1044V96.9305H18.1567V72.6979H24.2089V48.4653H30.2611V24.2326H36.3133V0H156.931V24.2326H169.035V96.4084H138.75V96.9068H150.855V169.083H120.57V193.315H0V193.363ZM102.935 145.396V120.688H60.0713V144.921H54.0191V145.42H102.959L102.935 145.396ZM121.092 72.7216V48.0143H78.228V72.2469H72.1757V72.7454H121.116L121.092 72.7216Z" fill="url(#paint2_linear_739_68879)" fill-opacity="0.22"/>
<path d="M144.821 7.50801V32.1125H157.123V81.3214H132.519V32.1125H64.8567V56.717H58.7055V81.3214H126.368V105.926H138.67V155.135H114.066V105.926H46.4033V130.53H40.2522V155.135H107.914V179.739H9.49658V155.135H15.6477V130.53H21.7988V105.926H27.9499V81.3214H34.1011V56.717H40.2522V32.1125H46.4033V7.50801H144.821Z" fill="#FF036D"/>
<defs>
<linearGradient id="paint0_linear_739_68879" x1="94.0141" y1="9.48903" x2="94.0141" y2="202.852" gradientUnits="userSpaceOnUse">
<stop stop-color="#DE076C" stop-opacity="0.74"/>
<stop offset="1" stop-color="#960178" stop-opacity="0.64"/>
</linearGradient>
<linearGradient id="paint1_linear_739_68879" x1="89.2649" y1="4.73457" x2="89.2649" y2="198.097" gradientUnits="userSpaceOnUse">
<stop stop-color="#DE076C" stop-opacity="0.74"/>
<stop offset="1" stop-color="#960178" stop-opacity="0.64"/>
</linearGradient>
<linearGradient id="paint2_linear_739_68879" x1="84.5175" y1="0" x2="84.5175" y2="193.363" gradientUnits="userSpaceOnUse">
<stop stop-color="#DE076C" stop-opacity="0.74"/>
<stop offset="1" stop-color="#960178" stop-opacity="0.64"/>
</linearGradient>
</defs>
</svg>
