<svg width="24" height="24" viewBox="0 0 24 24" fill="none" xmlns="http://www.w3.org/2000/svg">
<g clip-path="url(#clip0_6122_1022)">
<path d="M12 24C18.6274 24 24 18.6274 24 12C24 5.37258 18.6274 0 12 0C5.37258 0 0 5.37258 0 12C0 18.6274 5.37258 24 12 24Z" fill="#9391F7"/>
<path d="M9.76845 12.5851C10.7974 12.418 11.4962 11.4484 11.3292 10.4194C11.1621 9.39042 10.1925 8.69168 9.16353 8.85864C8.13456 9.02569 7.43582 9.99524 7.60278 11.0243C7.76983 12.0533 8.73947 12.752 9.76845 12.5851ZM14.702 12.5851C15.7309 12.418 16.4297 11.4484 16.2626 10.4194C16.0957 9.39042 15.126 8.69168 14.097 8.85864C13.0681 9.02569 12.3692 9.99524 12.5363 11.0243C12.7033 12.0533 13.6729 12.752 14.702 12.5851Z" fill="white"/>
<path d="M11.9294 2.93066C6.80428 2.93066 2.64897 7.16506 2.65039 12.3868H5.02091C5.02091 8.47353 8.08941 5.30071 11.9294 5.30071C15.7694 5.30071 18.838 8.47353 18.838 12.3868H21.2085C21.2094 7.16506 17.0542 2.93066 11.9294 2.93066Z" fill="white"/>
</g>
<defs>
<clipPath id="clip0_6122_1022">
<rect width="24" height="24" fill="white"/>
</clipPath>
</defs>
</svg>