<svg width="24" height="24" fill="none" xmlns="http://www.w3.org/2000/svg">
    <g clip-path="url(#a)">
        <path d="M12 24c6.628 0 12-5.372 12-12S18.628 0 12 0 0 5.372 0 12s5.372 12 12 12Z" fill="#070A0E"/>
        <path fill-rule="evenodd" clip-rule="evenodd" d="M6.932 16.024a1.208 1.208 0 0 1-.578-1.03v-2.345a.503.503 0 0 1 .758-.434l5.291 3.085c.31.18.5.511.5.87v2.429a.603.603 0 0 1-.919.516l-5.052-3.091Zm7.887-4.451c.31.18.499.512.5.87v4.93a.4.4 0 0 1-.205.35l-1.158.651a.202.202 0 0 1-.047.02v-2.738c0-.354-.186-.682-.49-.865l-4.647-2.779v-3.09a.503.503 0 0 1 .758-.434l5.289 3.085Zm2.316-3.641c.31.18.501.512.501.871v7.2a.408.408 0 0 1-.212.354l-1.098.593v-5.012a1.01 1.01 0 0 0-.488-.864l-4.75-2.85v-2.93a.505.505 0 0 1 .756-.436l5.29 3.074Z" fill="#00D395"/>
    </g>
    <defs>
        <clipPath id="a">
            <path fill="#fff" d="M0 0h24v24H0z"/>
        </clipPath>
    </defs>
</svg>
