<svg width="42" height="42" viewBox="0 0 42 42" fill="none" xmlns="http://www.w3.org/2000/svg" class="h-6 w-6">
    <circle cx="20.9951" cy="20.5146" r="20.5049" fill="#FEF3C7"></circle>
    <path
        d="M15.1429 30.0877H11.998C11.4492 30.0877 10.9596 29.9648 10.4998 29.7189C10.0399 29.4731 9.68387 29.1317 9.40201 28.6947L7.72572 25.9635C7.4587 25.5538 7.3252 25.1168 7.3252 24.6252C7.3252 24.1335 7.4587 23.7102 7.72572 23.3005L9.43168 20.5283L7.72572 17.7697C7.4587 17.36 7.3252 16.9094 7.3252 16.4314C7.3252 15.9534 7.4587 15.5028 7.72572 15.0931L9.40201 12.3619C9.66903 11.9249 10.0399 11.5834 10.4998 11.3376C10.9596 11.0918 11.464 10.9553 11.998 10.9553H15.1429L16.8044 8.25132C17.0714 7.81432 17.4423 7.47291 17.9021 7.2271C18.362 6.98129 18.8664 6.84473 19.4004 6.84473H22.5898C23.1387 6.84473 23.6282 6.96763 24.0881 7.2271C24.5479 7.47291 24.904 7.81432 25.1858 8.25132L26.8621 10.9553H30.007C30.5559 10.9553 31.0454 11.0782 31.5053 11.3376C31.9651 11.5834 32.3212 11.9249 32.603 12.3619L34.2645 15.0931C34.5315 15.5028 34.665 15.9398 34.665 16.4314C34.665 16.923 34.5315 17.36 34.2645 17.7697L32.5585 20.5283L34.2645 23.3005C34.5315 23.7102 34.665 24.1472 34.665 24.6252C34.665 25.1031 34.5315 25.5538 34.2645 25.9635L32.603 28.6947C32.336 29.1317 31.9651 29.4731 31.5053 29.7189C31.0454 29.9648 30.541 30.0877 30.007 30.0877H26.8621L25.1858 32.7916C24.9188 33.2286 24.5479 33.57 24.0881 33.8158C23.6282 34.0616 23.1238 34.1845 22.5898 34.1845H19.4004C18.8515 34.1845 18.362 34.0616 17.9021 33.8158C17.4423 33.57 17.0862 33.2286 16.8044 32.7916L15.1429 30.0877ZM26.8621 19.1627H30.0515L31.6833 16.4314L30.0515 13.7002H26.8621L25.1858 16.4314L26.8621 19.1627ZM19.4449 23.2595H22.5601L24.2216 20.5283L22.5601 17.797H19.4449L17.7835 20.5283L19.4449 23.2595ZM19.4449 15.0658H22.5601L24.2661 12.2936L22.6046 9.60329H19.4152L17.7538 12.2936L19.4597 15.0658H19.4449ZM16.8192 16.4314L15.1578 13.7002H12.0129L10.3514 16.4314L12.0129 19.1627H15.1578L16.8192 16.4314ZM16.8192 24.6252L15.1578 21.8939H11.9684L10.3366 24.6252L11.998 27.3564H15.1429L16.8044 24.6252H16.8192ZM19.4449 25.9908L17.7389 28.7493L19.4004 31.4533H22.5898L24.2513 28.7493L22.5453 25.9908H19.4301H19.4449ZM26.8621 27.3564H30.007L31.6685 24.6252L30.007 21.8939H26.8621L25.1858 24.6252L26.8621 27.3564Z"
        fill="#D97706"></path>
</svg>