<svg width="24" height="24" fill="none" xmlns="http://www.w3.org/2000/svg">
    <rect width="24" height="24" rx="12" fill="#E6DAFE"/>
    <g clip-path="url(#a)" fill="#110F23">
        <path d="M13.75 10.765c0 .97-.784 1.755-1.75 1.755v1.755c1.933 0 3.5-1.571 3.5-3.51a3.505 3.505 0 0 0-3.5-3.51 3.508 3.508 0 0 0-3.5 3.51v8.774l1.573 1.578.177.177V10.765c0-.969.784-1.754 1.75-1.754s1.75.785 1.75 1.755Z"/>
        <path d="M12 3.747a6.95 6.95 0 0 0-3.5.94c-.66.381-1.25.868-1.75 1.437A7.003 7.003 0 0 0 5 10.766v5.264l1.75 1.755v-7.02A5.259 5.259 0 0 1 12 5.502c2.9 0 5.25 2.358 5.25 5.265 0 2.907-2.35 5.264-5.25 5.264v1.755c3.867 0 7-3.143 7-7.02 0-3.876-3.133-7.018-7-7.018Z"/>
    </g>
    <defs>
        <clipPath id="a">
            <path fill="#fff" d="M5 3.747h14v17.548H5z"/>
        </clipPath>
    </defs>
</svg>
