<svg width="24" height="24" fill="none" xmlns="http://www.w3.org/2000/svg">
    <rect width="24" height="24" rx="12" fill="#4CA2FF"/>
    <g clip-path="url(#a)">
        <path fill-rule="evenodd" clip-rule="evenodd" d="M15.752 10.673a4.767 4.767 0 0 1 1.043 2.983 4.768 4.768 0 0 1-1.072 3.02l-.058.07-.015-.09a4.209 4.209 0 0 0-.046-.232c-.336-1.474-1.429-2.738-3.228-3.761-1.215-.69-1.91-1.52-2.093-2.463-.117-.61-.03-1.222.14-1.746.169-.525.42-.964.635-1.229l.7-.855a.307.307 0 0 1 .475 0l3.52 4.303Zm1.107-.855-4.69-5.736a.224.224 0 0 0-.347 0l-4.69 5.736-.016.019a6.216 6.216 0 0 0-1.38 3.914A6.254 6.254 0 0 0 11.996 20a6.254 6.254 0 0 0 6.258-6.249 6.216 6.216 0 0 0-1.38-3.914l-.015-.019Zm-8.605.837.42-.514.012.095c.01.075.022.15.037.226.271 1.425 1.24 2.612 2.862 3.532 1.41.802 2.23 1.725 2.467 2.736.098.422.116.838.073 1.2l-.002.023-.02.01a4.786 4.786 0 0 1-2.108.485c-2.65 0-4.8-2.145-4.8-4.792 0-1.136.397-2.18 1.059-3.002Z" fill="#fff"/>
    </g>
    <defs>
        <clipPath id="a">
            <path fill="#fff" d="M5.736 4h12.528v16H5.736z"/>
        </clipPath>
    </defs>
</svg>
