<svg width="24" height="24" fill="none" xmlns="http://www.w3.org/2000/svg">
    <rect width="24" height="24" rx="12" fill="#7B2BF9"/>
    <path d="M19.827 10.339a8.007 8.007 0 0 0-9.798-6.093A8.003 8.003 0 0 0 5.361 7.53c-.085.113-.16.232-.228.357a8.008 8.008 0 0 0 6.318 12.094 8.002 8.002 0 0 0 7.875-4.752A7.998 7.998 0 0 0 20 12.004c0-.553-.056-1.104-.169-1.645 0-.007-.002-.014-.004-.02Zm-2.775-3.66.137.133a7.328 7.328 0 0 1 1.616 2.435.124.124 0 0 1-.136.168 3.7 3.7 0 0 0-.711-.05.37.37 0 0 1-.372-.303 10.75 10.75 0 0 0-.66-2.294.079.079 0 0 1 .126-.09Zm.761 4.695a.085.085 0 0 1 .155-.051 6.47 6.47 0 0 1 .379.59.185.185 0 0 1-.025.217 8.684 8.684 0 0 1-.28.292c-.037.037-.074.074-.113.11a.075.075 0 0 1-.08.013.073.073 0 0 1-.043-.067 16.73 16.73 0 0 0 .006-1.104h.001ZM7.738 6.024a7.283 7.283 0 0 1 4.26-1.363c.405 0 .81.033 1.209.1a.124.124 0 0 1 .057.218c-.383.3-.74.746-1.055 1.322a.343.343 0 0 1-.394.167c-1.044-.295-2.072-.433-3.021-.4a6.8 6.8 0 0 0-.993.106.083.083 0 0 1-.063-.15ZM6.69 16.99c-.154-.291.045-.966 1.058-1.99a.252.252 0 0 0-.022-.376l-.121-.097a.253.253 0 0 0-.339.018l-.04.04c-.506.52-.86 1-1.059 1.434a.174.174 0 0 1-.3.023 7.289 7.289 0 0 1-1.208-4.039c0-.515.053-1.028.16-1.532a.074.074 0 0 1 .144-.007c.152.503.4 1.024.743 1.55a9.732 9.732 0 0 0 1.79 2.013c.245.213.505.42.776.62.564.413 1.16.782 1.78 1.104.282.146.556.286.836.412a.636.636 0 0 0 .494.014c.132-.052.265-.106.4-.162a.32.32 0 0 0 .186-.373l-.011-.044a14.264 14.264 0 0 1-.359-3.074v-.04l-.001-.18v-.093c0-.069 0-.137.002-.206.003-.189.01-.375.02-.56.068-1.324.293-2.568.65-3.614a.185.185 0 0 0-.116-.235 7.475 7.475 0 0 0-.283-.093.184.184 0 0 0-.229.117c-.387 1.136-.625 2.484-.689 3.91a.537.537 0 0 1-.262.438 20.26 20.26 0 0 0-2.29 1.567.372.372 0 0 1-.475-.01 9.036 9.036 0 0 1-1.664-1.872c-.84-1.29-1.04-2.505-.561-3.42l.003-.006c.061-.1.124-.2.19-.299.549-.726 1.57-1.147 2.923-1.195.086-.003.172-.004.26-.004.83 0 1.722.137 2.629.398l.06.018.045.013c.21.063.42.132.63.208l.015.005.165.061.051.02.05.019c.451.175.892.374 1.322.598.817.422 1.586.931 2.293 1.52-1.285.294-2.78.863-4.282 1.63a.22.22 0 0 0-.12.182c-.005.093-.012.28-.017.43a.122.122 0 0 0 .179.111c1.486-.781 2.972-1.365 4.247-1.674a.477.477 0 0 0 .36-.53c-.024-.17-.05-.336-.08-.5a.834.834 0 0 0-.314-.52 13.831 13.831 0 0 0-3.4-1.886.18.18 0 0 1-.093-.259c.497-.89 1.09-1.387 1.665-1.387h.018c.68.012 1.358.72 1.86 1.942a10.187 10.187 0 0 1 .583 2.106c.058.331.104.673.138 1.024l-.009.006.013.012a16.068 16.068 0 0 1 .007 2.994c-.91.736-2.034 1.467-3.27 2.122-.406.216-.813.416-1.214.6l-.018.01-.093.042c-.333.15-.662.29-.988.417l-.055.021-.068.027-.163.061-.045.017c-.065.025-.13.048-.196.072l-.025.009c-.695.247-1.358.434-1.962.55-1.46.283-2.148.067-2.304-.228ZM8.7 14.14a19.12 19.12 0 0 1 2.236-1.55c.018 1.064.134 2.085.34 3.007A13.03 13.03 0 0 1 8.7 14.14Zm4.244 5.144c-.314.04-.63.06-.946.06a7.288 7.288 0 0 1-3.964-1.158.099.099 0 0 1-.007-.16.1.1 0 0 1 .057-.022c.02 0 .038-.002.054-.003.329-.023.655-.067.978-.13a14.972 14.972 0 0 0 2.464-.728.155.155 0 0 1 .199.086v.002c.339.826.757 1.45 1.226 1.848a.117.117 0 0 1-.06.205Zm3.103-1.96c-.524 1.03-1.17 1.61-1.795 1.598-.68-.012-1.357-.72-1.86-1.943a.154.154 0 0 1 .082-.2l.016-.007a.157.157 0 0 1 .105-.007 10.18 10.18 0 0 0 2.731.401 8.4 8.4 0 0 0 .6-.023.124.124 0 0 1 .113.056.125.125 0 0 1 .008.125Zm.226-.887a6.36 6.36 0 0 1-.69.061 8.604 8.604 0 0 1-1.849-.149.082.082 0 0 1-.067-.07.083.083 0 0 1 .045-.085 22.593 22.593 0 0 0 3.106-1.882.082.082 0 0 1 .123.033.082.082 0 0 1 .006.048 11.91 11.91 0 0 1-.456 1.86.273.273 0 0 1-.218.184Zm1.083.583a5.33 5.33 0 0 1-.169.173c-.099.1-.201.197-.307.29a.082.082 0 0 1-.129-.095 6.425 6.425 0 0 0 .16-.366.083.083 0 0 1 .056-.049c.104-.026.205-.055.304-.087a.082.082 0 0 1 .085.134Zm1.475-2.33c-.035.09-.072.18-.11.268l-.019.036c-.242.466-.648.833-1.19 1.088a.157.157 0 0 1-.22-.183c.188-.682.323-1.376.406-2.078a.555.555 0 0 1 .188-.353c.223-.193.431-.386.623-.577l.002-.003a.177.177 0 0 1 .294.075c.19.63.2 1.216.026 1.728Zm.147-3.439a.148.148 0 0 1-.255.008l-.029-.044a8.74 8.74 0 0 0-.751-.987.122.122 0 0 1 .092-.202h.003c.657 0 1.002.162 1.107.36.086.166.06.457-.167.865Zm.355.97a.047.047 0 0 1-.037.044.047.047 0 0 1-.03-.004.047.047 0 0 1-.021-.023l-.025-.059a.11.11 0 0 1 .012-.11l.027-.035c.032-.042.079-.036.079.01l-.005.178Z" fill="#fff"/>
</svg>
