<svg xmlns="http://www.w3.org/2000/svg" width="24" height="20" fill="none">
    <path d="M20.833 5.02c-.557-.94-1.955-1.479-4.064-1.344-2.065.132-4.613.91-7.132 2.328-2.52 1.418-4.485 3.18-5.635 4.856-1.174 1.713-1.394 3.162-.837 4.103.557.94 1.955 1.48 4.064 1.344 2.065-.132 4.612-.91 7.132-2.328 2.52-1.417 4.485-3.179 5.634-4.856 1.175-1.712 1.395-3.162.838-4.102Z" stroke="url(#a)" stroke-width="1.164"/>
    <path d="M16.182 8.847c-.257-.26-.522-.367-.82-.367-.328 0-.6.112-.852.367h1.672Zm0 0 .006.006m-.006-.006.006.006m0 0c.2.199.36.548.36 1.178 0 .625-.157.985-.363 1.196m.003-2.374-.003 2.374m0 0a1.139 1.139 0 0 1-.839.355c-.316 0-.585-.107-.835-.352-.199-.21-.351-.572-.351-1.199 0-.634.156-.986.35-1.184l1.675 2.38Zm-9.95 2.732a.67.67 0 0 0 .628.436H9.2a.67.67 0 0 0 .627-.435l1.104-2.954c.091.492.256.954.498 1.381l.007.012c.4.674.94 1.209 1.616 1.595l.004.002c.692.39 1.46.578 2.29.578.82 0 1.583-.19 2.273-.578a4.248 4.248 0 0 0 1.624-1.603c.408-.7.603-1.495.603-2.362 0-.865-.194-1.655-.603-2.347a4.216 4.216 0 0 0-1.622-1.617 4.49 4.49 0 0 0-2.26-.579c-.83 0-1.598.189-2.29.578l-.004.002a4.41 4.41 0 0 0-.437.285.67.67 0 0 0-.669-.686H9.94a.67.67 0 0 0-.633.454L8.04 9.845 6.772 6.121a.67.67 0 0 0-.633-.454H4.117a.67.67 0 0 0-.627.902l2.746 7.39Z" fill="url(#b)" stroke="#1B1B21" stroke-width="1.339" stroke-linejoin="round"/>
    <defs>
        <radialGradient id="b" cx="0" cy="0" r="1" gradientUnits="userSpaceOnUse" gradientTransform="matrix(-20.42171 10.0067 -32.43382 -66.19105 23.337 1.746)">
            <stop offset=".432" stop-color="#DBC9F8"/>
            <stop offset="1" stop-color="#A29DFB"/>
        </radialGradient>
        <linearGradient id="a" x1="15.797" y1="13.825" x2="9.254" y2="5.571" gradientUnits="userSpaceOnUse">
            <stop stop-color="#D9C8F0"/>
            <stop offset="1" stop-color="#9279CC" stop-opacity="0"/>
        </linearGradient>
    </defs>
</svg>
