<svg width="243" height="170" viewBox="0 0 243 170" fill="none" xmlns="http://www.w3.org/2000/svg">
<rect x="1.08889" y="1.24734" width="239.289" height="498.397" rx="5.33235" fill="#1D1D22"/>
<path d="M20.9961 15.8225L17.4412 19.3774L20.9961 22.9323" stroke="#A2A2A6" stroke-width="0.888725" stroke-linecap="round" stroke-linejoin="round"/>
<path d="M105.606 22.9968C105.095 22.9968 104.647 22.9072 104.262 22.728C103.877 22.5488 103.576 22.2934 103.357 21.9616C103.144 21.6298 103.035 21.235 103.028 20.7771H104.143C104.15 21.1487 104.279 21.4639 104.531 21.7227C104.783 21.9815 105.138 22.1109 105.596 22.1109C106.001 22.1109 106.316 22.0147 106.542 21.8222C106.774 21.6231 106.89 21.371 106.89 21.0657C106.89 20.8202 106.834 20.6211 106.721 20.4685C106.615 20.3159 106.465 20.1898 106.273 20.0903C106.087 19.9907 105.872 19.9012 105.626 19.8215C105.381 19.7419 105.122 19.6556 104.85 19.5627C104.312 19.3836 103.907 19.1513 103.635 18.866C103.37 18.5806 103.237 18.2057 103.237 17.7412C103.231 17.3497 103.32 17.0079 103.506 16.716C103.698 16.424 103.964 16.1984 104.302 16.0391C104.647 15.8732 105.049 15.7903 105.507 15.7903C105.958 15.7903 106.353 15.8732 106.691 16.0391C107.036 16.205 107.305 16.4373 107.497 16.7359C107.69 17.0278 107.789 17.3696 107.796 17.7611H106.681C106.681 17.5819 106.635 17.4127 106.542 17.2535C106.449 17.0876 106.313 16.9515 106.134 16.8454C105.955 16.7392 105.736 16.6861 105.477 16.6861C105.145 16.6795 104.87 16.7624 104.651 16.9349C104.438 17.1075 104.332 17.3464 104.332 17.6516C104.332 17.9237 104.412 18.1327 104.571 18.2787C104.73 18.4247 104.949 18.5474 105.228 18.647C105.507 18.7399 105.825 18.8494 106.183 18.9755C106.529 19.0883 106.837 19.2243 107.109 19.3836C107.381 19.5428 107.597 19.7518 107.756 20.0106C107.922 20.2694 108.005 20.5979 108.005 20.9961C108.005 21.3478 107.915 21.6762 107.736 21.9815C107.557 22.2801 107.288 22.5256 106.93 22.7181C106.572 22.9039 106.13 22.9968 105.606 22.9968ZM111.328 22.9968C110.844 22.9968 110.413 22.8906 110.034 22.6782C109.663 22.4593 109.371 22.1573 109.159 21.7725C108.946 21.3876 108.84 20.9397 108.84 20.4287C108.84 19.9111 108.943 19.4566 109.149 19.065C109.361 18.6735 109.653 18.3683 110.024 18.1493C110.403 17.9303 110.841 17.8208 111.338 17.8208C111.823 17.8208 112.244 17.9303 112.603 18.1493C112.961 18.3616 113.24 18.647 113.439 19.0053C113.638 19.3637 113.737 19.7585 113.737 20.1898C113.737 20.2562 113.734 20.3292 113.727 20.4088C113.727 20.4818 113.724 20.5647 113.717 20.6576H109.875C109.908 21.1354 110.064 21.5004 110.343 21.7525C110.628 21.9981 110.957 22.1208 111.328 22.1208C111.627 22.1208 111.876 22.0545 112.075 21.9218C112.281 21.7824 112.433 21.5966 112.533 21.3644H113.588C113.455 21.8289 113.19 22.2171 112.792 22.5289C112.4 22.8408 111.912 22.9968 111.328 22.9968ZM111.328 18.6868C110.977 18.6868 110.665 18.793 110.393 19.0053C110.121 19.211 109.955 19.5229 109.895 19.941H112.682C112.662 19.5561 112.526 19.2508 112.274 19.0252C112.022 18.7996 111.707 18.6868 111.328 18.6868ZM116.676 22.8773C116.192 22.8773 115.807 22.7612 115.522 22.5289C115.236 22.29 115.094 21.8687 115.094 21.2648V18.8262H114.248V17.9403H115.094L115.223 16.6861H116.149V17.9403H117.542V18.8262H116.149V21.2648C116.149 21.5369 116.205 21.726 116.318 21.8322C116.438 21.9317 116.64 21.9815 116.925 21.9815H117.493V22.8773H116.676ZM120.601 22.8773C120.117 22.8773 119.732 22.7612 119.447 22.5289C119.161 22.29 119.019 21.8687 119.019 21.2648V18.8262H118.172V17.9403H119.019L119.148 16.6861H120.074V17.9403H121.467V18.8262H120.074V21.2648C120.074 21.5369 120.13 21.726 120.243 21.8322C120.362 21.9317 120.565 21.9815 120.85 21.9815H121.417V22.8773H120.601ZM123.053 17.0046C122.854 17.0046 122.688 16.9449 122.555 16.8255C122.429 16.6994 122.366 16.5434 122.366 16.3576C122.366 16.1718 122.429 16.0192 122.555 15.8998C122.688 15.7737 122.854 15.7106 123.053 15.7106C123.252 15.7106 123.414 15.7737 123.54 15.8998C123.673 16.0192 123.74 16.1718 123.74 16.3576C123.74 16.5434 123.673 16.6994 123.54 16.8255C123.414 16.9449 123.252 17.0046 123.053 17.0046ZM122.525 22.8773V17.9403H123.58V22.8773H122.525ZM124.874 22.8773V17.9403H125.809L125.889 18.8062C126.041 18.501 126.264 18.2621 126.556 18.0896C126.854 17.9104 127.196 17.8208 127.581 17.8208C128.178 17.8208 128.646 18.0066 128.984 18.3782C129.33 18.7498 129.502 19.3039 129.502 20.0405V22.8773H128.457V20.15C128.457 19.1944 128.065 18.7167 127.282 18.7167C126.891 18.7167 126.566 18.856 126.307 19.1347C126.055 19.4134 125.929 19.8116 125.929 20.3292V22.8773H124.874ZM132.666 21.3644C132.407 21.3644 132.168 21.3345 131.949 21.2748L131.521 21.6928C131.594 21.7393 131.684 21.7791 131.79 21.8123C131.896 21.8454 132.045 21.8753 132.238 21.9019C132.43 21.9284 132.692 21.9549 133.024 21.9815C133.681 22.0412 134.156 22.2005 134.448 22.4593C134.739 22.7114 134.885 23.0499 134.885 23.4745C134.885 23.7665 134.806 24.0419 134.647 24.3007C134.494 24.5661 134.252 24.7785 133.92 24.9377C133.595 25.1036 133.177 25.1866 132.666 25.1866C131.976 25.1866 131.415 25.0539 130.984 24.7884C130.559 24.5296 130.347 24.1348 130.347 23.6039C130.347 23.3982 130.4 23.1925 130.506 22.9868C130.619 22.7877 130.794 22.5986 131.033 22.4194C130.894 22.3597 130.771 22.2967 130.665 22.2303C130.566 22.1573 130.476 22.0843 130.396 22.0113V21.7725L131.252 20.8965C130.867 20.5647 130.675 20.1301 130.675 19.5926C130.675 19.2674 130.751 18.9721 130.904 18.7067C131.063 18.4346 131.292 18.219 131.591 18.0597C131.889 17.9005 132.248 17.8208 132.666 17.8208C132.944 17.8208 133.203 17.8606 133.442 17.9403H135.284V18.637L134.408 18.6868C134.567 18.9589 134.647 19.2608 134.647 19.5926C134.647 19.9244 134.567 20.223 134.408 20.4884C134.255 20.7539 134.029 20.9662 133.731 21.1255C133.439 21.2847 133.084 21.3644 132.666 21.3644ZM132.666 20.5382C132.971 20.5382 133.217 20.4586 133.402 20.2993C133.595 20.1334 133.691 19.9012 133.691 19.6025C133.691 19.2973 133.595 19.065 133.402 18.9058C133.217 18.7465 132.971 18.6669 132.666 18.6669C132.354 18.6669 132.102 18.7465 131.909 18.9058C131.724 19.065 131.631 19.2973 131.631 19.6025C131.631 19.9012 131.724 20.1334 131.909 20.2993C132.102 20.4586 132.354 20.5382 132.666 20.5382ZM131.342 23.5044C131.342 23.7897 131.468 24.0021 131.72 24.1414C131.972 24.2874 132.288 24.3604 132.666 24.3604C133.031 24.3604 133.326 24.2808 133.552 24.1215C133.777 23.9689 133.89 23.7632 133.89 23.5044C133.89 23.312 133.814 23.1461 133.661 23.0067C133.509 22.874 133.22 22.7911 132.795 22.7579C132.477 22.738 132.195 22.7081 131.949 22.6683C131.717 22.7944 131.558 22.9304 131.471 23.0764C131.385 23.2224 131.342 23.3651 131.342 23.5044ZM138.096 22.9968C137.472 22.9968 136.958 22.8441 136.553 22.5389C136.148 22.2336 135.916 21.8289 135.856 21.3245H136.921C136.975 21.5502 137.101 21.7459 137.3 21.9118C137.499 22.0711 137.761 22.1507 138.086 22.1507C138.405 22.1507 138.637 22.0843 138.783 21.9516C138.929 21.8189 139.002 21.6663 139.002 21.4938C139.002 21.2416 138.899 21.0724 138.693 20.9861C138.494 20.8932 138.215 20.8103 137.857 20.7373C137.578 20.6775 137.3 20.5979 137.021 20.4984C136.749 20.3988 136.52 20.2595 136.334 20.0803C136.155 19.8945 136.065 19.6457 136.065 19.3338C136.065 18.9025 136.231 18.5441 136.563 18.2588C136.895 17.9668 137.359 17.8208 137.957 17.8208C138.507 17.8208 138.952 17.9535 139.29 18.219C139.636 18.4844 139.838 18.8593 139.898 19.3437H138.882C138.849 19.1314 138.75 18.9655 138.584 18.8461C138.424 18.7266 138.209 18.6669 137.937 18.6669C137.671 18.6669 137.466 18.7233 137.32 18.8361C137.174 18.9423 137.101 19.0816 137.101 19.2542C137.101 19.4267 137.2 19.5627 137.399 19.6623C137.605 19.7618 137.874 19.8514 138.206 19.931C138.537 20.004 138.843 20.0903 139.121 20.1898C139.407 20.2827 139.636 20.4221 139.808 20.6079C139.981 20.7937 140.067 21.0657 140.067 21.4241C140.073 21.8753 139.898 22.2502 139.539 22.5488C139.188 22.8475 138.707 22.9968 138.096 22.9968Z" fill="white"/>
<line x1="12.1089" y1="43.6952" x2="231.091" y2="43.6952" stroke="#222226" stroke-width="0.71098"/>
<path d="M14.1394 68.7145V63.3309H12.3563V62.7422H16.6393V63.3309H14.8561V68.7145H14.1394ZM16.9031 68.7145V64.4827H17.5516L17.6113 65.2932C17.7421 65.0145 17.9412 64.7927 18.2085 64.6278C18.4758 64.4628 18.8057 64.3803 19.1982 64.3803V65.1311H19.002C18.7517 65.1311 18.5213 65.1766 18.3109 65.2676C18.1004 65.353 17.9326 65.5008 17.8075 65.7113C17.6824 65.9217 17.6198 66.2118 17.6198 66.5815V68.7145H16.9031ZM21.325 68.8169C20.9723 68.8169 20.6794 68.7571 20.4462 68.6377C20.213 68.5182 20.0395 68.359 19.9258 68.1599C19.812 67.9608 19.7551 67.7447 19.7551 67.5115C19.7551 67.0792 19.9201 66.7465 20.25 66.5133C20.5799 66.2801 21.0292 66.1635 21.598 66.1635H22.7413V66.1123C22.7413 65.7426 22.6446 65.4639 22.4512 65.2762C22.2578 65.0828 21.999 64.9861 21.6748 64.9861C21.3961 64.9861 21.1544 65.0572 20.9496 65.1994C20.7505 65.3359 20.6254 65.5378 20.5742 65.8051H19.8405C19.8689 65.498 19.9713 65.2392 20.1476 65.0288C20.3296 64.8183 20.5543 64.659 20.8216 64.551C21.0889 64.4372 21.3733 64.3803 21.6748 64.3803C22.2663 64.3803 22.71 64.5396 23.0058 64.8581C23.3072 65.171 23.4579 65.589 23.4579 66.1123V68.7145H22.8181L22.7754 67.9552C22.6559 68.194 22.4796 68.3988 22.2464 68.5694C22.0189 68.7344 21.7118 68.8169 21.325 68.8169ZM21.4359 68.2111C21.7089 68.2111 21.9421 68.14 22.1355 67.9978C22.3346 67.8556 22.4853 67.6708 22.5877 67.4432C22.6901 67.2157 22.7413 66.9768 22.7413 66.7266V66.718H21.6577C21.2368 66.718 20.9382 66.792 20.7619 66.9399C20.5913 67.0821 20.5059 67.2612 20.5059 67.4774C20.5059 67.6992 20.5856 67.8784 20.7448 68.0149C20.9098 68.1457 21.1401 68.2111 21.4359 68.2111ZM26.3674 68.8169C25.9465 68.8169 25.5768 68.7202 25.2583 68.5268C24.9454 68.3334 24.7009 68.0689 24.5245 67.7333C24.3539 67.3977 24.2686 67.0167 24.2686 66.5901C24.2686 66.1635 24.3567 65.7852 24.5331 65.4553C24.7094 65.1198 24.954 64.8581 25.2668 64.6704C25.5796 64.477 25.9493 64.3803 26.3759 64.3803C26.7229 64.3803 27.03 64.4514 27.2974 64.5936C27.5647 64.7358 27.7723 64.9349 27.9202 65.1909V62.5716H28.6369V68.7145H27.9884L27.9202 68.0149C27.7837 68.2196 27.5874 68.4045 27.3315 68.5694C27.0755 68.7344 26.7542 68.8169 26.3674 68.8169ZM26.4442 68.194C26.7286 68.194 26.9788 68.1286 27.195 67.9978C27.4168 67.8613 27.5874 67.6736 27.7069 67.4347C27.832 67.1958 27.8946 66.9171 27.8946 66.5986C27.8946 66.2801 27.832 66.0014 27.7069 65.7625C27.5874 65.5236 27.4168 65.3387 27.195 65.2079C26.9788 65.0714 26.7286 65.0032 26.4442 65.0032C26.1655 65.0032 25.9152 65.0714 25.6934 65.2079C25.4773 65.3387 25.3066 65.5236 25.1815 65.7625C25.062 66.0014 25.0023 66.2801 25.0023 66.5986C25.0023 66.9171 25.062 67.1958 25.1815 67.4347C25.3066 67.6736 25.4773 67.8613 25.6934 67.9978C25.9152 68.1286 26.1655 68.194 26.4442 68.194ZM30.1549 63.5442C30.0127 63.5442 29.8933 63.4987 29.7966 63.4077C29.7056 63.311 29.6601 63.1916 29.6601 63.0494C29.6601 62.9129 29.7056 62.7991 29.7966 62.7081C29.8933 62.6171 30.0127 62.5716 30.1549 62.5716C30.2914 62.5716 30.408 62.6171 30.5047 62.7081C30.6014 62.7991 30.6497 62.9129 30.6497 63.0494C30.6497 63.1916 30.6014 63.311 30.5047 63.4077C30.408 63.4987 30.2914 63.5442 30.1549 63.5442ZM29.7966 68.7145V64.4827H30.5132V68.7145H29.7966ZM31.6758 68.7145V64.4827H32.3242L32.3668 65.242C32.5033 64.9747 32.6996 64.7643 32.9555 64.6107C33.2115 64.4571 33.5016 64.3803 33.8258 64.3803C34.3263 64.3803 34.7244 64.5339 35.0202 64.8411C35.3217 65.1425 35.4724 65.6089 35.4724 66.2403V68.7145H34.7557V66.3171C34.7557 65.4354 34.3917 64.9946 33.6637 64.9946C33.2996 64.9946 32.9953 65.1283 32.7508 65.3956C32.5119 65.6573 32.3924 66.0327 32.3924 66.5218V68.7145H31.6758ZM38.1451 67.3835C37.9062 67.3835 37.6872 67.3522 37.4882 67.2897L37.0616 67.6907C37.1241 67.7362 37.2009 67.776 37.2919 67.8101C37.3886 67.8385 37.5251 67.867 37.7015 67.8954C37.8778 67.9182 38.1252 67.9438 38.4437 67.9722C39.0125 68.012 39.4192 68.1428 39.6638 68.3647C39.9083 68.5865 40.0306 68.8766 40.0306 69.2349C40.0306 69.4795 39.9624 69.7127 39.8259 69.9345C39.695 70.1563 39.4903 70.3384 39.2116 70.4806C38.9386 70.6227 38.5859 70.6938 38.1536 70.6938C37.7726 70.6938 37.4341 70.6427 37.1384 70.5403C36.8426 70.4436 36.6122 70.2929 36.4473 70.0881C36.2823 69.889 36.1999 69.6359 36.1999 69.3288C36.1999 69.1695 36.2425 68.996 36.3278 68.8083C36.4132 68.6263 36.5724 68.4528 36.8056 68.2879C36.6805 68.2367 36.5724 68.1827 36.4814 68.1258C36.3961 68.0632 36.3165 67.995 36.2425 67.921V67.7248L36.9677 67.0081C36.6321 66.7237 36.4643 66.3483 36.4643 65.8819C36.4643 65.6032 36.5298 65.3501 36.6606 65.1226C36.7914 64.8951 36.9819 64.7159 37.2322 64.5851C37.4825 64.4486 37.7868 64.3803 38.1451 64.3803C38.3897 64.3803 38.6115 64.4145 38.8106 64.4827H40.3719V65.0202L39.5784 65.0543C39.7434 65.2932 39.8259 65.5691 39.8259 65.8819C39.8259 66.1606 39.7576 66.4137 39.6211 66.6413C39.4903 66.8688 39.2997 67.0508 39.0495 67.1873C38.8049 67.3181 38.5034 67.3835 38.1451 67.3835ZM38.1451 66.7948C38.4466 66.7948 38.6854 66.718 38.8618 66.5645C39.0438 66.4052 39.1348 66.1777 39.1348 65.8819C39.1348 65.5919 39.0438 65.37 38.8618 65.2165C38.6854 65.0572 38.4466 64.9776 38.1451 64.9776C37.838 64.9776 37.5934 65.0572 37.4114 65.2165C37.235 65.37 37.1469 65.5919 37.1469 65.8819C37.1469 66.1777 37.235 66.4052 37.4114 66.5645C37.5934 66.718 37.838 66.7948 38.1451 66.7948ZM36.8995 69.2605C36.8995 69.5449 37.0189 69.7554 37.2578 69.8919C37.4967 70.0341 37.7953 70.1052 38.1536 70.1052C38.5063 70.1052 38.7878 70.0284 38.9983 69.8748C39.2144 69.7212 39.3225 69.5165 39.3225 69.2605C39.3225 69.0785 39.2485 68.9192 39.1007 68.7827C38.9528 68.6519 38.6798 68.5751 38.2816 68.5524C37.9688 68.5296 37.6986 68.5012 37.4711 68.4671C37.2379 68.5922 37.0843 68.7259 37.0104 68.868C36.9364 69.0159 36.8995 69.1468 36.8995 69.2605ZM45.2129 68.8169C44.809 68.8169 44.445 68.7259 44.1208 68.5438C43.8023 68.3561 43.5492 68.0973 43.3615 67.7675C43.1795 67.4319 43.0885 67.0423 43.0885 66.5986C43.0885 66.1549 43.1795 65.7682 43.3615 65.4383C43.5492 65.1027 43.8023 64.8439 44.1208 64.6619C44.445 64.4742 44.809 64.3803 45.2129 64.3803C45.7134 64.3803 46.1343 64.5112 46.4756 64.7728C46.8225 65.0344 47.0415 65.3842 47.1325 65.8222H46.3988C46.3419 65.5606 46.2026 65.3586 45.9807 65.2165C45.7589 65.0686 45.5001 64.9946 45.2043 64.9946C44.9654 64.9946 44.7408 65.0543 44.5303 65.1738C44.3199 65.2932 44.1492 65.4724 44.0184 65.7113C43.8876 65.9502 43.8222 66.246 43.8222 66.5986C43.8222 66.9512 43.8876 67.247 44.0184 67.4859C44.1492 67.7248 44.3199 67.9068 44.5303 68.0319C44.7408 68.1514 44.9654 68.2111 45.2043 68.2111C45.5001 68.2111 45.7589 68.14 45.9807 67.9978C46.2026 67.8499 46.3419 67.6423 46.3988 67.375H47.1325C47.0472 67.8016 46.8311 68.1485 46.4841 68.4159C46.1371 68.6832 45.7134 68.8169 45.2129 68.8169ZM49.9763 68.8169C49.5781 68.8169 49.2198 68.7259 48.9013 68.5438C48.5827 68.3618 48.3296 68.1059 48.1419 67.776C47.9599 67.4404 47.8689 67.0479 47.8689 66.5986C47.8689 66.1493 47.9628 65.7596 48.1505 65.4297C48.3382 65.0942 48.5913 64.8354 48.9098 64.6534C49.234 64.4713 49.5952 64.3803 49.9933 64.3803C50.3915 64.3803 50.7498 64.4713 51.0683 64.6534C51.3868 64.8354 51.6371 65.0942 51.8191 65.4297C52.0068 65.7596 52.1007 66.1493 52.1007 66.5986C52.1007 67.0479 52.0068 67.4404 51.8191 67.776C51.6314 68.1059 51.3755 68.3618 51.0513 68.5438C50.7327 68.7259 50.3744 68.8169 49.9763 68.8169ZM49.9763 68.2026C50.2208 68.2026 50.4484 68.1428 50.6588 68.0234C50.8693 67.904 51.0399 67.7248 51.1707 67.4859C51.3015 67.247 51.3669 66.9512 51.3669 66.5986C51.3669 66.246 51.3015 65.9502 51.1707 65.7113C51.0456 65.4724 50.8778 65.2932 50.6673 65.1738C50.4569 65.0543 50.2322 64.9946 49.9933 64.9946C49.7487 64.9946 49.5212 65.0543 49.3108 65.1738C49.1003 65.2932 48.9297 65.4724 48.7989 65.7113C48.6681 65.9502 48.6026 66.246 48.6026 66.5986C48.6026 66.9512 48.6681 67.247 48.7989 67.4859C48.9297 67.7248 49.0975 67.904 49.3023 68.0234C49.5127 68.1428 49.7374 68.2026 49.9763 68.2026ZM53.0118 68.7145V64.4827H53.6603L53.7029 65.242C53.8394 64.9747 54.0356 64.7643 54.2916 64.6107C54.5476 64.4571 54.8376 64.3803 55.1618 64.3803C55.6624 64.3803 56.0605 64.5339 56.3563 64.8411C56.6577 65.1425 56.8085 65.6089 56.8085 66.2403V68.7145H56.0918V66.3171C56.0918 65.4354 55.7278 64.9946 54.9997 64.9946C54.6357 64.9946 54.3314 65.1283 54.0868 65.3956C53.848 65.6573 53.7285 66.0327 53.7285 66.5218V68.7145H53.0118ZM59.43 68.8169C58.9238 68.8169 58.5029 68.6889 58.1673 68.4329C57.8317 68.177 57.6355 67.83 57.5786 67.3921H58.3123C58.3578 67.6139 58.4744 67.8073 58.6621 67.9722C58.8555 68.1315 59.1143 68.2111 59.4385 68.2111C59.74 68.2111 59.9618 68.1485 60.104 68.0234C60.2462 67.8926 60.3173 67.739 60.3173 67.5627C60.3173 67.3067 60.2234 67.1361 60.0357 67.0508C59.8537 66.9655 59.5949 66.8887 59.2594 66.8204C59.0318 66.7749 58.8043 66.7095 58.5768 66.6242C58.3493 66.5389 58.1588 66.4194 58.0052 66.2659C57.8516 66.1066 57.7748 65.899 57.7748 65.643C57.7748 65.2733 57.9113 64.9719 58.1844 64.7387C58.4631 64.4998 58.8385 64.3803 59.3105 64.3803C59.7599 64.3803 60.1268 64.4941 60.4111 64.7216C60.7012 64.9434 60.869 65.262 60.9145 65.6772H60.2064C60.1779 65.461 60.0841 65.2932 59.9248 65.1738C59.7713 65.0487 59.5637 64.9861 59.302 64.9861C59.0461 64.9861 58.847 65.0401 58.7048 65.1482C58.5683 65.2563 58.5 65.3985 58.5 65.5748C58.5 65.7454 58.5882 65.8791 58.7645 65.9758C58.9465 66.0725 59.1911 66.1549 59.4982 66.2232C59.7599 66.2801 60.0073 66.3512 60.2405 66.4365C60.4794 66.5161 60.6728 66.6384 60.8207 66.8034C60.9742 66.9626 61.051 67.1958 61.051 67.503C61.0567 67.8841 60.9117 68.1997 60.6159 68.45C60.3258 68.6946 59.9305 68.8169 59.43 68.8169ZM63.9177 68.8169C63.5196 68.8169 63.1612 68.7259 62.8427 68.5438C62.5242 68.3618 62.2711 68.1059 62.0834 67.776C61.9014 67.4404 61.8104 67.0479 61.8104 66.5986C61.8104 66.1493 61.9042 65.7596 62.0919 65.4297C62.2796 65.0942 62.5327 64.8354 62.8512 64.6534C63.1754 64.4713 63.5366 64.3803 63.9348 64.3803C64.3329 64.3803 64.6912 64.4713 65.0098 64.6534C65.3283 64.8354 65.5786 65.0942 65.7606 65.4297C65.9483 65.7596 66.0421 66.1493 66.0421 66.5986C66.0421 67.0479 65.9483 67.4404 65.7606 67.776C65.5729 68.1059 65.3169 68.3618 64.9927 68.5438C64.6742 68.7259 64.3158 68.8169 63.9177 68.8169ZM63.9177 68.2026C64.1623 68.2026 64.3898 68.1428 64.6002 68.0234C64.8107 67.904 64.9813 67.7248 65.1121 67.4859C65.243 67.247 65.3084 66.9512 65.3084 66.5986C65.3084 66.246 65.243 65.9502 65.1121 65.7113C64.987 65.4724 64.8192 65.2932 64.6088 65.1738C64.3983 65.0543 64.1737 64.9946 63.9348 64.9946C63.6902 64.9946 63.4627 65.0543 63.2522 65.1738C63.0418 65.2932 62.8711 65.4724 62.7403 65.7113C62.6095 65.9502 62.5441 66.246 62.5441 66.5986C62.5441 66.9512 62.6095 67.247 62.7403 67.4859C62.8711 67.7248 63.0389 67.904 63.2437 68.0234C63.4541 68.1428 63.6788 68.2026 63.9177 68.2026ZM66.9533 68.7145V62.5716H67.6699V68.7145H66.9533ZM70.6619 68.8169C70.258 68.8169 69.8997 68.7259 69.5869 68.5438C69.274 68.3561 69.0266 68.0973 68.8446 67.7675C68.6683 67.4376 68.5801 67.0479 68.5801 66.5986C68.5801 66.1549 68.6683 65.7682 68.8446 65.4383C69.0209 65.1027 69.2655 64.8439 69.5783 64.6619C69.8968 64.4742 70.2637 64.3803 70.6789 64.3803C71.0884 64.3803 71.4411 64.4742 71.7369 64.6619C72.0383 64.8439 72.2687 65.0856 72.4279 65.3871C72.5872 65.6885 72.6668 66.0128 72.6668 66.3597C72.6668 66.4223 72.664 66.4848 72.6583 66.5474C72.6583 66.61 72.6583 66.6811 72.6583 66.7607H69.2882C69.3053 67.0849 69.3793 67.3551 69.5101 67.5712C69.6466 67.7817 69.8144 67.9409 70.0134 68.049C70.2182 68.1571 70.4343 68.2111 70.6619 68.2111C70.9576 68.2111 71.2051 68.1428 71.4041 68.0063C71.6032 67.8698 71.7482 67.685 71.8392 67.4518H72.5474C72.4336 67.8442 72.2146 68.1713 71.8904 68.4329C71.5719 68.6889 71.1624 68.8169 70.6619 68.8169ZM70.6619 64.9861C70.3206 64.9861 70.0163 65.0913 69.749 65.3018C69.4873 65.5065 69.3366 65.808 69.2968 66.2061H71.9587C71.9416 65.8251 71.8108 65.5264 71.5662 65.3103C71.3217 65.0942 71.0202 64.9861 70.6619 64.9861ZM75.704 68.7145V62.5716H76.4207V68.7145H75.704ZM79.4382 68.8169C79.04 68.8169 78.6817 68.7259 78.3632 68.5438C78.0447 68.3618 77.7916 68.1059 77.6039 67.776C77.4218 67.4404 77.3308 67.0479 77.3308 66.5986C77.3308 66.1493 77.4247 65.7596 77.6124 65.4297C77.8001 65.0942 78.0532 64.8354 78.3717 64.6534C78.6959 64.4713 79.0571 64.3803 79.4552 64.3803C79.8534 64.3803 80.2117 64.4713 80.5302 64.6534C80.8488 64.8354 81.099 65.0942 81.281 65.4297C81.4687 65.7596 81.5626 66.1493 81.5626 66.5986C81.5626 67.0479 81.4687 67.4404 81.281 67.776C81.0933 68.1059 80.8374 68.3618 80.5132 68.5438C80.1947 68.7259 79.8363 68.8169 79.4382 68.8169ZM79.4382 68.2026C79.6828 68.2026 79.9103 68.1428 80.1207 68.0234C80.3312 67.904 80.5018 67.7248 80.6326 67.4859C80.7634 67.247 80.8289 66.9512 80.8289 66.5986C80.8289 66.246 80.7634 65.9502 80.6326 65.7113C80.5075 65.4724 80.3397 65.2932 80.1293 65.1738C79.9188 65.0543 79.6941 64.9946 79.4552 64.9946C79.2107 64.9946 78.9832 65.0543 78.7727 65.1738C78.5623 65.2932 78.3916 65.4724 78.2608 65.7113C78.13 65.9502 78.0646 66.246 78.0646 66.5986C78.0646 66.9512 78.13 67.247 78.2608 67.4859C78.3916 67.7248 78.5594 67.904 78.7642 68.0234C78.9746 68.1428 79.1993 68.2026 79.4382 68.2026ZM84.419 68.8169C84.0152 68.8169 83.6511 68.7259 83.3269 68.5438C83.0084 68.3561 82.7553 68.0973 82.5676 67.7675C82.3856 67.4319 82.2946 67.0423 82.2946 66.5986C82.2946 66.1549 82.3856 65.7682 82.5676 65.4383C82.7553 65.1027 83.0084 64.8439 83.3269 64.6619C83.6511 64.4742 84.0152 64.3803 84.419 64.3803C84.9195 64.3803 85.3404 64.5112 85.6817 64.7728C86.0287 65.0344 86.2476 65.3842 86.3386 65.8222H85.6049C85.548 65.5606 85.4087 65.3586 85.1869 65.2165C84.965 65.0686 84.7062 64.9946 84.4105 64.9946C84.1716 64.9946 83.9469 65.0543 83.7365 65.1738C83.526 65.2932 83.3554 65.4724 83.2246 65.7113C83.0937 65.9502 83.0283 66.246 83.0283 66.5986C83.0283 66.9512 83.0937 67.247 83.2246 67.4859C83.3554 67.7248 83.526 67.9068 83.7365 68.0319C83.9469 68.1514 84.1716 68.2111 84.4105 68.2111C84.7062 68.2111 84.965 68.14 85.1869 67.9978C85.4087 67.8499 85.548 67.6423 85.6049 67.375H86.3386C86.2533 67.8016 86.0372 68.1485 85.6902 68.4159C85.3433 68.6832 84.9195 68.8169 84.419 68.8169ZM88.662 68.8169C88.3093 68.8169 88.0164 68.7571 87.7832 68.6377C87.55 68.5182 87.3765 68.359 87.2627 68.1599C87.149 67.9608 87.0921 67.7447 87.0921 67.5115C87.0921 67.0792 87.2571 66.7465 87.587 66.5133C87.9168 66.2801 88.3662 66.1635 88.935 66.1635H90.0782V66.1123C90.0782 65.7426 89.9815 65.4639 89.7881 65.2762C89.5948 65.0828 89.336 64.9861 89.0118 64.9861C88.7331 64.9861 88.4913 65.0572 88.2866 65.1994C88.0875 65.3359 87.9623 65.5378 87.9112 65.8051H87.1774C87.2059 65.498 87.3082 65.2392 87.4846 65.0288C87.6666 64.8183 87.8913 64.659 88.1586 64.551C88.4259 64.4372 88.7103 64.3803 89.0118 64.3803C89.6033 64.3803 90.0469 64.5396 90.3427 64.8581C90.6442 65.171 90.7949 65.589 90.7949 66.1123V68.7145H90.155L90.1124 67.9552C89.9929 68.194 89.8166 68.3988 89.5834 68.5694C89.3559 68.7344 89.0487 68.8169 88.662 68.8169ZM88.7729 68.2111C89.0459 68.2111 89.2791 68.14 89.4725 67.9978C89.6715 67.8556 89.8223 67.6708 89.9247 67.4432C90.027 67.2157 90.0782 66.9768 90.0782 66.7266V66.718H88.9947C88.5738 66.718 88.2752 66.792 88.0989 66.9399C87.9282 67.0821 87.8429 67.2612 87.8429 67.4774C87.8429 67.6992 87.9225 67.8784 88.0818 68.0149C88.2467 68.1457 88.4771 68.2111 88.7729 68.2111ZM93.3403 68.7145C92.9535 68.7145 92.6492 68.6206 92.4274 68.4329C92.2056 68.2452 92.0947 67.9068 92.0947 67.4176V65.0885H91.3609V64.4827H92.0947L92.1885 63.4674H92.8113V64.4827H94.057V65.0885H92.8113V67.4176C92.8113 67.685 92.8654 67.867 92.9734 67.9637C93.0815 68.0547 93.272 68.1002 93.5451 68.1002H93.9887V68.7145H93.3403ZM95.3173 63.5442C95.1751 63.5442 95.0556 63.4987 94.9589 63.4077C94.8679 63.311 94.8224 63.1916 94.8224 63.0494C94.8224 62.9129 94.8679 62.7991 94.9589 62.7081C95.0556 62.6171 95.1751 62.5716 95.3173 62.5716C95.4538 62.5716 95.5704 62.6171 95.6671 62.7081C95.7638 62.7991 95.8121 62.9129 95.8121 63.0494C95.8121 63.1916 95.7638 63.311 95.6671 63.4077C95.5704 63.4987 95.4538 63.5442 95.3173 63.5442ZM94.9589 68.7145V64.4827H95.6756V68.7145H94.9589ZM98.7663 68.8169C98.3681 68.8169 98.0098 68.7259 97.6913 68.5438C97.3728 68.3618 97.1197 68.1059 96.932 67.776C96.75 67.4404 96.659 67.0479 96.659 66.5986C96.659 66.1493 96.7528 65.7596 96.9405 65.4297C97.1282 65.0942 97.3813 64.8354 97.6998 64.6534C98.024 64.4713 98.3852 64.3803 98.7834 64.3803C99.1815 64.3803 99.5398 64.4713 99.8584 64.6534C100.177 64.8354 100.427 65.0942 100.609 65.4297C100.797 65.7596 100.891 66.1493 100.891 66.5986C100.891 67.0479 100.797 67.4404 100.609 67.776C100.421 68.1059 100.166 68.3618 99.8413 68.5438C99.5228 68.7259 99.1644 68.8169 98.7663 68.8169ZM98.7663 68.2026C99.0109 68.2026 99.2384 68.1428 99.4488 68.0234C99.6593 67.904 99.8299 67.7248 99.9607 67.4859C100.092 67.247 100.157 66.9512 100.157 66.5986C100.157 66.246 100.092 65.9502 99.9607 65.7113C99.8356 65.4724 99.6678 65.2932 99.4574 65.1738C99.2469 65.0543 99.0223 64.9946 98.7834 64.9946C98.5388 64.9946 98.3113 65.0543 98.1008 65.1738C97.8904 65.2932 97.7197 65.4724 97.5889 65.7113C97.4581 65.9502 97.3927 66.246 97.3927 66.5986C97.3927 66.9512 97.4581 67.247 97.5889 67.4859C97.7197 67.7248 97.8875 67.904 98.0923 68.0234C98.3027 68.1428 98.5274 68.2026 98.7663 68.2026ZM101.802 68.7145V64.4827H102.45L102.493 65.242C102.629 64.9747 102.826 64.7643 103.082 64.6107C103.338 64.4571 103.628 64.3803 103.952 64.3803C104.452 64.3803 104.851 64.5339 105.146 64.8411C105.448 65.1425 105.599 65.6089 105.599 66.2403V68.7145H104.882V66.3171C104.882 65.4354 104.518 64.9946 103.79 64.9946C103.426 64.9946 103.121 65.1283 102.877 65.3956C102.638 65.6573 102.519 66.0327 102.519 66.5218V68.7145H101.802Z" fill="#D2D2D3"/>
<rect x="15.2757" y="82.0912" width="96.1209" height="49.1233" rx="2.46291" stroke="#323237" stroke-width="0.703688"/>
<rect x="19.3926" y="86.4315" width="19.5095" height="40.4935" rx="1.40738" fill="url(#paint0_radial_5985_342571)"/>
<rect x="-0.351844" y="0.351844" width="101.75" height="54.7528" rx="3.87029" transform="matrix(-1 0 0 1 113.859 78.9247)" stroke="url(#paint1_radial_5985_342571)" stroke-width="0.703688"/>
<rect x="131.803" y="82.0912" width="96.1209" height="49.1233" rx="2.46291" stroke="#5E5E63" stroke-width="0.703688"/>
<rect x="205.534" y="86.4242" width="18.8058" height="40.4577" rx="1.05553" fill="#5E5E63" stroke="#5E5E63" stroke-width="0.703688"/>
<rect width="102.454" height="55.4565" rx="4.22213" transform="matrix(-1 0 0 1 231.091 78.9247)" stroke="url(#paint2_radial_5985_342571)"/>
<mask id="mask0_5985_342571" style="mask-type:alpha" maskUnits="userSpaceOnUse" x="48" y="138" width="9" height="9">
<rect x="48.2988" y="138.474" width="8.44426" height="8.44426" fill="#D9D9D9"/>
</mask>
<g mask="url(#mask0_5985_342571)">
<path d="M52.0293 144.314L54.5098 141.834L54.0172 141.341L52.0293 143.329L51.0265 142.326L50.5339 142.819L52.0293 144.314ZM52.5219 146.214C52.0351 146.214 51.5777 146.122 51.1497 145.937C50.7216 145.752 50.3492 145.502 50.0326 145.185C49.7159 144.868 49.4653 144.496 49.2807 144.068C49.0958 143.64 49.0034 143.183 49.0034 142.696C49.0034 142.209 49.0958 141.752 49.2807 141.324C49.4653 140.896 49.7159 140.523 50.0326 140.207C50.3492 139.89 50.7216 139.639 51.1497 139.454C51.5777 139.27 52.0351 139.177 52.5219 139.177C53.0086 139.177 53.466 139.27 53.8941 139.454C54.3221 139.639 54.6945 139.89 55.0112 140.207C55.3278 140.523 55.5784 140.896 55.763 141.324C55.9479 141.752 56.0403 142.209 56.0403 142.696C56.0403 143.183 55.9479 143.64 55.763 144.068C55.5784 144.496 55.3278 144.868 55.0112 145.185C54.6945 145.502 54.3221 145.752 53.8941 145.937C53.466 146.122 53.0086 146.214 52.5219 146.214Z" fill="url(#paint3_radial_5985_342571)"/>
</g>
<path d="M60.3975 145.196V139.224H61.3018V144.479H64.0149V145.196H60.3975ZM66.6649 145.298C66.2497 145.298 65.88 145.207 65.5558 145.025C65.2373 144.838 64.987 144.579 64.805 144.249C64.623 143.919 64.532 143.535 64.532 143.097C64.532 142.653 64.6201 142.264 64.7964 141.928C64.9785 141.593 65.2287 141.331 65.5472 141.143C65.8714 140.956 66.2468 140.862 66.6734 140.862C67.0886 140.862 67.4498 140.956 67.757 141.143C68.0641 141.325 68.303 141.57 68.4736 141.877C68.6443 142.184 68.7296 142.523 68.7296 142.892C68.7296 142.949 68.7267 143.012 68.7211 143.08C68.7211 143.143 68.7182 143.214 68.7125 143.293H65.4193C65.4477 143.703 65.5814 144.016 65.8203 144.232C66.0648 144.442 66.3464 144.548 66.6649 144.548C66.9209 144.548 67.1342 144.491 67.3048 144.377C67.4811 144.257 67.6119 144.098 67.6972 143.899H68.6016C68.4879 144.297 68.2603 144.63 67.9191 144.897C67.5835 145.165 67.1654 145.298 66.6649 145.298ZM66.6649 141.604C66.3634 141.604 66.0961 141.695 65.8629 141.877C65.6297 142.053 65.4875 142.321 65.4363 142.679H67.8252C67.8082 142.349 67.6916 142.088 67.4754 141.894C67.2593 141.701 66.9891 141.604 66.6649 141.604ZM69.7959 145.196V141.723H69.1902V140.964H69.7959V140.35C69.7959 139.889 69.9097 139.559 70.1372 139.36C70.3704 139.155 70.6975 139.053 71.1184 139.053H71.562V139.821H71.2549C71.0558 139.821 70.9136 139.864 70.8283 139.949C70.743 140.029 70.7003 140.165 70.7003 140.358V140.964H71.6729V141.723H70.7003V145.196H69.7959ZM74.2214 145.196C73.8062 145.196 73.4763 145.096 73.2317 144.897C72.9871 144.693 72.8648 144.331 72.8648 143.814V141.723H72.1396V140.964H72.8648L72.9757 139.889H73.7692V140.964H74.9636V141.723H73.7692V143.814C73.7692 144.047 73.8175 144.209 73.9142 144.3C74.0166 144.385 74.1901 144.428 74.4347 144.428H74.921V145.196H74.2214Z" fill="#D2D2D3"/>
<path d="M170.334 145.196V139.224H172.39C172.862 139.224 173.249 139.303 173.55 139.462C173.857 139.622 174.085 139.838 174.233 140.111C174.381 140.378 174.455 140.677 174.455 141.007C174.455 141.376 174.355 141.712 174.156 142.013C173.963 142.315 173.658 142.531 173.243 142.662L174.514 145.196H173.465L172.305 142.79H171.238V145.196H170.334ZM171.238 142.107H172.339C172.748 142.107 173.047 142.008 173.235 141.809C173.428 141.61 173.525 141.351 173.525 141.032C173.525 140.714 173.431 140.461 173.243 140.273C173.055 140.08 172.751 139.983 172.33 139.983H171.238V142.107ZM175.917 140.162C175.746 140.162 175.604 140.111 175.49 140.008C175.382 139.9 175.328 139.767 175.328 139.607C175.328 139.448 175.382 139.317 175.49 139.215C175.604 139.107 175.746 139.053 175.917 139.053C176.088 139.053 176.227 139.107 176.335 139.215C176.449 139.317 176.506 139.448 176.506 139.607C176.506 139.767 176.449 139.9 176.335 140.008C176.227 140.111 176.088 140.162 175.917 140.162ZM175.465 145.196V140.964H176.369V145.196H175.465ZM179.21 143.899C178.988 143.899 178.783 143.873 178.595 143.822L178.228 144.181C178.291 144.22 178.368 144.254 178.459 144.283C178.55 144.311 178.678 144.337 178.843 144.36C179.008 144.382 179.232 144.405 179.517 144.428C180.08 144.479 180.486 144.616 180.737 144.837C180.987 145.054 181.112 145.344 181.112 145.708C181.112 145.958 181.044 146.194 180.907 146.416C180.777 146.643 180.569 146.825 180.285 146.962C180.006 147.104 179.648 147.175 179.21 147.175C178.618 147.175 178.137 147.061 177.768 146.834C177.404 146.612 177.222 146.274 177.222 145.819C177.222 145.642 177.267 145.466 177.358 145.29C177.455 145.119 177.606 144.957 177.81 144.803C177.691 144.752 177.586 144.698 177.495 144.641C177.409 144.579 177.333 144.516 177.264 144.454V144.249L177.998 143.498C177.668 143.214 177.503 142.841 177.503 142.38C177.503 142.102 177.569 141.849 177.699 141.621C177.836 141.388 178.032 141.203 178.288 141.066C178.544 140.93 178.851 140.862 179.21 140.862C179.448 140.862 179.67 140.896 179.875 140.964H181.453V141.561L180.703 141.604C180.839 141.837 180.907 142.096 180.907 142.38C180.907 142.665 180.839 142.921 180.703 143.148C180.572 143.376 180.378 143.558 180.122 143.694C179.872 143.831 179.568 143.899 179.21 143.899ZM179.21 143.191C179.471 143.191 179.682 143.123 179.841 142.986C180.006 142.844 180.088 142.645 180.088 142.389C180.088 142.127 180.006 141.928 179.841 141.792C179.682 141.655 179.471 141.587 179.21 141.587C178.942 141.587 178.726 141.655 178.561 141.792C178.402 141.928 178.322 142.127 178.322 142.389C178.322 142.645 178.402 142.844 178.561 142.986C178.726 143.123 178.942 143.191 179.21 143.191ZM178.075 145.733C178.075 145.978 178.183 146.16 178.399 146.279C178.615 146.404 178.885 146.467 179.21 146.467C179.522 146.467 179.775 146.399 179.969 146.262C180.162 146.131 180.259 145.955 180.259 145.733C180.259 145.568 180.194 145.426 180.063 145.307C179.932 145.193 179.684 145.122 179.32 145.093C179.047 145.076 178.806 145.051 178.595 145.017C178.396 145.125 178.26 145.241 178.186 145.366C178.112 145.492 178.075 145.614 178.075 145.733ZM182.175 145.196V139.053H183.079V141.647C183.221 141.402 183.418 141.211 183.668 141.075C183.924 140.933 184.205 140.862 184.512 140.862C185.019 140.862 185.417 141.021 185.707 141.339C185.997 141.658 186.142 142.133 186.142 142.764V145.196H185.246V142.858C185.246 142.039 184.919 141.63 184.265 141.63C183.924 141.63 183.639 141.749 183.412 141.988C183.19 142.227 183.079 142.568 183.079 143.012V145.196H182.175ZM188.896 145.196C188.481 145.196 188.151 145.096 187.907 144.897C187.662 144.692 187.54 144.331 187.54 143.814V141.723H186.815V140.964H187.54L187.651 139.889H188.444V140.964H189.639V141.723H188.444V143.814C188.444 144.047 188.493 144.209 188.589 144.3C188.692 144.385 188.865 144.428 189.11 144.428H189.596V145.196H188.896Z" fill="#A2A2A6"/>
<rect x="1.08889" y="1.24734" width="239.289" height="498.397" rx="5.33235" stroke="#29292F" stroke-width="0.71098"/>
<defs>
<radialGradient id="paint0_radial_5985_342571" cx="0" cy="0" r="1" gradientUnits="userSpaceOnUse" gradientTransform="translate(44.2891 63.3727) rotate(116.829) scale(58.6134 193.638)">
<stop offset="0.432292" stop-color="#8041E6"/>
<stop offset="1" stop-color="#564CF8"/>
</radialGradient>
<radialGradient id="paint1_radial_5985_342571" cx="0" cy="0" r="1" gradientUnits="userSpaceOnUse" gradientTransform="translate(130.744 -31.5794) rotate(152.723) scale(156.303 522.24)">
<stop offset="0.432292" stop-color="#8041E6"/>
<stop offset="1" stop-color="#564CF8"/>
</radialGradient>
<radialGradient id="paint2_radial_5985_342571" cx="0" cy="0" r="1" gradientUnits="userSpaceOnUse" gradientTransform="translate(94.4854 31.4253) rotate(167.895) scale(61.7061 292.397)">
<stop stop-color="#4A8C9A"/>
<stop offset="1" stop-color="#72B39F"/>
</radialGradient>
<radialGradient id="paint3_radial_5985_342571" cx="0" cy="0" r="1" gradientUnits="userSpaceOnUse" gradientTransform="translate(57.9833 135.17) rotate(136.391) scale(13.178 53.9843)">
<stop offset="0.432292" stop-color="#8041E6"/>
<stop offset="1" stop-color="#564CF8"/>
</radialGradient>
</defs>
</svg>
