<svg width="33" height="12" viewBox="0 0 33 12" fill="none" xmlns="http://www.w3.org/2000/svg">
<path d="M6.1766 1.86408H1.31599V5.21741H0V0.660889H6.1766V1.86408Z" fill="white"/>
<path d="M7.34367e-05 8.9704V6.42059H1.31607L1.31607 10.0547H1.08383C0.387131 10.0547 7.34367e-05 9.66745 7.34367e-05 8.9704Z" fill="white"/>
<path d="M1.31599 5.36861V5.21741H6.1766V6.42059H2.37445C1.69401 6.42059 1.31599 6.04905 1.31599 5.36861Z" fill="white"/>
<path d="M1.31599 10.212V10.0608H6.1766V11.264H2.37445C1.69401 11.264 1.31599 10.8924 1.31599 10.212Z" fill="white"/>
<path d="M8.6905 1.86408H12.7513V2.01528C12.7513 2.69062 13.1236 3.06806 13.7945 3.07368L13.804 3.07368V8.8576H13.9553C14.6357 8.8576 15.0072 8.47958 15.0072 7.79914V4.12572C15.0072 3.44528 14.6357 3.06726 13.9553 3.06726H13.804V2.92247C13.804 2.24714 13.4317 1.8697 12.7608 1.86408H12.7513V1.71287C12.7513 1.03243 12.3732 0.660889 11.6928 0.660889H7.37451V11.264H11.6928C12.3732 11.264 12.7513 10.8924 12.7513 10.212V10.0672L12.7608 10.0672C13.4317 10.0616 13.804 9.68415 13.804 9.00882V8.8576L13.7945 8.85761C13.1236 8.86323 12.7513 9.24067 12.7513 9.916V10.0608H8.6905L8.6905 1.86408Z" fill="white"/>
<path d="M16.809 3.21048C17.2138 2.40061 17.7985 1.78571 18.5632 1.33578C19.3128 0.885852 20.1974 0.660889 21.2019 0.660889C22.3563 0.660889 23.3308 0.975838 24.1104 1.60574C24.8901 2.23564 25.3848 3.0905 25.5947 4.17032H24.3053C24.0954 3.45044 23.7206 2.88053 23.1809 2.4756C22.6262 2.07066 21.9515 1.8607 21.1719 1.8607C20.4522 1.8607 19.8076 2.04067 19.2528 2.38561C18.6981 2.74555 18.2783 3.22548 17.9785 3.85538C17.6786 4.48527 17.5287 5.20516 17.5287 6.00003C17.5287 6.8099 17.6786 7.51479 17.9785 8.14469C18.2783 8.77458 18.6981 9.26951 19.2528 9.61445C19.7926 9.97439 20.4223 10.1394 21.1419 10.1394C21.7716 10.1394 22.3413 10.0194 22.8511 9.77942C23.3608 9.53946 23.7506 9.17952 24.0355 8.72959C24.2934 8.32224 24.4407 7.84112 24.4662 7.29737V6.75202L24.6269 6.75202C25.3495 6.75202 25.7442 7.15325 25.7446 7.87551C25.7446 7.87589 25.7446 7.87626 25.7446 7.87664V11.264H24.673L24.5302 9.58445C24.2304 10.0644 23.7956 10.4693 23.2259 10.8143C22.6412 11.1742 21.9365 11.3392 21.1269 11.3392C20.1674 11.3392 19.3128 11.1142 18.5632 10.6643C17.8135 10.2144 17.2288 9.59945 16.809 8.78958C16.3892 7.97971 16.1943 7.04986 16.1943 6.00003C16.1943 4.9502 16.3892 4.02035 16.809 3.21048Z" fill="white"/>
<path d="M24.4662 6.75202L21.3455 6.75202V5.54884L23.4078 5.54884C24.0882 5.54884 24.4662 5.92038 24.4662 6.60081V6.75202Z" fill="white"/>
<path d="M28.1087 1.71287V1.86408H32.9591V0.660889H29.1672C28.4867 0.660889 28.1087 1.03243 28.1087 1.71287Z" fill="white"/>
<path d="M26.7928 7.39122V2.95447C26.7928 2.25742 27.1799 1.87017 27.8766 1.87017H28.1088V5.2368H32.9591V6.42777H28.1088V7.08597H28.1087V10.0608H32.9591V11.264H26.7927V7.39122H26.7928Z" fill="white"/>
</svg>
