<svg width="771" height="768" viewBox="0 0 771 768" fill="none" xmlns="http://www.w3.org/2000/svg">
<g opacity="0.7">
<path fill-rule="evenodd" clip-rule="evenodd" d="M829.528 835.284L779.126 782.891L737.231 741.342L736.521 740.638C737.205 739.947 737.897 739.242 738.593 738.526L738.511 738.443L640.051 639.943C648.273 631.641 655.354 622.764 661.017 613.031C661.185 612.743 661.352 612.454 661.517 612.165L662.382 612.666L782.754 682.373C777.753 691.177 772.209 699.651 766.189 707.796L872.549 786.554C860.153 803.648 846.245 820.132 831.129 835.089L830.925 835.294L830.222 836.005L829.528 835.284ZM749.579 728.157C755.217 721.865 760.568 715.346 765.593 708.599L871.157 786.767C858.937 803.536 845.264 819.696 830.425 834.378L830.418 834.385L830.232 834.573L779.847 782.197L779.839 782.189L779.831 782.18L737.933 740.631C741.715 736.787 745.676 732.556 749.579 728.157ZM765.385 707.201C771.186 699.353 776.542 691.2 781.393 682.741L661.883 613.532C656.331 623.074 649.435 631.789 641.459 639.937L739.213 737.732C742.504 734.388 745.713 730.974 748.834 727.491C754.502 721.103 760.045 714.365 764.728 707.958C764.925 707.688 765.121 707.418 765.316 707.149L765.385 707.201ZM213.753 304.556C226.039 287.31 239.811 271.264 254.773 256.121C254.906 255.985 255.04 255.85 255.174 255.715L255.476 255.41L256.181 256.12L351.52 352.182C351.654 352.049 351.788 351.915 351.922 351.782L352.125 351.577L352.829 350.866L353.524 351.586L400.901 400.623L401.509 401.23L451.089 450.685L450.787 450.99L450.709 451.065C450.599 451.173 450.489 451.281 450.379 451.389C442.098 459.537 435.275 468.852 429.623 478.463L309.251 408.755L308.385 408.254C308.555 407.967 308.725 407.681 308.896 407.394C313.474 399.708 318.394 392.198 323.658 384.928L213.753 304.556ZM350.813 352.889C341.161 362.581 332.305 373.068 324.245 384.119L215.142 304.333C227.246 287.443 240.783 271.704 255.477 256.831L350.813 352.889ZM324.465 385.519C319.223 392.759 314.322 400.239 309.761 407.895L429.267 477.101C434.852 467.737 441.564 458.66 449.671 450.683L400.195 401.331L400.188 401.324L400.182 401.318L352.82 352.296L352.633 352.486L352.626 352.492C352.492 352.625 352.358 352.758 352.224 352.892L352.252 352.92L351.988 353.17C351.839 353.321 351.69 353.472 351.541 353.623C341.969 363.331 332.964 373.876 325.063 384.717C324.867 384.987 324.671 385.257 324.476 385.527L324.465 385.519ZM762.393 323.998L762.388 324.003L737.184 349.709C727.795 340.059 715.924 330.268 705.192 322.311L782.968 215.909C799.405 228.127 814.987 241.788 829.715 256.328L762.393 323.998ZM737.873 350.435L737.88 350.429L763.102 324.703L831.129 256.326L830.826 256.02C815.949 241.3 800.192 227.466 783.558 215.101C783.29 214.902 783.022 214.704 782.754 214.506L782.164 215.313L704.126 322.076C697.46 317.328 690.589 312.859 683.539 308.643C683.384 308.55 683.229 308.457 683.074 308.365C682.943 308.287 682.812 308.209 682.68 308.131L682.68 308.132L682.179 308.996L612.539 429.315L612.538 429.317C622.355 435.023 631.293 441.912 639.642 449.983C639.778 450.115 639.915 450.247 640.051 450.379V450.99L640.659 450.379L641.051 449.986L689.634 401.233L739.702 353.692L740.427 353.003L739.723 352.292L739.218 351.782C738.771 351.331 738.323 350.882 737.873 350.435ZM542 819.44V954.053C521.533 954.006 500.801 952.521 480.351 949.047L501.804 816.004C515.099 818.013 528.674 819.375 542 819.44ZM543 819.443V954.054V955.054C542.667 955.054 542.333 955.054 542 955.053C521.16 955.006 500.037 953.47 479.207 949.865L500.847 815.658C492.285 814.226 483.772 812.405 475.337 810.222C475.014 810.138 474.692 810.054 474.369 809.97L474.37 809.967L474.628 809.004L510.65 674.742C522.139 677.794 533.627 679.321 545.419 679.321V680.321V818.433V819.433C545.085 819.433 544.752 819.432 544.419 819.431C543.946 819.429 543.473 819.426 543 819.421V819.443ZM607.329 949.024C627.776 945.732 647.93 941.007 667.517 934.574L626.614 807.167C613.869 811.211 600.583 814.415 587.281 816.513L607.329 949.024ZM627.549 806.805L627.567 806.862L668.773 935.213C648.831 941.824 628.304 946.66 607.479 950.012C607.289 950.043 607.1 950.073 606.911 950.103L606.491 950.17L606.341 949.181L586.143 815.678C596.26 814.124 606.378 811.923 616.262 809.194L580.49 674.742C591.516 671.733 602.249 667.241 612.109 661.559C612.252 661.476 612.395 661.394 612.538 661.311L613.039 662.176L682.168 781.611C688.863 777.618 695.335 773.279 701.533 768.746C701.802 768.549 702.071 768.352 702.339 768.155L702.929 768.962L781.559 876.407L782.15 877.214C781.88 877.41 781.61 877.606 781.34 877.801C764.617 889.889 747.043 900.826 728.618 910.335C728.322 910.488 728.025 910.64 727.729 910.792L727.275 909.901L666.836 791.068C654.162 797.378 641.066 802.624 627.549 806.805ZM670.851 787.898C669.66 788.511 668.463 789.111 667.261 789.697C667.121 789.765 666.981 789.834 666.84 789.901C666.68 789.979 666.521 790.056 666.361 790.133L666.383 790.177C650.634 798.017 634.233 804.207 617.178 808.748L581.711 675.441C592.322 672.459 602.645 668.118 612.172 662.675L681.308 782.122C680.617 782.53 679.923 782.934 679.227 783.334C676.456 784.909 673.665 786.431 670.851 787.898ZM667.73 790.621L728.165 909.443C746.539 899.96 764.067 889.052 780.749 876.994L702.123 769.553C695.9 774.104 689.399 778.464 682.669 782.477L682.679 782.495L682.68 782.497C681.694 783.074 680.706 783.644 679.714 784.208C676.952 785.797 674.154 787.324 671.323 788.78C670.129 789.403 668.932 790.017 667.73 790.621ZM420.855 786.554C433.483 792.928 446.409 798.397 459.634 802.661L459.857 802.732L459.551 803.684L417.534 934.261L417.227 935.213C416.911 935.108 416.595 935.003 416.278 934.897C396.665 928.345 377.344 920.366 358.865 911.236C358.566 911.089 358.267 910.941 357.969 910.792L358.42 909.9L420.855 786.554ZM416.585 933.945L458.599 803.376C445.883 799.231 433.449 793.982 421.297 787.895L359.317 910.344C377.749 919.45 397.021 927.41 416.585 933.945ZM375.426 758.724C378.137 760.866 380.875 762.953 383.632 764.984L383.617 765.006C391.491 770.816 399.665 776.205 408.096 781.129L477.238 661.67C467.504 655.906 458.362 648.714 450.089 640.659L450.083 640.653L450.076 640.646L449.594 640.16L406.163 686.113L406.148 686.128L406.132 686.143L352.436 738.249L352.626 738.441L352.629 738.444C359.857 745.611 367.472 752.387 375.426 758.724ZM351.671 737.599L351.733 737.538L405.436 685.426L448.89 639.449L449.577 638.722L450.281 639.433L450.787 639.943C459.252 648.185 468.625 655.511 478.602 661.311L408.96 781.631L408.459 782.497C408.171 782.33 407.883 782.162 407.595 781.994C399.136 777.054 390.935 771.648 383.035 765.819L304.13 876.096L303.548 876.909C303.28 876.711 303.012 876.512 302.744 876.314C286.1 863.949 270.051 850.115 255.174 835.394L350.882 738.224L351.584 737.511C351.613 737.54 351.642 737.569 351.671 737.599ZM374.813 759.514C366.754 753.146 358.933 746.286 351.588 738.933L256.587 835.384C271.228 849.807 286.991 863.364 303.326 875.5L382.231 765.224C379.727 763.363 377.254 761.459 374.813 759.514ZM308.959 681.563C313.638 689.622 318.752 697.459 324.129 704.898L214.558 785.655L213.753 786.248C213.557 785.979 213.361 785.71 213.165 785.44C200.709 768.282 189.719 750.236 180.194 731.302L301.168 669.334L301.236 669.299C294.809 656.575 289.309 643.374 284.925 629.89L156.655 671.773L155.704 672.083C155.606 671.765 155.507 671.446 155.409 671.128C149.294 651.295 144.324 630.899 141.047 610.493C140.994 610.164 140.942 609.835 140.89 609.506L141.878 609.351L275.105 588.56L276.093 588.406C276.116 588.557 276.139 588.708 276.162 588.859C276.189 589.038 276.216 589.216 276.244 589.395C277.631 598.35 279.509 607.18 281.797 615.886L416.018 580.113C419.041 591.407 423.576 602.09 429.32 612.163L429.321 612.165L308.959 681.563ZM308.092 682.063C312.621 689.863 317.555 697.454 322.739 704.68L213.97 784.846C201.742 768.002 190.93 750.299 181.534 731.739L301.622 670.225C303.49 673.868 305.458 677.485 307.512 681.058C307.538 681.105 307.564 681.151 307.59 681.198C307.754 681.488 307.918 681.777 308.082 682.067L308.083 682.068L308.092 682.063ZM308.458 680.697L427.962 611.794C422.572 602.194 418.269 592.041 415.314 581.335L282.096 616.842C288.026 638.936 297.061 660.454 308.38 680.562C308.406 680.607 308.432 680.652 308.458 680.697ZM930.296 672.083L929.345 671.774L799.427 629.656L798.476 629.347C798.376 629.665 798.275 629.983 798.173 630.3C793.985 643.399 788.651 656.201 782.452 668.42L904.916 731.152L905.806 731.608C905.958 731.311 906.109 731.014 906.26 730.717C915.587 712.344 923.496 692.839 929.985 673.034C930.089 672.717 930.193 672.4 930.296 672.083ZM799.125 630.609L929.034 672.725C922.559 692.485 914.671 711.94 905.37 730.261L783.793 667.983C789.822 655.989 795.021 643.443 799.125 630.609ZM156.359 670.817L284.518 628.971C280.511 616.115 277.336 602.973 275.256 589.549L142.035 610.339C145.303 630.685 150.259 651.029 156.359 670.817ZM819.71 545.707H949.25H950.25C950.25 546.041 950.25 546.374 950.249 546.707C950.194 567.417 948.441 588.4 945.265 608.823C945.214 609.152 945.162 609.482 945.11 609.811L944.124 609.646L816.19 588.273C814.732 597.405 812.829 606.483 810.518 615.47C810.463 615.683 810.408 615.895 810.353 616.107L810.269 616.432L810.267 616.438L810.265 616.437L809.301 616.181L676.088 580.676L675.122 580.418L675.195 580.143C678.17 568.931 679.657 557.125 679.657 545.619H680.657H818.64H819.64C819.64 545.648 819.64 545.678 819.64 545.707H819.71ZM819.708 546.707H949.249C949.194 567.359 947.446 588.286 944.279 608.658L816.518 587.313C818.502 573.873 819.653 560.161 819.708 546.707ZM272.241 545.314H272.5H410.785H411.785C411.785 533.853 413.261 522.095 416.212 510.922C416.248 510.786 416.284 510.65 416.32 510.515L416.317 510.514L415.354 510.258L281.839 474.752L280.872 474.495C280.788 474.817 280.705 475.14 280.622 475.463C278.293 484.518 276.379 493.665 274.917 502.867L141.877 481.457L140.89 481.299C140.838 481.628 140.786 481.957 140.735 482.287C137.568 502.71 136.095 523.693 135.765 544.402C135.76 544.736 135.755 545.069 135.75 545.402H136.75H271.241H272.241C272.241 545.373 272.241 545.343 272.241 545.314ZM274.432 503.802C272.449 517.241 271.298 530.951 271.243 544.402H136.765C137.095 523.735 138.565 502.807 141.722 482.445L274.432 503.802ZM945.256 480.616C945.308 480.945 945.361 481.275 945.413 481.604L944.424 481.753L815.589 501.135L814.6 501.284C813.269 492.451 811.459 483.739 809.246 475.071L674.822 510.819L674.82 510.82L674.817 510.81C671.794 499.519 667.26 488.839 661.819 478.463L782.186 409.061C777.27 400.462 771.849 392.102 766.131 384.191L872.049 305.458L872.851 304.861C873.048 305.131 873.244 305.4 873.44 305.67C885.895 322.828 896.886 340.874 906.411 359.807L789.101 419.752C795.65 432.533 801.269 445.826 805.761 459.499L929.647 419.336L930.598 419.027L930.67 419.248L930.802 419.656C930.837 419.764 930.872 419.871 930.906 419.978C937.296 439.811 941.987 460.209 945.256 480.616ZM808.279 467.609C807.605 465.21 806.901 462.814 806.17 460.417L929.955 420.286C936.326 440.062 941.006 460.406 944.267 480.765L815.438 500.147C814.116 491.613 812.351 483.191 810.212 474.814L810.266 474.8L810.267 474.8C809.64 472.393 808.977 469.996 808.279 467.609ZM807.318 467.886C802.501 451.418 796.021 435.449 788.211 420.207L788.202 420.211C788.051 419.914 787.9 419.617 787.748 419.32C787.428 418.696 787.105 418.073 786.779 417.451C785.606 415.219 784.404 413.004 783.175 410.806C783.011 410.514 782.846 410.222 782.681 409.93L663.149 478.85C668.266 488.715 672.565 498.879 675.524 509.598L808.997 474.103C808.46 472.029 807.9 469.957 807.318 467.886ZM788.643 418.863L905.07 359.369C895.675 340.811 884.864 323.11 872.637 306.266L767.518 384.406C773.043 392.106 778.284 400.221 783.053 408.562L783.056 408.56L783.057 408.56C783.221 408.849 783.385 409.139 783.549 409.43C783.715 409.724 783.88 410.018 784.045 410.313C785.286 412.523 786.494 414.747 787.664 416.984C787.993 417.609 788.319 418.235 788.643 418.863ZM180.63 360.849L302.207 423.126C296.177 435.12 290.979 447.666 286.875 460.501L156.966 418.384C163.441 398.624 171.329 379.169 180.63 360.849ZM303.548 422.69C297.349 434.909 292.015 447.71 287.826 460.809C287.725 461.127 287.624 461.444 287.524 461.762L286.573 461.454L156.656 419.335L155.704 419.027C155.807 418.71 155.911 418.393 156.015 418.076C162.504 398.271 170.413 378.766 179.74 360.393C179.891 360.096 180.042 359.799 180.194 359.502L181.084 359.958L303.548 422.69ZM419.963 303.058L419.964 303.06C419.913 303.086 419.863 303.111 419.812 303.137C416.555 304.85 413.326 306.636 410.125 308.493L478.969 427.951C488.496 422.508 498.819 418.168 509.431 415.186L474.262 281.88C455.36 286.913 437.26 293.972 419.963 303.058ZM409.16 308.821C400.677 313.596 392.521 318.805 384.792 324.447C384.523 324.644 384.254 324.841 383.986 325.038L383.402 324.226L304.153 213.895C321.117 201.575 338.961 190.437 357.684 180.775C357.98 180.622 358.277 180.469 358.573 180.317L359.021 181.212L419.515 302.163C432.279 295.46 445.478 289.856 459.113 285.351L459.073 285.226L417.832 155.897C437.769 149.287 458.585 144.452 479.126 141.099C479.455 141.046 479.785 140.992 480.114 140.939L480.262 141.928L500.494 276.411C492.025 277.712 483.556 279.466 475.223 281.604L510.65 415.886C499.783 418.851 489.201 423.257 479.459 428.823C479.304 428.911 479.149 429 478.995 429.089C478.865 429.164 478.734 429.24 478.604 429.315L478.602 429.317L478.601 429.316L478.103 428.45L409.16 308.821ZM384.209 323.635L305.546 214.121C322.228 202.062 339.757 191.153 358.132 181.669L418.625 302.618C406.513 308.787 394.953 315.792 384.209 323.635ZM666.671 300.25L727.292 181.059C708.869 171.665 689.879 163.701 670.324 157.165L629.659 284.487C642.09 288.906 654.514 294.16 666.671 300.25ZM628.411 285.106L669.375 156.849L669.68 155.897C669.996 156.002 670.312 156.107 670.629 156.213C690.55 162.87 709.886 171.007 728.636 180.622L667.111 301.59C654.412 295.18 641.412 289.685 628.411 285.106ZM460.025 284.922C472.771 280.878 486.056 277.674 499.358 275.576L479.275 142.088C459.104 145.381 438.675 150.105 419.085 156.536L460.025 284.922ZM606.108 140.782C606.438 140.834 606.767 140.886 607.096 140.939L606.936 141.927L585.495 274.523C595.614 276.046 605.64 278.124 615.501 280.708C615.824 280.792 616.146 280.877 616.468 280.963L616.209 281.929L580.447 415.225L580.188 416.191C579.866 416.103 579.544 416.017 579.222 415.932C568.324 413.052 556.88 411.612 545.721 411.612V410.612V272.5V272.21C545.015 272.204 544.309 272.201 543.605 272.201V271.201V136.75V135.75C543.938 135.75 544.271 135.75 544.605 135.751C565.11 135.807 585.886 137.576 606.108 140.782ZM578.244 273.529C567.165 272.078 555.796 271.25 544.605 271.203V136.751C565.054 136.807 585.776 138.571 605.949 141.769L584.506 274.376C582.422 274.07 580.335 273.787 578.244 273.529ZM578.118 274.521C567.705 273.233 557.214 272.543 546.721 272.502V410.616C557.647 410.699 568.821 412.149 579.481 414.966L615.242 281.674C605.412 279.098 595.419 277.027 585.335 275.51L585.327 275.559C582.941 275.184 580.536 274.837 578.118 274.521ZM688.926 400.528L640.348 449.275C632.188 441.384 623.461 434.61 613.901 428.957L683.038 309.508C703.202 321.568 721.882 335.701 738.507 352.486L738.998 352.981L688.945 400.508L688.935 400.518L688.926 400.528ZM544.419 680.317V818.431C521.293 818.34 498.168 815.097 475.596 809.256L511.358 675.961C522.283 678.783 533.219 680.236 544.419 680.317ZM809.552 615.213C815.336 592.721 818.547 569.67 818.638 546.619H680.653C680.571 557.655 679.135 568.942 676.343 579.709L809.552 615.213ZM281.588 475.72L415.099 511.225C412.307 521.991 410.871 533.278 410.789 544.314H272.502C272.592 521.262 275.804 498.212 281.588 475.72Z" fill="url(#paint0_radial_30465_59402)"/>
</g>
<defs>
<radialGradient id="paint0_radial_30465_59402" cx="0" cy="0" r="1" gradientUnits="userSpaceOnUse" gradientTransform="translate(623 495) rotate(178.535) scale(215.07 243.997)">
<stop stop-color="white" stop-opacity="0.6"/>
<stop offset="1" stop-color="white" stop-opacity="0.05"/>
</radialGradient>
</defs>
</svg>
