<svg xmlns="http://www.w3.org/2000/svg" width="75" height="26" fill="none"><path fill="#D0D0D9" d="M.89 4.794V1.718h18.327v3.076h-7.388v20.604H8.267V4.794H.891Zm20.145 20.604V7.637h3.457v17.76h-3.457Zm1.746-20.5c-.601 0-1.117-.2-1.55-.601-.423-.409-.635-.895-.635-1.457 0-.57.212-1.056.636-1.457a2.175 2.175 0 0 1 1.55-.613c.6 0 1.113.204 1.537.613.432.4.647.886.647 1.457 0 .562-.215 1.048-.647 1.457-.424.4-.937.6-1.538.6Zm12.063 20.858c-1.75 0-3.257-.374-4.521-1.122-1.256-.755-2.228-1.815-2.914-3.18-.678-1.371-1.017-2.978-1.017-4.82 0-1.82.34-3.423 1.017-4.81.686-1.388 1.642-2.47 2.868-3.25 1.233-.778 2.675-1.167 4.324-1.167 1.002 0 1.973.166 2.914.497.94.331 1.784.852 2.532 1.56.747.71 1.337 1.631 1.769 2.764.431 1.126.647 2.494.647 4.105v1.225H28.346v-2.59h10.73c0-.91-.185-1.715-.556-2.416a4.195 4.195 0 0 0-1.56-1.676c-.663-.41-1.442-.613-2.336-.613-.971 0-1.819.239-2.544.716a4.811 4.811 0 0 0-1.664 1.85 5.34 5.34 0 0 0-.579 2.463v2.024c0 1.187.209 2.196.625 3.029.424.832 1.013 1.468 1.769 1.908.755.431 1.638.647 2.648.647a5.5 5.5 0 0 0 1.792-.277 3.87 3.87 0 0 0 1.399-.856c.393-.378.693-.844.901-1.4l3.273.59a5.924 5.924 0 0 1-1.411 2.533c-.67.717-1.515 1.275-2.532 1.676-1.01.393-2.162.59-3.457.59Zm9.501-.358V7.637h3.342v2.821h.185c.324-.956.894-1.707 1.711-2.254.825-.555 1.758-.833 2.798-.833a14.773 14.773 0 0 1 1.468.081v3.307a6.202 6.202 0 0 0-.74-.127 7.056 7.056 0 0 0-1.063-.081c-.817 0-1.546.173-2.185.52a3.866 3.866 0 0 0-1.503 1.422c-.37.601-.555 1.287-.555 2.058v10.846h-3.458Zm16.857 0V23.15l6.949-7.199a38.486 38.486 0 0 0 1.835-2.055c.487-.595.852-1.16 1.092-1.695.241-.534.361-1.103.361-1.704 0-.682-.16-1.27-.48-1.765a3.146 3.146 0 0 0-1.314-1.153c-.555-.274-1.18-.411-1.876-.411-.735 0-1.377.15-1.925.451-.548.3-.969.725-1.263 1.273-.294.549-.441 1.19-.441 1.926h-2.958c0-1.25.287-2.343.862-3.28a5.857 5.857 0 0 1 2.367-2.175c1.002-.521 2.142-.782 3.419-.782 1.29 0 2.426.257 3.409.772.99.508 1.761 1.203 2.316 2.086.555.875.832 1.865.832 2.968 0 .761-.144 1.507-.431 2.235-.28.73-.772 1.541-1.474 2.437-.702.889-1.678 1.969-2.928 3.239l-4.08 4.271v.15h9.244v2.658H61.202Z"/><path fill="url(#a)" d="M.89 4.794V1.718h18.327v3.076h-7.388v20.604H8.267V4.794H.891Zm20.145 20.604V7.637h3.457v17.76h-3.457Zm1.746-20.5c-.601 0-1.117-.2-1.55-.601-.423-.409-.635-.895-.635-1.457 0-.57.212-1.056.636-1.457a2.175 2.175 0 0 1 1.55-.613c.6 0 1.113.204 1.537.613.432.4.647.886.647 1.457 0 .562-.215 1.048-.647 1.457-.424.4-.937.6-1.538.6Zm12.063 20.858c-1.75 0-3.257-.374-4.521-1.122-1.256-.755-2.228-1.815-2.914-3.18-.678-1.371-1.017-2.978-1.017-4.82 0-1.82.34-3.423 1.017-4.81.686-1.388 1.642-2.47 2.868-3.25 1.233-.778 2.675-1.167 4.324-1.167 1.002 0 1.973.166 2.914.497.94.331 1.784.852 2.532 1.56.747.71 1.337 1.631 1.769 2.764.431 1.126.647 2.494.647 4.105v1.225H28.346v-2.59h10.73c0-.91-.185-1.715-.556-2.416a4.195 4.195 0 0 0-1.56-1.676c-.663-.41-1.442-.613-2.336-.613-.971 0-1.819.239-2.544.716a4.811 4.811 0 0 0-1.664 1.85 5.34 5.34 0 0 0-.579 2.463v2.024c0 1.187.209 2.196.625 3.029.424.832 1.013 1.468 1.769 1.908.755.431 1.638.647 2.648.647a5.5 5.5 0 0 0 1.792-.277 3.87 3.87 0 0 0 1.399-.856c.393-.378.693-.844.901-1.4l3.273.59a5.924 5.924 0 0 1-1.411 2.533c-.67.717-1.515 1.275-2.532 1.676-1.01.393-2.162.59-3.457.59Zm9.501-.358V7.637h3.342v2.821h.185c.324-.956.894-1.707 1.711-2.254.825-.555 1.758-.833 2.798-.833a14.773 14.773 0 0 1 1.468.081v3.307a6.202 6.202 0 0 0-.74-.127 7.056 7.056 0 0 0-1.063-.081c-.817 0-1.546.173-2.185.52a3.866 3.866 0 0 0-1.503 1.422c-.37.601-.555 1.287-.555 2.058v10.846h-3.458Zm16.857 0V23.15l6.949-7.199a38.486 38.486 0 0 0 1.835-2.055c.487-.595.852-1.16 1.092-1.695.241-.534.361-1.103.361-1.704 0-.682-.16-1.27-.48-1.765a3.146 3.146 0 0 0-1.314-1.153c-.555-.274-1.18-.411-1.876-.411-.735 0-1.377.15-1.925.451-.548.3-.969.725-1.263 1.273-.294.549-.441 1.19-.441 1.926h-2.958c0-1.25.287-2.343.862-3.28a5.857 5.857 0 0 1 2.367-2.175c1.002-.521 2.142-.782 3.419-.782 1.29 0 2.426.257 3.409.772.99.508 1.761 1.203 2.316 2.086.555.875.832 1.865.832 2.968 0 .761-.144 1.507-.431 2.235-.28.73-.772 1.541-1.474 2.437-.702.889-1.678 1.969-2.928 3.239l-4.08 4.271v.15h9.244v2.658H61.202Z"/><defs><linearGradient id="a" x1="73.299" x2="-32.339" y1="1.397" y2="2.525" gradientUnits="userSpaceOnUse"><stop stop-color="#16161D" stop-opacity="0"/><stop offset=".265" stop-color="#313149" stop-opacity=".265"/><stop offset="1" stop-color="#16161D"/></linearGradient></defs></svg>