<svg xmlns="http://www.w3.org/2000/svg" width="68" height="25" fill="none"><path fill="#D0D0D9" d="M.863 4.147V1.125h18.011v3.022h-7.261v20.25h-3.5V4.148H.863Zm19.799 20.25V6.944h3.397v17.455h-3.397ZM22.378 4.25a2.16 2.16 0 0 1-1.523-.591c-.417-.402-.625-.879-.625-1.432 0-.56.208-1.038.625-1.432a2.138 2.138 0 0 1 1.523-.602c.59 0 1.094.2 1.51.602.425.394.637.871.637 1.432 0 .553-.212 1.03-.636 1.432a2.12 2.12 0 0 1-1.511.59Zm11.855 20.5c-1.72 0-3.2-.368-4.443-1.102-1.235-.743-2.19-1.785-2.864-3.125-.666-1.349-1-2.929-1-4.74 0-1.787.334-3.363 1-4.726.675-1.364 1.614-2.428 2.818-3.194 1.213-.765 2.63-1.147 4.25-1.147.985 0 1.94.163 2.864.488a6.936 6.936 0 0 1 2.489 1.534c.735.697 1.314 1.603 1.738 2.716.425 1.106.637 2.451.637 4.034v1.205H27.847v-2.546h10.545c0-.893-.182-1.685-.545-2.374a4.124 4.124 0 0 0-1.534-1.648c-.652-.402-1.417-.603-2.296-.603-.954 0-1.788.235-2.5.705a4.729 4.729 0 0 0-1.636 1.818 5.248 5.248 0 0 0-.568 2.42v1.99c0 1.166.204 2.158.613 2.977.417.818.997 1.443 1.739 1.875.742.424 1.61.636 2.602.636.644 0 1.231-.091 1.761-.273.53-.19.99-.47 1.376-.84.386-.372.681-.83.886-1.376l3.216.58a5.824 5.824 0 0 1-1.387 2.489c-.659.704-1.488 1.253-2.488 1.647-.993.387-2.125.58-3.398.58Zm9.339-.352V6.943h3.284v2.773h.181A4.22 4.22 0 0 1 48.72 7.5c.81-.546 1.728-.818 2.75-.818a14.526 14.526 0 0 1 1.444.08v3.25a6.092 6.092 0 0 0-.728-.126 6.94 6.94 0 0 0-1.045-.08c-.803 0-1.52.171-2.148.512a3.8 3.8 0 0 0-1.477 1.398c-.364.59-.546 1.265-.546 2.022v10.66h-3.397ZM67.996 4.034v20.364h-3.082V7.116h-.12l-4.871 3.182V7.355l5.08-3.321h2.993Z"/><path fill="url(#a)" d="M.863 4.147V1.125h18.011v3.022h-7.261v20.25h-3.5V4.148H.863Zm19.799 20.25V6.944h3.397v17.455h-3.397ZM22.378 4.25a2.16 2.16 0 0 1-1.523-.591c-.417-.402-.625-.879-.625-1.432 0-.56.208-1.038.625-1.432a2.138 2.138 0 0 1 1.523-.602c.59 0 1.094.2 1.51.602.425.394.637.871.637 1.432 0 .553-.212 1.03-.636 1.432a2.12 2.12 0 0 1-1.511.59Zm11.855 20.5c-1.72 0-3.2-.368-4.443-1.102-1.235-.743-2.19-1.785-2.864-3.125-.666-1.349-1-2.929-1-4.74 0-1.787.334-3.363 1-4.726.675-1.364 1.614-2.428 2.818-3.194 1.213-.765 2.63-1.147 4.25-1.147.985 0 1.94.163 2.864.488a6.936 6.936 0 0 1 2.489 1.534c.735.697 1.314 1.603 1.738 2.716.425 1.106.637 2.451.637 4.034v1.205H27.847v-2.546h10.545c0-.893-.182-1.685-.545-2.374a4.124 4.124 0 0 0-1.534-1.648c-.652-.402-1.417-.603-2.296-.603-.954 0-1.788.235-2.5.705a4.729 4.729 0 0 0-1.636 1.818 5.248 5.248 0 0 0-.568 2.42v1.99c0 1.166.204 2.158.613 2.977.417.818.997 1.443 1.739 1.875.742.424 1.61.636 2.602.636.644 0 1.231-.091 1.761-.273.53-.19.99-.47 1.376-.84.386-.372.681-.83.886-1.376l3.216.58a5.824 5.824 0 0 1-1.387 2.489c-.659.704-1.488 1.253-2.488 1.647-.993.387-2.125.58-3.398.58Zm9.339-.352V6.943h3.284v2.773h.181A4.22 4.22 0 0 1 48.72 7.5c.81-.546 1.728-.818 2.75-.818a14.526 14.526 0 0 1 1.444.08v3.25a6.092 6.092 0 0 0-.728-.126 6.94 6.94 0 0 0-1.045-.08c-.803 0-1.52.171-2.148.512a3.8 3.8 0 0 0-1.477 1.398c-.364.59-.546 1.265-.546 2.022v10.66h-3.397ZM67.996 4.034v20.364h-3.082V7.116h-.12l-4.871 3.182V7.355l5.08-3.321h2.993Z"/><defs><linearGradient id="a" x1="65.588" x2="-9.723" y1=".397" y2="1.849" gradientUnits="userSpaceOnUse"><stop stop-color="#16161D" stop-opacity="0"/><stop offset=".265" stop-color="#8E8C51" stop-opacity=".265"/><stop offset="1" stop-color="#7C6747"/></linearGradient></defs></svg>