<svg width="16" height="16" viewBox="0 0 16 16" fill="none" xmlns="http://www.w3.org/2000/svg">
<path fill-rule="evenodd" clip-rule="evenodd" d="M7.97892 16C10.3282 16 12.4417 14.9927 13.9087 13.3874L13.5184 12.9577C13.0353 12.426 12.2118 12.3806 11.6726 12.8559L10.8399 13.5899C9.70711 14.5884 7.98534 14.5255 6.92931 13.4469L6.40868 12.9151C5.90871 12.4045 5.08947 12.3867 4.56756 12.8752L3.04038 14.3043C4.40186 15.3668 6.11624 16 7.97892 16ZM14.6468 11.9436L14.8363 12.1523C15.5747 10.9418 16 9.52048 16 8C16 6.15636 15.3747 4.45836 14.3241 3.10549C14.1288 3.15542 13.9421 3.25098 13.7809 3.39307L12.9483 4.12704C11.8155 5.12559 10.0938 5.06265 9.03772 3.98408L8.5171 3.45231C8.01708 2.94167 7.19788 2.92387 6.67595 3.41231L4.53361 5.41723L3.49139 4.31561L5.63372 2.31068C6.75996 1.25668 8.52781 1.29509 9.60666 2.39701L10.1273 2.92878C10.6167 3.4286 11.4146 3.45777 11.9395 2.99502L12.7722 2.26106C12.9119 2.13788 13.0605 2.03092 13.2156 1.94002C11.8104 0.731051 9.98025 0 7.97892 0C3.95505 0 0.623232 2.9552 0.0462309 6.80823C1.14424 6.17784 2.56994 6.34265 3.49219 7.28459L4.09432 7.89955C4.56233 8.37761 5.3173 8.42801 5.84537 8.0165L7.63029 6.62573C8.70161 5.79096 10.2183 5.83134 11.2431 6.72191L13.6735 8.83388L12.673 9.97296L10.2425 7.86104C9.76753 7.4483 9.06468 7.4296 8.56825 7.81649L6.78332 9.20729C5.64379 10.0952 4.01464 9.98637 3.00471 8.95489L2.4026 8.33993C1.90263 7.82928 1.08339 7.81147 0.561478 8.29991L0 8.82535C0.173643 10.5151 0.874585 12.0491 1.93601 13.2609L3.52534 11.7735C4.65158 10.7195 6.41939 10.7579 7.49825 11.8598L8.01894 12.3916C8.50832 12.8914 9.30622 12.9206 9.83113 12.4579L10.6638 11.7239C11.8273 10.6982 13.6044 10.7962 14.6468 11.9436Z" fill="white"/>
</svg>
