<svg width="141" height="141" viewBox="0 0 141 141" fill="none" xmlns="http://www.w3.org/2000/svg">
    <path d="M2.53537 82.4722L2.53556 82.4733C9.14562 119.852 44.8622 144.947 82.2185 138.402H82.2462L82.3703 138.381C119.771 131.786 144.831 95.9426 138.241 58.5207C131.652 21.0969 95.833 -3.98202 58.434 2.61234L58.4331 2.61249C21.0072 9.2348 -4.0543 45.0491 2.53537 82.4722Z"
          fill="#19172D" stroke="white" stroke-width="2.88008"/>
    <path d="M60.6969 15.5083C30.3677 20.8333 10.0747 49.8862 15.4236 80.2084C20.7726 110.531 49.7784 130.865 80.08 125.512C110.382 120.16 130.702 91.1343 125.353 60.8122C120.004 30.49 90.9985 10.1557 60.6969 15.5083Z"
          fill="white"/>
    <path d="M82.0927 136.665H82.0665L82.0408 136.669C45.5877 143.124 10.6978 118.65 4.24676 82.1709C-2.1766 45.6922 22.2545 10.7788 58.7359 4.32362C95.1895 -2.10393 130.107 22.3436 136.53 58.822C142.952 95.2923 118.533 130.225 82.0942 136.665H82.0927ZM61.6479 15.6949L61.685 15.6578L60.7553 15.8221C30.6225 21.1481 10.4423 49.9969 15.7369 80.1495L15.737 80.1497C21.0594 110.303 49.8885 130.497 80.0214 125.171C110.154 119.845 130.335 90.9961 125.012 60.8707C119.744 31.025 91.4454 10.9359 61.6479 15.6949Z"
          fill="#19172D" stroke="#19172D" stroke-width="0.595354"/>
    <path d="M99.9592 87.7956L90.2814 89.5063C88.6271 89.8097 87.4966 91.3824 87.7999 93.0654C88.1032 94.7209 89.6748 95.8521 91.3567 95.5486L93.8106 95.1072C89.73 101.894 83.0024 106.53 75.172 107.909C70.209 108.792 65.1357 108.268 60.4761 106.447C58.9045 105.84 57.1123 106.612 56.5057 108.185C55.8991 109.758 56.6711 111.551 58.2427 112.158C63.9501 114.393 70.1814 115.028 76.2473 113.952C85.6493 112.296 93.7555 106.806 98.7736 98.7491L99.1596 101.012C99.4629 102.667 101.034 103.798 102.716 103.495C104.371 103.191 105.501 101.619 105.198 99.9355L103.488 90.2512C103.185 88.5958 101.614 87.4645 99.9316 87.768L99.9592 87.7956Z"
          fill="#19172D"/>
    <path d="M8.11688 62.1916L10.6259 76.4283L15.065 75.6558L16.0025 81.036L20.8552 80.1807L21.7926 85.5609L26.2317 84.7883L27.1691 90.1409L58.2428 84.6504L57.3053 79.2978L61.7444 78.5252L60.807 73.1451L65.4391 72.3173L63.5366 61.5846L73.7658 59.7912L75.6683 70.5239L80.3004 69.6962L81.2379 75.0764L85.6769 74.3039L86.6144 79.6565L117.688 74.1659L116.751 68.8133L121.19 68.0408L120.252 62.6606L125.105 61.8053L124.167 56.4251L128.607 55.6526L126.098 41.4158L8.11688 62.1916Z"
          fill="#19172D"/>
    <path d="M24.3294 68.4819L18.9529 69.42L19.8903 74.8002L25.2669 73.8621L24.3294 68.4819Z" fill="white"/>
    <path d="M30.6431 72.897L25.2665 73.8351L26.204 79.2152L31.5805 78.2772L30.6431 72.897Z" fill="white"/>
    <path d="M36.9576 77.312L31.5811 78.2501L32.5185 83.6303L37.895 82.6922L36.9576 77.312Z" fill="white"/>
    <path d="M35.055 66.5784L29.6785 67.5164L30.6159 72.8966L35.9925 71.9585L35.055 66.5784Z" fill="white"/>
    <path d="M41.3689 70.9929L35.9923 71.931L36.9298 77.3112L42.3063 76.3731L41.3689 70.9929Z" fill="white"/>
    <path d="M47.6829 75.4075L42.3064 76.3456L43.2438 81.7257L48.6204 80.7877L47.6829 75.4075Z" fill="white"/>
    <path d="M83.7745 57.9697L78.398 58.9078L79.3355 64.288L84.712 63.3499L83.7745 57.9697Z" fill="white"/>
    <path d="M90.0891 62.4124L84.7125 63.3504L85.65 68.7306L91.0265 67.7925L90.0891 62.4124Z" fill="white"/>
    <path d="M96.4025 66.8269L91.0259 67.765L91.9634 73.1452L97.3399 72.2071L96.4025 66.8269Z" fill="white"/>
    <path d="M94.5002 56.0942L89.1237 57.0323L90.0611 62.4125L95.4376 61.4744L94.5002 56.0942Z" fill="white"/>
    <path d="M100.814 60.5088L95.4372 61.4469L96.3747 66.8271L101.751 65.889L100.814 60.5088Z" fill="white"/>
    <path d="M107.129 64.9233L101.752 65.8614L102.689 71.2416L108.066 70.3035L107.129 64.9233Z" fill="white"/>
</svg>
