<svg width="65" height="25" fill="none" xmlns="http://www.w3.org/2000/svg">
    <path d="M0 .782h.503l.611 1.709.603-1.709h.494l-.82 2.209H.82L0 .782ZM2.415 1.295a.965.965 0 0 1 .382-.397c.165-.094.351-.142.563-.142.213 0 .4.043.564.13.165.086.29.211.386.366a1.109 1.109 0 0 1 .134.734H2.771v.026c.009.194.07.345.182.457a.583.583 0 0 0 .438.168c.143 0 .264-.03.364-.099a.511.511 0 0 0 .195-.29h.468a.905.905 0 0 1-.33.553c-.177.147-.398.216-.663.216-.234 0-.433-.043-.606-.138a.98.98 0 0 1-.4-.397 1.18 1.18 0 0 1-.138-.591c0-.225.043-.423.134-.596Zm1.565.35a.568.568 0 0 0-.602-.514.594.594 0 0 0-.4.143.537.537 0 0 0-.19.37H3.98ZM6.063.782v.436h-.208c-.196 0-.334.064-.421.19a.817.817 0 0 0-.13.474v1.109h-.468V.782h.416l.052.332a.662.662 0 0 1 .247-.241.78.78 0 0 1 .408-.091h.104ZM6.36.165h.468v.617h.538v.41h-.538v1.152c0 .086.017.15.052.185.035.035.091.052.178.052h.355v.41h-.45c-.213 0-.365-.047-.46-.147-.095-.095-.143-.246-.143-.453V.165ZM7.673 1.295a.965.965 0 0 1 .382-.397c.165-.094.351-.142.564-.142.212 0 .398.043.563.13.165.086.29.211.386.366a1.109 1.109 0 0 1 .134.734H8.03v.026c.009.194.07.345.182.457a.583.583 0 0 0 .438.168c.143 0 .264-.03.364-.099a.511.511 0 0 0 .195-.29h.468a.905.905 0 0 1-.33.553c-.177.147-.398.216-.662.216-.234 0-.434-.043-.607-.138a.98.98 0 0 1-.4-.397 1.18 1.18 0 0 1-.138-.591c0-.225.043-.423.135-.596Zm1.566.35a.568.568 0 0 0-.603-.514.594.594 0 0 0-.399.143.537.537 0 0 0-.19.37h1.192ZM10.63 1.86 9.844.783h.546l.533.746.542-.746h.512l-.79 1.079.837 1.13h-.546l-.585-.802-.59.802h-.507l.832-1.13ZM12.022 6.558h-9.46v6.527H0v-8.87h12.022v2.343ZM0 20.39v-4.963h2.562V22.5H2.11C.754 22.5 0 21.746 0 20.39Z" fill="#fff"/>
    <path d="M2.561 13.379v-.294h9.461v2.342h-7.4c-1.325 0-2.06-.724-2.06-2.048ZM2.561 22.806v-.294h9.461v2.342h-7.4c-1.325 0-2.06-.723-2.06-2.048ZM16.915 6.558h7.904v.294c0 1.315.725 2.05 2.03 2.06h.02V20.17h.294c1.324 0 2.047-.736 2.047-2.06v-7.15c0-1.325-.723-2.06-2.047-2.06h-.295v-.282c0-1.315-.724-2.05-2.03-2.06h-.019v-.294c0-1.325-.735-2.048-2.06-2.048h-8.405v20.638h8.405c1.325 0 2.06-.723 2.06-2.048v-.282h.019c1.306-.01 2.03-.745 2.03-2.06v-.294h-.018c-1.306.011-2.03.746-2.03 2.06v.282h-7.905V6.558ZM32.717 9.178A8.593 8.593 0 0 1 36.13 5.53c1.459-.876 3.18-1.314 5.136-1.314 2.247 0 4.144.613 5.661 1.839 1.518 1.226 2.48 2.89 2.89 4.992h-2.51c-.409-1.401-1.139-2.51-2.19-3.299-1.079-.788-2.392-1.197-3.91-1.197-1.4 0-2.655.35-3.735 1.022-1.08.7-1.896 1.635-2.48 2.86-.584 1.227-.876 2.628-.876 4.175 0 1.576.292 2.948.876 4.174.584 1.226 1.4 2.19 2.48 2.861 1.05.7 2.276 1.022 3.677 1.022 1.226 0 2.335-.234 3.327-.7a5.416 5.416 0 0 0 2.305-2.044c.502-.793.789-1.73.839-2.788v-1.061h.312c1.407 0 2.175.78 2.176 2.187v6.595h-2.086l-.278-3.27c-.583.935-1.43 1.723-2.539 2.394-1.138.701-2.51 1.022-4.085 1.022-1.868 0-3.531-.438-4.99-1.314-1.46-.875-2.597-2.072-3.414-3.648-.817-1.577-1.197-3.387-1.197-5.43 0-2.043.38-3.853 1.197-5.43Z" fill="#fff"/>
    <path d="M47.62 16.072h-6.074V13.73h4.014c1.325 0 2.06.723 2.06 2.047v.295ZM54.71 6.264v.294h9.441V4.216h-7.38c-1.325 0-2.06.723-2.06 2.048ZM52.15 17.316V8.68c0-1.357.753-2.11 2.109-2.11h.452v6.553h9.44v2.318h-9.44v7.07h9.44v2.343H52.15v-7.538Z" fill="#fff"/>
</svg>
