<?xml version="1.0" standalone="no"?>
<!DOCTYPE svg PUBLIC "-//W3C//DTD SVG 20010904//EN"
 "http://www.w3.org/TR/2001/REC-SVG-20010904/DTD/svg10.dtd">
<svg width="64" height="64" viewBox="0 0 64 64" fill="none" xmlns="http://www.w3.org/2000/svg">
<rect width="64" height="64" rx="8" fill="black"/>
<path d="M15.873 52V42.5417H17.0664V37.7635H18.2598V32.9852H19.4532V28.2069H20.6466V23.4286H21.84V18.6503H23.0334V13.8721H46.8172V18.6503H49.204V32.8822H43.2323V32.9805H45.6191V47.2124H39.6474V51.9907H15.873V52ZM36.1702 42.5417V37.6699H27.7181V42.4481H26.5247V42.5464H36.1749L36.1702 42.5417ZM39.7504 28.2116V23.3397H31.2983V28.118H30.1049V28.2163H39.7551L39.7504 28.2116Z" fill="url(#paint0_linear_694_8102)" fill-opacity="0.22"/>
<path d="M14.937 51.0635V41.6052H16.1304V36.8269H17.3238V32.0487H18.5172V27.2704H19.7106V22.4921H20.904V17.7138H22.0974V12.9355H45.8812V17.7138H48.268V31.9457H42.2963V32.044H44.6831V46.2759H38.7114V51.0541H14.937V51.0635ZM35.2342 41.6052V36.7333H26.7821V41.5116H25.5887V41.6099H35.2388L35.2342 41.6052ZM38.8144 27.2751V22.4032H30.3623V27.1815H29.1689V27.2797H38.819L38.8144 27.2751Z" fill="url(#paint1_linear_694_8102)" fill-opacity="0.22"/>
<path d="M14 50.1279V40.6697H15.1934V35.8914H16.3868V31.1131H17.5802V26.3348H18.7736V21.5566H19.967V16.7783H21.1604V12H44.9442V16.7783H47.331V31.0102H41.3593V31.1084H43.7461V45.3403H37.7744V50.1186H14V50.1279ZM34.2972 40.6697V35.7978H25.8451V40.5761H24.6517V40.6744H34.3018L34.2972 40.6697ZM37.8774 26.3395V21.4676H29.4253V26.2459H28.2319V26.3442H37.882L37.8774 26.3395Z" fill="url(#paint2_linear_694_8102)" fill-opacity="0.22"/>
<path d="M42.5568 13.4805V18.3321H44.9826V28.0353H40.131V18.3321H26.7891V23.1837H25.5762V28.0353H38.9181V32.8869H41.3439V42.5901H36.4923V32.8869H23.1504V37.7385H21.9375V42.5901H35.2794V47.4417H15.873V42.5901H17.0859V37.7385H18.2988V32.8869H19.5117V28.0353H20.7246V23.1837H21.9375V18.3321H23.1504V13.4805H42.5568Z" fill="white"/>
<defs>
<linearGradient id="paint0_linear_694_8102" x1="32.5385" y1="13.8721" x2="32.5385" y2="52" gradientUnits="userSpaceOnUse">
<stop stop-color="white" stop-opacity="0.3"/>
<stop offset="1" stop-color="white" stop-opacity="0.4"/>
</linearGradient>
<linearGradient id="paint1_linear_694_8102" x1="31.6025" y1="12.9355" x2="31.6025" y2="51.0635" gradientUnits="userSpaceOnUse">
<stop stop-color="white" stop-opacity="0.3"/>
<stop offset="1" stop-color="white" stop-opacity="0.4"/>
</linearGradient>
<linearGradient id="paint2_linear_694_8102" x1="30.6655" y1="12" x2="30.6655" y2="50.1279" gradientUnits="userSpaceOnUse">
<stop stop-color="white" stop-opacity="0.3"/>
<stop offset="1" stop-color="white" stop-opacity="0.4"/>
</linearGradient>
</defs>
</svg>
