<svg width="24" height="24" fill="none" xmlns="http://www.w3.org/2000/svg">
    <g clip-path="url(#a)">
        <path d="M12 24c6.627 0 12-5.373 12-12S18.627 0 12 0 0 5.373 0 12s5.373 12 12 12Z" fill="#0AC18E"/>
        <path d="M15.743 7.97c-.603-1.367-1.989-1.66-3.685-1.376l-.545-2.114-1.286.332.536 2.108c-.338.085-.685.158-1.029.256L9.198 5.08l-1.285.332.545 2.114c-.277.08-2.595.673-2.595.673l.353 1.377s.944-.265.935-.244c.524-.137.77.125.887.372l1.498 5.792c.018.168-.012.454-.372.552.022.012-.935.24-.935.24l.14 1.605 2.598-.664.552 2.139 1.285-.332-.551-2.154c.353-.082.697-.167 1.032-.256l.549 2.141 1.285-.331-.551-2.136c1.98-.48 3.377-1.73 3.09-3.64-.182-1.15-1.44-2.095-2.484-2.201.642-.57.968-1.401.57-2.488Zm-.618 5.041c.256 1.892-2.373 2.123-3.24 2.351l-.756-2.829c.871-.228 3.563-1.188 3.996.478ZM13.54 9.158c.271 1.682-1.977 1.877-2.701 2.062l-.689-2.567c.728-.18 2.839-1.051 3.39.505Z" fill="#fff"/>
    </g>
    <defs>
        <clipPath id="a">
            <path fill="#fff" d="M0 0h24v24H0z"/>
        </clipPath>
    </defs>
</svg>
