<svg width="25" height="25" fill="none" xmlns="http://www.w3.org/2000/svg">
    <g clip-path="url(#a)">
        <path d="M12.5 24.5c6.627 0 12-5.373 12-12s-5.373-12-12-12-12 5.373-12 12 5.373 12 12 12Z" fill="#627EEA"/>
        <path d="M12.873 3.5v6.652l5.623 2.513L12.873 3.5Z" fill="#fff" fill-opacity=".602"/>
        <path d="M12.873 3.5 7.25 12.665l5.623-2.512V3.5Z" fill="#fff"/>
        <path d="M12.873 16.976v4.52l5.627-7.784-5.627 3.264Z" fill="#fff" fill-opacity=".602"/>
        <path d="M12.873 21.496v-4.52L7.25 13.711l5.623 7.784Z" fill="#fff"/>
        <path d="m12.873 15.93 5.623-3.265-5.623-2.51v5.775Z" fill="#fff" fill-opacity=".2"/>
        <path d="m7.25 12.665 5.623 3.265v-5.776L7.25 12.665Z" fill="#fff" fill-opacity=".602"/>
    </g>
    <defs>
        <clipPath id="a">
            <path fill="#fff" d="M.5.5h24v24H.5z"/>
        </clipPath>
    </defs>
</svg>
