<svg width="24" height="24" viewBox="0 0 24 25" fill="none" xmlns="http://www.w3.org/2000/svg">
    <rect y=".5" width="24" height="24" rx="12" fill="#111118"/>
    <path d="M12 .5C5.373.5 0 5.873 0 12.5s5.373 12 12 12 12-5.373 12-12-5.373-12-12-12Zm-.52 4.849a1.04 1.04 0 0 1 1.008.032c1.12.638 2.237 1.282 3.35 1.934.358.21.54.548.542.961.007 1.45.004 2.9 0 4.35 0 .054-.035.132-.078.158-.431.256-.867.505-1.34.776v-.228c0-1.491-.004-2.983.004-4.474.001-.286-.098-.47-.352-.615-1.3-.74-2.594-1.493-3.89-2.241l-.196-.118c.335-.19.635-.38.953-.535Zm-.238 14.84c-.072-.038-.127-.064-.179-.094-1.717-.99-3.431-1.986-5.153-2.968-.483-.276-.703-.668-.699-1.219a267.2 267.2 0 0 0 .001-3.517c-.002-.53.213-.913.677-1.177 1.209-.687 2.412-1.386 3.614-2.084.104-.06.18-.07.288-.005.416.249.838.487 1.279.742-.084.05-.148.089-.213.126-1.3.752-2.601 1.505-3.906 2.252-.214.122-.312.28-.31.528.006.924.007 1.848 0 2.772-.003.255.098.416.318.542 1.377.787 2.748 1.584 4.124 2.373.116.067.166.136.163.276-.01.473-.004.946-.004 1.453Zm0-2.646-.291-.167c-1.091-.63-2.182-1.261-3.275-1.886-.119-.068-.162-.14-.16-.277.007-.71.005-1.42.001-2.131 0-.096.015-.163.11-.215.403-.225.8-.46 1.2-.69.029-.016.06-.028.113-.054v.797c0 .432.007.864-.003 1.296a.545.545 0 0 0 .305.534c.618.349 1.228.711 1.847 1.059.122.068.158.144.156.278-.008.472-.003.946-.003 1.456ZM9.982 8.22c-.232-.136-.43-.134-.661.001-1.298.758-2.601 1.506-3.902 2.258-.055.031-.112.06-.21.114.035-.495-.07-.961.098-1.413.091-.247.264-.433.492-.565 1.086-.627 2.17-1.256 3.258-1.88.397-.227.803-.221 1.2.007 1.235.711 2.47 1.424 3.702 2.14.053.03.119.098.12.149.008.508.005 1.016.005 1.562l-1.277-.737c-.942-.544-1.887-1.084-2.826-1.636Zm8.684 7.984c-.032.4-.267.684-.612.882-1.323.76-2.644 1.524-3.967 2.288-.415.24-.83.48-1.245.718-.05.03-.102.054-.17.09-.004-.068-.01-.119-.01-.17-.001-.437.002-.875-.003-1.313 0-.099.024-.16.115-.213 1.929-1.109 3.855-2.222 5.781-3.334.03-.017.061-.03.116-.057.001.389.023.751-.005 1.11Zm.01-2.76c-.004.454-.248.773-.637.996-1.508.866-3.014 1.738-4.52 2.607a626.1 626.1 0 0 1-.847.487c-.004-.075-.01-.124-.01-.175-.001-.432.004-.864-.004-1.297-.001-.122.039-.188.145-.25 1.37-.785 2.735-1.58 4.108-2.362.244-.14.351-.31.35-.596-.011-1.492-.006-2.984-.006-4.475v-.26c.358.215.693.393 1 .61.279.197.42.497.421.843.005 1.29.009 2.58 0 3.872Z" fill="#fff"/>
</svg>
