<svg width="24" height="24" viewBox="0 0 24 24" fill="none" xmlns="http://www.w3.org/2000/svg">
<g clip-path="url(#clip0_6148_6149)">
<g clip-path="url(#clip1_6148_6149)">
<path d="M24 0H0V24H24V0Z" fill="#FFEEDA"/>
<path d="M18.0202 14.1628V5.97905C18.0094 5.29256 17.4635 4.74121 16.777 4.74121H8.23643C6.39319 4.76824 4.91211 6.27635 4.91211 8.12499C4.91211 8.74662 5.07968 9.28175 5.33373 9.75202C5.54995 10.1412 5.89049 10.5088 6.22562 10.7845C6.32292 10.8601 6.27427 10.8277 6.56616 11.0061C6.96616 11.2493 7.42562 11.3736 7.42562 11.3736L7.42022 16.2709C7.43103 16.5034 7.45265 16.725 7.51751 16.9358C7.7067 17.6277 8.18778 18.1574 8.83643 18.4115C9.1067 18.5196 9.41481 18.5899 9.74454 18.5953L16.5662 18.6169C17.9229 18.6169 19.0256 17.5142 19.0256 16.152C19.031 15.3412 18.6256 14.6169 18.0202 14.1628Z" fill="#FFEEDA"/>
<path d="M18.1881 16.2114C18.161 17.0816 17.4421 17.7843 16.561 17.7843L11.8691 17.7681C12.2421 17.3357 12.4691 16.7735 12.4691 16.1573C12.4691 15.1951 11.8962 14.5303 11.8962 14.5303H16.5664C17.4637 14.5303 18.1935 15.26 18.1935 16.1573L18.1881 16.2114Z" fill="#EBC28E"/>
<path d="M6.67427 10.093C6.13373 9.5795 5.75535 8.92004 5.75535 8.13085V8.04977C5.7986 6.70923 6.9013 5.62815 8.24184 5.59031H16.7824C17.004 5.60112 17.1824 5.75788 17.1824 5.98491V13.2119C17.377 13.2444 17.4743 13.2714 17.6635 13.3417C17.8148 13.3957 18.0202 13.5146 18.0202 13.5146V5.98491C18.0094 5.29842 17.4635 4.74707 16.777 4.74707H8.23643C6.39319 4.7741 4.91211 6.2822 4.91211 8.13085C4.91211 9.20653 5.404 10.1254 6.204 10.7687C6.25806 10.8119 6.31211 10.8714 6.45265 10.8714C6.7013 10.8714 6.87968 10.6714 6.86887 10.4552C6.86887 10.2714 6.78779 10.2065 6.67427 10.093Z" fill="#101010"/>
<path d="M16.5617 13.6869H9.86437C9.41572 13.6923 9.05356 14.0545 9.05356 14.5031V15.4653C9.06437 15.9085 9.44275 16.2869 9.8968 16.2869H10.3941V15.4653H9.8914V14.5247C9.8914 14.5247 10.0157 14.5247 10.1617 14.5247C11.0103 14.5247 11.6319 15.3085 11.6319 16.1518C11.6319 16.8977 10.9509 17.8491 9.81572 17.7734C8.81031 17.7085 8.26437 16.8112 8.26437 16.1518V7.98961C8.26437 7.62204 7.96167 7.31934 7.5941 7.31934H6.92383V8.15717H7.42113V16.1572C7.3941 17.7842 8.57788 18.6004 9.81572 18.6004L16.5671 18.622C17.9238 18.622 19.0265 17.5193 19.0265 16.1572C19.0319 14.795 17.9238 13.6869 16.5617 13.6869ZM18.1887 16.2112C18.1617 17.0815 17.4427 17.7842 16.5617 17.7842L11.8698 17.768C12.2427 17.3356 12.4698 16.7734 12.4698 16.1572C12.4698 15.195 11.8968 14.5301 11.8968 14.5301H16.5671C17.4644 14.5301 18.1941 15.2599 18.1941 16.1572L18.1887 16.2112Z" fill="#101010"/>
<path d="M14.7557 8.30854H9.70703V7.4707H14.7557C14.9827 7.4707 15.1719 7.65449 15.1719 7.88692C15.1773 8.11935 14.9935 8.30854 14.7557 8.30854Z" fill="#101010"/>
<path d="M14.7557 12.2387H9.70703V11.4062H14.7557C14.9827 11.4062 15.1719 11.59 15.1719 11.8225C15.1773 12.0495 14.9935 12.2387 14.7557 12.2387Z" fill="#101010"/>
<path d="M15.6476 10.2705H9.70703V9.43262H15.6422C15.8692 9.43262 16.0584 9.6164 16.0584 9.84883C16.0692 10.0813 15.88 10.2705 15.6476 10.2705Z" fill="#101010"/>
</g>
</g>
<defs>
<clipPath id="clip0_6148_6149">
<rect width="24" height="24" rx="12" fill="white"/>
</clipPath>
<clipPath id="clip1_6148_6149">
<rect width="24" height="24" fill="white"/>
</clipPath>
</defs>
</svg>
