<svg width="24" height="24" fill="none" xmlns="http://www.w3.org/2000/svg">
    <g clip-path="url(#a)">
        <path d="M6.728 23.803c6.033 0 6.033-.09 7.056-.393 1.336-.397-3.774-3.935-7.056-3.935-3.28 0-5.94.97-5.94 2.164 0 1.195 2.66 2.164 5.94 2.164Z" fill="#000"/>
        <path d="m20.426 5.402.277.299-.242.328C12.593 16.666 8.06 21.482 6.138 20.836c-1.171-.393-2.346-1.576-3.52-3.295a24.253 24.253 0 0 1-1.69-2.895 2.548 2.548 0 0 1-.231-.67L.69 13.95a2.286 2.286 0 0 0-.038-.177 10.736 10.736 0 0 1-.358-2.757c0-5.92 4.8-10.721 10.721-10.721 1.855 0 3.643.472 5.227 1.358l.041.026c1.297.903 2.677 2.144 4.142 3.723ZM15.742 2.5a9.691 9.691 0 0 0-4.726-1.221c-5.378 0-9.737 4.36-9.737 9.737 0 .855.11 1.695.324 2.505.022.08.031.125.054.241l.005.024c.028.144.058.236.154.437a23.305 23.305 0 0 0 1.614 2.763C4.49 18.54 5.544 19.6 6.452 19.904c1.21.407 5.77-4.42 12.974-14.13-1.308-1.381-2.537-2.472-3.684-3.274Z" fill="#000"/>
        <path d="M15.743 2.5a9.69 9.69 0 0 0-4.726-1.221c-5.378 0-9.738 4.36-9.738 9.737 0 .855.11 1.695.325 2.505.021.08.031.125.054.241l.004.024c.029.144.059.236.154.437a23.286 23.286 0 0 0 1.614 2.763c1.062 1.553 2.114 2.613 3.022 2.918 1.211.407 5.77-4.42 12.975-14.13-1.308-1.381-2.537-2.472-3.684-3.274Z" fill="#EC1C79"/>
        <path d="M12.983 23.705c-5.921 0-10.721-4.8-10.721-10.721 0-5.922 4.8-10.722 10.721-10.722s10.721 4.8 10.721 10.721c0 5.922-4.8 10.722-10.721 10.722Zm0-.984c5.378 0 9.738-4.36 9.738-9.738 0-5.377-4.36-9.737-9.738-9.737-5.378 0-9.738 4.36-9.738 9.737 0 5.378 4.36 9.738 9.738 9.738Z" fill="#000"/>
        <path d="M12.984 22.721c5.378 0 9.737-4.36 9.737-9.737 0-5.378-4.36-9.738-9.737-9.738-5.378 0-9.738 4.36-9.738 9.738 0 5.377 4.36 9.737 9.738 9.737Z" fill="#fff"/>
        <path fill-rule="evenodd" clip-rule="evenodd" d="m5.7 14.978-1.29-3.883h1.13l.671 2.23.744-2.241h.92l.743 2.242.672-2.231h1.108l-1.29 3.883h-.93l-.777-2.22-.771 2.22H5.7Zm5.122-.027v-3.856h3.1v.909H11.88v.584h1.851v.843h-1.85v.61h2.07v.91h-3.128Zm4.616 0v-2.92H14.28v-.936h3.382v.936h-1.157v2.92h-1.068Zm2.693 0v-3.856H19.2v1.443h1.371v-1.443h1.069v3.856H20.57v-1.465H19.2v1.465H18.13Z" fill="#000"/>
        <path d="M.934 9.935a.55.55 0 0 1 .492-.985L3 9.737a.55.55 0 0 1-.493.985L.934 9.935ZM.754 12.545a.55.55 0 1 1 .461-1l1.574.726a.55.55 0 1 1-.462 1l-1.573-.726Z" fill="#000"/>
    </g>
    <defs>
        <clipPath id="a">
            <path fill="#fff" d="M0 0h24v24H0z"/>
        </clipPath>
    </defs>
</svg>
