<svg width="17" height="17" viewBox="0 0 17 17" fill="none" xmlns="http://www.w3.org/2000/svg">
<rect width="17" height="17" rx="4" fill="#2C5FF6"/>
<path fill-rule="evenodd" clip-rule="evenodd" d="M8.50005 14.4498C11.7861 14.4498 14.45 11.7859 14.45 8.4998C14.45 5.21371 11.7861 2.5498 8.50005 2.5498C5.21395 2.5498 2.55005 5.21371 2.55005 8.4998C2.55005 11.7859 5.21395 14.4498 8.50005 14.4498ZM7.30719 6.55695C6.89298 6.55695 6.55719 6.89274 6.55719 7.30695V9.69266C6.55719 10.1069 6.89298 10.4427 7.30719 10.4427H9.69291C10.1071 10.4427 10.4429 10.1069 10.4429 9.69266V7.30695C10.4429 6.89273 10.1071 6.55695 9.69291 6.55695H7.30719Z" fill="white"/>
</svg>
