<svg width="1em" height="1em" viewBox="0 0 32 32" fill="none" xmlns="http://www.w3.org/2000/svg" class="transition-all box-content animate-none" size="18" style="width: 18px; height: 18px;" id="svgg"><circle cx="16" cy="16" r="16" fill="#E3AFBE"/><g clip-path="url(#clip0_133_2612)"><path d="M12.2254 5.70894L8.97546 7.58555C8.88062 7.64086 8.84901 7.76136 8.90236 7.85618L12.4072 13.9265H5.39752C5.28886 13.9265 5.19995 14.0154 5.19995 14.1241V17.8773C5.19995 17.9859 5.28886 18.0748 5.39752 18.0748H12.4072L13.6045 16.0007L14.8017 13.9265L15.999 11.8524L12.4961 5.78203C12.4408 5.68721 12.3203 5.6556 12.2254 5.70894Z" fill="#181818"/><path d="M19.5928 18.0752H12.4073L8.90245 24.1455C8.84713 24.2404 8.88072 24.3609 8.97555 24.4162L12.2255 26.2928C12.3204 26.3481 12.4409 26.3145 12.4962 26.2197L16.001 20.1493L19.5059 26.2197C19.5612 26.3145 19.6817 26.3461 19.7765 26.2928L23.0265 24.4162C23.1213 24.3609 23.153 24.2404 23.0996 24.1455L19.5948 18.0752H19.5928Z" fill="#181818"/><path d="M19.5928 13.9269L23.0976 7.85657C23.1529 7.76175 23.1193 7.64125 23.0245 7.58594L19.7745 5.70933C19.6797 5.65402 19.5592 5.6876 19.5039 5.78242L15.999 11.8528L17.1963 13.9269L18.3935 16.0011L19.5908 18.0752H26.6005C26.7091 18.0752 26.798 17.9863 26.798 17.8777V14.1244C26.798 14.0158 26.7091 13.9269 26.6005 13.9269H19.5908H19.5928Z" fill="#181818"/></g><defs><clipPath id="clip0_133_2612"><rect width="21.6" height="20.6328" fill="white" transform="translate(5.19995 5.68359)"/></clipPath></defs></svg>