<svg width="217" height="25" fill="none" xmlns="http://www.w3.org/2000/svg">
    <path d="M0 .782h.503l.611 1.709.603-1.709h.494l-.82 2.209H.82L0 .782ZM2.415 1.295a.965.965 0 0 1 .382-.397c.165-.094.351-.142.563-.142.213 0 .4.043.564.13.165.086.29.211.386.366a1.109 1.109 0 0 1 .134.734H2.771v.026c.009.194.07.345.182.457a.583.583 0 0 0 .438.168c.143 0 .264-.03.364-.099a.511.511 0 0 0 .195-.29h.468a.905.905 0 0 1-.33.553c-.177.147-.398.216-.663.216-.234 0-.433-.043-.606-.138a.98.98 0 0 1-.4-.397 1.18 1.18 0 0 1-.138-.591c0-.225.043-.423.134-.596Zm1.565.35a.568.568 0 0 0-.602-.514.594.594 0 0 0-.4.143.537.537 0 0 0-.19.37H3.98ZM6.063.782v.436h-.208c-.196 0-.334.064-.421.19a.817.817 0 0 0-.13.474v1.109h-.468V.782h.416l.052.332a.662.662 0 0 1 .247-.241.78.78 0 0 1 .408-.091h.104ZM6.36.165h.468v.617h.538v.41h-.538v1.152c0 .086.017.15.052.185.035.035.091.052.178.052h.355v.41h-.45c-.213 0-.365-.047-.46-.147-.095-.095-.143-.246-.143-.453V.165ZM7.673 1.295a.965.965 0 0 1 .382-.397c.165-.094.351-.142.564-.142.212 0 .398.043.563.13.165.086.29.211.386.366a1.109 1.109 0 0 1 .134.734H8.03v.026c.009.194.07.345.182.457a.583.583 0 0 0 .438.168c.143 0 .264-.03.364-.099a.511.511 0 0 0 .195-.29h.468a.905.905 0 0 1-.33.553c-.177.147-.398.216-.662.216-.234 0-.434-.043-.607-.138a.98.98 0 0 1-.4-.397 1.18 1.18 0 0 1-.138-.591c0-.225.043-.423.135-.596Zm1.566.35a.568.568 0 0 0-.603-.514.594.594 0 0 0-.399.143.537.537 0 0 0-.19.37h1.192ZM10.63 1.86 9.844.783h.546l.533.746.542-.746h.512l-.79 1.079.837 1.13h-.546l-.585-.802-.59.802h-.507l.832-1.13ZM12.022 6.558h-9.46v6.527H0v-8.87h12.022v2.343ZM0 20.39v-4.963h2.562V22.5H2.11C.754 22.5 0 21.746 0 20.39Z" fill="#fff"/>
    <path d="M2.561 13.379v-.294h9.461v2.342h-7.4c-1.325 0-2.06-.724-2.06-2.048ZM2.561 22.806v-.294h9.461v2.342h-7.4c-1.325 0-2.06-.723-2.06-2.048ZM16.915 6.558h7.904v.294c0 1.315.725 2.05 2.03 2.06h.02V20.17h.294c1.324 0 2.047-.736 2.047-2.06v-7.15c0-1.325-.723-2.06-2.047-2.06h-.295v-.282c0-1.315-.724-2.05-2.03-2.06h-.019v-.294c0-1.325-.735-2.048-2.06-2.048h-8.405v20.638h8.405c1.325 0 2.06-.723 2.06-2.048v-.282h.019c1.306-.01 2.03-.745 2.03-2.06v-.294h-.018c-1.306.011-2.03.746-2.03 2.06v.282h-7.905V6.558ZM32.717 9.178A8.592 8.592 0 0 1 36.13 5.53c1.459-.876 3.18-1.314 5.136-1.314 2.247 0 4.143.613 5.66 1.839 1.518 1.226 2.481 2.89 2.89 4.992h-2.51c-.408-1.401-1.138-2.51-2.188-3.299-1.08-.788-2.393-1.197-3.91-1.197-1.401 0-2.656.35-3.736 1.022-1.08.7-1.897 1.635-2.48 2.86-.584 1.227-.876 2.628-.876 4.175 0 1.576.292 2.948.876 4.174.583 1.226 1.4 2.19 2.48 2.861 1.05.7 2.276 1.022 3.677 1.022 1.226 0 2.334-.234 3.327-.7a5.416 5.416 0 0 0 2.305-2.044c.502-.793.789-1.73.838-2.788v-1.061h.313c1.407 0 2.175.78 2.176 2.187v6.595h-2.086l-.278-3.27c-.584.935-1.43 1.723-2.539 2.394-1.138.701-2.51 1.022-4.085 1.022-1.868 0-3.531-.438-4.99-1.314-1.46-.875-2.598-2.072-3.414-3.648-.818-1.577-1.197-3.387-1.197-5.43 0-2.043.38-3.853 1.197-5.43Z" fill="#fff"/>
    <path d="M47.62 16.072h-6.074V13.73h4.014c1.325 0 2.06.723 2.06 2.047v.295ZM54.71 6.264v.294h9.441V4.216h-7.38c-1.324 0-2.06.723-2.06 2.048ZM52.15 17.316V8.68c0-1.357.753-2.11 2.109-2.11h.452v6.553h9.44v2.318h-9.44v7.07h9.44v2.343H52.15v-7.538Z" fill="#fff"/>
    <g clip-path="url(#a)">
        <g clip-path="url(#b)" stroke="#9A9AA2" stroke-width="1.125" stroke-linecap="round" stroke-linejoin="round">
            <path d="m89.65 8.083-9 9M89.65 17.082l-9-9"/>
        </g>
    </g>
    <g clip-path="url(#c)">
        <mask id="d" style="mask-type:luminance" maskUnits="userSpaceOnUse" x="106" y="2" width="111" height="21">
            <path d="M216.547 2.583H106.151v19.99h110.396V2.583Z" fill="#fff"/>
        </mask>
        <g mask="url(#d)">
            <path d="M123.562 14.671a.922.922 0 0 1 1.588 0l3.773 6.446c.355.605-.09 1.358-.796 1.358h-7.547c-.706 0-1.147-.753-.796-1.358l3.774-6.446h.004ZM121.282 10.379a1.966 1.966 0 0 0 0-1.947l-3.094-5.397a.898.898 0 0 0-1.561 0l-10.356 18.078a.908.908 0 0 0 .781 1.362h6.184c.691 0 1.327-.37 1.671-.972l6.372-11.124h.003Z" fill="#EB4C51"/>
            <path d="M142.686 20.969v1.506h-.898c-1.073 0-1.475-.464-1.49-1.253-.547.8-1.397 1.347-2.677 1.347-1.78 0-3.017-.882-3.017-2.404 0-1.701 1.202-2.63 3.481-2.63h2.037v-.496c0-.913-.656-1.475-1.779-1.475-1.011 0-1.682.48-1.811 1.202h-1.717c.191-1.588 1.538-2.598 3.61-2.598s3.414 1.041 3.414 2.98v3.286c0 .418.144.53.511.53h.336v.005Zm-2.564-2.15h-2.115c-1.057 0-1.65.402-1.65 1.233 0 .69.577 1.17 1.506 1.17 1.412 0 2.259-.85 2.259-2.083v-.32ZM146.455 22.475l-3.11-8.21h1.861l2.341 6.349 2.326-6.349h1.826l-3.126 8.21h-2.118ZM160.542 20.969v1.506h-.897c-1.073 0-1.475-.464-1.491-1.253-.546.8-1.397 1.347-2.677 1.347-1.779 0-3.016-.882-3.016-2.404 0-1.701 1.202-2.63 3.481-2.63h2.036v-.496c0-.913-.655-1.475-1.779-1.475-1.011 0-1.682.48-1.81 1.202h-1.717c.191-1.588 1.537-2.598 3.609-2.598s3.414 1.041 3.414 2.98v3.286c0 .418.145.53.511.53h.336v.005Zm-2.567-2.15h-2.115c-1.058 0-1.651.402-1.651 1.233 0 .69.578 1.17 1.506 1.17 1.413 0 2.26-.85 2.26-2.083v-.32ZM168.47 20.953v1.522h-6.669v-1.522h2.478v-8.07l-2.478.82v-1.53l2.119-.81h2.092v9.594h2.462l-.004-.004ZM177.707 20.969v1.506h-.898c-1.073 0-1.475-.464-1.49-1.253-.547.8-1.397 1.347-2.677 1.347-1.78 0-3.017-.882-3.017-2.404 0-1.701 1.202-2.63 3.481-2.63h2.037v-.496c0-.913-.656-1.475-1.779-1.475-1.011 0-1.682.48-1.811 1.202h-1.717c.191-1.588 1.538-2.598 3.61-2.598s3.414 1.041 3.414 2.98v3.286c0 .418.144.53.511.53h.336v.005Zm-2.564-2.15h-2.115c-1.057 0-1.65.402-1.65 1.233 0 .69.577 1.17 1.506 1.17 1.412 0 2.259-.85 2.259-2.083v-.32ZM186.978 17.793v4.682h-1.748v-4.523c0-1.459-.624-2.259-1.861-2.259-1.299 0-2.084.944-2.084 2.533v4.249h-1.732v-8.21h1.506l.191 1.073c.496-.64 1.268-1.17 2.517-1.17 1.748 0 3.207.944 3.207 3.625h.004ZM189.105 18.386c0-2.533 1.619-4.218 4.089-4.218 2.099 0 3.414 1.17 3.734 3.031h-1.81c-.227-.963-.914-1.557-1.955-1.557-1.378 0-2.295 1.14-2.295 2.744 0 1.603.913 2.708 2.295 2.708 1.026 0 1.732-.61 1.939-1.557h1.826c-.304 1.861-1.701 3.032-3.785 3.032-2.47 0-4.042-1.62-4.042-4.183h.004ZM206.514 17.793v4.682h-1.748v-4.538c0-1.413-.623-2.244-1.907-2.244s-2.116.964-2.116 2.517v4.265h-1.732V11.253h1.732v4.058c.563-.706 1.413-1.14 2.518-1.14 1.923 0 3.253 1.14 3.253 3.626v-.004ZM210.375 18.772v.082c.046 1.393.912 2.31 2.259 2.31 1.026 0 1.81-.53 2.037-1.444h1.732c-.289 1.62-1.65 2.853-3.672 2.853-2.564 0-4.167-1.666-4.167-4.183s1.603-4.218 3.991-4.218c2.389 0 3.946 1.506 3.992 3.913 0 .176-.016.45-.046.691h-6.126v-.004Zm.062-1.3h4.311c-.144-1.217-.979-1.907-2.181-1.907-1.073 0-2.006.737-2.134 1.908h.004Z" fill="#fff"/>
        </g>
    </g>
    <defs>
        <clipPath id="a">
            <path fill="#fff" d="M76.15 3.583h18v18h-18z"/>
        </clipPath>
        <clipPath id="b">
            <path fill="#fff" d="M76.15 3.583h18v18h-18z"/>
        </clipPath>
        <clipPath id="c">
            <path fill="#fff" d="M106.151 2.583h110.396v20H106.151z"/>
        </clipPath>
    </defs>
</svg>
