<svg width="22" height="23" viewBox="0 0 22 23" fill="none" xmlns="http://www.w3.org/2000/svg">
<path d="M12.9047 17.0589C12.7852 17.481 12.5349 17.8543 12.1899 18.1253C11.8441 18.3954 11.4217 18.5491 10.9831 18.5642H8.06083L2.11108 6.12402H8.05326L11.0252 12.3471C11.0252 12.3471 13.194 16.0363 12.9047 17.0589Z" fill="white"/>
<path d="M12.9047 17.0589C13.194 16.0363 11.026 12.3496 11.026 12.3496H14.2393L12.9047 17.0589Z" fill="white"/>
<g filter="url(#filter0_d_31048_4839)">
<path d="M14.2393 12.3495H20.0419V6.12646H17.7242C17.284 6.12671 16.8552 6.26689 16.4998 6.52676C16.1444 6.78708 15.8811 7.15378 15.748 7.57375L14.2393 12.3495Z" fill="white"/>
</g>
<defs>
<filter id="filter0_d_31048_4839" x="13.6599" y="5.77882" width="6.96138" height="7.38197" filterUnits="userSpaceOnUse" color-interpolation-filters="sRGB">
<feFlood flood-opacity="0" result="BackgroundImageFix"/>
<feColorMatrix in="SourceAlpha" type="matrix" values="0 0 0 0 0 0 0 0 0 0 0 0 0 0 0 0 0 0 127 0" result="hardAlpha"/>
<feOffset dy="0.231766"/>
<feGaussianBlur stdDeviation="0.289707"/>
<feComposite in2="hardAlpha" operator="out"/>
<feColorMatrix type="matrix" values="0 0 0 0 1 0 0 0 0 1 0 0 0 0 1 0 0 0 0.1 0"/>
<feBlend mode="normal" in2="BackgroundImageFix" result="effect1_dropShadow_31048_4839"/>
<feBlend mode="normal" in="SourceGraphic" in2="effect1_dropShadow_31048_4839" result="shape"/>
</filter>
</defs>
</svg>
