<svg width="24" height="25" fill="none" xmlns="http://www.w3.org/2000/svg">
    <g clip-path="url(#a)">
        <path d="M23.998 12.5c0-6.634-5.38-12-12-12-6.634 0-12 5.366-12 12 0 6.62 5.366 12 12 12 6.62 0 12-5.38 12-12Z" fill="url(#b)"/>
        <path d="M20.158 8.75c-.052.297-.104.44-.181.594a3.293 3.293 0 0 0-.233.79c-.026.154-.052.284-.065.387v.013c-.026.168-.038.285-.103.479a2.18 2.18 0 0 1-.362.724c-.181.232-.479.633-.88.685-.038 0-.103 0-.142-.013-1.138-.582-2.108-1.009-2.444-1.099-.388-.116-.336-.97-.297-1.72.026-.336.039-.66.026-.93-.052-.958-.22-1.992-1.048-2.497-.491-.297-1.138-.388-1.745-.388.116-.051.232-.129.375-.206.362-.207.801-.466 1.254-.518.142-.013.284-.026.427-.051.892-.104 1.668-.194 2.482.09.375.13 1.125.543 1.32.944.142.272.374.491.827.918.246.22.4.35.517.453.168.13.194.168.246.258.155.31.103.634.026 1.087ZM16.032 12.667c.051.013.077.078.038.13-.116.18-.258.44-.426.737-.078.142-.155.284-.22.387-.22.376-.233.699-.246.945-.013.271-.026.387-.194.49-.13.091-.271.117-1.202.26-.168.025-.233.051-.298.09-.013.013-.039.013-.052.026-.051.026-.103-.026-.103-.078.013-.129.013-.297.013-.517v-.039c0-.18 0-.336-.013-.452-.013-.233-.013-.337.052-.44.077-.13.142-.168.232-.233.143-.09.337-.207.608-.595.155-.207.181-.323.207-.413.013-.04.013-.052.13-.143.116-.09.49-.375.97-.297.154.026.323.078.504.142ZM12.321 16.96c-.026.027-.039.04-.077.04-.104 0-.168-.026-.207-.078-.09-.116-.078-.35-.065-.491l.4-.104c.027.22.04.517-.05.634ZM12.348 15.538c-.013.052-.013.117-.013.194v.298c-.13.038-.233.039-.362.039V15.732c0-.077 0-.194.013-.232a.376.376 0 0 0 .116-.026c.078-.013.194-.04.259-.026 0 .026 0 .064-.013.09ZM11.623 16.845c-.013.207-.078.452-.272.491-.09.013-.13-.013-.155-.039-.13-.116-.143-.478-.13-.737.091 0 .194-.013.324-.038.077-.013.155-.04.22-.052.013.103.025.233.013.375ZM11.532 16.12l-.427.155c.026-.168.052-.4.065-.556.013-.103.039-.142.052-.155 0 0 .013-.013.026-.013h.026l.271-.013c-.013.13-.013.414-.013.582ZM10.835 15.99a2.002 2.002 0 0 0-.065.376l-.53-.013c.026-.168.078-.337.117-.466.051-.13.09-.232.142-.258.052-.026.168-.04.245.026.117.077.143.193.091.336ZM10.64 17.634c-.038.051-.09.09-.142.09-.064.013-.103-.013-.142-.039-.168-.155-.155-.66-.142-.905.22-.052.466-.09.582-.103 0 .194.013.724-.155.957ZM9.943 16.328c-.026.064-.052.129-.065.194-.064.026-.258 0-.452-.04l.13-.84c.219-.064.478-.077.53-.013.09.09-.078.518-.143.699ZM9.697 17.75c-.104.13-.259.194-.479.181-.155 0-.206-.065-.232-.104-.117-.193 0-.646.116-.93l.724.038c.013.052.013.117.013.181.013.22-.013.479-.142.634Z" fill="#fff"/>
        <path d="M15.696 11.633c-.66-.181-.595-1.138-.543-2.07.012-.322.038-.633.025-.891-.051-.867-.194-1.81-.892-2.237-.75-.453-1.978-.35-2.728-.259-.272.078-.53.142-.737.13-.44-.027-.79-.208-1.1-.376-.232-.129-.44-.245-.646-.245h-.026c-.582.038-.853.18-1.099.4-.065.052-.142.207-.388.919-.13.362-.142.556-.168.737-.026.168-.039.349-.13.62a5.238 5.238 0 0 0-.154.492c-.117.4-.22.724-.505 1.112-.039.039-.077.116-.13.18-.064.104-.141.234-.258.376-.077.103-.245.491-.232.607.012.194.077.31.142.44.064.13.155.285.168.505v.038c.026.336-.026.505-.66 1.074-.4.362-.698.71-.892.97-.013.025 0 .051.039.051h.13c.154.013.31.078.413.194.013.026.052.026.078.013a.689.689 0 0 1 .323-.026c.13.013.271.052.362.142.026.026.065.04.103.026a.552.552 0 0 1 .324.013.46.46 0 0 1 .207.142.137.137 0 0 0 .155.026c.026-.013.064-.039.103-.051a.605.605 0 0 1 .427.025c.065.026.13.04.194.09a.622.622 0 0 1 .22.298c.026.065.116.09.168.04.103-.078.18-.091.258-.066.04.013.065.04.091.078.039.052.103.104.155.078a.93.93 0 0 1 .673.077.45.45 0 0 1 .18.168v-.038c0-.013.014-.026.026-.04l.04-.012c.103-.039.646-.194.853.026.013.013.025.013.038 0 .026-.026.052-.052.065-.052.142-.078.375-.09.53.052.026.026.078.013.104-.013a.1.1 0 0 1 .051-.052c.052-.052.13-.065.207-.065l.298-.012c.077 0 .31-.026.375-.04h.013c.026 0 .064-.012.103-.025.142-.026.31-.065.44 0s.116.207.103.336c0 .052-.013.104-.013.155v.078c0 .116 0 .22-.013.297l.013.065v.013c.013.052.078.09.117.052.103-.065.207-.143.245-.195v-.012c0-.013.013-.04.026-.09.013-.117.04-.337.04-.79v-.051c0-.168 0-.31-.014-.427-.013-.246-.026-.44.104-.634.116-.194.232-.258.349-.336.129-.078.271-.168.517-.504.116-.168.13-.233.142-.285.026-.13.065-.207.259-.336.155-.116.608-.466 1.228-.362.207.039.53.142.867.271.013 0 .026.013.038.013h.013c.298.117.57.246.763.35.04.025.09.012.13-.026.064-.078.129-.117.194-.168a.283.283 0 0 0 .064-.04c.013 0 .013-.012.013-.012.052-.039.052-.142-.013-.168a12.678 12.678 0 0 0-1.965-.763Zm-6.233.194c-.207.88-1.578 1.862-2.198 1.862h-.039c-.013 0-.026 0-.039-.013h-.026a1.032 1.032 0 0 1-.388-.233.678.678 0 0 1-.168-.271c0-.013-.013-.04-.013-.052-.039-.155-.077-.336.052-.647.013-.038.039-.077.052-.116 0-.013.013-.026.013-.039a.627.627 0 0 1 .038-.09c.013-.052.04-.09.052-.117 0-.013.013-.026.013-.039.039-.103.039-.142.052-.18 0-.026.013-.078.026-.13a3.84 3.84 0 0 0 .077-.427c.026-.22.065-.413.181-.594.026-.026.04-.052.065-.078l.026-.026.026-.026c.026-.026.064-.039.09-.051.013 0 .026-.013.039-.013.026-.013.052-.013.078-.026a1.34 1.34 0 0 1 .4-.013c.169.013.324.039.453.077.116.026.22.065.297.104.013 0 .013.013.026.013.013.013.026.013.052.026s.039.013.065.026l.077.038.026.013a1.116 1.116 0 0 1 .336.22c.013.013.026.013.026.026l.026.026c.272.233.259.556.207.75Zm.647-3.35-.026.156c-.065.362-.207.853-.724.983-.505.116-.621.142-.97.168h-.026c-.259 0-.763-.168-.854-.57-.051-.258.065-.452.246-.762.026-.052.065-.104.104-.168.258-.427.349-.737.426-.983.078-.246.142-.44.31-.608.04-.039.078-.077.13-.103.026-.026.065-.039.103-.065.052-.026.104-.039.156-.065.116-.038.245-.051.362-.051.245 0 .491.064.66.207.077.064.193.18.258.556.025.194-.026.543-.155 1.306Zm3.71 1.035c-.18.31-.27.479-.426.608-.31.259-.66.31-.957.31-.207 0-.388-.038-.504-.051-.31-.052-.867-.156-1.06-.608-.04-.09-.04-.142-.04-.22 0-.065 0-.194-.038-.466v-.013a1.75 1.75 0 0 1 0-.452v-.026c.103-.543.142-.62.155-.672a.213.213 0 0 1 .297-.09c.104.05.143.18.104.284-.013.025-.039.142-.13.569v.025c-.025.117-.012.207 0 .324v.013c.04.31.04.44.04.517v.052c.038.09.116.142.206.194.065.025.13-.026.117-.091-.09-.478-.09-1.034.09-1.384l.272-.478a.098.098 0 0 0 .026-.052c.013-.013.013-.026.025-.039.052-.077.091-.142.13-.206 0-.013.013-.013.013-.026l.013-.013c.012-.013.012-.026.025-.039 0 0 0-.013.013-.013l.013-.013c0-.013.013-.013.013-.026.04-.051.078-.103.104-.155.051-.065-.013-.142-.078-.116-.18.077-.297.168-.323.18a.214.214 0 0 1-.31-.038.214.214 0 0 1 .038-.31c.117-.09.712-.518 1.423-.324.517.143.776.543.879.686.078.116.336.478.323.995 0 .375-.155.66-.452 1.164Z" fill="#fff"/>
        <path d="M9.192 6.861c-.039.09-.077.194-.13.31a7.466 7.466 0 0 1-.296.699 3.86 3.86 0 0 1-.246.414c-.078.116-.13.207-.181.336a1.4 1.4 0 0 0-.039.737c-.142-.013-.362-.103-.388-.233-.013-.09.039-.18.194-.452.026-.052.065-.117.103-.168a4.65 4.65 0 0 0 .466-1.074c.09-.271.13-.388.272-.491.09-.039.168-.065.245-.078ZM8.92 16.637c-.155.31-.336.595-.452.738-.104-.26-.272-.867-.22-1.345v-.04a.818.818 0 0 1 .13-.4c.051-.078.18-.116.323-.116.103 0 .22.025.323.077.052.026.13.09.13.259.025.233-.091.543-.234.827Z" fill="#fff"/>
        <path d="M17.196 13.185c.012.013.012.026.012.039-.038.09-.103.155-.168.232-.077.091-.168.194-.245.363-.117.232-.155.44-.168.982-.026.634 0 .983.026 1.242.012.245.025.4-.013.646-.091.492-.298.815-.57 1.229-.336.517-.672 1.047-1.24 1.215-.053.013-.053.013-.208.013-.129 0-.349 0-.75.013-.75.026-1.125.039-1.435.104-.336.064-.504.142-.685.206a3.31 3.31 0 0 1-.57.181c-.168.04-.413.065-1.254.078-.879 0-1.41 0-2.094-.078-.957-.103-1.436-.168-1.76-.336-.75-.4-1.072-1.125-1.59-2.314 0-.013.013-.026.026-.026l.078.038c.026.013.052.013.064.013a.316.316 0 0 0 .156 0c.013 0 .013 0 .026-.012.012 0 .025 0 .025.012a.43.43 0 0 0 .181.22c.09.052.194.052.285.052.103 0 .207-.013.31-.026a.16.16 0 0 1 .13.065c.09.233.206.388.387.414h.04a.337.337 0 0 0 .18-.065c.065-.052.168-.013.22.052.039.064.09.103.142.142.181.18.621.271.983.271.194 0 .375-.025.479-.077.155-.078.155-.181.142-.233l-.039-.246c0-.013.013-.013.013 0 .026.052.052.104.116.117h.026c.104 0 .259.039.285.13.013.05.038.09.064.141.065.09.181.207.427.22h.013c.284 0 .504-.09.647-.271.012-.013.012-.026.025-.04.052-.077.207-.077.272-.012a.417.417 0 0 0 .272.103h.051a.456.456 0 0 0 .324-.194.863.863 0 0 0 .116-.271c.013-.026.052-.039.078-.013a.378.378 0 0 0 .271.103c.026 0 .065 0 .104-.013.245-.051.374-.258.426-.478 0-.013.013-.013.013 0a.468.468 0 0 0 .375.168h.026a.337.337 0 0 0 .259-.13c.077-.103.103-.258.116-.4 0-.039.026-.078.078-.104.207-.09.465-.284.543-.413 0 0 0-.013.013-.013.012-.04.051-.065.077-.065.168-.026.233-.065.298-.09a.757.757 0 0 1 .22-.065c.943-.142 1.124-.181 1.331-.31.31-.207.324-.492.336-.763.014-.233.026-.492.207-.802.065-.117.143-.246.22-.401.143-.259.336-.62.479-.815a.084.084 0 0 1 .116-.026c.323.117.608.246.66.298Z" fill="#fff"/>
        <path d="M8.016 16.003a6.263 6.263 0 0 0-.013 1.332c.013.155.039.324.064.492-.038.026-.18.064-.413.051-.337-.012-.673-.09-.776-.206l-.013-.013c-.078-.065-.142-.117-.142-.233 0-.039.013-.078.051-.142a.45.45 0 0 0 .078-.117c.052-.077.13-.168.207-.297.22-.362.297-.479.4-.62.014-.014.014-.027.027-.04.064-.077.129-.18.245-.349.078-.116.143-.22.207-.297.09-.13.155-.194.194-.233 0 .052-.013.13-.026.207a1.855 1.855 0 0 0-.09.465ZM7.848 10.909c0 .013 0 .013 0 0a1.448 1.448 0 0 0-.168.271c-.168.362-.168.57-.168.737 0 .09 0 .155-.026.233a.692.692 0 0 1-.078.181c-.09.22-.22.504-.168.892a.808.808 0 0 1-.22-.168c0-.026-.012-.039-.012-.064a.554.554 0 0 1 .025-.375c.207-.466.233-.582.246-.712 0-.025.013-.051.013-.09.039-.181.065-.336.078-.466.025-.194.051-.323.116-.414.026-.038.09-.051.181-.051.039 0 .078 0 .13.013h.012l.039.013ZM7.589 15.525a1.057 1.057 0 0 0-.078-.336s-.013-.026-.013-.039c-.013-.013-.013-.026-.026-.039L7.46 15.1c-.013-.013-.013-.013-.026-.013l-.013-.013c-.013 0-.013-.013-.026-.013h-.013c-.065-.026-.13-.052-.207-.065H7.11c-.013 0-.025.013-.051.013-.013 0-.013.013-.026.013l-.013.013-.026.026-.013.013v.013l-.078.116c-.064.09-.129.194-.193.284-.065.091-.117.169-.182.26-.038.05-.064.09-.103.141 0 .013-.013.013-.013.026.039.013.078.013.116.026.091.013.182.026.26.039.18.026.374.039.555.026h.026c.039-.065.103-.143.168-.246.039-.052.078-.103.104-.155-.04-.013-.052-.052-.052-.078ZM6.93 16.288c-.013.142-.169.505-.414.854-.207.284-.337.362-.362.362-.104-.013-.194-.259-.272-.505-.026-.103-.065-.194-.078-.284a1.92 1.92 0 0 1-.051-.595c.207.116.569.142 1.086.142.026.013.065.013.09.026ZM6.567 15.125c-.09.142-.181.272-.272.4-.052.066-.09.13-.142.195-.026.039-.065.077-.09.116-.078-.013-.143-.039-.22-.052-.065-.012-.117-.038-.181-.064-.013 0-.026-.013-.04-.013-.012-.013-.025-.039-.038-.052.026-.039.039-.09.065-.13.038-.077.077-.154.129-.232.078-.13.168-.271.31-.362.013 0 .013-.013.026-.013a.647.647 0 0 1 .168-.064h.104c.013 0 .026.012.051.012 0 0 .013 0 .013.013.013.013.026.013.04.026-.027-.013.025.039.025.026.026.078.039.117.052.194ZM5.868 14.75c-.168.129-.284.31-.375.504l-.155.31c0 .013-.013.026-.013.026-.052-.013-.103-.026-.142-.039-.052-.013-.104-.039-.155-.052-.026-.013-.04-.025-.065-.038.052-.09.103-.181.168-.272.078-.116.168-.246.259-.349.038-.039.077-.09.116-.116a.246.246 0 0 1 .168-.013c.065 0 .13 0 .181.025-.013 0 0 .013.013.013ZM5.61 16.948l-.026.026H5.57c-.04 0-.078.013-.117.013-.077 0-.155.013-.233 0a.147.147 0 0 1-.103-.039c-.026-.038-.039-.116-.052-.168a3.147 3.147 0 0 1-.026-.853c.143.052.298.09.453.116-.039.259.026.634.052.737.039.052.051.117.064.168ZM5.144 14.66c-.13.155-.245.323-.349.504-.039.064-.09.142-.13.22a.479.479 0 0 1-.141-.065.725.725 0 0 1-.104-.078c-.013-.013-.039-.025-.052-.038 0 0-.013 0-.013-.013.013-.04.04-.065.04-.09a.697.697 0 0 1 .09-.169c.064-.103.13-.207.207-.31.026-.04.051-.078.103-.09.039-.014.09 0 .13 0a.432.432 0 0 1 .22.128ZM4.15 15.345c.012-.013 0-.013 0 0 .05.051.09.09.141.129.026.013.04.039.065.052v.013c-.052.22-.09.452-.09.685 0 .013-.013.013-.013 0-.065-.272-.143-.711-.104-.88ZM4.783 15.823a2.925 2.925 0 0 0-.026.582c0 .104.013.207.026.323H4.68l-.052-.026c-.026-.012-.052-.051-.078-.09a.59.59 0 0 1-.064-.297c-.013-.194.013-.401.052-.595.025.013.064.026.103.038.052.026.09.052.142.065Z" fill="#fff"/>
        <mask id="c" style="mask-type:luminance" maskUnits="userSpaceOnUse" x="-1" y="0" width="25" height="25">
            <path d="M23.996 12.501c0-6.634-5.38-12-12-12-6.634 0-12 5.366-12 12 0 6.62 5.366 12 12 12 6.62 0 12-5.38 12-12Z" fill="#fff"/>
        </mask>
        <g opacity=".8" stroke-miterlimit="10" mask="url(#c)">
            <path opacity=".8" d="M9.875 25.911c-.88 0-1.707-.052-2.405-.103l-.194-.013-.194-.026c-.09-.013-.194-.026-.31-.039-.673-.077-1.927-.207-3.31-.853l-.22-.104-.195-.116c-2.663-1.5-3.646-3.737-4.19-4.94-.038-.077-.077-.168-.116-.258a9.91 9.91 0 0 1-.581-1.513l-.026-.104-.026-.103c-.388-1.37-.479-2.548-.31-3.724.18-1.177.607-2.237 1.37-3.362l.388-.634c.078-.13.13-.272.168-.414.298-1.474.97-2.521 1.306-3.026.09-.607.246-1.202.453-1.784l.026-.09.038-.091c0-.013.013-.039.026-.078.155-.452.505-1.5 1.397-2.612l.336-.388.35-.31A7.908 7.908 0 0 1 6.732-.507a8.355 8.355 0 0 1 1.965-.349h.155c.117 0 .233-.013.337-.013.414 0 .827.039 1.241.104.259.038.517.012.763-.091a8.744 8.744 0 0 1 2.211-.595c.065-.013.117-.013.168-.026.117-.013.31-.038.543-.064.401-.04 1.022-.09 1.681-.09 1.306 0 2.431.167 3.44.516l.09.026.078.026c2.224.84 3.35 2.017 4.164 3.039l.039.052.116.103a7.847 7.847 0 0 1 1.85 2.07l.154.245.13.258c1.086 2.212.737 4.268.608 5.03l-.013.04a9.327 9.327 0 0 1-.44 1.667 8.736 8.736 0 0 1-.362 1.526 8.9 8.9 0 0 1-1.254 2.47c-.31.44-.673.867-1.06 1.242a.83.83 0 0 0-.26.504c-.012.116-.038.233-.051.349a9.373 9.373 0 0 1-1.37 3.375l-.919 1.319c-1.112 1.384-2.43 2.289-4.021 2.78l-.388.116-.414.078c-.479.09-.957.13-1.448.13h-.401a1.99 1.99 0 0 0-.543.09c-1.06.336-2.225.491-3.647.491Z" stroke="url(#d)" stroke-width=".136"/>
            <path opacity=".8" d="M9.876 24.993c-.84 0-1.655-.052-2.328-.103l-.155-.013-.155-.026a24.12 24.12 0 0 0-.336-.039c-.66-.065-1.746-.194-2.961-.763l-.181-.09-.169-.091C1.225 22.562.36 20.609-.159 19.446c-.038-.078-.077-.181-.129-.272a8.923 8.923 0 0 1-.53-1.37l-.026-.091-.026-.078c-.336-1.228-.427-2.263-.271-3.284.155-1.009.543-1.953 1.215-2.936l.504-.814c.091-.143.156-.31.182-.479.245-1.396.905-2.379 1.202-2.832l.039-.051.013-.026c0-.013.013-.026.013-.039.013-.065.039-.116.051-.168.078-.569.22-1.138.414-1.681l.026-.078.026-.077c.013-.026.013-.052.039-.13.142-.426.44-1.319 1.215-2.275l.285-.337.284-.258A6.738 6.738 0 0 1 7.031.67 7.154 7.154 0 0 1 8.764.372h.129c.104 0 .194-.013.285-.013.426 0 .84-.116 1.254-.038.323.064.646.025.944-.104.556-.246 1.306-.336 2.16-.452.064-.013.116-.013.155-.026.116-.013.297-.04.504-.052.375-.039.957-.078 1.59-.078 1.19 0 2.199.156 3.09.453l.078.026.065.026c1.966.75 2.935 1.732 3.698 2.702.04.052.09.104.104.13l.013.013.142.129.013.026a6.685 6.685 0 0 1 1.642 1.823l.13.207.103.22c.931 1.9.646 3.646.517 4.383l-.013.04a8.376 8.376 0 0 1-.426 1.577 7.858 7.858 0 0 1-.337 1.448 8.3 8.3 0 0 1-1.112 2.185 7.516 7.516 0 0 1-1.125 1.268 1.07 1.07 0 0 0-.349.685c-.026.194-.052.375-.077.569a8.05 8.05 0 0 1-1.242 3.013l-.75 1.086c-.996 1.28-2.172 2.108-3.595 2.547l-.323.104-.35.065a5.87 5.87 0 0 1-1.253.103H13.846a2.297 2.297 0 0 0-.582.103c-.944.31-2.043.453-3.388.453Z" stroke="url(#e)" stroke-width=".136"/>
            <path opacity=".8" d="M9.875 23.92c-.801 0-1.59-.052-2.25-.104l-.129-.013-.13-.013c-.116-.013-.245-.025-.374-.038-.621-.065-1.565-.168-2.625-.673l-.143-.064-.129-.078c-2.03-1.138-2.78-2.819-3.271-3.931l-.13-.297a7.57 7.57 0 0 1-.478-1.242l-.026-.065-.013-.064c-.297-1.06-.375-1.966-.246-2.82.13-.866.479-1.68 1.074-2.547l.077-.103.078-.104c.051-.064.09-.129.142-.18l.297-.557c.104-.18.169-.375.194-.582.194-1.24.79-2.133 1.06-2.547.014-.026.04-.052.052-.065l.065-.09c.026-.052.052-.116.078-.194.026-.078.064-.194.09-.297.065-.53.194-1.048.375-1.552l.026-.065.026-.064c.013-.052.039-.091.065-.181.129-.401.375-1.138 1.034-1.94l.22-.272.233-.207a5.878 5.878 0 0 1 2.263-1.28 6.508 6.508 0 0 1 1.5-.258h.349c.44 0 .866.051 1.293.168.362.09.75.051 1.086-.117.543-.258 1.267-.543 2.108-.646.052-.013.103-.013.142-.026.103-.013.272-.039.478-.052.35-.039.906-.077 1.488-.077 1.06 0 1.952.129 2.74.4l.053.026.051.026c1.81.686 2.613 1.578 3.233 2.367.142.168.155.194.246.284l.116.104.039.051c.297.233.905.711 1.435 1.578l.104.168.09.168c.79 1.59.543 3.039.427 3.737l-.013.039a6.096 6.096 0 0 1-.427 1.487v.039a6.627 6.627 0 0 1-.297 1.332 6.606 6.606 0 0 1-.97 1.9 6.51 6.51 0 0 1-1.254 1.345.977.977 0 0 0-.272.336c-.064.13-.103.272-.116.414a6.404 6.404 0 0 1-.104.854c-.245 1.306-.814 2.211-1.099 2.664l-.582.853c-.866 1.164-1.9 1.914-3.155 2.302l-.258.077-.285.052a5.92 5.92 0 0 1-1.073.09h-.479l-.297.014a1.947 1.947 0 0 0-.608.116c-.892.284-1.914.414-3.194.414Z" stroke="url(#f)" stroke-width=".128"/>
            <path opacity=".8" d="M9.875 22.847c-.762 0-1.525-.052-2.159-.104l-.09-.013-.091-.013c-.13-.013-.272-.038-.4-.051-.583-.065-1.385-.156-2.29-.57l-.103-.051-.104-.052c-1.72-.97-2.353-2.392-2.819-3.426a3.528 3.528 0 0 1-.142-.324 8.211 8.211 0 0 1-.427-1.099l-.012-.052-.04-.038c-.504-1.785-.31-3.04.673-4.475l.052-.077.052-.078c.064-.077.129-.168.194-.245.09-.117.18-.246.284-.363.065-.077.116-.168.155-.258l.117-.285c.051-.129.077-.258.09-.388.104-1.15.66-1.978.931-2.392.026-.026.052-.077.065-.09l.064-.104.026-.026c.04-.064.104-.22.155-.375.026-.103.078-.271.13-.413v-.013c.052-.479.168-.957.336-1.41l.013-.039.013-.038c.026-.078.052-.143.077-.233.117-.35.31-.944.841-1.604l.168-.207.168-.155C7.056 2.648 8.453 2.558 8.92 2.52h.271c.556 0 1.1.116 1.617.336.09.04.194.052.284.052a.554.554 0 0 0 .285-.078c.478-.271 1.344-.775 2.456-.905.052-.013.104-.013.143-.013.103-.013.258-.026.44-.051.336-.026.84-.065 1.383-.065.944 0 1.72.116 2.38.336l.038.013.039.013c1.552.582 2.211 1.319 2.767 2.017.142.194.22.272.375.427l.09.078.065.077.052.039c.259.207.75.582 1.19 1.293l.077.13.065.129c.633 1.293.427 2.457.323 3.077v.039a6.037 6.037 0 0 1-.388 1.332l-.013.039c0 .013 0 .013-.013.039-.013.038-.013.077-.013.116l-.013.052c-.038.387-.129.762-.258 1.125a5.795 5.795 0 0 1-.828 1.616c-.349.504-.75.918-1.19 1.241-.193.143-.349.324-.465.543-.116.22-.168.453-.168.699 0 .297-.039.607-.09.905-.207 1.112-.673 1.862-.97 2.315l-.427.633c-.75 1.048-1.642 1.72-2.716 2.056l-.051.013c-.09.026-.181.052-.272.065l-.065.013a5.19 5.19 0 0 1-.892.077h-.504c-.142 0-.323.013-.479.013-.22.013-.426.052-.633.13-.776.232-1.72.362-2.936.362Z" stroke="url(#g)" stroke-width=".119"/>
            <path opacity=".8" d="M9.876 21.774c-.737 0-1.461-.052-2.082-.104h-.065l-.064-.013c-.143-.026-.298-.039-.44-.052-.543-.064-1.215-.129-1.94-.478l-.077-.039-.065-.039c-1.41-.788-1.94-1.978-2.353-2.935-.052-.116-.104-.233-.155-.362a6.587 6.587 0 0 1-.375-.957l-.013-.039-.013-.038c-.414-1.475-.272-2.406.53-3.57l.039-.051.038-.052c.065-.09.13-.168.194-.258.207-.272.414-.544.712-.867a.475.475 0 0 0 .116-.258l.013-.298-.013-.116v-.117c.026-.957.504-1.668.763-2.056.026-.038.065-.09.078-.116l.038-.065.04-.051c.05-.078.167-.35.27-.595.04-.104.091-.31.156-.479.013-.051.013-.064.026-.18.038-.402.142-.803.271-1.178l.013-.025.013-.026.104-.285c.103-.31.258-.763.659-1.267l.116-.142.117-.104c.88-.788 1.823-.944 2.47-.982h.194c.543 0 1.202.258 1.551.426a.589.589 0 0 0 .259.065c.09 0 .181-.013.272-.039a4.5 4.5 0 0 0 .62-.271c.44-.259 1.164-.673 2.07-.776.05-.013.09-.013.129-.013.09-.013.232-.026.413-.052.31-.026.776-.065 1.28-.065.815 0 1.488.091 2.03.285l.026.013.026.013c1.293.491 1.81 1.047 2.302 1.68.155.208.272.35.504.557l.052.052.052.051c.051.052.103.09.155.13.22.168.595.465.918 1.008l.052.078.039.09c.478.97.323 1.888.232 2.431v.04a4.57 4.57 0 0 1-.323 1.085c-.039.09-.065.181-.09.285-.013.064-.026.13-.026.18l-.013.053a4.963 4.963 0 0 1-.88 2.25c-.44.62-.944 1.06-1.551 1.345a.836.836 0 0 0-.362.31.947.947 0 0 0-.155.452v.156c.025.465.064.995-.04 1.551-.167.905-.555 1.513-.84 1.966 0 0-1.319 1.836-2.521 2.211l-.13.039-.142.026a4.277 4.277 0 0 1-.711.064h-.246c-.052 0-.13 0-.245.013h-.052c-.466.013-.893.026-1.022.052-.064.013-.13.026-.194.052-.633.271-1.526.4-2.754.4Z" stroke="url(#h)" stroke-width=".111"/>
            <path opacity=".8" d="M9.874 20.713c-.698 0-1.396-.052-1.991-.09H7.83c-.168-.026-.323-.04-.465-.052-.505-.052-1.035-.117-1.604-.375l-.039-.013-.038-.013c-1.1-.62-1.513-1.539-1.901-2.431a5.215 5.215 0 0 0-.181-.388 4.793 4.793 0 0 1-.31-.815v-.026c-.337-1.176-.246-1.771.374-2.676l.013-.026.013-.026c.078-.09.142-.181.207-.259a8.814 8.814 0 0 1 1.138-1.267.31.31 0 0 0 .09-.155.252.252 0 0 0-.012-.168l-.104-.298a1.077 1.077 0 0 1-.039-.284V11.209c.026-.647.362-1.151.582-1.487.04-.052.065-.104.09-.143l.027-.038.026-.04c.116-.154.31-.607.413-.879.026-.09.09-.31.155-.478.04-.13.065-.259.078-.388a3.86 3.86 0 0 1 .22-.944v-.026c.052-.13.09-.233.116-.336.09-.272.194-.582.479-.931l.051-.065.052-.051c.62-.57 1.306-.673 1.823-.712H9.201c.518 0 .906.207 1.165.35l.064.025h.013c.078.04.13.078.194.104.155.077.35.103.517.052.363-.09.918-.31 1.28-.518h.014c.387-.232.982-.569 1.68-.646.04-.013.091-.013.13-.013.078-.013.22-.026.375-.039.284-.026.724-.065 1.177-.065.698 0 1.254.078 1.68.22H17.517c1.035.388 1.423.802 1.837 1.345.168.22.336.427.646.698l.026.026.026.026c.078.078.168.155.272.233.18.142.44.336.659.711l.026.039.026.039c.323.672.22 1.306.142 1.784v.039c-.052.297-.13.582-.259.866a2.141 2.141 0 0 0-.142.492 3.3 3.3 0 0 1-.039.245l-.013.052a3.326 3.326 0 0 1-.155.711 3.635 3.635 0 0 1-.53 1.048c-.388.569-.828.918-1.41 1.099-.284.09-.517.271-.672.517l-.052.065-.051.064c-.143.168-.104.815-.078 1.203.026.427.052.866-.026 1.28-.129.711-.44 1.19-.71 1.604 0 0-1.01 1.46-1.928 1.732l-.064.026-.065.013c-.168.026-.35.052-.53.052h-.259c-.064 0-.155 0-.31.013h-.026c-.608.026-.983.039-1.19.077a2.037 2.037 0 0 0-.4.117c-.556.22-1.306.336-2.393.336Z" stroke="url(#i)" stroke-width=".111"/>
        </g>
    </g>
    <defs>
        <linearGradient id="d" x1="-1.685" y1="-2.196" x2="25.81" y2="26.661" gradientUnits="userSpaceOnUse">
            <stop offset=".206" stop-color="#89D0FF"/>
            <stop offset=".398" stop-color="#EBBF9A"/>
            <stop offset=".602" stop-color="#EB8280"/>
            <stop offset=".841" stop-color="#A281FF"/>
        </linearGradient>
        <linearGradient id="e" x1="-.618" y1="-.955" x2="24.73" y2="25.758" gradientUnits="userSpaceOnUse">
            <stop offset=".206" stop-color="#89D0FF"/>
            <stop offset=".398" stop-color="#EBBF9A"/>
            <stop offset=".602" stop-color="#EB80DA"/>
            <stop offset=".841" stop-color="#A281FF"/>
        </linearGradient>
        <linearGradient id="f" x1=".458" y1=".119" x2="23.658" y2="24.685" gradientUnits="userSpaceOnUse">
            <stop offset=".206" stop-color="#89D0FF"/>
            <stop offset=".398" stop-color="#EBBF9A"/>
            <stop offset=".602" stop-color="#EB8280"/>
            <stop offset=".841" stop-color="#A281FF"/>
        </linearGradient>
        <linearGradient id="g" x1="1.534" y1="1.196" x2="22.58" y2="23.61" gradientUnits="userSpaceOnUse">
            <stop offset=".206" stop-color="#89D0FF"/>
            <stop offset=".398" stop-color="#EBBF9A"/>
            <stop offset=".602" stop-color="#EB80E7"/>
            <stop offset=".841" stop-color="#A281FF"/>
        </linearGradient>
        <linearGradient id="h" x1="2.604" y1="2.276" x2="21.501" y2="22.536" gradientUnits="userSpaceOnUse">
            <stop offset=".206" stop-color="#89D0FF"/>
            <stop offset=".398" stop-color="#EBBF9A"/>
            <stop offset=".602" stop-color="#EB80D3"/>
            <stop offset=".841" stop-color="#A281FF"/>
        </linearGradient>
        <linearGradient id="i" x1="3.685" y1="3.342" x2="20.432" y2="21.456" gradientUnits="userSpaceOnUse">
            <stop offset=".206" stop-color="#89D0FF"/>
            <stop offset=".398" stop-color="#EBBF9A"/>
            <stop offset=".602" stop-color="#A280EB"/>
            <stop offset=".841" stop-color="#A281FF"/>
        </linearGradient>
        <radialGradient id="b" cx="0" cy="0" r="1" gradientUnits="userSpaceOnUse" gradientTransform="rotate(90 -.878 12.876) scale(13.48)">
            <stop offset=".167" stop-color="#073183"/>
            <stop offset="1" stop-color="#0054F9"/>
        </radialGradient>
        <clipPath id="a">
            <path fill="#fff" d="M0 .5h24v24H0z"/>
        </clipPath>
    </defs>
</svg>
