<svg width="25" height="25" fill="none" xmlns="http://www.w3.org/2000/svg">
    <g clip-path="url(#a)">
        <rect x=".65" y=".552" width="24" height="24.095" rx="12" fill="#fff"/>
        <path d="M19.238 8.614h-2.124a.866.866 0 0 1-.646-.29l-.86-.972a.677.677 0 0 0-.507-.23.677.677 0 0 0-.505.23l-.741.836c-.24.27-.591.431-.952.431H1.281c-.33.936-.545 1.933-.63 2.97h10.97c.196 0 .376-.08.511-.22l1.022-1.067a.667.667 0 0 1 .485-.21h.04c.196 0 .376.084.506.23l.861.971c.166.185.401.29.646.29h8.953a11.96 11.96 0 0 0-.63-2.974l-4.777.005ZM7.29 17.837c.196 0 .376-.08.512-.22l1.021-1.066a.678.678 0 0 1 .49-.21h.04c.196 0 .381.084.507.225l.86.971c.166.185.401.29.647.29h12.137c.456-.94.787-1.947.987-3.004H12.839a.866.866 0 0 1-.646-.29l-.861-.962a.682.682 0 0 0-1.011 0l-.742.837c-.24.275-.59.43-.956.43H.816c.2 1.057.531 2.063.987 3.005l5.488-.006ZM15.898 5.364c.196 0 .376-.08.511-.22l1.021-1.067a.67.67 0 0 1 .491-.21h.04c.196 0 .376.085.506.23l.861.977c.166.185.4.29.646.29h2.309a12.018 12.018 0 0 0-9.63-4.812A12.028 12.028 0 0 0 3.02 5.364h12.878ZM11.267 20.817H8.112a.866.866 0 0 1-.646-.29l-.861-.972a.682.682 0 0 0-1.011 0l-.742.836c-.24.276-.59.43-.956.43h-.05a12.017 12.017 0 0 0 8.808 3.831c3.48 0 6.604-1.477 8.807-3.83l-10.194-.005Z" fill="#000"/>
    </g>
    <defs>
        <clipPath id="a">
            <rect x=".65" y=".552" width="24" height="24.095" rx="12" fill="#fff"/>
        </clipPath>
    </defs>
</svg>
