<svg width="24" height="24" fill="none" xmlns="http://www.w3.org/2000/svg">
    <g clip-path="url(#a)">
        <path d="M23.638 14.903c-1.602 6.428-8.114 10.34-14.543 8.738C2.668 22.038-1.244 15.527.359 9.098 1.961 2.67 8.473-1.244 14.9.36c6.43 1.603 10.342 8.115 8.74 14.544Z" fill="#F7931A"/>
        <path d="M17.31 10.29c.24-1.597-.976-2.455-2.639-3.028l.54-2.163-1.317-.328-.525 2.106a54.647 54.647 0 0 0-1.055-.248l.528-2.12-1.316-.328-.54 2.162c-.286-.065-.567-.13-.84-.197l.002-.007-1.816-.454-.35 1.407s.976.224.956.237c.533.134.63.487.613.766l-.614 2.465c.037.009.084.022.137.044l-.14-.035-.86 3.452c-.066.162-.231.406-.604.313.013.02-.957-.239-.957-.239l-.654 1.508 1.714.427c.319.08.631.163.939.242l-.545 2.188 1.315.328.54-2.165c.36.098.708.188 1.05.273l-.539 2.154 1.317.328.545-2.183c2.245.425 3.934.253 4.645-1.778.572-1.635-.029-2.578-1.21-3.193.86-.199 1.508-.764 1.681-1.934Zm-3.008 4.22c-.407 1.634-3.16.75-4.053.529l.723-2.899c.893.223 3.755.664 3.33 2.37Zm.407-4.243c-.371 1.487-2.662.731-3.406.546l.656-2.629c.743.185 3.137.531 2.75 2.083Z" fill="#fff"/>
    </g>
    <defs>
        <clipPath id="a">
            <path fill="#fff" d="M0 0h24v24H0z"/>
        </clipPath>
    </defs>
</svg>
