<svg width="24" height="24" viewBox="0 0 24 24" fill="none" xmlns="http://www.w3.org/2000/svg">
<rect width="24" height="24" rx="12" fill="#A36EFD"/>
<g clip-path="url(#clip0_6126_5623)">
<path d="M7.0667 13.3995L7.12426 14.4426C7.12786 14.5128 7.15483 14.5811 7.1998 14.6351C7.51455 15.0146 8.92102 16.3419 12.0937 16.3419C15.2663 16.3419 16.6566 15.0326 16.9822 14.6423C17.0307 14.5829 17.0595 14.511 17.0649 14.4336L17.1225 13.4013C17.5002 13.1944 17.8904 12.9606 17.8904 12.9606C18.5038 12.6279 19.1872 13.1063 19.189 13.8059C19.1908 14.9372 18.3059 16.1009 17.1135 16.8347C15.7681 17.662 13.7609 18.0038 12.0973 18.0038C10.4336 18.0038 8.42642 17.6602 7.08109 16.8347C5.88505 16.0973 5.00016 14.9354 5.00196 13.8023C5.00375 13.1027 5.68721 12.6261 6.30052 12.957C6.30052 12.9588 6.68901 13.1926 7.0667 13.3995Z" fill="#4C2897"/>
<path d="M12.0916 6C14.6851 6 15.3883 6.06115 16.4423 6.18165C16.9279 6.23741 17.3182 6.59892 17.2822 7.08993L16.8937 12.3813C16.7714 12.4173 16.6401 12.4604 16.4908 12.5108C15.7121 12.7716 14.4908 13.1817 12.0916 13.1817C9.69227 13.1817 8.47285 12.7716 7.69407 12.5108C7.54479 12.4604 7.4117 12.4155 7.29119 12.3813L6.9027 7.08993C6.86673 6.60072 7.25522 6.23022 7.74263 6.18165C8.7822 6.08094 9.86673 6 12.0916 6ZM7.47644 14.9155L7.47824 14.9335L7.50522 14.9388C7.49443 14.9317 7.48544 14.9245 7.47644 14.9155ZM16.6833 14.9406L16.7067 14.9353L16.7085 14.9191C16.6995 14.9245 16.6905 14.9317 16.6833 14.9406Z" fill="#4C2897"/>
</g>
<defs>
<clipPath id="clip0_6126_5623">
<rect width="14.1817" height="12" fill="white" transform="translate(5 6)"/>
</clipPath>
</defs>
</svg>
