<svg width="24" height="24" fill="none" xmlns="http://www.w3.org/2000/svg">
    <g clip-path="url(#a)">
        <path d="M12 24c6.627 0 12-5.373 12-12S18.627 0 12 0 0 5.373 0 12s5.373 12 12 12Z" fill="#FF0420"/>
        <path d="M8.5 15.187c-.715 0-1.3-.168-1.757-.504-.451-.34-.677-.83-.677-1.459 0-.134.015-.293.044-.485.076-.432.187-.95.33-1.56.409-1.651 1.465-2.477 3.164-2.477.46 0 .878.077 1.243.236.365.148.653.379.864.686.211.302.317.662.317 1.08 0 .125-.014.283-.043.475a19.478 19.478 0 0 1-.327 1.56c-.21.821-.57 1.44-1.09 1.848-.513.403-1.204.6-2.068.6Zm.13-1.296c.336 0 .619-.1.854-.297.24-.197.413-.5.514-.912.139-.567.244-1.056.316-1.479.024-.125.039-.254.039-.389 0-.547-.283-.82-.855-.82-.336 0-.624.1-.864.297-.235.197-.403.5-.504.912-.11.403-.216.893-.326 1.479-.024.12-.038.244-.038.379-.005.557.288.83.864.83ZM12.446 15.1c-.067 0-.115-.018-.154-.062-.029-.048-.038-.1-.029-.163l1.244-5.856a.24.24 0 0 1 .1-.163.264.264 0 0 1 .173-.062h2.395c.668 0 1.2.139 1.604.412.408.279.614.677.614 1.2 0 .15-.02.308-.053.47-.149.692-.451 1.2-.912 1.532-.451.331-1.07.494-1.857.494h-1.215l-.413 1.973a.258.258 0 0 1-.1.163.264.264 0 0 1-.173.063h-1.224Zm3.187-3.44c.254 0 .47-.068.658-.207a.987.987 0 0 0 .379-.595c.019-.101.029-.192.029-.27 0-.172-.053-.306-.154-.398-.1-.096-.278-.144-.523-.144h-1.08L14.6 11.66h1.032Z" fill="#fff"/>
    </g>
    <defs>
        <clipPath id="a">
            <path fill="#fff" d="M0 0h24v24H0z"/>
        </clipPath>
    </defs>
</svg>
