<svg width="24" height="24" fill="none" xmlns="http://www.w3.org/2000/svg">
    <g clip-path="url(#a)">
        <path d="M12 24c6.627 0 12-5.373 12-12S18.627 0 12 0 0 5.373 0 12s5.373 12 12 12Z" fill="#08C"/>
        <path fill-rule="evenodd" clip-rule="evenodd" d="M8.658 7.929h6.728c.257 0 .472.043.729.171.3.129.471.343.557.514 0 0 0 .043.043.043.128.215.214.472.214.772 0 .257-.043.514-.214.771l-4.243 7.286c-.086.171-.257.257-.472.257a.592.592 0 0 1-.471-.257L7.372 10.2c-.086-.171-.257-.386-.257-.728-.043-.3.043-.558.171-.815.129-.257.343-.471.643-.557.257-.171.557-.171.729-.171Zm2.828 1.028H8.658c-.172 0-.258 0-.3.043a.335.335 0 0 0-.172.172c-.043.042-.043.128-.043.214 0 .043.043.086.129.257l3.214 5.571V8.957Zm1.029 0v6.3l3.257-5.614c.043-.086.043-.171.043-.257s0-.172-.043-.214c-.043-.043-.043-.086-.086-.086l-.043-.043C15.557 9 15.472 9 15.343 9h-2.828v-.043Z" fill="#fff"/>
    </g>
    <defs>
        <clipPath id="a">
            <path fill="#fff" d="M0 0h24v24H0z"/>
        </clipPath>
    </defs>
</svg>
