<svg width="24" height="24" fill="none" xmlns="http://www.w3.org/2000/svg">
    <rect width="24" height="24" rx="12" fill="#50AF95"/>
    <g clip-path="url(#a)" fill-rule="evenodd" clip-rule="evenodd">
        <path d="M4.394 2.103.018 11.294a.178.178 0 0 0 .039.208l11.818 11.325a.18.18 0 0 0 .25 0l11.819-11.324a.179.179 0 0 0 .038-.208l-4.376-9.192A.176.176 0 0 0 19.444 2H4.557a.177.177 0 0 0-.163.103Z" fill="#50AF95"/>
        <path d="M13.518 12.238c-.084.007-.523.033-1.5.033-.778 0-1.33-.024-1.524-.033-3.006-.132-5.25-.655-5.25-1.282 0-.626 2.244-1.149 5.25-1.283v2.044c.196.014.759.048 1.537.048.933 0 1.4-.04 1.485-.047V9.675c2.999.133 5.238.656 5.238 1.281 0 .626-2.238 1.149-5.238 1.282h.002Zm0-2.775v-1.83h4.186V4.846H6.308v2.789h4.185v1.828c-3.402.157-5.96.83-5.96 1.638 0 .807 2.558 1.48 5.96 1.638v5.861h3.025v-5.864c3.394-.156 5.948-.829 5.948-1.636 0-.806-2.552-1.48-5.948-1.637v.001Z" fill="#fff"/>
    </g>
    <defs>
        <clipPath id="a">
            <path fill="#fff" d="M0 2h24v20.878H0z"/>
        </clipPath>
    </defs>
</svg>
