<svg width="24" height="24" viewBox="0 0 24 24" fill="none" xmlns="http://www.w3.org/2000/svg">
<circle cx="12" cy="12" r="12" fill="#0A0A0A"/>
<g clip-path="url(#clip0_6122_1027)">
<path d="M14.2755 13.2808C15.3667 12.6483 16.1002 11.4672 16.1002 10.1143V8.56234C16.1002 6.05154 14.0653 4.01562 11.5545 4.01562C9.04373 4.01562 7.00781 6.05154 7.00781 8.56234V10.2254H9.77929V10.3335C9.44283 10.4174 9.12456 10.5477 8.83256 10.7185C7.74135 11.351 7.00781 12.5321 7.00781 13.885V15.437C7.00781 17.9478 9.04272 19.9837 11.5535 19.9837C14.0643 19.9837 16.1002 17.9478 16.1002 15.437V13.7739H13.3288V13.6658C13.6652 13.5819 13.9835 13.4516 14.2755 13.2808ZM12.4416 15.9917C12.4416 16.4817 12.0446 16.8788 11.5545 16.8788C11.0645 16.8788 10.6674 16.4817 10.6674 15.9917V8.00764C10.6674 7.51761 11.0645 7.12053 11.5545 7.12053C12.0446 7.12053 12.4416 7.51761 12.4416 8.00764V15.9917Z" fill="#F2F2F2"/>
</g>
<defs>
<clipPath id="clip0_6122_1027">
<rect width="9.1018" height="16" fill="white" transform="translate(7 4)"/>
</clipPath>
</defs>
</svg>