<svg width="31" height="10" viewBox="0 0 31 10" fill="none" xmlns="http://www.w3.org/2000/svg">
<g id="Group 624978">
<g id="Vector">
<path d="M5.78427 1.12676H1.23239V4.26709H0V0H5.78427V1.12676Z" fill="#181818"/>
<path d="M6.8772e-05 7.78169V5.39385H1.23247L1.23247 8.79711H1.01499C0.36254 8.79711 6.8772e-05 8.43446 6.8772e-05 7.78169Z" fill="#181818"/>
<path d="M1.23239 4.40869V4.26709H5.78427V5.39385H2.22362C1.5864 5.39385 1.23239 5.04591 1.23239 4.40869Z" fill="#181818"/>
<path d="M1.23239 8.94442V8.80282H5.78427V9.92958H2.22362C1.5864 9.92958 1.23239 9.58164 1.23239 8.94442Z" fill="#181818"/>
</g>
<path id="Union" d="M8.13864 1.12676H11.9415V1.26836C11.9415 1.9008 12.2902 2.25426 12.9184 2.25953L12.9274 2.25953V7.67606H13.069C13.7062 7.67606 14.0541 7.32205 14.0541 6.68483V3.24475C14.0541 2.60753 13.7062 2.25352 13.069 2.25352H12.9274V2.11793C12.9274 1.48549 12.5787 1.13203 11.9504 1.12676H11.9415V0.985157C11.9415 0.34794 11.5875 0 10.9502 0H6.90625V9.92958H10.9502C11.5875 9.92958 11.9415 9.58164 11.9415 8.94442V8.80883L11.9504 8.80884C12.5787 8.80357 12.9274 8.45011 12.9274 7.81767V7.67606L12.9184 7.67606C12.2902 7.68133 11.9415 8.03479 11.9415 8.66723V8.80282H8.13864V1.12676Z" fill="#181818"/>
<g id="Union_2">
<path d="M15.7397 2.38764C16.1188 1.62921 16.6664 1.05337 17.3824 0.632023C18.0844 0.210674 18.9128 0 19.8535 0C20.9346 0 21.8472 0.294943 22.5773 0.884832C23.3074 1.47472 23.7708 2.27528 23.9673 3.28652H22.7599C22.5633 2.61236 22.2123 2.07865 21.7068 1.69944C21.1873 1.32022 20.5555 1.1236 19.8254 1.1236C19.1515 1.1236 18.5478 1.29214 18.0283 1.61517C17.5088 1.95225 17.1157 2.40169 16.8349 2.99157C16.5541 3.58146 16.4136 4.25562 16.4136 5C16.4136 5.75843 16.5541 6.41854 16.8349 7.00843C17.1157 7.59831 17.5088 8.0618 18.0283 8.38483C18.5337 8.72191 19.1234 8.8764 19.7974 8.8764C20.387 8.8764 20.9206 8.76404 21.398 8.53933C21.8753 8.31461 22.2404 7.97753 22.5071 7.55618C22.7487 7.1747 22.8866 6.72414 22.9105 6.21494V5.70422L23.061 5.70423C23.7377 5.70423 24.1073 6.07997 24.1077 6.75635C24.1077 6.7567 24.1077 6.75705 24.1077 6.7574V9.92958H23.1042L22.9705 8.35674C22.6897 8.80618 22.2825 9.18539 21.749 9.50843C21.2014 9.8455 20.5415 10 19.7833 10C18.8847 10 18.0844 9.78932 17.3824 9.36798C16.6804 8.94663 16.1328 8.37079 15.7397 7.61236C15.3466 6.85393 15.1641 5.98315 15.1641 5C15.1641 4.01685 15.3466 3.14607 15.7397 2.38764Z" fill="#181818"/>
<path d="M22.9105 5.70422L19.988 5.70423V4.57747L21.9193 4.57746C22.5565 4.57746 22.9105 4.9254 22.9105 5.56262V5.70422Z" fill="#181818"/>
</g>
<g id="Union_3">
<path d="M26.3222 0.985157V1.12676H30.8645V0H27.3135C26.6762 0 26.3222 0.34794 26.3222 0.985157Z" fill="#181818"/>
<path d="M25.0899 6.30282V2.14789C25.0899 1.49512 25.4524 1.13247 26.1048 1.13247H26.3223V4.28525H30.8645V5.40057H26.3223V6.01696H26.3222V8.80282H30.8645V9.92958H25.0898V6.30282H25.0899Z" fill="#181818"/>
</g>
</g>
</svg>
