<svg xmlns="http://www.w3.org/2000/svg" width="153" height="59" viewBox="0 0 153 59" fill="none">
  <path d="M0 1.46298H1.19247L2.64194 5.51432L4.07085 1.46298H5.24275L3.29985 6.70107H1.9429L0 1.46298Z" fill="#181818"/>
  <path d="M5.72736 2.68043C5.94323 2.2712 6.24135 1.96428 6.63199 1.73921C7.02263 1.51414 7.46466 1.4016 7.96838 1.4016C8.47209 1.4016 8.91413 1.5039 9.30476 1.70852C9.6954 1.91313 9.99352 2.20982 10.2197 2.57812C10.4458 2.95666 10.5589 3.39657 10.5692 3.89788C10.5692 4.0411 10.5589 4.1741 10.5384 4.31733H6.57031V4.37872C6.59087 4.8391 6.73479 5.19717 7.00207 5.46316C7.25906 5.72916 7.60858 5.86216 8.04034 5.86216C8.37957 5.86216 8.66741 5.79055 8.90385 5.62686C9.13001 5.46317 9.28421 5.23809 9.36645 4.9414H10.4767C10.3739 5.4734 10.1169 5.91331 9.6954 6.25092C9.27393 6.59877 8.74965 6.76246 8.12257 6.76246C7.56746 6.76246 7.09458 6.66015 6.68339 6.43508C6.27219 6.21 5.96379 5.90308 5.73764 5.49386C5.51148 5.09486 5.40868 4.62425 5.40868 4.09226C5.40868 3.56027 5.51148 3.08966 5.72736 2.68043ZM9.4384 3.50911C9.387 3.13058 9.23281 2.83389 8.97581 2.61905C8.71881 2.4042 8.40013 2.29166 8.0095 2.29166C7.63942 2.29166 7.33102 2.4042 7.06375 2.62928C6.79647 2.85435 6.65255 3.14081 6.61143 3.50911H9.4384Z" fill="#181818"/>
  <path d="M14.376 1.46298V2.49628H13.8825C13.4199 2.49628 13.091 2.64974 12.8854 2.94643C12.6798 3.24311 12.577 3.62165 12.577 4.0718V6.70107H11.4668V1.46298H12.4536L12.577 2.25074C12.7209 2.00521 12.9162 1.82105 13.1629 1.67783C13.3994 1.5346 13.7181 1.46298 14.1293 1.46298H14.376Z" fill="#181818"/>
  <path d="M15.0808 0H16.191V1.46298H17.4657V2.43489H16.191V5.16648C16.191 5.37109 16.2321 5.52455 16.3144 5.60639C16.3966 5.68824 16.5303 5.72916 16.7359 5.72916H17.5788V6.70107H16.5097C16.006 6.70107 15.6462 6.58854 15.42 6.35323C15.1939 6.12816 15.0808 5.77008 15.0808 5.27901V0Z" fill="#181818"/>
  <path d="M18.1958 2.68043C18.4116 2.2712 18.7098 1.96428 19.1004 1.73921C19.491 1.51414 19.9331 1.4016 20.4368 1.4016C20.9405 1.4016 21.3825 1.5039 21.7732 1.70852C22.1638 1.91313 22.4619 2.20982 22.6881 2.57812C22.9142 2.95666 23.0273 3.39657 23.0376 3.89788C23.0376 4.0411 23.0273 4.1741 23.0068 4.31733H19.0387V4.37872C19.0593 4.8391 19.2032 5.19717 19.4705 5.46316C19.7275 5.72916 20.077 5.86216 20.5087 5.86216C20.848 5.86216 21.1358 5.79055 21.3723 5.62686C21.5984 5.46317 21.7526 5.23809 21.8349 4.9414H22.9451C22.8423 5.4734 22.5853 5.91331 22.1638 6.25092C21.7423 6.59877 21.2181 6.76246 20.591 6.76246C20.0359 6.76246 19.563 6.66015 19.1518 6.43508C18.7406 6.21 18.4322 5.90308 18.206 5.49386C17.9799 5.09486 17.8771 4.62425 17.8771 4.09226C17.8771 3.56027 17.9799 3.08966 18.1958 2.68043ZM21.9068 3.50911C21.8554 3.13058 21.7012 2.83389 21.4442 2.61905C21.1872 2.4042 20.8685 2.29166 20.4779 2.29166C20.1078 2.29166 19.7994 2.4042 19.5322 2.62928C19.2649 2.85435 19.121 3.14081 19.0798 3.50911H21.9068Z" fill="#181818"/>
  <path d="M25.2049 4.02064L23.3442 1.46298H24.6395L25.9039 3.23288L27.1889 1.46298H28.4019L26.531 4.02064L28.515 6.70107H27.2198L25.832 4.79817L24.4339 6.70107H23.2312L25.2049 4.02064Z" fill="#181818"/>
  <path d="M28.5074 15.1586H6.07378V30.6356H0V9.60547H28.5074V15.1586Z" fill="#181818"/>
  <path d="M0.000338939 47.9571V36.1887H6.07416L6.07416 52.9615H5.00231C1.78676 52.9615 0.000338939 51.1742 0.000338939 47.9571Z" fill="#181818"/>
  <path d="M6.07378 31.3334V30.6356H28.5074V36.1887H10.959C7.8185 36.1887 6.07378 34.4739 6.07378 31.3334Z" fill="#181818"/>
  <path d="M6.07378 53.6875V52.9896H28.5074V58.5428H10.959C7.8185 58.5428 6.07378 56.828 6.07378 53.6875Z" fill="#181818"/>
  <path d="M40.1109 15.1586H58.8528V15.8565C58.8528 18.9735 60.5715 20.7155 63.6676 20.7414L63.7119 20.7414V47.4364H64.4097C67.5502 47.4364 69.265 45.6917 69.265 42.5512V25.597C69.265 22.4565 67.5502 20.7118 64.4097 20.7118H63.7119V20.0435C63.7119 16.9266 61.9932 15.1846 58.8971 15.1586H58.8528V14.4608C58.8528 11.3203 57.1081 9.60547 53.9676 9.60547H34.0371V58.5428H53.9676C57.1081 58.5428 58.8528 56.828 58.8528 53.6875V53.0193L58.8971 53.0193C61.9932 52.9933 63.7119 51.2513 63.7119 48.1344V47.4364L63.6676 47.4365C60.5715 47.4624 58.8528 49.2045 58.8528 52.3214V52.9896H40.1109L40.1109 15.1586Z" fill="#181818"/>
  <path d="M77.5793 21.3728C79.4476 17.6349 82.1462 14.7969 85.6753 12.7204C89.1351 10.6438 93.2177 9.60547 97.8539 9.60547C103.182 9.60547 107.68 11.0591 111.278 13.9663C114.876 16.8735 117.16 20.819 118.129 25.8029H112.178C111.209 22.4803 109.479 19.85 106.988 17.981C104.428 16.1121 101.314 15.143 97.7155 15.143C94.394 15.143 91.4186 15.9737 88.8583 17.5657C86.298 19.227 84.3605 21.442 82.9766 24.3493C81.5927 27.2565 80.9007 30.579 80.9007 34.2477C80.9007 37.9855 81.5927 41.2388 82.9766 44.1461C84.3605 47.0533 86.298 49.3376 88.8583 50.9296C91.3494 52.5909 94.2557 53.3523 97.5771 53.3523C100.483 53.3523 103.113 52.7985 105.466 51.691C107.818 50.5835 109.617 48.9222 110.932 46.8456C112.122 44.9655 112.802 42.745 112.92 40.2354V37.7184L113.662 37.7184C116.997 37.7184 118.819 39.5702 118.82 42.9037C118.82 42.9055 118.82 42.9072 118.82 42.9089V58.5428H113.875L113.216 50.7912C111.832 53.0062 109.825 54.8751 107.195 56.4672C104.497 58.1284 101.245 58.8899 97.5079 58.8899C93.0793 58.8899 89.1351 57.8516 85.6753 55.775C82.2154 53.6984 79.5168 50.8604 77.5793 47.1225C75.6417 43.3847 74.7422 39.093 74.7422 34.2477C74.7422 29.4023 75.6417 25.1107 77.5793 21.3728Z" fill="#181818"/>
  <path d="M112.92 37.7184L98.5167 37.7184V32.1652L108.035 32.1652C111.176 32.1652 112.92 33.88 112.92 37.0205V37.7184Z" fill="#181818"/>
  <path d="M129.732 14.4608V15.1586H152.118V9.60547H134.617C131.477 9.60547 129.732 11.3203 129.732 14.4608Z" fill="#181818"/>
  <path d="M123.659 40.6685V20.1912C123.659 16.9741 125.445 15.1868 128.661 15.1868H129.732V30.7251H152.118V36.2219H129.732V39.2597H129.732V52.9896H152.118V58.5428H123.658V40.6685H123.659Z" fill="#181818"/>
</svg>