<?xml version="1.0" standalone="no"?>
<!DOCTYPE svg PUBLIC "-//W3C//DTD SVG 20010904//EN"
 "http://www.w3.org/TR/2001/REC-SVG-20010904/DTD/svg10.dtd">
<svg version="1.0" xmlns="http://www.w3.org/2000/svg"
 width="48.000000pt" height="48.000000pt" viewBox="0 0 48.000000 48.000000"
 preserveAspectRatio="xMidYMid meet">

<g transform="translate(0.000000,48.000000) scale(0.100000,-0.100000)"
fill="#000000" stroke="none">
<path d="M17 462 c-15 -16 -17 -47 -17 -224 0 -186 2 -206 18 -221 16 -15 47
-17 224 -17 186 0 206 2 221 18 15 16 17 47 17 224 0 186 -2 206 -18 221 -16
15 -47 17 -224 17 -186 0 -206 -2 -221 -18z m190 -177 c24 -48 31 -55 56 -55
24 0 28 -3 22 -17 -4 -10 -10 -29 -13 -43 -7 -38 -21 -50 -56 -50 -35 0 -32
-4 -102 148 l-33 72 49 0 50 0 27 -55z m193 0 l0 -55 -50 0 c-54 0 -55 1 -39
51 17 48 28 59 60 59 28 0 29 -1 29 -55z"/>
</g>
</svg>
