<svg
  width="51"
  height="20"
  viewBox="0 0 51 20"
  fill="none"
  xmlns="http://www.w3.org/2000/svg"
>
  <g clip-path="url(#clip0_6257_8421)">
    <path d="M36.0625 15.003V2.154H38.6452V15.003H36.0625Z" fill="#F7A600" />
    <path
      d="M5.9626 18.8197H0.425781V5.97075H5.73995C8.32268 5.97075 9.82756 7.37833 9.82756 9.58011C9.82756 11.0053 8.86107 11.9264 8.1921 12.233C8.99061 12.5938 10.0127 13.4057 10.0127 15.1209C10.0127 17.5203 8.32268 18.8197 5.9626 18.8197ZM5.53553 8.2089H3.00848V11.1685H5.53553C6.63159 11.1685 7.24486 10.5729 7.24486 9.68821C7.24486 8.80453 6.63159 8.2089 5.53553 8.2089ZM5.70251 13.4244H3.00848V16.5825H5.70251C6.87343 16.5825 7.43003 15.8611 7.43003 14.9941C7.43003 14.1282 6.87239 13.4244 5.70251 13.4244Z"
      fill="white"
    />
    <path
      d="M17.8904 13.5502V18.8197H15.3259V13.5502L11.3496 5.97075H14.155L16.6263 11.1498L19.0603 5.97075H21.8656L17.8904 13.5502Z"
      fill="white"
    />
    <path
      d="M29.1872 18.8197H23.6504V5.97075H28.9646C31.5473 5.97075 33.0522 7.37833 33.0522 9.58011C33.0522 11.0053 32.0857 11.9264 31.4167 12.233C32.2152 12.5938 33.2374 13.4057 33.2374 15.1209C33.2374 17.5203 31.5473 18.8197 29.1872 18.8197ZM28.7602 8.2089H26.2331V11.1685H28.7602C29.8562 11.1685 30.4695 10.5729 30.4695 9.68821C30.4695 8.80453 29.8562 8.2089 28.7602 8.2089ZM28.9271 13.4244H26.2331V16.5825H28.9271C30.098 16.5825 30.6546 15.8611 30.6546 14.9941C30.6546 14.1282 30.098 13.4244 28.9271 13.4244Z"
      fill="white"
    />
    <path
      d="M46.9685 8.20881V18.8206H44.3858V8.20881H40.9297V5.97066H50.4246V8.20881H46.9685Z"
      fill="white"
    />
  </g>
  <defs>
    <clipPath id="clip0_6257_8421">
      <rect
        width="50"
        height="19.5402"
        fill="white"
        transform="translate(0.425781 0.429859)"
      />
    </clipPath>
  </defs>
</svg>
