<svg
  width="51"
  height="20"
  viewBox="0 0 51 20"
  fill="none"
  xmlns="http://www.w3.org/2000/svg"
>
  <g clip-path="url(#clip0_6257_8397)">
    <mask
      id="mask0_6257_8397"
      style="mask-type:luminance"
      maskUnits="userSpaceOnUse"
      x="0"
      y="0"
      width="51"
      height="20"
    >
      <path
        d="M50.2793 0.532452H0.279297V19.8658H50.2793V0.532452Z"
        fill="white"
      />
    </mask>
    <g mask="url(#mask0_6257_8397)">
      <path
        d="M8.5728 6.49814C8.63014 3.65909 7.02252 1.18519 6.18519 0.590616C6.18138 0.586787 6.1068 0.546644 6.11252 0.65753C6.11252 0.659435 6.11061 0.659435 6.11061 0.661349C6.02461 6.02404 3.26804 7.46938 1.77128 9.43471C-1.55491 13.8051 1.22071 18.7912 4.81642 19.7356C4.87766 19.7509 5.04395 19.8006 5.35938 19.8656C5.52376 19.9 5.57157 19.7604 5.45109 19.552C5.021 18.8045 4.25633 17.5427 4.10538 15.9215C3.76128 12.1571 8.50585 9.80176 8.5728 6.49814Z"
        fill="white"
      />
      <path
        d="M10.3847 8.31624C10.3561 8.2952 10.316 8.2971 10.3122 8.33339C10.2357 9.01596 9.53026 10.4307 8.60121 11.7537C5.47378 16.214 7.04902 18.2366 8.27245 19.64C8.49797 19.9 8.61073 19.8426 8.72931 19.6572C8.84016 19.4813 9.00835 19.2576 9.73102 18.9154C9.84378 18.8619 12.5736 17.4127 12.8699 14.1129C13.1547 10.9201 11.1073 8.9012 10.3847 8.31624Z"
        fill="#008CD6"
      />
      <path
        d="M26.6231 7.50379V19.2405H24.1055V14.4992H19.2672V19.2405H16.6865V7.50379H19.2672V12.2451H24.1055V7.50379H26.6231Z"
        fill="white"
      />
      <path
        d="M38.2637 7.50377V9.82472H37.0652H34.6489V19.2385H32.0587V9.82472H29.7074H28.5088V7.50377H38.2637Z"
        fill="white"
      />
      <path
        fill-rule="evenodd"
        clip-rule="evenodd"
        d="M47.4317 19.252L44.4725 15.1683L41.5363 19.2347L38.665 19.2386L43.0178 13.2469L38.9097 7.50379H41.779L50.2895 19.252H47.4317Z"
        fill="white"
      />
      <path
        d="M45.2764 10.1306L46.6967 12.1036L50.0612 7.50181H47.2071L45.2764 10.1306Z"
        fill="#008CD6"
      />
    </g>
  </g>
  <defs>
    <clipPath id="clip0_6257_8397">
      <rect
        width="50"
        height="19.3333"
        fill="white"
        transform="translate(0.275391 0.533306)"
      />
    </clipPath>
  </defs>
</svg>
