<svg
  width="69"
  height="12"
  viewBox="0 0 69 12"
  fill="none"
  xmlns="http://www.w3.org/2000/svg"
>
  <g clip-path="url(#clip0_6257_8409)">
    <path
      d="M16.3778 8.11688L12.8448 1.98293C12.0738 0.705506 10.1749 0.693998 9.4268 2.04048L5.72112 8.41609C5.03062 9.58995 5.88224 11.0515 7.27474 11.0515H14.7206C16.1132 11.063 17.1604 9.54392 16.3778 8.11688Z"
      fill="#003087"
    />
    <path
      d="M11.2794 8.60029L11.0608 8.22051C10.8536 7.86376 10.4048 7.10421 10.4048 7.10421L7.41265 1.90244C6.64159 0.751602 4.80025 0.648025 4.02919 2.10959L0.542166 8.13995C-0.182861 9.40587 0.680268 11.0516 2.24541 11.0631H9.64527H12.7985H14.6744C12.764 11.0746 12.1541 10.0733 11.2794 8.60029Z"
      fill="#1877F2"
    />
    <path
      d="M11.2783 8.57721L11.0596 8.19742C10.8525 7.84068 10.4036 7.08112 10.4036 7.08112L8.47023 3.67465L5.69671 8.41609C5.00621 9.58994 5.85782 11.0515 7.25034 11.0515H9.63256H12.7859H14.6732C12.7513 11.04 12.1529 10.0618 11.2783 8.57721Z"
      fill="url(#paint0_linear_6257_8409)"
    />
    <path
      d="M62.3734 3.65667C62.8912 3.17332 63.8003 2.94315 65.1238 2.94315H68.2196V1.18237H64.5599C63.6853 1.18237 62.9487 1.27444 62.3734 1.45858C61.8094 1.64271 61.3145 1.93042 60.8887 2.33321C60.4399 2.77053 60.0831 3.31141 59.83 3.95588C59.5768 4.61185 59.4502 5.32537 59.4502 6.07342C59.4502 6.78694 59.5768 7.47744 59.83 8.1104C60.0831 8.74336 60.4399 9.29575 60.8887 9.73307C61.303 10.1359 61.7979 10.4236 62.3503 10.6077C62.9142 10.7918 63.6622 10.8839 64.5599 10.8839H68.2196V9.14615H65.1238C64.4218 9.14615 63.9384 9.12313 63.6622 9.06558C63.3745 9.00805 63.1099 8.91598 62.8912 8.77788C62.4539 8.50167 62.1201 8.14491 61.9015 7.69609C61.6943 7.25877 61.5907 6.70638 61.5907 6.06191C61.5907 4.95711 61.8555 4.14002 62.3734 3.65667Z"
      fill="white"
    />
    <path
      d="M35.4336 10.9073H44.0649V9.20404H37.5396V6.77577H43.2363V5.1646H37.5396V2.90897H44.0649V1.19423H35.4336V10.9073Z"
      fill="white"
    />
    <path
      d="M46.2158 1.19423L50.2553 6.05075L46.2158 10.9073H48.8283L52.0161 7.06349V5.04952L48.8283 1.19423H46.2158Z"
      fill="white"
    />
    <path
      d="M56.0218 1.19423L52.834 5.04952V7.06349L56.0218 10.9073H58.6342L54.5833 6.05075L58.6342 1.19423H56.0218Z"
      fill="white"
    />
    <path
      d="M26.9745 5.9817L23.0962 1.19423H21.0938V10.9073H23.1998V4.42807L26.5602 8.456H27.3773L30.7377 4.39356V10.9073H32.8437V1.19423H30.8643L26.9745 5.9817Z"
      fill="white"
    />
  </g>
  <defs>
    <linearGradient
      id="paint0_linear_6257_8409"
      x1="4.70685"
      y1="6.26721"
      x2="13.3043"
      y2="9.44427"
      gradientUnits="userSpaceOnUse"
    >
      <stop stop-color="#003087" stop-opacity="0" />
      <stop offset="1" stop-color="#003087" />
    </linearGradient>
    <clipPath id="clip0_6257_8409">
      <rect
        width="68"
        height="10.4165"
        fill="white"
        transform="translate(0.275391 0.79171)"
      />
    </clipPath>
  </defs>
</svg>
