<svg width="17" height="17" viewBox="0 0 17 17" fill="none" xmlns="http://www.w3.org/2000/svg">
<rect width="17" height="17" rx="4" fill="#3B99FC"/>
<path d="M5.09378 6.29862C6.975 4.41739 10.0251 4.41739 11.9063 6.29862L12.1327 6.52502C12.2268 6.61909 12.2268 6.77159 12.1327 6.86565L11.3582 7.64015C11.3112 7.68718 11.2349 7.68718 11.1879 7.64015L10.8763 7.32858C9.56394 6.01619 7.43614 6.01619 6.12375 7.32858L5.79009 7.66225C5.74306 7.70928 5.6668 7.70928 5.61977 7.66225L4.84527 6.88775C4.75121 6.79368 4.75121 6.64118 4.84527 6.54712L5.09378 6.29862ZM13.508 7.90036L14.1973 8.58967C14.2914 8.68373 14.2914 8.83623 14.1973 8.93029L11.0892 12.0385C10.9952 12.1325 10.8427 12.1325 10.7486 12.0385C10.7486 12.0385 10.7486 12.0385 10.7486 12.0385L8.54263 9.83251C8.51912 9.80899 8.48099 9.80899 8.45748 9.83251C8.45748 9.83251 8.45748 9.83251 8.45748 9.83251L6.25157 12.0385C6.15751 12.1325 6.005 12.1325 5.91094 12.0385C5.91094 12.0385 5.91094 12.0385 5.91094 12.0385L2.80272 8.93026C2.70866 8.83619 2.70866 8.68369 2.80272 8.58963L3.49203 7.90032C3.58609 7.80626 3.7386 7.80626 3.83266 7.90032L6.03865 10.1063C6.06216 10.1298 6.10029 10.1298 6.1238 10.1063C6.12381 10.1063 6.12381 10.1063 6.12381 10.1063L8.32969 7.90032C8.42375 7.80626 8.57625 7.80625 8.67031 7.90031C8.67031 7.90032 8.67031 7.90032 8.67032 7.90032L10.8763 10.1063C10.8998 10.1298 10.9379 10.1298 10.9615 10.1063L13.1674 7.90036C13.2615 7.8063 13.414 7.8063 13.508 7.90036Z" fill="white"/>
</svg>
