<svg width="17" height="17" viewBox="0 0 17 17" fill="none" xmlns="http://www.w3.org/2000/svg">
    <rect x="0.45459" y="0.666016" width="16" height="16" rx="8" fill="#213147"/>
    <g clip-path="url(#clip0_30764_27361)">
        <path d="M3.53955 6.31399V11.018C3.53955 11.3204 3.69795 11.594 3.96195 11.7476L8.03715 14.0996C8.29635 14.2484 8.61795 14.2484 8.87715 14.0996L12.9524 11.7476C13.2116 11.5988 13.3748 11.3204 13.3748 11.018V6.31399C13.3748 6.01159 13.2164 5.73799 12.9524 5.58439L8.87715 3.23239C8.61795 3.08359 8.29635 3.08359 8.03715 3.23239L3.96195 5.58439C3.70275 5.73319 3.54435 6.01159 3.54435 6.31399H3.53955Z"
              fill="#213147"/>
        <path d="M9.34453 9.57798L8.76373 11.1716C8.74933 11.2148 8.74933 11.2628 8.76373 11.3108L9.76213 14.0516L10.9189 13.3844L9.53173 9.57798C9.49813 9.49158 9.37813 9.49158 9.34453 9.57798Z"
              fill="#12AAFF"/>
        <path d="M10.5098 6.89958C10.4762 6.81318 10.3562 6.81318 10.3226 6.89958L9.74176 8.49318C9.72736 8.53638 9.72736 8.58438 9.74176 8.63238L11.3786 13.1204L12.5354 12.4532L10.5098 6.90438V6.89958Z"
              fill="#12AAFF"/>
        <path d="M8.45463 3.41002C8.48343 3.41002 8.51223 3.41962 8.53623 3.43402L12.9426 5.97802C12.9954 6.00682 13.0242 6.06442 13.0242 6.12202V11.21C13.0242 11.2676 12.9906 11.3252 12.9426 11.354L8.53623 13.898C8.51223 13.9124 8.48343 13.922 8.45463 13.922C8.42583 13.922 8.39703 13.9124 8.37303 13.898L3.96663 11.354C3.91383 11.3252 3.88503 11.2676 3.88503 11.21V6.11722C3.88503 6.05962 3.91863 6.00202 3.96663 5.97322L8.37303 3.42922C8.39703 3.41482 8.42583 3.40522 8.45463 3.40522V3.41002ZM8.45463 2.66602C8.29623 2.66602 8.14263 2.70442 7.99863 2.78602L3.59223 5.33002C3.30903 5.49322 3.13623 5.79082 3.13623 6.11722V11.2052C3.13623 11.5316 3.30903 11.8292 3.59223 11.9924L7.99863 14.5364C8.13783 14.618 8.29623 14.6564 8.45463 14.6564C8.61303 14.6564 8.76663 14.618 8.91063 14.5364L13.317 11.9924C13.6002 11.8292 13.773 11.5316 13.773 11.2052V6.11722C13.773 5.79082 13.6002 5.49322 13.317 5.33002L8.90583 2.78602C8.76663 2.70442 8.60823 2.66602 8.44983 2.66602H8.45463Z"
              fill="#9DCCED"/>
        <path d="M5.53613 13.1252L5.94413 12.0116L6.76013 12.6884L5.99693 13.3892L5.53613 13.1252Z" fill="#213147"/>
        <path d="M8.08019 5.75718H6.96179C6.88019 5.75718 6.80339 5.80998 6.77459 5.88678L4.37939 12.4532L5.53619 13.1204L8.17619 5.88678C8.20019 5.81958 8.15219 5.75238 8.08499 5.75238L8.08019 5.75718Z"
              fill="white"/>
        <path d="M10.0382 5.75724H8.91978C8.83818 5.75724 8.76138 5.81004 8.73258 5.88684L5.99658 13.3844L7.15338 14.0516L10.1294 5.88684C10.1534 5.81964 10.1054 5.75244 10.0382 5.75244V5.75724Z"
              fill="white"/>
    </g>
    <defs>
        <clipPath id="clip0_30764_27361">
            <rect width="12" height="12" fill="white" transform="translate(2.45459 2.66602)"/>
        </clipPath>
    </defs>
</svg>
