<svg width="16" height="16" viewBox="0 0 16 16" fill="none" xmlns="http://www.w3.org/2000/svg">
<g clip-path="url(#clip0_3534_3179)">
<path d="M16 0H0V16H16V0Z" fill="black"/>
<path d="M8 14.0708V12.0155C7.7951 12.0155 7.58575 11.9975 7.38085 11.966L7.06013 13.9943C7.37194 14.0483 7.6882 14.0708 8 14.0708ZM8.93541 13.9988C9.24722 13.9494 9.55457 13.8774 9.85301 13.7785L9.22494 11.8221C9.02895 11.8851 8.82405 11.9346 8.61915 11.966L8.93541 13.9988ZM6.14699 13.7785L6.77506 11.8266C6.57906 11.7637 6.38753 11.6827 6.20045 11.5883L5.27394 13.4187C5.55457 13.5581 5.84855 13.6795 6.14699 13.7785ZM10.7216 13.4187C11.0022 13.2748 11.2695 13.1084 11.5234 12.924L10.3207 11.2645C10.1559 11.3859 9.97773 11.4983 9.79065 11.5883L10.7216 13.4187ZM4.47216 12.9195L5.67483 11.26C5.51002 11.1385 5.34967 11.0036 5.20267 10.8552L3.75947 12.3078C3.98218 12.5282 4.22272 12.7351 4.47216 12.9195ZM12.2316 12.3168L12.245 12.3033C12.4677 12.083 12.6726 11.8401 12.8552 11.5883L11.2071 10.3785C11.0869 10.5449 10.9488 10.7068 10.8062 10.8507L10.784 10.8732L11.4788 11.5343L12.2316 12.3168ZM3.14922 11.5838L4.79733 10.374C4.67706 10.2076 4.5657 10.0277 4.47216 9.84331L2.65479 10.7743C2.79733 11.0576 2.96214 11.3274 3.14922 11.5838ZM13.3452 10.7788C13.4877 10.4999 13.608 10.2031 13.706 9.90178L11.7639 9.27215C11.7016 9.47003 11.6214 9.66342 11.5278 9.84781L13.3452 10.7788ZM2.29399 9.90178L4.23608 9.26765C4.17372 9.06977 4.12472 8.86739 4.09354 8.66052L2.07572 8.97983C2.12472 9.29014 2.20045 9.60046 2.29399 9.90178ZM13.9243 8.98432C13.9733 8.67401 14 8.3547 14 8.03989H11.9599C11.9599 8.24676 11.9421 8.45814 11.9109 8.66501L13.9243 8.98432ZM4.04454 8.03539C4.04454 7.82851 4.06236 7.61714 4.09354 7.41027L2.07572 7.09096C2.02673 7.40127 2.00445 7.72058 2 8.03539H4.04454ZM11.9109 7.41476L13.9287 7.09545C13.8797 6.78514 13.8085 6.47482 13.7105 6.1735L11.7684 6.80313C11.8307 7.00551 11.8797 7.20789 11.9109 7.41476ZM4.23608 6.80313C4.29844 6.60525 4.37862 6.41186 4.47216 6.22747L2.65479 5.29653C2.51225 5.57536 2.39198 5.87218 2.29399 6.1735L4.23608 6.80313ZM11.5323 6.23197L13.3541 5.30103C13.2116 5.0177 13.0468 4.74786 12.8597 4.49151L11.2071 5.70129C11.3274 5.86769 11.4388 6.04758 11.5323 6.23197ZM4.79733 5.69679C4.91759 5.53039 5.05568 5.36849 5.20267 5.22007L5.20713 5.21558L3.76392 3.76295L3.75947 3.76744C3.53675 3.99231 3.33185 4.23067 3.14922 4.48701L4.79733 5.69679ZM10.8062 5.22907L11.2428 4.78384L12.245 3.77644L12.2405 3.77194C12.0178 3.55157 11.7817 3.3447 11.5323 3.16031L10.3296 4.81981C10.4944 4.94124 10.6548 5.07616 10.7973 5.22457L10.8062 5.22907ZM5.67929 4.81082C5.8441 4.68939 6.02227 4.58146 6.20935 4.48701L5.28285 2.65661C5.00223 2.80052 4.73497 2.96692 4.48107 3.15131L5.67929 4.81082ZM9.80401 4.49151L10.735 2.6611C10.4543 2.51719 10.1648 2.39576 9.86637 2.29682L9.23385 4.24866C9.42539 4.31611 9.61693 4.39707 9.80401 4.49151ZM6.78396 4.24866C6.97995 4.18569 7.18485 4.13622 7.38975 4.10474L7.0735 2.07645C6.76615 2.12592 6.45434 2.19788 6.1559 2.29682L6.78396 4.24866ZM8.62361 4.10474L8.94432 2.07645C8.63697 2.02698 8.32071 2 8.00891 2V4.05527C8.21381 4.05527 8.42316 4.07326 8.62361 4.10474Z" fill="white"/>
<path d="M8.03563 12.0727V10.0084C7.86192 10.0084 7.69265 9.98592 7.52338 9.94095L6.98886 11.9333C7.33185 12.0232 7.68374 12.0727 8.03563 12.0727ZM9.0824 11.9333C9.42539 11.8433 9.75056 11.7084 10.0579 11.5285L9.0245 9.74307C8.8775 9.82852 8.71715 9.89598 8.55234 9.94095L9.0824 11.9333ZM6.01782 11.5285L7.05122 9.74307C6.90423 9.65762 6.76615 9.54968 6.64142 9.42825L6.62361 9.41027L5.97327 10.0984L5.17149 10.8764L5.18486 10.8899C5.4343 11.1372 5.71492 11.3531 6.01782 11.5285ZM10.8909 10.8899C11.1403 10.638 11.3586 10.3592 11.5323 10.0534L9.7461 9.019C9.66147 9.16741 9.55457 9.30233 9.42984 9.42825L10.8909 10.8899ZM4.53898 10.0489L6.32517 9.019C6.24053 8.87059 6.17372 8.71318 6.12918 8.54678L4.13808 9.07746C4.22717 9.41476 4.36526 9.74307 4.53898 10.0489ZM11.9376 9.08196C12.0267 8.74017 12.0757 8.38938 12.0757 8.03859H10.0134C10.0134 8.20948 9.99109 8.38488 9.94655 8.55128L11.9376 9.08196ZM6.06682 8.03409C6.06682 7.86319 6.08909 7.6878 6.13363 7.52139L4.13808 6.99071C4.049 7.33251 4 7.6833 4 8.03409H6.06682ZM9.94209 7.52589L11.9376 6.99521C11.8486 6.65341 11.7105 6.32511 11.5367 6.01929L9.75056 7.04918C9.83073 7.20209 9.89755 7.35949 9.94209 7.52589ZM6.32962 7.04918C6.41425 6.90526 6.5167 6.76585 6.64142 6.64442L6.64588 6.63992L5.90646 5.90236L5.19822 5.1693L5.18486 5.18279C4.93541 5.43015 4.7216 5.71348 4.54343 6.0148L6.32962 7.04918ZM9.42984 6.64442L10.1604 5.91136L10.9087 5.20078L10.8909 5.18279C10.6414 4.93094 10.3608 4.71957 10.0579 4.53968L9.0245 6.32511C9.17149 6.41056 9.30512 6.514 9.42984 6.63542V6.64442ZM7.05122 6.32511C7.19822 6.23966 7.35857 6.1722 7.52338 6.12723L6.99777 4.13492C6.65479 4.22487 6.32962 4.35978 6.02227 4.53968L7.05122 6.32511ZM8.54788 6.13173L9.0824 4.13942C8.74387 4.04947 8.39198 4 8.04009 4V6.06427C8.20935 6.06427 8.38307 6.08675 8.54788 6.13173Z" fill="white"/>
</g>
<defs>
<clipPath id="clip0_3534_3179">
<rect width="16" height="16" rx="8" fill="white"/>
</clipPath>
</defs>
</svg>
