<svg width="82" height="80" viewBox="0 0 82 80" fill="none" xmlns="http://www.w3.org/2000/svg">
<path d="M48.8042 49.7032C33.7007 54.2389 21.207 60.8552 13.3842 68.6071L13.0391 68.9522C15.1197 70.92 17.4004 72.6814 19.865 74.1782L20.394 73.5298C22.5296 70.92 24.8199 68.4006 27.2038 66.0263C33.6039 59.6487 40.9267 54.1292 48.8107 49.6968L48.801 49.7032H48.8042Z" fill="#F5F5F5"/>
<path d="M0.691406 42.981C1.29464 51.0683 4.29792 58.4847 9.01091 64.5171L9.22703 64.301C14.0691 59.5234 20.3724 55.1813 27.9758 51.3974C34.6404 48.0779 42.2922 45.2294 50.5407 42.981H0.691406Z" fill="#F5F5F5"/>
<path d="M31.4275 9.74224C44.9407 23.2072 61.9475 32.1107 80.6027 35.4882C78.3542 15.5263 61.3636 0 40.718 0C35.2663 0 30.0695 1.08713 25.3242 3.04848C27.2501 5.36791 29.3081 7.62605 31.4275 9.74547V9.74224Z" fill="#F5F5F5"/>
<path d="M13.381 11.3907C21.2037 19.1522 33.6975 25.7589 48.801 30.3042C40.917 25.8653 33.5943 20.3523 27.1941 13.9746C24.8167 11.6068 22.5295 9.08737 20.3843 6.47116L19.8553 5.82275C17.3907 7.31958 15.1101 9.0777 13.0391 11.0455L13.3842 11.3907H13.381Z" fill="#F5F5F5"/>
<path d="M32.7322 70.2544C30.6031 72.3738 28.5483 74.6319 26.6289 76.9514C31.3677 78.9127 36.571 79.9999 42.0227 79.9999C62.6683 79.9999 79.6589 64.4703 81.9138 44.502C63.2618 47.8795 46.2551 56.783 32.7387 70.2479L32.7322 70.2544Z" fill="#F5F5F5"/>
<path d="M27.9797 28.5973C20.3763 24.8133 14.073 20.468 9.23096 15.6937L9.01483 15.4775C4.30184 21.51 1.29855 28.9264 0.695312 37.0137H50.535C42.2897 34.7653 34.6443 31.9168 27.97 28.5876L27.9765 28.5973H27.9797Z" fill="#F5F5F5"/>
</svg>
