<svg width="24" height="25" viewBox="0 0 24 25" fill="none" xmlns="http://www.w3.org/2000/svg">
<g clip-path="url(#clip0_1870_25036)">
<path d="M23.998 12.5C23.998 5.86638 18.6187 0.5 11.998 0.5C5.36443 0.5 -0.00195312 5.86638 -0.00195312 12.5C-0.00195312 19.1207 5.36443 24.5 11.998 24.5C18.6187 24.5 23.998 19.1207 23.998 12.5Z" fill="url(#paint0_radial_1870_25036)"/>
<path d="M20.1577 8.74963C20.106 9.04704 20.0543 9.18929 19.9767 9.34446C19.8991 9.52549 19.8215 9.71946 19.7439 10.1333C19.7181 10.2884 19.6922 10.4177 19.6793 10.5212V10.5341C19.6534 10.7022 19.6405 10.8186 19.5758 11.0126C19.5241 11.1807 19.4336 11.4522 19.2138 11.7367C19.0327 11.9695 18.7353 12.3703 18.3345 12.422C18.2957 12.422 18.231 12.422 18.1922 12.4091C17.0543 11.8272 16.0845 11.4005 15.7482 11.31C15.3603 11.1936 15.412 10.3401 15.4508 9.59015C15.4767 9.25394 15.4896 8.93066 15.4767 8.65911C15.425 7.70222 15.2569 6.66773 14.4293 6.16342C13.9379 5.86601 13.2914 5.77549 12.6836 5.77549C12.8 5.72377 12.9164 5.64618 13.0586 5.5686C13.4207 5.3617 13.8603 5.10308 14.3129 5.05135C14.4551 5.03842 14.5974 5.02549 14.7396 4.99963C15.6319 4.89618 16.4077 4.80566 17.2224 5.09015C17.5974 5.21946 18.3474 5.63325 18.5414 6.03411C18.6836 6.30566 18.9164 6.52549 19.3689 6.95222C19.6146 7.17204 19.7698 7.30135 19.8862 7.4048C20.0543 7.53411 20.0801 7.57291 20.1319 7.66342C20.287 7.97377 20.2353 8.29704 20.1577 8.74963Z" fill="white"/>
<path d="M16.0316 12.6672C16.0833 12.6801 16.1092 12.7448 16.0704 12.7965C15.954 12.9776 15.8118 13.2362 15.6437 13.5336C15.5661 13.6758 15.4885 13.8181 15.4239 13.9215C15.204 14.2965 15.1911 14.6198 15.1782 14.8655C15.1652 15.137 15.1523 15.2534 14.9842 15.3569C14.8549 15.4474 14.7126 15.4732 13.7816 15.6155C13.6135 15.6414 13.5489 15.6672 13.4842 15.706C13.4713 15.7189 13.4454 15.7189 13.4325 15.7319C13.3807 15.7577 13.329 15.706 13.329 15.6543C13.342 15.525 13.342 15.3569 13.342 15.137V15.0982C13.342 14.9172 13.342 14.762 13.329 14.6457C13.3161 14.4129 13.3161 14.3095 13.3807 14.206C13.4583 14.0767 13.523 14.0379 13.6135 13.9732C13.7557 13.8827 13.9497 13.7664 14.2213 13.3784C14.3764 13.1715 14.4023 13.0551 14.4282 12.9646C14.4411 12.9258 14.4411 12.9129 14.5575 12.8224C14.6739 12.7319 15.0489 12.4474 15.5273 12.525C15.6825 12.5508 15.8506 12.6026 16.0316 12.6672Z" fill="white"/>
<path d="M12.3212 16.9608C12.2953 16.9866 12.2824 16.9996 12.2436 16.9996C12.1401 16.9996 12.0755 16.9737 12.0367 16.922C11.9462 16.8056 11.9591 16.5728 11.972 16.4306L12.3729 16.3271C12.3988 16.547 12.4117 16.8444 12.3212 16.9608Z" fill="white"/>
<path d="M12.3477 15.5384C12.3347 15.5901 12.3347 15.6548 12.3347 15.7323C12.3347 15.7582 12.3347 15.7841 12.3347 15.8099C12.3347 15.8746 12.3347 15.978 12.3347 16.0298C12.2054 16.0685 12.102 16.0686 11.9727 16.0686C11.9727 16.0298 11.9727 15.9651 11.9727 15.9263C11.9727 15.9004 11.9727 15.8617 11.9727 15.8358C11.9727 15.797 11.9727 15.7711 11.9727 15.7323C11.9727 15.6548 11.9727 15.5384 11.9856 15.4996C12.0244 15.4996 12.0632 15.4867 12.102 15.4737C12.1796 15.4608 12.2959 15.4349 12.3606 15.4479C12.3606 15.4737 12.3606 15.5125 12.3477 15.5384Z" fill="white"/>
<path d="M11.6225 16.8447C11.6096 17.0516 11.5449 17.2973 11.3509 17.3361C11.2604 17.349 11.2216 17.3232 11.1958 17.2973C11.0664 17.1809 11.0535 16.8189 11.0664 16.5602C11.157 16.5602 11.2604 16.5473 11.3897 16.5215C11.4673 16.5085 11.5449 16.4827 11.6096 16.4697C11.6225 16.5732 11.6354 16.7025 11.6225 16.8447Z" fill="white"/>
<path d="M11.5322 16.12L11.1055 16.2752C11.1313 16.1071 11.1572 15.8743 11.1701 15.7191C11.1831 15.6157 11.2089 15.5769 11.2218 15.5639C11.2218 15.5639 11.2348 15.551 11.2477 15.551C11.2477 15.551 11.2477 15.551 11.2606 15.551H11.2736L11.5451 15.5381C11.5322 15.6674 11.5322 15.9519 11.5322 16.12Z" fill="white"/>
<path d="M10.8351 15.9907C10.8092 16.0553 10.7833 16.2364 10.7704 16.3657L10.2402 16.3527C10.2661 16.1846 10.3178 16.0165 10.3566 15.8872C10.4083 15.7579 10.4471 15.6545 10.4989 15.6286C10.5506 15.6027 10.667 15.5898 10.7445 15.6545C10.8609 15.7321 10.8868 15.8484 10.8351 15.9907Z" fill="white"/>
<path d="M10.6407 17.6337C10.6019 17.6854 10.5501 17.7242 10.4984 17.7242C10.4338 17.7371 10.395 17.7112 10.3562 17.6854C10.1881 17.5302 10.201 17.0259 10.2139 16.7802C10.4338 16.7285 10.6795 16.6897 10.7958 16.6768C10.7958 16.8707 10.8088 17.4009 10.6407 17.6337Z" fill="white"/>
<path d="M9.94302 16.3277C9.91716 16.3924 9.8913 16.457 9.87837 16.5217C9.81371 16.5475 9.61975 16.5217 9.42578 16.4829L9.55509 15.6424C9.77492 15.5777 10.0335 15.5648 10.0853 15.6294C10.1758 15.7199 10.0077 16.1467 9.94302 16.3277Z" fill="white"/>
<path d="M9.69691 17.7499C9.59346 17.8792 9.43829 17.9439 9.21846 17.931C9.06329 17.931 9.01157 17.8663 8.98571 17.8275C8.86933 17.6336 8.98571 17.181 9.10209 16.8965L9.82622 16.9353C9.83915 16.987 9.83915 17.0517 9.83915 17.1163C9.85208 17.3361 9.82622 17.5948 9.69691 17.7499Z" fill="white"/>
<path d="M15.6957 11.6328C15.0362 11.4518 15.1009 10.4949 15.1526 9.56388C15.1655 9.2406 15.1914 8.93026 15.1785 8.67164C15.1268 7.80526 14.9845 6.86129 14.2862 6.43457C13.5362 5.98198 12.3078 6.08543 11.5578 6.17595C11.2862 6.25354 11.0276 6.31819 10.8207 6.30526C10.3811 6.2794 10.0319 6.09836 9.72158 5.93026C9.48882 5.80095 9.28192 5.68457 9.07503 5.68457C9.0621 5.68457 9.04916 5.68457 9.04916 5.68457C8.46727 5.72336 8.19572 5.86561 7.95003 6.08543C7.88537 6.13716 7.80779 6.29233 7.5621 7.00354C7.43279 7.3656 7.41985 7.55957 7.39399 7.7406C7.36813 7.90871 7.3552 8.08974 7.26468 8.36129C7.20003 8.54233 7.1483 8.6975 7.10951 8.85267C6.99313 9.25354 6.88968 9.57681 6.6052 9.96474C6.56641 10.0035 6.52761 10.0811 6.47589 10.1458C6.41123 10.2492 6.33365 10.3785 6.21727 10.5208C6.13968 10.6242 5.97158 11.0122 5.98451 11.1285C5.99744 11.3225 6.0621 11.4389 6.12675 11.5682C6.19141 11.6975 6.28192 11.8527 6.29485 12.0725V12.1113C6.32072 12.4475 6.26899 12.6156 5.63537 13.1846C5.23451 13.5466 4.9371 13.8958 4.74313 14.1544C4.7302 14.1803 4.74313 14.2061 4.78192 14.2061C4.79485 14.2061 4.79485 14.2061 4.79485 14.2061C4.80779 14.2061 4.82072 14.2061 4.83365 14.2061C4.84658 14.2061 4.85951 14.2061 4.87244 14.2061C4.88537 14.2061 4.8983 14.2061 4.91123 14.2061C5.06641 14.2191 5.22158 14.2837 5.32503 14.4001C5.33796 14.4259 5.37675 14.4259 5.40261 14.413C5.50606 14.3742 5.62244 14.3742 5.72589 14.3872C5.8552 14.4001 5.99744 14.4389 6.08796 14.5294C6.11382 14.5553 6.15261 14.5682 6.19141 14.5553C6.29485 14.5294 6.41123 14.5294 6.51468 14.5682C6.59227 14.5941 6.66985 14.6458 6.72158 14.7104C6.76037 14.7492 6.82503 14.7622 6.87675 14.7363C6.90261 14.7234 6.94141 14.6975 6.9802 14.6846C7.12244 14.6328 7.27761 14.6587 7.40692 14.7104C7.47158 14.7363 7.53623 14.7492 7.60089 14.8009C7.70434 14.8785 7.78192 14.982 7.82072 15.0984C7.84658 15.163 7.9371 15.1889 7.98882 15.1372C8.09227 15.0596 8.16985 15.0466 8.24744 15.0725C8.28623 15.0854 8.3121 15.1113 8.33796 15.1501C8.37675 15.2018 8.44141 15.2535 8.49313 15.2277C8.71296 15.163 8.97158 15.2018 9.16554 15.3053C9.2302 15.3441 9.30779 15.3958 9.34658 15.4734V15.4346C9.34658 15.4216 9.35951 15.4087 9.37244 15.3958L9.41123 15.3828C9.51468 15.3441 10.0578 15.1889 10.2647 15.4087C10.2776 15.4216 10.2905 15.4216 10.3035 15.4087C10.3293 15.3828 10.3552 15.357 10.3681 15.357C10.5104 15.2794 10.7431 15.2665 10.8983 15.4087C10.9242 15.4346 10.9759 15.4216 11.0018 15.3958C11.0147 15.3699 11.0276 15.357 11.0535 15.3441C11.1052 15.2923 11.1828 15.2794 11.2604 15.2794L11.5578 15.2665C11.6354 15.2665 11.8681 15.2406 11.9328 15.2277H11.9457C11.9716 15.2277 12.0104 15.2147 12.0492 15.2018C12.1914 15.1759 12.3595 15.1372 12.4888 15.2018C12.6181 15.2665 12.6052 15.4087 12.5923 15.538C12.5923 15.5897 12.5793 15.6415 12.5793 15.6932C12.5793 15.7191 12.5793 15.7449 12.5793 15.7708C12.5793 15.8872 12.5793 15.9906 12.5664 16.0682L12.5793 16.1328C12.5793 16.1328 12.5793 16.1328 12.5793 16.1458C12.5923 16.1975 12.6569 16.2363 12.6957 16.1975C12.7992 16.1328 12.9026 16.0553 12.9414 16.0035V15.9906C12.9414 15.9777 12.9543 15.9518 12.9673 15.9001C12.9802 15.7837 13.0061 15.5639 13.0061 15.1113C13.0061 15.0854 13.0061 15.0725 13.0061 15.0596C13.0061 14.8915 13.0061 14.7492 12.9931 14.6328C12.9802 14.3872 12.9673 14.1932 13.0966 13.9992C13.213 13.8053 13.3293 13.7406 13.4457 13.663C13.575 13.5854 13.7173 13.4949 13.963 13.1587C14.0793 12.9906 14.0923 12.9259 14.1052 12.8742C14.1311 12.7449 14.1699 12.6673 14.3638 12.538C14.519 12.4216 14.9716 12.0725 15.5923 12.1759C15.7992 12.2147 16.1224 12.3182 16.4586 12.4475C16.4716 12.4475 16.4845 12.4604 16.4974 12.4604H16.5104C16.8078 12.5768 17.0793 12.7061 17.2733 12.8096C17.3121 12.8354 17.3638 12.8225 17.4026 12.7837C17.4673 12.7061 17.5319 12.6673 17.5966 12.6156C17.6224 12.6027 17.6483 12.5897 17.6612 12.5768C17.6742 12.5768 17.6742 12.5639 17.6742 12.5639C17.7259 12.5251 17.7259 12.4216 17.6612 12.3958C16.7949 11.9691 15.9673 11.7104 15.6957 11.6328ZM9.46296 11.8268C9.25606 12.7061 7.88537 13.6889 7.26468 13.6889H7.25175C7.23882 13.6889 7.22589 13.6889 7.22589 13.6889C7.21296 13.6889 7.20003 13.6889 7.1871 13.6759C7.17416 13.6759 7.17416 13.6759 7.16123 13.6759C7.04485 13.6372 6.88968 13.5596 6.7733 13.4432C6.69572 13.3656 6.63106 13.2622 6.6052 13.1716C6.6052 13.1587 6.59227 13.1328 6.59227 13.1199C6.55348 12.9647 6.51468 12.7837 6.64399 12.4734C6.65692 12.4346 6.68279 12.3958 6.69572 12.357C6.69572 12.3441 6.70865 12.3311 6.70865 12.3182C6.72158 12.2794 6.73451 12.2535 6.74744 12.2277C6.76037 12.1759 6.78623 12.1372 6.79916 12.1113C6.79916 12.0984 6.8121 12.0854 6.8121 12.0725C6.85089 11.9691 6.85089 11.9303 6.86382 11.8915C6.86382 11.8656 6.87675 11.8139 6.88968 11.7622C6.92847 11.5941 6.95434 11.4518 6.96727 11.3354C6.99313 11.1156 7.03192 10.9216 7.1483 10.7406C7.17416 10.7147 7.1871 10.6889 7.21296 10.663C7.22589 10.6501 7.22589 10.6501 7.23882 10.6372C7.25175 10.6242 7.25175 10.6242 7.26468 10.6113C7.29054 10.5854 7.32934 10.5725 7.3552 10.5596C7.36813 10.5596 7.38106 10.5466 7.39399 10.5466C7.41985 10.5337 7.44572 10.5337 7.47158 10.5208C7.58796 10.4949 7.71727 10.4949 7.87244 10.5078C8.04054 10.5208 8.19572 10.5466 8.32503 10.5854C8.44141 10.6113 8.54485 10.6501 8.62244 10.6889C8.63537 10.6889 8.63537 10.7018 8.6483 10.7018C8.66123 10.7147 8.67417 10.7147 8.70003 10.7277C8.72589 10.7406 8.73882 10.7406 8.76468 10.7535C8.79054 10.7665 8.81641 10.7794 8.84227 10.7923L8.86813 10.8053C8.95865 10.8441 9.04916 10.8958 9.11382 10.9475C9.15261 10.9734 9.17847 10.9992 9.20434 11.0251C9.21727 11.038 9.2302 11.038 9.2302 11.0509C9.24313 11.0639 9.24313 11.0639 9.25606 11.0768C9.52761 11.3096 9.51468 11.6328 9.46296 11.8268ZM10.1095 8.47767L10.0836 8.63285C10.019 8.99492 9.87675 9.48629 9.35951 9.6156C8.8552 9.73198 8.73882 9.75785 8.38968 9.78371C8.37675 9.78371 8.37675 9.78371 8.36382 9.78371C8.1052 9.78371 7.60089 9.61561 7.51037 9.21474C7.45865 8.95612 7.57503 8.76216 7.75606 8.45181C7.78192 8.40009 7.82072 8.34836 7.85951 8.28371C8.11813 7.85698 8.20865 7.54664 8.28623 7.30095C8.36382 7.05526 8.42848 6.86129 8.59658 6.69319C8.63537 6.6544 8.67416 6.6156 8.72589 6.58974C8.75175 6.56388 8.79054 6.55095 8.82934 6.52509C8.88106 6.49923 8.93279 6.48629 8.98451 6.46043C9.10089 6.42164 9.2302 6.40871 9.34658 6.40871C9.59227 6.40871 9.83796 6.47336 10.0061 6.6156C10.0836 6.68026 10.2 6.79664 10.2647 7.17164C10.2905 7.3656 10.2388 7.71474 10.1095 8.47767ZM13.8207 9.51216C13.6397 9.8225 13.5492 9.99061 13.394 10.1199C13.0836 10.3785 12.7345 10.4303 12.4371 10.4303C12.2302 10.4303 12.0492 10.3915 11.9328 10.3785C11.6224 10.3268 11.0664 10.2234 10.8724 9.77078C10.8336 9.68026 10.8336 9.62854 10.8336 9.55095C10.8336 9.48629 10.8336 9.35698 10.7949 9.08543V9.0725C10.7819 8.94319 10.769 8.80095 10.7949 8.61992V8.59405C10.8983 8.05095 10.9371 7.97336 10.95 7.92164C11.0018 7.81819 11.1311 7.76647 11.2474 7.83112C11.3509 7.88285 11.3897 8.01216 11.3509 8.11561C11.338 8.14147 11.3121 8.25785 11.2216 8.68457V8.71043C11.1957 8.82681 11.2086 8.91733 11.2216 9.03371V9.04664C11.2604 9.35698 11.2604 9.48629 11.2604 9.56388C11.2604 9.57681 11.2604 9.58974 11.2604 9.60267V9.6156C11.2992 9.70612 11.3768 9.75785 11.4673 9.80957C11.5319 9.83543 11.5966 9.78371 11.5836 9.71905C11.4931 9.24061 11.4931 8.68457 11.6742 8.33543C11.7388 8.21905 11.8423 8.03802 11.9457 7.85698C11.9586 7.84405 11.9716 7.81819 11.9716 7.80526C11.9845 7.79233 11.9845 7.7794 11.9974 7.76647C12.0492 7.68888 12.088 7.62423 12.1268 7.55957C12.1268 7.54664 12.1397 7.54664 12.1397 7.53371L12.1526 7.52078C12.1655 7.50785 12.1655 7.49492 12.1785 7.48198C12.1785 7.48198 12.1785 7.46905 12.1914 7.46905L12.2043 7.45612C12.2043 7.44319 12.2173 7.44319 12.2173 7.43026C12.2561 7.37854 12.2949 7.32681 12.3207 7.27509C12.3724 7.21043 12.3078 7.13285 12.2431 7.15871C12.0621 7.23629 11.9457 7.32681 11.9199 7.33974C11.8293 7.41733 11.6871 7.4044 11.6095 7.30095C11.5319 7.21043 11.5449 7.06819 11.6483 6.99061C11.7647 6.90009 12.3595 6.47336 13.0707 6.66733C13.588 6.80957 13.8466 7.21043 13.95 7.35267C14.0276 7.46905 14.2862 7.83112 14.2733 8.34836C14.2733 8.72336 14.1181 9.00785 13.8207 9.51216Z" fill="white"/>
<path d="M9.19223 6.86133C9.15344 6.95185 9.11464 7.05529 9.06292 7.17167C8.95947 7.44322 8.83016 7.75357 8.76551 7.86995C8.66206 8.06391 8.58447 8.19322 8.51982 8.28374C8.44223 8.40012 8.39051 8.49064 8.33878 8.61995C8.2612 8.83978 8.24827 9.08547 8.29999 9.35702C8.15775 9.34409 7.93792 9.25357 7.91206 9.12426C7.89913 9.03374 7.95085 8.94322 8.10602 8.67167C8.13189 8.61995 8.17068 8.55529 8.20947 8.50357C8.48102 8.03805 8.5974 7.68891 8.67499 7.43029C8.76551 7.15874 8.8043 7.04236 8.94654 6.93891C9.03706 6.90012 9.11464 6.87426 9.19223 6.86133Z" fill="white"/>
<path d="M8.92035 16.6374C8.76518 16.9478 8.58414 17.2323 8.46776 17.3745C8.36431 17.1159 8.19621 16.5081 8.24794 16.0297C8.24794 16.0167 8.24794 16.0038 8.24794 15.9909C8.26087 15.8357 8.29966 15.7064 8.37725 15.59C8.42897 15.5124 8.55828 15.4736 8.70052 15.4736C8.80397 15.4736 8.92035 15.4995 9.0238 15.5512C9.07552 15.5771 9.15311 15.6417 9.15311 15.8098C9.17897 16.0426 9.06259 16.3529 8.92035 16.6374Z" fill="white"/>
<path d="M17.1956 13.1849C17.2085 13.1978 17.2085 13.2108 17.2085 13.2237C17.1697 13.3142 17.1051 13.3789 17.0404 13.4564C16.9628 13.547 16.8723 13.6504 16.7947 13.8185C16.6783 14.0513 16.6395 14.2582 16.6266 14.8013C16.6008 15.4349 16.6266 15.784 16.6525 16.0427C16.6654 16.2883 16.6783 16.4435 16.6395 16.6892C16.549 17.1806 16.3421 17.5039 16.0706 17.9177C15.7344 18.4349 15.3982 18.9651 14.8292 19.1332C14.7775 19.1461 14.7775 19.1461 14.6223 19.1461C14.493 19.1461 14.2732 19.1461 13.8723 19.159C13.1223 19.1849 12.7473 19.1978 12.437 19.2625C12.1008 19.3271 11.9327 19.4047 11.7516 19.4694C11.5964 19.534 11.4542 19.5858 11.1827 19.6504C11.0145 19.6892 10.7689 19.7151 9.92834 19.728C9.04903 19.728 8.51886 19.728 7.83351 19.6504C6.87662 19.547 6.39817 19.4823 6.07489 19.3142C5.32489 18.9133 5.00162 18.1892 4.48438 16.9995C4.48438 16.9866 4.49731 16.9737 4.51024 16.9737C4.5361 16.9866 4.56196 16.9995 4.58782 17.0125C4.61369 17.0254 4.63955 17.0254 4.65248 17.0254C4.7042 17.0383 4.75593 17.0383 4.80765 17.0254C4.82058 17.0254 4.82058 17.0254 4.83351 17.0125C4.84644 17.0125 4.85937 17.0125 4.85937 17.0254C4.89817 17.1159 4.94989 17.1935 5.04041 17.2452C5.13093 17.297 5.23437 17.297 5.32489 17.297C5.42834 17.297 5.53179 17.284 5.63524 17.2711C5.68696 17.2711 5.73868 17.297 5.76455 17.3358C5.85506 17.5685 5.97144 17.7237 6.15248 17.7495C6.16541 17.7495 6.17834 17.7495 6.19127 17.7495C6.23006 17.7495 6.29472 17.7366 6.37231 17.6849C6.43696 17.6332 6.54041 17.672 6.59213 17.7366C6.63093 17.8013 6.68265 17.8401 6.73437 17.8789C6.91541 18.0599 7.35506 18.1504 7.71713 18.1504C7.9111 18.1504 8.09213 18.1245 8.19558 18.0728C8.35075 17.9952 8.35075 17.8918 8.33782 17.8401C8.32489 17.7625 8.31196 17.672 8.29903 17.5944C8.29903 17.5814 8.31196 17.5814 8.31196 17.5944C8.33782 17.6461 8.36368 17.6978 8.42834 17.7108C8.44127 17.7108 8.44127 17.7108 8.4542 17.7108C8.55765 17.7108 8.71282 17.7495 8.73868 17.8401C8.75162 17.8918 8.77748 17.9306 8.80334 17.9823C8.868 18.0728 8.98437 18.1892 9.23006 18.2021H9.243C9.52748 18.2021 9.74731 18.1116 9.88955 17.9306C9.90248 17.9177 9.90248 17.9047 9.91541 17.8918C9.96713 17.8142 10.1223 17.8142 10.187 17.8789C10.2645 17.9435 10.3551 17.9823 10.4585 17.9823C10.4714 17.9823 10.4973 17.9823 10.5102 17.9823C10.6395 17.9694 10.743 17.9047 10.8335 17.7883C10.8852 17.7108 10.924 17.6202 10.9499 17.5168C10.9628 17.4909 11.0016 17.478 11.0275 17.5039C11.0792 17.5556 11.1697 17.6073 11.299 17.6073C11.3249 17.6073 11.3637 17.6073 11.4025 17.5944C11.6482 17.5427 11.7775 17.3358 11.8292 17.1159C11.8292 17.103 11.8421 17.103 11.8421 17.1159C11.9068 17.1935 12.0232 17.284 12.2171 17.284C12.2301 17.284 12.243 17.284 12.243 17.284C12.3464 17.284 12.437 17.2323 12.5016 17.1547C12.5792 17.0513 12.6051 16.8961 12.618 16.7539C12.618 16.7151 12.6439 16.6763 12.6956 16.6504C12.9025 16.5599 13.1611 16.3659 13.2387 16.2366C13.2387 16.2366 13.2387 16.2237 13.2516 16.2237C13.2645 16.1849 13.3033 16.159 13.3292 16.159C13.4973 16.1332 13.562 16.0944 13.6266 16.0685C13.6783 16.0427 13.7171 16.0297 13.8464 16.0039C14.7904 15.8616 14.9714 15.8228 15.1783 15.6935C15.4887 15.4866 15.5016 15.2021 15.5145 14.9306C15.5275 14.6978 15.5404 14.4392 15.7214 14.1289C15.7861 14.0125 15.8637 13.8832 15.9413 13.728C16.0835 13.4694 16.2775 13.1073 16.4197 12.9133C16.4456 12.8745 16.4973 12.8616 16.5361 12.8875C16.8594 13.0039 17.1439 13.1332 17.1956 13.1849Z" fill="white"/>
<path d="M8.01576 16.0035C7.97697 16.3267 7.9511 16.7664 8.00283 17.3354C8.01576 17.4905 8.04162 17.6586 8.06748 17.8267C8.02869 17.8526 7.88645 17.8914 7.65369 17.8785C7.31748 17.8655 6.98128 17.788 6.87783 17.6716L6.8649 17.6586C6.78731 17.594 6.72266 17.5423 6.72266 17.4259C6.72266 17.3871 6.73559 17.3483 6.77438 17.2836C6.80024 17.2578 6.8261 17.219 6.85197 17.1673C6.90369 17.0897 6.98128 16.9992 7.05886 16.8698C7.27869 16.5078 7.35628 16.3914 7.45973 16.2492C7.47266 16.2362 7.47266 16.2233 7.48559 16.2104C7.55024 16.1328 7.6149 16.0293 7.73128 15.8612C7.80886 15.7448 7.87352 15.6414 7.93817 15.5638C8.02869 15.4345 8.09335 15.3698 8.13214 15.3311C8.13214 15.3828 8.11921 15.4604 8.10628 15.538C8.05455 15.6931 8.02869 15.8354 8.01576 16.0035Z" fill="white"/>
<path d="M7.84803 10.9087C7.84803 10.9216 7.84803 10.9216 7.84803 10.9087C7.79631 10.9733 7.74459 11.0509 7.67993 11.1802C7.51183 11.5423 7.51183 11.7492 7.51183 11.9173C7.51183 12.0078 7.51183 12.0725 7.48597 12.1501C7.47303 12.2018 7.44717 12.2664 7.40838 12.3311C7.31786 12.5509 7.18855 12.8354 7.24028 13.2233C7.16269 13.1845 7.04631 13.094 7.02045 13.0552C7.02045 13.0294 7.00752 13.0164 7.00752 12.9906C6.98166 12.8742 6.96872 12.7966 7.03338 12.6156C7.24028 12.1501 7.26614 12.0337 7.27907 11.9044C7.27907 11.8785 7.292 11.8526 7.292 11.8138C7.33079 11.6328 7.35666 11.4776 7.36959 11.3483C7.39545 11.1544 7.42131 11.0251 7.48597 10.9345C7.51183 10.8957 7.57648 10.8828 7.667 10.8828C7.70579 10.8828 7.74459 10.8828 7.79631 10.8957H7.80924C7.84803 10.9087 7.84803 10.9087 7.84803 10.9087Z" fill="white"/>
<path d="M7.58883 15.5253C7.5759 15.4089 7.56297 15.3055 7.51125 15.1891C7.51125 15.1891 7.49832 15.1632 7.49832 15.1503C7.48539 15.1374 7.48539 15.1244 7.47245 15.1115L7.45952 15.0986C7.44659 15.0856 7.44659 15.0856 7.43366 15.0856L7.42073 15.0727C7.4078 15.0727 7.4078 15.0598 7.39487 15.0598H7.38194C7.31728 15.0339 7.25263 15.008 7.17504 14.9951C7.16211 14.9951 7.14918 14.9951 7.14918 14.9951C7.13625 14.9951 7.13625 14.9951 7.12332 14.9951H7.11039C7.09745 14.9951 7.08452 15.008 7.05866 15.008C7.04573 15.008 7.04573 15.021 7.0328 15.021L7.01987 15.0339C7.00694 15.0468 7.00694 15.0468 6.99401 15.0598L6.98108 15.0727V15.0856C6.95521 15.1244 6.92935 15.1632 6.90349 15.202C6.83883 15.2925 6.77418 15.396 6.70952 15.4865C6.64487 15.577 6.59314 15.6546 6.52849 15.7451C6.4897 15.7968 6.46383 15.8356 6.42504 15.8874C6.42504 15.9003 6.41211 15.9003 6.41211 15.9132C6.4509 15.9262 6.4897 15.9262 6.52849 15.9391C6.61901 15.952 6.70952 15.9649 6.78711 15.9779C6.96814 16.0037 7.16211 16.0167 7.34314 16.0037C7.35607 16.0037 7.35608 16.0037 7.36901 16.0037C7.4078 15.9391 7.47245 15.8615 7.53711 15.758C7.5759 15.7063 7.6147 15.6546 7.64056 15.6029C7.60176 15.5899 7.58883 15.5512 7.58883 15.5253Z" fill="white"/>
<path d="M6.92943 16.2882C6.9165 16.4305 6.76133 16.7925 6.51564 17.1417C6.30875 17.4262 6.17943 17.5037 6.15357 17.5037C6.05012 17.4908 5.95961 17.2451 5.88202 16.9994C5.85616 16.896 5.81737 16.8055 5.80444 16.7149C5.75271 16.5339 5.73978 16.2753 5.75271 16.1201C5.95961 16.2365 6.32168 16.2624 6.83892 16.2624C6.86478 16.2753 6.90357 16.2753 6.92943 16.2882Z" fill="white"/>
<path d="M6.56674 15.1251C6.47623 15.2673 6.38571 15.3966 6.29519 15.5259C6.24347 15.5906 6.20467 15.6552 6.15295 15.7199C6.12709 15.7587 6.08829 15.7975 6.06243 15.8363C5.98485 15.8233 5.92019 15.7975 5.84261 15.7845C5.77795 15.7716 5.72623 15.7458 5.66157 15.7199C5.64864 15.7199 5.63571 15.707 5.62278 15.707C5.60985 15.694 5.59692 15.6682 5.58398 15.6552C5.60985 15.6164 5.62278 15.5647 5.64864 15.5259C5.68743 15.4483 5.72623 15.3708 5.77795 15.2932C5.85554 15.1639 5.94605 15.0216 6.08829 14.9311C6.10123 14.9311 6.10123 14.9182 6.11416 14.9182C6.16588 14.8923 6.2176 14.8664 6.28226 14.8535C6.29519 14.8535 6.33398 14.8535 6.35985 14.8535H6.37278C6.37278 14.8535 6.37278 14.8535 6.38571 14.8535C6.39864 14.8535 6.41157 14.8664 6.43743 14.8664C6.43743 14.8664 6.45036 14.8664 6.45036 14.8794C6.46329 14.8923 6.47623 14.8923 6.48916 14.9052C6.46329 14.8923 6.51502 14.944 6.51502 14.9311C6.54088 15.0087 6.55381 15.0475 6.56674 15.1251Z" fill="white"/>
<path d="M5.86806 14.7494C5.69996 14.8787 5.58358 15.0598 5.49306 15.2537C5.44134 15.3572 5.38961 15.4606 5.33789 15.5641C5.33789 15.577 5.32496 15.59 5.32496 15.59C5.27324 15.577 5.22151 15.5641 5.18272 15.5512C5.13099 15.5382 5.07927 15.5124 5.02755 15.4994C5.00168 15.4865 4.98875 15.4736 4.96289 15.4606C5.01461 15.3701 5.06634 15.2796 5.13099 15.1891C5.20858 15.0727 5.2991 14.9434 5.38961 14.84C5.42841 14.8012 5.4672 14.7494 5.50599 14.7236C5.55772 14.6977 5.60944 14.6977 5.6741 14.7106C5.73875 14.7106 5.80341 14.7106 5.85513 14.7365C5.8422 14.7365 5.85513 14.7494 5.86806 14.7494Z" fill="white"/>
<path d="M5.60939 16.9483C5.59646 16.9612 5.59646 16.9612 5.58353 16.9742H5.5706C5.5318 16.9742 5.49301 16.9871 5.45422 16.9871C5.37663 16.9871 5.29905 17 5.22146 16.9871C5.18267 16.9871 5.14387 16.9742 5.11801 16.9483C5.09215 16.9095 5.07922 16.8319 5.06629 16.7802C5.01456 16.4957 5.01456 16.2112 5.04043 15.9268C5.18267 15.9785 5.33784 16.0173 5.49301 16.0431C5.45422 16.3018 5.51887 16.6768 5.54474 16.7802C5.58353 16.8319 5.59646 16.8966 5.60939 16.9483Z" fill="white"/>
<path d="M5.14426 14.6595C5.01495 14.8146 4.89857 14.9827 4.79512 15.1638C4.75633 15.2284 4.70461 15.306 4.66581 15.3836C4.61409 15.3707 4.56237 15.3448 4.52357 15.319C4.48478 15.2931 4.44599 15.2672 4.42012 15.2414C4.40719 15.2284 4.38133 15.2155 4.3684 15.2026C4.3684 15.2026 4.35547 15.2026 4.35547 15.1896C4.3684 15.1509 4.39426 15.125 4.39426 15.0991C4.42012 15.0345 4.44599 14.9827 4.48478 14.931C4.54943 14.8276 4.61409 14.7241 4.69168 14.6207C4.71754 14.5819 4.7434 14.5431 4.79512 14.5302C4.83392 14.5172 4.88564 14.5302 4.92443 14.5302C5.00202 14.5431 5.07961 14.5948 5.14426 14.6595Z" fill="white"/>
<path d="M4.14907 15.3447C4.162 15.3317 4.14907 15.3317 4.14907 15.3447C4.2008 15.3964 4.23959 15.4352 4.29131 15.474C4.31718 15.4869 4.33011 15.5128 4.35597 15.5257C4.35597 15.5257 4.35597 15.5257 4.35597 15.5386C4.30424 15.7585 4.26545 15.9912 4.26545 16.224C4.26545 16.2369 4.25252 16.2369 4.25252 16.224C4.18787 15.9524 4.11028 15.5128 4.14907 15.3447Z" fill="white"/>
<path d="M4.7832 15.8232C4.75734 16.0171 4.74441 16.2111 4.75734 16.4051C4.75734 16.5085 4.77027 16.612 4.7832 16.7283C4.75734 16.7283 4.73148 16.7283 4.70561 16.7283H4.69268H4.67975C4.65389 16.7154 4.65389 16.7154 4.62803 16.7025C4.60216 16.6896 4.5763 16.6508 4.55044 16.612C4.49872 16.5215 4.48579 16.418 4.48579 16.3146C4.47285 16.1206 4.49872 15.9137 4.53751 15.7197C4.56337 15.7327 4.60217 15.7456 4.64096 15.7585C4.69268 15.7844 4.73148 15.8102 4.7832 15.8232Z" fill="white"/>
<mask id="mask0_1870_25036" style="mask-type:luminance" maskUnits="userSpaceOnUse" x="-1" y="0" width="25" height="25">
<path d="M23.9961 12.501C23.9961 5.86736 18.6168 0.500977 11.9961 0.500977C5.36247 0.500977 -0.00390625 5.86736 -0.00390625 12.501C-0.00390625 19.1217 5.36247 24.501 11.9961 24.501C18.6168 24.501 23.9961 19.1217 23.9961 12.501Z" fill="white"/>
</mask>
<g mask="url(#mask0_1870_25036)">
<g opacity="0.8">
<path opacity="0.8" d="M9.87505 25.9113C8.99574 25.9113 8.16815 25.8595 7.46988 25.8078L7.27591 25.7949L7.08194 25.769C6.99143 25.7561 6.88798 25.7432 6.7716 25.7302C6.09919 25.6526 4.84488 25.5233 3.46125 24.8768L3.24143 24.7733L3.04746 24.657C0.383669 23.157 -0.59909 20.9199 -1.14219 19.7173C-1.18099 19.6397 -1.21978 19.5492 -1.25857 19.4587C-1.53012 18.9026 -1.69823 18.4113 -1.84047 17.9457L-1.86633 17.8423L-1.89219 17.7389C-2.28012 16.3682 -2.37064 15.1914 -2.20254 14.0147C-2.0215 12.838 -1.59478 11.7776 -0.831848 10.6526L-0.443917 10.019C-0.366331 9.88972 -0.314607 9.74747 -0.275814 9.60523C0.0216 8.13109 0.694014 7.08368 1.03022 6.57937C1.12074 5.97161 1.27591 5.37678 1.48281 4.79489L1.50867 4.70437L1.54746 4.61385C1.54746 4.60092 1.56039 4.57506 1.57332 4.53627C1.7285 4.08368 2.07763 3.03627 2.96988 1.9242L3.30608 1.53627L3.65522 1.22592C4.53453 0.424199 5.59488 -0.170629 6.73281 -0.506836C7.36643 -0.700802 8.02591 -0.817181 8.69832 -0.855974H8.76298H8.8535C8.96988 -0.855974 9.08625 -0.868905 9.1897 -0.868905C9.6035 -0.868905 10.0173 -0.830112 10.4311 -0.765457C10.6897 -0.726664 10.9483 -0.752526 11.194 -0.855974C11.9052 -1.15339 12.6423 -1.34735 13.4052 -1.4508C13.4699 -1.46373 13.5216 -1.46373 13.5733 -1.47666C13.6897 -1.48959 13.8837 -1.51546 14.1164 -1.54132C14.5173 -1.58011 15.138 -1.63184 15.7975 -1.63184C17.1035 -1.63184 18.2285 -1.46373 19.2371 -1.11459L19.3276 -1.08873L19.4052 -1.06287C21.6294 -0.222353 22.7544 0.954371 23.569 1.97592L23.6078 2.02765L23.7242 2.13109C24.4613 2.70006 25.0819 3.41127 25.5733 4.20006L25.7285 4.44575L25.8578 4.70437C26.944 6.91558 26.5949 8.97161 26.4656 9.73454L26.4526 9.77334C26.3621 10.3423 26.2069 10.8983 26.013 11.4414C25.9354 11.9587 25.819 12.4759 25.6509 12.9673C25.3664 13.8466 24.9397 14.6871 24.3966 15.4371C24.0863 15.8768 23.7242 16.3035 23.3363 16.6785C23.194 16.8078 23.1035 16.9889 23.0776 17.1828C23.0647 17.2992 23.0388 17.4156 23.0259 17.532C22.7026 19.2389 21.9656 20.4285 21.6552 20.907L20.7371 22.2259C19.625 23.6095 18.3061 24.5147 16.7156 25.0061L16.3276 25.1225L15.9138 25.2001C15.4354 25.2906 14.9569 25.3294 14.4656 25.3294C14.4009 25.3294 14.3363 25.3294 14.2587 25.3294H14.2328H14.1552H14.0647C13.8837 25.3294 13.7026 25.3682 13.5216 25.4199C12.4613 25.7561 11.2975 25.9113 9.87505 25.9113Z" stroke="url(#paint1_linear_1870_25036)" stroke-width="0.136474" stroke-miterlimit="10"/>
<path opacity="0.8" d="M9.8759 24.993C9.03538 24.993 8.22073 24.9413 7.54831 24.8895L7.39314 24.8766L7.23797 24.8508C7.13452 24.8378 7.01814 24.8249 6.90176 24.812C6.24228 24.7473 5.15607 24.618 3.94056 24.049L3.75952 23.9585L3.59142 23.868C1.22504 22.562 0.358659 20.6094 -0.158582 19.4456C-0.197376 19.368 -0.236169 19.2645 -0.287893 19.174C-0.533582 18.6826 -0.688755 18.2171 -0.818065 17.8033L-0.843927 17.7128L-0.869789 17.6352C-1.206 16.4068 -1.29651 15.3723 -1.14134 14.3508C-0.986169 13.3421 -0.598238 12.3982 0.0741762 11.4154L0.578487 10.6008C0.669004 10.4585 0.733659 10.2904 0.759521 10.1223C1.00521 8.72575 1.66469 7.743 1.96211 7.29041L2.0009 7.23869L2.01383 7.21282C2.01383 7.19989 2.02676 7.18696 2.02676 7.17403C2.03969 7.10937 2.06556 7.05765 2.07849 7.00593C2.15607 6.43696 2.29831 5.868 2.49228 5.32489L2.51814 5.24731L2.544 5.16972C2.55693 5.14386 2.55693 5.118 2.5828 5.04041C2.72504 4.61369 3.02245 3.72144 3.79831 2.76455L4.0828 2.42834L4.36728 2.16972C5.13021 1.47144 6.04831 0.954203 7.03107 0.66972C7.60004 0.501616 8.169 0.398168 8.76383 0.372306H8.81556H8.89314C8.99659 0.372306 9.08711 0.359375 9.17762 0.359375C9.60435 0.359375 10.0181 0.242996 10.4319 0.320582C10.7552 0.385237 11.0785 0.346444 11.3759 0.217134C11.9319 -0.0285561 12.6819 -0.119073 13.5354 -0.235453C13.6 -0.248384 13.6518 -0.248384 13.6906 -0.261315C13.8069 -0.274246 13.988 -0.300108 14.1949 -0.313039C14.5699 -0.351832 15.1518 -0.390625 15.7854 -0.390625C16.975 -0.390625 17.9837 -0.235453 18.8759 0.0619612L18.9535 0.0878233L19.0181 0.113685C20.9837 0.863685 21.9535 1.84644 22.7164 2.81627C22.7552 2.868 22.8069 2.91972 22.8199 2.94558L22.8328 2.95851L22.975 3.08782L22.988 3.11369C23.6475 3.618 24.2035 4.23869 24.6302 4.93696L24.7595 5.14386L24.863 5.36369C25.794 7.26455 25.5095 9.01024 25.3802 9.74731L25.3673 9.7861C25.2768 10.3292 25.1345 10.8464 24.9406 11.3637C24.8759 11.8551 24.7595 12.3464 24.6043 12.812C24.3457 13.5878 23.9707 14.3249 23.4923 14.9973C23.169 15.4628 22.7811 15.8895 22.3673 16.2645C22.1733 16.4456 22.044 16.6783 22.0181 16.9499C21.9923 17.1439 21.9664 17.3249 21.9406 17.5189C21.6561 19.0318 21.0095 20.0663 20.6992 20.5318L19.9492 21.618C18.9535 22.8982 17.7768 23.7258 16.3543 24.1654L16.0311 24.2689L15.6819 24.3335C15.2681 24.4111 14.8414 24.4499 14.4276 24.437C14.363 24.437 14.2983 24.437 14.2337 24.437H14.2207H14.1819C14.1819 24.437 14.169 24.437 14.1431 24.437H14.0656H13.988H13.8457C13.6518 24.4499 13.4578 24.4758 13.2638 24.5404C12.3199 24.8508 11.2207 24.993 9.8759 24.993Z" stroke="url(#paint2_linear_1870_25036)" stroke-width="0.136474" stroke-miterlimit="10"/>
<path opacity="0.8" d="M9.87528 23.9197C9.07356 23.9197 8.28477 23.868 7.62528 23.8162L7.49597 23.8033L7.36666 23.7904C7.25028 23.7774 7.12097 23.7645 6.99166 23.7516C6.37097 23.6869 5.42701 23.5835 4.36666 23.0792L4.22442 23.0145L4.09511 22.9369C2.06494 21.799 1.31494 20.118 0.82356 19.0059C0.784767 18.9154 0.733043 18.799 0.69425 18.7085C0.474422 18.2688 0.332181 17.855 0.215802 17.4671L0.18994 17.4024L0.177009 17.3378C-0.120405 16.2774 -0.197991 15.3723 -0.068681 14.5188C0.0606294 13.6524 0.409767 12.8378 1.00459 11.9714L1.08218 11.868L1.15977 11.7645C1.21149 11.6999 1.25028 11.6352 1.30201 11.5835L1.59942 11.0274C1.70287 10.8464 1.76753 10.6524 1.79339 10.4455C1.98735 9.20417 2.58218 8.31193 2.85373 7.89813C2.86666 7.87227 2.89253 7.84641 2.90546 7.83348L2.97011 7.74296C2.99597 7.69124 3.02184 7.62658 3.0477 7.549C3.07356 7.47141 3.11235 7.35503 3.13822 7.25158C3.20287 6.72141 3.33218 6.20417 3.51322 5.69986L3.53908 5.6352L3.56494 5.57055C3.57787 5.51882 3.60373 5.48003 3.62959 5.38951C3.75891 4.98865 4.00459 4.25158 4.66408 3.44986L4.8839 3.17831L5.11666 2.97141C5.76321 2.37658 6.53908 1.94986 7.37959 1.69124C7.87097 1.549 8.36235 1.45848 8.87959 1.43262H8.91839H8.98304C9.06063 1.43262 9.13822 1.43262 9.22873 1.43262C9.66839 1.43262 10.0951 1.48434 10.5218 1.60072C10.8839 1.69124 11.2718 1.65244 11.608 1.48434C12.1511 1.22572 12.8753 0.941238 13.7158 0.83779C13.7675 0.824859 13.8192 0.824859 13.858 0.811928C13.9615 0.798997 14.1296 0.773134 14.3365 0.760203C14.6856 0.72141 15.2417 0.682617 15.8236 0.682617C16.8839 0.682617 17.7761 0.811928 18.5649 1.08348L18.6167 1.10934L18.6684 1.1352C20.4787 1.82055 21.2805 2.71279 21.9011 3.50158C22.0434 3.66969 22.0563 3.69555 22.1468 3.78607L22.2632 3.88951L22.302 3.94124C22.5994 4.174 23.2072 4.65244 23.7374 5.51882L23.8408 5.68693L23.9313 5.85503C24.7201 7.44555 24.4744 8.89382 24.358 9.5921L24.3451 9.63089C24.2675 10.1352 24.1253 10.6395 23.9184 11.118V11.1568C23.8667 11.6093 23.7632 12.0619 23.621 12.4887C23.4011 13.174 23.0779 13.8076 22.6511 14.3895C22.302 14.8938 21.8753 15.3464 21.3968 15.7343C21.2805 15.8249 21.1899 15.9412 21.1253 16.0705C21.0606 16.1999 21.0218 16.3421 21.0089 16.4843C20.996 16.7688 20.9572 17.0533 20.9055 17.3378C20.6598 18.6438 20.0908 19.549 19.8063 20.0016L19.2244 20.855C18.358 22.0188 17.3236 22.7688 16.0693 23.1568L15.8106 23.2343L15.5261 23.2861C15.177 23.3507 14.8149 23.3766 14.4529 23.3766C14.4011 23.3766 14.3365 23.3766 14.2718 23.3766H14.2589H14.1943C14.1813 23.3766 14.1555 23.3766 14.0908 23.3766H14.0261H13.9744L13.677 23.3895C13.4701 23.4024 13.2632 23.4283 13.0692 23.5059C12.177 23.7904 11.1555 23.9197 9.87528 23.9197Z" stroke="url(#paint3_linear_1870_25036)" stroke-width="0.12794" stroke-miterlimit="10"/>
<path opacity="0.8" d="M9.87546 22.8466C9.11253 22.8466 8.3496 22.7949 7.71598 22.7432L7.62546 22.7303L7.53494 22.7173C7.40563 22.7044 7.26339 22.6785 7.13408 22.6656C6.55218 22.601 5.75046 22.5104 4.84529 22.0966L4.74184 22.0449L4.63839 21.9932C2.91856 21.0234 2.28494 19.601 1.81943 18.5665C1.7677 18.463 1.71598 18.3466 1.67718 18.2432C1.48322 17.8423 1.35391 17.4673 1.25046 17.1441L1.23753 17.0923L1.19874 17.0535C0.694426 15.2691 0.888391 14.0147 1.87115 12.5794L1.92287 12.5018L1.9746 12.4242C2.03925 12.3466 2.10391 12.2561 2.16856 12.1785C2.25908 12.0622 2.3496 11.9329 2.45305 11.8165C2.5177 11.7389 2.56943 11.6484 2.60822 11.5579L2.7246 11.2734C2.77632 11.1441 2.80218 11.0147 2.81512 10.8854C2.91856 9.73458 3.4746 8.90699 3.74615 8.4932C3.77201 8.46734 3.79787 8.41561 3.81081 8.40268L3.87546 8.29923L3.90132 8.27337C3.94012 8.20871 4.00477 8.05354 4.05649 7.89837C4.08236 7.79492 4.13408 7.62682 4.18581 7.48458V7.47165C4.23753 6.9932 4.35391 6.51475 4.52201 6.06216L4.53494 6.02337L4.54787 5.98458C4.57374 5.90699 4.5996 5.84234 4.62546 5.75182C4.74184 5.40268 4.9358 4.80785 5.46598 4.14837L5.63408 3.94147L5.80218 3.7863C7.05649 2.64837 8.45305 2.55785 8.91856 2.51906H8.94443H8.99615C9.0608 2.51906 9.12546 2.51906 9.19012 2.51906C9.74615 2.51906 10.2893 2.63544 10.8065 2.85527C10.897 2.89406 11.0005 2.90699 11.091 2.90699C11.1944 2.90699 11.2849 2.88113 11.3755 2.8294C11.8539 2.55785 12.7203 2.05354 13.8324 1.92423C13.8841 1.9113 13.9358 1.9113 13.9746 1.9113C14.078 1.89837 14.2332 1.88544 14.4143 1.85958C14.7505 1.83371 15.2548 1.79492 15.7979 1.79492C16.7418 1.79492 17.5177 1.9113 18.1772 2.13113L18.216 2.14406L18.2548 2.15699C19.8065 2.73889 20.466 3.47596 21.022 4.17423C21.1643 4.3682 21.2418 4.44578 21.397 4.60096L21.4875 4.67854L21.5522 4.75613L21.6039 4.79492C21.8625 5.00182 22.3539 5.37682 22.7936 6.08803L22.8711 6.21734L22.9358 6.34665C23.5694 7.63975 23.3625 8.80354 23.2591 9.42423V9.46303C23.1815 9.91561 23.0522 10.3682 22.8711 10.7949L22.8582 10.8337C22.8582 10.8466 22.8582 10.8466 22.8453 10.8725C22.8324 10.9113 22.8324 10.9501 22.8324 10.9889L22.8194 11.0406C22.7806 11.4285 22.6901 11.8035 22.5608 12.1656C22.3668 12.7475 22.0953 13.2906 21.7332 13.782C21.3841 14.2863 20.9832 14.7001 20.5436 15.0234C20.3496 15.1656 20.1944 15.3466 20.078 15.5665C19.9617 15.7863 19.9099 16.0191 19.9099 16.2647C19.9099 16.5622 19.8711 16.8725 19.8194 17.1699C19.6125 18.282 19.147 19.032 18.8496 19.4846L18.4229 20.1182C17.6729 21.1656 16.7806 21.838 15.7074 22.1742L15.6556 22.1872C15.5651 22.213 15.4746 22.2389 15.3841 22.2518L15.3194 22.2647C15.022 22.3165 14.7246 22.3423 14.4272 22.3423C14.3755 22.3423 14.3237 22.3423 14.272 22.3423H14.2591C14.2332 22.3423 14.2074 22.3423 14.1815 22.3423C14.1556 22.3423 14.1039 22.3423 14.0005 22.3423H13.9617H13.9229C13.7806 22.3423 13.5996 22.3553 13.4444 22.3553C13.2246 22.3682 13.0177 22.407 12.8108 22.4846C12.0349 22.7173 11.091 22.8466 9.87546 22.8466Z" stroke="url(#paint4_linear_1870_25036)" stroke-width="0.119418" stroke-miterlimit="10"/>
<path opacity="0.8" d="M9.87594 21.7736C9.13887 21.7736 8.41473 21.7218 7.79404 21.6701H7.72939L7.66473 21.6572C7.52249 21.6313 7.36732 21.6184 7.22508 21.6055C6.68197 21.5408 6.00956 21.4762 5.28542 21.127L5.20783 21.0882L5.14318 21.0494C3.7337 20.2606 3.20352 19.071 2.78973 18.1141C2.73801 17.9977 2.68628 17.8813 2.63456 17.752C2.46646 17.4158 2.35008 17.0796 2.25956 16.7951L2.24663 16.7563L2.2337 16.7175C1.8199 15.2434 1.96214 14.3124 2.76387 13.1486L2.80266 13.0968L2.84146 13.0451C2.90611 12.9546 2.97077 12.877 3.03542 12.7865C3.24232 12.515 3.44921 12.2434 3.74663 11.9201C3.81128 11.8555 3.85008 11.752 3.86301 11.6615L3.87594 11.3641L3.86301 11.2477V11.1313C3.88887 10.1744 4.36732 9.46323 4.62594 9.0753C4.6518 9.0365 4.69059 8.98478 4.70352 8.95892L4.74232 8.89426L4.78111 8.84254C4.83283 8.76495 4.94921 8.4934 5.05266 8.24771C5.09145 8.14426 5.14318 7.93737 5.20783 7.76926C5.22077 7.71754 5.22077 7.70461 5.2337 7.58823C5.27249 7.18736 5.37594 6.7865 5.50525 6.4115L5.51818 6.38564L5.53111 6.35978C5.5699 6.25633 5.59577 6.17874 5.63456 6.0753C5.73801 5.76495 5.89318 5.31237 6.29404 4.80805L6.41042 4.66581L6.5268 4.56237C7.40611 3.77357 8.35008 3.6184 8.99663 3.57961H9.02249H9.04835C9.10008 3.57961 9.13887 3.57961 9.19059 3.57961C9.7337 3.57961 10.3932 3.83823 10.7423 4.00633C10.8199 4.04512 10.9104 4.07099 11.0009 4.07099C11.0915 4.07099 11.182 4.05805 11.2725 4.03219C11.4923 3.95461 11.6992 3.86409 11.8932 3.76064C12.3328 3.50202 13.057 3.08823 13.9621 2.98478C14.0139 2.97185 14.0527 2.97185 14.0915 2.97185C14.182 2.95892 14.3242 2.94599 14.5052 2.92012C14.8156 2.89426 15.2811 2.85547 15.7854 2.85547C16.6001 2.85547 17.2725 2.94599 17.8156 3.13995L17.8415 3.15288L17.8673 3.16581C19.1604 3.65719 19.6777 4.21323 20.169 4.84685C20.3242 5.05374 20.4406 5.19599 20.6734 5.40288L20.7251 5.45461L20.7768 5.50633C20.8285 5.55805 20.8802 5.59685 20.932 5.63564C21.1518 5.80374 21.5268 6.10116 21.8501 6.64426L21.9018 6.72185L21.9406 6.81236C22.419 7.78219 22.2639 8.7003 22.1734 9.2434V9.28219C22.1087 9.65719 22.0052 10.0193 21.8501 10.3684C21.8113 10.4589 21.7854 10.5494 21.7596 10.6529C21.7466 10.7175 21.7337 10.7822 21.7337 10.8339L21.7208 10.8856C21.682 11.196 21.6173 11.5063 21.5139 11.8037C21.3587 12.2822 21.1259 12.7348 20.8415 13.1356C20.4018 13.7563 19.8975 14.196 19.2897 14.4805C19.1475 14.5451 19.0182 14.6486 18.9277 14.7908C18.8371 14.9201 18.7854 15.0882 18.7725 15.2434C18.7725 15.3081 18.7725 15.3598 18.7725 15.3986C18.7984 15.8641 18.8371 16.3943 18.7337 16.9503C18.5656 17.8555 18.1777 18.4632 17.8932 18.9158C17.8932 18.9158 16.5742 20.752 15.3716 21.127L15.2423 21.1658L15.1001 21.1917C14.8673 21.2305 14.6346 21.2563 14.3889 21.2563C14.3501 21.2563 14.2984 21.2563 14.2466 21.2563C14.2208 21.2563 14.182 21.2563 14.1432 21.2563C14.0915 21.2563 14.0139 21.2563 13.8975 21.2693H13.8716H13.8458C13.3802 21.2822 12.9535 21.2951 12.8242 21.321C12.7596 21.3339 12.6949 21.3468 12.6302 21.3727C11.9966 21.6443 11.1044 21.7736 9.87594 21.7736Z" stroke="url(#paint5_linear_1870_25036)" stroke-width="0.110884" stroke-miterlimit="10"/>
<path opacity="0.8" d="M9.87426 20.713C9.17599 20.713 8.47771 20.6612 7.88288 20.6224H7.85702H7.83116C7.66306 20.5966 7.50788 20.5836 7.36564 20.5707C6.86133 20.519 6.33116 20.4543 5.76219 20.1957L5.7234 20.1828L5.68461 20.1699C4.58547 19.5492 4.17168 18.6311 3.78375 17.7388C3.73202 17.6095 3.66737 17.4802 3.60271 17.3509C3.4734 17.0923 3.36995 16.8078 3.29237 16.5362V16.5233V16.5104C2.95616 15.3336 3.04668 14.7388 3.66737 13.8336L3.6803 13.8078L3.69323 13.7819C3.77082 13.6914 3.83547 13.6009 3.90013 13.5233C4.19754 13.1354 4.45616 12.7992 5.03806 12.2561C5.07685 12.2173 5.11564 12.1655 5.12857 12.1009C5.1415 12.0492 5.1415 11.9845 5.11564 11.9328L5.01219 11.6354C4.98633 11.5449 4.9734 11.4414 4.9734 11.3509V11.2733V11.2086C4.99926 10.5621 5.33547 10.0578 5.5553 9.72158C5.59409 9.66985 5.61995 9.61813 5.64582 9.57934L5.67168 9.54054L5.69754 9.50175C5.81392 9.34658 6.00788 8.89399 6.11133 8.62244C6.13719 8.53192 6.20185 8.3121 6.2665 8.14399C6.3053 8.01468 6.33116 7.88537 6.34409 7.75606C6.38288 7.43279 6.44754 7.10951 6.56392 6.8121V6.79916V6.78623C6.61564 6.65692 6.65444 6.55348 6.6803 6.45003C6.77082 6.17848 6.87426 5.86813 7.15875 5.51899L7.21047 5.45434L7.26219 5.40261C7.88288 4.83365 8.56823 4.7302 9.08547 4.69141H9.0984H9.11133C9.13719 4.69141 9.17599 4.69141 9.20185 4.69141C9.71909 4.69141 10.107 4.8983 10.3656 5.04054L10.4303 5.06641H10.4432C10.5208 5.1052 10.5725 5.14399 10.6372 5.16985C10.7924 5.24744 10.9863 5.2733 11.1544 5.22158C11.5165 5.13106 12.0725 4.91123 12.4346 4.70434H12.4475C12.8355 4.47158 13.4303 4.13537 14.1286 4.05779C14.1674 4.04485 14.2191 4.04485 14.2579 4.04485C14.3355 4.03192 14.4777 4.01899 14.6329 4.00606C14.9174 3.9802 15.357 3.94141 15.8096 3.94141C16.5079 3.94141 17.0639 4.01899 17.4906 4.16123H17.5036H17.5165C18.551 4.54916 18.9389 4.96296 19.3527 5.50606C19.5208 5.72589 19.6889 5.93279 19.9993 6.20434L20.0251 6.2302L20.051 6.25606C20.1286 6.33365 20.2191 6.41123 20.3225 6.48882C20.5036 6.63106 20.7622 6.82503 20.982 7.20003L21.0079 7.23882L21.0337 7.27761C21.357 7.95003 21.2536 8.58365 21.176 9.0621V9.10089C21.1243 9.3983 21.0467 9.68279 20.9174 9.96727C20.8527 10.1224 20.801 10.2905 20.7751 10.4586C20.7622 10.5621 20.7493 10.6397 20.7363 10.7043L20.7234 10.7561C20.6975 11.0018 20.6458 11.2345 20.5682 11.4673C20.4519 11.8423 20.2708 12.1914 20.0381 12.5147C19.6501 13.0836 19.2105 13.4328 18.6286 13.6138C18.3441 13.7043 18.1113 13.8854 17.9562 14.1311L17.9044 14.1957L17.8527 14.2604C17.7105 14.4285 17.7493 15.075 17.7751 15.463C17.801 15.8897 17.8268 16.3293 17.7493 16.7431C17.62 17.4543 17.3096 17.9328 17.0381 18.3466C17.0381 18.3466 16.0294 19.8078 15.1113 20.0793L15.0467 20.1052L14.982 20.1181C14.8139 20.144 14.6329 20.1699 14.4518 20.1699C14.4131 20.1699 14.3743 20.1699 14.3225 20.1699C14.2837 20.1699 14.245 20.1699 14.1932 20.1699C14.1286 20.1699 14.0381 20.1699 13.8829 20.1828H13.87H13.857C13.2493 20.2086 12.8743 20.2216 12.6674 20.2604C12.5251 20.2862 12.3958 20.325 12.2665 20.3768C11.7105 20.5966 10.9605 20.713 9.87426 20.713Z" stroke="url(#paint6_linear_1870_25036)" stroke-width="0.110884" stroke-miterlimit="10"/>
</g>
</g>
</g>
<defs>
<radialGradient id="paint0_radial_1870_25036" cx="0" cy="0" r="1" gradientUnits="userSpaceOnUse" gradientTransform="translate(11.9985 13.7537) rotate(90) scale(13.48)">
<stop offset="0.1667" stop-color="#073183"/>
<stop offset="1" stop-color="#0054F9"/>
</radialGradient>
<linearGradient id="paint1_linear_1870_25036" x1="-1.68481" y1="-2.19626" x2="25.8102" y2="26.6613" gradientUnits="userSpaceOnUse">
<stop offset="0.2057" stop-color="#89D0FF"/>
<stop offset="0.3984" stop-color="#EBBF9A"/>
<stop offset="0.6015" stop-color="#EB8280"/>
<stop offset="0.8411" stop-color="#A281FF"/>
</linearGradient>
<linearGradient id="paint2_linear_1870_25036" x1="-0.617763" y1="-0.954767" x2="24.7296" y2="25.7576" gradientUnits="userSpaceOnUse">
<stop offset="0.2057" stop-color="#89D0FF"/>
<stop offset="0.3984" stop-color="#EBBF9A"/>
<stop offset="0.6015" stop-color="#EB80DA"/>
<stop offset="0.8411" stop-color="#A281FF"/>
</linearGradient>
<linearGradient id="paint3_linear_1870_25036" x1="0.458453" y1="0.118772" x2="23.6577" y2="24.6853" gradientUnits="userSpaceOnUse">
<stop offset="0.2057" stop-color="#89D0FF"/>
<stop offset="0.3984" stop-color="#EBBF9A"/>
<stop offset="0.6015" stop-color="#EB8280"/>
<stop offset="0.8411" stop-color="#A281FF"/>
</linearGradient>
<linearGradient id="paint4_linear_1870_25036" x1="1.53399" y1="1.19631" x2="22.5804" y2="23.6105" gradientUnits="userSpaceOnUse">
<stop offset="0.2057" stop-color="#89D0FF"/>
<stop offset="0.3984" stop-color="#EBBF9A"/>
<stop offset="0.6015" stop-color="#EB80E7"/>
<stop offset="0.8411" stop-color="#A281FF"/>
</linearGradient>
<linearGradient id="paint5_linear_1870_25036" x1="2.60355" y1="2.27587" x2="21.5011" y2="22.536" gradientUnits="userSpaceOnUse">
<stop offset="0.2057" stop-color="#89D0FF"/>
<stop offset="0.3984" stop-color="#EBBF9A"/>
<stop offset="0.6015" stop-color="#EB80D3"/>
<stop offset="0.8411" stop-color="#A281FF"/>
</linearGradient>
<linearGradient id="paint6_linear_1870_25036" x1="3.68485" y1="3.34199" x2="20.4318" y2="21.4562" gradientUnits="userSpaceOnUse">
<stop offset="0.2057" stop-color="#89D0FF"/>
<stop offset="0.3984" stop-color="#EBBF9A"/>
<stop offset="0.6015" stop-color="#A280EB"/>
<stop offset="0.8411" stop-color="#A281FF"/>
</linearGradient>
<clipPath id="clip0_1870_25036">
<rect width="24" height="24" fill="white" transform="translate(0 0.5)"/>
</clipPath>
</defs>
</svg>
