<svg width="24" height="24" fill="none" xmlns="http://www.w3.org/2000/svg">
    <rect width="24" height="24" rx="12" fill="#213147"/>
    <g clip-path="url(#a)">
        <path d="M4.627 8.472v7.056c0 .454.238.864.634 1.094l6.113 3.528a1.27 1.27 0 0 0 1.26 0l6.112-3.528c.39-.223.634-.64.634-1.094V8.472c0-.454-.238-.864-.634-1.094L12.634 3.85a1.27 1.27 0 0 0-1.26 0L5.26 7.378c-.389.223-.627.64-.627 1.094h-.007Z" fill="#213147"/>
        <path d="m13.335 13.368-.872 2.39a.344.344 0 0 0 0 .21l1.498 4.11 1.735-1-2.08-5.71a.15.15 0 0 0-.281 0ZM15.082 9.35a.15.15 0 0 0-.28 0l-.872 2.39a.344.344 0 0 0 0 .21l2.456 6.732 1.735-1.001-3.039-8.323V9.35Z" fill="#12AAFF"/>
        <path d="M12 4.116c.043 0 .086.014.122.036l6.61 3.816c.08.043.122.13.122.216v7.632a.26.26 0 0 1-.122.216l-6.61 3.816a.243.243 0 0 1-.122.036.243.243 0 0 1-.122-.036l-6.61-3.816a.245.245 0 0 1-.122-.216v-7.64a.26.26 0 0 1 .122-.215l6.61-3.816A.243.243 0 0 1 12 4.109v.007ZM12 3a1.37 1.37 0 0 0-.684.18l-6.61 3.816a1.358 1.358 0 0 0-.684 1.18v7.633c0 .49.26.936.684 1.18l6.61 3.817c.209.122.446.18.684.18.238 0 .468-.058.684-.18l6.61-3.816c.424-.245.684-.692.684-1.181V8.177c0-.49-.26-.936-.684-1.181L12.677 3.18a1.35 1.35 0 0 0-.684-.18H12Z" fill="#9DCCED"/>
        <path d="m7.622 18.689.612-1.67 1.224 1.015-1.144 1.05-.692-.395Z" fill="#213147"/>
        <path d="M11.438 7.637H9.761a.304.304 0 0 0-.281.194l-3.593 9.85 1.735 1 3.96-10.85a.148.148 0 0 0-.136-.201l-.008.007ZM14.375 7.637h-1.677a.304.304 0 0 0-.281.194L8.313 19.078l1.735 1 4.464-12.247a.148.148 0 0 0-.137-.201v.007Z" fill="#fff"/>
    </g>
    <defs>
        <clipPath id="a">
            <path fill="#fff" d="M3 3h18v18H3z"/>
        </clipPath>
    </defs>
</svg>
