<svg width="24" height="24" viewBox="0 0 24 24" fill="none" xmlns="http://www.w3.org/2000/svg">
<g clip-path="url(#clip0_10299_48192)">
<path d="M12 24C18.6274 24 24 18.6274 24 12C24 5.37258 18.6274 0 12 0C5.37258 0 0 5.37258 0 12C0 18.6274 5.37258 24 12 24Z" fill="#0AC18E"/>
<path d="M15.7431 7.97055C15.1401 6.60304 13.7543 6.31065 12.0578 6.5939L11.5127 4.48019L10.2274 4.81217L10.7634 6.91979C10.4254 7.00507 10.0781 7.07816 9.73398 7.17563L9.19794 5.08019L7.91266 5.41217L8.45784 7.52588C8.18068 7.60507 5.86292 8.19898 5.86292 8.19898L6.21621 9.57563C6.21621 9.57563 7.16038 9.31065 7.15124 9.33197C7.6751 9.19491 7.9218 9.45684 8.03753 9.70354L9.53601 15.4964C9.55429 15.6639 9.52383 15.9502 9.16444 16.0477C9.18576 16.0599 8.22941 16.2883 8.22941 16.2883L8.36951 17.8934C8.36951 17.8934 10.666 17.3056 10.9675 17.2294L11.5188 19.3675L12.804 19.0355L12.2528 16.8822C12.6061 16.8 12.9502 16.7147 13.2853 16.6264L13.8335 18.7675L15.1188 18.4355L14.5675 16.3005C16.5472 15.8193 17.9451 14.5705 17.6589 12.6609C17.4761 11.5096 16.2182 10.5655 15.1736 10.4589C15.8162 9.88933 16.1421 9.05786 15.7431 7.97055ZM15.1248 13.0112C15.3807 14.9025 12.7523 15.134 11.8842 15.3624L11.1289 12.533C12 12.3046 14.6924 11.3452 15.1248 13.0112ZM13.5411 9.15837C13.8122 10.8396 11.5644 11.0345 10.8396 11.2203L10.1512 8.65278C10.8792 8.47309 12.9898 7.60202 13.5411 9.15837Z" fill="white"/>
</g>
<defs>
<clipPath id="clip0_10299_48192">
<rect width="24" height="24" fill="white"/>
</clipPath>
</defs>
</svg>
