<svg width="24" height="24" viewBox="0 0 24 24" fill="none" xmlns="http://www.w3.org/2000/svg">
<g clip-path="url(#clip0_7458_385474)">
<path d="M12 24C18.6274 24 24 18.6274 24 12C24 5.37258 18.6274 0 12 0C5.37258 0 0 5.37258 0 12C0 18.6274 5.37258 24 12 24Z" fill="#988430"/>
<path d="M12 23.6156C18.4151 23.6156 23.6156 18.4151 23.6156 12C23.6156 5.58486 18.4151 0.384369 12 0.384369C5.58489 0.384369 0.384399 5.58486 0.384399 12C0.384399 18.4151 5.58489 23.6156 12 23.6156Z" fill="#7A6A2A"/>
<path d="M12 23.3709C18.28 23.3709 23.3709 18.28 23.3709 12C23.3709 5.72004 18.28 0.62912 12 0.62912C5.72007 0.62912 0.62915 5.72004 0.62915 12C0.62915 18.28 5.72007 23.3709 12 23.3709Z" fill="#BA9F33"/>
<path fill-rule="evenodd" clip-rule="evenodd" d="M5.24659 10.7185C5.17862 10.6564 5.10681 10.5942 5.04076 10.5321C4.97471 10.47 4.90687 10.4078 4.83891 10.3457L4.63692 10.1537C4.6039 10.1207 4.56895 10.0917 4.53593 10.0585C4.5029 10.0294 4.46412 9.99642 4.4311 9.96724C4.16306 9.7129 3.8935 9.45857 3.62918 9.2041C3.90297 9.4546 4.171 9.7033 4.44479 9.95751L4.5399 10.0527C4.57292 10.0856 4.60787 10.1148 4.64089 10.1478L4.84274 10.3342C4.91071 10.3963 4.97676 10.4585 5.04473 10.5262C5.1127 10.5939 5.17874 10.6563 5.24671 10.7182L5.24659 10.7185ZM1.68934 10.6801C1.68934 10.6801 2.66406 10.7809 3.13983 10.8489C3.58054 10.9111 4.95922 11.1227 4.95922 11.1227L1.68934 10.6801ZM1.68934 10.6801C1.96313 10.7034 2.23692 10.7324 2.51071 10.7616C2.65049 10.7752 2.7845 10.7907 2.91852 10.8042L3.12422 10.8277C3.19218 10.8373 3.25823 10.847 3.3262 10.8567L4.14182 10.9868L4.5495 11.0547C4.68351 11.078 4.81753 11.1034 4.9573 11.1267C4.82329 11.1131 4.68351 11.0936 4.5495 11.0742L4.14182 11.0159L3.3262 10.8956C3.25823 10.8859 3.19218 10.8722 3.12422 10.8626L2.91839 10.8389C2.78438 10.8253 2.6446 10.8059 2.51058 10.7903C2.23679 10.7574 1.963 10.7223 1.68921 10.6797L1.68934 10.6801ZM4.8622 11.3766C4.8622 11.3766 3.82143 11.6408 3.46994 11.7418C3.12434 11.8369 2.07769 12.1554 2.07769 12.1554L4.86207 11.3768L4.8622 11.3766Z" fill="#CFB66C"/>
<path fill-rule="evenodd" clip-rule="evenodd" d="M4.86209 11.3766C4.63105 11.4446 4.40129 11.5107 4.16692 11.5729L3.47175 11.7592C3.24071 11.8272 3.01095 11.8933 2.78055 11.9612L2.43495 12.0563C2.32039 12.0894 2.20391 12.1184 2.08551 12.1516C2.19994 12.1132 2.31655 12.0739 2.43111 12.0408L2.77671 11.9302C3.00775 11.8583 3.23751 11.7903 3.46791 11.7185C3.70279 11.6603 3.93396 11.5981 4.16884 11.5418C4.39207 11.4854 4.62708 11.4293 4.86209 11.3768V11.3766ZM2.22337 12.7962C2.3378 12.7534 3.65825 12.138 3.96506 11.9942C4.11866 11.9223 4.56513 11.7638 4.56513 11.7638L2.22337 12.7962Z" fill="#CFB66C"/>
<path fill-rule="evenodd" clip-rule="evenodd" d="M2.22333 12.7962C2.3242 12.7578 2.41943 12.7108 2.51645 12.6661L2.80381 12.5321L3.38058 12.2545C3.57258 12.1632 3.75921 12.0625 3.95722 11.9767C4.05821 11.9341 4.15921 11.8991 4.26007 11.8661L4.41367 11.8176C4.46602 11.804 4.51466 11.7884 4.56727 11.7748C4.37527 11.8661 4.17316 11.9438 3.9809 12.033C3.7889 12.1282 3.59255 12.2059 3.39441 12.2913L2.80804 12.5495C2.61117 12.6292 2.41917 12.7146 2.22321 12.7962H2.22333ZM2.35133 13.3338C2.35133 13.3338 3.54737 12.6328 3.95901 12.4075C4.17457 12.2872 4.87165 11.9415 4.87165 11.9415L2.35133 13.3338Z" fill="#CFB66C"/>
<path fill-rule="evenodd" clip-rule="evenodd" d="M2.3515 13.334C2.55336 13.2097 2.75918 13.0835 2.96501 12.9554L3.27221 12.7689C3.37704 12.7068 3.47803 12.6486 3.58491 12.5865C3.68974 12.5243 3.79073 12.4622 3.89749 12.404C3.9483 12.3726 4.00155 12.3453 4.05672 12.3224L4.21979 12.2409C4.43534 12.1361 4.65089 12.0292 4.87809 11.9379C4.67227 12.0681 4.46056 12.1788 4.24897 12.2933C4.14414 12.3515 4.03726 12.404 3.93243 12.4622C3.8276 12.5205 3.72661 12.5827 3.61973 12.639C3.51489 12.7011 3.4139 12.7593 3.30715 12.8156L2.99061 12.9884L2.35176 13.334H2.3515ZM4.86209 12.0951C4.86209 12.0951 4.11841 12.666 3.87765 12.8485C3.63688 13.031 2.92814 13.5437 2.92814 13.5437L4.86209 12.0951Z" fill="#CFB66C"/>
<path fill-rule="evenodd" clip-rule="evenodd" d="M9.13012 16.699L8.74957 15.9786L8.97088 15.0776L10.5495 14.468L9.87764 13.0894L10.2097 11.6971L10.833 10.4504L12.7593 10.1476L14.1747 8.79807L17.2311 9.02911L17.831 12.2971L16.6757 16.4116L16.0175 18.5418L13.3495 18.6428L12.1107 17.7846L10.6602 17.1786L9.13012 16.699Z" fill="#E2CC85"/>
<path fill-rule="evenodd" clip-rule="evenodd" d="M13.8098 16.6757C13.8098 16.6757 13.4408 16.8447 12.8114 16.8058C12.6293 16.5611 11.3536 16.4466 11.3536 16.4466C11.3536 16.4466 11.1944 16.3981 10.9128 16.5146C10.6294 16.6298 10.3614 16.6155 10.1109 16.6776C9.86038 16.7397 9.61167 16.4136 9.41967 16.3456C9.22767 16.2738 8.97308 16.101 8.97308 16.101L8.43548 16.0485L7.35593 15.5922L5.64086 13.8835L5.17481 14.6131L5.03107 15.516L5.54959 16.586L6.94569 17.8578L9.66799 18.549L11.2816 18.0736L13.3029 17.2192L13.8098 16.6756V16.6757Z" fill="#F1D789"/>
<path fill-rule="evenodd" clip-rule="evenodd" d="M4.13786 10.6369L4.48346 9.59039L4.89523 8.91455L6.22131 8.80383L5.82323 9.96505L4.71463 11.9379L5.17479 13.6991L4.3593 14.1067L4.10867 13.7224L3.90682 12.8408L3.89325 11.8505L4.13786 10.6369Z" fill="#F4ECB4"/>
<path fill-rule="evenodd" clip-rule="evenodd" d="M5.62519 16.6039L5.37085 16.2486C5.37085 16.2486 5.30288 16.0796 5.3418 15.932C5.3802 15.7825 5.37469 15.7728 5.35536 15.7165C5.33604 15.6602 5.17284 15.466 5.18256 15.2989C5.19216 15.13 5.169 15.0737 5.29316 14.9398C5.4232 14.8097 5.38442 14.5844 5.38442 14.5844L5.55338 14.6893L5.59178 14.631C5.59178 14.631 5.65386 14.6795 5.65386 14.7553C5.66743 14.6505 5.61111 14.165 5.73924 14.0544C5.86736 13.9438 6.09456 14.5728 6.09456 14.5728L5.95479 13.6602L5.59549 12.7243L4.95664 11.8699L4.91824 10.9281V10.8466C4.91824 10.8466 4.625 11.2971 4.54346 11.653C4.48522 11.8976 4.625 12.1947 4.59594 12.5462C4.57252 12.8957 4.54346 12.8685 4.62884 13.007C4.71421 13.1455 4.92208 13.4303 4.84055 13.6361C4.76874 13.8129 4.524 13.6886 4.524 13.6886C4.524 13.6886 4.47549 13.8322 4.40944 13.8847C4.38615 13.7993 4.36093 13.7449 4.31434 13.6927C4.31037 13.7257 4.30077 13.7704 4.30077 13.7704C4.30077 13.7704 4.25802 13.6363 4.21527 13.4674C4.15716 13.2422 4.09495 12.9451 4.03863 12.7859C4.01533 12.8772 3.95709 13.1548 3.95709 13.1548L3.99012 13.5821L4.14935 14.1684L4.30295 14.5524L4.45245 15.0223L4.58237 15.338L4.6872 15.5787L4.77847 16.1206L5.21917 16.5865L5.45418 16.6915L5.62493 16.604L5.62519 16.6039Z" fill="#F3E19D"/>
<path fill-rule="evenodd" clip-rule="evenodd" d="M4.36889 9.78253C4.36889 9.78253 4.05234 10.3201 3.96121 10.8621C3.87007 11.404 3.78841 11.9767 3.84601 12.7145C3.90425 13.4583 4.01497 13.9145 4.10431 14.2408C4.25791 14.7826 4.65573 15.536 4.65573 15.536L4.6693 15.5068C4.60243 15.3801 4.54906 15.2466 4.51007 15.1087C4.45759 14.9029 4.43813 14.6583 4.38962 14.5476C4.34687 14.437 4.27506 14.3418 4.24012 14.2058C4.20709 14.0758 4.20172 13.87 4.10034 13.7166C4.05759 13.6544 4.00511 13.4913 3.98962 13.3283C3.97017 13.0835 3.99935 12.8097 3.97605 12.5846C3.9333 12.2098 3.90425 11.9555 3.94303 11.7592C3.98181 11.563 4.18393 11.006 4.30821 10.5632C4.38975 10.2797 4.34111 10.0408 4.49061 9.79418C4.64012 9.54957 4.73151 9.33402 4.76441 9.18452C4.80281 9.04858 4.36837 9.78253 4.36837 9.78253H4.36889Z" fill="#F2E8B0"/>
<path fill-rule="evenodd" clip-rule="evenodd" d="M5.86996 9.56699C5.86996 9.56699 5.70689 9.61563 5.6292 9.701C5.5515 9.78254 5.51848 9.85051 5.41364 9.98836C5.30881 10.1262 5.30292 10.2389 5.21742 10.4117C5.13204 10.5806 4.94363 10.835 4.92033 10.9262C4.89704 11.0175 4.85825 11.4446 4.80974 11.6466C4.76699 11.8486 4.85825 12.0972 4.85825 12.0972L4.96884 12.0737C4.96884 12.0737 4.96884 12.2175 5.07956 12.3146C5.19016 12.4097 5.20961 11.9922 5.20961 11.9922L5.62318 10.5961L6.24641 10.1728L6.31438 9.83105L5.86971 9.56699H5.86996Z" fill="#F5EEC0"/>
<path fill-rule="evenodd" clip-rule="evenodd" d="M6.17278 10.2001C6.17278 10.2001 5.87953 10.2194 5.73591 10.3244C5.67767 10.367 5.65438 10.4019 5.5923 10.4544C5.47774 10.5495 5.36113 10.6369 5.30494 10.7616C5.24273 10.8858 5.17476 11.0742 5.12817 11.4295C5.10871 11.579 5.10871 11.7169 5.09514 11.8373C5.07569 12.0004 5.04663 12.1304 5.06212 12.2213C5.08158 12.4077 5.27383 12.5048 5.29252 12.7164L5.6906 12.5146L6.06538 11.0368L6.86154 10.5376L6.41098 10.0328L6.17226 10.1992L6.17278 10.2001Z" fill="#E6DB9D"/>
<path fill-rule="evenodd" clip-rule="evenodd" d="M4.0727 20.1509C4.07436 20.1363 4.07603 20.1217 4.07769 20.1068C4.1358 19.6076 4.14566 19.2292 4.18828 18.9923C4.25036 18.6564 4.29311 18.5315 4.28339 18.4058C4.26982 18.2039 4.25433 18.0563 4.27379 17.9009C4.30284 17.6951 4.50483 17.4505 4.49907 17.2815C4.4951 17.1475 4.42713 17.0602 4.36889 16.9787C4.31065 16.8972 4.26406 16.8292 4.26406 16.8292C4.26406 16.8292 4.66214 16.5554 4.6583 15.4524C4.66643 15.4547 4.67425 15.458 4.68159 15.4622L4.87769 16.0193L5.01171 16.1824L5.52627 17.1416L6.18841 17.7845L7.16697 18.4426L7.7806 19.1104L7.84268 20.891L7.04076 21.9318L6.90943 22.1696C5.86607 21.6458 4.9093 20.9649 4.07257 20.1508L4.0727 20.1509Z" fill="#E5CB7A"/>
<path fill-rule="evenodd" clip-rule="evenodd" d="M6.52234 21.8543C6.52234 21.8543 6.53591 21.633 6.71843 21.4893C6.74762 21.5378 6.76695 21.5845 6.76119 21.6193C6.79421 21.5612 7.02525 21.1883 7.54762 21.0912C8.06999 20.9961 8.1962 20.6155 8.1962 20.6155L9.3048 19.6078L10.5728 18.4408L12.1145 17.899L12.835 17.7222C12.835 17.7222 12.8486 17.7747 12.8215 17.8912C12.9554 17.8816 13.2525 17.8136 13.5612 17.7048C13.6855 17.6563 13.8021 17.6369 13.8642 17.701C13.9554 17.7864 13.969 17.9883 13.9748 18.1087C14.1243 18.0756 14.2971 17.932 14.4356 17.9456C14.657 17.9689 14.8531 18.2291 15.0784 18.2291C15.3755 18.2291 15.5093 18.0466 15.7172 17.9028C15.8415 17.8175 16.0201 17.7108 16.1211 17.6388C16.3618 17.462 18.9094 16.6834 18.9094 16.6834L19.8026 16.7416L19.9463 17.7009L19.8695 20.2084C19.8601 20.2175 19.8506 20.2269 19.841 20.236L15.7798 22.3571L10.1504 23.2201C8.88935 23.0141 7.67246 22.5955 6.55152 21.9822L6.52272 21.8542L6.52234 21.8543Z" fill="#D8C173"/>
<path fill-rule="evenodd" clip-rule="evenodd" d="M4.41406 20.4699C4.49406 20.3026 4.566 20.1627 4.57867 20.1126C4.58865 20.2135 4.60696 20.4348 4.64382 20.6701C4.56642 20.6043 4.48984 20.5375 4.41406 20.4698V20.4699Z" fill="#F1D789"/>
<path fill-rule="evenodd" clip-rule="evenodd" d="M8.52635 22.8297L9.25441 22.6272L9.31649 22.6467C9.31649 22.6467 9.34952 22.6661 9.34952 22.732C9.44078 22.6797 9.51848 22.6893 9.5748 22.6545C9.60385 22.7165 9.63291 22.9224 9.76116 22.9476C9.89505 22.9768 10.0388 22.8893 10.1845 22.7788C10.3281 22.6642 10.4917 22.5205 10.6154 22.4622C10.6608 22.5457 10.7011 22.6319 10.7359 22.7204C10.899 22.5903 11.1825 22.0622 11.5863 22.0718C11.703 21.796 11.898 21.5604 12.1472 21.3942C12.522 21.1398 12.7569 21.1204 13.0501 21.1437C13.1666 20.9924 13.3101 20.864 13.4734 20.7651C13.5219 20.7845 13.6559 20.8661 13.823 20.7884C13.9919 20.7108 14.1822 20.4097 14.4327 20.3709C14.5676 20.3524 14.7049 20.3812 14.821 20.4525C14.821 20.4525 15.5506 19.7281 16.054 19.4874C16.0346 19.4291 15.9958 19.2097 16.586 18.7242C16.619 18.7534 16.5957 18.8349 16.619 18.8394C16.6286 18.8394 16.7726 18.7773 16.9549 18.6374C17.1802 18.4686 17.45 18.2918 17.6131 18.2433C17.9203 18.1521 18.2462 18.3384 18.2462 18.3384C18.2739 18.319 18.3047 18.3045 18.3374 18.2957C18.415 18.2821 18.4713 18.2724 18.5141 18.2573C18.5102 18.3583 18.5665 18.5311 18.5141 18.6806C18.5749 18.7148 18.6392 18.7421 18.7061 18.7621C18.6732 18.8339 18.6012 19.0165 18.4809 19.1039C18.5818 19.1524 18.5953 19.2087 18.7391 19.2575C18.6808 19.339 18.5855 19.4789 18.543 19.5647C18.5002 19.6559 18.3468 20.0346 18.2788 20.1782C18.207 20.3219 18.11 20.586 18.0632 20.639C18.0165 20.692 17.8477 20.9166 17.7176 21.0272C17.8328 20.9845 18.3041 20.8408 18.5041 20.7864C18.4446 20.8737 18.1429 21.3213 17.8528 21.7518C16.4641 22.5842 14.9139 23.111 13.3055 23.2972C11.6972 23.4834 10.0676 23.3247 8.52545 22.8316L8.52635 22.8297Z" fill="#E0CD81"/>
<path fill-rule="evenodd" clip-rule="evenodd" d="M6.2208 10.1476C6.2208 10.1476 6.05197 10.1476 6.01894 10.1709C5.98592 10.1942 6.1879 10.2428 6.24998 10.2661C6.31206 10.2894 6.44608 10.3962 6.48102 10.4817C6.51405 10.5632 7.69459 11.0389 7.69459 11.0389L8.52953 10.9961L8.81741 10.5984L8.26982 10.1188L8.65382 8.98676L8.14515 9.06829L6.92185 9.79789L6.30822 10.0329L6.2208 10.1476Z" fill="#DFC57C"/>
<path fill-rule="evenodd" clip-rule="evenodd" d="M8.05438 10.5224C8.06645 10.5419 8.08345 10.5579 8.10367 10.5688C8.12389 10.5797 8.14662 10.5851 8.16958 10.5844C8.34238 10.5844 8.50148 10.6272 8.56753 10.7145C8.67825 10.8544 8.98507 11.301 8.98507 11.301L9.71902 11.5651L9.76638 10.7008L8.96446 10.1436L8.05182 10.4795V10.5222H8.05387L8.05438 10.5224Z" fill="#E5CC7C"/>
<path fill-rule="evenodd" clip-rule="evenodd" d="M7.91042 10.8427C7.91042 10.8427 8.04431 10.8525 8.21327 10.7903C8.38223 10.728 8.65986 10.5942 8.78031 10.6466C8.94914 10.7184 8.9142 10.9437 9.09686 11.1458C9.20745 11.2701 9.40943 11.2663 9.52399 11.4003C9.63855 11.5343 10.0327 11.4721 10.0327 11.4721L10.1822 12.2785L9.58223 13.0475L9.38601 14.0028H8.57474L7.83362 13.7088L7.46857 12.8256L7.6511 11.9324L7.91042 10.8427Z" fill="#D2C281"/>
<path fill-rule="evenodd" clip-rule="evenodd" d="M9.47968 10.8815C9.4998 10.8877 9.52071 10.891 9.54176 10.8913C9.51847 10.9107 9.46983 10.9534 9.48928 11.0641C9.50874 11.1748 9.57082 11.3146 9.51847 11.3999C9.56026 11.4456 9.59143 11.5 9.60973 11.5592C9.64276 11.6544 9.65248 11.7417 9.86791 11.7554C9.83682 11.7745 9.80815 11.7974 9.78253 11.8234C9.78253 11.8234 9.93203 11.9534 10.0078 12.0737C10.0854 12.0704 10.2912 12.0064 10.2912 12.0064L10.334 12.0356L10.4252 11.9972C10.4252 11.9972 10.3398 11.9642 10.4019 11.7564C10.4602 11.5739 10.5126 11.5836 10.5171 11.5701C10.5216 11.5565 10.5599 11.3642 10.5599 11.2865C10.5889 11.1857 10.6122 10.8789 10.6122 10.8789L10.5501 10.2012L10.2007 9.98951L9.91655 9.71521L9.64851 10.22L9.472 10.396L9.45844 10.8329L9.47968 10.8815Z" fill="#E2C270"/>
<path fill-rule="evenodd" clip-rule="evenodd" d="M10.3204 10.3146C10.3204 10.3146 10.3825 10.4913 10.4059 10.6272C10.4141 10.6008 10.4187 10.5733 10.4194 10.5457C10.4194 10.5457 10.468 10.8137 10.4776 10.9244C10.497 10.9205 10.516 10.9147 10.5203 10.934C10.5247 10.9534 10.5689 11.169 10.5587 11.2894C10.6396 11.156 10.7515 11.0441 10.8849 10.9632C10.9625 10.9146 11.0538 10.8622 11.149 10.8582C11.2985 10.8544 11.4072 10.9535 11.5859 10.9535C12.0169 10.9535 12.4073 10.6369 12.6946 10.5399C12.9062 10.468 13.0888 10.4156 13.2169 10.299C13.2791 10.2467 13.3898 10.1302 13.4907 9.95725C13.6247 9.72685 13.7645 9.52628 13.9044 9.50106C13.8411 9.51269 13.7767 9.51724 13.7124 9.51463C13.7124 9.51463 13.7551 9.47188 13.8276 9.41364C13.9 9.3554 13.9868 9.28359 14.111 9.28359C14.3324 9.28359 14.443 9.31649 14.5673 9.31649C14.6916 9.31265 14.7634 9.28359 14.7634 9.28359C14.7634 9.28359 14.8936 9.37485 15.1867 9.37485C15.4799 9.37869 15.676 9.40391 15.8295 9.41761C15.983 9.4313 16.4974 9.37485 16.645 9.37921C16.7412 9.38291 16.8357 9.40603 16.9227 9.44717L16.447 8.06477L14.7379 6.57101L13.7204 7.2914L12.1553 8.85645L10.6408 9.41761L10.3242 9.77293V10.3146H10.3204Z" fill="#CCB360"/>
<path fill-rule="evenodd" clip-rule="evenodd" d="M13.7185 9.52231C13.7185 9.52231 13.7613 9.47968 13.8329 9.42144C13.9046 9.3632 13.9923 9.29127 14.1165 9.29127C14.3378 9.29127 14.4485 9.32429 14.5728 9.32429C14.6971 9.32045 14.7689 9.29127 14.7689 9.29127C14.7689 9.29127 14.8992 9.3824 15.1922 9.3824C15.4854 9.38624 15.6815 9.41146 15.835 9.42503C15.9885 9.4386 16.5029 9.3824 16.6505 9.38663C16.7467 9.39025 16.8411 9.41337 16.9281 9.4546L16.7126 8.83124L16.4622 8.35559L15.7476 7.573C15.7476 7.573 14.89 7.06816 14.8834 7.06432C14.8796 7.06048 14.5863 6.98279 14.5863 6.98279L13.8096 7.45268L13.1049 9.27604L13.0913 9.66004L13.5475 9.87559C13.6621 9.68359 13.7884 9.52999 13.9068 9.51053C13.7999 9.52218 13.7184 9.52218 13.7184 9.52218L13.7185 9.52231Z" fill="#D5B457"/>
<path fill-rule="evenodd" clip-rule="evenodd" d="M13.7088 9.65249C13.6408 9.65633 13.5846 9.64276 13.569 9.59425C13.5108 9.43118 13.4642 9.40788 13.4154 9.40788C13.3666 9.40788 13.3008 9.51271 13.2618 9.52231C13.2228 9.53191 13.1764 9.40199 13.1764 9.40199L13.1337 9.38254C13.1337 9.38254 12.8832 9.54561 12.7065 9.73787C12.5299 9.93012 12.2405 10.2564 12.1104 10.3145C11.9804 10.3726 11.5337 10.3922 11.3808 10.4252C11.228 10.4582 11.0585 10.569 11.0352 10.5942C11.0119 10.6194 11.1033 10.6465 11.1169 10.6718C11.1305 10.695 10.9673 10.6853 10.9537 10.7102C10.9441 10.7296 10.9921 10.8402 11.0159 10.8965C11.0576 10.8758 11.1033 10.8645 11.1498 10.8635C11.2993 10.8597 11.4081 10.9587 11.5867 10.9587C12.0178 10.9587 12.408 10.6422 12.6954 10.545C12.9071 10.4732 13.0896 10.4207 13.2178 10.3043C13.2798 10.2519 13.3906 10.1353 13.4916 9.96251C13.5653 9.84411 13.6372 9.73339 13.7092 9.65185L13.7088 9.65249Z" fill="#D2B257"/>
<path fill-rule="evenodd" clip-rule="evenodd" d="M7.5264 19.2622C7.5264 19.2622 7.488 19.1185 7.13216 18.7477C7.03117 18.6428 6.96909 18.5557 6.90112 18.4933C6.73216 18.334 6.63309 18.2913 6.51277 18.2001C6.24871 18.004 5.96135 18.004 5.74004 17.7632C5.51872 17.5224 5.2608 17.0624 5.0816 16.5923C4.90496 16.1224 4.85632 15.9729 4.85632 15.9593C4.85632 15.9457 4.90496 15.8545 4.96704 15.868C5.02912 15.8816 5.02912 16.0019 5.04474 16.0311C5.07567 16.0787 5.11075 16.1235 5.14957 16.165C5.24084 16.27 5.37088 16.3954 5.43693 16.5825C5.42336 16.4233 5.36896 16.2467 5.36896 16.2467C5.36896 16.2467 5.71072 16.4622 6.00192 16.6874C6.29517 16.9126 6.41549 16.9903 6.50112 17.134C6.58676 17.2776 6.78848 17.6563 6.88512 17.767C6.98176 17.8778 8.30592 18.2952 8.30592 18.2952L8.93581 18.7648L9.24852 19.4502L9.00378 19.8342L8.53389 19.9352L7.77076 19.5935L7.5264 19.2621V19.2622Z" fill="#D2B159"/>
<path fill-rule="evenodd" clip-rule="evenodd" d="M5.83105 16.901C5.83105 16.901 5.99029 17.1553 6.37864 17.3961C6.72821 17.6078 7.28155 17.8001 7.77486 17.9146C8.05825 17.9826 8.34177 18.0349 8.59611 18.0389C9.28155 18.0485 9.75336 17.8525 10.3379 17.7884C10.6545 17.7554 11.0428 17.7302 11.4467 17.6348C11.9651 17.5105 12.2719 17.3706 12.6894 17.174C12.9923 17.0342 13.27 16.9294 13.4952 16.7954C13.8117 16.609 14.0428 16.4013 14.3108 16.3392C14.2778 16.4305 14.2428 16.5935 13.9788 16.7625C14.1185 16.7585 14.3108 16.7489 14.3108 16.7489C14.3108 16.7489 14.1244 16.8595 13.7962 17.1081C13.5943 17.2617 13.3264 17.5217 13.0526 17.6945C12.8758 17.8052 12.6835 17.8865 12.5573 17.9528C12.2501 18.1217 12.1262 18.2071 11.9244 18.4136C11.9962 18.4097 12.0021 18.4136 12.0021 18.4136C12.0021 18.4136 11.7476 18.4466 11.5652 18.5436C11.5268 18.5436 11.4602 18.5301 11.3438 18.5631C11.2525 18.5921 11.132 18.6583 11.0079 18.6931C10.8311 18.7456 10.773 18.7223 10.773 18.7223L10.8021 18.7805C10.8021 18.7805 10.5717 18.7766 10.4949 18.7844C10.5084 18.7882 10.5046 18.7941 10.5046 18.7941C10.4911 18.7964 10.4781 18.801 10.4662 18.8077C10.4292 18.8316 10.3886 18.8493 10.3459 18.86C10.3226 18.8639 10.3031 18.8639 10.2739 18.8698C10.2837 18.8931 10.3594 19.0234 10.3944 19.1002C10.3653 19.1196 9.92834 19.4497 9.92834 19.4497C9.94189 19.4711 9.95297 19.4939 9.96136 19.5177C9.97493 19.5603 9.98081 19.6225 9.99438 19.6516C10.0273 19.7098 10.0467 19.7196 10.0467 19.7196C10.0467 19.7196 9.99438 19.7293 9.90299 19.7526C9.82542 19.772 9.73019 19.8049 9.59579 19.8244C9.55455 19.8298 9.51307 19.833 9.4715 19.8341C9.49096 19.8769 9.57633 20.0399 9.41902 20.2282C9.26171 20.4165 9.2132 20.4439 9.16469 20.5642C9.14027 20.5458 9.11427 20.5295 9.08699 20.5156C9.03464 20.4923 8.9627 20.4575 8.93749 20.4108C8.92279 20.473 8.90332 20.534 8.87925 20.5933C8.83073 20.7233 8.75893 20.8516 8.74536 20.9486C8.69288 20.8904 8.59586 20.7758 8.46184 20.7991C8.32782 20.8224 8.22107 21.0049 8.19778 21.0574C8.19778 21.0244 8.17448 20.9992 8.16872 21.038C8.16475 21.0807 8.09102 21.5272 7.67938 21.8884C7.67554 21.7971 7.67554 21.5951 7.66581 21.5292C7.62741 21.5676 7.58043 21.6243 7.30075 21.7448C7.02696 21.8651 7.07035 21.9855 7.07035 21.9855C7.07035 21.9855 7.04706 21.7935 7.19464 21.5913C7.34414 21.3894 7.43541 21.2942 7.43541 21.2787C7.43299 21.2629 7.42626 21.2482 7.41595 21.236C7.39649 21.2165 7.35771 21.1932 7.35771 21.1777C7.38101 21.1681 7.61205 21.0574 7.59848 20.8282C7.58491 20.6225 7.49762 20.5156 7.43541 20.4399C7.42581 20.4302 7.5268 20.3584 7.5131 20.3351C7.50338 20.3215 7.37922 20.2301 7.3636 20.1815C7.36727 20.1525 7.37379 20.1239 7.38305 20.0961C7.39662 20.0534 7.40635 20.0242 7.40251 19.9951C7.39278 19.9466 7.3403 19.8126 7.32481 19.799C7.33838 19.8029 7.43541 19.799 7.43541 19.799C7.43541 19.799 7.35784 19.6748 7.34414 19.6165C7.33045 19.5583 7.30139 19.4048 7.2859 19.3757C7.31893 19.3796 7.40046 19.3853 7.40046 19.3757C7.40443 19.3466 7.32865 19.2981 7.36206 19.2605C7.38536 19.2644 7.43003 19.2838 7.47265 19.3382C7.44936 19.276 7.41058 19.1557 7.32891 19.1072C7.36731 19.0936 7.49787 19.0586 7.61243 19.1265C7.72699 19.1945 7.76603 19.2896 7.76603 19.2896C7.76603 19.2896 7.834 19.3421 7.93896 19.4198C8.05928 19.5149 8.21262 19.6502 8.45736 19.7459C8.50984 19.7751 8.64373 19.7751 8.74088 19.7557C8.78318 19.7456 8.82374 19.7292 8.8612 19.7071C8.87473 19.6992 8.88906 19.6926 8.90395 19.6877C8.88308 19.6458 8.85907 19.6055 8.83214 19.5672C8.86517 19.5672 8.90395 19.5712 8.90395 19.5712C8.90395 19.5712 8.92725 19.5187 8.82241 19.4176C8.84571 19.3943 8.87489 19.3792 8.87489 19.3399C8.84187 19.3361 8.78363 19.2876 8.77006 19.2681C8.78939 19.2545 8.81858 19.2099 8.8516 19.1963C8.82242 19.173 8.75061 19.0758 8.71758 19.0662C8.74913 19.0545 8.77966 19.0402 8.80885 19.0235C8.80885 19.0235 8.64577 18.9807 8.59329 18.9458C8.54081 18.9074 8.46325 18.841 8.41665 18.8215C8.36801 18.8021 8.28264 18.7925 8.24769 18.7535C8.28059 18.7633 8.33307 18.7535 8.37198 18.7535C8.40104 18.7535 8.41474 18.7574 8.42434 18.7574C8.4205 18.7438 8.4205 18.7146 8.49627 18.705C8.53272 18.6995 8.56809 18.6884 8.6011 18.672C8.6011 18.672 8.52917 18.6682 8.4475 18.5905C8.36584 18.5128 8.298 18.4507 8.25141 18.441C8.2029 18.4312 8.11163 18.474 8.05531 18.47C7.97762 18.4604 7.94459 18.4215 7.94459 18.4215C7.94459 18.4215 7.68641 18.4448 7.11361 18.0954C6.61838 17.7924 6.40283 17.5245 6.40283 17.5245C6.35648 17.5077 6.31169 17.4868 6.26894 17.4623C6.08257 17.3653 5.82427 17.1633 5.83208 16.8991L5.83105 16.901Z" fill="#C2A44D"/>
<path fill-rule="evenodd" clip-rule="evenodd" d="M12.9747 5.2466C13.0197 5.26119 13.0596 5.28811 13.0899 5.32429C13.1812 5.42912 13.2394 5.62714 13.0317 5.83885C13.1132 5.86791 13.1469 5.87725 13.2181 5.86791C13.1463 5.95341 12.9832 6.13594 12.9735 6.29517C12.9637 6.42522 13.0453 6.46413 13.0453 6.46413C13.0453 6.46413 12.921 6.60775 12.9152 6.84813C12.9739 6.78194 13.0381 6.72088 13.1072 6.6656C13.251 6.55104 13.449 6.421 13.583 6.33946C13.5812 6.37363 13.5858 6.40785 13.5966 6.44032C13.5966 6.44032 13.8469 6.2345 14.0574 6.32589C14.1525 6.36864 14.1097 6.50253 14.1097 6.50253C14.1097 6.50253 14.2399 6.45402 14.3312 6.54528C14.4224 6.63655 14.5514 6.87194 14.6176 6.9632C14.6467 7.00596 14.7225 7.08749 14.8 7.2137C14.906 7.3904 14.9945 7.57701 15.0642 7.77088C15.0681 7.66989 15.0933 7.51271 15.3808 7.61165C15.6681 7.71264 15.9943 7.92436 16.2681 8.34125C16.5418 8.75815 16.6097 9.2288 16.7475 9.408C16.8873 9.5808 17.0311 9.86816 17.0408 9.98861C17.0505 10.1091 16.998 10.4973 17.2854 11.5478C17.3669 11.2216 17.4912 10.4973 17.4912 10.4973L17.5592 9.85844L17.6369 7.88173L15.5728 6.16692L13.9592 4.99597L12.9087 5.09696L12.9746 5.24647L12.9747 5.2466Z" fill="#CAA13E"/>
<path fill-rule="evenodd" clip-rule="evenodd" d="M16.8097 8.1883C16.8097 8.1883 16.7805 7.9963 16.2952 7.6699C15.8097 7.34759 15.431 7.34759 15.0816 7.0738C14.8136 6.85825 14.534 6.36301 14.352 6.19994C14.1752 6.03879 14.1462 5.57274 14.1462 5.57274L14.7423 5.07354L15.6288 3.79214L16.3782 2.96692L16.7374 3.46612L17.2366 4.05249L17.5142 5.22919L17.6152 6.95156L16.8088 8.18842L16.8097 8.1883Z" fill="#B59544"/>
<path fill-rule="evenodd" clip-rule="evenodd" d="M17.4098 10.2528C17.4245 9.9916 17.3922 9.72988 17.3146 9.48006C17.1866 9.08198 16.9069 8.37517 16.777 8.11046C16.7245 7.81722 16.7634 7.79392 16.8197 7.7609C16.876 7.72787 17.0877 7.6073 17.2037 7.18426C17.3197 6.76122 17.6795 6.74739 17.6795 6.74739L17.9008 6.58432L18.2368 7.42502L18.5299 8.18432L18.6212 8.76493L18.6891 9.26003L18.5299 10.3067L17.7436 11.0173L17.4097 10.2528H17.4098Z" fill="#C89D3A"/>
<path fill-rule="evenodd" clip-rule="evenodd" d="M6.43701 21.9186V21.8971C6.45335 21.8869 6.46778 21.8739 6.47964 21.8587C6.4932 21.8392 6.50306 21.8159 6.51266 21.8102C6.53212 21.8005 6.62338 21.7718 6.67189 21.781C6.7204 21.7902 6.84866 21.8431 6.91663 21.8392C7.0564 21.8354 7.21948 21.7285 7.47778 21.7772C7.86613 21.849 7.9574 22.113 8.18268 22.2625C8.33628 22.3675 8.49525 22.3208 8.51855 22.3208H8.5709C8.58063 22.3208 8.65244 22.2392 8.69135 22.2432C8.76904 22.247 8.77672 22.3112 8.82524 22.315C8.9398 22.3286 9.16124 22.2568 9.27196 22.286C9.30479 22.2962 9.33464 22.3143 9.35898 22.3386C9.38332 22.3629 9.40142 22.3928 9.41173 22.4256C9.43503 22.4974 9.41557 22.5887 9.35925 22.6412C9.23893 22.7518 9.12437 22.8567 9.10108 22.9484C9.13071 22.971 9.15916 22.995 9.18632 23.0206C8.22558 22.7758 7.30121 22.4057 6.43701 21.9198V21.9186Z" fill="#CEB052"/>
<path fill-rule="evenodd" clip-rule="evenodd" d="M16.7767 18.0389C16.7767 18.0389 17.0796 17.6351 17.1845 17.435C17.2894 17.2288 16.8525 14.6176 16.8525 14.6176L17.7302 11.742L17.7068 10.806C17.7068 10.806 17.7495 9.9419 17.8505 9.56712C17.971 9.78267 18.3458 10.0429 18.4273 10.1807C18.4657 9.91656 18.5961 9.35937 18.5768 8.7652C18.6486 8.87579 18.8214 9.98849 18.8214 9.98849L18.9942 10.7379L19.2195 11.5341L19.47 12.3749L19.6195 12.9555L19.7049 13.0953L19.7768 13.3399L19.8448 13.6041L20.0409 14.2235L20.1561 14.7322L20.2473 15.6545C20.2672 15.7252 20.2815 15.7972 20.2901 15.8701C20.2939 15.9711 20.2765 16.0293 20.2765 16.0469C20.2765 16.0644 20.3095 16.2682 20.296 16.4216C20.2765 16.5752 20.2765 16.6954 20.1561 16.8056C20.0356 16.9159 19.96 17.5745 19.96 17.5745L19.7444 17.4309C19.7444 17.4309 19.7872 17.2347 19.6862 17.0561C19.5852 16.8776 19.3891 16.8406 19.2784 16.8698C19.1678 16.8931 18.9465 16.9279 18.8745 16.9901C18.8066 17.0522 18.6396 17.2444 18.4862 17.3319C18.2942 17.4471 17.9813 17.4561 17.8144 17.4949C17.6455 17.5333 17.4591 17.6485 17.2629 17.7823C17.109 17.8819 16.9466 17.9676 16.7775 18.0383L16.7767 18.0389Z" fill="#CCA847"/>
<path fill-rule="evenodd" clip-rule="evenodd" d="M16.7767 22.2816C16.7767 22.2816 16.7895 22.2899 16.8142 22.3035C18.1938 21.6572 19.4298 20.741 20.4494 19.6091C20.4383 19.2161 20.4238 18.8133 20.408 18.6641C20.3751 18.3475 20.3984 18.0252 20.3886 17.8388C20.3789 17.6525 20.2741 16.8932 20.2256 16.6971C20.1731 16.501 20.072 16.4038 20.0566 16.4038C20.043 16.4078 19.9614 16.7729 19.9614 16.8646C19.9614 16.9564 19.9419 17.1773 19.9419 17.2337C19.9283 17.2297 19.9226 17.1953 19.9226 17.1812C19.9031 17.2297 19.8798 17.3152 19.8701 17.3249C19.8604 17.3347 19.8837 17.2434 19.8701 17.2239C19.8565 17.2045 19.8317 17.2142 19.8371 17.1657C19.8394 17.1369 19.8439 17.1084 19.8507 17.0803C19.8507 17.0803 19.7924 17.1657 19.7498 17.3832C19.707 17.5987 19.707 17.6046 19.6915 17.6239C19.678 17.6474 19.6003 17.7249 19.5963 17.7541C19.5925 17.8065 19.6683 17.8589 19.674 17.888C19.6779 17.9366 19.606 18.1618 19.5827 18.272C19.5595 18.3822 19.5692 18.5981 19.5443 18.7089C19.5249 18.8099 19.5059 18.8681 19.4395 18.9107C19.488 18.9204 19.5346 18.934 19.5346 18.934C19.5346 18.934 19.6026 19.2214 19.4298 19.4661C19.3677 19.5515 19.3522 19.5904 19.2862 19.6681C19.156 19.8117 19.055 19.9753 19.0453 20.0817C19.0386 20.0503 19.034 20.0184 19.0317 19.9864C19.0317 19.9864 18.8299 20.2214 18.7443 20.3555C18.6338 20.5283 18.4803 20.5185 18.4371 20.5613C18.394 20.604 18.3847 20.6816 18.3987 20.7438C18.3603 20.7534 18.2882 20.7671 18.2395 20.9166C18.2162 20.9942 18.158 21.0702 18.0667 21.1224C17.9755 21.1747 17.8647 21.1904 17.8084 21.204C17.8569 21.2175 17.8764 21.2175 17.8997 21.233C17.8706 21.2815 17.7366 21.3573 17.5871 21.4545C17.4376 21.5457 17.3657 21.6796 17.3288 21.767C17.2904 21.8486 17.2337 21.9011 17.1424 21.9108C17.1808 21.9341 17.2377 21.9883 17.2667 22.0059C17.224 22.0156 17.1515 22.0156 17.0221 22.1263C16.8862 22.239 16.8396 22.272 16.7774 22.2817L16.7767 22.2816Z" fill="#C39D3C"/>
<path fill-rule="evenodd" clip-rule="evenodd" d="M14.0749 23.1814C14.1492 23.1293 14.2297 23.0866 14.3146 23.0543C14.6174 22.934 14.9378 22.9107 15.064 22.8719C15.1845 22.8335 15.2796 22.7806 15.4291 22.7515C15.4251 22.7855 15.4218 22.8175 15.4182 22.8478C14.9775 22.9863 14.5286 23.0978 14.0742 23.1814H14.0749Z" fill="#D2BA6B"/>
<path fill-rule="evenodd" clip-rule="evenodd" d="M19.6608 15.2156C19.6608 15.2156 19.5987 15.5515 19.488 15.7632C19.3773 15.9749 19.2576 16.268 19.2576 16.268C19.2583 16.202 19.2661 16.1362 19.2809 16.0718C19.1411 16.1533 18.8013 16.3496 18.7049 16.4369C18.6136 16.5184 18.4601 16.6621 18.4214 16.7301C18.5126 16.4622 18.6077 16.2214 18.6233 16.1107C18.4836 16.2117 17.831 16.7496 17.4913 17.1049L16.433 17.9612C16.3109 18.0271 16.1851 18.086 16.0563 18.1376C15.8739 18.2152 15.6584 18.2812 15.4991 18.3434C15.5419 18.2289 15.6097 18.1277 15.7049 18.0307C15.8059 17.9356 16.1088 17.6074 16.1554 17.4547C16.1981 17.2955 16.2079 17.2004 16.1515 17.0664C16.0991 17.0799 15.9787 17.0858 15.8972 17.1091C15.8157 17.1324 15.7282 17.2197 15.7282 17.2197C15.7282 17.2197 15.7903 16.8644 15.9243 16.5285C15.8233 16.5324 15.6505 16.5614 15.6505 16.5614C15.6505 16.5614 15.8913 16.1576 16.3033 15.8761C16.1772 15.903 16.0537 15.9413 15.9344 15.9905C15.6937 16.0915 15.4296 16.241 15.2335 16.3226C15.3441 16.169 16.1208 15.0605 16.583 14.0274C17.0438 12.9964 17.216 12.7323 17.317 12.1789C17.3693 11.9052 17.3554 11.5005 17.3693 11.1382C17.3829 10.7789 17.4276 10.4566 17.3985 10.241C17.5188 10.3905 17.9694 10.8119 17.9849 11.7537C17.9984 12.6954 17.5539 13.9674 17.082 14.6527C17.1972 14.6857 17.4957 14.7246 17.8024 14.1919C18.109 13.6591 18.1053 13.5104 18.216 13.289C18.2296 13.3997 18.2256 13.4385 18.2256 13.4385C18.2256 13.4385 18.6724 12.8968 18.884 12.2152C18.9267 12.5084 19.0529 12.7667 18.8548 13.3046C18.6781 13.79 18.4471 13.9085 18.4471 13.9085C18.4471 13.9085 18.5616 13.889 18.7305 13.788C18.7597 13.8598 18.7539 13.9416 18.8024 13.9706C18.8509 13.9995 18.917 14.0483 18.9267 14.0949C18.9791 14.0172 19.0606 13.9181 19.0859 13.8444C19.0665 13.998 19.0529 14.6696 19.1243 15.0113C19.274 14.9978 19.4273 14.988 19.5321 14.7181C19.4603 14.9823 19.4603 15.1414 19.5088 15.3667C19.5885 15.3124 19.6603 15.2152 19.6603 15.2152L19.6608 15.2156Z" fill="#C0993A"/>
<path fill-rule="evenodd" clip-rule="evenodd" d="M14.6155 4.51265C14.6155 4.51265 14.466 4.57473 14.2117 4.57473C13.9904 4.57473 14.0525 4.48935 13.7069 4.48935C13.1749 4.48935 11.3166 4.79655 10.9903 4.7922C10.7786 4.78836 11.7048 4.88346 11.7048 4.88346L14.0719 4.91649L14.5476 4.87809L14.7243 4.51841L14.6155 4.51265Z" fill="#A88F33"/>
<path fill-rule="evenodd" clip-rule="evenodd" d="M8.4777 9.13983C8.4777 9.13983 8.17472 9.37087 8.04659 9.54764C7.91847 9.72441 7.8505 9.84076 7.70483 9.9845C7.73903 9.98581 7.77319 9.98122 7.80583 9.97093C7.80583 9.97093 7.80583 10.0093 7.78253 10.0194C7.80266 10.0172 7.82304 10.0195 7.84218 10.0261C7.86131 10.0328 7.87872 10.0436 7.89312 10.0578C7.85037 10.0811 7.73389 10.1978 7.82515 10.3356C7.89312 10.4404 8.03687 10.45 8.03687 10.45C8.03687 10.45 8.00384 10.5453 8.1417 10.5355C8.43879 10.522 8.77082 10.3918 8.92416 10.4248C9.07776 10.4632 9.16506 10.4773 9.27373 10.6657C9.38893 10.8521 9.48928 10.8813 9.48928 10.8813C9.48928 10.8813 9.55725 10.7083 9.54176 10.4502C9.59749 10.311 9.62838 10.1631 9.63303 10.0133L9.53203 9.26962L9.09133 8.71231L8.52045 9.02885L8.4777 9.13945V9.13983Z" fill="#E3C571"/>
<path fill-rule="evenodd" clip-rule="evenodd" d="M9.01941 9.02911C9.01941 9.02911 9.06216 9.1301 9.24085 9.1397C9.22139 9.18245 9.22139 9.18834 9.22728 9.22123C9.23112 9.25426 9.23688 9.30277 9.23688 9.30277C9.25655 9.29325 9.27433 9.28024 9.28936 9.26437C9.29909 9.30712 9.27963 9.37496 9.28936 9.4236C9.29536 9.45318 9.30513 9.48188 9.31842 9.50898C9.32125 9.50234 9.3245 9.49588 9.32815 9.48965C9.33199 9.47992 9.36654 9.59448 9.46216 9.68165C9.46208 9.66825 9.46538 9.65504 9.47176 9.64325C9.47323 9.6676 9.48128 9.69109 9.49506 9.71122C9.4879 9.70781 9.48137 9.70322 9.47573 9.69765C9.47573 9.69765 9.48533 10.0048 9.53781 10.1637C9.54658 10.1534 9.55438 10.1424 9.56111 10.1307C9.56111 10.1211 9.55727 10.2162 9.54754 10.2843C9.53397 10.3522 9.5437 10.4473 9.5437 10.4473C9.57871 10.4198 9.61718 10.3969 9.65813 10.3794C9.71637 10.356 9.81173 10.2841 9.86984 10.1249C9.90355 10.0347 9.92955 9.94186 9.94754 9.84728C9.96631 9.88342 9.97927 9.9223 9.98594 9.96248C9.98991 10.011 10.0812 9.98578 10.0812 9.98578L10.1006 9.77406L10.2158 9.29445L10.3207 8.99736L10.8255 8.21106L11.7376 7.50859L12.5338 7.69112L13.2055 6.77848L12.0483 6.08331L10.9531 6.19787L9.95918 7.57451L9.16315 8.82315L9.01941 9.02898V9.02911Z" fill="#D8B65B"/>
<path fill-rule="evenodd" clip-rule="evenodd" d="M14.7553 7.03692C14.7553 7.03692 14.6873 7.05049 14.4912 7.15212C14.2951 7.25375 14.1592 7.28601 14.0834 7.43551C14.0077 7.58501 14.0019 7.70354 14.0019 7.70354C14.0019 7.70354 14.1359 7.6453 14.2136 7.62585C14.2951 7.60652 14.3864 7.61228 14.3767 7.6453C14.3673 7.66795 14.3544 7.68892 14.3383 7.70738C14.3383 7.70738 14.4919 7.70354 14.4878 7.77932C14.4837 7.85509 14.4587 7.93855 14.4297 7.97541C14.4005 8.01381 14.2802 8.07065 14.2666 8.11532C14.2336 8.20658 14.2802 8.21042 14.2626 8.28415C14.2491 8.35609 14.1851 8.49586 13.9753 8.74047C13.7597 8.98521 13.6681 9.15801 13.6681 9.15801C13.6681 9.15801 13.5632 8.96191 13.5088 8.79295C13.4704 8.81228 13.2642 8.92684 13.2642 8.92684L12.7865 7.26284L12.7961 7.15212C12.7961 7.15212 12.8389 7.09977 12.8486 7.00261C12.7768 6.97932 12.7671 6.95986 12.6719 6.86873C12.5766 6.77759 12.4991 6.66674 12.3399 6.59097C12.3167 6.54821 12.2875 6.4901 12.171 6.46668C12.0545 6.44325 11.9846 6.42405 11.9846 6.42405C11.9846 6.42405 12.0467 6.40063 12.0759 6.35212C12.0039 6.36185 11.9458 6.38514 11.7885 6.3813C11.6293 6.37733 11.6118 6.37157 11.5245 6.38514C11.4372 6.39871 11.3325 6.43762 11.2934 6.30361C11.2507 6.27058 11.1594 6.29977 11.0817 6.4142C11.004 6.52863 10.9769 6.62002 10.8274 6.66469C10.8169 6.7306 10.7938 6.79386 10.7594 6.85106C10.7167 6.923 10.6487 6.99481 10.5574 7.10156C10.4137 7.27052 10.437 7.54815 10.2079 7.75986C9.97681 7.97145 10.2463 7.17337 10.2463 7.17337L10.6151 6.29017L11.6656 5.26297L13.2967 5.15237L13.456 5.99717L14.2521 6.27097L14.7551 7.03794L14.7553 7.03692Z" fill="#D3AE4D"/>
<path fill-rule="evenodd" clip-rule="evenodd" d="M15.0136 7.2233L14.3282 6.23501L13.8486 5.86598C13.8486 5.86598 13.5068 5.23699 13.4835 5.21754C13.464 5.20397 13.1417 5.16902 12.9359 5.15546L12.9743 5.25056C13.0192 5.26515 13.0592 5.29207 13.0895 5.32826C13.1808 5.43309 13.239 5.6311 13.0313 5.84282C13.1128 5.87187 13.1465 5.88122 13.2176 5.87187C13.1458 5.95738 12.9828 6.1399 12.973 6.29914C12.9633 6.42918 13.0448 6.46797 13.0448 6.46797C13.0448 6.46797 12.9206 6.61171 12.9148 6.85197C12.9735 6.78578 13.0377 6.72471 13.1068 6.66944C13.2505 6.55424 13.4486 6.4247 13.5826 6.34317C13.5807 6.37738 13.5853 6.41164 13.5961 6.44416C13.5961 6.44416 13.8465 6.23834 14.0569 6.3296C14.152 6.37235 14.1093 6.50637 14.1093 6.50637C14.1093 6.50637 14.2395 6.45786 14.3307 6.54912C14.422 6.64038 14.552 6.87526 14.6181 6.96666C14.6471 7.00941 14.7229 7.09094 14.8005 7.21702C14.9065 7.39375 14.995 7.58041 15.0647 7.77434C15.0685 7.69664 15.0841 7.58797 15.2183 7.58797L15.0144 7.22291L15.0136 7.2233Z" fill="#CAA13E"/>
<path fill-rule="evenodd" clip-rule="evenodd" d="M4.73793 10.0311C4.73793 10.0311 4.68942 9.91065 4.73793 9.67577C4.78644 9.44089 4.86222 9.33017 4.88743 8.98457C4.91265 8.63897 5.13793 8.20786 5.13793 8.20786L5.76116 7.92447L6.20199 8.04479L6.33204 8.63513L5.77473 8.94233C5.77473 8.94233 5.74567 9.07237 5.58836 9.1772C5.43105 9.28204 5.21358 9.36357 5.16123 9.47045C5.12993 9.5359 5.10709 9.60506 5.09326 9.67628C5.09326 9.67628 4.93403 9.64325 4.83892 9.74809C4.73793 9.85497 4.74177 9.95007 4.73793 10.0316V10.0311Z" fill="#F4EFC8"/>
<path fill-rule="evenodd" clip-rule="evenodd" d="M5.99618 9.8738C5.99618 9.8738 5.9437 9.90683 5.90491 9.989C5.86651 9.92692 5.77474 9.5579 5.7709 9.22587C5.76706 8.89383 5.74722 8.81153 5.82402 8.6971C5.90082 8.58267 6.202 8.46209 6.15925 8.25601C6.1165 8.05991 5.93781 7.97838 5.71842 8.0347C5.56482 8.0731 5.45051 8.39975 5.29128 8.56283C5.17083 8.68711 5.02722 8.66766 4.98843 8.73563C4.93595 8.82689 4.98447 8.91815 4.96898 8.97639C4.96501 8.99585 4.9165 9.10068 4.82907 9.22689C4.65243 9.48123 4.35343 9.84052 4.31451 10.1628C4.32808 9.9803 4.31848 9.97646 4.36699 9.77447L4.33781 9.72596L4.52981 9.09684L4.6541 8.57844L4.93186 7.71035L5.42107 6.82305L5.89685 6.29095L6.39195 6.32398L6.45019 7.06766L6.73371 8.46388L7.32981 9.19783L6.37442 9.84078L5.99579 9.8738H5.99618Z" fill="#EBCC73"/>
<path fill-rule="evenodd" clip-rule="evenodd" d="M6.29326 10.1376C6.29326 10.1376 6.21172 10.1571 6.18254 10.1416C6.15336 10.1261 6.12443 10.1085 6.13403 10.0891C6.14363 10.0696 6.19611 10.0367 6.19611 10.0211C6.19718 10.007 6.19272 9.99303 6.18366 9.98215C6.17461 9.97128 6.16167 9.96436 6.1476 9.96287C6.10292 9.95711 6.08936 9.98617 6.08936 9.98617C6.08936 9.98617 6.0466 9.95327 6.01179 9.94777C6.03239 9.94525 6.05311 9.94392 6.07387 9.9438C6.02021 9.9195 5.96329 9.90315 5.90491 9.89529C5.95342 9.86623 6.04865 9.78073 6.11073 9.78073C6.17281 9.78073 6.21172 9.77113 6.202 9.73811C6.19227 9.70508 6.14376 9.65657 6.0914 9.63711C6.11073 9.61382 6.12443 9.57887 6.07783 9.48351C6.02919 9.38841 6.04865 9.32428 6.06427 9.30111C6.07783 9.27193 6.12635 9.21958 6.14964 9.18655C6.17294 9.15353 6.1924 9.10886 6.23118 9.08556C6.25064 9.07199 6.31272 9.04716 6.37492 9.02348C6.44289 9.00019 6.49921 8.971 6.538 9.00019C6.58075 9.02924 6.56129 9.06815 6.56129 9.06815C6.56129 9.06815 6.69531 9.01951 6.81563 9.08172C6.93607 9.13983 7.22932 9.17683 7.22932 9.17683L7.33441 9.38854L6.63924 9.98463L6.35188 10.1284L6.29364 10.138L6.29326 10.1376Z" fill="#E5C66B"/>
<path fill-rule="evenodd" clip-rule="evenodd" d="M7.25824 9.16314C7.25824 9.16314 7.04269 9.30688 6.99418 9.35924C7.02324 9.3632 7.07175 9.38266 7.05229 9.41172C7.029 9.44077 6.88922 9.54176 6.81152 9.637C6.72999 9.7321 6.65229 9.85255 6.62516 9.91079C6.5961 9.96314 6.37466 10.1166 6.29901 10.1359C6.45824 10.1359 6.77863 9.93984 6.89895 9.93984C6.89511 9.99808 6.93197 10.0641 6.99994 10.0699C7.06791 10.0757 7.264 10.1126 7.52807 9.94957C7.79213 9.79034 7.70484 9.67181 7.81543 9.59424C8.02714 9.45434 8.11252 9.33005 8.229 9.25248C8.34548 9.17492 8.40576 9.15725 8.40576 9.15725C8.40576 9.15725 8.4096 9.09901 8.44416 9.1049C8.45362 9.10599 8.46261 9.10963 8.47014 9.11546C8.47768 9.12128 8.48348 9.12905 8.48692 9.13793C8.48692 9.13793 8.6889 8.99418 8.94772 8.9554C8.94168 8.9527 8.93685 8.94787 8.93415 8.94183C8.93415 8.94183 8.95348 8.9321 8.95744 8.92237C8.95744 8.92237 8.97101 8.90292 8.98074 8.91264C8.99047 8.92237 9.00404 8.99418 9.02349 9.02336C9.06624 9.00391 9.14778 8.82138 9.14778 8.82138L9.344 8.26023V7.74759L9.1904 7.77677L8.0384 8.26599L7.33927 8.99034L7.25773 9.16314H7.25824Z" fill="#E6BD62"/>
<path fill-rule="evenodd" clip-rule="evenodd" d="M10.5747 6.64858C10.637 6.63346 10.6968 6.60922 10.752 6.57664C10.7287 6.63885 10.7287 6.70682 10.6277 6.8544C10.5267 7.00199 10.5229 7.02336 10.4413 7.17671C10.3598 7.33594 10.3501 7.56506 10.2724 7.66593C10.3072 7.649 10.3446 7.63789 10.383 7.63303C10.383 7.63303 10.3054 7.701 10.2724 7.7728C10.2394 7.84461 10.1811 7.99412 10.0375 8.08551C9.89388 8.1769 9.71123 8.23501 9.51513 8.45057C9.31891 8.66215 9.11705 8.93018 9.01593 9.02657C9.06841 8.9353 9.14022 8.75277 9.15967 8.63245C9.17913 8.51213 9.15571 8.36826 9.18873 8.20916C9.22175 8.05005 9.22175 7.93536 9.38073 7.65761C9.53971 7.37985 9.81183 6.41485 9.81183 6.41485L10.3982 6.22849L10.575 6.64794L10.5747 6.64858Z" fill="#B6933F"/>
<path fill-rule="evenodd" clip-rule="evenodd" d="M10.1514 6.29324C10.1514 6.29324 9.97476 6.54757 9.92625 6.77285C9.87773 6.99813 9.92228 6.97868 9.89322 7.0894C9.87584 7.1569 9.87584 7.22771 9.89322 7.29522C9.9544 7.19667 10.0382 7.11409 10.1376 7.05432C10.3046 6.95346 10.4406 6.88152 10.5216 6.79615C10.6031 6.70488 10.6711 6.55538 10.8477 6.44082C10.7759 6.43109 10.6749 6.39807 10.6557 6.40242C10.7277 6.32088 10.9431 6.1966 11.1605 6.04709C11.3761 5.89349 11.3625 5.83154 11.7121 5.6782C11.5975 5.69765 11.5431 5.66847 11.4479 5.6782C11.4863 5.59666 11.6207 5.55775 11.7551 5.42386C11.8895 5.28997 11.6697 5.09183 11.6697 5.09183L10.6457 5.71122L10.1506 6.29375L10.1514 6.29324Z" fill="#C49937"/>
<path fill-rule="evenodd" clip-rule="evenodd" d="M7.3728 5.83103L7.3961 5.64466L7.68935 5.17478L7.99616 4.34956V3.22137L7.97287 2.56895L8.02138 2.14169L8.05824 2.00588L8.09716 1.9534L8.34752 2.08345L8.69325 2.55334L8.72627 3.46022L8.39027 4.89126L7.43104 5.93791L7.3728 5.83103Z" fill="#DFC068"/>
<path fill-rule="evenodd" clip-rule="evenodd" d="M8.13591 1.90093C8.13591 1.90093 7.98231 1.9049 7.94954 2.54375C7.91677 3.18259 7.9009 3.51847 7.8776 3.83501C7.85431 4.15155 7.80003 4.34368 7.77277 4.53018C7.74551 4.71667 7.73002 4.97088 7.64272 5.12627C7.60432 5.19808 7.52227 5.42336 7.33002 5.59232C7.11447 5.77869 6.79242 5.90887 6.74365 5.91859C6.65815 5.93792 6.22512 5.98067 6.04848 6.07783C5.9864 6.11085 5.87952 6.14963 5.76112 6.26035C5.52611 6.47194 5.21354 6.85056 4.98826 7.30688C4.64266 7.98848 4.29706 9.91271 4.29706 9.91271L4.37475 9.78266C4.37475 9.78266 4.38448 9.60986 4.55728 9.30688C4.72624 9.00403 4.67773 8.6642 4.91261 8.08359C5.00387 7.86228 5.11843 7.57491 5.25821 7.33018C5.47965 6.9321 5.74755 6.59034 6.01751 6.40397C6.45821 6.10112 6.94371 6.03507 6.94371 6.03507L7.46608 5.68947C7.46608 5.68947 7.55735 5.51283 7.67779 5.31085C7.84663 5.02746 8.06179 4.71091 8.10877 4.25075C8.18071 3.56915 8.00778 3.12256 8.01751 2.71872C8.02723 2.31488 8.03107 2.01779 8.11274 1.94586C8.1944 1.87392 8.13603 1.90119 8.13603 1.90119L8.13591 1.90093Z" fill="#A88F33"/>
<path fill-rule="evenodd" clip-rule="evenodd" d="M8.13593 4.94952C8.13593 4.94952 8.36633 4.38248 8.47181 3.87956C8.49126 3.77857 8.53005 3.67771 8.53977 3.59617C8.58829 3.1204 8.60185 2.9243 8.53977 2.66408C8.49126 2.47208 8.30489 2.29902 8.20774 2.16488C8.11264 2.02497 8.06797 1.97288 8.08742 1.94344C8.10688 1.914 8.18253 1.86587 8.25625 1.87163C8.33463 1.87391 8.41172 1.89211 8.48283 1.92511C8.55395 1.95812 8.61762 2.00525 8.66995 2.06363C8.81946 2.23643 8.93785 2.82292 8.93785 2.82292L9.0624 3.59681L9.37894 4.57153L8.13619 4.95028L8.13593 4.94952Z" fill="#C99E3D"/>
<path fill-rule="evenodd" clip-rule="evenodd" d="M10.301 4.3593C10.301 4.3593 10.2582 4.37862 10.1806 4.3593C10.1839 4.39099 10.1784 4.42299 10.1647 4.45176C10.151 4.48054 10.1296 4.50497 10.1029 4.52237C10.0214 4.48934 9.25814 4.55539 9.25814 4.55539C9.25814 4.55539 8.90281 4.49318 8.79209 4.0233C8.71452 3.71059 8.85033 3.27962 8.80566 2.9961C8.73769 2.57856 8.64259 2.4969 8.63286 2.36698C8.62313 2.23706 8.6134 2.2039 8.6134 2.12237C8.57065 2.11264 8.54544 2.09907 8.50281 2.09907C8.49308 2.06067 8.51241 2.02714 8.46979 1.95917C8.49308 1.9689 8.65232 1.98835 8.83868 2.16499C8.99228 2.30874 8.99228 2.36109 9.01545 2.39027C9.04451 2.41933 9.27952 2.62067 9.38051 2.82138C9.4815 3.02208 9.6776 3.66208 9.72227 3.76691C9.73584 3.80966 9.76502 3.85242 9.83747 3.94944C9.95011 4.08934 10.1151 4.32064 10.3015 4.35904L10.301 4.3593Z" fill="#B58634"/>
<path fill-rule="evenodd" clip-rule="evenodd" d="M9.04279 2.39999C9.16041 2.59001 9.26609 2.78717 9.3592 2.99033C9.47376 3.24851 9.54173 3.46022 9.68547 3.63302C9.60778 3.40787 9.46992 2.96511 9.38839 2.8078C9.29712 2.6414 9.11075 2.4622 9.04279 2.40012V2.39999Z" fill="#A88F33"/>
<path fill-rule="evenodd" clip-rule="evenodd" d="M7.72237 5.59232C7.72237 5.59232 7.52628 5.64083 7.16122 5.83309C7.04077 5.89517 6.92634 5.94752 6.81562 5.99616C6.52801 6.12621 6.21953 6.2464 5.97479 6.31271C5.99425 6.336 6.00385 6.3456 6.00385 6.3456C6.00385 6.3456 6.00385 6.44083 6.05633 6.49511C6.02727 6.52429 5.63879 6.78835 5.75348 7.67181C5.83105 7.64275 5.92231 7.60384 5.93588 7.60384C5.9593 7.60781 5.96506 7.67181 5.99412 7.67181C6.02317 7.67181 6.11841 7.63341 6.2194 7.50285C6.21556 7.55533 6.15732 8.08346 6.46989 8.43879C6.52813 8.37082 6.67572 8.14554 6.67572 8.14554L6.67956 8.07373C6.67956 8.07373 6.69313 7.82323 6.77479 7.59411C6.85645 7.36499 7.01556 7.19603 7.01556 7.19603L7.84641 6.0096L7.72212 5.59219L7.72237 5.59232Z" fill="#E6C367"/>
<path fill-rule="evenodd" clip-rule="evenodd" d="M6.94568 7.3344C6.90764 7.36128 6.86573 7.38221 6.82139 7.39648C6.80782 7.34797 6.78837 7.18093 6.90293 7.01785C7.03694 6.82163 7.33006 6.56729 7.4116 6.36505C7.46408 6.23488 7.44078 5.90873 7.90683 5.4912C8.37288 5.07366 8.55528 4.93005 8.55528 4.93005L9.30869 4.55142L10.2349 4.91648L9.77474 6.72L9.41749 7.5648L7.99669 7.29689L6.94555 7.3344H6.94568Z" fill="#DCBA5A"/>
<path fill-rule="evenodd" clip-rule="evenodd" d="M7.48798 6.84468L7.66474 6.62337V6.46606C7.66474 6.46606 7.86084 6.41358 8.07242 6.19802C8.28401 5.98247 8.57726 5.5689 8.83556 5.59412C9.09386 5.6233 9.11908 6.15527 9.12881 6.3049C9.13854 6.45454 9.17156 6.79412 9.22391 6.97678C9.28215 7.1593 8.59479 7.8505 8.59479 7.8505L8.12798 8.20583L7.48798 6.84468Z" fill="#E9CE77"/>
<path fill-rule="evenodd" clip-rule="evenodd" d="M8.03497 8.68735C8.03497 8.68735 8.17872 8.46207 8.07337 8.41355C8.13545 8.27378 8.25001 8.12619 8.25001 8.12619C8.25001 8.12619 8.33155 7.92434 8.59561 7.67576C8.85968 7.42719 9.02288 7.26207 9.06563 7.09515C9.09199 6.98637 9.10632 6.87503 9.10838 6.76312C9.13693 6.78644 9.16747 6.80722 9.19965 6.8252C9.2424 6.84466 9.44425 7.01157 9.4152 7.34757C9.38614 7.68357 9.2616 7.82335 9.2616 7.82335C9.2616 7.82335 9.14128 7.94367 9.0559 8.00587C8.96451 8.06795 8.93161 8.13976 8.77814 8.14565C8.79392 8.13311 8.81165 8.12325 8.83062 8.11647C8.83062 8.11647 8.67139 8.09714 8.58589 8.17471C8.50038 8.25227 8.31862 8.49125 8.22736 8.56319C8.13609 8.62143 8.03536 8.68747 8.03536 8.68747L8.03497 8.68735Z" fill="#CDAE50"/>
<path fill-rule="evenodd" clip-rule="evenodd" d="M14.4913 4.91058C14.2619 4.82697 14.0208 4.77981 13.7768 4.7708C13.369 4.75723 12.7729 4.78053 12.1884 4.78437C11.5593 4.78821 10.9884 4.56882 10.1963 4.53003C10.0662 4.45234 9.73545 4.1125 8.703 4.83288C8.76508 4.82904 9.45257 4.67365 9.69129 4.97279C9.93206 5.26987 9.86409 5.77471 9.8312 5.89503C9.76899 6.16306 9.567 6.55333 9.4856 6.82712C9.40419 7.10091 9.42339 7.24479 9.36515 7.43679C9.30691 7.62879 9.17878 7.72415 9.25443 7.94546C9.35542 7.88338 9.40803 7.88338 9.57673 7.50475C9.74543 7.12613 9.71075 6.85618 9.99043 6.53579C10.2642 6.21349 10.72 5.77266 10.8933 5.66194C11.0667 5.55122 12.4428 4.83672 13.8837 5.51832C14.2312 5.48146 14.4914 4.91045 14.4914 4.91045L14.4913 4.91058Z" fill="#D2A83E"/>
<path fill-rule="evenodd" clip-rule="evenodd" d="M9.28345 4.64639C9.28202 4.6318 9.2788 4.61744 9.27385 4.60364C9.26038 4.57524 9.24268 4.54905 9.22137 4.52594C9.22137 4.52594 8.87961 4.46386 8.70681 4.48319C8.40383 4.51622 8.13004 4.891 8.00192 5.08326C7.87379 5.27551 7.71456 5.57247 7.54176 5.72594C7.54365 5.71099 7.5402 5.69585 7.53203 5.68319C7.53203 5.68319 7.54176 5.69676 7.52243 5.71622C7.5031 5.73567 7.50297 5.74527 7.5127 5.75462L7.54188 5.78367C7.55148 5.78367 7.81951 5.66322 8.18457 5.32287C8.57292 4.96754 8.87001 4.78527 9.0254 4.72281C9.10827 4.68759 9.19489 4.66195 9.28358 4.64639H9.28345Z" fill="#C29637"/>
<path fill-rule="evenodd" clip-rule="evenodd" d="M15.9127 3.18643C15.9127 3.18643 15.8505 3.264 15.7728 3.3495C15.6 3.53203 15.3747 3.73773 15.1825 3.94944C15.0001 4.15142 14.7943 4.30874 14.5631 4.5728C14.3319 4.83686 14.0639 5.12998 13.9961 5.21549C13.934 5.30099 13.8855 5.44077 13.8855 5.51258C13.8524 5.48928 13.8137 5.46406 13.8137 5.46406C13.83 5.49455 13.8495 5.52321 13.8719 5.54957C13.9204 5.61754 13.9961 5.70317 14.035 5.75539C14.0827 5.82187 14.117 5.89706 14.1358 5.9767C14.1591 5.98054 14.3086 6.00973 14.4951 5.70291C14.6816 5.3961 14.9261 5.06022 14.9261 5.06022L15.3145 4.48346L15.5592 3.99424L15.8664 3.44666L15.9131 3.18643H15.9127Z" fill="#AC8132"/>
<path fill-rule="evenodd" clip-rule="evenodd" d="M16.3108 2.79425C16.3108 2.79425 16.0758 2.98625 15.9845 3.10145C15.8932 3.21665 15.6773 3.51899 15.6773 3.51899L15.755 3.50926L16.1492 3.15982L16.3028 2.88603L16.3107 2.79476L16.3108 2.79425Z" fill="#A88F33"/>
<path fill-rule="evenodd" clip-rule="evenodd" d="M16.2388 18.2253C16.2388 18.2253 16.235 18.0661 16.3243 17.971C16.4156 17.8757 16.6466 17.736 16.8719 17.2117C17.0972 16.6874 17.1223 16.569 17.1223 16.569C17.1223 16.569 16.7184 16.9146 16.4695 16.9961C16.5277 16.8757 16.5607 16.7903 16.5899 16.7281C16.5569 16.699 16.4171 16.666 16.4036 16.6505C16.4811 16.5728 16.5239 16.3825 16.6812 16.2563C16.8832 16.1027 17.2521 15.8387 17.5388 15.6035C17.8255 15.3682 18.3892 14.821 18.4612 14.6618C18.5039 14.7239 18.5135 14.7626 18.5135 14.7626C18.5135 14.7626 18.2301 15.1317 18.0825 15.3665C17.9524 15.5685 17.9621 15.6831 17.9621 15.6831L18.2301 15.5679C18.2301 15.5679 18.3077 15.8552 17.9563 16.2922C18.1099 16.234 18.1719 16.2689 18.2592 16.2203C18.1154 16.3117 17.9174 16.436 17.731 16.7776C17.5485 17.1194 17.2999 17.5175 16.8806 17.7659C16.4728 18.028 16.2378 18.2241 16.2378 18.2241L16.2388 18.2253Z" fill="#A67A2E"/>
<path fill-rule="evenodd" clip-rule="evenodd" d="M15.1864 5.11269C15.1864 5.11269 15.0272 5.44459 15.0039 5.7029C15.0001 5.76511 14.9844 5.81362 14.9844 5.88543C14.9806 6.11647 14.998 6.37477 14.946 6.49509C14.9266 6.44658 14.9169 6.41355 14.8974 6.39423C14.8684 6.47576 14.8159 6.7301 14.7731 6.8252C14.7538 6.76312 14.711 6.54757 14.715 6.29323C14.719 6.0389 14.7246 5.99026 14.7246 5.93791C14.715 6.01547 14.6625 6.12043 14.6431 6.18251C14.614 6.13016 14.581 6.06219 14.5421 6.00587C14.5188 6.04427 14.4897 6.10098 14.4645 6.13016C14.4605 6.10687 14.4509 6.04466 14.4451 5.95736C14.4412 5.85637 14.4353 5.72632 14.4412 5.69906C14.4508 5.64671 14.5325 5.44088 14.7053 5.25247C14.9111 5.02719 15.1228 4.59429 15.1849 4.46027C15.247 4.32626 15.511 3.76907 15.511 3.76907H15.713L15.4198 4.43698C15.4198 4.43698 15.2431 4.80203 15.1519 4.93618C15.0606 5.07032 14.8684 5.45471 14.7828 5.60421C14.8449 5.52267 14.8974 5.47992 14.9596 5.40223C15.0198 5.34783 15.1867 5.11295 15.1867 5.11295L15.1864 5.11269Z" fill="#8C6228"/>
<path fill-rule="evenodd" clip-rule="evenodd" d="M16.3146 2.76889C16.2816 2.87044 16.2295 2.96472 16.161 3.04665C16.0406 3.19039 15.7822 3.38252 15.6562 3.53587C15.541 3.68537 15.3106 4.09318 15.4153 4.57663C15.4537 4.4718 15.526 4.26406 15.7182 4.02905C15.9105 3.79404 16.1163 3.52422 16.2174 3.31455C16.3183 3.10284 16.3319 2.93593 16.3319 2.93593L16.3703 2.88742L16.347 2.7767L16.314 2.76889H16.3146Z" fill="#CBA94C"/>
<path fill-rule="evenodd" clip-rule="evenodd" d="M20.2467 15.6485C20.2467 15.6485 20.169 15.4369 20.1457 15.2447C20.1224 15.0524 20.1841 15.0143 20.1127 14.7942C20.0699 14.6602 19.9923 14.679 19.9729 14.6602C19.9534 14.6414 19.9399 14.4389 19.9437 14.3282C19.9475 14.2175 19.9399 14.0739 19.9204 14.0116C19.8914 13.9884 19.8719 13.9689 19.8291 13.8253C19.7806 13.6815 19.7573 13.6097 19.734 13.5671C19.7107 13.5245 19.6427 13.4856 19.6427 13.4428C19.6427 13.3573 19.7203 13.3128 19.7203 13.2892C19.7165 13.2407 19.6583 13.2796 19.6427 13.2659C19.6233 13.2426 19.6913 13.1028 19.6661 13.0834C19.6563 13.0738 19.5884 13.1553 19.5708 13.132C19.5514 13.1086 19.5281 12.8776 19.4931 12.7242C19.4603 12.5747 19.4252 12.466 19.4213 12.4214C19.4175 12.3786 19.1533 11.6252 19.0893 11.4427C19.0377 11.2885 18.9943 11.1316 18.9593 10.9728C18.9398 10.8815 18.9262 10.695 18.9165 10.7145C18.9068 10.734 18.9127 10.8291 18.8971 10.8252C18.8835 10.8212 18.835 10.4893 18.8195 10.4369C18.8059 10.3844 18.7243 10.2065 18.7043 10.0777C18.6848 9.94752 18.6422 9.60768 18.613 9.37664C18.5838 9.1456 18.5703 9.05049 18.5703 8.99264C18.575 8.85113 18.5672 8.70947 18.547 8.56934C18.5086 8.32461 18.4318 8.02752 18.3644 7.85485C18.2344 7.52857 17.8887 6.69363 17.8268 6.48589C17.8268 6.43341 17.8948 6.46259 17.8948 6.46259C17.8948 6.46259 18.0636 6.88589 18.1879 7.21203C18.3084 7.5383 18.4229 7.82566 18.4521 7.85485C18.4754 7.8839 18.6579 8.20429 18.7395 8.72857C18.821 9.25286 18.8501 9.73632 18.8987 10.0586C18.922 10.2122 18.9415 10.3752 18.99 10.5382C19.0423 10.715 19.1239 10.8975 19.2307 11.1771C19.322 11.4121 19.39 11.6082 19.4268 11.7772C19.4696 11.9927 19.4696 12.1558 19.4948 12.2627C19.5182 12.3539 19.5531 12.5363 19.6347 12.8003C19.7164 13.0642 19.8366 13.4042 19.9181 13.6157C20.0775 14.039 20.1485 14.3924 20.1726 14.5809C20.1938 14.775 20.2658 15.4469 20.2463 15.6488L20.2467 15.6485Z" fill="#A88F33"/>
<path fill-rule="evenodd" clip-rule="evenodd" d="M16.3243 2.74561L16.3146 2.76891C16.3146 2.76891 16.3437 2.77863 16.3379 2.81755C16.3383 2.87078 16.3351 2.92399 16.3282 2.97678C16.3186 3.04475 16.2991 3.0971 16.2953 3.13985C16.2953 3.23111 16.3089 3.33595 16.1801 3.59617C16.1417 3.66798 16.118 3.73006 16.0985 3.77281C16.05 3.87764 16.0403 3.89326 15.9976 3.94177C16.0655 3.90337 16.3103 3.74977 16.4344 3.77281C16.349 3.82132 16.2189 3.91655 16.1373 4.04084C16.1568 4.04468 16.2383 4.0603 16.3677 4.04084C16.5833 4.00782 16.8241 3.93012 17.0356 3.94561C17.2668 3.95918 17.1755 3.66798 17.1755 3.66798L16.9088 3.08161L16.404 2.72641L16.3243 2.74574V2.74561Z" fill="#BE9C44"/>
<path fill-rule="evenodd" clip-rule="evenodd" d="M17.6409 7.13793C17.6409 7.13793 17.4156 6.91265 17.3243 6.13953C17.233 5.36282 17.2525 4.21953 17.2525 4.21953L17.07 3.77293C17.07 3.77293 17.0316 3.47585 16.936 3.36525C16.8403 3.25466 16.6526 3.06817 16.5671 2.9769C16.4816 2.88564 16.3845 2.76135 16.3263 2.74189C16.3553 2.69338 16.4855 2.41959 16.9845 2.41575C17.4834 2.41191 17.6373 2.68954 17.6894 2.79053C17.7415 2.89153 17.9767 3.32813 18.064 4.16013C18.1456 4.99111 18.1495 5.05332 18.136 5.34068C18.1262 5.49991 18.0738 5.86881 17.9824 6.26292C17.8989 6.597 17.8076 6.96986 17.6406 7.13869L17.6409 7.13793Z" fill="#A17C34"/>
<path fill-rule="evenodd" clip-rule="evenodd" d="M16.9344 7.80007C17.0095 7.80549 17.0845 7.78856 17.15 7.75143C17.2218 7.74759 17.482 7.78061 17.6819 7.52628C17.6955 7.58439 17.7306 7.74183 17.6392 7.8816C17.6878 7.83296 17.7596 7.81364 17.7694 7.80007C17.7732 7.87188 17.8412 8.09319 17.5538 8.63104C17.6314 8.54567 17.7226 8.54951 17.8042 8.53978C17.8081 8.64077 17.8624 8.98048 17.7188 9.16314C17.6237 9.28743 17.4683 9.24852 17.4683 9.24852C17.4706 9.22138 17.4706 9.19411 17.4683 9.16698C17.4645 9.1145 17.445 9.06215 17.4587 9.0272C17.3836 8.99291 17.3152 8.94553 17.2567 8.8873C17.0878 8.72807 16.8684 8.45632 16.8529 8.25434C16.8334 8.02906 17.0354 7.98055 17.0354 7.98055C17.0185 7.96541 17.0041 7.9477 16.9927 7.92807C16.9829 7.89517 16.9732 7.84269 16.9344 7.80007Z" fill="#8C6228"/>
<path fill-rule="evenodd" clip-rule="evenodd" d="M15.4368 5.35732C15.4368 5.35732 15.427 5.34376 15.3747 5.40584C15.3844 5.34376 15.3942 5.28539 15.398 5.22907C15.4228 5.17693 15.4548 5.12857 15.4932 5.08545C15.464 5.14356 15.4446 5.19604 15.4446 5.19604C15.4446 5.19604 15.5165 5.06203 15.6214 4.98049C15.6932 4.92225 15.7844 4.89512 15.8232 4.84072C15.866 4.78248 15.8562 4.77275 15.866 4.76302C15.866 4.76302 15.9612 4.70094 16.1069 4.51828C16.1262 4.49499 16.1554 4.46977 16.1748 4.44648C16.2077 4.43291 16.2854 4.39796 16.3767 4.35124C16.4719 4.29889 16.5787 4.22708 16.6447 4.19764C16.7748 4.1394 16.9127 4.14529 16.9767 4.0539C17.0253 4.04033 17.0776 3.89467 17.068 3.77051C17.1398 3.79956 17.5087 4.02868 17.635 4.52968C17.7263 4.885 17.5631 5.43259 17.4951 5.69678C17.4272 5.96097 17.4176 6.15694 17.3223 6.27726C17.2019 6.43662 16.8137 6.66126 16.7184 6.77249C16.6369 6.86376 16.3923 7.0948 16.4019 7.26171C16.4116 7.386 16.565 7.45371 16.5981 7.47726C16.6313 7.50081 16.631 7.52974 16.6932 7.51566C16.7554 7.50158 16.7786 7.47291 16.8039 7.47291C16.833 7.47675 16.833 7.48264 16.8466 7.48264C16.8564 7.48234 16.8662 7.48101 16.8758 7.47867C16.8758 7.47867 16.866 7.65544 16.4525 7.70907C16.4233 7.71304 16.3942 7.72264 16.3572 7.72852C16.4059 7.70523 16.4349 7.70523 16.4874 7.63342C16.4292 7.62369 16.2621 7.61396 16.2194 7.6004C16.2329 7.5771 16.2776 7.51489 16.3145 7.48584C16.3475 7.45678 16.3106 7.44744 16.2816 7.46254C16.2315 7.49658 16.1836 7.5335 16.1378 7.57313C16.0893 7.61588 16.0466 7.67412 15.9689 7.72673C15.9456 7.64904 15.9494 7.50145 16.0408 7.3947C16.0174 7.39854 15.9727 7.46651 15.9301 7.45294C15.9224 7.38211 15.927 7.31049 15.9437 7.24123C15.967 7.1538 16.0932 7.00046 16.0932 7.00046L16.7028 5.91105L16.8329 5.08584L15.4368 5.35707V5.35732Z" fill="#92723A"/>
<path fill-rule="evenodd" clip-rule="evenodd" d="M15.4039 5.40391C15.4039 5.40391 15.3709 5.4272 15.4369 5.47187C15.4272 5.48544 15.4039 5.53395 15.3747 5.56698C15.3418 5.60538 15.3067 5.62919 15.2932 5.66221C15.2641 5.73018 15.2408 5.77677 15.2408 5.80595C15.2408 5.83514 15.2311 6.02151 15.1495 6.14183C15.1204 6.18458 15.0873 6.25639 15.064 6.3049C15.0155 6.39027 14.9728 6.4585 14.9631 6.4969C14.9437 6.56487 14.9302 6.75123 14.9302 6.75123C14.9302 6.75123 14.9729 6.69875 14.9884 6.67943C14.965 6.72794 14.9398 6.78029 14.9029 6.8192C14.9262 6.79975 14.9942 6.75123 15.1087 6.65024C15.2679 6.51635 15.5165 6.29107 15.8195 6.11264C15.7281 6.14567 15.6505 6.14567 15.5885 6.15539C15.637 6.10688 16.0738 5.59424 16.303 5.54573C16.3169 5.52809 16.3238 5.50595 16.3224 5.48352L16.1262 5.46419L15.7281 5.54957L15.67 5.24237L15.4039 5.40352V5.40391Z" fill="#B18E3E"/>
<path fill-rule="evenodd" clip-rule="evenodd" d="M16.037 7.15148C16.037 7.15148 15.9845 7.20384 15.936 7.33401C15.8987 7.29501 15.8666 7.25124 15.8408 7.20384C15.769 7.08352 15.6584 6.93004 15.4001 7.01747C15.3962 6.93593 15.3903 6.89318 15.4001 6.83494C15.4428 6.82534 15.5729 6.72051 15.7029 6.56704C15.7943 6.4622 15.8797 6.34176 15.9379 6.18841C15.9763 6.15923 16.0428 6.11072 16.1299 6.0544C16.2542 5.96902 16.4037 5.85241 16.427 5.72236C16.3688 5.74566 16.2445 5.8039 16.058 5.7943C16.1299 5.76128 16.2405 5.72633 16.227 5.58259C16.2561 5.56313 16.2794 5.54956 16.2794 5.54956C16.2575 5.54226 16.2345 5.53897 16.2115 5.53984C16.2075 5.52627 16.2017 5.50694 16.1687 5.51654C16.1357 5.52614 16.1303 5.52627 16.126 5.53984C16.1124 5.5438 16.0677 5.53984 16.0347 5.56326C16.0017 5.58668 15.9104 5.66412 15.8755 5.67769C15.889 5.6544 15.9084 5.61958 15.9084 5.61958C15.9084 5.61958 15.8133 5.62918 15.7453 5.65798C15.621 5.70073 15.4774 5.77843 15.3317 5.85408C15.3453 5.83078 15.3512 5.81568 15.3608 5.81132C15.3704 5.80697 15.3938 5.80172 15.3938 5.79776C15.3938 5.79379 15.3842 5.75936 15.39 5.7454C15.4335 5.65315 15.4849 5.5648 15.5436 5.48134C15.6115 5.38995 15.6251 5.2599 15.6251 5.2599L15.9222 5.1104L16.7571 4.9184L17.299 4.95142L17.231 5.3262L16.911 5.98054L16.6372 6.57664L16.3245 6.94182L16.0371 7.15148H16.037Z" fill="#543E26"/>
<path fill-rule="evenodd" clip-rule="evenodd" d="M17.3903 5.52959C17.3903 5.52959 17.064 5.93343 16.9728 5.99564C17.031 5.87135 17.3903 5.13151 17.5204 4.92569C17.4913 4.90239 17.4524 4.90239 17.5437 4.54169C17.4661 4.72409 17.4388 4.81932 17.3748 4.86783C17.3108 4.91634 17.3029 4.90086 17.2596 4.90086C17.2678 4.88608 17.2712 4.86912 17.2692 4.85234C17.2692 4.85234 16.9954 4.81932 16.8084 4.81932C16.6214 4.81932 16.2512 4.92031 16.0453 5.00185C15.8822 5.06981 15.791 5.06981 15.7327 5.11244C15.6745 5.16095 15.6415 5.21343 15.6123 5.227C15.589 5.24057 15.4784 5.27551 15.453 5.31237C15.4297 5.35077 15.391 5.39391 15.391 5.40364C15.391 5.41337 15.3812 5.42706 15.4104 5.41721C15.42 5.41337 15.492 5.37445 15.5735 5.32594C15.6841 5.26386 15.8181 5.19206 15.9152 5.1493C16.1929 5.03858 16.2803 5.05804 16.4045 5.03474C16.5345 5.01145 16.721 4.95705 16.8452 4.95705C16.9695 4.95321 17.2045 4.95705 17.2589 4.96677C17.2356 4.98623 17.2161 5.00953 17.2258 5.09106C17.2258 5.11436 17.2064 5.13957 17.1874 5.19589C17.1293 5.35513 17.0186 5.61919 16.957 5.75321C16.8717 5.93561 16.7746 6.08908 16.7266 6.18418C16.6786 6.27929 16.573 6.52978 16.4685 6.6638C16.3639 6.79781 16.3092 6.87935 16.2765 6.90853C16.2437 6.93772 16.0084 7.11039 16.026 7.1726C16.0687 7.15903 16.3387 7.0574 16.5346 6.83673C16.7306 6.61606 16.7696 6.4814 16.923 6.36095C17.0763 6.2405 17.1968 6.03865 17.2686 5.87174C17.3288 5.71634 17.3152 5.66783 17.3908 5.52997L17.3903 5.52959Z" fill="#806031"/>
<path fill-rule="evenodd" clip-rule="evenodd" d="M10.3593 8.54374C10.3593 8.54374 10.3165 8.72038 10.2194 8.8078C10.1243 8.89331 9.95531 8.96704 9.93598 9.11078C9.91268 9.2544 10.1049 9.32633 10.1049 9.32633C10.1049 9.32633 9.99998 9.49913 9.99998 9.62918C9.99998 9.7632 9.99614 9.78841 10.0097 9.91654C9.99431 9.92645 9.98121 9.93954 9.97131 9.95494C9.97131 9.95494 9.98091 10.0792 10.0761 10.1568C10.1714 10.2344 10.2528 10.2811 10.3013 10.2616C10.3087 10.2775 10.3152 10.2937 10.3207 10.3103C10.3207 10.3103 10.3927 10.1277 10.4412 9.96851C10.4897 9.80543 10.5325 9.8286 10.5518 9.60921C10.5711 9.38982 10.7822 9.01312 10.7822 9.01312L10.9262 8.6912L10.6913 8.50867L10.3593 8.54361V8.54374Z" fill="#B6903C"/>
<path fill-rule="evenodd" clip-rule="evenodd" d="M10.7962 8.86017C10.7477 8.90989 10.703 8.96311 10.6624 9.0194C10.6003 9.1049 10.5518 9.18247 10.4605 9.21562C10.3693 9.24878 10.311 9.24852 10.3168 9.33991C10.3226 9.4313 10.4081 9.46996 10.4566 9.51655C10.5091 9.56506 10.5518 9.6466 10.5285 9.73799C10.5576 9.72442 10.61 9.70881 10.6586 9.60398C10.7071 9.49914 11.0464 8.8603 11.0464 8.8603H10.7962V8.86017Z" fill="#685026"/>
<path fill-rule="evenodd" clip-rule="evenodd" d="M12.1344 7.38636C12.1344 7.38636 12.1634 7.30879 12.1344 7.25247C12.1052 7.19423 11.9286 7.17477 11.8411 7.10872C11.7499 7.04076 11.6391 6.99352 11.5479 7.02335C11.5614 6.99032 11.6158 6.91839 11.5712 6.9029C11.5284 6.88933 11.3693 6.96114 11.3266 6.99416C11.2838 7.02719 11.1867 7.06597 11.1673 7.0894C11.148 7.11282 11.1149 7.15736 11.0954 7.13791C11.0759 7.12434 11.0663 7.0894 11.0333 7.10872C11.0003 7.12805 10.8413 7.25823 10.812 7.334C10.7827 7.40978 10.7168 7.57874 10.5188 7.77087C10.3207 7.963 10.2352 8.08741 10.2935 8.15922C10.3517 8.23103 10.379 8.17868 10.3887 8.24076C10.3962 8.3017 10.3929 8.36348 10.379 8.42328C10.3557 8.52428 10.3169 8.61938 10.3693 8.63884C10.5033 8.68159 10.6334 8.60044 10.6625 8.62527C10.7207 8.67762 10.6295 8.86604 10.7673 8.9029C10.9072 8.9413 11.0451 8.86988 11.0451 8.86988L11.5538 8.59608L12.0431 8.33791L12.2935 7.84268L12.1592 7.42911L12.1336 7.38636H12.1344Z" fill="#D4B968"/>
<path fill-rule="evenodd" clip-rule="evenodd" d="M11.6544 8.56897C11.6544 8.56897 11.5689 8.43892 11.6739 8.32423C11.7788 8.20954 11.9282 8.16116 11.9864 8.08935C11.9754 8.07568 11.9605 8.06557 11.9437 8.0603C11.9824 7.99112 12.0413 7.93549 12.1127 7.90094C12.0836 7.87188 12.0447 7.84858 12.0021 7.84858C11.9068 7.84858 11.8485 7.90682 11.7612 7.90682C11.6758 7.90682 11.6661 7.86407 11.6661 7.86407C11.6661 7.86407 11.8098 7.8505 11.7961 7.78638C11.7825 7.71841 11.7577 7.71841 11.7577 7.71841C11.7577 7.71841 12.0353 7.60321 12.0839 7.54177C12.1324 7.48033 12.1266 7.40775 12.1363 7.3787C12.1692 7.3787 12.3615 7.2777 12.4392 7.32046C12.5169 7.36321 12.4625 7.47969 12.4625 7.47969C12.4625 7.47969 12.6976 7.30292 12.8174 7.12961C12.9223 7.13934 12.971 7.0578 13.0478 7.0578C13.1431 7.0578 13.2926 7.18785 13.3216 7.46548C13.3411 7.62471 13.3701 7.71598 13.3411 7.99758C13.3275 8.15681 13.3313 8.49678 13.3795 8.66548C13.4124 8.7995 13.4901 8.78593 13.4901 8.78593C13.4781 8.82677 13.4545 8.86321 13.4221 8.89076C13.3696 8.93927 13.3639 9.06753 13.3696 9.11604C13.3774 9.15151 13.3871 9.18651 13.3988 9.22087C13.3988 9.22087 13.3367 9.29268 13.3211 9.34132C13.3075 9.38983 13.2435 9.42286 13.1968 9.42286C13.1501 9.42286 13.1735 9.41889 13.1114 9.42286C13.0494 9.42682 13.0299 9.43642 12.991 9.42286C12.9521 9.40929 12.923 9.39367 12.9386 9.26926C12.9522 9.14497 12.459 8.85569 12.459 8.85569L11.6526 8.56833L11.6544 8.56897Z" fill="#CCA849"/>
<path fill-rule="evenodd" clip-rule="evenodd" d="M10.7282 9.79609C10.7282 9.79609 10.9048 10.0311 11.6311 10.0311C11.9767 10.0311 12.0971 9.99808 12.1687 9.97862C12.2464 9.95916 12.5376 9.84473 12.8308 9.499C13.0949 9.18643 13.0367 9.0583 13.0367 9.0583L12.8831 9.035L12.3839 9.10297L10.9067 9.73209L10.7275 9.79609H10.7282Z" fill="#585136"/>
<path fill-rule="evenodd" clip-rule="evenodd" d="M11.2699 9.85433C11.2699 9.85433 10.6407 9.99423 10.6407 9.59615C10.6407 9.2078 11.0291 8.79999 11.1263 8.72818C11.2272 8.65625 11.468 8.57458 11.468 8.57458H12.0486L12.1592 8.86783L12.1107 9.50079L11.2699 9.8542V9.85433Z" fill="#252211"/>
<path fill-rule="evenodd" clip-rule="evenodd" d="M11.8505 8.69326C11.8505 8.69326 11.7301 8.58254 11.4564 8.73166C11.1826 8.88078 10.9611 9.19246 10.9476 9.47546C10.934 9.72583 11.1534 9.91233 11.4951 9.92206C11.7495 9.93166 11.9029 9.9026 11.9806 9.88366C11.9612 9.86036 11.8602 9.73415 11.8602 9.73415L11.8506 8.69338L11.8505 8.69326Z" fill="#C3B378"/>
<path fill-rule="evenodd" clip-rule="evenodd" d="M11.7321 8.75521C11.7321 8.75521 11.703 8.73192 11.6169 8.77851C11.5451 8.81691 11.4402 8.91841 11.3587 8.99022C11.3062 9.03297 11.2732 9.0523 11.2435 9.08533C11.1231 9.22907 11.0221 9.46408 11.0804 9.58056C11.1388 9.69704 11.3309 9.83105 11.8203 9.73979L11.7307 8.75534L11.7321 8.75521Z" fill="#E6D89C"/>
<path fill-rule="evenodd" clip-rule="evenodd" d="M11.5728 8.99608C11.5728 8.99608 11.4951 9.11653 11.4951 9.30879C11.4951 9.50488 11.6059 9.81746 12.0137 9.84075C12.3262 9.86021 12.5359 9.39032 12.7631 9.20779C12.9359 9.06802 13.0407 9.06405 13.0407 9.06405C13.0407 9.06405 12.8641 8.87205 12.3923 8.62335C11.9262 8.37285 11.4039 8.33983 11.1204 8.72434C11.2544 8.71461 11.6874 8.60389 11.6874 8.60389L11.8991 8.67186L11.5728 8.99621V8.99608Z" fill="#252211"/>
<path fill-rule="evenodd" clip-rule="evenodd" d="M12.1825 9.25043C12.1689 9.22137 12.1592 9.18246 12.2155 9.17286C12.2719 9.16326 12.2971 9.16889 12.3165 9.21126C12.336 9.25363 12.3549 9.28895 12.3261 9.30649C12.2971 9.32198 12.2213 9.30649 12.1824 9.25017L12.1825 9.25043ZM12.0912 8.97663C12.0912 8.97663 12.0718 8.9902 12.0815 8.96307C12.0854 8.93017 12.1107 8.8718 12.1728 8.8855C12.2349 8.89919 12.2214 8.96703 12.2112 8.98649C12.2009 9.00595 12.1491 9.03884 12.1102 9.02489C12.1053 9.02363 12.1007 9.02122 12.0969 9.01787C12.093 9.01451 12.0901 9.0103 12.0882 9.00557C12.0863 9.00084 12.0855 8.99574 12.086 8.99067C12.0864 8.98559 12.088 8.9807 12.0907 8.97638L12.0912 8.97663Z" fill="#6F674D"/>
<path fill-rule="evenodd" clip-rule="evenodd" d="M6.83521 9.1008C6.83521 9.1008 6.98881 9.216 7.16724 9.21152C7.34388 9.20755 7.57108 9.02515 7.67591 8.90855C7.73799 8.84058 7.79111 8.76877 7.84871 8.71245C7.89735 8.66394 7.93025 8.64064 7.95354 8.60762C7.98657 8.56922 8.02151 8.49703 8.03904 8.4736C7.99629 8.50663 7.93421 8.56499 7.87008 8.60378C7.808 8.64218 7.67399 8.71437 7.61959 8.73383C7.56724 8.75328 7.02349 9.04103 7.02349 9.04103L6.83521 9.1008Z" fill="#AC924C"/>
<path fill-rule="evenodd" clip-rule="evenodd" d="M7.06995 7.66604C7.06995 7.66604 7.15532 7.6078 7.32044 7.57081C7.47967 7.53241 7.80006 7.50284 7.80006 7.50284L8.06412 7.61804L8.16895 8.01612L7.97695 8.42981L7.73235 8.58341L7.45459 8.13682L7.07059 7.66681L7.06995 7.66604Z" fill="#9F8E57"/>
<path fill-rule="evenodd" clip-rule="evenodd" d="M6.72433 8.02138L6.63293 8.0896C6.63293 8.0896 6.65636 8.04685 6.67569 7.9168C6.69501 7.78676 6.79613 7.47021 6.94372 7.28768C7.0913 7.10516 7.08746 7.11488 7.08746 7.11488C7.07388 7.1124 7.05993 7.11284 7.04653 7.11617C7.03313 7.1195 7.0206 7.12565 7.00977 7.13421C7.02922 7.0912 7.15351 6.9376 7.2778 6.8608C7.40209 6.784 7.4506 6.75981 7.58065 6.8224C7.71069 6.885 7.74372 6.91751 7.83895 6.91367C7.93418 6.90983 8.01559 6.80884 8.01559 6.80884C8.01559 6.80884 8.03505 6.87092 7.96324 7.01466C7.89143 7.1584 7.60791 7.45152 7.60791 7.45152L7.01757 7.85536L6.72433 8.02176V8.02138Z" fill="#EAC970"/>
<path fill-rule="evenodd" clip-rule="evenodd" d="M7.1611 7.61755C7.1611 7.61755 7.58836 7.67579 7.71841 7.55547C7.72225 7.56904 7.73786 7.56904 7.73786 7.57876C7.73682 7.5861 7.7334 7.59288 7.72814 7.59809C7.74228 7.59583 7.75657 7.59455 7.77089 7.59425C7.78799 7.59934 7.80558 7.6026 7.82337 7.60398C7.83769 7.60367 7.85198 7.60234 7.86612 7.60001C7.86477 7.60966 7.86149 7.61894 7.85648 7.6273C7.85146 7.63566 7.84482 7.64292 7.83694 7.64865C7.85639 7.64865 7.87534 7.65249 7.87534 7.66798C7.87534 7.68347 7.87918 7.73019 7.85588 7.73992C7.83658 7.74525 7.81604 7.74385 7.79764 7.73595C7.79918 7.77271 7.80917 7.80863 7.82682 7.84091C7.86522 7.91272 7.94714 7.99451 8.05722 7.97096C8.05722 7.97096 8.11534 8.11073 7.87073 8.42139C7.83783 8.46414 7.80276 8.52238 7.76014 8.57089C7.74329 8.6076 7.73042 8.64601 7.72174 8.68545C7.72174 8.68545 8.13543 8.52622 8.25383 8.16308C8.37428 7.79803 8.39758 7.43886 8.37428 7.10299C8.37031 7.00776 8.35482 6.93992 8.33153 6.89128C8.27329 6.77083 8.11009 6.79028 8.04417 6.85825C7.94894 6.95348 7.7897 7.19028 7.56839 7.35336C7.34311 7.51643 7.33351 7.54536 7.16058 7.61755H7.1611Z" fill="#D7BC6B"/>
<path fill-rule="evenodd" clip-rule="evenodd" d="M6.64861 8.14183C6.64861 8.14183 6.56707 8.19034 6.52432 8.37223C6.48157 8.5586 6.56272 8.7858 6.60969 8.85761C6.65667 8.92941 6.76329 9.12564 6.98448 9.13537C7.03922 9.13508 7.09336 9.12385 7.14371 9.10234C7.22092 9.06694 7.29335 9.02191 7.35926 8.96833C7.45449 8.89652 7.53206 8.83444 7.52233 8.82855C7.49904 8.81882 6.93597 8.35277 6.93597 8.35277L6.72425 8.11649L6.64848 8.14209L6.64861 8.14183Z" fill="#585136"/>
<path fill-rule="evenodd" clip-rule="evenodd" d="M7.18082 8.91455C7.18082 8.91455 7.29538 8.90494 7.36335 8.86219C7.43132 8.81944 6.96527 8.35736 6.96527 8.35736L6.9983 8.85656L7.18082 8.91455Z" fill="#453A25"/>
<path fill-rule="evenodd" clip-rule="evenodd" d="M6.68547 8.10676C6.68547 8.10676 6.62723 8.21748 6.62723 8.24666C6.6175 8.34177 6.64668 8.64077 6.66998 8.73588C6.69328 8.83687 6.81948 8.99021 6.98268 8.99021C7.08355 8.99021 7.22345 8.92813 7.22345 8.91264C7.22345 8.89319 7.07971 8.87425 7.04092 8.80193C7.01763 8.76353 7.0079 8.66804 7.00252 8.57153C6.99868 8.50945 6.99868 8.44148 7.02198 8.41793C7.07446 8.35969 7.08406 8.19264 7.08406 8.19264L7.27043 7.84641H7.02531L6.73206 8.02893L6.68547 8.10676Z" fill="#84754B"/>
<path fill-rule="evenodd" clip-rule="evenodd" d="M6.61365 8.21365C6.61365 8.21365 6.80565 7.95931 6.9787 7.90094C7.15176 7.84257 7.2292 7.87765 7.2292 7.87765L7.12821 8.13595L6.98446 8.29518L6.99419 8.37672C6.99419 8.37672 6.97077 8.59227 7.11451 8.74177C7.25826 8.89128 7.36501 8.88552 7.42722 8.88552C7.48942 8.88552 7.66798 8.83304 7.75925 8.61749C7.84078 8.41563 7.90875 8.15669 7.74568 7.8971C7.58632 7.6388 7.30485 7.62881 7.25045 7.62881C7.19605 7.62881 6.76891 7.65019 6.61365 8.21326V8.21365Z" fill="#252211"/>
<path fill-rule="evenodd" clip-rule="evenodd" d="M11.5437 9.07764C11.4719 9.04462 11.5398 8.84276 11.6116 8.78056C11.6835 8.71835 11.7747 8.64667 11.9341 8.63681C11.9922 8.63297 12.0485 8.66984 12.0389 8.70875C12.0253 8.78056 11.9244 8.88155 11.8331 8.95336C11.7069 9.05243 11.6252 9.11451 11.5437 9.07764Z" fill="#F7F7E7"/>
<path fill-rule="evenodd" clip-rule="evenodd" d="M7.66018 7.97671C7.71266 7.97287 7.78062 8.01511 7.79419 8.07195C7.80776 8.13403 7.76117 8.25831 7.66018 8.25831C7.57864 8.25831 7.53589 8.15732 7.53589 8.12827C7.53681 8.10437 7.54348 8.08106 7.55534 8.0603C7.55918 8.05441 7.56891 7.98644 7.66018 7.97671Z" fill="#F8F6DE"/>
<path fill-rule="evenodd" clip-rule="evenodd" d="M6.90292 8.02136C6.90292 8.02136 6.76891 8.08344 6.70683 8.21336C6.66247 8.3093 6.64905 8.41666 6.66843 8.52056C6.67815 8.56907 6.72667 8.68939 6.75969 8.73215C6.79271 8.7749 6.83739 8.80408 6.87041 8.80011C6.90343 8.79615 6.97127 8.70885 6.97127 8.6565C6.97127 8.60415 6.97524 8.38271 7.03924 8.26226C7.09556 8.14194 6.90331 8.02149 6.90331 8.02149L6.90292 8.02136Z" fill="#D4C38B"/>
<path fill-rule="evenodd" clip-rule="evenodd" d="M6.92239 8.01166C6.89909 8.02523 6.86031 8.04468 6.86991 8.0699C6.87963 8.0932 6.96117 8.1083 6.99035 8.16513C7.02338 8.22337 7.02338 8.28545 7.01365 8.31464C7.03901 8.30258 7.06203 8.28611 7.08162 8.266C7.12437 8.21748 7.17672 8.15156 7.22139 8.15156C7.25058 8.15156 7.27963 8.16513 7.3069 8.16513C7.34965 8.16513 7.39227 8.15156 7.39816 8.10689C7.40776 8.04865 7.31663 7.99617 7.26415 8.0059C7.27387 7.9675 7.28744 7.91079 7.24469 7.87188C7.20194 7.83297 7.06805 7.90107 7.03887 7.92052C7.00968 7.93998 6.92239 8.01179 6.92239 8.01179V8.01166Z" fill="#E2D59D"/>
<path fill-rule="evenodd" clip-rule="evenodd" d="M10.0078 12.0913L10.2952 12.0064L10.3767 12.0646C10.3767 12.0646 10.4348 12.1889 10.5262 12.2044C10.497 12.2665 10.4212 12.3196 10.4252 12.3637C10.4292 12.4077 10.468 12.4414 10.468 12.4414C10.468 12.4414 10.2097 12.8685 10.7185 13.299C10.598 13.3475 10.4447 13.4142 10.3631 13.4526C10.4212 13.4661 10.5455 13.491 10.598 13.5381C10.6505 13.5852 10.6505 13.6001 10.699 13.6293C10.7475 13.6585 10.7766 13.6973 10.767 13.7147C10.7339 13.6952 10.6232 13.6371 10.6039 13.6914C10.5846 13.7457 10.1243 13.7244 10.1243 13.7244L9.34758 13.8739C9.34758 13.8739 9.37663 13.7962 9.2951 13.7244C9.19999 13.639 9.08351 13.7283 8.95923 13.6332C8.79615 13.5089 8.79027 13.3651 8.73792 13.3109C8.79027 13.2778 8.89715 13.2293 9.15148 13.1957C9.14176 13.1762 9.10873 13.118 9.12819 13.0656C9.15148 12.9976 9.24851 12.9549 9.21945 12.8736C9.2622 12.8639 9.28153 12.8639 9.38841 12.7299C9.4894 12.5958 9.55148 12.5668 9.62918 12.5571C9.70688 12.5473 9.75347 12.5571 9.89721 12.423C9.99807 12.3279 9.96518 12.2464 9.96518 12.2464C9.96518 12.2464 10.0311 12.225 10.0079 12.091L10.0078 12.0913Z" fill="#CBAC5A"/>
<path fill-rule="evenodd" clip-rule="evenodd" d="M9.15932 12.1344C9.16316 12.1149 9.17878 12.1052 9.28361 12.1149C9.38844 12.1247 10.0525 12.0529 10.2331 12.0431C10.4156 12.0296 11.0583 12.0392 11.371 12.1052C11.6837 12.1713 12.0002 12.2489 12.1535 12.2877C12.3071 12.3305 12.3555 12.3458 12.3496 12.3653C12.3458 12.3848 12.3112 12.4037 12.2914 12.3983C12.272 12.3945 11.7632 12.2391 11.606 12.2063C11.4489 12.1736 10.905 12.0859 10.6076 12.0911C10.33 12.0951 10.2193 12.0873 9.98441 12.1144C9.7494 12.1436 9.36105 12.1824 9.24457 12.1669C9.12937 12.1533 9.15318 12.1533 9.15907 12.1339L9.15932 12.1344Z" fill="#D6BC6F"/>
<path fill-rule="evenodd" clip-rule="evenodd" d="M10.7223 13.6563C10.7223 13.6563 11.1204 13.8719 11.2641 14.1359C11.369 14.332 11.2021 14.4292 11.2021 14.4292C11.2021 14.4292 11.4273 14.4292 11.3982 14.5535C11.3846 14.631 11.0098 14.8407 10.7593 14.9514C10.505 15.0621 10.5147 15.0564 10.3904 15.0757C10.27 15.0952 9.93986 15.0373 9.87189 15.1339C9.80392 15.2306 9.83349 15.3302 9.85244 15.3457C9.87189 15.3592 10.0292 15.3787 10.0292 15.3787C10.0292 15.3787 9.99618 15.4699 9.67004 15.4797C9.34389 15.4894 9.26223 15.5126 9.24277 15.5476C9.22332 15.5805 9.30485 15.5612 9.45448 15.586C9.60399 15.6093 9.81365 15.6244 9.81365 15.6244C9.81365 15.6244 9.74568 15.6827 9.56904 15.7293C9.36706 15.7816 9.05052 15.8303 8.95541 15.8885C9.00392 15.9215 9.07586 15.97 9.10901 15.9739C9.02748 15.9933 8.91279 16.0361 8.89346 16.0516C8.92252 16.071 8.96143 16.0943 8.96143 16.0943C8.96143 16.0943 8.79823 16.2904 8.70312 16.3391C8.60802 16.3877 8.06044 16.6419 7.87202 16.5934C7.40213 16.4691 7.34389 15.9546 7.22933 15.9158C7.05653 15.8575 6.975 15.9739 6.82152 15.8923C6.88949 15.8438 6.92648 15.8148 6.99829 15.7817C6.9206 15.7433 6.51868 15.4885 6.51868 15.4885C6.47665 15.3969 6.42999 15.3075 6.3789 15.2206C6.3012 15.0866 6.1869 14.9079 6.10114 14.7506C5.91477 14.405 5.90504 14.2457 5.73608 14.0497C5.76527 14.0113 5.86613 14.0166 5.86613 14.0166L7.28181 14.4827L9.79202 14.5554L10.4448 13.6234L10.7225 13.6564L10.7223 13.6563Z" fill="#DFC677"/>
<path fill-rule="evenodd" clip-rule="evenodd" d="M7.00391 15.0776C7.01905 15.0945 7.03671 15.1089 7.05626 15.1204C7.1049 15.1534 7.17671 15.1923 7.22522 15.2504C7.24467 15.2214 7.29319 15.1689 7.37882 15.2504C7.46445 15.332 7.57082 15.2739 7.63699 15.2932C7.70496 15.3166 7.7088 15.3262 7.7088 15.3262C7.7088 15.3262 7.7472 15.2932 7.83309 15.2582C7.88557 15.2388 7.94765 15.2252 8.01562 15.2059C8.0777 15.1923 8.14567 15.1729 8.19239 15.1729C8.23514 15.2019 8.38848 15.3649 9.00403 15.1244C9.58464 14.8991 9.71853 14.8739 9.81568 14.9087C9.82541 14.8854 9.83514 14.8407 9.98464 14.8466C9.98464 14.7845 9.86035 14.5728 9.86035 14.5728L9.17491 14.3379H8.8L7.67578 14.5437L7.0528 14.8992L7.00429 15.0784L7.00391 15.0776Z" fill="#C4A859"/>
<path fill-rule="evenodd" clip-rule="evenodd" d="M6.62915 14.6835C6.62915 14.6835 6.64272 14.7883 6.79811 14.8991C6.95171 15.0097 6.99997 15.0757 6.99997 15.0757C6.99997 15.0757 7.02915 15.0373 7.05245 14.9981C7.07574 14.9554 7.0952 14.9069 7.13398 14.8933C7.21168 14.8603 7.38832 14.9224 7.42723 14.9126C7.46025 14.903 7.45053 14.8351 7.48547 14.8351C7.56701 14.8311 7.61936 14.8874 7.64854 14.8874C7.67773 14.8874 7.74941 14.8836 7.75913 14.8681C7.76886 14.8526 7.7727 14.6913 7.88342 14.6136C8.00387 14.5282 8.15145 14.5651 8.19062 14.5846C8.19062 14.6136 8.19446 14.6856 8.27216 14.6894C8.34985 14.6932 8.35753 14.6797 8.42576 14.703C8.49398 14.7263 8.57526 14.6991 8.61213 14.8136C8.64515 14.804 8.72285 14.7942 8.70339 14.6835C8.74179 14.6545 8.77533 14.635 8.85699 14.5204C8.87645 14.4914 8.90934 14.4584 8.93469 14.4156C9.00265 14.4156 9.08419 14.402 9.19286 14.4971C9.15984 14.5204 9.14038 14.5355 9.13078 14.5592C9.1592 14.5874 9.18516 14.6179 9.20835 14.6505C9.23753 14.6889 9.25699 14.736 9.29385 14.7457C9.37539 14.769 9.50941 14.736 9.65891 14.7457C9.80265 14.7554 9.92297 14.8078 9.97545 14.8408C9.99491 14.8312 9.99491 14.8273 10.0434 14.837C10.0919 14.8467 10.1288 14.8505 10.0764 14.7885C10.1055 14.802 10.1385 14.8312 10.1677 14.802C10.1969 14.7729 10.2201 14.7302 10.3016 14.7205C10.3831 14.7108 10.4123 14.7243 10.4453 14.639C10.4881 14.5341 10.3405 14.5341 10.3405 14.5341C10.3405 14.5341 10.4085 14.4719 10.4843 14.3904C10.5755 14.305 10.6804 14.1943 10.7056 14.0584C10.7483 13.8079 10.5037 13.775 10.5037 13.775L9.31728 14.14L7.86678 14.0681L6.62992 14.6836L6.62915 14.6835Z" fill="#927D49"/>
<path fill-rule="evenodd" clip-rule="evenodd" d="M5.56314 11.2563C5.56314 11.2563 5.52474 11.3048 5.50106 11.4194C5.47738 11.5339 5.48749 11.5204 5.46803 11.6019C5.44858 11.6834 5.2096 12.4951 5.2992 12.7689C5.3888 13.0427 5.54394 13.1437 5.64096 13.365C5.66042 13.4135 5.67936 13.4427 5.68947 13.4854C5.7225 13.629 5.69344 13.7398 5.73222 13.8835C5.74579 13.932 5.78086 13.9883 5.83322 14.0466C5.94842 14.1669 6.13619 14.2815 6.21722 14.363C6.33165 14.4834 6.49485 14.7282 6.70259 14.7514C6.81331 14.7649 6.97062 14.7183 7.10067 14.6408C7.21587 14.5688 7.28704 14.468 7.40787 14.4104C7.49325 14.3676 7.58451 14.3521 7.66605 14.3327C7.83501 14.2996 7.98848 14.2943 8.07974 14.3132C8.21952 14.3424 8.54963 14.4434 8.73254 14.4434C8.87547 14.4411 9.0176 14.4215 9.15584 14.3851C9.43347 14.3036 9.76934 14.1637 9.99078 14.1016C10.1208 14.0632 10.2257 14.0531 10.3325 14.0298C10.5151 13.9871 10.6684 13.9288 10.7558 13.8181C10.6976 13.7501 10.6258 13.6453 10.2373 13.6491C9.79661 13.6589 9.28781 13.9035 9.03731 13.9424C8.78682 13.9813 8.67814 14.0142 8.39846 13.9132C8.12429 13.8112 8.1152 13.7437 8.1152 13.7437C8.1152 13.7437 7.82733 13.5424 7.70688 13.0291C7.58643 12.5158 7.70688 12.1418 8.01958 11.7864C8.10112 11.6951 8.08166 11.6136 8.08166 11.6136C8.08166 11.6136 8.28749 11.3359 8.23117 11.076C8.16909 10.8177 7.77101 10.8701 7.77101 10.8701L5.56326 11.2563H5.56314Z" fill="#6E6342"/>
<path fill-rule="evenodd" clip-rule="evenodd" d="M5.89514 12.1205C5.87803 12.1526 5.86997 12.1889 5.87185 12.2253C5.87569 12.2776 5.8913 12.3456 6.04849 12.4991C6.1825 12.633 6.15332 12.7825 6.15332 12.7825C6.15332 12.7825 6.22078 12.796 6.40382 12.7104C6.54756 12.6424 6.59582 12.7629 6.59582 12.7629C6.63766 12.7409 6.68301 12.7265 6.72983 12.7201C6.77225 12.7162 6.81331 12.7031 6.85015 12.6817C6.85015 12.6817 7.01911 12.8545 7.1667 12.9361C7.30071 13.008 7.37841 13.0565 7.44446 13.008C7.50654 12.9653 7.50654 12.8778 7.50257 12.839C7.48717 12.8032 7.46766 12.7694 7.44446 12.7381C7.4017 12.676 7.33374 12.604 7.32926 12.5461C7.31953 12.4122 7.43025 12.2528 7.40682 12.214C7.3834 12.1752 7.29623 12.1655 7.08068 12.2432C6.85745 12.3169 5.89425 12.1208 5.89425 12.1208L5.89514 12.1205Z" fill="#39331F"/>
<path fill-rule="evenodd" clip-rule="evenodd" d="M6.40385 12.9884C6.40385 12.9884 6.29326 12.8836 6.33204 12.3748C6.37899 12.3741 6.42587 12.3787 6.47181 12.3884C6.47181 12.3884 6.5321 12.7826 6.40385 12.9884Z" fill="#292311"/>
<path fill-rule="evenodd" clip-rule="evenodd" d="M5.61559 10.868C5.63102 10.8565 5.64533 10.8437 5.65834 10.8296C5.61994 10.9014 5.44266 11.1887 5.5864 11.6412C5.73015 12.0916 6.09123 12.4275 6.53591 12.4431C6.98058 12.4587 7.21431 12.2411 7.48157 11.915C7.5864 11.785 7.70685 11.6218 7.8136 11.5112C7.97283 11.3382 8.09712 11.2897 8.09712 11.1228C8.09712 10.781 7.74756 10.6276 7.233 10.4742C6.71843 10.3209 6.25431 10.3398 6.01354 10.4448C5.77866 10.5592 5.67767 10.6797 5.61546 10.8681L5.61559 10.868Z" fill="#252211"/>
<path fill-rule="evenodd" clip-rule="evenodd" d="M7.26796 13.1418L7.30636 13.1223C7.30636 13.1223 7.31596 12.9687 7.37817 12.9728C7.44025 12.9825 7.46943 13.0642 7.46355 13.0932C7.45971 13.1223 7.44422 13.1709 7.38201 13.1651C7.30047 13.167 7.26758 13.1418 7.26758 13.1418H7.26796Z" fill="#3F3824"/>
<path fill-rule="evenodd" clip-rule="evenodd" d="M7.09515 12.4894C7.09515 12.4894 7.13355 12.4758 7.18053 12.5224C7.21893 12.5224 7.38635 12.5029 7.43883 12.5359C7.49131 12.569 7.5068 12.598 7.5068 12.598C7.5068 12.598 7.31071 12.6408 7.20383 12.598C7.09515 12.5612 7.09515 12.4894 7.09515 12.4894Z" fill="#2D2815"/>
<path fill-rule="evenodd" clip-rule="evenodd" d="M7.95927 12.5184C7.95927 12.5087 7.85444 12.4369 7.74372 12.4134C7.72427 12.4096 7.7203 12.4232 7.70532 12.4232C7.69559 12.4193 7.69175 12.3901 7.69175 12.3901L7.62878 12.4233C7.62878 12.4233 7.61905 12.4369 7.65207 12.4617C7.68113 12.485 7.72977 12.5044 7.74334 12.5432C7.75691 12.582 7.75691 12.5956 7.76279 12.6015C7.76663 12.6053 7.8346 12.6015 7.86763 12.582C7.90065 12.5626 7.96286 12.5308 7.95889 12.518L7.95927 12.5184Z" fill="#82764F"/>
<path fill-rule="evenodd" clip-rule="evenodd" d="M6.9787 12.9126C6.9787 12.9126 6.99803 12.7787 7.1282 12.7729C7.26209 12.7631 7.28743 12.8932 7.28743 12.8932L7.20974 12.9709C7.20974 12.969 7.1515 12.8874 6.97934 12.9126H6.9787Z" fill="#2D2816"/>
<path fill-rule="evenodd" clip-rule="evenodd" d="M7.82338 12.3359C7.82338 12.3359 7.75144 12.4136 7.59234 12.4369C7.57877 12.4174 7.54958 12.3786 7.59234 12.3165C7.63509 12.2545 7.6836 12.235 7.73211 12.2543C7.75352 12.2578 7.77348 12.2673 7.78965 12.2818C7.80582 12.2962 7.81753 12.315 7.82338 12.3359Z" fill="#574F35"/>
<path fill-rule="evenodd" clip-rule="evenodd" d="M8.11645 12.4311C8.12042 12.4117 8.10685 12.4078 8.11645 12.3981C8.12605 12.3884 8.17866 12.369 8.18839 12.3786C8.19223 12.3826 8.18839 12.3981 8.18839 12.417C8.18839 12.436 8.18839 12.4554 8.17866 12.4694C8.16509 12.4888 8.12631 12.4986 8.10685 12.4928C8.0874 12.487 8.08356 12.4598 8.08356 12.4544C8.09316 12.4506 8.11645 12.4408 8.11645 12.4311ZM8.44797 12.2214C8.44797 12.2117 8.481 12.1923 8.50045 12.1923C8.52951 12.1923 8.52951 12.2156 8.53348 12.2214C8.54308 12.2253 8.54308 12.2175 8.5528 12.235C8.56253 12.2525 8.57623 12.2835 8.56637 12.303C8.55652 12.3224 8.51786 12.3359 8.50826 12.332C8.49469 12.3223 8.45194 12.235 8.44797 12.2214Z" fill="#82764F"/>
<path fill-rule="evenodd" clip-rule="evenodd" d="M7.78058 12.4758C7.78058 12.4758 7.82333 12.4854 7.88157 12.534C7.86211 12.5476 7.83293 12.5631 7.83293 12.5631C7.83293 12.5631 7.82909 12.5184 7.78058 12.4756V12.4758Z" fill="#6E6342"/>
<path fill-rule="evenodd" clip-rule="evenodd" d="M7.68549 12.0485C7.67577 12.0389 7.71455 12.0156 7.73785 12.0195C7.76114 12.0233 7.77087 12.0389 7.79609 12.0428C7.8213 12.0466 7.82527 12.033 7.83449 12.0233C7.8437 12.0136 7.87724 12.0195 7.883 12.0233C7.88659 12.0276 7.88984 12.0321 7.89273 12.0369C7.89313 12.0295 7.89506 12.0223 7.89839 12.0156C7.90171 12.009 7.90636 12.0032 7.91206 11.9985C7.9195 11.993 7.92809 11.9893 7.93718 11.9876C7.94627 11.9859 7.95562 11.9863 7.96453 11.9887C7.96837 12.0023 7.98783 12.0508 7.98399 12.0605C7.98015 12.0703 7.92191 12.084 7.91206 12.0741C7.92178 12.0975 7.96453 12.146 7.97029 12.1556C7.97605 12.1652 7.92754 12.1887 7.90822 12.1848C7.88108 12.1829 7.71404 12.0858 7.68498 12.0489L7.68549 12.0485ZM7.93983 11.7262C7.93623 11.7164 7.92936 11.7082 7.92038 11.7029C7.90681 11.6991 7.86213 11.7029 7.86213 11.7262C7.86213 11.7495 7.90053 11.8798 7.94367 11.9476C7.99231 12.0156 8.02521 12.0718 8.05823 12.0874C8.0686 12.0921 8.08037 12.0928 8.09118 12.0892C8.10198 12.0855 8.11102 12.078 8.11647 12.068C8.12031 12.0582 8.13004 11.9864 8.1262 11.8175C8.12236 11.6485 8.11647 11.4854 8.10674 11.4757C8.09702 11.466 8.05823 11.4661 8.04466 11.4854C8.03109 11.5048 7.94367 11.6972 7.9397 11.7262H7.93983Z" fill="#585136"/>
<path fill-rule="evenodd" clip-rule="evenodd" d="M7.76701 12.7204C7.76701 12.7204 7.69904 12.6776 7.63299 12.7068C7.57091 12.736 7.57475 12.8506 7.57475 12.8506C7.58872 12.856 7.60381 12.858 7.61871 12.8563C7.63361 12.8546 7.64788 12.8493 7.66026 12.8408C7.70301 12.8118 7.75728 12.7633 7.76701 12.7205V12.7204Z" fill="#574F35"/>
<path fill-rule="evenodd" clip-rule="evenodd" d="M7.89515 12.8739C7.89131 12.8355 7.85675 12.8355 7.85675 12.8156C7.85913 12.8061 7.86462 12.7977 7.87235 12.7917C7.88008 12.7858 7.8896 12.7825 7.89937 12.7826C7.91883 12.7826 7.93777 12.8059 7.96158 12.821C7.98488 12.8346 8.01982 12.8594 8.02366 12.889C8.0275 12.9185 7.98526 12.9996 7.93829 12.9996C7.89131 12.9996 7.90526 12.9121 7.89553 12.8734L7.89515 12.8739ZM8.26993 12.8214C8.26993 12.8214 8.19224 12.8447 8.198 12.8214C8.20376 12.7981 8.22142 12.7923 8.24664 12.7923C8.25945 12.7789 8.27668 12.7706 8.29515 12.7689C8.30571 12.7684 8.31609 12.7719 8.32421 12.7786C8.32421 12.7786 8.37669 12.7553 8.39217 12.7689C8.40766 12.7825 8.39614 12.7825 8.40574 12.7981C8.41797 12.8154 8.42599 12.8354 8.42917 12.8563C8.42917 12.8718 8.37093 12.9048 8.32421 12.8991C8.26993 12.8874 8.27953 12.8311 8.26993 12.8214ZM8.72229 12.734C8.72229 12.734 8.74558 12.7475 8.72625 12.7631C8.71269 12.7767 8.64472 12.8015 8.58635 12.8059C8.52811 12.8059 8.47576 12.8155 8.47576 12.7962C8.47576 12.7768 8.52427 12.7379 8.55333 12.7282C8.55915 12.7209 8.56656 12.715 8.57498 12.711C8.5834 12.7069 8.59263 12.7049 8.60197 12.7049C8.62526 12.7049 8.7164 12.6952 8.74174 12.6913C8.76504 12.6874 8.78449 12.7009 8.7708 12.7204C8.76504 12.734 8.72229 12.734 8.72229 12.734ZM8.8563 12.1344C8.8563 12.1344 8.82712 12.1965 8.79422 12.1965C8.7612 12.1926 8.7612 12.1829 8.7612 12.1732C8.7612 12.1596 8.79422 12.1247 8.79025 12.115C8.78065 12.115 8.75723 12.115 8.7612 12.0917C8.7612 12.0722 8.79422 12.0489 8.82328 12.0533C8.84523 12.0352 8.87257 12.025 8.90097 12.0242C8.934 12.0242 8.96305 12.0338 8.96305 12.0533C8.96305 12.0727 8.92465 12.1153 8.91057 12.1252C8.89509 12.1407 8.87563 12.1508 8.8563 12.1348V12.1344ZM8.41355 13.2819C8.41355 13.2819 8.37515 13.2859 8.37515 13.3052C8.37515 13.315 8.38475 13.315 8.39845 13.3092C8.40634 13.3087 8.41415 13.3074 8.42174 13.3052C8.42558 13.3092 8.42558 13.3285 8.45477 13.3285C8.47873 13.3253 8.50182 13.3174 8.52273 13.3052C8.54603 13.2956 8.56549 13.2858 8.56549 13.2668C8.55576 13.2338 8.5363 13.2182 8.50725 13.2182C8.49236 13.2172 8.47751 13.2206 8.46449 13.2279C8.46449 13.2279 8.45477 13.2085 8.42174 13.2279C8.38872 13.2474 8.39256 13.2474 8.40229 13.2571C8.41969 13.2726 8.41393 13.2827 8.41393 13.2827L8.41355 13.2819ZM8.19416 13.4839C8.19416 13.4742 8.24267 13.4547 8.25624 13.4606C8.26981 13.4645 8.30859 13.5382 8.30859 13.546C8.30859 13.5557 8.26008 13.579 8.24062 13.579C8.22117 13.579 8.18827 13.546 8.18827 13.5406C8.18827 13.5368 8.21157 13.531 8.21157 13.527C8.21733 13.5174 8.19416 13.494 8.19416 13.4843V13.4839ZM8.04056 13.2004C8.05029 13.1966 8.05029 13.1868 8.06385 13.1771C8.0681 13.1743 8.07294 13.1725 8.078 13.1718C8.08306 13.1711 8.0882 13.1716 8.09304 13.1733C8.09646 13.1671 8.1012 13.1619 8.10691 13.1578C8.11262 13.1538 8.11917 13.151 8.12606 13.1498C8.14936 13.146 8.16881 13.1498 8.16446 13.1596C8.16446 13.1887 8.18392 13.2081 8.18392 13.2314C8.18392 13.2547 8.17035 13.2838 8.12184 13.3033C8.07333 13.3169 8.00728 13.3169 7.99755 13.313C7.98782 13.3092 7.97809 13.2703 7.98782 13.2508C7.99755 13.2314 8.02469 13.2101 8.0403 13.2004H8.04056Z" fill="#82764F"/>
<path fill-rule="evenodd" clip-rule="evenodd" d="M8.10242 13.2136C8.10242 13.2136 8.0694 13.233 8.0694 13.2427C8.06647 13.2521 8.06517 13.262 8.06556 13.2718C8.06556 13.2776 8.10831 13.268 8.11407 13.2621C8.11599 13.2582 8.10242 13.2237 8.10242 13.2136Z" fill="#6E6342"/>
<path fill-rule="evenodd" clip-rule="evenodd" d="M7.81361 13.1223C7.83294 13.1263 7.86596 13.1223 7.89118 13.132C7.91064 13.1418 7.9242 13.1612 7.90475 13.1845C7.88529 13.2078 7.86635 13.2428 7.82321 13.2369C7.7747 13.233 7.72811 13.2078 7.72811 13.1884C7.72729 13.176 7.72893 13.1637 7.73293 13.152C7.73693 13.1404 7.74321 13.1296 7.7514 13.1204C7.77086 13.1049 7.78046 13.1146 7.81348 13.1223H7.81361Z" fill="#585136"/>
<path fill-rule="evenodd" clip-rule="evenodd" d="M7.79033 13.1418C7.79033 13.1418 7.72825 13.1903 7.71263 13.2137C7.69318 13.237 7.59807 13.3573 7.56902 13.3825C7.57867 13.3655 7.58967 13.3493 7.60191 13.334C7.56351 13.3586 7.53473 13.3956 7.52038 13.4388C7.49708 13.5108 7.65055 13.5496 7.75142 13.5787C7.85228 13.6079 7.89132 13.6171 7.89132 13.6171C7.85419 13.5613 7.82231 13.5022 7.79609 13.4405C7.75769 13.3492 7.73785 13.3395 7.76307 13.2968C7.78252 13.254 7.81171 13.225 7.81171 13.1919C7.80006 13.1612 7.79033 13.1418 7.79033 13.1418Z" fill="#574F35"/>
<path fill-rule="evenodd" clip-rule="evenodd" d="M5.57673 13.2952C5.59087 13.2978 5.60535 13.2978 5.61948 13.2952C5.64854 13.2913 5.95152 13.18 6.26806 13.2C6.50503 13.2143 6.7399 13.2529 6.96899 13.3152C7.36707 13.42 7.86217 13.6278 8.18256 13.7463C8.26793 13.7792 8.35152 13.8376 8.41296 13.8607C8.65769 13.956 8.66729 13.956 8.81104 13.9812C8.98 14.0045 9.1528 13.9482 9.3334 13.9094C9.55472 13.8607 9.93334 13.8374 10.2654 13.7889C10.3727 13.774 10.4786 13.75 10.5819 13.7171C10.5819 13.7171 10.3179 13.9812 9.68476 14.0763C9.42887 14.1151 9.16882 14.1184 8.91203 14.086C8.71004 14.0666 8.57616 14.0374 8.47516 14.0083C8.3606 13.9753 8.1256 13.8879 7.83632 13.8163C7.63433 13.7638 7.40905 13.7251 7.15088 13.6765C6.51395 13.5599 5.82275 13.426 5.57648 13.296L5.57673 13.2952Z" fill="#252211"/>
<path fill-rule="evenodd" clip-rule="evenodd" d="M4.86209 12.0952C4.70849 12.2253 4.54554 12.3496 4.38644 12.4699L3.90682 12.8384C3.74375 12.9587 3.58452 13.083 3.42132 13.2035C3.25812 13.3239 3.09518 13.4383 2.92212 13.5491C3.07572 13.419 3.23866 13.2986 3.40174 13.1802C3.56481 13.0618 3.7339 12.9457 3.89121 12.8256L4.37082 12.4566C4.53582 12.3363 4.69505 12.212 4.86209 12.0955V12.0952ZM4.01358 13.4545C4.01358 13.4545 4.18638 13.3107 4.40193 13.1089C4.66983 12.8585 4.99802 12.538 5.10286 12.4799L4.01345 13.4546L4.01358 13.4545Z" fill="#CFB66C"/>
<path fill-rule="evenodd" clip-rule="evenodd" d="M4.01355 13.4543C4.09905 13.369 4.19032 13.2855 4.28158 13.2038L4.42136 13.0835C4.46411 13.0451 4.51275 13.002 4.55537 12.9592C4.64075 12.8739 4.72433 12.7825 4.80971 12.6952C4.85203 12.6513 4.89677 12.6098 4.94373 12.5709C4.9672 12.5501 4.99328 12.5325 5.02129 12.5184C5.04472 12.5048 5.06993 12.48 5.10283 12.4756C5.0835 12.5048 5.06021 12.5184 5.04075 12.5436C5.01745 12.5631 4.998 12.5864 4.97867 12.6057C4.93592 12.6484 4.88741 12.6872 4.84465 12.7261C4.75339 12.8038 4.65829 12.8797 4.56702 12.961C4.47576 13.0423 4.39038 13.13 4.29899 13.2115C4.20005 13.2951 4.10878 13.3766 4.01355 13.4547V13.4543ZM5.17477 12.6776C5.17477 12.6776 4.54181 13.2972 4.41163 13.398L5.17477 12.6776Z" fill="#CFB66C"/>
<path fill-rule="evenodd" clip-rule="evenodd" d="M5.17476 12.6776C5.11782 12.7436 5.05677 12.8058 4.99197 12.864L4.79997 13.0465C4.73789 13.1086 4.67953 13.1708 4.61361 13.2329C4.54564 13.2911 4.48356 13.3481 4.41162 13.4019L4.59799 13.2193C4.6602 13.1573 4.72816 13.1049 4.79421 13.0427L4.98058 12.8602C5.04458 12.7962 5.10679 12.734 5.17476 12.6776ZM5.20381 13.0135C5.14547 13.1764 5.07672 13.3353 4.99799 13.4893C4.83492 13.8156 4.59031 14.2232 4.48343 14.4311L5.20381 13.0135Z" fill="#CFB66C"/>
<path fill-rule="evenodd" clip-rule="evenodd" d="M5.20382 13.0136C5.20382 13.0854 5.18436 13.1477 5.16106 13.2097C5.13836 13.2719 5.11246 13.3328 5.0835 13.3923C5.05431 13.4505 5.02129 13.5127 4.98826 13.569C4.95524 13.6254 4.91646 13.6835 4.88727 13.7418L4.69118 14.0874C4.62321 14.2026 4.55716 14.3185 4.48535 14.4292C4.53386 14.3049 4.59991 14.1884 4.66212 14.0739C4.73009 13.9587 4.79217 13.8435 4.85412 13.7243C4.88437 13.6649 4.91158 13.604 4.93566 13.5419C4.96471 13.4797 4.99377 13.4214 5.01719 13.3651C5.04625 13.303 5.06954 13.2447 5.09873 13.1885C5.13162 13.1282 5.15889 13.07 5.20356 13.0136H5.20382Z" fill="#CFB66C"/>
<path fill-rule="evenodd" clip-rule="evenodd" d="M5.89516 14.6058C5.89516 14.6058 5.70316 14.8602 5.72236 15.1825C5.77471 15.0136 5.84076 14.7553 5.89516 14.6058ZM6.07769 14.8608C6.07769 14.8608 6.00972 15.552 5.9534 15.8919C6.03301 15.499 6.0485 15.532 6.07769 14.8608ZM7.34949 15.9327C7.34949 15.9327 7.06213 16.7775 7.05625 17.0122C7.11845 16.7708 7.23877 16.2776 7.34949 15.932V15.9327Z" fill="#DEC270"/>
<path fill-rule="evenodd" clip-rule="evenodd" d="M8.02136 14.5536C8.02136 14.5536 8.48741 15.3225 8.83698 15.9787C8.74239 15.6485 8.52479 15.0428 8.02136 14.5536Z" fill="#CBAF59"/>
<path fill-rule="evenodd" clip-rule="evenodd" d="M9.27386 15.6855C9.52975 16.1378 9.7605 16.6039 9.96506 17.0816C9.92628 16.7515 9.82132 16.1865 9.27386 15.6855Z" fill="#E3C677"/>
<path fill-rule="evenodd" clip-rule="evenodd" d="M12.9554 16.8192C13.0329 16.7707 13.1864 16.5065 13.3204 16.4406C13.4543 16.3726 13.5553 16.359 13.6758 16.225C13.7961 16.0851 13.8294 15.9997 14.0932 15.8892C14.4622 15.7298 14.2084 15.524 14.2084 15.524C14.249 15.484 14.2925 15.4471 14.3384 15.4134C14.4336 15.3416 14.5442 15.2541 14.5346 15.1007C14.5211 14.8425 14.4726 14.4677 14.2608 14.2502C14.4667 14.2075 14.8608 14.1784 15.1056 14.1164C15.389 14.0444 15.5192 13.9434 15.5192 13.9434C15.5192 13.9434 15.3561 13.6658 15.6202 13.3862C15.8843 13.1067 16.0998 12.9396 16.259 12.6269C16.0765 12.6036 15.7982 12.5066 15.0881 12.7764C15.1264 12.7945 15.1634 12.8152 15.1988 12.8385C15.1988 12.8385 14.762 12.959 14.6027 13.093C14.325 13.3279 14.29 13.5201 13.9891 13.6639C13.6882 13.8076 13.3852 13.7687 13.1348 13.8852C12.8845 14.0017 12.8475 14.1007 12.7561 14.1435C12.7755 14.1668 12.7522 14.2056 12.7891 14.2386C12.7658 14.2716 12.6299 14.4929 12.492 14.4929C12.5056 14.5454 12.6221 14.5842 12.6221 14.5842C12.6221 14.5842 12.5367 14.6464 12.3192 14.6619C12.4298 14.7771 12.5348 14.9027 12.824 15.0852C12.8007 15.1337 12.7036 15.2056 12.7425 15.2969C12.7853 15.3882 12.8961 15.5124 13.3386 15.6134C13.1133 15.623 12.8494 15.6755 12.4938 15.627C12.1385 15.5843 12.0802 15.559 11.8608 15.6134C11.8841 15.6367 11.9462 15.6367 12.0006 15.6988C11.9424 15.7027 11.5773 15.6561 11.453 15.8193C11.323 15.9881 11.2667 16.2659 11.2764 16.4522C11.2084 16.4852 11.1424 16.5435 11.1754 16.6639C11.2084 16.7844 11.3812 16.8232 11.4919 16.8988C11.6025 16.9804 11.6123 17.0094 11.7172 16.9901C11.8278 16.9668 11.9909 16.8562 12.0861 16.8562C12.1813 16.8562 12.2492 16.928 12.2492 16.928C12.2492 16.928 12.5075 16.8037 12.5327 16.827C12.556 16.8503 12.5366 16.9998 12.5618 17.0231C12.5874 17.0406 12.8783 16.8678 12.956 16.8192H12.9554Z" fill="#ECD592"/>
<path fill-rule="evenodd" clip-rule="evenodd" d="M18.6001 9.04857C17.3865 5.91462 14.3864 5.33401 14.3864 5.33401H5.82722L5.86024 8.52621H7.56482V15.6544H5.82709V18.8408H14.1495C16.1553 18.8408 17.7631 16.8252 17.7631 16.8252C20.3378 13.1709 18.6001 9.04857 18.6001 9.04857ZM14.1942 14.6776C14.1942 14.6776 13.5414 15.6195 12.8311 15.6195H11.4103L11.3767 8.53401H13.2C13.2 8.53401 14.0448 8.71065 14.635 10.3825C14.635 10.3825 15.4175 12.7761 14.1942 14.6776Z" fill="white" fill-opacity="0.8"/>
</g>
<defs>
<clipPath id="clip0_7458_385474">
<rect width="24" height="24" fill="white"/>
</clipPath>
</defs>
</svg>
