<svg width="24" height="24" fill="none" xmlns="http://www.w3.org/2000/svg">
    <g clip-path="url(#a)">
        <path d="M12 24c6.627 0 12-5.373 12-12S18.627 0 12 0 0 5.373 0 12s5.373 12 12 12Z" fill="#988430"/>
        <path d="M12 23.616c6.415 0 11.616-5.2 11.616-11.616C23.616 5.585 18.416.384 12 .384 5.585.384.384 5.584.384 12c0 6.415 5.2 11.616 11.616 11.616Z" fill="#7A6A2A"/>
        <path d="M12 23.37c6.28 0 11.37-5.09 11.37-11.37C23.37 5.72 18.28.63 12 .63 5.72.63.63 5.72.63 12c0 6.28 5.09 11.37 11.37 11.37Z" fill="#BA9F33"/>
        <path fill-rule="evenodd" clip-rule="evenodd" d="M5.247 10.719c-.068-.063-.14-.125-.206-.187a19.419 19.419 0 0 0-.202-.186l-.202-.192c-.033-.033-.068-.062-.101-.095l-.105-.092c-.268-.254-.538-.508-.802-.763.274.25.542.5.816.754l.095.095c.033.033.068.062.1.095l.203.186c.068.062.134.125.202.192.068.068.134.13.202.192Zm-3.558-.039s.975.1 1.45.169c.442.062 1.82.274 1.82.274l-3.27-.443Zm0 0c.274.023.548.052.822.082.14.013.273.029.408.042l.205.024.202.029.816.13.407.068.408.072a9.797 9.797 0 0 1-.407-.053l-.408-.058-.816-.12c-.068-.01-.134-.024-.202-.033l-.206-.024c-.134-.014-.273-.033-.407-.049a23.819 23.819 0 0 1-.822-.11Zm3.173.697s-1.04.264-1.392.365c-.346.095-1.392.413-1.392.413l2.784-.778Z" fill="#CFB66C"/>
        <path fill-rule="evenodd" clip-rule="evenodd" d="M4.862 11.377c-.23.068-.46.134-.695.196l-.695.186-.691.202-.346.095c-.115.033-.231.062-.35.096.115-.039.232-.078.346-.111l.346-.11c.23-.073.46-.14.69-.212.236-.059.467-.12.702-.177.223-.057.458-.113.693-.165Zm-2.639 1.42c.115-.044 1.435-.659 1.742-.803.154-.072.6-.23.6-.23l-2.342 1.032Z" fill="#CFB66C"/>
        <path fill-rule="evenodd" clip-rule="evenodd" d="M2.223 12.796c.101-.038.196-.085.293-.13l.288-.134.577-.277c.192-.092.378-.193.576-.278.101-.043.202-.078.303-.11l.154-.05c.052-.013.1-.029.153-.042-.192.091-.394.169-.586.258-.192.095-.388.173-.587.258l-.586.258c-.197.08-.389.166-.585.247Zm.128.538s1.196-.701 1.608-.926c.216-.12.913-.466.913-.466l-2.52 1.392Z" fill="#CFB66C"/>
        <path fill-rule="evenodd" clip-rule="evenodd" d="M2.352 13.334c.201-.124.407-.25.613-.379l.307-.186.313-.183c.105-.062.206-.124.312-.182.051-.031.105-.059.16-.082l.163-.081c.215-.105.43-.212.658-.303-.206.13-.417.24-.629.355-.105.059-.212.111-.317.17-.104.058-.205.12-.312.176-.105.062-.206.12-.313.177l-.316.172-.64.346Zm2.51-1.239s-.744.571-.984.753c-.241.183-.95.696-.95.696l1.934-1.449Z" fill="#CFB66C"/>
        <path fill-rule="evenodd" clip-rule="evenodd" d="m9.13 16.699-.38-.72.22-.901 1.58-.61-.672-1.379.332-1.392.623-1.247 1.926-.302 1.416-1.35 3.056.231.6 3.268-1.155 4.115-.659 2.13-2.667.1-1.24-.857-1.45-.606-1.53-.48Z" fill="#E2CC85"/>
        <path fill-rule="evenodd" clip-rule="evenodd" d="M13.81 16.676s-.37.169-.999.13c-.182-.245-1.457-.36-1.457-.36s-.16-.048-.441.069c-.284.115-.552.1-.802.163-.25.062-.5-.264-.691-.332-.192-.072-.447-.245-.447-.245l-.538-.052-1.08-.457-1.714-1.709-.466.73-.144.903.519 1.07 1.396 1.272 2.722.691 1.614-.475 2.02-.855.508-.543Z" fill="#F1D789"/>
        <path fill-rule="evenodd" clip-rule="evenodd" d="m4.138 10.637.345-1.047.412-.675 1.326-.111-.398 1.161-1.108 1.973.46 1.761-.816.408-.25-.385-.202-.881-.014-.99.245-1.214Z" fill="#F4ECB4"/>
        <path fill-rule="evenodd" clip-rule="evenodd" d="m5.625 16.604-.254-.355s-.068-.17-.03-.317c.04-.15.034-.16.014-.216-.019-.056-.182-.25-.172-.417.01-.169-.014-.225.11-.36.13-.13.091-.355.091-.355l.17.105.038-.058s.062.049.062.124c.013-.105-.043-.59.085-.7.128-.111.356.518.356.518l-.14-.913-.36-.936-.638-.854-.039-.942v-.081s-.293.45-.375.806c-.058.245.082.542.053.893-.023.35-.053.322.033.461.085.139.293.423.212.63-.072.176-.317.052-.317.052s-.049.143-.115.196a.434.434 0 0 0-.095-.192 1.057 1.057 0 0 1-.013.077s-.043-.134-.086-.303c-.058-.225-.12-.522-.176-.681-.024.091-.082.369-.082.369l.033.427.16.586.153.384.15.47.13.316.104.24.091.543.441.466.235.105.17-.088h.001Z" fill="#F3E19D"/>
        <path fill-rule="evenodd" clip-rule="evenodd" d="M4.369 9.783s-.317.537-.408 1.08c-.09.541-.173 1.114-.115 1.851.058.744.169 1.2.258 1.527.154.542.552 1.295.552 1.295l.013-.03a2.045 2.045 0 0 1-.159-.397c-.052-.206-.072-.45-.12-.561-.043-.111-.115-.206-.15-.342-.033-.13-.038-.336-.14-.49a.992.992 0 0 1-.11-.388c-.02-.244.01-.518-.014-.743-.043-.375-.072-.63-.033-.826.039-.196.24-.753.365-1.196.082-.283.033-.522.183-.769.15-.244.24-.46.273-.61.039-.135-.396.599-.396.599Z" fill="#F2E8B0"/>
        <path fill-rule="evenodd" clip-rule="evenodd" d="M5.87 9.567s-.163.049-.24.134c-.079.082-.112.15-.216.287-.105.138-.111.25-.197.424-.085.169-.273.423-.297.514-.023.091-.062.519-.11.72-.043.203.048.451.048.451l.11-.023s0 .143.112.24c.11.096.13-.322.13-.322l.413-1.396.623-.423.068-.342-.444-.264Z" fill="#F5EEC0"/>
        <path fill-rule="evenodd" clip-rule="evenodd" d="M6.173 10.2s-.293.02-.437.124c-.058.043-.082.078-.144.13-.114.095-.23.183-.287.308-.062.124-.13.312-.177.668-.02.149-.02.287-.033.407-.02.163-.048.293-.033.384.02.187.212.284.23.495l.399-.201.374-1.478.797-.5-.451-.504-.239.166v.001Z" fill="#E6DB9D"/>
        <path fill-rule="evenodd" clip-rule="evenodd" d="m4.073 20.15.005-.043c.058-.5.068-.878.11-1.115.062-.336.105-.46.095-.586-.013-.202-.029-.35-.01-.505.03-.206.232-.45.226-.62-.004-.133-.072-.22-.13-.302l-.105-.15s.398-.274.394-1.377a.104.104 0 0 1 .024.01l.196.557.134.163.514.96.662.643.979.658.614.667.062 1.781-.802 1.04-.132.239c-1.043-.524-2-1.205-2.836-2.02Z" fill="#E5CB7A"/>
        <path fill-rule="evenodd" clip-rule="evenodd" d="M6.522 21.854s.014-.221.196-.365c.03.049.049.095.043.13.033-.058.264-.43.787-.528.522-.095.648-.476.648-.476l1.109-1.007 1.268-1.167 1.541-.542.721-.177s.014.053-.014.17c.134-.01.431-.078.74-.187.124-.049.241-.068.303-.004.091.085.105.287.11.408.15-.033.323-.177.462-.163.221.023.417.283.642.283.298 0 .431-.182.64-.326.123-.085.302-.192.403-.264.24-.177 2.788-.956 2.788-.956l.894.059.143.959-.077 2.507-.028.028-4.061 2.121-5.63.863a11.29 11.29 0 0 1-3.598-1.238l-.03-.128Z" fill="#D8C173"/>
        <path fill-rule="evenodd" clip-rule="evenodd" d="M4.414 20.47c.08-.167.152-.307.165-.357.01.1.028.322.065.557a12.405 12.405 0 0 1-.23-.2Z" fill="#F1D789"/>
        <path fill-rule="evenodd" clip-rule="evenodd" d="m8.526 22.83.728-.203.062.02s.034.02.034.085c.09-.052.168-.043.225-.078.029.063.058.268.186.294.134.029.278-.059.424-.17.143-.114.307-.258.43-.316.046.084.086.17.12.258.164-.13.447-.658.851-.648.117-.276.312-.512.561-.678.375-.254.61-.274.903-.25.117-.152.26-.28.423-.379.049.02.183.101.35.023.169-.077.36-.378.61-.417a.59.59 0 0 1 .388.082s.73-.725 1.233-.966c-.02-.058-.058-.277.532-.763.033.03.01.11.033.115.01 0 .154-.062.336-.202.225-.168.495-.345.658-.394.307-.09.633.095.633.095a.29.29 0 0 1 .091-.042c.078-.014.134-.024.177-.039-.004.101.053.274 0 .424.06.034.125.061.192.081-.033.072-.105.255-.225.342.1.048.114.105.258.154a2.835 2.835 0 0 0-.196.307c-.043.09-.196.47-.264.613-.072.144-.169.408-.216.461-.046.053-.215.278-.345.388.115-.043.586-.186.786-.24-.06.087-.361.534-.651.965a11.393 11.393 0 0 1-9.328 1.08l.001-.002Z" fill="#E0CD81"/>
        <path fill-rule="evenodd" clip-rule="evenodd" d="M6.22 10.148s-.168 0-.201.023.169.072.231.095a.53.53 0 0 1 .231.216c.033.081 1.214.557 1.214.557l.835-.043.287-.398-.547-.48.384-1.131-.509.081-1.223.73-.614.235-.087.115Z" fill="#DFC57C"/>
        <path fill-rule="evenodd" clip-rule="evenodd" d="M8.054 10.522a.131.131 0 0 0 .116.062c.172 0 .331.043.398.13.11.14.417.587.417.587l.734.264.047-.864-.802-.557-.912.335v.043h.002Z" fill="#E5CC7C"/>
        <path fill-rule="evenodd" clip-rule="evenodd" d="M7.91 10.843s.134.01.303-.053c.17-.062.447-.196.567-.143.17.071.134.297.317.499.11.124.312.12.427.254.115.134.509.072.509.072l.15.806-.6.77-.197.955h-.811l-.741-.294-.365-.883.182-.894.26-1.09Z" fill="#D2C281"/>
        <path fill-rule="evenodd" clip-rule="evenodd" d="M9.48 10.882c.02.006.04.009.062.01-.024.019-.072.061-.053.172.02.11.082.25.03.336a.42.42 0 0 1 .09.16c.034.094.043.182.259.195a.453.453 0 0 0-.085.068s.149.13.225.25c.077-.003.283-.067.283-.067l.043.03.091-.039s-.085-.033-.023-.24c.058-.183.11-.173.115-.187.005-.014.043-.206.043-.284.029-.1.052-.407.052-.407l-.062-.678-.35-.211-.283-.275-.268.505-.177.176-.014.437.022.049Z" fill="#E2C270"/>
        <path fill-rule="evenodd" clip-rule="evenodd" d="M10.32 10.315s.063.176.086.312a.3.3 0 0 0 .013-.081s.049.268.059.378c.019-.003.038-.01.042.01.005.02.049.235.039.355a.97.97 0 0 1 .326-.326.57.57 0 0 1 .264-.105c.15-.004.258.095.437.095.43 0 .821-.316 1.109-.413.211-.072.394-.124.522-.241.062-.052.173-.169.274-.342.134-.23.274-.43.413-.456a.868.868 0 0 1-.192.014s.043-.043.116-.101c.072-.059.159-.13.283-.13.221 0 .332.032.456.032a.62.62 0 0 0 .196-.032s.13.09.424.09c.293.005.489.03.643.044.153.013.667-.043.815-.039.096.004.19.027.278.068l-.476-1.382-1.71-1.494-1.017.72-1.565 1.565-1.514.562-.317.355v.542h-.004Z" fill="#CCB360"/>
        <path fill-rule="evenodd" clip-rule="evenodd" d="M13.719 9.522s.042-.042.114-.1c.072-.059.16-.13.284-.13.22 0 .331.032.456.032.124-.004.196-.033.196-.033s.13.091.423.091c.293.004.49.03.643.043.153.014.668-.043.816-.038a.71.71 0 0 1 .277.068l-.215-.624-.25-.475-.715-.783-.865-.509a11.728 11.728 0 0 0-.297-.081l-.776.47-.705 1.823-.014.384.457.216c.114-.192.24-.346.359-.365-.107.011-.189.011-.189.011Z" fill="#D5B457"/>
        <path fill-rule="evenodd" clip-rule="evenodd" d="M13.709 9.652c-.068.004-.124-.01-.14-.058-.058-.163-.105-.186-.154-.186-.048 0-.114.105-.153.114-.04.01-.086-.12-.086-.12l-.042-.02s-.25.164-.428.356c-.176.192-.465.518-.596.577-.13.058-.576.077-.73.11a.946.946 0 0 0-.345.17c-.023.024.068.051.082.077.013.023-.15.013-.163.038-.01.02.038.13.062.186a.316.316 0 0 1 .134-.033c.15-.003.258.096.437.096.43 0 .821-.317 1.108-.414.212-.072.395-.124.523-.24.062-.053.173-.17.274-.342.073-.119.145-.23.217-.311Z" fill="#D2B257"/>
        <path fill-rule="evenodd" clip-rule="evenodd" d="M7.526 19.262s-.038-.143-.394-.514c-.1-.105-.163-.192-.23-.255-.17-.159-.269-.202-.39-.293-.263-.196-.55-.196-.772-.437-.221-.24-.48-.7-.658-1.17-.177-.47-.226-.62-.226-.634 0-.013.049-.104.111-.091.062.014.062.134.078.163.03.048.066.093.105.134.09.105.22.23.287.418-.014-.16-.068-.336-.068-.336s.342.215.633.44c.293.226.413.303.5.447.085.144.286.522.383.633.097.11 1.42.528 1.42.528l.63.47.314.685-.245.384-.47.101-.763-.341-.245-.332Z" fill="#D2B159"/>
        <path fill-rule="evenodd" clip-rule="evenodd" d="M5.831 16.901s.16.254.548.495c.35.212.903.404 1.396.519.283.068.567.12.821.124.686.01 1.157-.187 1.742-.25.317-.034.705-.059 1.109-.154.518-.125.825-.264 1.242-.461.303-.14.581-.245.806-.379.317-.186.548-.394.816-.456-.033.091-.068.255-.332.424l.332-.014s-.187.11-.515.36c-.202.153-.47.413-.743.585-.177.111-.37.193-.496.259-.307.169-.43.254-.633.46a.27.27 0 0 1 .078 0s-.254.034-.437.13c-.038 0-.105-.013-.221.02-.091.03-.212.095-.336.13-.177.053-.235.03-.235.03l.03.058s-.231-.004-.308.003c.013.004.01.01.01.01a.119.119 0 0 0-.039.014.402.402 0 0 1-.12.052c-.023.004-.043.004-.072.01.01.023.085.153.12.23-.029.02-.466.35-.466.35a.336.336 0 0 1 .033.068c.014.042.02.104.033.134.033.058.053.068.053.068s-.053.01-.144.033c-.078.019-.173.052-.307.071a1.202 1.202 0 0 1-.124.01c.019.043.104.206-.053.394-.157.188-.206.216-.254.336a.526.526 0 0 0-.078-.048c-.052-.024-.124-.058-.15-.105a1.249 1.249 0 0 1-.058.182c-.048.13-.12.259-.134.356-.052-.059-.15-.173-.283-.15-.134.023-.24.206-.264.258 0-.033-.024-.058-.03-.019-.003.043-.077.49-.489.85-.003-.09-.003-.293-.013-.359-.039.039-.086.095-.365.216-.274.12-.23.24-.23.24s-.024-.191.124-.394c.15-.202.24-.297.24-.312a.086.086 0 0 0-.02-.043c-.019-.02-.057-.043-.057-.058.023-.01.254-.12.24-.35a.62.62 0 0 0-.163-.388c-.01-.01.092-.082.078-.105-.01-.014-.134-.105-.15-.154a.448.448 0 0 1 .02-.085c.014-.043.023-.072.02-.1a.808.808 0 0 0-.078-.197c.013.004.11 0 .11 0s-.077-.124-.09-.183c-.015-.058-.044-.211-.06-.24.034.004.115.01.115 0 .004-.03-.071-.078-.038-.116.023.004.068.024.11.078-.023-.062-.061-.182-.143-.23a.353.353 0 0 1 .283.018.381.381 0 0 1 .154.164l.173.13c.12.095.274.23.518.326.053.03.187.03.284.01a.436.436 0 0 0 .12-.049.224.224 0 0 1 .043-.02.932.932 0 0 0-.072-.12c.033 0 .072.004.072.004s.023-.052-.082-.153c.024-.024.053-.039.053-.078-.033-.004-.091-.052-.105-.072.02-.014.049-.058.082-.072-.03-.023-.101-.12-.134-.13a.613.613 0 0 0 .09-.043s-.162-.042-.215-.077c-.052-.039-.13-.105-.176-.125-.049-.019-.134-.029-.17-.068.034.01.086 0 .125 0 .029 0 .043.004.052.004-.003-.013-.003-.042.072-.052a.354.354 0 0 0 .105-.033s-.072-.004-.154-.082c-.081-.077-.149-.14-.196-.149-.048-.01-.14.033-.196.029-.077-.01-.11-.048-.11-.048s-.259.023-.831-.327c-.496-.303-.711-.57-.711-.57a.856.856 0 0 1-.134-.063c-.186-.097-.445-.299-.437-.563v.002Z" fill="#C2A44D"/>
        <path fill-rule="evenodd" clip-rule="evenodd" d="M12.975 5.247a.251.251 0 0 1 .115.077c.091.105.15.303-.058.515.081.029.115.038.186.029-.072.085-.235.268-.245.427-.01.13.072.17.072.17s-.124.143-.13.383c.059-.066.123-.127.192-.182a5.11 5.11 0 0 1 .476-.327.274.274 0 0 0 .014.101s.25-.206.46-.114c.095.043.053.177.053.177s.13-.049.221.042c.091.092.22.327.287.418.029.043.104.124.182.25.106.177.194.364.264.558.004-.101.03-.258.317-.16.287.102.613.313.887.73s.342.888.48 1.067c.14.173.283.46.293.58.01.121-.043.51.244 1.56.082-.326.206-1.05.206-1.05l.068-.64.078-1.976-2.064-1.715-1.614-1.171-1.05.101.066.15Z" fill="#CAA13E"/>
        <path fill-rule="evenodd" clip-rule="evenodd" d="M16.81 8.188s-.03-.192-.515-.518c-.485-.322-.864-.322-1.213-.596-.268-.216-.548-.711-.73-.874-.177-.161-.206-.627-.206-.627l.596-.5.887-1.28.75-.826.358.5.5.585.277 1.177.101 1.723-.806 1.236Z" fill="#B59544"/>
        <path fill-rule="evenodd" clip-rule="evenodd" d="M17.41 10.253a2.19 2.19 0 0 0-.095-.773 14.242 14.242 0 0 0-.538-1.37c-.053-.293-.014-.316.043-.35.056-.032.268-.153.384-.576.116-.423.476-.437.476-.437l.22-.163.337.841.293.76.091.58.068.495-.16 1.047-.785.71-.334-.764Z" fill="#C89D3A"/>
        <path fill-rule="evenodd" clip-rule="evenodd" d="M6.437 21.919v-.022a.165.165 0 0 0 .043-.038c.013-.02.023-.043.033-.049.02-.01.11-.038.159-.029.048.01.177.062.245.058.14-.004.302-.11.56-.062.39.072.48.336.706.485.153.105.312.059.336.059h.052c.01 0 .081-.082.12-.078.078.004.086.068.134.072.115.014.336-.058.447-.029a.212.212 0 0 1 .14.14.216.216 0 0 1-.053.215c-.12.11-.235.216-.258.307.03.023.058.047.085.073a11.305 11.305 0 0 1-2.749-1.101v-.001Z" fill="#CEB052"/>
        <path fill-rule="evenodd" clip-rule="evenodd" d="M16.777 18.039s.303-.404.407-.604c.105-.206-.332-2.817-.332-2.817l.878-2.876-.023-.936s.043-.864.143-1.239c.121.216.496.476.577.614.039-.264.17-.822.15-1.416.072.11.244 1.223.244 1.223l.173.75.226.796.25.84.15.582.085.14.072.244.068.264.196.62.115.508.091.923c.02.07.035.142.043.215.004.101-.014.16-.014.177 0 .017.034.221.02.375-.02.153-.02.273-.14.384-.12.11-.196.768-.196.768l-.216-.143s.043-.196-.058-.375a.379.379 0 0 0-.408-.186c-.11.023-.331.058-.403.12-.068.062-.235.254-.389.342-.192.115-.505.124-.672.163-.169.038-.355.153-.551.287a3.08 3.08 0 0 1-.486.256Z" fill="#CCA847"/>
        <path fill-rule="evenodd" clip-rule="evenodd" d="M16.777 22.282s.012.008.037.021a11.404 11.404 0 0 0 3.635-2.694 18.69 18.69 0 0 0-.041-.945c-.033-.317-.01-.639-.02-.825a11.98 11.98 0 0 0-.162-1.142c-.053-.196-.154-.293-.17-.293a2.34 2.34 0 0 0-.095.46c0 .092-.02.313-.02.37-.013-.004-.018-.039-.018-.053-.02.049-.043.134-.053.144-.01.01.014-.082 0-.101-.014-.02-.038-.01-.033-.058a.548.548 0 0 1 .014-.086s-.059.086-.101.303c-.043.216-.043.222-.058.24-.014.024-.092.102-.096.131-.003.052.072.105.078.134.004.049-.068.274-.091.384-.023.11-.014.326-.039.437-.02.1-.038.16-.105.202.049.01.096.023.096.023s.068.287-.105.532c-.062.085-.078.124-.144.202-.13.144-.231.307-.24.414a.696.696 0 0 1-.014-.096s-.202.235-.288.37c-.11.172-.264.162-.307.205-.043.043-.052.12-.038.183-.039.01-.11.023-.16.173a.363.363 0 0 1-.172.205c-.091.053-.202.068-.259.082.049.014.068.014.092.029-.03.049-.163.124-.313.221a.653.653 0 0 0-.258.313c-.039.082-.095.134-.187.144.039.023.096.077.125.095-.043.01-.116.01-.245.12-.136.113-.182.146-.245.156Z" fill="#C39D3C"/>
        <path fill-rule="evenodd" clip-rule="evenodd" d="M14.075 23.181c.074-.052.155-.094.24-.127.302-.12.623-.143.749-.182.12-.038.216-.091.365-.12l-.01.096c-.442.138-.89.25-1.345.333Z" fill="#D2BA6B"/>
        <path fill-rule="evenodd" clip-rule="evenodd" d="M19.66 15.216s-.061.336-.172.547c-.11.212-.23.505-.23.505a.92.92 0 0 1 .023-.196c-.14.081-.48.278-.576.365-.091.081-.245.225-.284.293.092-.268.187-.509.202-.62-.14.102-.792.64-1.132.995l-1.058.856a3.655 3.655 0 0 1-.377.177c-.182.077-.398.143-.557.205a.884.884 0 0 1 .206-.312c.1-.095.404-.424.45-.576.043-.16.053-.255-.004-.389-.052.014-.172.02-.254.043-.081.023-.169.11-.169.11s.062-.355.196-.69c-.1.003-.274.032-.274.032s.241-.403.653-.685c-.126.027-.25.065-.369.115-.24.1-.504.25-.7.332.11-.154.887-1.263 1.349-2.296.46-1.03.633-1.295.734-1.848.052-.274.038-.678.052-1.04.014-.36.059-.682.03-.898.12.15.57.57.586 1.513.013.941-.431 2.213-.903 2.899.115.033.414.072.72-.461.307-.533.303-.682.414-.903.014.11.01.15.01.15s.446-.542.658-1.224c.043.293.169.552-.03 1.09-.176.485-.407.604-.407.604s.115-.02.284-.121c.029.072.023.154.071.183.049.028.115.077.125.124.052-.078.134-.177.159-.25-.02.153-.033.825.038 1.166.15-.013.303-.023.408-.293a1.201 1.201 0 0 0-.023.649.762.762 0 0 0 .151-.152Z" fill="#C0993A"/>
        <path fill-rule="evenodd" clip-rule="evenodd" d="M14.616 4.513s-.15.062-.404.062c-.222 0-.16-.086-.505-.086-.532 0-2.39.308-2.717.303-.211-.004.715.091.715.091l2.367.033.476-.038.176-.36-.108-.005Z" fill="#A88F33"/>
        <path fill-rule="evenodd" clip-rule="evenodd" d="M8.478 9.14s-.303.23-.431.408c-.129.176-.197.293-.342.437a.298.298 0 0 0 .1-.014s0 .038-.022.048a.137.137 0 0 1 .11.039c-.043.023-.16.14-.068.278.068.104.212.114.212.114s-.033.095.105.086c.297-.014.629-.144.782-.111.154.038.241.052.35.24.115.187.215.216.215.216s.068-.173.053-.43c.055-.14.086-.288.091-.438l-.101-.743-.44-.558-.572.317-.042.11Z" fill="#E3C571"/>
        <path fill-rule="evenodd" clip-rule="evenodd" d="M9.02 9.03s.042.1.22.11c-.019.042-.019.048-.013.081l.01.082a.18.18 0 0 0 .052-.039c.01.043-.01.111 0 .16.006.03.016.058.03.085a.17.17 0 0 1 .01-.02c.003-.01.038.105.133.193a.08.08 0 0 1 .01-.039c.001.025.01.048.023.068a.07.07 0 0 1-.02-.013s.01.307.063.466a.22.22 0 0 0 .023-.033c0-.01-.004.085-.013.153-.014.068-.004.163-.004.163a.51.51 0 0 1 .114-.068c.058-.023.154-.095.212-.254a1.7 1.7 0 0 0 .078-.278.388.388 0 0 1 .038.115c.004.049.095.024.095.024l.02-.212.115-.48.105-.297.505-.786.912-.702.796.182.671-.913-1.157-.695-1.095.115-.994 1.377-.796 1.248-.144.206Z" fill="#D8B65B"/>
        <path fill-rule="evenodd" clip-rule="evenodd" d="M14.755 7.037s-.068.013-.264.115c-.196.102-.332.134-.408.284-.075.149-.081.268-.081.268s.134-.059.212-.078c.081-.02.172-.014.163.02a.226.226 0 0 1-.039.061s.154-.003.15.072a.401.401 0 0 1-.058.196c-.03.039-.15.096-.163.14-.033.092.013.095-.004.17-.014.071-.078.21-.288.455a2.446 2.446 0 0 0-.307.418s-.105-.196-.16-.365l-.244.134-.477-1.664.01-.11s.042-.053.052-.15c-.072-.024-.082-.043-.177-.134-.095-.091-.173-.202-.332-.278-.023-.043-.053-.1-.169-.124a3.047 3.047 0 0 1-.186-.043s.062-.023.09-.072c-.071.01-.13.033-.286.03-.16-.005-.177-.01-.264.003-.088.014-.193.053-.232-.081-.042-.033-.134-.004-.211.11-.078.115-.105.206-.255.25a.52.52 0 0 1-.068.187c-.042.072-.11.144-.202.25-.143.17-.12.447-.35.659-.23.211.04-.587.04-.587l.368-.883 1.05-1.027 1.632-.11.159.844.796.274.503.767v-.001Z" fill="#D3AE4D"/>
        <path fill-rule="evenodd" clip-rule="evenodd" d="m15.014 7.223-.686-.988-.48-.369s-.341-.629-.365-.648c-.019-.014-.341-.049-.547-.063l.038.096a.252.252 0 0 1 .115.077c.092.105.15.303-.058.515.082.029.115.038.187.029-.072.085-.235.268-.245.427-.01.13.072.169.072.169s-.124.144-.13.384c.059-.066.123-.127.192-.183.144-.115.342-.244.476-.326a.272.272 0 0 0 .013.101s.25-.206.46-.114c.096.042.053.176.053.176s.13-.048.222.043c.091.091.221.326.287.418.03.042.105.124.182.25.106.177.195.363.265.557.004-.077.02-.186.153-.186l-.204-.365Z" fill="#CAA13E"/>
        <path fill-rule="evenodd" clip-rule="evenodd" d="M4.738 10.031s-.049-.12 0-.355c.048-.235.124-.346.15-.691.025-.346.25-.777.25-.777l.623-.284.441.12.13.591-.557.307s-.03.13-.187.235c-.157.105-.374.187-.427.293a.855.855 0 0 0-.068.206s-.159-.033-.254.072c-.101.107-.097.202-.101.284Z" fill="#F4EFC8"/>
        <path fill-rule="evenodd" clip-rule="evenodd" d="M5.996 9.874s-.052.033-.091.115c-.038-.062-.13-.431-.134-.763-.004-.332-.024-.414.053-.529.077-.114.378-.235.335-.441-.042-.196-.221-.278-.44-.221-.154.038-.268.365-.428.528-.12.124-.264.105-.303.173-.052.09-.004.182-.019.24-.004.02-.053.125-.14.25-.177.255-.476.615-.514.937.013-.183.003-.187.052-.389l-.03-.048.193-.63.124-.518.278-.868.49-.887.475-.532.495.033.058.744.284 1.396.596.734-.956.643-.378.033Z" fill="#EBCC73"/>
        <path fill-rule="evenodd" clip-rule="evenodd" d="M6.293 10.138s-.081.02-.11.004c-.03-.016-.059-.034-.049-.053.01-.02.062-.052.062-.068a.054.054 0 0 0-.048-.058c-.045-.006-.059.023-.059.023s-.042-.033-.077-.038a.537.537 0 0 1 .062-.004.605.605 0 0 0-.17-.049c.05-.029.145-.114.207-.114s.1-.01.091-.043c-.01-.033-.058-.081-.11-.1.019-.024.032-.06-.014-.154-.049-.096-.03-.16-.014-.183.014-.03.062-.081.086-.114.023-.033.042-.078.081-.101.02-.014.082-.039.144-.063.068-.023.124-.052.163-.023.043.03.023.068.023.068s.134-.048.255.014c.12.058.413.095.413.095l.105.212-.695.596-.287.143-.058.01Z" fill="#E5C66B"/>
        <path fill-rule="evenodd" clip-rule="evenodd" d="M7.258 9.163s-.215.144-.264.196c.03.004.078.024.058.053-.023.029-.163.13-.24.225-.082.095-.16.216-.187.274-.029.052-.25.206-.326.225.16 0 .48-.196.6-.196-.004.058.033.124.1.13.069.006.265.043.53-.12.263-.16.176-.278.286-.356.212-.14.298-.264.414-.342a.756.756 0 0 1 .177-.095s.004-.058.038-.052a.052.052 0 0 1 .043.033s.202-.144.46-.183a.027.027 0 0 1-.013-.013s.02-.01.023-.02c0 0 .014-.02.024-.01s.023.082.042.111c.043-.02.125-.202.125-.202l.196-.56v-.513l-.154.029-1.152.489-.699.724-.081.173Z" fill="#E6BD62"/>
        <path fill-rule="evenodd" clip-rule="evenodd" d="M10.575 6.649a.651.651 0 0 0 .177-.072c-.023.062-.023.13-.124.277-.101.148-.105.17-.187.323-.081.159-.09.388-.169.489a.355.355 0 0 1 .111-.033s-.078.068-.11.14c-.034.072-.092.221-.236.313-.143.09-.326.149-.522.365-.196.211-.398.48-.5.576.053-.092.125-.274.145-.395.02-.12-.004-.264.029-.423.033-.159.033-.274.192-.551.159-.278.43-1.243.43-1.243l.587-.187.177.42Z" fill="#B6933F"/>
        <path fill-rule="evenodd" clip-rule="evenodd" d="M10.151 6.293s-.176.255-.225.48c-.048.225-.004.206-.033.316a.413.413 0 0 0 0 .206.731.731 0 0 1 .245-.24c.167-.102.303-.173.384-.259.081-.091.15-.24.326-.355-.072-.01-.173-.043-.192-.039.072-.081.287-.205.505-.355.215-.154.202-.215.551-.369-.114.02-.169-.01-.264 0 .038-.081.173-.12.307-.254s-.085-.332-.085-.332l-1.024.62-.495.582Z" fill="#C49937"/>
        <path fill-rule="evenodd" clip-rule="evenodd" d="m7.373 5.831.023-.186.293-.47.307-.825V3.22l-.023-.652.048-.427.037-.136.04-.053.25.13.345.47.033.907-.336 1.431-.959 1.047-.058-.107Z" fill="#DFC068"/>
        <path fill-rule="evenodd" clip-rule="evenodd" d="M8.136 1.9s-.154.005-.186.644c-.033.639-.05.974-.072 1.291-.024.317-.078.509-.105.695-.027.187-.043.44-.13.596-.039.072-.12.297-.313.466a1.927 1.927 0 0 1-.586.327c-.086.019-.519.062-.696.159-.062.033-.168.072-.287.182-.235.212-.547.59-.773 1.047-.345.681-.69 2.606-.69 2.606l.077-.13s.01-.173.182-.476c.17-.303.12-.643.356-1.223.09-.222.205-.51.345-.754.222-.398.49-.74.76-.926a2.4 2.4 0 0 1 .926-.369l.522-.346s.091-.176.212-.378c.169-.284.384-.6.43-1.06.073-.682-.1-1.128-.09-1.532.01-.404.013-.701.095-.773.081-.072.023-.045.023-.045Z" fill="#A88F33"/>
        <path fill-rule="evenodd" clip-rule="evenodd" d="M8.136 4.95s.23-.568.336-1.07c.02-.101.058-.202.068-.284.048-.476.062-.672 0-.932-.049-.192-.235-.365-.332-.5-.095-.139-.14-.191-.12-.22a.215.215 0 0 1 .168-.072.578.578 0 0 1 .414.192c.15.172.268.759.268.759l.124.774.317.975-1.243.378Z" fill="#C99E3D"/>
        <path fill-rule="evenodd" clip-rule="evenodd" d="M10.301 4.36s-.043.019-.12 0a.173.173 0 0 1-.078.162c-.082-.033-.845.033-.845.033s-.355-.062-.466-.532c-.077-.312.058-.743.014-1.027-.068-.417-.163-.5-.173-.629-.01-.13-.02-.163-.02-.245-.042-.01-.068-.023-.11-.023-.01-.038.01-.072-.033-.14.023.01.182.03.369.206.153.144.153.196.176.225.03.03.265.23.366.431.1.201.297.841.341.946a.696.696 0 0 0 .115.182c.113.14.278.372.465.41H10.3Z" fill="#B58634"/>
        <path fill-rule="evenodd" clip-rule="evenodd" d="M9.043 2.4c.117.19.223.387.316.59.115.259.183.47.326.643-.077-.225-.215-.668-.297-.825a1.893 1.893 0 0 0-.345-.408Z" fill="#A88F33"/>
        <path fill-rule="evenodd" clip-rule="evenodd" d="M7.722 5.592s-.196.049-.56.241a6.08 6.08 0 0 1-.346.163c-.288.13-.596.25-.841.317a.56.56 0 0 0 .029.033s0 .095.052.15c-.029.028-.417.292-.303 1.176.078-.03.17-.068.183-.068.023.004.03.068.058.068.03 0 .124-.039.225-.17-.003.053-.062.581.25.937.06-.068.207-.293.207-.293l.004-.072s.013-.25.095-.48c.081-.229.24-.398.24-.398l.831-1.186-.124-.418Z" fill="#E6C367"/>
        <path fill-rule="evenodd" clip-rule="evenodd" d="M6.946 7.334a.46.46 0 0 1-.125.062.48.48 0 0 1 .082-.378c.134-.196.427-.45.509-.653.052-.13.029-.456.495-.874.466-.417.648-.561.648-.561l.754-.379.926.365-.46 1.804-.358.845-1.42-.268-1.051.037Z" fill="#DCBA5A"/>
        <path fill-rule="evenodd" clip-rule="evenodd" d="m7.488 6.845.177-.222v-.157s.196-.052.407-.268c.212-.216.505-.63.764-.604.258.03.283.561.293.71.01.15.043.49.095.673.058.182-.63.873-.63.873l-.466.356-.64-1.361Z" fill="#E9CE77"/>
        <path fill-rule="evenodd" clip-rule="evenodd" d="M8.035 8.687s.144-.225.038-.273c.062-.14.177-.288.177-.288s.082-.202.346-.45c.264-.249.427-.414.47-.58.026-.11.04-.221.042-.333a.63.63 0 0 0 .092.062c.042.02.244.187.215.523-.029.336-.153.475-.153.475s-.12.12-.206.183c-.091.062-.124.134-.278.14a.184.184 0 0 1 .053-.03s-.16-.019-.245.059c-.086.077-.267.316-.359.388l-.192.124Z" fill="#CDAE50"/>
        <path fill-rule="evenodd" clip-rule="evenodd" d="M14.491 4.91c-.23-.083-.47-.13-.714-.14-.408-.013-1.004.01-1.589.014-.629.004-1.2-.215-1.992-.254-.13-.078-.46-.418-1.493.303.062-.004.75-.16.988.14.241.297.173.802.14.922-.062.268-.264.658-.345.932-.082.274-.063.418-.12.61-.06.192-.187.287-.112.508.101-.062.154-.062.323-.44.168-.379.134-.649.413-.97.274-.322.73-.762.903-.873.174-.11 1.55-.825 2.99-.144.348-.037.608-.608.608-.608Z" fill="#D2A83E"/>
        <path fill-rule="evenodd" clip-rule="evenodd" d="M9.283 4.646a.178.178 0 0 0-.01-.042.312.312 0 0 0-.052-.078s-.341-.062-.514-.043c-.303.033-.577.408-.705.6-.128.193-.287.49-.46.643a.064.064 0 0 0-.01-.043s.01.014-.01.033c-.019.02-.019.03-.01.039l.03.029c.01 0 .278-.12.643-.461.388-.355.685-.538.84-.6.083-.035.17-.061.259-.077Z" fill="#C29637"/>
        <path fill-rule="evenodd" clip-rule="evenodd" d="M15.913 3.186s-.063.078-.14.163c-.173.183-.398.389-.59.6-.183.202-.389.36-.62.624-.231.264-.5.557-.567.642a.633.633 0 0 0-.11.298l-.072-.049c.016.03.036.06.058.086.048.068.124.153.163.205a.627.627 0 0 1 .1.222c.024.004.174.033.36-.274.187-.307.431-.643.431-.643l.389-.577.244-.489.307-.547.047-.26Z" fill="#AC8132"/>
        <path fill-rule="evenodd" clip-rule="evenodd" d="M16.31 2.794s-.234.192-.325.307c-.092.116-.308.418-.308.418l.078-.01.394-.35.154-.273.008-.091Z" fill="#A88F33"/>
        <path fill-rule="evenodd" clip-rule="evenodd" d="M16.239 18.225s-.004-.159.085-.254c.092-.095.323-.235.548-.76.225-.524.25-.642.25-.642s-.404.346-.652.427c.058-.12.09-.206.12-.268-.033-.029-.173-.062-.186-.078.077-.077.12-.267.277-.394.202-.153.571-.417.858-.652.287-.236.85-.783.922-.942.043.062.053.1.053.1s-.284.37-.431.604c-.13.203-.12.317-.12.317l.267-.115s.078.287-.274.724c.154-.058.216-.023.303-.072-.144.092-.342.216-.528.558-.183.341-.431.74-.85.988-.408.262-.643.458-.643.458v.001Z" fill="#A67A2E"/>
        <path fill-rule="evenodd" clip-rule="evenodd" d="M15.186 5.113s-.159.332-.182.59c-.004.062-.02.11-.02.182-.003.231.014.49-.038.61-.02-.048-.03-.081-.049-.1-.029.08-.081.335-.124.43a2.026 2.026 0 0 1-.058-.532c.004-.254.01-.303.01-.355-.01.077-.063.182-.082.245-.029-.053-.062-.12-.1-.177-.024.038-.053.095-.079.124a1.741 1.741 0 0 1-.019-.173c-.004-.1-.01-.23-.004-.258a1.17 1.17 0 0 1 .264-.447c.206-.225.418-.658.48-.792s.326-.69.326-.69h.202l-.293.667s-.177.365-.268.5c-.091.133-.284.518-.37.667.063-.081.115-.124.178-.202.06-.054.227-.29.227-.29Z" fill="#8C6228"/>
        <path fill-rule="evenodd" clip-rule="evenodd" d="M16.315 2.769a.836.836 0 0 1-.154.278c-.12.143-.379.336-.505.489-.115.15-.345.557-.24 1.04.038-.104.11-.312.302-.547.193-.235.398-.505.5-.714.1-.212.114-.38.114-.38l.038-.048-.023-.11-.033-.008Z" fill="#CBA94C"/>
        <path fill-rule="evenodd" clip-rule="evenodd" d="M20.247 15.649s-.078-.212-.101-.404c-.024-.193.038-.23-.033-.45-.043-.135-.12-.116-.14-.135-.02-.019-.033-.221-.03-.332a1.244 1.244 0 0 0-.023-.316c-.029-.024-.048-.043-.09-.187-.05-.143-.073-.215-.096-.258-.023-.043-.091-.081-.091-.124 0-.086.077-.13.077-.154-.003-.048-.062-.01-.077-.023-.02-.023.048-.163.023-.183-.01-.01-.078.072-.095.049-.02-.023-.043-.254-.078-.408-.033-.15-.068-.258-.072-.303a28.995 28.995 0 0 0-.332-.978 4.603 4.603 0 0 1-.13-.47c-.02-.091-.033-.278-.043-.259-.01.02-.003.115-.019.111-.013-.004-.062-.336-.077-.388-.014-.053-.096-.23-.116-.36-.02-.13-.062-.47-.091-.7-.03-.231-.043-.327-.043-.384a2.407 2.407 0 0 0-.023-.424 3.939 3.939 0 0 0-.183-.714c-.13-.326-.475-1.161-.537-1.37 0-.052.068-.022.068-.022s.169.423.293.749c.12.326.235.614.264.643.023.029.206.35.287.874.082.524.111 1.007.16 1.33.023.153.043.316.091.48.052.176.134.359.24.638.092.235.16.431.197.6.043.216.043.379.068.486.023.09.058.273.14.537.081.264.202.604.283.816.16.423.23.776.255.965.02.194.093.866.073 1.068Z" fill="#A88F33"/>
        <path fill-rule="evenodd" clip-rule="evenodd" d="m16.324 2.746-.01.023s.03.01.024.049c0 .053-.003.106-.01.159-.01.068-.029.12-.033.163 0 .091.014.196-.115.456-.038.072-.062.134-.081.177a.524.524 0 0 1-.101.169c.068-.039.312-.192.436-.17a.911.911 0 0 0-.297.269c.02.004.101.02.23 0 .216-.033.457-.11.669-.095.23.013.14-.278.14-.278l-.267-.586-.505-.356-.08.02Z" fill="#BE9C44"/>
        <path fill-rule="evenodd" clip-rule="evenodd" d="M17.64 7.138s-.224-.225-.316-.998c-.091-.777-.072-1.92-.072-1.92l-.182-.447s-.038-.297-.134-.408c-.096-.11-.283-.297-.369-.388-.085-.091-.183-.216-.24-.235.028-.049.158-.322.657-.326.5-.004.653.274.705.375.052.1.288.537.375 1.37.082.83.085.892.072 1.18-.01.159-.062.528-.154.922-.083.334-.174.707-.341.876v-.001Z" fill="#A17C34"/>
        <path fill-rule="evenodd" clip-rule="evenodd" d="M16.934 7.8a.381.381 0 0 0 .216-.049c.072-.003.332.03.532-.225.014.058.049.216-.043.356.049-.049.12-.068.13-.082.004.072.072.293-.215.831.077-.085.169-.081.25-.091.004.1.058.44-.085.623-.095.124-.25.086-.25.086a.483.483 0 0 0 0-.082c-.005-.053-.024-.105-.01-.14a.696.696 0 0 1-.202-.14c-.17-.159-.389-.43-.404-.633-.02-.225.182-.273.182-.273a.216.216 0 0 1-.042-.053c-.01-.033-.02-.085-.059-.128Z" fill="#8C6228"/>
        <path fill-rule="evenodd" clip-rule="evenodd" d="M15.437 5.357s-.01-.013-.062.049c.01-.062.02-.12.023-.177a.61.61 0 0 1 .095-.144c-.029.059-.048.111-.048.111s.072-.134.176-.216c.072-.058.163-.085.202-.14.043-.058.033-.067.043-.077 0 0 .095-.062.24-.245.02-.023.05-.048.069-.072.033-.013.11-.048.202-.095.095-.052.202-.124.268-.153.13-.059.268-.053.332-.144.048-.014.1-.16.091-.283.072.029.44.258.567.759.091.355-.072.903-.14 1.167-.068.264-.077.46-.173.58-.12.16-.508.384-.604.495-.081.092-.326.323-.316.49.01.124.163.192.196.215.033.024.033.053.095.039.062-.014.086-.043.11-.043.03.004.03.01.044.01.01 0 .02-.002.029-.004 0 0-.01.176-.424.23-.029.004-.058.014-.095.02.049-.024.078-.024.13-.096-.058-.01-.225-.019-.268-.033a.513.513 0 0 1 .095-.114c.034-.03-.003-.039-.032-.023-.05.034-.098.07-.144.11-.049.043-.091.101-.17.154a.379.379 0 0 1 .073-.332c-.024.004-.068.072-.11.058a.618.618 0 0 1 .013-.212c.023-.087.15-.24.15-.24l.609-1.09.13-.825-1.396.271Z" fill="#92723A"/>
        <path fill-rule="evenodd" clip-rule="evenodd" d="M15.404 5.404s-.033.023.033.068c-.01.013-.033.062-.062.095-.033.038-.068.062-.082.095-.029.068-.052.115-.052.144 0 .03-.01.216-.091.336-.03.043-.063.114-.086.163-.049.085-.091.154-.1.192-.02.068-.034.254-.034.254l.058-.072c-.023.049-.048.101-.085.14.023-.02.091-.068.206-.169.159-.134.408-.359.71-.537-.09.033-.169.033-.23.042.048-.048.485-.56.714-.61a.091.091 0 0 0 .02-.061l-.197-.02-.398.086-.058-.308-.266.162Z" fill="#B18E3E"/>
        <path fill-rule="evenodd" clip-rule="evenodd" d="M16.037 7.151s-.052.053-.101.183a.611.611 0 0 1-.095-.13c-.072-.12-.183-.274-.44-.187-.005-.081-.01-.124 0-.182.042-.01.172-.114.302-.268.091-.105.177-.225.235-.379.038-.029.105-.077.192-.134.124-.085.274-.202.297-.332-.058.024-.183.082-.369.072.072-.033.183-.068.169-.211l.052-.033a.192.192 0 0 0-.067-.01c-.005-.014-.01-.033-.043-.023-.033.01-.039.01-.043.023-.014.004-.058 0-.091.023-.033.024-.125.101-.16.115l.033-.058s-.095.01-.163.038c-.124.043-.268.12-.413.196.013-.023.02-.038.029-.043.01-.004.033-.01.033-.013 0-.004-.01-.039-.004-.053.043-.092.095-.18.154-.264.067-.091.081-.221.081-.221l.297-.15.835-.192.542.033-.068.375-.32.655-.274.596-.313.365-.287.21Z" fill="#543E26"/>
        <path fill-rule="evenodd" clip-rule="evenodd" d="M17.39 5.53s-.326.403-.417.466c.058-.125.417-.864.547-1.07-.029-.024-.068-.024.024-.384-.078.182-.105.277-.17.326-.063.048-.071.033-.114.033a.08.08 0 0 0 .01-.049s-.275-.033-.462-.033-.557.101-.763.183c-.163.068-.254.068-.312.11-.059.049-.091.101-.12.115-.024.014-.135.049-.16.085-.023.039-.062.082-.062.092 0 .01-.01.023.02.013.009-.004.081-.043.162-.091.111-.062.245-.134.342-.177.278-.11.365-.091.49-.114.13-.024.316-.078.44-.078.125-.004.36 0 .414.01-.023.02-.043.043-.033.124 0 .023-.02.049-.039.105-.058.16-.168.423-.23.557-.085.183-.182.336-.23.431-.048.095-.154.346-.259.48-.104.134-.159.215-.192.245-.032.029-.268.201-.25.264.043-.014.313-.116.509-.336.196-.22.235-.356.388-.476.153-.12.274-.322.346-.49.06-.155.046-.203.122-.341Z" fill="#806031"/>
        <path fill-rule="evenodd" clip-rule="evenodd" d="M10.36 8.544s-.043.176-.14.264c-.096.085-.265.159-.284.303-.023.143.169.215.169.215S10 9.5 10 9.63c0 .134-.004.16.01.288a.128.128 0 0 0-.039.038s.01.124.105.202c.095.077.177.124.225.105a.453.453 0 0 1 .02.048s.072-.182.12-.341c.049-.164.091-.14.11-.36.02-.22.231-.596.231-.596l.144-.322-.235-.182-.332.035Z" fill="#B6903C"/>
        <path fill-rule="evenodd" clip-rule="evenodd" d="M10.796 8.86c-.048.05-.093.103-.134.16-.062.085-.11.162-.202.196-.09.033-.149.033-.143.124.006.091.091.13.14.177.052.048.095.13.071.221.03-.014.082-.03.13-.134.05-.105.388-.744.388-.744h-.25Z" fill="#685026"/>
        <path fill-rule="evenodd" clip-rule="evenodd" d="M12.134 7.386s.03-.077 0-.134c-.029-.058-.205-.077-.293-.143-.091-.068-.202-.115-.293-.086.013-.033.068-.105.023-.12-.043-.014-.202.058-.244.091-.043.033-.14.072-.16.095-.019.024-.052.068-.072.049-.02-.014-.029-.049-.062-.03-.033.02-.192.15-.221.226-.03.076-.095.245-.293.437-.198.192-.284.316-.226.388.059.072.086.02.096.082a.524.524 0 0 1-.01.182c-.023.101-.062.196-.01.216.134.043.264-.039.293-.014.059.053-.033.241.105.278.14.038.278-.033.278-.033l.509-.274.49-.258.25-.495-.135-.414-.025-.043Z" fill="#D4B968"/>
        <path fill-rule="evenodd" clip-rule="evenodd" d="M11.654 8.569s-.085-.13.02-.245c.105-.114.254-.163.312-.235a.089.089 0 0 0-.042-.029.387.387 0 0 1 .169-.16.162.162 0 0 0-.11-.051c-.096 0-.155.058-.242.058-.085 0-.095-.043-.095-.043s.144-.013.13-.078c-.013-.068-.038-.068-.038-.068s.277-.115.326-.176c.048-.062.043-.134.052-.163.033 0 .226-.101.303-.059.078.043.024.16.024.16s.235-.177.354-.35c.105.01.154-.072.23-.072.096 0 .246.13.275.407.02.16.048.251.02.533-.014.159-.01.499.037.667.033.135.111.12.111.12a.218.218 0 0 1-.068.106c-.052.048-.058.177-.052.225.007.036.017.07.029.105 0 0-.062.072-.078.12-.014.049-.078.082-.124.082-.047 0-.023-.004-.086 0-.062.004-.081.013-.12 0-.039-.014-.068-.03-.052-.154.013-.124-.48-.413-.48-.413l-.806-.288.001.001Z" fill="#CCA849"/>
        <path fill-rule="evenodd" clip-rule="evenodd" d="M10.728 9.796s.177.235.903.235c.346 0 .466-.033.538-.052.077-.02.369-.134.662-.48.264-.313.206-.44.206-.44l-.154-.024-.5.068-1.476.63-.18.063h.001Z" fill="#585136"/>
        <path fill-rule="evenodd" clip-rule="evenodd" d="M11.27 9.854s-.63.14-.63-.258c0-.388.39-.796.486-.868.101-.072.342-.153.342-.153h.58l.111.293-.048.633-.841.353Z" fill="#252211"/>
        <path fill-rule="evenodd" clip-rule="evenodd" d="M11.85 8.693s-.12-.11-.394.039c-.273.149-.495.46-.508.743-.014.25.205.437.547.447.255.01.408-.02.486-.038l-.12-.15-.01-1.04Z" fill="#C3B378"/>
        <path fill-rule="evenodd" clip-rule="evenodd" d="M11.732 8.755s-.029-.023-.115.024c-.072.038-.177.14-.258.211-.053.043-.086.062-.116.095-.12.144-.22.38-.163.496.059.116.25.25.74.159l-.09-.985h.002Z" fill="#E6D89C"/>
        <path fill-rule="evenodd" clip-rule="evenodd" d="M11.573 8.996s-.078.12-.078.313c0 .196.11.508.519.532.312.02.522-.45.75-.633.172-.14.277-.144.277-.144s-.177-.192-.649-.44c-.466-.251-.988-.284-1.272.1.134-.01.567-.12.567-.12l.212.068-.326.324Z" fill="#252211"/>
        <path fill-rule="evenodd" clip-rule="evenodd" d="M12.182 9.25c-.013-.029-.023-.068.034-.077.056-.01.081-.004.1.038.02.043.039.078.01.095-.029.016-.105 0-.144-.056Zm-.09-.273s-.02.013-.01-.014c.003-.033.029-.091.09-.077.063.013.05.081.04.1-.011.02-.063.053-.102.039a.032.032 0 0 1-.02-.049h.001Z" fill="#6F674D"/>
        <path fill-rule="evenodd" clip-rule="evenodd" d="M6.835 9.1a.6.6 0 0 0 .332.112c.177-.004.404-.187.509-.303.062-.068.115-.14.173-.197.048-.048.081-.071.105-.104.033-.039.068-.111.085-.134-.043.033-.105.091-.169.13a2 2 0 0 1-.25.13c-.053.02-.597.307-.597.307l-.188.06Z" fill="#AC924C"/>
        <path fill-rule="evenodd" clip-rule="evenodd" d="M7.07 7.666s.085-.058.25-.095c.16-.039.48-.068.48-.068l.264.115.105.398-.192.414-.245.153-.277-.446-.384-.47-.001-.001Z" fill="#9F8E57"/>
        <path fill-rule="evenodd" clip-rule="evenodd" d="m6.724 8.021-.091.069s.023-.043.043-.173c.019-.13.12-.447.268-.63.147-.182.143-.172.143-.172a.097.097 0 0 0-.077.02.93.93 0 0 1 .268-.274c.124-.077.173-.101.303-.039.13.063.163.096.258.092.095-.004.177-.105.177-.105s.02.062-.053.206c-.072.143-.355.437-.355.437l-.59.403-.294.167Z" fill="#EAC970"/>
        <path fill-rule="evenodd" clip-rule="evenodd" d="M7.161 7.618s.427.058.557-.063c.004.014.02.014.02.024a.034.034 0 0 1-.01.02.312.312 0 0 1 .043-.005.252.252 0 0 0 .052.01.303.303 0 0 0 .043-.004.073.073 0 0 1-.03.049c.02 0 .04.003.04.019 0 .015.003.062-.02.072a.088.088 0 0 1-.058-.004.24.24 0 0 0 .029.105c.038.072.12.154.23.13 0 0 .058.14-.186.45-.033.043-.068.101-.11.15a.567.567 0 0 0-.04.114s.414-.159.533-.522c.12-.365.144-.724.12-1.06a.546.546 0 0 0-.042-.212c-.059-.12-.222-.1-.288-.033-.095.095-.254.332-.476.495-.225.163-.234.192-.407.265Z" fill="#D7BC6B"/>
        <path fill-rule="evenodd" clip-rule="evenodd" d="M6.649 8.142s-.082.048-.125.23a.753.753 0 0 0 .086.486c.047.071.153.268.374.277a.41.41 0 0 0 .16-.033c.077-.035.15-.08.215-.134.095-.071.173-.134.163-.14-.023-.01-.586-.475-.586-.475l-.212-.237-.076.026Z" fill="#585136"/>
        <path fill-rule="evenodd" clip-rule="evenodd" d="M7.18 8.915s.115-.01.183-.053c.068-.043-.398-.505-.398-.505l.033.5.183.058Z" fill="#453A25"/>
        <path fill-rule="evenodd" clip-rule="evenodd" d="M6.685 8.107s-.058.11-.058.14c-.01.095.02.394.043.489.023.1.15.254.313.254.1 0 .24-.062.24-.077 0-.02-.143-.039-.182-.111a.653.653 0 0 1-.038-.23c-.004-.063-.004-.13.019-.154.052-.058.062-.225.062-.225l.186-.347h-.245l-.293.183-.047.078Z" fill="#84754B"/>
        <path fill-rule="evenodd" clip-rule="evenodd" d="M6.614 8.214s.192-.255.365-.313c.173-.058.25-.023.25-.023l-.1.258-.145.16.01.08s-.023.216.12.366c.144.15.251.144.313.144s.241-.053.332-.269c.082-.201.15-.46-.013-.72a.587.587 0 0 0-.496-.268c-.054 0-.481.021-.636.584Z" fill="#252211"/>
        <path fill-rule="evenodd" clip-rule="evenodd" d="M11.544 9.078c-.072-.033-.004-.235.068-.297a.506.506 0 0 1 .322-.144c.058-.004.115.033.105.072-.014.072-.115.173-.206.244-.126.1-.208.162-.29.125Z" fill="#F7F7E7"/>
        <path fill-rule="evenodd" clip-rule="evenodd" d="M7.66 7.977c.053-.004.12.038.134.095.014.062-.033.186-.134.186-.081 0-.124-.1-.124-.13 0-.024.007-.047.02-.068.003-.006.013-.074.104-.083Z" fill="#F8F6DE"/>
        <path fill-rule="evenodd" clip-rule="evenodd" d="M6.903 8.021s-.134.062-.196.192a.51.51 0 0 0-.039.308c.01.048.059.168.092.211.033.043.077.072.11.068.033-.004.101-.091.101-.144 0-.052.004-.273.068-.394.057-.12-.136-.24-.136-.24Z" fill="#D4C38B"/>
        <path fill-rule="evenodd" clip-rule="evenodd" d="M6.922 8.012c-.023.013-.062.033-.052.058.01.023.091.038.12.095.033.058.033.12.024.15a.237.237 0 0 0 .068-.049c.042-.049.095-.114.14-.114.029 0 .058.013.085.013.043 0 .085-.013.091-.058.01-.058-.081-.11-.134-.101.01-.038.023-.095-.02-.134-.042-.039-.176.03-.205.049-.03.019-.117.09-.117.09Z" fill="#E2D59D"/>
        <path fill-rule="evenodd" clip-rule="evenodd" d="m10.008 12.091.287-.085.082.059s.058.124.15.14c-.03.062-.106.115-.102.159.004.044.043.077.043.077s-.258.427.25.858c-.12.049-.273.115-.355.154.058.013.183.038.235.085.052.047.052.062.101.091.049.03.078.068.068.086-.033-.02-.144-.078-.163-.024-.02.055-.48.033-.48.033l-.776.15s.029-.078-.053-.15c-.095-.085-.211.004-.336-.09-.163-.125-.169-.269-.221-.323.052-.033.16-.082.413-.115-.01-.02-.042-.078-.023-.13.023-.068.12-.111.091-.192.043-.01.063-.01.17-.144.1-.134.162-.163.24-.173.078-.01.124 0 .268-.134.101-.095.068-.177.068-.177s.066-.021.043-.155Z" fill="#CBAC5A"/>
        <path fill-rule="evenodd" clip-rule="evenodd" d="M9.16 12.134c.003-.02.019-.029.124-.02.104.01.768-.061.95-.07.182-.014.824-.005 1.137.061.313.066.63.144.782.183.154.043.202.058.197.077-.004.02-.039.039-.059.033-.019-.003-.528-.159-.685-.192-.157-.032-.701-.12-.998-.115-.278.004-.389-.004-.624.023-.235.03-.623.068-.74.053-.115-.014-.09-.014-.085-.033Z" fill="#D6BC6F"/>
        <path fill-rule="evenodd" clip-rule="evenodd" d="M10.722 13.656s.398.216.542.48c.105.196-.062.293-.062.293s.225 0 .196.124c-.013.078-.388.288-.639.398-.254.111-.244.105-.369.125-.12.02-.45-.039-.518.058s-.039.196-.02.212c.02.013.177.033.177.033s-.033.09-.359.1c-.326.01-.408.034-.427.069-.02.033.062.013.211.038.15.023.36.038.36.038s-.068.059-.245.105c-.202.053-.518.101-.614.16.049.033.12.081.154.085a.97.97 0 0 0-.216.078l.068.042s-.163.196-.258.245c-.095.049-.643.303-.831.254-.47-.124-.528-.638-.643-.677-.172-.059-.254.058-.407-.024.067-.048.104-.077.176-.11-.077-.039-.48-.293-.48-.293a2.984 2.984 0 0 0-.14-.268c-.077-.134-.191-.313-.277-.47-.186-.346-.196-.505-.365-.701.03-.039.13-.033.13-.033l1.416.466 2.51.072.653-.932.277.033Z" fill="#DFC677"/>
        <path fill-rule="evenodd" clip-rule="evenodd" d="M7.004 15.078a.22.22 0 0 0 .052.042c.049.033.12.072.17.13.019-.029.067-.081.153 0 .085.082.192.024.258.043.068.024.072.033.072.033s.038-.033.124-.068c.053-.02.115-.033.183-.052.062-.014.13-.033.176-.033.043.029.196.192.812-.049.58-.225.715-.25.812-.215.01-.024.02-.068.169-.062 0-.063-.125-.274-.125-.274l-.685-.235H8.8l-1.124.206-.623.355-.049.18v-.001Z" fill="#C4A859"/>
        <path fill-rule="evenodd" clip-rule="evenodd" d="M6.63 14.684s.013.104.168.215c.154.11.202.177.202.177s.03-.039.052-.078c.024-.043.043-.091.082-.105.078-.033.254.03.293.02.033-.01.024-.078.058-.078.082-.004.134.052.164.052.029 0 .1-.003.11-.019.01-.015.014-.177.124-.254a.332.332 0 0 1 .308-.03c0 .03.003.102.081.105.078.004.086-.01.154.014.068.023.15-.004.186.11.033-.009.11-.019.091-.13.039-.028.072-.048.154-.163.02-.029.052-.062.078-.104.068 0 .15-.014.258.081-.033.023-.053.039-.062.062a.701.701 0 0 1 .077.091c.03.039.049.086.086.096.081.023.215-.01.365 0 .144.01.264.062.316.095.02-.01.02-.014.068-.004.049.01.086.014.033-.048.03.013.063.042.092.013.029-.03.052-.072.134-.082.081-.01.11.004.143-.081.043-.105-.104-.105-.104-.105s.068-.062.143-.144c.091-.085.196-.196.222-.332.042-.25-.202-.283-.202-.283l-1.187.365-1.45-.072-1.237.616Z" fill="#927D49"/>
        <path fill-rule="evenodd" clip-rule="evenodd" d="M5.563 11.256s-.038.049-.062.163c-.024.115-.014.101-.033.183-.02.081-.258.893-.169 1.167.09.274.245.375.342.596.02.049.038.078.048.12.034.144.004.255.043.399a.44.44 0 0 0 .101.163c.115.12.303.234.384.316.115.12.278.365.486.388.11.014.268-.033.398-.11.115-.072.186-.173.307-.23.085-.043.177-.059.258-.078.169-.033.322-.039.414-.02.14.03.47.13.653.13.142-.002.285-.021.423-.058.277-.081.613-.221.835-.283.13-.039.235-.049.341-.072.183-.043.336-.101.424-.212-.058-.068-.13-.173-.519-.169-.44.01-.95.255-1.2.293-.25.04-.359.072-.639-.029-.274-.102-.283-.17-.283-.17s-.288-.2-.408-.714c-.12-.513 0-.887.313-1.243.081-.09.062-.172.062-.172s.205-.278.15-.538c-.063-.258-.461-.206-.461-.206l-2.208.386Z" fill="#6E6342"/>
        <path fill-rule="evenodd" clip-rule="evenodd" d="M5.895 12.12a.201.201 0 0 0-.023.105c.004.053.02.12.176.274.135.134.105.284.105.284s.068.013.25-.073c.145-.068.193.053.193.053a.406.406 0 0 1 .134-.043.293.293 0 0 0 .12-.038s.17.172.317.254c.134.072.211.12.277.072.063-.043.063-.13.059-.169a.504.504 0 0 0-.059-.1c-.042-.063-.11-.135-.115-.193-.01-.134.101-.293.078-.332-.024-.039-.11-.049-.326.03-.224.073-1.187-.123-1.187-.123h.001Z" fill="#39331F"/>
        <path fill-rule="evenodd" clip-rule="evenodd" d="M6.404 12.988s-.11-.104-.072-.613c.047 0 .094.004.14.013 0 0 .06.395-.068.6Z" fill="#292311"/>
        <path fill-rule="evenodd" clip-rule="evenodd" d="M5.616 10.868a.31.31 0 0 0 .042-.038c-.038.071-.215.359-.072.811.144.45.505.787.95.802.445.016.678-.202.946-.528.104-.13.225-.293.332-.404.159-.173.283-.221.283-.388 0-.342-.35-.495-.864-.649-.515-.153-.979-.134-1.22-.03-.234.115-.335.236-.398.424Z" fill="#252211"/>
        <path fill-rule="evenodd" clip-rule="evenodd" d="m7.268 13.142.038-.02s.01-.153.072-.15c.062.01.091.092.086.121-.004.03-.02.078-.082.072-.082.002-.114-.023-.114-.023Z" fill="#3F3824"/>
        <path fill-rule="evenodd" clip-rule="evenodd" d="M7.095 12.49s.039-.014.086.032c.038 0 .205-.02.258.014.052.033.068.062.068.062s-.196.043-.303 0c-.109-.037-.109-.109-.109-.109Z" fill="#2D2815"/>
        <path fill-rule="evenodd" clip-rule="evenodd" d="M7.96 12.518a.482.482 0 0 0-.216-.105c-.02-.003-.024.01-.039.01-.01-.004-.013-.033-.013-.033l-.063.033s-.01.014.023.039c.03.023.078.042.091.081.014.039.014.053.02.059.004.003.072 0 .105-.02s.095-.051.09-.064h.001Z" fill="#82764F"/>
        <path fill-rule="evenodd" clip-rule="evenodd" d="M6.979 12.913s.019-.134.15-.14c.133-.01.158.12.158.12l-.077.078c0-.002-.058-.084-.23-.058h-.001Z" fill="#2D2816"/>
        <path fill-rule="evenodd" clip-rule="evenodd" d="M7.823 12.336s-.072.078-.23.1c-.014-.019-.043-.057 0-.12.042-.062.09-.081.14-.062a.114.114 0 0 1 .09.082Z" fill="#574F35"/>
        <path fill-rule="evenodd" clip-rule="evenodd" d="M8.116 12.431c.004-.02-.01-.023 0-.033.01-.01.063-.029.072-.02.004.005 0 .02 0 .039s0 .038-.01.052c-.013.02-.052.03-.071.024-.02-.006-.023-.033-.023-.039.01-.003.032-.013.032-.023Zm.332-.21c0-.01.033-.029.052-.029.03 0 .03.024.033.03.01.003.01-.005.02.013s.023.049.013.068c-.01.02-.048.033-.058.029a.516.516 0 0 1-.06-.11Z" fill="#82764F"/>
        <path fill-rule="evenodd" clip-rule="evenodd" d="M7.78 12.476s.043.01.102.058c-.02.014-.05.03-.05.03s-.003-.046-.051-.088Z" fill="#6E6342"/>
        <path fill-rule="evenodd" clip-rule="evenodd" d="M7.685 12.049c-.01-.01.03-.033.053-.03.023.004.033.02.058.024s.03-.01.038-.02c.01-.01.043-.003.049 0a.109.109 0 0 1 .01.014.054.054 0 0 1 .02-.039.061.061 0 0 1 .052-.01c.003.014.023.063.019.072-.004.01-.062.024-.072.014.01.024.053.072.058.082.006.01-.042.033-.062.029a.79.79 0 0 1-.223-.136Zm.255-.323a.045.045 0 0 0-.02-.023c-.013-.004-.058 0-.058.023a.72.72 0 0 0 .082.222c.048.068.081.124.114.14a.045.045 0 0 0 .058-.02c.004-.01.014-.082.01-.25a2.303 2.303 0 0 0-.02-.342c-.009-.01-.048-.01-.061.01-.014.019-.101.211-.105.24Z" fill="#585136"/>
        <path fill-rule="evenodd" clip-rule="evenodd" d="M7.767 12.72s-.068-.042-.134-.013c-.062.029-.058.144-.058.144a.093.093 0 0 0 .085-.01c.043-.03.097-.078.107-.12Z" fill="#574F35"/>
        <path fill-rule="evenodd" clip-rule="evenodd" d="M7.895 12.874c-.004-.039-.038-.039-.038-.058a.044.044 0 0 1 .042-.033c.02 0 .039.023.063.038.023.014.058.038.062.068.004.03-.039.11-.086.11-.047 0-.033-.087-.042-.126Zm.375-.053s-.078.024-.072 0c.006-.023.023-.029.049-.029a.077.077 0 0 1 .048-.023c.01 0 .021.003.03.01 0 0 .052-.024.067-.01.016.014.004.014.014.03.012.016.02.036.023.057 0 .016-.058.049-.105.043-.054-.012-.044-.068-.054-.078Zm.452-.087s.024.014.004.03a.316.316 0 0 1-.14.042c-.058 0-.11.01-.11-.01s.048-.058.077-.068a.061.061 0 0 1 .049-.023c.023 0 .114-.01.14-.014.023-.004.042.01.029.03-.006.013-.049.013-.049.013Zm.134-.6s-.029.063-.062.063c-.033-.004-.033-.014-.033-.024 0-.013.033-.048.03-.058-.01 0-.034 0-.03-.023 0-.02.033-.043.062-.039a.128.128 0 0 1 .078-.029c.033 0 .062.01.062.03 0 .019-.038.061-.052.071-.016.016-.035.026-.055.01Zm-.442 1.148s-.039.004-.039.023c0 .01.01.01.023.004a.108.108 0 0 0 .024-.004c.004.004.004.024.033.024a.183.183 0 0 0 .068-.024c.023-.01.042-.02.042-.038-.01-.033-.029-.049-.058-.049a.077.077 0 0 0-.043.01s-.01-.02-.042 0c-.033.02-.03.02-.02.03.018.015.012.025.012.025v-.001Zm-.22.202c0-.01.049-.03.062-.023.014.003.053.077.053.085 0 .01-.049.033-.068.033-.02 0-.053-.033-.053-.038 0-.004.024-.01.024-.014.005-.01-.018-.033-.018-.043Zm-.153-.284c.01-.003.01-.013.023-.023a.034.034 0 0 1 .014-.005l.015.001a.047.047 0 0 1 .033-.023c.023-.004.043 0 .038.01 0 .029.02.048.02.071 0 .024-.014.053-.062.072a.341.341 0 0 1-.124.01c-.01-.004-.02-.043-.01-.062.01-.02.037-.04.052-.05Z" fill="#82764F"/>
        <path fill-rule="evenodd" clip-rule="evenodd" d="M8.102 13.214s-.033.019-.033.029a.087.087 0 0 0-.003.029c0 .006.042-.004.048-.01.002-.004-.012-.038-.012-.048Z" fill="#6E6342"/>
        <path fill-rule="evenodd" clip-rule="evenodd" d="M7.814 13.122c.019.004.052 0 .077.01.02.01.033.03.014.053-.02.023-.039.058-.082.052-.048-.004-.095-.03-.095-.049a.093.093 0 0 1 .023-.068c.02-.015.03-.005.062.002Z" fill="#585136"/>
        <path fill-rule="evenodd" clip-rule="evenodd" d="M7.79 13.142s-.062.048-.077.072c-.02.023-.115.143-.144.168a.37.37 0 0 1 .033-.048.199.199 0 0 0-.082.105c-.023.072.13.11.231.14.101.029.14.038.14.038a1.084 1.084 0 0 1-.095-.177c-.038-.09-.058-.1-.033-.143.02-.043.049-.072.049-.105-.012-.03-.022-.05-.022-.05Z" fill="#574F35"/>
        <path fill-rule="evenodd" clip-rule="evenodd" d="M5.577 13.295a.118.118 0 0 0 .042 0c.03-.004.333-.115.65-.095.236.014.47.053.7.115.398.105.893.313 1.214.431.085.033.169.092.23.115.245.095.254.095.398.12.169.024.342-.033.522-.072.222-.048.6-.072.932-.12.108-.015.214-.039.317-.072 0 0-.264.264-.897.36a2.809 2.809 0 0 1-.773.009 2.35 2.35 0 0 1-.437-.078c-.114-.033-.35-.12-.639-.192-.202-.052-.427-.09-.685-.14-.637-.116-1.328-.25-1.575-.38Z" fill="#252211"/>
        <path fill-rule="evenodd" clip-rule="evenodd" d="M4.862 12.095c-.154.13-.316.255-.476.375l-.48.368c-.162.12-.321.245-.485.366-.163.12-.326.234-.499.345.154-.13.317-.25.48-.369.163-.118.332-.234.49-.354l.479-.37c.165-.12.324-.244.491-.36Zm-.848 1.36s.172-.144.388-.346c.268-.25.596-.571.7-.63l-1.089.976Z" fill="#CFB66C"/>
        <path fill-rule="evenodd" clip-rule="evenodd" d="M4.014 13.454c.085-.085.176-.168.268-.25l.14-.12c.042-.039.09-.082.133-.125.086-.085.17-.176.255-.264.042-.044.087-.085.134-.124a.363.363 0 0 1 .077-.053c.024-.013.049-.038.082-.042-.02.029-.043.042-.062.068-.024.02-.043.042-.062.062-.043.042-.092.081-.134.12-.092.078-.187.154-.278.235-.091.081-.177.169-.268.25-.099.084-.19.166-.285.244Zm1.16-.776s-.632.62-.762.72l.763-.72Z" fill="#CFB66C"/>
        <path fill-rule="evenodd" clip-rule="evenodd" d="M5.175 12.678a2.054 2.054 0 0 1-.183.186l-.192.182c-.062.063-.12.125-.186.187-.068.058-.13.115-.202.169l.186-.183c.062-.062.13-.114.196-.176l.187-.183a2.87 2.87 0 0 1 .194-.182Zm.029.335a4.03 4.03 0 0 1-.206.476c-.163.327-.408.734-.515.942l.72-1.417Z" fill="#CFB66C"/>
        <path fill-rule="evenodd" clip-rule="evenodd" d="M5.204 13.014c0 .071-.02.134-.043.196a1.926 1.926 0 0 1-.173.359c-.033.056-.072.114-.1.173l-.197.345c-.068.116-.134.232-.206.342.049-.124.115-.24.177-.355.068-.115.13-.23.192-.35.03-.06.058-.12.082-.182.029-.062.058-.12.081-.177.03-.062.053-.12.082-.177.033-.06.06-.118.105-.174Z" fill="#CFB66C"/>
        <path fill-rule="evenodd" clip-rule="evenodd" d="M5.895 14.606s-.192.254-.173.576c.053-.168.119-.427.173-.576Zm.183.255s-.068.691-.125 1.03c.08-.392.095-.359.125-1.03Zm1.271 1.072s-.287.845-.293 1.08c.062-.242.183-.735.293-1.081Z" fill="#DEC270"/>
        <path fill-rule="evenodd" clip-rule="evenodd" d="M8.021 14.554s.466.768.816 1.425c-.095-.33-.312-.936-.816-1.425Z" fill="#CBAF59"/>
        <path fill-rule="evenodd" clip-rule="evenodd" d="M9.274 15.685c.256.453.487.919.691 1.397-.039-.33-.144-.896-.691-1.397Z" fill="#E3C677"/>
        <path fill-rule="evenodd" clip-rule="evenodd" d="M12.955 16.82c.078-.05.231-.314.365-.38.134-.067.235-.081.356-.215.12-.14.153-.225.417-.336.37-.16.115-.365.115-.365.041-.04.085-.077.13-.11.096-.072.206-.16.197-.313-.014-.259-.062-.633-.274-.85.206-.043.6-.073.845-.135.283-.072.413-.173.413-.173s-.163-.277.101-.557.48-.446.639-.76c-.183-.022-.46-.12-1.17.15a.903.903 0 0 1 .11.063s-.437.12-.596.254c-.278.235-.313.427-.614.57-.3.145-.604.106-.854.222-.25.117-.287.216-.379.258.02.024-.004.063.033.096-.023.033-.16.254-.297.254.014.052.13.091.13.091s-.085.062-.303.078c.11.115.216.24.505.423-.023.049-.12.12-.082.212.043.091.154.215.597.316-.226.01-.49.063-.845.014-.355-.043-.414-.068-.633-.014.023.024.085.024.14.086-.059.004-.424-.043-.548.12-.13.17-.186.447-.177.633-.068.033-.134.091-.1.212.032.12.205.16.316.235.11.081.12.11.225.091.11-.023.274-.134.37-.134.094 0 .162.072.162.072s.258-.124.284-.101c.023.023.004.173.029.196.025.018.316-.155.394-.204Z" fill="#ECD592"/>
        <path fill-rule="evenodd" clip-rule="evenodd" d="M18.6 9.049c-1.213-3.134-4.214-3.715-4.214-3.715H5.827l.033 3.192h1.705v7.128H5.827v3.187h8.322c2.006 0 3.614-2.016 3.614-2.016 2.575-3.654.837-7.776.837-7.776Zm-4.406 5.629s-.653.941-1.363.941h-1.42l-.034-7.085H13.2s.845.177 1.435 1.848c0 0 .783 2.394-.44 4.296Z" fill="#fff" fill-opacity=".8"/>
    </g>
    <defs>
        <clipPath id="a">
            <path fill="#fff" d="M0 0h24v24H0z"/>
        </clipPath>
    </defs>
</svg>
