<svg width="24" height="25" fill="none" xmlns="http://www.w3.org/2000/svg">
    <g clip-path="url(#a)">
        <mask id="b" style="mask-type:luminance" maskUnits="userSpaceOnUse" x="0" y="0" width="24" height="25">
            <path fill-rule="evenodd" clip-rule="evenodd" d="M0 .5h24v24H0V.5Z" fill="#fff"/>
        </mask>
        <g mask="url(#b)">
            <path fill-rule="evenodd" clip-rule="evenodd" d="M12 24.5c-6.6 0-12-5.4-12-12.06C.06 5.84 5.4.44 12.06.5 18.66.56 24 5.9 24 12.62c-.06 6.54-5.4 11.88-12 11.88Z" fill="#0090FF"/>
        </g>
        <path fill-rule="evenodd" clip-rule="evenodd" d="m13.14 11.06-.36 1.92 3.42.48-.24.9-3.36-.48c-.24.78-.36 1.62-.66 2.34-.3.84-.6 1.68-.96 2.46-.48 1.02-1.32 1.74-2.46 1.92-.66.12-1.38.06-1.92-.36-.18-.12-.36-.36-.36-.54 0-.24.12-.54.3-.66.12-.06.42 0 .6.06.18.18.36.42.48.66.36.48.84.54 1.32.18.54-.48.84-1.14 1.02-1.8.36-1.44.72-2.82 1.02-4.26v-.24l-3.18-.48.12-.9 3.3.48.42-1.86-3.42-.54.12-.96 3.54.48c.12-.36.18-.66.3-.96.3-1.08.6-2.16 1.32-3.12.72-.96 1.56-1.56 2.82-1.5.54 0 1.08.18 1.44.6.06.06.18.18.18.3 0 .24 0 .54-.18.72-.24.18-.54.12-.78-.12-.18-.18-.3-.36-.48-.54-.36-.48-.9-.54-1.32-.12-.3.3-.6.72-.78 1.14-.42 1.26-.72 2.58-1.14 3.9l3.3.48-.24.9-3.18-.48Z" fill="#fff"/>
    </g>
    <defs>
        <clipPath id="a">
            <path fill="#fff" d="M0 .5h24v24H0z"/>
        </clipPath>
    </defs>
</svg>
