<svg width="24" height="25" fill="none" xmlns="http://www.w3.org/2000/svg">
    <rect y=".5" width="24" height="24" rx="12" fill="#fff"/>
    <g clip-path="url(#a)" fill-rule="evenodd" clip-rule="evenodd" fill="#060606">
        <path d="M4.29 17.317c.218.116.505.294.71.43.075.052.16.096.242.147.044.028.072.041.113.069.02.013.037.027.058.037l.061.034 2.63 1.62c.038.02.072.044.113.068l2.387 1.472c.028.017.038.02.062.037l1.14.7c.052.028.072.062.13.066v-8.915l-.361-.209c-.035-.017-.055-.03-.09-.05l-.283-.165c-.403-.211-.779-.471-1.185-.683-.041-.02-.055-.034-.1-.054l-.361-.209c-.089-.054-.492-.297-.564-.314v1.407l1.483.857c.04.024.068.041.106.062.04.02.061.044.112.055v6.035c-.26-.174-.536-.331-.802-.492l-.646-.4c-.263-.177-.546-.324-.81-.498-.03-.02-.047-.027-.078-.048l-.57-.352a1.646 1.646 0 0 1-.164-.102c-.209-.14-.434-.263-.646-.4-.058-.037-.106-.061-.164-.099-.314-.212-.652-.403-.973-.598-.028-.017-.052-.034-.075-.05l-.25-.155V9.376a2.922 2.922 0 0 0-.15-.089 3.46 3.46 0 0 1-.15-.089l-.769-.437c-.058-.03-.102-.065-.157-.092v8.648ZM12.673 13.068v3.426l.454-.256c.208-.11.4-.243.608-.352.038-.02.051-.027.079-.048.027-.017.054-.027.082-.04v-2.02a.216.216 0 0 0 .085-.037c.03-.02.051-.027.082-.044.16-.093.318-.202.482-.284.222-.11.433-.246.645-.372.055-.03.1-.058.157-.092l.321-.181.079-.048c.14-.072.27-.168.413-.243l.157-.092c.028-.017.055-.027.082-.04l1.049-.609c.222-.116.427-.256.645-.372l.325-.191c.11-.065.215-.123.324-.192.058-.034.106-.058.157-.092l.171-.096v5.845c-.048.01-.061.027-.102.05l-.3.185c-.032.02-.055.038-.093.062-.041.024-.068.044-.102.065-.038.02-.059.037-.096.058l-.304.18c-.273.158-.53.335-.803.492l-.8.496c-.037.024-.057.034-.095.058-.358.242-.74.444-1.103.68-.065.044-.133.081-.198.122l-1 .615c-.031.017-.066.038-.096.058-.298.195-.608.362-.905.557l-.407.25V22c.068-.017.178-.1.24-.137.081-.051.16-.092.242-.147.229-.153.478-.28.707-.433.044-.028.078-.052.12-.076l.604-.372.112-.068 3.218-1.981.12-.075 2.148-1.322c.04-.027.082-.051.123-.072V8.683c-.062.013-.072.034-.12.061a3.554 3.554 0 0 0-.116.065l-.714.413c-.242.13-.468.29-.714.414l-1.909 1.1c-.085.047-.154.092-.236.14l-.351.204c-.25.127-.612.342-.84.485-.042.028-.076.038-.117.065l-.775.451c-.034.017-.027.017-.061.038l-.243.133c-.143.075-.27.167-.413.242-.035.018-.035.024-.062.038l-.242.133c-.16.079-.584.376-.714.403ZM4.764 8.095c.047.01.075.038.12.062.16.085.303.188.467.27l1.298.751c.618.376 1.26.71 1.882 1.086l.116.065c.045.024.075.044.116.065l.707.41.052.03c.33.202.68.373 1.007.581l1.052.605.113.068c.123.075.563.342.608.342.065 0 .44-.24.536-.298l.185-.109c.061-.037.116-.061.177-.099l.178-.102.358-.212c.062-.038.116-.065.175-.103l.543-.307c.034-.017.058-.034.088-.051.031-.02.052-.031.09-.051l.361-.209c.058-.034.123-.085.191-.102-.01-.041-.016-.038-.05-.058l-1.159-.666c-.46.242-.898.526-1.355.775a4.257 4.257 0 0 1-.314.188l-.697-.403c-.243-.123-.465-.284-.708-.41-.054-.03-.109-.065-.157-.092L9.33 9.308l-.078-.048c-.031-.02-.052-.027-.082-.044L7.36 8.17c-.035-.02-.038-.03-.086-.04.038-.055.082-.059.144-.096.05-.034.099-.051.153-.082l1.575-.85c.034-.021.034-.025.068-.042s.051-.024.082-.044c.055-.034.11-.058.164-.085l1.964-1.06c.034-.016.044-.027.079-.047l.799-.427c.044 0 .649.352.789.423.034.018.058.028.092.048.041.024.051.034.1.055l2.171 1.171c.192.12.772.424.977.526.232.117.454.257.687.373l1.29.7c.045.024.059.03.1.055.154.092.157.013.406-.123l.461-.263c.082-.045.393-.243.465-.26-.014-.044-.055-.061-.096-.085l-.468-.256c-.235-.12-.471-.267-.707-.38l-.468-.256c-.16-.082-.32-.157-.47-.253L15.27 5.598a.937.937 0 0 1-.116-.064l-.95-.513-.116-.065-.054-.027-1.247-.676c-.079-.048-.444-.253-.489-.253-.037 0-.3.157-.358.184L9.238 5.646a1.31 1.31 0 0 0-.12.062L7.227 6.729c-.044.024-.065.041-.116.065l-.17.092c-.035.017-.035.024-.062.038-.038.024-.079.034-.12.061l-.362.195c-.048.024-.071.044-.116.065l-.55.3c-.02.01-.02.007-.037.017-.079.045-.16.076-.236.127-.044.027-.072.037-.12.061l-.529.294c-.04.024-.03.003-.044.051Z"/>
    </g>
    <defs>
        <clipPath id="a">
            <path fill="#fff" d="M4.29 4h16.018v18H4.29z"/>
        </clipPath>
    </defs>
</svg>
