<svg width="24" height="25" fill="none" xmlns="http://www.w3.org/2000/svg">
    <g clip-path="url(#a)">
        <path d="M20.44 20.938c4.66-4.66 4.66-12.216 0-16.877-4.661-4.66-12.217-4.66-16.877 0-4.66 4.661-4.66 12.217 0 16.877 4.66 4.66 12.216 4.66 16.877 0Z" fill="#fff"/>
        <path d="M12.002.632c1.6 0 3.153.314 4.62.934a11.95 11.95 0 0 1 3.773 2.54 11.766 11.766 0 0 1 2.54 3.773c.62 1.46.934 3.02.934 4.62s-.314 3.153-.934 4.62a11.95 11.95 0 0 1-2.54 3.773 11.77 11.77 0 0 1-3.773 2.54c-1.46.62-3.02.934-4.62.934s-3.153-.314-4.62-.934a11.952 11.952 0 0 1-3.773-2.54 11.95 11.95 0 0 1-2.54-3.773 11.796 11.796 0 0 1-.934-4.62c0-1.6.314-3.153.934-4.62a11.95 11.95 0 0 1 2.54-3.773 11.95 11.95 0 0 1 3.773-2.54c1.467-.62 3.02-.934 4.62-.934Zm0-.133c-6.627 0-12 5.373-12 12s5.373 12 12 12 12-5.373 12-12-5.373-12-12-12Z" fill="#DDDDDE"/>
        <path d="M16.987 14.994c-1.06 0-2.18-.693-2.726-1.193-.6-.554-2.254-2.34-2.26-2.347-1.08-1.207-2.54-2.547-3.994-2.547-1.746 0-3.273 1.214-3.673 2.814.033-.107.587-1.574 2.673-1.574 1.06 0 2.18.694 2.727 1.194.6.553 2.253 2.34 2.26 2.346 1.08 1.207 2.54 2.547 3.993 2.547 1.747 0 3.274-1.213 3.674-2.813-.027.1-.587 1.573-2.674 1.573Z" fill="#29ABE2"/>
        <path d="M12 13.687c-.007-.006-.48-.52-1.013-1.08-.287.34-.7.807-1.18 1.227-.887.78-1.467.94-1.8.94-1.247 0-2.267-.987-2.267-2.207 0-1.207 1.013-2.2 2.267-2.207.046 0 .1.007.166.014a3.229 3.229 0 0 0-1.166-.24c-2.087 0-2.64 1.466-2.674 1.573-.066.273-.106.56-.106.853 0 2.02 1.666 3.667 3.746 3.667.867 0 1.84-.447 2.84-1.32.474-.413.88-.86 1.194-1.213 0 0 0-.007-.007-.007Z" fill="url(#b)"/>
        <path d="M12 11.447c.008.007.48.52 1.014 1.08.287-.34.7-.806 1.18-1.226.887-.78 1.467-.94 1.8-.94 1.247 0 2.267.986 2.267 2.206 0 1.207-1.014 2.2-2.267 2.207-.046 0-.1-.007-.166-.013.373.146.773.24 1.166.24 2.087 0 2.64-1.467 2.674-1.574.066-.273.106-.56.106-.853 0-2.02-1.693-3.667-3.773-3.667-.867 0-1.814.447-2.814 1.32-.473.414-.88.86-1.193 1.214 0 0 0 .006.007.006Z" fill="url(#c)"/>
    </g>
    <defs>
        <linearGradient id="b" x1="9.966" y1="15.754" x2="4.859" y2="10.465" gradientUnits="userSpaceOnUse">
            <stop offset=".22" stop-color="#ED1E79"/>
            <stop offset=".892" stop-color="#522785"/>
        </linearGradient>
        <linearGradient id="c" x1="14.031" y1="9.383" x2="19.139" y2="14.672" gradientUnits="userSpaceOnUse">
            <stop offset=".21" stop-color="#F15A24"/>
            <stop offset=".684" stop-color="#FBB03B"/>
        </linearGradient>
        <clipPath id="a">
            <path fill="#fff" d="M0 .5h24v24H0z"/>
        </clipPath>
    </defs>
</svg>
