<svg width="24" height="24" fill="none" xmlns="http://www.w3.org/2000/svg">
    <rect width="24" height="24" rx="12" fill="#160653"/>
    <g clip-path="url(#a)">
        <path d="M5.94 6.764c.1-.124.204-.244.308-.364.004-.004.016-.008.02-.012.008-.012.024-.02.036-.032l.008-.012c.072-.068.152-.14.24-.208.32-.24.648-.424.996-.548 1.12-.392 2.364-.152 3.34.772 1.364 1.276 1.24 3.336.152 4.704-1.376 2.04-3.736 4.884-.468 7.432.588.46 1.024.836 2.876 1.372-1.212.224-2.336.152-3.584-.164-.884-.5-2.276-1.568-2.748-3.012-.716-2.188 1.26-5.464 2.212-6.724 1.308-1.744-.808-3.632-2.372-1.524-.808 1.1-2.236 4.208-1.74 6.516.288 1.308.676 2.26 2.208 3.572a6.957 6.957 0 0 1-.828-.572C3.04 14.644 3.452 9.516 5.94 6.764Z" fill="url(#b)"/>
        <path d="M18.06 17.236c-.1.124-.204.244-.308.364-.004.004-.016.008-.02.012-.008.012-.024.02-.036.032l-.008.012a3.762 3.762 0 0 1-1.236.752c-1.12.392-2.364.152-3.34-.772-1.364-1.276-1.24-3.336-.152-4.704 1.376-2.04 3.736-4.884.468-7.432-.588-.46-1.024-.836-2.876-1.372 1.212-.224 2.336-.152 3.584.164.884.5 2.276 1.568 2.748 3.012.716 2.188-1.26 5.464-2.212 6.724-1.308 1.744.808 3.632 2.372 1.524.816-1.1 2.244-4.208 1.748-6.516-.288-1.308-.676-2.26-2.208-3.572.284.168.56.356.828.572 3.548 3.32 3.136 8.448.648 11.2Z" fill="url(#c)"/>
    </g>
    <defs>
        <linearGradient id="b" x1="4" y1="12.706" x2="20" y2="12.706" gradientUnits="userSpaceOnUse">
            <stop stop-color="#0082FA"/>
            <stop offset="1" stop-color="#00F2FE"/>
        </linearGradient>
        <linearGradient id="c" x1="4" y1="11.295" x2="20" y2="11.295" gradientUnits="userSpaceOnUse">
            <stop stop-color="#0082FA"/>
            <stop offset="1" stop-color="#00F2FE"/>
        </linearGradient>
        <clipPath id="a">
            <path fill="#fff" d="M4 4h16v16H4z"/>
        </clipPath>
    </defs>
</svg>
