<svg width="24" height="25" viewBox="0 0 24 25" fill="none" xmlns="http://www.w3.org/2000/svg">
<g clip-path="url(#clip0_972_14662)">
<path d="M12 24.5C18.6274 24.5 24 19.1274 24 12.5C24 5.87258 18.6274 0.5 12 0.5C5.37258 0.5 0 5.87258 0 12.5C0 19.1274 5.37258 24.5 12 24.5Z" fill="#F69988"/>
<path fill-rule="evenodd" clip-rule="evenodd" d="M12.0062 4.01562L16.2155 10.5891L12.006 13.0365L7.79688 10.589L12.0062 4.01562ZM9.08542 10.2782L12.0062 5.71705L14.9269 10.2782L12.006 11.9764L9.08542 10.2782Z" fill="white"/>
<path d="M11.9994 14.481L7.11637 11.6416L6.98305 11.8499C5.47912 14.1985 5.81498 17.2743 7.79057 19.2449C10.1154 21.5637 13.8846 21.5637 16.2094 19.2449C18.185 17.2743 18.5209 14.1985 17.0169 11.8499L16.8836 11.6416L11.9996 14.4811L11.9994 14.481Z" fill="white"/>
</g>
<defs>
<clipPath id="clip0_972_14662">
<rect width="24" height="24" fill="white" transform="translate(0 0.5)"/>
</clipPath>
</defs>
</svg>
