<svg width="24" height="24" viewBox="0 0 24 24" fill="none" xmlns="http://www.w3.org/2000/svg">
<rect width="24" height="24" rx="12" fill="white"/>
<g clip-path="url(#clip0_4083_16015)">
<path d="M8.36133 10.3422L11.9994 8.55967V3.6875L8.36133 10.3422Z" fill="#FF596E"/>
<path d="M12 8.55957V12.4417L15.638 10.3421L12 8.55957Z" fill="#FF596E"/>
<path d="M11.9994 8.55957V12.4417L8.36133 10.3421L11.9994 8.55957Z" fill="#800010"/>
<path d="M15.638 10.3422L12 8.55967V3.6875L15.638 10.3422Z" fill="#800010"/>
<path d="M11.999 13.94V18.0777L8.29102 11.7998L11.999 13.94Z" fill="#FF596E"/>
<path d="M12 13.94V18.0777L15.708 11.7998L12 13.94Z" fill="#800010"/>
<path d="M16.3203 12.7483L17.1603 15.2383L19 11.9922L16.3203 12.7483Z" fill="#800010"/>
<path d="M17.1602 15.2383L18.9999 14.6626V11.9922L17.1602 15.2383Z" fill="#FF596E"/>
<path d="M18.9985 14.6621L16.3188 19.3915L14.2832 20.312L17.1588 15.2378L18.9985 14.6621Z" fill="#800010"/>
<path d="M5 14.6621L7.67972 19.3914L9.71527 20.3119L6.83972 15.2378L5 14.6621Z" fill="#FF596E"/>
<path d="M11.9999 20.3121L7.67984 12.748L6.83984 15.238L9.71541 20.3121H11.9999Z" fill="#800010"/>
<path d="M7.67972 12.7483L6.83972 15.2383L5 11.9922L7.67972 12.7483Z" fill="#FF596E"/>
<path d="M6.83972 15.2383L5 14.6626V11.9922L6.83972 15.2383Z" fill="#800010"/>
<path d="M12 20.3121L16.32 12.748L17.16 15.238L14.2845 20.3121H12Z" fill="#FF596E"/>
</g>
<defs>
<clipPath id="clip0_4083_16015">
<rect width="14" height="16.625" fill="white" transform="translate(5 3.6875)"/>
</clipPath>
</defs>
</svg>
