<svg width="24" height="24" viewBox="0 0 24 24" fill="none" xmlns="http://www.w3.org/2000/svg">
<g clip-path="url(#clip0_532_26329)">
<path d="M24 0H0V24H24V0Z" fill="black"/>
<path d="M12 21.1062V18.0233C11.6926 18.0233 11.3786 17.9963 11.0713 17.9491L10.5902 20.9915C11.0579 21.0724 11.5323 21.1062 12 21.1062ZM13.4031 20.9982C13.8708 20.924 14.3318 20.8161 14.7795 20.6677L13.8374 17.7332C13.5434 17.8276 13.2361 17.9018 12.9287 17.9491L13.4031 20.9982ZM9.22049 20.6677L10.1626 17.7399C9.8686 17.6455 9.58129 17.5241 9.30067 17.3824L7.91091 20.128C8.33185 20.3371 8.77283 20.5193 9.22049 20.6677ZM16.0824 20.128C16.5033 19.9121 16.9042 19.6625 17.2851 19.386L15.4811 16.8967C15.2339 17.0788 14.9666 17.2475 14.686 17.3824L16.0824 20.128ZM6.70824 19.3792L8.51225 16.8899C8.26503 16.7078 8.0245 16.5054 7.80401 16.2828L5.6392 18.4618C5.97327 18.7923 6.33408 19.1026 6.70824 19.3792ZM18.3474 18.4752L18.3675 18.455C18.7016 18.1245 19.0089 17.7602 19.2828 17.3824L16.8107 15.5677C16.6303 15.8173 16.4232 16.0602 16.2094 16.2761L16.1759 16.3098L17.2183 17.3014L18.3474 18.4752ZM4.72383 17.3757L7.19599 15.561C7.01559 15.3114 6.84855 15.0415 6.70824 14.765L3.98218 16.1614C4.19599 16.5864 4.44321 16.9911 4.72383 17.3757ZM20.0178 16.1681C20.2316 15.7499 20.412 15.3046 20.559 14.8527L17.6459 13.9082C17.5523 14.205 17.4321 14.4951 17.2918 14.7717L20.0178 16.1681ZM3.44098 14.8527L6.35412 13.9015C6.26058 13.6047 6.18708 13.3011 6.14031 12.9908L3.11359 13.4697C3.18708 13.9352 3.30067 14.4007 3.44098 14.8527ZM20.8864 13.4765C20.9599 13.011 21 12.5321 21 12.0598H17.9399C17.9399 12.3701 17.9131 12.6872 17.8664 12.9975L20.8864 13.4765ZM6.06681 12.0531C6.06681 11.7428 6.09354 11.4257 6.14031 11.1154L3.11359 10.6364C3.04009 11.1019 3.00668 11.5809 3 12.0531H6.06681ZM17.8664 11.1221L20.8931 10.6432C20.8196 10.1777 20.7127 9.71224 20.5657 9.26026L17.6526 10.2047C17.7461 10.5083 17.8196 10.8118 17.8664 11.1221ZM6.35412 10.2047C6.44766 9.90787 6.56793 9.61779 6.70824 9.34121L3.98218 7.94479C3.76837 8.36304 3.58797 8.80828 3.44098 9.26026L6.35412 10.2047ZM17.2984 9.34795L20.0312 7.95154C19.8174 7.52654 19.5702 7.12178 19.2895 6.73726L16.8107 8.55193C16.9911 8.80153 17.1581 9.07137 17.2984 9.34795ZM7.19599 8.54518C7.37639 8.29558 7.58352 8.05273 7.80401 7.83011L7.81069 7.82337L5.64588 5.64442L5.6392 5.65116C5.30512 5.98846 4.99777 6.346 4.72383 6.73052L7.19599 8.54518ZM16.2094 7.8436L16.8641 7.17575L18.3675 5.66466L18.3608 5.65791C18.0267 5.32736 17.6726 5.01704 17.2984 4.74046L15.4944 7.22972C15.7416 7.41186 15.9822 7.61424 16.196 7.83686L16.2094 7.8436ZM8.51893 7.21623C8.76615 7.03409 9.03341 6.87218 9.31403 6.73052L7.92428 3.98491C7.50334 4.20078 7.10245 4.45038 6.7216 4.72697L8.51893 7.21623ZM14.706 6.73726L16.1024 3.99166C15.6815 3.77579 15.2472 3.59364 14.7996 3.44523L13.8508 6.37298C14.1381 6.47417 14.4254 6.5956 14.706 6.73726ZM10.1759 6.37298C10.4699 6.27854 10.7773 6.20433 11.0846 6.15711L10.6102 3.11468C10.1492 3.18889 9.68151 3.29682 9.23385 3.44523L10.1759 6.37298ZM12.9354 6.15711L13.4165 3.11468C12.9555 3.04048 12.4811 3 12.0134 3V6.08291C12.3207 6.08291 12.6347 6.10989 12.9354 6.15711Z" fill="white"/>
<path d="M12.0535 18.109V15.0126C11.7929 15.0126 11.539 14.9789 11.2851 14.9114L10.4833 17.8999C10.9978 18.0348 11.5256 18.109 12.0535 18.109ZM13.6236 17.8999C14.1381 17.765 14.6258 17.5626 15.0869 17.2927L13.5367 14.6146C13.3163 14.7428 13.0757 14.844 12.8285 14.9114L13.6236 17.8999ZM9.02673 17.2927L10.5768 14.6146C10.3563 14.4864 10.1492 14.3245 9.96214 14.1424L9.93541 14.1154L8.95991 15.1475L7.75724 16.3146L7.77728 16.3348C8.15145 16.7058 8.57238 17.0297 9.02673 17.2927ZM16.3363 16.3348C16.7105 15.957 17.0379 15.5388 17.2984 15.0801L14.6192 13.5285C14.4922 13.7511 14.3318 13.9535 14.1448 14.1424L16.3363 16.3348ZM6.80846 15.0733L9.48775 13.5285C9.3608 13.3059 9.26058 13.0698 9.19376 12.8202L6.20713 13.6162C6.34076 14.1221 6.54788 14.6146 6.80846 15.0733ZM17.9065 13.6229C18.0401 13.1102 18.1136 12.5841 18.1136 12.0579H15.02C15.02 12.3142 14.9866 12.5773 14.9198 12.8269L17.9065 13.6229ZM9.10022 12.0511C9.10022 11.7948 9.13363 11.5317 9.20045 11.2821L6.20713 10.4861C6.0735 10.9988 6 11.5249 6 12.0511H9.10022ZM14.9131 11.2888L17.9065 10.4928C17.7728 9.98012 17.5657 9.48767 17.3051 9.02894L14.6258 10.5738C14.7461 10.8031 14.8463 11.0392 14.9131 11.2888ZM9.49443 10.5738C9.62138 10.3579 9.77505 10.1488 9.96214 9.96663L9.96882 9.95988L8.85969 8.85354L7.79733 7.75395L7.77728 7.77419C7.40312 8.14522 7.0824 8.57021 6.81514 9.02219L9.49443 10.5738ZM14.1448 9.96663L15.2405 8.86704L16.363 7.80117L16.3363 7.77419C15.9621 7.39642 15.5412 7.07935 15.0869 6.80952L13.5367 9.48766C13.7572 9.61584 13.9577 9.771 14.1448 9.95314V9.96663ZM10.5768 9.48766C10.7973 9.35949 11.0379 9.2583 11.2851 9.19084L10.4967 6.20238C9.98218 6.3373 9.49443 6.53968 9.03341 6.80952L10.5768 9.48766ZM12.8218 9.19759L13.6236 6.20912C13.1158 6.07421 12.588 6 12.0601 6V9.0964C12.314 9.0964 12.5746 9.13013 12.8218 9.19759Z" fill="white"/>
</g>
<defs>
<clipPath id="clip0_532_26329">
<rect width="24" height="24" rx="12" fill="white"/>
</clipPath>
</defs>
</svg>
