<svg width="24" height="24" viewBox="0 0 24 25" fill="none" xmlns="http://www.w3.org/2000/svg">
    <rect y=".5" width="24" height="24" rx="12" fill="#fff"/>
    <path d="m15.616 7.113-2.504 3.72c-.173.254.16.56.4.347l2.464-2.147c.066-.053.16-.013.16.08v6.707c0 .093-.12.133-.174.067L8.504 6.953a1.232 1.232 0 0 0-.972-.453h-.267C6.573 6.5 6 7.073 6 7.78v9.44a1.28 1.28 0 0 0 2.37.667l2.505-3.72c.173-.254-.16-.56-.4-.347l-2.464 2.133c-.066.054-.16.014-.16-.08V9.18c0-.093.12-.133.173-.067l7.459 8.934c.24.293.6.453.972.453h.266A1.28 1.28 0 0 0 18 17.22V7.78a1.28 1.28 0 0 0-1.279-1.28 1.29 1.29 0 0 0-1.105.613Z" fill="#000"/>
</svg>
