<svg width="24" height="24" fill="none" xmlns="http://www.w3.org/2000/svg">
    <rect width="24" height="24" rx="12" fill="#fff"/>
    <g clip-path="url(#a)">
        <mask id="b" style="mask-type:luminance" maskUnits="userSpaceOnUse" x="3" y="3" width="18" height="18">
            <path d="M21 3H3v18h18V3Z" fill="#fff"/>
        </mask>
        <g mask="url(#b)" fill="#06070A">
            <path d="M12.638 21H12a9 9 0 1 1 8.905-7.689h-1.26A7.756 7.756 0 1 0 12 19.756h4.613A8.97 8.97 0 0 1 12.638 21Z"/>
            <path d="M18.337 18.423H12a6.422 6.422 0 1 1 6.288-5.111h-1.277A5.178 5.178 0 1 0 12 17.178h7.389a9.069 9.069 0 0 1-1.053 1.244Z"/>
            <path d="M20.165 15.844h-8.164a3.845 3.845 0 1 1 3.615-2.533h-1.37A2.6 2.6 0 1 0 12 14.6h8.643c-.13.429-.29.845-.478 1.244Z"/>
        </g>
    </g>
    <defs>
        <clipPath id="a">
            <path fill="#fff" d="M3 3h18v18H3z"/>
        </clipPath>
    </defs>
</svg>
