<svg width="24" height="24" fill="none" xmlns="http://www.w3.org/2000/svg">
    <g clip-path="url(#a)">
        <path d="M11.999 23.997c6.626 0 11.998-5.372 11.998-11.998C23.997 5.372 18.625 0 12 0 5.372 0 0 5.372 0 11.999c0 6.626 5.372 11.998 11.999 11.998Z" fill="url(#b)"/>
        <path d="M8.047 9.016a.505.505 0 0 0-.397-.186H4.445a.107.107 0 0 1-.07-.026.083.083 0 0 1-.026-.06v-2.16c0-.022.01-.042.027-.059.02-.02.043-.03.069-.026h3.387c.853 0 1.59.35 2.212 1.048l.824 1.005-1.604 1.955-1.217-1.491Zm5.92-1.479c.618-.691 1.359-1.038 2.222-1.038h3.377a.085.085 0 0 1 .063.02c.016.016.023.04.02.066v2.16a.092.092 0 0 1-.02.059.07.07 0 0 1-.063.026H16.36a.505.505 0 0 0-.397.186l-2.361 2.873 2.371 2.894c.096.11.238.176.384.172h3.204c.024-.003.05.01.063.027.014.02.023.046.02.07v2.159a.092.092 0 0 1-.02.06.07.07 0 0 1-.063.026H16.19c-.863 0-1.597-.35-2.213-1.049l-1.964-2.397-1.965 2.397c-.618.698-1.359 1.049-2.222 1.049h-3.38a.074.074 0 0 1-.063-.027.09.09 0 0 1-.02-.07v-2.159c0-.023.007-.043.02-.06a.07.07 0 0 1 .063-.026H7.65c.152 0 .297-.07.397-.185l2.318-2.83 3.601-4.403Z" fill="#00D1FF"/>
    </g>
    <defs>
        <linearGradient id="b" x1="12" y1="0" x2="12" y2="6.35" gradientUnits="userSpaceOnUse">
            <stop stop-color="#090220"/>
            <stop offset="1" stop-color="#170659"/>
        </linearGradient>
        <clipPath id="a">
            <path fill="#fff" d="M0 0h24v24H0z"/>
        </clipPath>
    </defs>
</svg>
