<svg width="24" height="25" fill="none" xmlns="http://www.w3.org/2000/svg">
    <path d="M12 24.5c6.63 0 12-5.374 12-12S18.63.5 12 .5 0 5.874 0 12.5s5.375 12 12 12Z" fill="#FF060A"/>
    <path d="M18.547 10.513c-.662-.614-1.582-1.55-2.327-2.212l-.046-.029a.956.956 0 0 0-.243-.14C14.129 7.798 5.742 6.229 5.58 6.248a.3.3 0 0 0-.128.048l-.042.034a.485.485 0 0 0-.115.187l-.009.029v.182c.943 2.63 4.671 11.237 5.407 13.262.046.14.129.398.285.413h.037c.083 0 .441-.475.441-.475s6.405-7.764 7.053-8.589c.083-.1.156-.211.22-.326a.487.487 0 0 0-.022-.269.61.61 0 0 0-.161-.23Zm-5.453.907 2.731-2.265 1.605 1.478-4.336.787Zm-1.062-.15L7.328 7.414l7.614 1.406-2.91 2.452Zm.423 1.008 4.814-.777-5.504 6.636.69-5.859ZM6.689 7.802 11.641 12l-.717 6.142-4.235-10.34Z" fill="#fff"/>
</svg>
