<?xml version="1.0" encoding="UTF-8" standalone="no"?>
<svg
   width="24.202385"
   height="24.202385"
   viewBox="0 0 24.202385 24.202385"
   fill="none"
   version="1.1"
   id="svg45"
   xmlns="http://www.w3.org/2000/svg"
   xmlns:svg="http://www.w3.org/2000/svg">
  <circle
     cx="12.101192"
     cy="12.101192"
     r="12.101192"
     fill="url(#paint0_radial_21805_64)"
     id="circle4"
     style="fill:url(#paint0_radial_21805_64);stroke-width:0.0699808" />
  <circle
     cx="12.096123"
     cy="12.100368"
     r="11.535316"
     stroke="url(#paint1_linear_21805_64)"
     stroke-width="1.06732"
     style="mix-blend-mode:soft-light;stroke:url(#paint1_linear_21805_64)"
     id="circle6" />
  <g
     id="g257">
    <path
       d="m 216.952,195.869 h 64.538 v -69.214 h -25.778 c -4.896,0.003 -9.666,1.562 -13.618,4.452 -3.953,2.896 -6.882,6.974 -8.362,11.645 z"
       fill="#261939"
       id="path12"
       transform="matrix(0.06670744,0,0,0.06670744,0.02714666,-0.00621314)" />
    <path
       d="m 13.50932,16.553707 c -0.08865,0.31312 -0.274367,0.59009 -0.530324,0.79115 -0.256557,0.20045 -0.569948,0.31446 -0.895347,0.32566 H 9.9155235 L 5.5011923,8.4407469 h 4.4086611 l 2.2050146,4.6170901 c 0,0 1.609117,2.73714 1.394452,3.49587 z"
       fill="#261939"
       id="path8"
       style="stroke-width:0.0667074" />
    <path
       d="m 13.50932,16.553707 c 0.214598,-0.75873 -1.393851,-3.49401 -1.393851,-3.49401 h 2.384057 z"
       fill="#432b64"
       id="path10"
       style="stroke-width:0.0667074" />
  </g>
  <defs
     id="defs43">
    <radialGradient
       id="paint0_radial_21805_64"
       cx="0"
       cy="0"
       r="1"
       gradientUnits="userSpaceOnUse"
       gradientTransform="matrix(28.65674,42.162838,-172.72266,117.39409,-11.876067,-17.429463)">
      <stop
         offset="0.422396"
         stop-color="#EDE4FB"
         id="stop33" />
      <stop
         offset="1"
         stop-color="#A29DFB"
         id="stop35" />
    </radialGradient>
    <linearGradient
       id="paint1_linear_21805_64"
       x1="300.793"
       y1="324.5"
       x2="11.293"
       y2="56"
       gradientUnits="userSpaceOnUse"
       gradientTransform="matrix(0.06670744,0,0,0.06670744,0.02714666,-0.00621314)">
      <stop
         id="stop38" />
      <stop
         offset="1"
         stop-opacity="0"
         id="stop40" />
    </linearGradient>
  </defs>
</svg>
