<svg width="24" height="24" fill="none" xmlns="http://www.w3.org/2000/svg">
    <g clip-path="url(#a)">
        <rect width="24" height="24" rx="12" fill="#282138"/>
        <path d="m19.574 5.037-.659.659a9.329 9.329 0 0 1 0 12.59l.66.66a10.271 10.271 0 0 0 0-13.925v.016ZM5.716 5.094a9.329 9.329 0 0 1 12.59 0l.66-.66a10.271 10.271 0 0 0-13.924 0l.674.66ZM5.099 18.293a9.33 9.33 0 0 1 0-12.584l-.66-.66a10.271 10.271 0 0 0 0 13.925l.66-.68ZM18.298 18.902a9.329 9.329 0 0 1-12.59 0l-.66.659a10.271 10.271 0 0 0 13.925 0l-.675-.66Z" fill="#5A5564"/>
        <path d="M16.165 9.801c-.132-1.375-1.318-1.836-2.818-1.977V5.931h-1.16v1.858h-.927V5.931h-1.151v1.906H7.756v1.241s.857-.015.844 0a.6.6 0 0 1 .659.51v5.22a.406.406 0 0 1-.14.283.401.401 0 0 1-.3.1c.016.014-.843 0-.843 0l-.22 1.387h2.331v1.937h1.16v-1.909h.927v1.9h1.162v-1.915c1.96-.119 3.325-.602 3.497-2.436.138-1.476-.556-2.135-1.665-2.401.674-.332 1.091-.947.997-1.953Zm-1.625 4.125c0 1.441-2.47 1.277-3.256 1.277v-2.557c.787.002 3.256-.224 3.256 1.28ZM14 10.324c0 1.318-2.06 1.158-2.715 1.158V9.158c.655 0 2.715-.207 2.715 1.166Z" fill="#F09242"/>
        <path d="M12.003 24a12 12 0 1 1 .004-24 12 12 0 0 1-.004 24Zm0-23.064a11.058 11.058 0 1 0 .017 22.115A11.058 11.058 0 0 0 12.003.936Z" fill="#282138"/>
    </g>
    <defs>
        <clipPath id="a">
            <rect width="24" height="24" rx="12" fill="#fff"/>
        </clipPath>
    </defs>
</svg>
