<svg width="1440" height="1910" viewBox="0 0 1440 1910" fill="none" xmlns="http://www.w3.org/2000/svg">
<mask id="mask0_5830_236937" style="mask-type:alpha" maskUnits="userSpaceOnUse" x="-363" y="-352" width="2516" height="2262">
<g clip-path="url(#clip0_5830_236937)">
<path d="M-361.555 148.413L1461.99 -351.209L2151.94 1409.16L328.401 1908.78C153.644 1462.9 -21.111 1017.03 -195.865 571.156C-251.152 430.267 -306.382 289.353 -361.555 148.413Z" stroke="#3DB7A2" stroke-width="1.76601" stroke-miterlimit="10"/>
<path d="M314.878 1874.27L2138.42 1374.65" stroke="#3DB7A2" stroke-width="1.76601" stroke-miterlimit="10"/>
<path d="M301.351 1839.76L2124.89 1340.14" stroke="#3DB7A2" stroke-width="1.76601" stroke-miterlimit="10"/>
<path d="M287.821 1805.24L2111.36 1305.62" stroke="#3DB7A2" stroke-width="1.76601" stroke-miterlimit="10"/>
<path d="M274.295 1770.73L2097.83 1271.11" stroke="#3DB7A2" stroke-width="1.76601" stroke-miterlimit="10"/>
<path d="M260.764 1736.21L2084.3 1236.59" stroke="#3DB7A2" stroke-width="1.76601" stroke-miterlimit="10"/>
<path d="M247.234 1701.69L2070.77 1202.07" stroke="#3DB7A2" stroke-width="1.76601" stroke-miterlimit="10"/>
<path d="M233.708 1667.18L2057.25 1167.55" stroke="#3DB7A2" stroke-width="1.76601" stroke-miterlimit="10"/>
<path d="M220.178 1632.66L2043.72 1133.03" stroke="#3DB7A2" stroke-width="1.76601" stroke-miterlimit="10"/>
<path d="M206.651 1598.14L2030.19 1098.52" stroke="#3DB7A2" stroke-width="1.76601" stroke-miterlimit="10"/>
<path d="M193.121 1563.62L2016.66 1064" stroke="#3DB7A2" stroke-width="1.76601" stroke-miterlimit="10"/>
<path d="M179.595 1529.11L2003.13 1029.49" stroke="#3DB7A2" stroke-width="1.76601" stroke-miterlimit="10"/>
<path d="M166.065 1494.59L1989.6 994.968" stroke="#3DB7A2" stroke-width="1.76601" stroke-miterlimit="10"/>
<path d="M152.535 1460.07L1976.07 960.447" stroke="#3DB7A2" stroke-width="1.76601" stroke-miterlimit="10"/>
<path d="M139.008 1425.56L1962.55 925.935" stroke="#3DB7A2" stroke-width="1.76601" stroke-miterlimit="10"/>
<path d="M125.478 1391.04L1949.02 891.414" stroke="#3DB7A2" stroke-width="1.76601" stroke-miterlimit="10"/>
<path d="M111.951 1356.52L1935.49 856.902" stroke="#3DB7A2" stroke-width="1.76601" stroke-miterlimit="10"/>
<path d="M98.4214 1322L1921.96 822.382" stroke="#3DB7A2" stroke-width="1.76601" stroke-miterlimit="10"/>
<path d="M84.8948 1287.49L1908.43 787.869" stroke="#3DB7A2" stroke-width="1.76601" stroke-miterlimit="10"/>
<path d="M71.3647 1252.97L1894.9 753.349" stroke="#3DB7A2" stroke-width="1.76601" stroke-miterlimit="10"/>
<path d="M57.8348 1218.45C519.619 1091.93 980.269 962.101 1443.43 839.132C1513.84 820.433 1582.25 796.935 1652.49 777.854C1728.41 757.248 1806.04 740.93 1881.37 718.848" stroke="#3DB7A2" stroke-width="1.76601" stroke-miterlimit="10"/>
<path d="M44.3082 1183.94C506.047 1057.43 970.216 936.015 1429.92 804.41C1501.77 783.845 1568.15 751.643 1640.4 731.857C1714.83 711.465 1793.71 705.448 1867.84 684.328" stroke="#3DB7A2" stroke-width="1.76601" stroke-miterlimit="10"/>
<path d="M30.7781 1149.42L1081.35 861.578C1192.73 831.061 1307.2 804.902 1416.46 769.353C1490.07 745.392 1553.78 702.39 1628.85 681.462C1701.57 661.188 1781.1 668.647 1854.32 649.804" stroke="#3DB7A2" stroke-width="1.76601" stroke-miterlimit="10"/>
<path d="M17.2515 1114.91L1229.09 782.882C1286.73 767.089 1347.44 754.675 1403.03 734.25C1478.35 706.496 1539.23 652.223 1617.44 630.073C1688.75 609.883 1768.21 631.651 1840.85 615.306" stroke="#3DB7A2" stroke-width="1.76601" stroke-miterlimit="10"/>
<path d="M3.72164 1080.39L1215.56 748.361C1272.94 732.638 1334.98 721.138 1389.54 699.241C1466.48 668.413 1524.65 604.08 1605.68 580.916C1676.36 560.722 1754.76 595.49 1827.23 580.762" stroke="#3DB7A2" stroke-width="1.76601" stroke-miterlimit="10"/>
<path d="M-9.80508 1045.87L1202.03 713.849C1259.27 698.166 1321.82 686.984 1376.01 664.729C1454.57 632.481 1510.04 561.288 1593.3 537.442C1664.48 517.045 1740.94 561.205 1813.74 546.248" stroke="#3DB7A2" stroke-width="1.76601" stroke-miterlimit="10"/>
<path d="M-23.3318 1011.36C220.463 946.515 463.025 878.107 706.148 811.495L1188.47 679.345C1245.72 663.662 1308.26 652.48 1362.45 630.225C1441.02 597.977 1496.49 526.793 1579.75 502.938C1650.93 482.549 1727.39 526.7 1800.19 511.744" stroke="#3DB7A2" stroke-width="1.76601" stroke-miterlimit="10"/>
<path d="M-36.8617 976.841C28.5654 959.529 91.4232 936.254 156.518 918.146C220.896 900.244 286.277 885.518 351.383 869.629C466.143 841.754 579.049 808.042 692.592 776.933L1174.92 644.782C1232.31 629.059 1294.35 617.559 1348.9 595.671C1425.83 564.799 1484.01 500.502 1565.04 477.346C1635.72 457.144 1714.13 491.911 1786.59 477.183" stroke="#3DB7A2" stroke-width="1.76601" stroke-miterlimit="10"/>
<path d="M-50.3846 942.338C10.1621 925.583 65.7356 898.768 125.643 880.717C193.297 860.329 264.252 849.134 333.907 834.494C450.808 809.892 564.65 773.828 679.104 742.469L1161.43 610.319C1219.07 594.526 1279.79 582.112 1335.35 561.643C1410.69 533.898 1471.56 479.625 1549.77 457.475C1621.08 437.276 1700.54 459.053 1773.18 442.699" stroke="#3DB7A2" stroke-width="1.76601" stroke-miterlimit="10"/>
<path d="M-63.9217 907.799C-8.72802 891.478 38.0116 860.904 92.1582 842.813C162.923 819.155 241.294 812.43 315.579 799.143C434.735 777.823 549.991 739.597 665.531 707.941L986.611 619.97C1097.99 589.453 1212.47 563.294 1321.72 527.744C1395.34 503.783 1459.05 460.782 1534.11 439.854C1606.83 419.58 1686.37 427.038 1759.59 408.196" stroke="#3DB7A2" stroke-width="1.76601" stroke-miterlimit="10"/>
<path d="M-77.4517 873.278C-26.7625 857.392 10.788 823.311 59.8389 805.125C132.818 778.073 219.606 775.875 297.626 763.875C418.739 745.254 535.407 705.374 652.05 673.416C870.692 613.511 1090.5 556.074 1308.17 493.756C1380.03 473.191 1446.4 440.98 1518.65 421.203C1593.08 400.811 1671.96 394.794 1746.1 373.674" stroke="#3DB7A2" stroke-width="1.76601" stroke-miterlimit="10"/>
<path d="M-90.9819 838.758C-42.7618 823.373 -13.388 786.308 32.4899 768.27C65.8378 755.127 104.209 751.066 140.402 746.238C187.247 739.992 234.443 735.287 281.253 728.876C403.583 712.124 521.23 671.031 638.529 638.893C857.18 578.985 1075.34 517.663 1294.63 459.434C1365.05 440.744 1433.45 417.237 1503.7 398.165C1579.61 377.55 1657.25 361.241 1732.57 339.15" stroke="#3DB7A2" stroke-width="1.76601" stroke-miterlimit="10"/>
<path d="M-104.508 804.246C-80.3696 796.794 -60.1539 786.752 -41.783 770.792C-24.4587 755.743 -8.44959 741.795 13.894 732.983C47.4686 719.749 86.1677 715.725 122.63 711.095C170.775 704.971 219.309 700.563 267.418 694.273C389.869 678.268 507.749 636.506 624.957 604.393C843.608 544.486 1062.12 484.255 1280.93 424.764C1427.08 385.034 1572.97 344.652 1719.01 304.64" stroke="#3DB7A2" stroke-width="1.76601" stroke-miterlimit="10"/>
<path d="M-118.039 769.725C-94.2949 762.167 -73.7396 752.373 -54.8786 737.38C-37.127 723.267 -20.4174 710.102 1.55388 701.499C35.147 688.338 73.7054 684.187 110.076 679.066C157.924 672.34 206.178 666.985 254.023 660.095C376.363 642.493 493.932 602.054 611.423 569.863L932.503 481.892C1041.54 452.018 1151.72 425.523 1260.89 396.061C1333.27 376.522 1403.67 352.186 1476.17 332.906C1552.81 312.522 1629.04 291.023 1705.46 270.084" stroke="#3DB7A2" stroke-width="1.76601" stroke-miterlimit="10"/>
<path d="M-131.565 735.213C-85.6443 720.994 -53.7586 689.411 -9.56453 673.131C24.398 660.628 62.1888 655.421 98.4439 649.386C145.857 641.552 193.607 634.834 241.01 626.895C362.811 606.448 480.158 567.581 597.886 535.325L918.966 447.354C970.937 433.115 1022.52 417.091 1075.97 406.988C1129.28 396.914 1182.27 388.333 1234.02 373.432C1311.45 351.156 1384.7 319.535 1462.61 298.364C1539.11 277.581 1615.49 256.478 1691.92 235.537" stroke="#3DB7A2" stroke-width="1.76601" stroke-miterlimit="10"/>
<path d="M-145.092 700.701C-99.9831 687.553 -64.0352 661.104 -20.0484 646.382C58.6702 620.038 145.921 610.568 228.218 594.258C349.147 570.297 466.451 533.148 584.37 500.84L905.45 412.869C955.451 399.169 1005.27 382.167 1057.9 376.568C1107.91 371.25 1156.15 368.929 1203.67 354.028C1287.29 327.803 1364.42 287.869 1449.05 263.931C1525.25 242.38 1601.97 222.033 1678.41 201.089" stroke="#3DB7A2" stroke-width="1.76601" stroke-miterlimit="10"/>
<path d="M-158.618 666.189C-114.042 653.976 -74.4675 632.967 -30.4943 619.73C49.5956 595.623 133.408 580.447 215.43 561.63C335.327 534.111 452.766 498.67 570.84 466.319L891.92 378.348C939.578 365.291 988.397 346.281 1039.74 346.19C1087.09 346.114 1128.29 349.914 1173.06 334.781C1262.87 304.433 1344.02 256.291 1435.48 229.45C1511.39 207.181 1588.47 187.534 1664.9 166.592" stroke="#3DB7A2" stroke-width="1.76601" stroke-miterlimit="10"/>
<path d="M-172.145 631.677C-127.799 620.034 -85.5679 603.872 -41.4922 591.67C39.332 569.281 121.06 549.404 202.462 528.543C321.395 498.073 439.139 464.185 557.313 431.807L878.393 343.836C923.407 331.503 973.38 309.331 1022.64 314.87C1038.23 316.622 1053.47 321.404 1069.04 323.366C1096.06 326.774 1121.28 321.356 1145.55 312.785C1240.53 279.217 1324.8 223.993 1421.94 194.951C1497.66 172.315 1574.96 153.026 1651.38 132.089" stroke="#3DB7A2" stroke-width="1.76601" stroke-miterlimit="10"/>
<path d="M-185.678 597.148C57.9315 531.699 300.66 463.899 543.811 397.279L864.89 309.308C890.73 302.228 916.564 295.15 942.391 288.074C963.508 282.288 984.82 277.053 1007.72 281.597C1022.02 284.435 1035.39 291.026 1049.62 294.126C1075.77 299.817 1101.01 293.359 1124.4 285.079C1222.54 250.335 1307.86 190.115 1408.44 160.403C1484.26 138.01 1561.43 118.487 1637.84 97.5507" stroke="#3DB7A2" stroke-width="1.76601" stroke-miterlimit="10"/>
<path d="M-199.205 562.636C44.0098 495.998 288.629 432.378 530.723 362.958C637.139 332.447 742.179 300.51 850.371 274.298C894.913 263.517 946.312 238.878 994.604 246.759C1009.4 249.176 1023.56 255.016 1038.26 257.683C1064.79 262.453 1089.86 256.587 1113.61 248.132C1210.53 213.634 1295.64 155.537 1394.92 125.899C1470.65 103.298 1547.94 83.9736 1624.35 63.0395" stroke="#3DB7A2" stroke-width="1.76601" stroke-miterlimit="10"/>
<path d="M-212.735 528.115L353.884 372.87C407.679 358.131 463.219 345.838 515.518 327.669C563.767 310.94 608.613 287.59 658.062 273.331C714.542 257.047 772.548 247.334 831.017 237.104C880.601 228.392 931.77 206.955 983.616 209.915C1000.14 210.864 1016.63 214.437 1033.17 215.578C1060.68 217.467 1086.39 212.254 1111.2 203.634C1203.85 171.427 1286.77 119.466 1381.37 91.3641C1457.16 68.8456 1534.39 49.4383 1610.81 28.5017" stroke="#3DB7A2" stroke-width="1.76601" stroke-miterlimit="10"/>
<path d="M-226.265 493.594L340.355 338.349C392.699 324.007 450.032 313.787 498.735 291.622C540.883 272.442 575.813 242.881 620.376 227.542C679.419 207.233 745.596 204.999 808.638 198.448C839.938 195.203 871.37 191.65 901.596 184.402C925.683 178.621 949.018 173.008 974.338 171.636C1022.79 169.016 1067.78 169.887 1113.61 154.922C1200.43 126.554 1279.7 82.3169 1367.91 56.8546C1443.95 34.9095 1520.86 14.9488 1597.3 -5.99539" stroke="#3DB7A2" stroke-width="1.76601" stroke-miterlimit="10"/>
<path d="M-239.778 459.118L326.842 303.872C376.989 290.133 438.056 282.047 481.503 255.386C517.472 233.318 540.207 197.682 580.48 180.751C640.352 155.575 719.452 162.227 785.312 159.388C819.547 157.913 854.338 156.413 887.499 149.618C913.666 144.251 938.926 136.902 965.592 132.91C1017.19 125.175 1068 119.755 1117.5 104.866C1198.03 80.659 1273.21 44.8259 1354.48 22.3064C1430.83 1.14214 1507.37 -19.5845 1583.81 -40.5287" stroke="#3DB7A2" stroke-width="1.76601" stroke-miterlimit="10"/>
<path d="M-253.321 424.561L393.069 247.46C418.215 240.57 444.83 235.52 464.777 219.382C495.657 194.43 505.556 153.918 543.3 135.195C569.595 122.142 603.549 121.777 633.568 120.775C676.595 119.318 719.928 120.731 763.098 120.823C799.891 120.899 837.705 121.29 873.411 114.86C901.395 109.824 928.371 100.776 956.089 94.7023C1010.94 82.6568 1065.59 71.3585 1119.43 56.4313C1194.19 35.7042 1265.87 7.82967 1340.89 -12.2573C1417.48 -32.7652 1493.76 -54.1407 1570.18 -75.0798" stroke="#3DB7A2" stroke-width="1.76601" stroke-miterlimit="10"/>
<path d="M-266.848 390.05L379.542 212.949C404.114 206.216 431.726 201.829 449.816 184.201C477.564 157.104 476.607 113.213 513.922 93.2908C540.109 79.2929 576.038 80.1024 606.341 79.8509C652.196 79.4806 698.31 82.4219 744.276 83.8248C782.68 84.9991 822.549 86.7952 859.865 80.3239C888.791 75.3227 916.769 65.4545 944.926 58.0809C1002.14 43.1006 1059.27 27.9371 1116.33 12.5904C1263.6 -26.784 1409.75 -69.3131 1556.69 -109.573" stroke="#3DB7A2" stroke-width="1.76601" stroke-miterlimit="10"/>
<path d="M-280.378 355.529L366.012 178.428C390.466 171.728 418.56 167.491 436.337 149.706C463.736 122.286 460.517 77.6977 498.106 57.7298C524.393 43.7535 560.392 44.563 590.748 44.3946C637.108 44.1784 683.702 47.417 730.183 49.0783C768.791 50.4402 808.95 52.4592 846.453 45.8977C875.376 40.8387 903.455 31.2546 931.483 23.5754L1543.19 -144.023" stroke="#3DB7A2" stroke-width="1.76601" stroke-miterlimit="10"/>
<path d="M-293.905 321.017L352.485 143.916C377.468 137.071 404.244 132.201 423.597 115.553C453.399 89.911 460.059 48.3477 497.478 29.2064C523.708 15.7816 558.389 15.8805 588.513 15.1223C632.425 14.0174 676.658 15.8949 720.688 16.405C758.052 16.8311 796.482 17.6084 832.774 11.2811C861.764 6.26244 889.846 -3.3128 917.938 -11.0095L1529.64 -178.605" stroke="#3DB7A2" stroke-width="1.76601" stroke-miterlimit="10"/>
<path d="M-307.435 286.496L338.955 109.395C364.604 102.368 391.091 96.7871 412.856 82.3246C447.308 59.4538 466.556 22.366 505.96 4.94189C532.469 -6.76592 564.124 -8.77176 593.746 -10.6592C634.017 -13.2227 674.655 -13.2259 715.101 -14.4144C750.097 -15.4448 785.737 -16.4276 819.633 -23.073C848.399 -28.7128 876.349 -37.8522 904.395 -45.5364L1516.1 -213.135" stroke="#3DB7A2" stroke-width="1.76601" stroke-miterlimit="10"/>
<path d="M-320.962 251.984L245.658 96.7389C297.483 82.5396 355.594 72.9147 403.015 49.5414C443.457 29.6108 475.285 -1.65447 518.578 -17.3757C578.045 -38.9712 647.273 -38.8833 711.287 -44.3945C833.492 -54.9225 949.016 -95.9704 1064.66 -127.656L1502.58 -247.638" stroke="#3DB7A2" stroke-width="1.76601" stroke-miterlimit="10"/>
<path d="M-334.491 217.464L232.128 62.2185C285.585 47.572 341.475 35.7582 392.984 16.6552C439.707 -0.668866 482.132 -25.6362 530.264 -40.1105C587.523 -57.3191 647.274 -65.2589 707.05 -74.5506C824.673 -92.8294 937.793 -131.123 1051.09 -162.164L1489.05 -282.159" stroke="#3DB7A2" stroke-width="1.76601" stroke-miterlimit="10"/>
<path d="M-348.021 182.942L42.0611 76.0657C155.121 45.0891 269.592 16.5815 381.665 -16.8345C433.523 -32.2903 483.684 -51.609 536.155 -65.6049C590.591 -80.1492 645.179 -93.429 700.386 -105.904C814.239 -131.61 925.584 -166.006 1037.6 -196.698L1475.52 -316.68" stroke="#3DB7A2" stroke-width="1.76601" stroke-miterlimit="10"/>
<path d="M1426.23 -341.411L1591.92 81.3314C1674.71 292.575 1759.32 503.126 1840.15 714.849C1929.98 950.104 2024.2 1184.28 2116.19 1418.98" stroke="#3DB7A2" stroke-width="1.76601" stroke-miterlimit="10"/>
<path d="M1390.48 -331.617L1556.16 91.126C1597.69 197.074 1635.41 305.087 1683.64 409.042C1705.26 455.664 1726.64 502.061 1744.84 549.755C1766.72 607.116 1784.03 665.603 1804.6 723.293C1843.93 833.662 1889.97 942.75 1932.86 1052.19L2080.45 1428.74" stroke="#3DB7A2" stroke-width="1.76601" stroke-miterlimit="10"/>
<path d="M1354.72 -321.819L1520.41 100.924C1561.04 204.592 1595.25 313.527 1648.6 413.049C1671.68 456.131 1694.64 498.487 1711 543.93C1733.24 605.638 1748.83 668.777 1769.08 730.92C1805.46 842.39 1854.03 952.159 1897.07 1061.98L2044.66 1438.55" stroke="#3DB7A2" stroke-width="1.76601" stroke-miterlimit="10"/>
<path d="M1318.96 -312.024L1550.41 278.491C1568.94 325.756 1585.82 372.849 1613.58 416.843C1638.47 456.274 1662.53 494.078 1677.27 537.556C1699.73 603.815 1713.69 671.688 1733.62 738.434C1767.23 850.868 1818.15 961.6 1861.33 1071.77L2008.92 1448.34" stroke="#3DB7A2" stroke-width="1.76601" stroke-miterlimit="10"/>
<path d="M1283.21 -302.226L1514.65 288.288C1532.68 334.277 1548.08 380.499 1578.44 421.724C1605.25 458.112 1629.48 491.446 1643.21 533.73C1665.98 603.879 1678.39 675.833 1698.07 746.506C1713.63 802.353 1737.41 856.648 1758.78 911.167L1973.16 1458.14" stroke="#3DB7A2" stroke-width="1.76601" stroke-miterlimit="10"/>
<path d="M1247.45 -292.431L1478.9 298.084C1496.57 343.175 1510.64 389.937 1543 429.017C1571.53 463.473 1594.95 493.607 1608.44 535.556C1631.83 608.099 1642.76 682.691 1662.38 755.808C1677.41 811.867 1701.66 866.328 1723.06 920.935L1937.45 1467.92" stroke="#3DB7A2" stroke-width="1.76601" stroke-miterlimit="10"/>
<path d="M1211.69 -282.633C1240.61 -208.856 1268.58 -134.753 1298.52 -61.2647C1325.93 6.10106 1347.59 74.9276 1374.94 142.291C1397.4 197.612 1419.95 252.769 1443.07 307.939C1462 353.078 1475.1 399.432 1507.2 439.176C1535.33 474.005 1559.04 504.8 1572.51 546.765C1595.66 618.837 1607.02 692.922 1626.63 765.574C1641.76 821.645 1665.85 876.118 1687.26 930.742L1901.65 1477.73" stroke="#3DB7A2" stroke-width="1.76601" stroke-miterlimit="10"/>
<path d="M1175.94 -272.836C1204.85 -199.059 1232.93 -124.994 1262.77 -51.4697C1291.11 18.255 1301.87 91.4112 1328.76 161.404C1349.86 216.28 1377.89 267.102 1405.01 319.86C1427.82 364.293 1441.58 410.603 1471.04 452.289C1497.32 489.419 1521.63 523.873 1535.56 566.393C1558.22 635.606 1571.04 706.582 1590.78 776.293C1606.54 831.985 1630.2 886.188 1651.52 940.575L1865.89 1487.53" stroke="#3DB7A2" stroke-width="1.76601" stroke-miterlimit="10"/>
<path d="M1140.19 -263.041C1169.11 -189.246 1198.55 -115.574 1226.96 -41.6396C1255.37 32.2947 1252.74 110.534 1277.46 185.109C1295.77 240.331 1332.54 284.41 1365.11 333.305C1393.57 375.969 1408.25 423.712 1434.61 467.389C1458.98 507.771 1482.85 546.837 1497.97 590.767C1520.35 655.836 1534.73 722.475 1554.77 788.002C1589.07 900.198 1639.4 1010.67 1682.55 1120.76L1830.14 1497.32" stroke="#3DB7A2" stroke-width="1.76601" stroke-miterlimit="10"/>
<path d="M1104.43 -253.243C1133.31 -179.545 1164.58 -106.093 1191.21 -31.8155C1219.55 47.3348 1202.65 130.505 1224.37 210.437C1239.65 266.682 1286.4 303.495 1324.66 347.323C1360.03 387.857 1374.43 437.17 1398.12 483.253C1420.79 527.327 1443.35 570.838 1460.2 616.875C1482.35 677.37 1498.38 739.218 1518.75 800.102C1555.93 911.284 1603.81 1020.82 1646.81 1130.53L1794.41 1507.11" stroke="#3DB7A2" stroke-width="1.76601" stroke-miterlimit="10"/>
<path d="M1068.67 -243.448C1097.49 -169.917 1130.23 -96.417 1155.39 -21.9803C1183.81 62.0985 1153.62 149.564 1172.69 234.498C1185.7 292.456 1241.67 322.231 1284.65 360.936C1326.89 398.975 1339.94 450.137 1361.67 498.563C1408.06 601.95 1444.28 706.417 1482.72 811.951C1568.81 1048.24 1666.64 1282.2 1758.64 1516.94" stroke="#3DB7A2" stroke-width="1.76601" stroke-miterlimit="10"/>
<path d="M1032.92 -233.651C1061.72 -160.155 1094.73 -86.6431 1119.64 -12.1855C1148.95 75.4887 1107.71 165.768 1125.79 254.229C1138.1 314.447 1199.75 337.936 1246.29 373.024C1293.27 408.448 1305.21 462.206 1325.46 511.904C1367.5 615.139 1406.73 719.004 1446.82 822.724C1537.62 1057.69 1630.89 1292.02 1722.86 1526.68" stroke="#3DB7A2" stroke-width="1.76601" stroke-miterlimit="10"/>
<path d="M997.165 -223.856C1026 -150.29 1058.47 -76.8238 1083.95 -2.4281C1114.25 86.1763 1068.73 177.053 1087.35 266.437C1100.18 327.858 1162.25 348.747 1210.23 383.109C1258.21 417.47 1270.18 472.651 1289.65 522.329L1687.15 1536.5" stroke="#3DB7A2" stroke-width="1.76601" stroke-miterlimit="10"/>
<path d="M961.423 -214.062C990.226 -140.576 1023.29 -67.0498 1048.13 7.40516C1076.82 93.4862 1040.92 182.547 1059.2 269.423C1071.61 328.403 1131.01 355.015 1175.85 391.67C1221.27 428.79 1234.21 481.924 1253.87 532.094L1651.38 1546.3" stroke="#3DB7A2" stroke-width="1.76601" stroke-miterlimit="10"/>
<path d="M925.646 -204.261C954.5 -130.642 986.583 -57.2067 1012.38 17.1908C1040.7 98.8417 1017.13 184.231 1037.41 266.68C1051.44 323.677 1102.93 356.996 1143.64 398.244C1184.06 439.198 1198.4 491.607 1218.12 541.9L1615.62 1556.1" stroke="#3DB7A2" stroke-width="1.76601" stroke-miterlimit="10"/>
<path d="M889.895 -194.465C918.804 -120.706 949.127 -47.1781 976.674 26.9445C1005.09 103.403 995.465 184.064 1018.75 261.237C1035.5 316.864 1077.12 357.412 1112.54 403.93C1146.71 448.819 1162.57 501.228 1182.37 551.724L1579.86 1565.9" stroke="#3DB7A2" stroke-width="1.76601" stroke-miterlimit="10"/>
<path d="M854.135 -184.667C883.058 -110.873 911.693 -36.9894 940.959 36.7013C969.399 108.337 973.837 183.909 999.827 255.963C1019.67 310.956 1051.65 358.62 1081.32 409.656C1109.4 457.951 1126.6 510.51 1146.6 561.525L1544.09 1575.7" stroke="#3DB7A2" stroke-width="1.76601" stroke-miterlimit="10"/>
<path d="M818.385 -174.872C847.294 -101.113 875.114 -26.9383 905.218 46.4937C933.19 114.72 949.996 185.499 977.392 253.824C999.441 308.819 1024.13 362.321 1048.9 416.453C1072.13 467.225 1090.59 519.656 1110.83 571.313L1508.33 1585.49" stroke="#3DB7A2" stroke-width="1.76601" stroke-miterlimit="10"/>
<path d="M782.625 -165.075C837.863 -24.14 892.309 117.041 948.149 257.811C1124.77 703.124 1297.84 1149.46 1472.58 1595.29" stroke="#3DB7A2" stroke-width="1.76601" stroke-miterlimit="10"/>
<path d="M746.884 -155.282C777.013 -83.3582 799.357 -9.24276 827.483 63.2398C854.145 131.961 886.937 198.857 913.075 267.684C1082.85 714.679 1262.16 1159.41 1436.84 1605.07" stroke="#3DB7A2" stroke-width="1.76601" stroke-miterlimit="10"/>
<path d="M711.133 -145.487C739.067 -76.7921 746.159 -4.59939 773.192 64.3717C801.87 137.541 847.326 204.574 877.032 277.325C962.965 487.407 1042.4 699.63 1125.1 910.636L1401.12 1614.87" stroke="#3DB7A2" stroke-width="1.76601" stroke-miterlimit="10"/>
<path d="M675.365 -135.687C699.448 -70.2743 685.807 -2.83053 711.729 62.2244C743.326 141.554 804.448 209.011 840.352 286.732C865.657 341.507 884.916 398.991 906.801 454.83L1365.31 1624.68" stroke="#3DB7A2" stroke-width="1.76601" stroke-miterlimit="10"/>
<path d="M639.569 -125.879C659.829 -62.7234 623.536 -3.02131 648.59 59.279C683.098 145.082 760.858 213.488 803.564 296.07C831.316 349.746 849.214 408.987 871.027 464.641L1329.53 1634.48" stroke="#3DB7A2" stroke-width="1.76601" stroke-miterlimit="10"/>
<path d="M603.827 -116.087C613.877 -81.0418 605.307 -54.8624 593.419 -23.3681C583.618 2.63216 577.893 29.7576 589.239 58.0634C607.357 103.053 645.641 144.418 676.482 182.763C708.264 222.274 742.712 261.736 767.116 305.53C796.498 358.262 813.614 419.013 835.334 474.43L1293.84 1644.26" stroke="#3DB7A2" stroke-width="1.76601" stroke-miterlimit="10"/>
<path d="M568.086 -106.294C578.51 -70.3473 566.169 -46.9362 549.399 -17.4378C535.535 6.95603 527.338 32.2051 539.017 61.102C557.877 107.779 599.78 150.082 632.916 188.9C667.367 229.269 705.454 269.693 731.362 315.316C761.107 367.686 777.93 428.976 799.58 484.216L1258.09 1654.06" stroke="#3DB7A2" stroke-width="1.76601" stroke-miterlimit="10"/>
<path d="M532.326 -96.4968C542.759 -60.5525 530.41 -37.1388 513.64 -7.64048C499.767 16.7559 491.578 42.0025 503.249 70.9019C522.109 117.579 564.012 159.882 597.148 198.7C631.598 239.068 669.685 279.493 695.594 325.116C725.338 377.486 742.161 438.776 763.812 494.016L1222.32 1663.86" stroke="#3DB7A2" stroke-width="1.76601" stroke-miterlimit="10"/>
<path d="M496.567 -86.6993C506.608 -51.6515 498.038 -25.4721 486.159 6.01975C476.348 32.0225 470.577 59.1604 481.969 87.4537C500.087 132.443 538.371 173.808 569.212 212.153C600.994 251.664 635.434 291.129 659.838 334.922C689.219 387.655 706.336 448.406 728.056 503.823L1186.56 1673.66" stroke="#3DB7A2" stroke-width="1.76601" stroke-miterlimit="10"/>
<path d="M460.862 -76.9167C481.122 -13.761 444.829 45.9411 469.883 108.241C504.391 194.044 582.151 262.451 624.857 345.033C652.609 398.709 670.507 457.95 692.32 513.604L1150.83 1683.45" stroke="#3DB7A2" stroke-width="1.76601" stroke-miterlimit="10"/>
<path d="M425.074 -67.1116C449.157 -1.69907 435.517 65.7447 461.439 130.8C493.036 210.129 554.157 277.587 590.061 355.307C615.367 410.082 634.635 467.564 656.52 523.403L1115.03 1693.25" stroke="#3DB7A2" stroke-width="1.76601" stroke-miterlimit="10"/>
<path d="M389.333 -57.319C417.267 11.3759 424.359 83.5686 451.392 152.54C480.07 225.709 525.526 292.742 555.232 365.493C641.165 575.575 720.598 787.798 803.3 998.804L1079.32 1703.04" stroke="#3DB7A2" stroke-width="1.76601" stroke-miterlimit="10"/>
<path d="M353.574 -47.5211C383.702 24.403 406.038 98.521 434.173 171.001C460.835 239.723 493.618 306.621 519.765 375.445C689.538 822.44 868.845 1267.17 1043.52 1712.84" stroke="#3DB7A2" stroke-width="1.76601" stroke-miterlimit="10"/>
<path d="M317.805 -37.7212L1007.76 1722.64" stroke="#3DB7A2" stroke-width="1.76601" stroke-miterlimit="10"/>
<path d="M282.045 -27.9233L972.001 1732.44" stroke="#3DB7A2" stroke-width="1.76601" stroke-miterlimit="10"/>
<path d="M246.295 -18.1284L936.251 1742.24" stroke="#3DB7A2" stroke-width="1.76601" stroke-miterlimit="10"/>
<path d="M210.535 -8.33105L900.491 1752.03" stroke="#3DB7A2" stroke-width="1.76601" stroke-miterlimit="10"/>
<path d="M174.785 1.46436L864.74 1761.83" stroke="#3DB7A2" stroke-width="1.76601" stroke-miterlimit="10"/>
<path d="M139.007 11.2666L828.963 1771.63" stroke="#3DB7A2" stroke-width="1.76601" stroke-miterlimit="10"/>
<path d="M103.265 21.0596L793.221 1781.42" stroke="#3DB7A2" stroke-width="1.76601" stroke-miterlimit="10"/>
<path d="M67.5149 30.8546C96.4344 104.64 124.545 178.706 154.34 252.252C181.451 319.184 203.033 387.514 230.031 454.467C409.27 899.054 582.708 1345.33 757.471 1791.22" stroke="#3DB7A2" stroke-width="1.76601" stroke-miterlimit="10"/>
<path d="M31.7554 40.6522C60.6783 114.447 89.0099 188.432 118.589 262.047C145.635 329.377 157.532 399.688 183.331 467.262C223.75 573.093 261.353 682.611 312.889 784.938C364.353 887.11 404.378 991.392 445.689 1096.79L721.702 1801.02" stroke="#3DB7A2" stroke-width="1.76601" stroke-miterlimit="10"/>
<path d="M-3.99506 50.4472C24.9279 124.242 54.4265 197.908 82.7841 271.857C109.058 340.334 108.792 412.379 131.943 481.341C149.66 534.092 172.612 586.11 193.035 638.217C213.896 691.441 234.545 742.658 264.738 792.643C295.863 844.157 326.547 893.823 348.194 949.054L685.952 1810.81" stroke="#3DB7A2" stroke-width="1.76601" stroke-miterlimit="10"/>
<path d="M-39.7548 60.2448C-10.8629 133.96 20.1669 207.411 47.0244 281.655C72.3747 351.847 59.114 425.025 79.1608 495.803C93.5543 546.618 117.678 596.96 137.155 646.655C158.544 701.227 180.542 750.758 215.494 800.16C252.071 851.828 289.745 900.884 312.462 958.844L650.219 1820.6" stroke="#3DB7A2" stroke-width="1.76601" stroke-miterlimit="10"/>
<path d="M-75.5052 70.0401C-46.6651 143.623 -14.4398 217.059 11.201 291.47C36.0509 363.554 10.5941 437.198 28.1109 509.79C39.8894 558.622 64.8187 607.749 83.4234 655.217C93.0172 679.695 101.332 705.108 113.24 728.845C127.403 757.071 147.592 782.847 167.616 807.918C208.883 859.547 252.992 908.147 276.702 968.642L614.46 1830.4" stroke="#3DB7A2" stroke-width="1.76601" stroke-miterlimit="10"/>
<path d="M-111.265 79.8377C-82.4283 153.412 -50.1175 226.834 -24.5405 301.263C0.756855 374.9 -34.5275 448.381 -17.888 522.393C-7.20562 569.819 17.8223 618.013 35.8646 664.047C45.3067 688.137 53.3889 713.292 65.3026 736.579C80.0572 765.491 102.132 791.364 123.711 816.331C168.374 867.995 216.457 915.915 240.961 978.435L578.718 1840.19" stroke="#3DB7A2" stroke-width="1.76601" stroke-miterlimit="10"/>
<path d="M-147.024 89.6352C-118.174 163.245 -86.1049 236.694 -60.2452 311.045C-34.5729 384.97 -71.9565 458.324 -55.0789 532.583C-44.3436 579.809 -19.4384 627.793 -1.46846 673.642C7.95979 697.697 16.0395 722.794 27.8334 746.085C42.5508 775.134 64.9489 801.006 86.7678 825.916C132.07 877.64 180.541 925.288 205.21 988.23L542.968 1849.99" stroke="#3DB7A2" stroke-width="1.76601" stroke-miterlimit="10"/>
<path d="M-182.775 99.4304C-153.942 172.996 -121.547 246.453 -96.0689 320.86C-71.2176 393.411 -99.6195 467.063 -82.5508 540.11C-71.2472 588.477 -46.1989 637.367 -27.7977 684.316C-18.2557 708.661 -10.037 733.984 1.91631 757.552C16.3215 785.985 37.112 811.801 57.6446 836.83C99.9728 888.461 145.468 936.915 169.416 998.017L507.181 1859.79" stroke="#3DB7A2" stroke-width="1.76601" stroke-miterlimit="10"/>
<path d="M-218.535 109.228C-189.656 182.908 -158.236 256.349 -131.801 330.65C-106.644 401.353 -123.334 474.721 -104.068 546.005C-90.4888 596.263 -66.0917 646.248 -46.8661 695.3C-25.3119 750.294 -2.97813 799.265 33.1898 848.549C71.1322 900.223 110.668 949.159 133.664 1007.83L471.421 1869.59" stroke="#3DB7A2" stroke-width="1.76601" stroke-miterlimit="10"/>
<path d="M-254.285 119.023C-225.366 192.809 -195.51 266.406 -167.506 340.433C-141.509 409.337 -145.238 481.745 -122.924 551.171C-106.113 603.439 -82.8406 654.96 -62.6698 706.424C-41.6744 759.992 -20.6706 810.799 10.8244 860.603C43.4497 912.184 75.9794 961.665 97.9131 1017.63L435.671 1879.39" stroke="#3DB7A2" stroke-width="1.76601" stroke-miterlimit="10"/>
<path d="M-290.045 128.821C-261.118 202.624 -232.548 276.525 -203.266 350.23C-176.379 417.799 -167.587 488.61 -142.39 556.505C-122.383 610.411 -100.248 663.872 -79.2045 717.563C-58.6231 770.075 -38.7733 822.085 -12.0087 872.649C15.1379 923.879 41.1884 974.063 62.1286 1027.49L399.865 1889.2" stroke="#3DB7A2" stroke-width="1.76601" stroke-miterlimit="10"/>
<path d="M-325.795 138.616C-296.876 212.401 -268.844 286.498 -238.97 360.013C-211.765 426.978 -192.452 495.832 -165.586 562.86C-122.697 669.711 -84.5854 778.387 -37.7867 884.059C7.66784 986.688 47.3846 1090.75 88.1472 1194.75L364.161 1898.98" stroke="#3DB7A2" stroke-width="1.76601" stroke-miterlimit="10"/>
</g>
</mask>
<g mask="url(#mask0_5830_236937)">
<g filter="url(#filter0_f_5830_236937)">
<path d="M-0.00195312 323.472L1440 323.472L1440 722.248L-0.00195313 523.173L-0.00195312 323.472Z" fill="url(#paint0_angular_5830_236937)" fill-opacity="0.4"/>
</g>
</g>
<defs>
<filter id="filter0_f_5830_236937" x="-500.002" y="-176.528" width="2440" height="1398.78" filterUnits="userSpaceOnUse" color-interpolation-filters="sRGB">
<feFlood flood-opacity="0" result="BackgroundImageFix"/>
<feBlend mode="normal" in="SourceGraphic" in2="BackgroundImageFix" result="shape"/>
<feGaussianBlur stdDeviation="250" result="effect1_foregroundBlur_5830_236937"/>
</filter>
<radialGradient id="paint0_angular_5830_236937" cx="0" cy="0" r="1" gradientUnits="userSpaceOnUse" gradientTransform="translate(451.105 503.847) rotate(167.988) scale(1148.68 349.099)">
<stop offset="0.285549" stop-color="#8458B3"/>
<stop offset="0.556778" stop-color="#F19E79"/>
</radialGradient>
<clipPath id="clip0_5830_236937">
<rect width="1891.73" height="1891.69" fill="white" transform="matrix(0.964455 -0.264246 0.364912 0.931042 -362.213 148.125)"/>
</clipPath>
</defs>
</svg>
