<svg width="145" height="28" viewBox="0 0 145 28" fill="none" xmlns="http://www.w3.org/2000/svg">
<g clip-path="url(#clip0_1786_17697)">
<path d="M38.4541 6.50685L46.1196 27.2712H51.4717L59.1372 6.50685H54.516L48.8796 22.5661L43.1607 6.50685H38.4541ZM59.9872 11.3324C59.1358 12.9554 58.7269 14.8207 58.7269 16.9338C58.7269 19.0469 59.133 20.9081 60.025 22.4904C60.8769 24.072 62.1739 25.369 63.7555 26.2209C65.3771 27.1129 67.2437 27.5191 69.4339 27.5191C71.9069 27.5191 73.9752 26.8693 75.6388 25.4913C77.301 24.1526 78.3149 22.4105 78.7196 20.3002H74.3393C74.0144 21.4765 73.4067 22.3686 72.5188 23.0169C71.5848 23.6653 70.4505 23.9496 69.1118 23.9496C67.409 23.9496 66.0311 23.4231 65.0158 22.3686C63.9613 21.3141 63.3928 19.8942 63.313 18.0695V17.8258H78.966C79.047 17.2755 79.0877 16.7199 79.0878 16.1636C79.0472 14.1765 78.6019 12.4318 77.7099 10.932C76.8463 9.47279 75.5972 8.27986 74.0998 7.48435C72.5595 6.67355 70.8146 6.2674 68.8275 6.2674C66.8405 6.2674 65.097 6.71418 63.5552 7.6062C62.0275 8.47497 60.7857 9.76968 59.9816 11.3324H59.9872ZM74.6277 14.6176H63.474C63.6365 13.1585 64.205 12.0229 65.2595 11.1309C66.2951 10.2395 67.6239 9.76256 68.99 9.79205C70.5304 9.79205 71.7907 10.2374 72.8017 11.0902C73.8128 11.943 74.4191 13.1179 74.6222 14.6176H74.6277ZM92.4835 6.50685H91.5033C89.8817 6.50685 88.6242 6.78693 87.6915 7.35827C86.7339 7.898 85.9362 8.68177 85.3796 9.62972L84.8937 6.50685H80.9993V27.2768H85.3796V16.8541C85.3796 15.07 85.7857 13.5688 86.5965 12.3925C87.4073 11.2162 88.7054 10.6085 90.53 10.6085H92.4765L92.4835 6.50685ZM94.3432 0.708008V21.6334C94.3432 23.5799 94.789 24.9994 95.6805 25.8919C96.5725 26.8245 97.9925 27.2712 99.9795 27.2712H104.197V23.4189H100.872C100.061 23.4189 99.5342 23.2564 99.2094 22.9315C98.8845 22.6066 98.722 21.9988 98.722 21.188V10.3593H103.751V6.50685H98.722V0.708008H94.3432ZM105.848 11.3324C104.998 12.9554 104.588 14.8207 104.588 16.9338C104.588 19.0469 104.994 20.9081 105.886 22.4904C106.738 24.072 108.035 25.369 109.617 26.2209C111.238 27.1129 113.104 27.5191 115.294 27.5191C117.768 27.5191 119.836 26.8693 121.499 25.4913C123.162 24.1526 124.176 22.4105 124.579 20.3002H120.201C119.876 21.4765 119.268 22.3686 118.38 23.0169C117.449 23.6653 116.312 23.9496 114.974 23.9496C113.272 23.9496 111.894 23.4231 110.878 22.3686C109.823 21.3141 109.255 19.8942 109.176 18.0695V17.8258H124.83C124.91 17.2753 124.95 16.7198 124.95 16.1636C124.91 14.1765 124.463 12.4318 123.571 10.932C122.706 9.4702 121.455 8.27561 119.954 7.48011C118.414 6.66932 116.669 6.26329 114.682 6.26329C112.695 6.26329 110.951 6.70994 109.409 7.60196C107.884 8.4735 106.645 9.76952 105.843 11.3324H105.848ZM120.489 14.6176H109.337C109.499 13.1585 110.068 12.0229 111.121 11.1309C112.157 10.2397 113.486 9.76288 114.853 9.79205C116.393 9.79205 117.653 10.2374 118.666 11.0902C119.678 11.943 120.28 13.1179 120.483 14.6176H120.489ZM131.879 16.6454L124.092 27.2712H128.836L134.352 19.7275L139.828 27.2712H144.938L137.11 16.6454L144.491 6.50685H139.699L134.63 13.5226L129.64 6.50685H124.53L131.879 16.6454Z" fill="white"/>
<g clip-path="url(#clip1_1786_17697)">
<path d="M17.9122 24.401C17.7138 25.1015 17.2985 25.721 16.7259 26.1706C16.1521 26.619 15.451 26.874 14.7233 26.8991H9.87368L0 6.25439H9.86112L14.7931 16.5816C14.7931 16.5816 18.3923 22.704 17.9122 24.401Z" fill="#CDADEF"/>
<path d="M17.9121 24.4011C18.3922 22.7041 14.7944 16.5859 14.7944 16.5859H20.1269L17.9121 24.4011Z" fill="url(#paint0_linear_1786_17697)"/>
<path d="M20.127 16.586H29.7564V6.25879H25.9102C25.1796 6.25919 24.468 6.49182 23.8783 6.92308C23.2884 7.35508 22.8515 7.96363 22.6306 8.66057L20.127 16.586Z" fill="#CDADEF"/>
</g>
</g>
<defs>
<linearGradient id="paint0_linear_1786_17697" x1="17.6163" y1="16.0389" x2="15.3136" y2="24.203" gradientUnits="userSpaceOnUse">
<stop stop-color="#CDADEF"/>
<stop offset="1" stop-color="#8458B3"/>
</linearGradient>
<clipPath id="clip0_1786_17697">
<rect width="145" height="26.6554" fill="white" transform="translate(0 0.671875)"/>
</clipPath>
<clipPath id="clip1_1786_17697">
<rect width="29.7564" height="20.6447" fill="white" transform="translate(0 6.25439)"/>
</clipPath>
</defs>
</svg>
