<svg width="834" height="1025" viewBox="0 0 834 1025" fill="none" xmlns="http://www.w3.org/2000/svg">
<g opacity="0.4" filter="url(#filter0_f_5468_126152)">
<ellipse cx="144.267" cy="88.9717" rx="333.706" ry="247.984" transform="rotate(7.79862 144.267 88.9717)" fill="url(#paint0_radial_5468_126152)" fill-opacity="0.55"/>
</g>
<g filter="url(#filter1_f_5468_126152)">
<ellipse cx="321.517" cy="189.209" rx="321.517" ry="189.209" transform="matrix(0.338135 0.941097 -0.888635 0.458615 755.277 -257)" fill="url(#paint1_angular_5468_126152)" fill-opacity="0.4"/>
</g>
<mask id="mask0_5468_126152" style="mask-type:alpha" maskUnits="userSpaceOnUse" x="-152" y="-3" width="1139" height="1029">
<g clip-path="url(#clip0_5468_126152)">
<path d="M-151.693 -2.58222L879.515 -0.442864L986.61 1025.19L-44.5979 1023.05C-71.7237 763.272 -98.8492 503.495 -125.975 243.719C-134.581 161.623 -143.154 79.5231 -151.693 -2.58222Z" stroke="#3DB7A2" stroke-width="0.963181" stroke-miterlimit="10"/>
<path d="M-46.6992 1002.95L984.508 1005.09" stroke="#3DB7A2" stroke-width="0.963181" stroke-miterlimit="10"/>
<path d="M-48.7969 982.841L982.411 984.981" stroke="#3DB7A2" stroke-width="0.963181" stroke-miterlimit="10"/>
<path d="M-50.8984 962.729L980.309 964.868" stroke="#3DB7A2" stroke-width="0.963181" stroke-miterlimit="10"/>
<path d="M-52.9961 942.621L978.212 944.76" stroke="#3DB7A2" stroke-width="0.963181" stroke-miterlimit="10"/>
<path d="M-55.0977 922.509L976.11 924.648" stroke="#3DB7A2" stroke-width="0.963181" stroke-miterlimit="10"/>
<path d="M-57.1992 902.396L974.008 904.535" stroke="#3DB7A2" stroke-width="0.963181" stroke-miterlimit="10"/>
<path d="M-59.2969 882.288L971.911 884.428" stroke="#3DB7A2" stroke-width="0.963181" stroke-miterlimit="10"/>
<path d="M-61.3984 862.176L969.809 864.315" stroke="#3DB7A2" stroke-width="0.963181" stroke-miterlimit="10"/>
<path d="M-63.4961 842.068L967.712 844.207" stroke="#3DB7A2" stroke-width="0.963181" stroke-miterlimit="10"/>
<path d="M-65.5977 821.955L965.61 824.095" stroke="#3DB7A2" stroke-width="0.963181" stroke-miterlimit="10"/>
<path d="M-67.6992 801.848L963.508 803.987" stroke="#3DB7A2" stroke-width="0.963181" stroke-miterlimit="10"/>
<path d="M-69.7969 781.735L961.411 783.874" stroke="#3DB7A2" stroke-width="0.963181" stroke-miterlimit="10"/>
<path d="M-71.8984 761.623L959.309 763.762" stroke="#3DB7A2" stroke-width="0.963181" stroke-miterlimit="10"/>
<path d="M-73.9961 741.515L957.212 743.654" stroke="#3DB7A2" stroke-width="0.963181" stroke-miterlimit="10"/>
<path d="M-76.0977 721.402L955.11 723.542" stroke="#3DB7A2" stroke-width="0.963181" stroke-miterlimit="10"/>
<path d="M-78.1953 701.295L953.012 703.434" stroke="#3DB7A2" stroke-width="0.963181" stroke-miterlimit="10"/>
<path d="M-80.2969 681.182L950.911 683.322" stroke="#3DB7A2" stroke-width="0.963181" stroke-miterlimit="10"/>
<path d="M-82.3945 661.074L948.813 663.214" stroke="#3DB7A2" stroke-width="0.963181" stroke-miterlimit="10"/>
<path d="M-84.4961 640.962L946.712 643.101" stroke="#3DB7A2" stroke-width="0.963181" stroke-miterlimit="10"/>
<path d="M-86.5981 620.849C174.54 621.391 435.561 620.03 696.905 622.639C736.639 623.034 776.012 620.614 815.712 620.783C858.616 620.975 901.797 623.669 944.605 622.999" stroke="#3DB7A2" stroke-width="0.963181" stroke-miterlimit="10"/>
<path d="M-88.696 600.742C172.416 601.283 434.066 604.856 694.847 602.424C735.609 602.047 775.18 594.756 816.037 594.846C858.126 594.934 900.468 603.225 942.507 602.886" stroke="#3DB7A2" stroke-width="0.963181" stroke-miterlimit="10"/>
<path d="M-90.795 580.629L503.299 581.862C566.285 581.992 630.264 584.863 692.864 582.04C735.044 580.133 774.78 566.777 817.282 566.675C858.455 566.576 899.186 582.047 940.413 582.773" stroke="#3DB7A2" stroke-width="0.963181" stroke-miterlimit="10"/>
<path d="M-92.8955 560.521L592.394 561.943C624.99 562.011 658.711 564.301 690.898 561.635C734.529 557.983 774.413 538.29 818.747 538.003C859.165 537.743 897.778 560.726 938.34 562.681" stroke="#3DB7A2" stroke-width="0.963181" stroke-miterlimit="10"/>
<path d="M-94.9968 540.409L590.292 541.83C622.744 541.898 657.03 544.86 688.889 541.271C733.814 536.237 773.739 510.864 819.698 510.452C859.788 510.099 895.959 539.763 936.195 542.543" stroke="#3DB7A2" stroke-width="0.963181" stroke-miterlimit="10"/>
<path d="M-97.0961 520.301L588.193 521.723C620.563 521.79 655.069 524.994 686.79 521.163C732.775 515.619 772.272 486.246 819.507 485.801C859.886 485.413 893.672 519.731 934.117 522.44" stroke="#3DB7A2" stroke-width="0.963181" stroke-miterlimit="10"/>
<path d="M-99.1937 500.193C38.3888 501.504 175.84 500.764 313.325 501.049L586.08 501.615C618.45 501.682 652.956 504.886 684.676 501.056C730.662 495.511 770.16 466.143 817.393 465.693C857.773 465.31 891.559 499.624 932.004 502.333" stroke="#3DB7A2" stroke-width="0.963181" stroke-miterlimit="10"/>
<path d="M-101.295 480.081C-64.3857 480.481 -27.9608 477.372 8.88987 477.305C45.3338 477.242 81.8435 478.995 118.378 480.096C182.756 482.106 247.008 480.778 311.216 480.911L583.971 481.477C616.423 481.544 650.708 484.507 682.568 480.923C727.49 475.863 767.417 450.511 813.377 450.104C853.466 449.746 889.637 479.409 929.873 482.189" stroke="#3DB7A2" stroke-width="0.963181" stroke-miterlimit="10"/>
<path d="M-103.393 459.979C-69.1303 459.963 -36.0207 453.936 -1.9055 453.145C36.6218 452.251 75.5492 456.669 114.293 459.087C179.322 463.129 244.407 460.701 309.131 460.835L581.885 461.401C614.482 461.468 648.202 463.758 680.387 461.067C724.019 457.42 763.903 437.727 808.236 437.44C848.654 437.175 887.268 460.163 927.829 462.113" stroke="#3DB7A2" stroke-width="0.963181" stroke-miterlimit="10"/>
<path d="M-105.498 439.855C-74.1121 439.29 -45.1008 430.003 -14.0083 428.355C26.6291 426.194 68.8062 434.039 109.788 437.841C175.526 443.935 241.668 440.575 307.006 440.711L488.575 441.088C551.562 441.218 615.54 444.089 678.14 441.266C720.32 439.359 760.056 426.003 802.559 425.902C843.731 425.802 884.462 441.273 925.689 442" stroke="#3DB7A2" stroke-width="0.963181" stroke-miterlimit="10"/>
<path d="M-107.593 419.743C-78.6387 418.752 -53.949 406.288 -25.5216 403.85C16.7724 400.226 62.7175 411.673 105.476 416.694C171.851 424.491 238.975 420.467 304.937 420.604C428.578 420.861 552.476 422.584 675.955 421.43C716.717 421.053 756.288 413.757 797.145 413.852C839.234 413.94 881.576 422.231 923.615 421.893" stroke="#3DB7A2" stroke-width="0.963181" stroke-miterlimit="10"/>
<path d="M-109.695 399.631C-82.1107 398.545 -61.2863 383.325 -34.5485 380.504C-15.1086 378.437 5.6535 381.874 25.3816 384.591C50.9154 388.11 76.4102 392.49 101.95 395.917C168.693 404.874 236.508 400.354 302.841 400.492C426.488 400.748 550.08 400.189 673.819 401.42C713.553 401.821 752.926 399.395 792.627 399.57C835.53 399.756 878.711 402.456 921.519 401.78" stroke="#3DB7A2" stroke-width="0.963181" stroke-miterlimit="10"/>
<path d="M-111.795 379.523C-98.0226 379.11 -85.9367 376.766 -73.9614 371.044C-62.6685 365.648 -52.2269 360.64 -39.2011 359.252C-19.6287 357.17 1.30016 360.674 21.1412 363.535C47.3406 367.307 73.4957 372.037 99.7008 375.716C166.399 385.083 234.434 380.246 300.715 380.383C424.362 380.64 547.984 380.707 671.65 381.204C754.252 381.54 836.814 381.496 919.398 381.667" stroke="#3DB7A2" stroke-width="0.963181" stroke-miterlimit="10"/>
<path d="M-113.894 359.41C-100.314 358.884 -88.0861 356.72 -75.9936 351.577C-64.6119 346.735 -53.9157 342.241 -41.116 340.909C-21.5445 338.868 -0.671112 342.284 19.1931 344.874C45.324 348.286 71.4693 352.478 97.6221 355.803C164.494 364.315 232.174 360.128 298.614 360.266L480.184 360.642C541.845 360.77 603.617 362.841 665.287 363.205C706.175 363.444 746.718 360.872 787.632 361.265C830.884 361.678 874.078 361.444 917.296 361.534" stroke="#3DB7A2" stroke-width="0.963181" stroke-miterlimit="10"/>
<path d="M-115.996 339.302C-89.7899 338.495 -68.441 326.522 -42.8436 324.381C-23.1736 322.74 -2.55032 325.49 17.3857 327.582C43.4492 330.348 69.5275 333.75 95.6005 336.46C162.602 343.397 229.937 340.005 296.511 340.143L478.081 340.519C507.471 340.58 536.916 339.647 566.483 342.097C595.972 344.543 625.074 347.725 654.444 347.407C698.382 346.939 741.486 340.953 785.518 341.137C828.751 341.319 871.97 341.316 915.193 341.406" stroke="#3DB7A2" stroke-width="0.963181" stroke-miterlimit="10"/>
<path d="M-118.096 319.194C-92.4723 318.832 -69.7335 310.148 -44.4713 308.796C0.737453 306.377 47.9812 314.068 93.6146 317.444C160.667 322.408 227.73 319.912 294.413 320.05L475.983 320.427C504.259 320.486 532.917 318.781 561.399 323.48C588.46 327.946 614.158 333.731 641.304 332.798C689.073 331.154 735.419 321.36 783.386 321.065C826.577 320.8 869.863 321.244 913.091 321.334" stroke="#3DB7A2" stroke-width="0.963181" stroke-miterlimit="10"/>
<path d="M-120.196 299.087C-94.9876 299.139 -71.1323 293.841 -46.0929 293.268C-0.488008 292.224 45.777 296.417 91.6294 298.434C158.657 301.378 225.542 299.799 292.313 299.938L473.883 300.314C500.833 300.37 529.258 297.466 556.265 304.874C581.166 311.709 602.273 319.689 628.01 318.235C679.631 315.323 729.283 301.798 781.261 300.967C824.398 300.283 867.775 301.147 910.998 301.237" stroke="#3DB7A2" stroke-width="0.963181" stroke-miterlimit="10"/>
<path d="M-122.295 278.979C-97.2914 279.298 -72.7431 276.934 -47.8 276.919C-2.05869 276.886 43.7929 278.304 89.6165 279.158C156.565 280.409 223.386 279.691 290.213 279.83L471.783 280.207C497.238 280.26 526.729 275.86 551.823 285.925C559.764 289.11 567.083 293.837 574.983 297.13C588.689 302.844 602.734 303.658 616.74 302.677C671.547 298.822 723.868 282.027 779.152 280.865C822.245 279.96 865.686 281.045 908.899 281.134" stroke="#3DB7A2" stroke-width="0.963181" stroke-miterlimit="10"/>
<path d="M-124.395 258.862C13.1773 259.829 150.628 259.433 288.129 259.718L469.699 260.094C484.311 260.125 498.92 260.155 513.525 260.185C525.467 260.21 537.431 260.553 548.812 266.268C555.917 269.835 561.987 275.242 569.017 278.937C581.938 285.727 596.148 285.997 609.646 285.041C666.282 281.026 719.881 261.757 777.072 260.742C820.186 259.981 863.585 260.922 906.798 261.012" stroke="#3DB7A2" stroke-width="0.963181" stroke-miterlimit="10"/>
<path d="M-126.494 238.755C11.0434 239.041 148.881 241.116 286.233 239.775C346.608 239.188 406.466 237.651 467.151 239.582C492.133 240.382 522.731 234.893 546.975 246.049C554.404 249.468 560.996 254.594 568.34 258.131C581.593 264.491 595.626 265.048 609.337 264.051C665.297 259.988 718.479 241.805 774.974 240.641C818.07 239.756 861.508 240.82 904.715 240.91" stroke="#3DB7A2" stroke-width="0.963181" stroke-miterlimit="10"/>
<path d="M-128.594 218.642L191.828 219.307C222.248 219.37 253.232 220.972 283.364 219.015C311.158 217.227 338.125 211.463 366.191 211.147C398.248 210.788 430.153 214.105 462.377 217.217C489.709 219.838 519.722 215.998 546.548 225.083C555.099 227.982 563.246 232.254 571.777 235.256C585.963 240.243 600.238 241.237 614.533 240.307C667.915 236.829 719.055 221.554 772.867 220.517C815.978 219.684 859.401 220.697 902.614 220.786" stroke="#3DB7A2" stroke-width="0.963181" stroke-miterlimit="10"/>
<path d="M-130.696 198.529L189.726 199.194C219.327 199.255 250.951 202.207 279.774 197.627C304.717 193.664 327.372 183.196 353.027 181.603C387.016 179.5 422.13 187.935 456.223 193.645C473.149 196.485 490.19 199.181 507.132 199.76C520.635 200.218 533.717 200.656 547.227 203.611C573.077 209.269 596.602 216.26 622.869 215.048C672.631 212.741 720.732 200.998 770.798 200.42C813.96 199.925 857.291 200.599 900.519 200.689" stroke="#3DB7A2" stroke-width="0.963181" stroke-miterlimit="10"/>
<path d="M-132.791 178.442L187.631 179.107C215.989 179.165 249.267 183.782 275.979 176.075C298.093 169.697 315.219 154.264 338.85 151.211C373.981 146.67 414.599 161.653 449.635 169.724C467.847 173.92 486.355 178.183 504.774 179.426C519.31 180.405 533.657 180.209 548.255 181.982C576.506 185.41 604.001 189.937 632.188 189.299C678.037 188.266 722.764 180.345 768.757 180.307C811.972 180.269 855.219 180.486 898.447 180.576" stroke="#3DB7A2" stroke-width="0.963181" stroke-miterlimit="10"/>
<path d="M-134.896 158.308L230.636 159.067C244.856 159.096 259.581 160.306 272.411 154.718C292.268 146.085 303.355 126.225 325.916 121.862C341.636 118.819 359.539 123.558 375.465 127.39C398.297 132.872 420.873 139.907 443.554 146.224C462.885 151.607 482.708 157.303 502.413 159.108C517.855 160.524 533.351 159.684 548.805 160.516C579.389 162.149 609.759 164.145 640.232 164.115C682.544 164.075 724.274 159.829 766.63 160.163C809.874 160.504 853.076 160.343 896.294 160.432" stroke="#3DB7A2" stroke-width="0.963181" stroke-miterlimit="10"/>
<path d="M-136.993 138.201L228.539 138.959C242.434 138.988 257.587 140.691 269.658 134.051C288.18 123.835 294.05 100.622 316.559 95.5668C332.359 92.0107 351.13 97.6534 367.097 101.922C391.258 108.386 415.073 116.628 439.034 124.04C459.053 130.234 479.752 136.968 500.309 138.985C516.242 140.556 532.383 139.431 548.257 139.643C580.51 140.076 612.748 140.4 644.972 140.618C728.11 141.303 811.12 140.168 894.214 140.34" stroke="#3DB7A2" stroke-width="0.963181" stroke-miterlimit="10"/>
<path d="M-139.095 118.089L226.437 118.847C240.266 118.876 255.651 120.728 267.579 113.959C285.964 103.523 290.747 79.6152 313.407 74.5762C329.256 71.0458 348.064 76.6988 364.047 81.0182C388.45 87.6366 412.475 96.1051 436.669 103.728C456.769 110.05 477.587 116.943 498.256 118.939C514.196 120.48 530.349 119.519 546.199 119.552L892.117 120.269" stroke="#3DB7A2" stroke-width="0.963181" stroke-miterlimit="10"/>
<path d="M-141.192 97.9813L224.34 98.7396C238.468 98.7689 253.251 100.097 265.843 94.1549C285.234 85.0023 294.77 64.1191 317.221 59.4898C332.96 56.2411 351.178 61.3291 367.125 65.3049C390.371 71.1006 413.352 78.5107 436.425 85.1725C456.005 90.8221 476.096 96.8112 496.094 98.7548C512.063 100.326 528.216 99.3701 544.102 99.403L890.016 100.121" stroke="#3DB7A2" stroke-width="0.963181" stroke-miterlimit="10"/>
<path d="M-143.294 77.8682L222.238 78.6265C236.742 78.6566 251.478 79.5691 265.02 75.1264C286.453 68.1057 301.957 51.4032 325.202 47.965C340.839 45.6595 357.772 49.2016 373.618 52.5107C395.161 57.0108 416.526 62.9102 437.961 68.1587C456.509 72.6987 475.388 77.3574 494.172 78.7858C510.114 79.9981 526.135 79.252 541.995 79.2849L887.913 80.0025" stroke="#3DB7A2" stroke-width="0.963181" stroke-miterlimit="10"/>
<path d="M-145.394 57.7608L175.028 58.4256C204.335 58.4864 236.282 61.8648 264.606 56.4632C288.761 51.858 310.033 40.0432 335.076 38.0649C369.474 35.3471 405.855 45.446 440.309 51.8442C506.082 64.0549 572.775 59.2507 638.174 59.3864L885.813 59.9002" stroke="#3DB7A2" stroke-width="0.963181" stroke-miterlimit="10"/>
<path d="M-147.493 37.6478L172.929 38.3126C203.159 38.3753 234.257 40.2804 264.109 37.7173C291.188 35.3945 317.117 28.4294 344.522 27.8095C377.123 27.0773 409.688 31.5797 442.462 35.3751C506.952 42.8457 571.981 39.1405 636.05 39.2734L883.715 39.7872" stroke="#3DB7A2" stroke-width="0.963181" stroke-miterlimit="10"/>
<path d="M-149.594 17.5354L70.9963 17.9931C134.931 18.1257 199.25 19.7613 263.02 18.4683C292.527 17.8732 321.703 15.0012 351.319 15.2626C382.049 15.5211 412.675 16.4666 443.51 17.9251C507.096 20.9436 570.627 19.0296 633.974 19.161L881.613 19.6748" stroke="#3DB7A2" stroke-width="0.963181" stroke-miterlimit="10"/>
<path d="M818.854 -0.568894L844.572 245.732C850.879 306.132 853.048 368.368 866.64 428.434C872.52 454.436 878.441 480.037 880.441 506.302C883.171 541.971 882.197 577.428 883.823 613.039C886.761 676.923 896.354 741.682 903.035 805.666L925.944 1025.06" stroke="#3DB7A2" stroke-width="0.963181" stroke-miterlimit="10"/>
<path d="M798.637 -0.610753L834.562 343.438C837.438 370.976 839.475 398.185 847.682 425.344C855.039 449.688 862.201 473.056 863.636 498.054C865.819 536.147 863.303 573.856 864.088 611.839C865.43 675.828 876.121 741.435 882.823 805.625L905.732 1025.02" stroke="#3DB7A2" stroke-width="0.963181" stroke-miterlimit="10"/>
<path d="M778.414 -0.652803L814.339 343.396C817.136 370.191 818.521 396.726 828.497 422.808C837.309 445.831 845.207 466.874 846.283 491.096C848.066 531.28 844.142 570.91 844.227 610.921C844.296 642.54 848.916 674.537 852.233 706.301L885.509 1024.98" stroke="#3DB7A2" stroke-width="0.963181" stroke-miterlimit="10"/>
<path d="M758.196 -0.694719L794.121 343.354C796.864 369.626 797.469 396.252 808.807 421.495C818.801 443.752 826.739 462.995 827.741 487.007C829.5 528.54 824.415 569.341 824.112 610.628C823.876 642.282 828.713 674.434 832.035 706.249L865.312 1024.94" stroke="#3DB7A2" stroke-width="0.963181" stroke-miterlimit="10"/>
<path d="M737.975 -0.736372C742.463 42.2479 746.409 85.267 751.474 128.247C756.103 167.643 757.493 206.971 762.09 246.356C765.864 278.7 769.714 310.973 773.855 343.333C777.249 369.811 777.405 396.082 788.512 421.638C798.242 444.033 806.236 463.666 807.223 487.683C808.927 528.933 804.14 569.53 803.899 610.571C803.712 642.246 808.469 674.382 811.793 706.207L845.07 1024.9" stroke="#3DB7A2" stroke-width="0.963181" stroke-miterlimit="10"/>
<path d="M717.751 -0.778704C722.24 42.2056 726.246 85.2197 731.256 128.205C736.028 168.975 731.062 208.997 735.039 249.699C738.16 281.611 745.514 312.399 752.11 344.072C757.653 370.744 758.162 397.088 767.598 423.281C776.02 446.616 783.795 468.259 784.944 492.635C786.808 532.312 783.238 571.486 783.493 611C783.696 642.568 788.263 674.499 791.571 706.186L824.846 1024.86" stroke="#3DB7A2" stroke-width="0.963181" stroke-miterlimit="10"/>
<path d="M697.536 -0.820523C702.026 42.174 706.805 85.1795 711.006 128.173C715.207 171.167 702.461 211.917 704.63 254.711C706.233 286.4 719.164 314.913 729.188 345.347C737.951 371.908 738.738 399.14 746.252 425.929C753.199 450.696 760.077 474.7 761.645 499.99C763.964 537.448 761.845 574.569 762.864 611.927C764.605 675.89 775.025 741.277 781.722 805.415L804.632 1024.81" stroke="#3DB7A2" stroke-width="0.963181" stroke-miterlimit="10"/>
<path d="M677.315 -0.862523C681.798 42.0756 687.573 85.2318 690.786 128.147C694.189 173.872 673.229 215.142 673.038 260.316C672.904 292.104 692.134 318.246 705.884 346.842C718.594 373.288 719.004 401.303 724.769 428.971C730.285 455.432 735.825 481.582 738 508.232C740.857 543.25 740.304 578.092 742.172 613.058C745.576 676.907 754.841 741.445 761.515 805.363L784.425 1024.77" stroke="#3DB7A2" stroke-width="0.963181" stroke-miterlimit="10"/>
<path d="M657.098 -0.904681C661.572 41.936 668.108 85.3297 670.524 128.115C673.256 176.443 644.685 218.041 642.379 265.462C640.804 297.82 665.901 321.6 682.874 348.189C699.557 374.32 698.991 403.112 703.381 431.725C712.755 492.813 716.626 552.992 721.513 614.055C732.459 750.776 749.914 887.976 764.195 1024.74" stroke="#3DB7A2" stroke-width="0.963181" stroke-miterlimit="10"/>
<path d="M636.875 -0.946157C641.346 41.8741 648.026 85.3142 650.305 128.073C652.985 178.422 618.195 219.894 614.856 269.025C612.58 302.469 641.584 323.77 660.953 348.974C680.508 374.419 678.98 404.415 682.407 433.482C689.516 493.858 695.06 554.158 701.072 614.506C714.688 751.216 729.692 887.95 743.968 1024.67" stroke="#3DB7A2" stroke-width="0.963181" stroke-miterlimit="10"/>
<path d="M616.659 -0.988256C621.134 41.873 627.536 85.2099 630.13 128.021C633.19 179.001 596.063 220.166 592.876 269.861C590.699 304.013 620.299 324.008 640.532 349.039C660.766 374.071 659.048 404.819 662.07 433.763L723.769 1024.65" stroke="#3DB7A2" stroke-width="0.963181" stroke-miterlimit="10"/>
<path d="M596.448 -1.03015C600.919 41.7849 607.627 85.2405 609.874 127.989C612.457 177.409 580.65 219.016 577.644 267.343C575.605 300.152 602.968 322.767 621.218 348.548C639.703 374.658 638.79 404.47 641.842 433.7L703.543 1024.6" stroke="#3DB7A2" stroke-width="0.963181" stroke-miterlimit="10"/>
<path d="M576.216 -1.07227C580.695 41.8197 586.898 85.0845 589.657 127.942C592.687 174.979 567.897 216.446 566.585 262.736C565.684 294.737 587.919 319.731 603.327 347.327C618.632 374.727 618.561 404.361 621.621 433.663L683.322 1024.56" stroke="#3DB7A2" stroke-width="0.963181" stroke-miterlimit="10"/>
<path d="M555.996 -1.11433C560.483 41.8597 565.747 84.9175 569.466 127.885C573.3 172.206 556.529 213.213 557.562 257.164C558.292 288.841 574.283 316.201 586.148 345.799C597.594 374.36 598.325 404.216 601.397 433.636L663.096 1024.52" stroke="#3DB7A2" stroke-width="0.963181" stroke-miterlimit="10"/>
<path d="M535.775 -1.1558C540.264 41.8388 544.589 84.8381 549.274 127.828C553.823 169.618 545.183 209.991 548.382 251.645C550.831 283.437 560.721 313.139 568.906 344.277C576.653 373.743 578.067 403.872 581.171 433.595L642.87 1024.48" stroke="#3DB7A2" stroke-width="0.963181" stroke-miterlimit="10"/>
<path d="M515.559 -1.19794C520.046 41.7761 523.9 84.8104 529.063 127.786C533.861 167.715 532.419 207.365 536.899 247.263C540.505 279.376 545.713 311.087 550.875 343.142C555.715 373.207 557.806 403.45 560.949 433.548L622.648 1024.44" stroke="#3DB7A2" stroke-width="0.963181" stroke-miterlimit="10"/>
<path d="M495.338 -1.23998C503.912 80.8723 512.034 162.999 520.948 245.112C549.138 504.866 575.31 764.642 602.433 1024.39" stroke="#3DB7A2" stroke-width="0.963181" stroke-miterlimit="10"/>
<path d="M475.125 -1.28175C480.52 40.9046 481.504 83.1127 485.765 125.302C489.803 165.301 497.328 205.231 501.075 245.209C525.418 504.853 555.107 764.692 582.22 1024.35" stroke="#3DB7A2" stroke-width="0.963181" stroke-miterlimit="10"/>
<path d="M454.91 -1.32382C459.62 38.8462 452.865 77.8286 457.061 118.013C461.512 160.643 475.676 202.484 480.728 245.044C495.398 367.965 506.34 491.068 519.177 614.005L562.02 1024.31" stroke="#3DB7A2" stroke-width="0.963181" stroke-miterlimit="10"/>
<path d="M434.68 -1.36577C437.842 36.5195 420.878 69.9948 425.059 107.959C430.15 154.252 452.487 198.591 460.076 244.663C465.426 277.133 467.203 310.15 470.6 342.683L541.77 1024.27" stroke="#3DB7A2" stroke-width="0.963181" stroke-miterlimit="10"/>
<path d="M414.439 -1.40752C415.919 34.7362 388.17 60.8522 392.295 97.2424C397.977 147.361 428.922 194.615 439.382 244.23C446.177 276.478 446.984 310.221 450.37 342.646L521.539 1024.23" stroke="#3DB7A2" stroke-width="0.963181" stroke-miterlimit="10"/>
<path d="M394.229 -1.44983C394.423 18.4333 386.116 30.9517 375.293 45.7823C366.365 58.0277 359.416 71.4565 361.271 87.9849C364.263 114.267 378.383 141.572 389.028 166.21C399.999 191.596 412.379 217.344 418.849 243.91C426.638 275.899 426.814 310.322 430.186 342.609L501.355 1024.18" stroke="#3DB7A2" stroke-width="0.963181" stroke-miterlimit="10"/>
<path d="M374.015 -1.49173C374.275 18.9196 364.388 29.4352 351.288 42.5076C340.458 53.3186 332.482 65.402 334.425 82.2895C337.562 109.567 353.448 137.891 365.232 163.11C377.481 189.334 391.634 216.117 398.629 243.863C406.661 275.714 406.606 310.378 409.966 342.562L481.136 1024.14" stroke="#3DB7A2" stroke-width="0.963181" stroke-miterlimit="10"/>
<path d="M353.793 -1.53371C354.059 18.8777 344.166 29.3932 331.067 42.4656C320.231 53.2766 312.26 65.36 314.199 82.2475C317.336 109.525 333.222 137.849 345.005 163.068C357.254 189.292 371.407 216.075 378.403 243.821C386.435 275.672 386.379 310.336 389.739 342.52L460.909 1024.1" stroke="#3DB7A2" stroke-width="0.963181" stroke-miterlimit="10"/>
<path d="M333.57 -1.57579C333.76 18.3073 325.453 30.8257 314.635 45.6564C305.702 57.9018 298.727 71.3305 300.608 87.8589C303.6 114.141 317.719 141.447 328.365 166.084C339.335 191.47 351.71 217.218 358.18 243.784C365.969 275.773 366.146 310.196 369.517 342.483L440.686 1024.06" stroke="#3DB7A2" stroke-width="0.963181" stroke-miterlimit="10"/>
<path d="M313.38 -1.61773C314.861 34.526 287.112 60.642 291.236 97.0322C296.918 147.151 327.864 194.404 338.323 244.02C345.119 276.268 345.925 310.011 349.311 342.436L420.481 1024.02" stroke="#3DB7A2" stroke-width="0.963181" stroke-miterlimit="10"/>
<path d="M293.141 -1.65971C296.303 36.2256 279.339 69.7008 283.519 107.665C288.611 153.958 310.948 198.297 318.537 244.369C323.887 276.839 325.669 309.856 329.066 342.389L400.236 1023.97" stroke="#3DB7A2" stroke-width="0.963181" stroke-miterlimit="10"/>
<path d="M272.929 -1.70151C277.639 38.4685 270.884 77.4509 275.08 117.635C279.532 160.266 293.695 202.106 298.747 244.666C313.418 367.587 324.359 490.69 337.196 613.627L380.04 1023.93" stroke="#3DB7A2" stroke-width="0.963181" stroke-miterlimit="10"/>
<path d="M252.711 -1.74342C258.106 40.443 259.085 82.651 263.351 124.84C267.389 164.84 274.909 204.769 278.661 244.748C303.004 504.391 332.688 764.231 359.801 1023.89" stroke="#3DB7A2" stroke-width="0.963181" stroke-miterlimit="10"/>
<path d="M232.48 -1.78516L339.576 1023.85" stroke="#3DB7A2" stroke-width="0.963181" stroke-miterlimit="10"/>
<path d="M212.262 -1.82739L319.357 1023.81" stroke="#3DB7A2" stroke-width="0.963181" stroke-miterlimit="10"/>
<path d="M192.043 -1.86938L299.138 1023.76" stroke="#3DB7A2" stroke-width="0.963181" stroke-miterlimit="10"/>
<path d="M171.82 -1.91089L278.915 1023.72" stroke="#3DB7A2" stroke-width="0.963181" stroke-miterlimit="10"/>
<path d="M151.605 -1.95239L258.701 1023.68" stroke="#3DB7A2" stroke-width="0.963181" stroke-miterlimit="10"/>
<path d="M131.371 -1.99512L238.466 1023.64" stroke="#3DB7A2" stroke-width="0.963181" stroke-miterlimit="10"/>
<path d="M111.16 -2.03687L218.255 1023.6" stroke="#3DB7A2" stroke-width="0.963181" stroke-miterlimit="10"/>
<path d="M90.9462 -2.07872C95.4351 40.9107 99.458 83.93 104.442 126.92C108.976 166.044 110.399 205.1 114.87 244.218C144.54 503.971 170.915 763.767 198.041 1023.56" stroke="#3DB7A2" stroke-width="0.963181" stroke-miterlimit="10"/>
<path d="M70.7213 -2.1208C75.2107 40.8738 79.3614 83.883 84.2221 126.878C88.6633 166.202 84.708 204.893 88.4581 244.163C94.3392 305.67 98.2046 368.704 110.439 429.983C122.658 491.169 128.556 551.803 134.968 613.213L177.811 1023.51" stroke="#3DB7A2" stroke-width="0.963181" stroke-miterlimit="10"/>
<path d="M50.5051 -2.16281C54.9945 40.8318 59.8053 83.8424 63.975 126.836C67.8437 166.651 57.2421 204.487 59.3993 244.103C61.0532 274.407 65.5661 305.087 68.7361 335.446C71.9741 366.456 75.3925 396.379 84.0069 427.041C92.8894 458.643 101.808 489.208 105.168 521.387L157.595 1023.47" stroke="#3DB7A2" stroke-width="0.963181" stroke-miterlimit="10"/>
<path d="M30.2836 -2.20462C34.7682 40.7438 40.4151 83.8638 43.7535 126.794C46.8878 167.377 29.2903 203.922 29.5515 244.041C29.7394 272.846 35.1111 302.814 38.1343 331.768C41.4543 363.562 45.8264 392.796 57.0275 423.843C68.7539 456.316 81.4361 487.577 84.9622 521.346L137.389 1023.43" stroke="#3DB7A2" stroke-width="0.963181" stroke-miterlimit="10"/>
<path d="M10.0647 -2.24691C14.5413 40.6246 20.8189 83.91 23.4933 126.752C26.0899 168.256 2.01306 203.275 0.680744 243.981C-0.218035 271.363 5.75382 300.81 8.64164 328.466C10.1308 342.727 10.8116 357.295 13.6252 371.502C16.9719 388.398 23.8428 404.88 30.7291 420.968C44.9267 454.103 61.0578 486.057 64.7381 521.303L117.165 1023.39" stroke="#3DB7A2" stroke-width="0.963181" stroke-miterlimit="10"/>
<path d="M-10.1545 -2.28833C-5.67847 40.578 0.646089 83.8687 3.28444 126.711C5.89059 169.096 -23.329 202.603 -25.3287 243.928C-26.5996 270.411 -20.4404 299.382 -17.6399 326.202C-16.1743 340.238 -15.5781 354.636 -12.6964 368.608C-9.13808 385.95 -1.28996 402.757 6.42867 419.016C22.4066 452.662 40.7257 484.836 44.5292 521.262L96.956 1023.35" stroke="#3DB7A2" stroke-width="0.963181" stroke-miterlimit="10"/>
<path d="M-30.3782 -2.33044C-25.9 40.5564 -19.7065 83.8263 -16.9083 126.669C-14.1467 169.26 -44.4515 202.395 -46.3619 243.884C-47.5759 270.27 -41.4507 299.113 -38.6614 325.825C-37.198 339.84 -36.5947 354.208 -33.7765 368.164C-30.2576 385.573 -22.2397 402.427 -14.3864 418.691C1.91882 452.461 20.4815 484.548 24.3107 521.22L76.7375 1023.3" stroke="#3DB7A2" stroke-width="0.963181" stroke-miterlimit="10"/>
<path d="M-50.5944 -2.3724C-46.1189 40.4888 -39.7551 83.8103 -37.1658 126.627C-34.6363 168.376 -60.2627 202.972 -61.8964 243.852C-62.9774 270.92 -56.9085 300.26 -54.0523 327.613C-52.5712 341.798 -51.9277 356.304 -49.066 370.429C-45.6218 387.469 -38.4406 404.059 -31.2809 420.199C-16.5258 453.489 0.355501 485.568 4.07277 521.167L56.5006 1023.26" stroke="#3DB7A2" stroke-width="0.963181" stroke-miterlimit="10"/>
<path d="M-70.8178 -2.41489C-66.3354 40.513 -60.482 83.6848 -57.3737 126.584C-54.4153 167.407 -73.8432 203.553 -74.0661 243.826C-74.2252 272.219 -68.6577 302.039 -65.6735 330.619C-62.3278 362.66 -57.6978 391.647 -45.8404 422.808C-33.3971 455.483 -19.719 486.951 -16.1496 521.135L36.2772 1023.22" stroke="#3DB7A2" stroke-width="0.963181" stroke-miterlimit="10"/>
<path d="M-91.0337 -2.4566C-86.5448 40.5328 -81.5365 83.5593 -77.5638 126.543C-73.9027 166.541 -86.3771 204.066 -84.7278 243.804C-83.4801 273.723 -78.7268 304.188 -75.5959 334.172C-72.337 365.382 -68.6728 395.142 -59.3475 425.898C-49.686 457.752 -39.77 488.489 -36.3654 521.094L16.0614 1023.18" stroke="#3DB7A2" stroke-width="0.963181" stroke-miterlimit="10"/>
</g>
</mask>
<g mask="url(#mask0_5468_126152)">
<g filter="url(#filter2_f_5468_126152)">
<path d="M286.121 -0.853027L661.121 -0.853023L661.121 523.515L286.121 523.515L286.121 -0.853027Z" fill="url(#paint2_angular_5468_126152)" fill-opacity="0.4"/>
</g>
</g>
<defs>
<filter id="filter0_f_5468_126152" x="-448.086" y="-420.901" width="1184.71" height="1019.75" filterUnits="userSpaceOnUse" color-interpolation-filters="sRGB">
<feFlood flood-opacity="0" result="BackgroundImageFix"/>
<feBlend mode="normal" in="SourceGraphic" in2="BackgroundImageFix" result="shape"/>
<feGaussianBlur stdDeviation="130" result="effect1_foregroundBlur_5468_126152"/>
</filter>
<filter id="filter1_f_5468_126152" x="215.609" y="-462.504" width="960.492" height="1189.71" filterUnits="userSpaceOnUse" color-interpolation-filters="sRGB">
<feFlood flood-opacity="0" result="BackgroundImageFix"/>
<feBlend mode="normal" in="SourceGraphic" in2="BackgroundImageFix" result="shape"/>
<feGaussianBlur stdDeviation="140" result="effect1_foregroundBlur_5468_126152"/>
</filter>
<filter id="filter2_f_5468_126152" x="-213.879" y="-500.853" width="1375" height="1524.37" filterUnits="userSpaceOnUse" color-interpolation-filters="sRGB">
<feFlood flood-opacity="0" result="BackgroundImageFix"/>
<feBlend mode="normal" in="SourceGraphic" in2="BackgroundImageFix" result="shape"/>
<feGaussianBlur stdDeviation="250" result="effect1_foregroundBlur_5468_126152"/>
</filter>
<radialGradient id="paint0_radial_5468_126152" cx="0" cy="0" r="1" gradientUnits="userSpaceOnUse" gradientTransform="translate(662.257 -441.439) rotate(144.706) scale(1108.78 4289.03)">
<stop offset="0.432292" stop-color="#8041E6"/>
<stop offset="1" stop-color="#564CF8"/>
</radialGradient>
<radialGradient id="paint1_angular_5468_126152" cx="0" cy="0" r="1" gradientUnits="userSpaceOnUse" gradientTransform="translate(201.442 171.167) rotate(155.669) scale(550.619 308.611)">
<stop offset="0.285549" stop-color="#8458B3"/>
<stop offset="0.556778" stop-color="#F19E79"/>
</radialGradient>
<radialGradient id="paint2_angular_5468_126152" cx="0" cy="0" r="1" gradientUnits="userSpaceOnUse" gradientTransform="translate(403.597 236.33) rotate(132.946) scale(429.447 319.752)">
<stop offset="0.285549" stop-color="#8458B3"/>
<stop offset="0.556778" stop-color="#F19E79"/>
</radialGradient>
<clipPath id="clip0_5468_126152">
<rect width="1031.75" height="1031.73" fill="white" transform="matrix(0.999998 0.00207461 0.103854 0.994593 -152 -2.82959)"/>
</clipPath>
</defs>
</svg>
