<svg width="834" height="1143" viewBox="0 0 834 1143" fill="none" xmlns="http://www.w3.org/2000/svg">
<mask id="mask0_4775_202673" style="mask-type:alpha" maskUnits="userSpaceOnUse" x="-269" y="0" width="1257" height="1143">
<g clip-path="url(#clip0_4775_202673)">
<path d="M-268.62 1.05475L868.488 3.41381L987.384 1142.06L-149.724 1139.71C-179.839 851.3 -209.953 562.897 -240.068 274.496C-249.622 183.355 -259.14 92.2074 -268.62 1.05475Z" stroke="#3DB7A2" stroke-width="0.963181" stroke-miterlimit="10"/>
<path d="M-152.055 1117.39L985.053 1119.75" stroke="#3DB7A2" stroke-width="0.963181" stroke-miterlimit="10"/>
<path d="M-154.387 1095.06L982.721 1097.42" stroke="#3DB7A2" stroke-width="0.963181" stroke-miterlimit="10"/>
<path d="M-156.719 1072.74L980.389 1075.09" stroke="#3DB7A2" stroke-width="0.963181" stroke-miterlimit="10"/>
<path d="M-159.047 1050.41L978.061 1052.77" stroke="#3DB7A2" stroke-width="0.963181" stroke-miterlimit="10"/>
<path d="M-161.379 1028.08L975.729 1030.44" stroke="#3DB7A2" stroke-width="0.963181" stroke-miterlimit="10"/>
<path d="M-163.711 1005.75L973.397 1008.11" stroke="#3DB7A2" stroke-width="0.963181" stroke-miterlimit="10"/>
<path d="M-166.043 983.431L971.065 985.79" stroke="#3DB7A2" stroke-width="0.963181" stroke-miterlimit="10"/>
<path d="M-168.371 961.102L968.737 963.461" stroke="#3DB7A2" stroke-width="0.963181" stroke-miterlimit="10"/>
<path d="M-170.703 938.779L966.405 941.138" stroke="#3DB7A2" stroke-width="0.963181" stroke-miterlimit="10"/>
<path d="M-173.035 916.45L964.073 918.809" stroke="#3DB7A2" stroke-width="0.963181" stroke-miterlimit="10"/>
<path d="M-175.367 894.127L961.741 896.486" stroke="#3DB7A2" stroke-width="0.963181" stroke-miterlimit="10"/>
<path d="M-177.699 871.798L959.409 874.157" stroke="#3DB7A2" stroke-width="0.963181" stroke-miterlimit="10"/>
<path d="M-180.031 849.469L957.077 851.828" stroke="#3DB7A2" stroke-width="0.963181" stroke-miterlimit="10"/>
<path d="M-182.359 827.145L954.749 829.504" stroke="#3DB7A2" stroke-width="0.963181" stroke-miterlimit="10"/>
<path d="M-184.691 804.817L952.417 807.176" stroke="#3DB7A2" stroke-width="0.963181" stroke-miterlimit="10"/>
<path d="M-187.023 782.493L950.085 784.852" stroke="#3DB7A2" stroke-width="0.963181" stroke-miterlimit="10"/>
<path d="M-189.355 760.165L947.753 762.524" stroke="#3DB7A2" stroke-width="0.963181" stroke-miterlimit="10"/>
<path d="M-191.688 737.841L945.421 740.2" stroke="#3DB7A2" stroke-width="0.963181" stroke-miterlimit="10"/>
<path d="M-194.016 715.512L943.092 717.872" stroke="#3DB7A2" stroke-width="0.963181" stroke-miterlimit="10"/>
<path d="M-196.349 693.183C91.6063 693.781 379.432 692.266 667.616 695.158C711.431 695.596 754.846 692.908 798.623 693.096C845.933 693.308 893.55 696.298 940.754 695.554" stroke="#3DB7A2" stroke-width="0.963181" stroke-miterlimit="10"/>
<path d="M-198.681 670.86C89.2463 671.458 377.769 675.42 665.329 672.716C710.276 672.297 753.905 664.202 798.958 664.301C845.369 664.397 892.066 673.601 938.422 673.225" stroke="#3DB7A2" stroke-width="0.963181" stroke-miterlimit="10"/>
<path d="M-201.011 648.531L454.094 649.89C523.548 650.035 594.099 653.22 663.126 650.085C709.636 647.967 753.443 633.139 800.309 633.026C845.71 632.915 890.636 650.09 936.098 650.896" stroke="#3DB7A2" stroke-width="0.963181" stroke-miterlimit="10"/>
<path d="M-203.341 626.208L552.324 627.776C588.268 627.85 625.453 630.392 660.944 627.432C709.053 623.377 753.018 601.514 801.904 601.194C846.472 600.905 889.069 626.42 933.798 628.59" stroke="#3DB7A2" stroke-width="0.963181" stroke-miterlimit="10"/>
<path d="M-205.673 603.879L549.992 605.447C585.777 605.521 623.585 608.81 658.713 604.824C708.248 599.235 752.253 571.065 802.932 570.607C847.138 570.215 887.047 603.146 931.417 606.232" stroke="#3DB7A2" stroke-width="0.963181" stroke-miterlimit="10"/>
<path d="M-208.005 581.556L547.66 583.123C583.354 583.197 621.406 586.754 656.381 582.501C707.085 576.345 750.615 543.734 802.7 543.239C847.225 542.808 884.508 580.908 929.109 583.915" stroke="#3DB7A2" stroke-width="0.963181" stroke-miterlimit="10"/>
<path d="M-210.337 559.232C-58.6248 560.685 92.9409 559.861 244.546 560.176L545.311 560.8C581.005 560.874 619.057 564.431 654.032 560.177C704.736 554.021 748.267 521.417 800.351 520.916C844.877 520.49 882.159 558.584 926.759 561.591" stroke="#3DB7A2" stroke-width="0.963181" stroke-miterlimit="10"/>
<path d="M-212.667 536.904C-171.966 537.347 -131.803 533.895 -91.1683 533.82C-50.9819 533.75 -10.7215 535.695 29.5658 536.917C100.557 539.147 171.406 537.672 242.208 537.819L542.973 538.443C578.758 538.517 616.566 541.806 651.695 537.826C701.227 532.208 745.234 504.061 795.914 503.609C840.119 503.211 880.028 536.142 924.398 539.228" stroke="#3DB7A2" stroke-width="0.963181" stroke-miterlimit="10"/>
<path d="M-214.995 514.587C-177.213 514.568 -140.708 507.876 -103.09 506.998C-60.6072 506.005 -17.6787 510.909 25.0463 513.593C96.7562 518.079 168.523 515.382 239.894 515.53L540.659 516.154C576.603 516.229 613.788 518.771 649.276 515.782C697.385 511.732 741.35 489.87 790.236 489.55C834.804 489.255 877.401 514.775 922.13 516.94" stroke="#3DB7A2" stroke-width="0.963181" stroke-miterlimit="10"/>
<path d="M-217.331 492.245C-182.723 491.617 -150.739 481.307 -116.455 479.477C-71.6463 477.077 -25.1317 485.785 20.0615 490.006C92.555 496.77 165.487 493.04 237.534 493.189L437.751 493.604C507.205 493.749 577.756 496.935 646.783 493.799C693.293 491.681 737.099 476.854 783.966 476.74C829.366 476.629 874.292 493.804 919.754 494.61" stroke="#3DB7A2" stroke-width="0.963181" stroke-miterlimit="10"/>
<path d="M-219.662 469.917C-187.734 468.816 -160.519 454.978 -129.174 452.271C-82.5397 448.247 -31.8673 460.954 15.2862 466.528C88.4831 475.184 162.498 470.715 235.233 470.866C371.572 471.149 508.195 473.06 644.354 471.778C689.302 471.359 732.93 463.258 777.983 463.363C824.394 463.459 871.091 472.664 917.447 472.287" stroke="#3DB7A2" stroke-width="0.963181" stroke-miterlimit="10"/>
<path d="M-221.993 447.588C-191.577 446.382 -168.626 429.485 -139.144 426.353C-117.71 424.058 -94.8127 427.873 -73.0565 430.89C-44.8979 434.796 -16.7814 439.658 11.3836 443.462C84.9877 453.405 159.764 448.386 232.908 448.538C369.253 448.821 505.538 448.198 641.984 449.563C685.8 450.007 729.214 447.314 772.992 447.507C820.301 447.713 867.919 450.709 915.122 449.959" stroke="#3DB7A2" stroke-width="0.963181" stroke-miterlimit="10"/>
<path d="M-224.326 425.264C-209.139 424.806 -195.814 422.204 -182.614 415.851C-170.165 409.86 -158.655 404.3 -144.293 402.759C-122.712 400.447 -99.6313 404.337 -77.7505 407.513C-48.8576 411.7 -20.0129 416.951 8.88631 421.035C82.4413 431.434 157.459 426.062 230.547 426.214C366.892 426.497 503.209 426.569 639.576 427.119C730.66 427.49 821.701 427.44 912.766 427.629" stroke="#3DB7A2" stroke-width="0.963181" stroke-miterlimit="10"/>
<path d="M-226.657 402.935C-211.683 402.352 -198.2 399.949 -184.87 394.239C-172.323 388.864 -160.532 383.874 -146.419 382.394C-124.839 380.128 -101.819 383.921 -79.9132 386.796C-51.0962 390.584 -22.2626 395.237 6.57847 398.928C80.3242 408.376 154.951 403.727 228.215 403.879L428.431 404.295C496.425 404.436 564.541 406.734 632.545 407.137C677.632 407.401 722.336 404.546 767.453 404.981C815.146 405.438 862.776 405.179 910.433 405.278" stroke="#3DB7A2" stroke-width="0.963181" stroke-miterlimit="10"/>
<path d="M-228.988 380.612C-200.092 379.716 -176.56 366.423 -148.335 364.045C-126.647 362.223 -103.903 365.276 -81.9183 367.598C-53.1762 370.669 -24.4171 374.445 4.33557 377.453C78.2228 385.154 152.47 381.386 225.882 381.539L426.098 381.954C458.506 382.021 490.974 380.985 523.579 383.705C556.098 386.419 588.191 389.952 620.578 389.598C669.028 389.078 716.554 382.432 765.107 382.635C812.78 382.836 860.437 382.833 908.099 382.931" stroke="#3DB7A2" stroke-width="0.963181" stroke-miterlimit="10"/>
<path d="M-231.32 358.289C-203.066 357.886 -177.998 348.245 -150.143 346.743C-100.294 344.057 -48.1921 352.595 2.13017 356.343C76.0728 361.852 150.02 359.08 223.551 359.232L423.768 359.648C454.947 359.713 486.548 357.82 517.958 363.037C547.801 367.994 576.143 374.416 606.076 373.38C658.75 371.553 709.847 360.68 762.74 360.351C810.366 360.057 858.097 360.549 905.765 360.648" stroke="#3DB7A2" stroke-width="0.963181" stroke-miterlimit="10"/>
<path d="M-233.652 335.966C-205.855 336.023 -179.554 330.141 -151.944 329.504C-101.656 328.345 -50.6371 332.998 -0.0743673 335.238C73.8388 338.505 147.591 336.751 221.219 336.904L421.435 337.319C451.154 337.381 482.496 334.156 512.282 342.38C539.745 349.967 563.026 358.827 591.404 357.212C648.325 353.978 703.066 338.962 760.381 338.039C807.947 337.278 855.778 338.237 903.44 338.336" stroke="#3DB7A2" stroke-width="0.963181" stroke-miterlimit="10"/>
<path d="M-235.98 313.642C-208.409 313.996 -181.341 311.371 -153.837 311.354C-103.398 311.316 -52.8368 312.89 -2.30666 313.837C71.5183 315.225 145.2 314.427 218.891 314.58L419.107 314.996C447.176 315.054 479.692 310.169 507.371 321.343C516.13 324.879 524.204 330.127 532.919 333.782C548.036 340.126 563.524 341.029 578.968 339.94C639.4 335.659 697.081 317.013 758.041 315.722C805.559 314.716 853.462 315.92 901.112 316.018" stroke="#3DB7A2" stroke-width="0.963181" stroke-miterlimit="10"/>
<path d="M-238.313 291.308C-86.6118 292.38 64.9539 291.937 216.576 292.252L416.792 292.667C432.905 292.701 449.014 292.734 465.119 292.767C478.287 292.795 491.48 293.175 504.034 299.519C511.871 303.48 518.569 309.482 526.324 313.585C540.578 321.122 556.247 321.422 571.131 320.36C633.579 315.902 692.668 294.509 755.731 293.382C803.272 292.535 851.129 293.58 898.779 293.678" stroke="#3DB7A2" stroke-width="0.963181" stroke-miterlimit="10"/>
<path d="M-240.64 268.986C-88.9782 269.3 63.0161 271.602 214.472 270.112C281.047 269.459 347.051 267.751 413.969 269.894C441.517 270.782 475.253 264.688 501.995 277.072C510.191 280.869 517.464 286.559 525.565 290.486C540.183 297.546 555.658 298.164 570.776 297.057C632.48 292.546 691.109 272.359 753.405 271.065C800.925 270.082 848.825 271.263 896.47 271.362" stroke="#3DB7A2" stroke-width="0.963181" stroke-miterlimit="10"/>
<path d="M-242.972 246.656L110.355 247.389C143.9 247.459 178.067 249.237 211.292 247.064C241.939 245.078 271.67 238.679 302.619 238.328C337.968 237.929 373.152 241.611 408.687 245.065C438.827 247.974 471.92 243.711 501.508 253.796C510.939 257.014 519.927 261.757 529.335 265.09C544.983 270.626 560.724 271.729 576.487 270.697C635.348 266.835 691.728 249.876 751.065 248.724C798.603 247.798 846.486 248.922 894.136 249.021" stroke="#3DB7A2" stroke-width="0.963181" stroke-miterlimit="10"/>
<path d="M-245.306 224.327L108.022 225.06C140.663 225.127 175.537 228.404 207.316 223.319C234.817 218.919 259.791 207.297 288.079 205.528C325.556 203.192 364.284 212.557 401.882 218.896C420.549 222.048 439.341 225.041 458.024 225.683C472.914 226.192 487.34 226.678 502.24 229.959C530.749 236.239 556.695 244 585.658 242.654C640.529 240.093 693.561 227.054 748.768 226.412C796.362 225.862 844.143 226.61 891.81 226.708" stroke="#3DB7A2" stroke-width="0.963181" stroke-miterlimit="10"/>
<path d="M-247.636 202.026L105.692 202.759C136.962 202.824 173.661 207.949 203.11 199.392C227.49 192.311 246.363 175.177 272.419 171.788C311.154 166.745 355.955 183.379 394.594 192.339C414.68 196.997 435.092 201.729 455.404 203.109C471.434 204.195 487.253 203.978 503.352 205.946C534.507 209.751 564.829 214.777 595.911 214.068C646.466 212.92 695.78 204.126 746.497 204.083C794.15 204.04 841.838 204.281 889.505 204.38" stroke="#3DB7A2" stroke-width="0.963181" stroke-miterlimit="10"/>
<path d="M-249.97 179.674L153.101 180.511C168.782 180.543 185.02 181.886 199.163 175.683C221.052 166.097 233.262 144.049 258.137 139.205C275.468 135.826 295.213 141.087 312.778 145.341C337.959 151.427 362.859 159.236 387.874 166.25C409.195 172.225 431.058 178.549 452.788 180.552C469.817 182.124 486.903 181.192 503.945 182.115C537.671 183.927 571.161 186.142 604.764 186.109C651.421 186.064 697.432 181.35 744.139 181.72C791.825 182.097 839.463 181.917 887.119 182.016" stroke="#3DB7A2" stroke-width="0.963181" stroke-miterlimit="10"/>
<path d="M-252.299 157.351L150.772 158.187C166.094 158.219 182.805 160.109 196.109 152.737C216.525 141.396 222.98 115.624 247.797 110.012C265.217 106.064 285.92 112.328 303.53 117.066C330.177 124.242 356.445 133.393 382.872 141.621C404.951 148.497 427.781 155.973 450.451 158.211C468.021 159.955 485.819 158.706 503.323 158.941C538.889 159.421 574.438 159.781 609.971 160.022C701.648 160.782 793.181 159.52 884.809 159.71" stroke="#3DB7A2" stroke-width="0.963181" stroke-miterlimit="10"/>
<path d="M-254.629 135.023L148.442 135.859C163.691 135.891 180.657 137.947 193.804 130.432C214.07 118.845 219.325 92.3028 244.308 86.7082C261.782 82.7885 282.526 89.0642 300.153 93.8593C327.068 101.207 353.567 110.608 380.251 119.07C402.42 126.089 425.382 133.741 448.174 135.957C465.753 137.667 483.564 136.6 501.041 136.636L882.484 137.427" stroke="#3DB7A2" stroke-width="0.963181" stroke-miterlimit="10"/>
<path d="M-256.96 112.7L146.11 113.536C161.689 113.568 177.992 115.042 191.872 108.445C213.247 98.2838 223.746 75.0992 248.499 69.9595C265.852 66.3526 285.944 72.001 303.532 76.4146C329.169 82.8486 354.516 91.0749 379.964 98.4704C401.56 104.742 423.718 111.391 445.771 113.548C463.382 115.293 481.193 114.231 498.711 114.267L880.148 115.059" stroke="#3DB7A2" stroke-width="0.963181" stroke-miterlimit="10"/>
<path d="M-259.293 90.3702L143.778 91.2065C159.771 91.2396 176.02 92.2524 190.95 87.3199C214.578 79.5253 231.662 60.982 257.292 57.1646C274.532 54.6048 293.206 58.537 310.683 62.2105C334.442 67.2061 358.005 73.7553 381.646 79.5817C402.101 84.6218 422.923 89.7935 443.637 91.379C461.217 92.7246 478.883 91.8961 496.372 91.9324L877.815 92.7237" stroke="#3DB7A2" stroke-width="0.963181" stroke-miterlimit="10"/>
<path d="M-261.623 68.0472L91.7047 68.7802C124.021 68.8473 159.252 72.5974 190.481 66.6002C217.112 61.4871 240.56 48.3702 268.172 46.1734C306.101 43.1556 346.227 54.3668 384.223 61.4695C456.761 75.0247 530.299 69.6901 602.414 69.8397L875.485 70.4063" stroke="#3DB7A2" stroke-width="0.963181" stroke-miterlimit="10"/>
<path d="M-263.957 45.7179L89.3714 46.4509C122.706 46.5201 156.998 48.6346 189.915 45.7886C219.772 43.2094 248.358 35.4764 278.578 34.7878C314.526 33.9744 350.438 38.9724 386.581 43.1855C457.7 51.4783 529.404 47.3638 600.052 47.5104L873.152 48.0769" stroke="#3DB7A2" stroke-width="0.963181" stroke-miterlimit="10"/>
<path d="M-266.287 23.3892L-23.0422 23.8939C47.4585 24.0401 118.384 25.855 188.702 24.4185C221.238 23.7574 253.408 20.5684 286.066 20.8581C319.952 21.1447 353.724 22.1938 387.726 23.8126C457.845 27.1627 527.898 25.0368 597.751 25.1818L870.821 25.7483" stroke="#3DB7A2" stroke-width="0.963181" stroke-miterlimit="10"/>
<path d="M823.898 3.32098L852.45 276.762C859.606 345.292 864.226 414.414 875.585 482.861C880.678 513.558 885.661 544.083 888.601 574.854C892.124 611.86 892.82 648.785 895.534 685.772C900.711 756.529 909.981 827.619 917.373 898.409L942.805 1141.97" stroke="#3DB7A2" stroke-width="0.963181" stroke-miterlimit="10"/>
<path d="M801.598 3.27476L830.15 276.716C837.152 343.771 839.592 412.866 854.627 479.551C861.131 508.417 867.68 536.84 869.906 565.999C872.944 605.599 871.899 644.962 873.719 684.497C877.009 755.421 887.637 827.316 895.055 898.351L920.488 1141.93" stroke="#3DB7A2" stroke-width="0.963181" stroke-miterlimit="10"/>
<path d="M779.306 3.22889L819.189 385.189C822.382 415.762 824.649 445.969 833.721 476.121C841.852 503.146 849.768 529.09 851.369 556.842C853.807 599.133 851.062 640.998 851.958 683.166C853.487 754.206 865.327 827.043 872.768 898.305L898.202 1141.88" stroke="#3DB7A2" stroke-width="0.963181" stroke-miterlimit="10"/>
<path d="M757.006 3.18221L796.889 385.142C799.995 414.89 801.542 444.349 812.564 473.305C822.298 498.865 831.024 522.226 832.229 549.118C834.228 593.73 829.931 637.726 830.056 682.147C830.158 717.25 835.277 752.773 838.959 788.037L875.902 1141.83" stroke="#3DB7A2" stroke-width="0.963181" stroke-miterlimit="10"/>
<path d="M734.714 3.13615L774.597 385.096C777.643 414.263 778.331 443.823 790.852 471.848C801.891 496.557 810.658 517.921 811.782 544.579C813.755 590.688 808.179 635.985 807.878 681.822C807.642 716.964 813 752.659 816.689 787.98L853.633 1141.79" stroke="#3DB7A2" stroke-width="0.963181" stroke-miterlimit="10"/>
<path d="M712.416 3.09017C717.398 50.811 721.783 98.5705 727.402 146.287C732.537 190.024 734.101 233.685 739.201 277.41C743.388 313.318 747.658 349.147 752.25 385.073C756.013 414.469 756.205 443.635 768.473 472.007C779.22 496.869 788.05 518.665 789.158 545.329C791.069 591.125 785.822 636.195 785.589 681.759C785.407 716.924 790.678 752.601 794.368 787.934L831.312 1141.74" stroke="#3DB7A2" stroke-width="0.963181" stroke-miterlimit="10"/>
<path d="M690.116 3.04362C695.099 50.7645 699.551 98.5184 705.108 146.24C710.403 191.503 704.958 235.935 709.375 281.122C712.842 316.55 720.975 350.731 728.273 385.894C734.407 415.505 734.988 444.752 745.414 473.831C754.718 499.738 763.31 523.765 764.595 550.827C766.682 594.877 762.776 638.367 763.088 682.236C763.337 717.282 768.397 752.731 772.07 787.91L809.012 1141.69" stroke="#3DB7A2" stroke-width="0.963181" stroke-miterlimit="10"/>
<path d="M667.822 2.99729C672.806 50.7295 678.11 98.4738 682.776 146.205C687.442 193.937 673.419 239.177 675.844 286.687C677.636 321.868 691.918 353.522 702.995 387.31C712.679 416.798 713.568 447.03 721.875 476.771C729.555 504.268 737.158 530.917 738.907 558.993C741.493 600.579 739.185 641.79 740.338 683.264C742.308 754.276 753.85 826.868 761.285 898.073L786.718 1141.65" stroke="#3DB7A2" stroke-width="0.963181" stroke-miterlimit="10"/>
<path d="M645.525 2.95094C650.502 50.6205 656.904 98.5322 660.48 146.176C664.269 196.94 641.189 242.758 641.014 292.91C640.891 328.2 662.116 357.223 677.3 388.97C691.337 418.33 691.81 449.432 698.19 480.148C704.293 509.526 710.422 538.557 712.84 568.143C716.019 607.02 715.437 645.702 717.523 684.52C721.327 755.405 731.594 827.055 739.003 898.016L764.438 1141.6" stroke="#3DB7A2" stroke-width="0.963181" stroke-miterlimit="10"/>
<path d="M623.23 2.90446C628.196 50.4659 635.438 98.6411 638.136 146.141C641.186 199.795 609.714 245.977 607.207 298.623C605.496 334.547 633.19 360.947 651.926 390.465C670.343 419.476 669.742 451.441 674.605 483.207C684.989 551.026 689.305 617.836 694.741 685.628C706.918 837.414 726.273 989.733 742.128 1141.57" stroke="#3DB7A2" stroke-width="0.963181" stroke-miterlimit="10"/>
<path d="M600.935 2.85878C605.898 50.3974 613.299 98.6243 615.846 146.095C618.84 201.991 580.509 248.034 576.866 302.579C574.382 339.709 606.381 363.357 627.76 391.338C649.343 419.587 647.681 452.887 651.483 485.157C659.369 552.186 665.529 619.131 672.207 686.129C687.327 837.904 703.979 989.705 719.828 1141.49" stroke="#3DB7A2" stroke-width="0.963181" stroke-miterlimit="10"/>
<path d="M578.641 2.81231C583.61 50.3965 590.703 98.5088 593.596 146.038C597.011 202.635 556.104 248.336 552.628 303.508C550.254 341.423 582.91 363.621 605.24 391.411C627.571 419.2 625.701 453.337 629.056 485.469L697.554 1141.46" stroke="#3DB7A2" stroke-width="0.963181" stroke-miterlimit="10"/>
<path d="M556.352 2.76613C561.316 50.2991 568.746 98.543 571.258 146.003C574.145 200.868 539.104 247.06 535.827 300.712C533.605 337.136 563.796 362.244 583.94 390.865C604.343 419.852 603.36 452.949 606.748 485.4L675.248 1141.42" stroke="#3DB7A2" stroke-width="0.963181" stroke-miterlimit="10"/>
<path d="M534.041 2.71984C539.013 50.3382 545.887 98.3704 548.963 145.951C552.341 198.171 525.037 244.208 523.628 295.598C522.659 331.126 547.197 358.874 564.209 389.51C581.107 419.929 581.052 452.828 584.449 485.36L652.948 1141.37" stroke="#3DB7A2" stroke-width="0.963181" stroke-miterlimit="10"/>
<path d="M511.749 2.6735C516.73 50.383 522.569 98.1853 526.703 145.887C530.965 195.092 512.504 240.619 513.677 289.413C514.507 324.58 532.162 354.955 545.268 387.814C557.913 419.522 558.742 452.668 562.153 485.33L630.65 1141.32" stroke="#3DB7A2" stroke-width="0.963181" stroke-miterlimit="10"/>
<path d="M489.449 2.62767C494.433 50.3599 499.236 98.0975 504.436 145.824C509.485 192.219 499.988 237.041 503.549 283.285C506.274 318.581 517.204 351.555 526.253 386.124C534.819 418.837 536.402 452.286 539.847 485.285L608.345 1141.28" stroke="#3DB7A2" stroke-width="0.963181" stroke-miterlimit="10"/>
<path d="M467.158 2.58112C472.14 50.2906 476.423 98.0669 482.15 145.778C487.472 190.107 485.912 234.126 490.884 278.42C494.886 314.072 500.654 349.278 506.37 384.864C511.731 418.242 514.061 451.819 517.55 485.232L586.048 1141.23" stroke="#3DB7A2" stroke-width="0.963181" stroke-miterlimit="10"/>
<path d="M444.858 2.53485C454.377 93.6952 463.397 184.872 473.292 276.033C504.58 564.41 533.643 852.811 563.754 1141.19" stroke="#3DB7A2" stroke-width="0.963181" stroke-miterlimit="10"/>
<path d="M422.57 2.4887C428.552 49.3237 429.67 96.1827 434.402 143.021C438.885 187.428 447.215 231.757 451.377 276.141C478.424 564.395 511.365 852.867 541.466 1141.13" stroke="#3DB7A2" stroke-width="0.963181" stroke-miterlimit="10"/>
<path d="M400.277 2.44241C405.502 47.0388 398.084 90.317 402.743 134.929C407.685 182.257 423.335 228.708 428.94 275.958C445.213 412.424 457.375 549.091 471.626 685.576L519.19 1141.09" stroke="#3DB7A2" stroke-width="0.963181" stroke-miterlimit="10"/>
<path d="M377.974 2.39616C381.491 44.4561 362.81 81.6204 367.45 123.768C373.101 175.162 397.766 224.386 406.171 275.535C412.095 311.583 414.081 348.238 417.852 384.356L496.865 1141.05" stroke="#3DB7A2" stroke-width="0.963181" stroke-miterlimit="10"/>
<path d="M355.655 2.35025C357.315 42.4767 326.737 71.4711 331.314 111.871C337.618 167.512 371.779 219.973 383.351 275.055C390.87 310.857 391.786 348.318 395.545 384.316L474.557 1141" stroke="#3DB7A2" stroke-width="0.963181" stroke-miterlimit="10"/>
<path d="M333.366 2.30357C333.597 24.3777 324.446 38.2757 312.523 54.7407C302.688 68.3356 295.036 83.2443 297.094 101.594C300.414 130.772 316.005 161.086 327.763 188.438C339.88 216.622 353.551 245.207 360.707 274.701C369.321 310.214 369.542 348.431 373.285 384.275L452.297 1140.95" stroke="#3DB7A2" stroke-width="0.963181" stroke-miterlimit="10"/>
<path d="M311.078 2.25722C311.381 24.9178 300.486 36.5922 286.052 51.1054C274.117 63.1079 265.332 76.5229 267.489 95.2712C270.969 125.554 288.509 156.999 301.522 184.997C315.049 214.111 330.677 243.844 338.412 274.649C347.294 310.009 347.26 348.492 350.991 384.223L430.002 1140.91" stroke="#3DB7A2" stroke-width="0.963181" stroke-miterlimit="10"/>
<path d="M288.779 2.21109C289.087 24.8717 278.187 36.5461 263.753 51.0593C251.813 63.0617 243.033 76.4768 245.184 95.225C248.664 125.508 266.204 156.953 279.217 184.951C292.745 214.065 308.372 243.798 316.107 274.602C324.989 309.963 324.955 348.446 328.686 384.177L407.698 1140.86" stroke="#3DB7A2" stroke-width="0.963181" stroke-miterlimit="10"/>
<path d="M266.482 2.16455C266.707 24.2387 257.557 38.1366 245.639 54.6017C235.798 68.1966 228.118 83.1052 230.204 101.455C233.524 130.633 249.115 160.947 260.873 188.299C272.99 216.483 286.656 245.068 293.811 274.562C302.425 310.075 302.647 348.292 306.39 384.136L385.401 1140.82" stroke="#3DB7A2" stroke-width="0.963181" stroke-miterlimit="10"/>
<path d="M244.217 2.11843C245.878 42.2449 215.3 71.2392 219.876 111.639C226.181 167.281 260.342 219.741 271.914 274.824C279.432 310.625 280.348 348.086 284.107 384.084L363.119 1140.77" stroke="#3DB7A2" stroke-width="0.963181" stroke-miterlimit="10"/>
<path d="M221.9 2.07219C225.416 44.1321 206.736 81.2964 211.376 123.444C217.026 174.838 241.692 224.062 250.097 275.211C256.021 311.259 258.012 347.914 261.784 384.032L340.796 1140.72" stroke="#3DB7A2" stroke-width="0.963181" stroke-miterlimit="10"/>
<path d="M199.613 2.02579C204.838 46.6222 197.42 89.9003 202.079 134.513C207.021 181.841 222.671 228.292 228.276 275.541C244.549 412.007 256.711 548.675 270.962 685.159L318.526 1140.68" stroke="#3DB7A2" stroke-width="0.963181" stroke-miterlimit="10"/>
<path d="M177.316 1.97978C183.298 48.8147 184.411 95.6738 189.148 142.512C193.632 186.919 201.955 231.248 206.124 275.632C233.17 563.887 266.106 852.358 296.206 1140.62" stroke="#3DB7A2" stroke-width="0.963181" stroke-miterlimit="10"/>
<path d="M155.012 1.93372L273.908 1140.58" stroke="#3DB7A2" stroke-width="0.963181" stroke-miterlimit="10"/>
<path d="M132.711 1.88708L251.607 1140.54" stroke="#3DB7A2" stroke-width="0.963181" stroke-miterlimit="10"/>
<path d="M110.418 1.84094L229.314 1140.49" stroke="#3DB7A2" stroke-width="0.963181" stroke-miterlimit="10"/>
<path d="M88.1211 1.79504L207.017 1140.45" stroke="#3DB7A2" stroke-width="0.963181" stroke-miterlimit="10"/>
<path d="M65.8281 1.74939L184.724 1140.4" stroke="#3DB7A2" stroke-width="0.963181" stroke-miterlimit="10"/>
<path d="M43.5156 1.70227L162.412 1140.35" stroke="#3DB7A2" stroke-width="0.963181" stroke-miterlimit="10"/>
<path d="M21.2305 1.65625L140.127 1140.31" stroke="#3DB7A2" stroke-width="0.963181" stroke-miterlimit="10"/>
<path d="M-1.06478 1.60991C3.91875 49.3364 8.38848 97.0961 13.9178 144.824C18.9478 188.259 20.5478 231.618 25.5089 275.047C58.4286 563.422 87.7155 851.846 117.831 1140.26" stroke="#3DB7A2" stroke-width="0.963181" stroke-miterlimit="10"/>
<path d="M-23.3614 1.56351C-18.3773 49.2957 -13.7666 97.0443 -8.37312 144.777C-3.44509 188.434 -7.77621 231.388 -3.6103 274.987C2.92292 343.27 7.23457 413.251 20.7729 481.282C34.2948 549.21 40.8463 616.526 47.9652 684.703L95.529 1140.21" stroke="#3DB7A2" stroke-width="0.963181" stroke-miterlimit="10"/>
<path d="M-45.6572 1.51733C-40.6731 49.2496 -35.3347 96.9996 -30.7031 144.731C-26.4059 188.933 -38.0665 230.939 -35.6568 274.92C-33.8093 308.564 -28.809 342.624 -25.2897 376.328C-21.6949 410.755 -17.902 443.976 -8.37897 478.017C1.44047 513.1 11.299 547.033 15.0294 582.759L73.2332 1140.17" stroke="#3DB7A2" stroke-width="0.963181" stroke-miterlimit="10"/>
<path d="M-67.9516 1.47111C-62.9728 49.1521 -56.7122 97.0236 -52.9974 144.685C-49.5094 189.739 -68.8855 230.311 -68.5661 274.852C-68.3363 306.83 -62.3896 340.101 -59.0331 372.245C-55.3473 407.543 -50.5033 439.998 -38.1276 474.466C-25.1716 510.518 -11.1626 545.222 -7.24795 582.712L50.9558 1140.12" stroke="#3DB7A2" stroke-width="0.963181" stroke-miterlimit="10"/>
<path d="M-90.2497 1.42468C-85.2798 49.0203 -78.3237 97.0754 -75.341 144.638C-72.4453 190.716 -98.9673 229.594 -100.405 274.786C-101.374 305.185 -94.766 337.876 -91.56 368.58C-89.9067 384.413 -89.1446 400.586 -86.031 416.359C-82.3273 435.116 -74.738 453.415 -67.1319 471.275C-51.4503 508.061 -33.6376 543.536 -29.5517 582.666L28.6521 1140.08" stroke="#3DB7A2" stroke-width="0.963181" stroke-miterlimit="10"/>
<path d="M-112.544 1.37891C-107.575 48.9688 -100.567 97.0297 -97.624 144.593C-94.717 191.649 -126.911 228.848 -129.084 274.727C-130.464 304.129 -123.65 336.291 -120.541 366.067C-118.914 381.65 -118.245 397.634 -115.057 413.146C-111.119 432.399 -102.452 451.058 -93.928 469.108C-76.2829 506.461 -56.0573 542.181 -51.8347 582.62L6.36911 1140.03" stroke="#3DB7A2" stroke-width="0.963181" stroke-miterlimit="10"/>
</g>
</mask>
<g mask="url(#mask0_4775_202673)">
<g filter="url(#filter0_f_4775_202673)">
<path d="M-3 282L834 282L834 805L-3 805L-3 282Z" fill="url(#paint0_angular_4775_202673)" fill-opacity="0.4"/>
</g>
</g>
<defs>
<filter id="filter0_f_4775_202673" x="-503" y="-218" width="1837" height="1523" filterUnits="userSpaceOnUse" color-interpolation-filters="sRGB">
<feFlood flood-opacity="0" result="BackgroundImageFix"/>
<feBlend mode="normal" in="SourceGraphic" in2="BackgroundImageFix" result="shape"/>
<feGaussianBlur stdDeviation="250" result="effect1_foregroundBlur_4775_202673"/>
</filter>
<radialGradient id="paint0_angular_4775_202673" cx="0" cy="0" r="1" gradientUnits="userSpaceOnUse" gradientTransform="translate(259.206 518.564) rotate(154.354) scale(724.417 421.983)">
<stop offset="0.285549" stop-color="#8458B3"/>
<stop offset="0.556778" stop-color="#F19E79"/>
</radialGradient>
<clipPath id="clip0_4775_202673">
<rect width="1137.7" height="1145.41" fill="white" transform="matrix(0.999998 0.00207461 0.103854 0.994593 -268.957 0.780151)"/>
</clipPath>
</defs>
</svg>
