<svg width="375" height="1022" viewBox="0 0 375 1022" fill="none" xmlns="http://www.w3.org/2000/svg">
<mask id="mask0_4494_172014" style="mask-type:alpha" maskUnits="userSpaceOnUse" x="-516" y="0" width="1200" height="1317">
<g clip-path="url(#clip0_4494_172014)">
<path d="M-515.673 0.320352L675.621 119.084L683.703 1316.26L-507.591 1197.49C-509.638 894.264 -511.685 591.039 -513.732 287.815C-514.419 191.986 -515.066 96.1539 -515.673 0.320352Z" stroke="#3DB7A2" stroke-width="1.11822" stroke-miterlimit="10"/>
<path d="M-508.859 1009.71L682.435 1128.47" stroke="#3DB7A2" stroke-width="1.11822" stroke-miterlimit="10"/>
<path d="M-509.016 986.239L682.279 1105" stroke="#3DB7A2" stroke-width="1.11822" stroke-miterlimit="10"/>
<path d="M-509.176 962.762L682.118 1081.53" stroke="#3DB7A2" stroke-width="1.11822" stroke-miterlimit="10"/>
<path d="M-509.332 939.292L681.962 1058.06" stroke="#3DB7A2" stroke-width="1.11822" stroke-miterlimit="10"/>
<path d="M-509.492 915.815L681.802 1034.58" stroke="#3DB7A2" stroke-width="1.11822" stroke-miterlimit="10"/>
<path d="M-509.652 892.338L681.642 1011.1" stroke="#3DB7A2" stroke-width="1.11822" stroke-miterlimit="10"/>
<path d="M-509.809 868.868L681.486 987.632" stroke="#3DB7A2" stroke-width="1.11822" stroke-miterlimit="10"/>
<path d="M-509.965 845.392L681.329 964.155" stroke="#3DB7A2" stroke-width="1.11822" stroke-miterlimit="10"/>
<path d="M-510.125 821.92L681.169 940.684" stroke="#3DB7A2" stroke-width="1.11822" stroke-miterlimit="10"/>
<path d="M-510.285 798.444L681.009 917.208" stroke="#3DB7A2" stroke-width="1.11822" stroke-miterlimit="10"/>
<path d="M-510.441 774.974L680.853 893.737" stroke="#3DB7A2" stroke-width="1.11822" stroke-miterlimit="10"/>
<path d="M-510.602 751.498L680.693 870.261" stroke="#3DB7A2" stroke-width="1.11822" stroke-miterlimit="10"/>
<path d="M-510.762 728.021C-209.085 758.096 92.673 785.96 394.355 818.446C440.222 823.384 485.99 825.027 531.843 829.7C581.396 834.76 630.986 842.742 680.526 846.796" stroke="#3DB7A2" stroke-width="1.11822" stroke-miterlimit="10"/>
<path d="M-510.919 704.551C-209.272 734.623 92.656 768.258 394.256 794.856C441.398 799.018 487.943 795.056 535.143 799.767C583.765 804.615 631.756 818.97 680.369 823.32" stroke="#3DB7A2" stroke-width="1.11822" stroke-miterlimit="10"/>
<path d="M-511.078 681.074L175.244 749.495C248.008 756.75 321.61 767.282 394.262 771.079C443.214 773.632 490.635 762.681 539.757 767.357C587.341 771.885 632.66 794.355 680.216 799.844" stroke="#3DB7A2" stroke-width="1.11822" stroke-miterlimit="10"/>
<path d="M-511.233 657.603L280.441 736.528C318.098 740.282 356.803 746.731 394.295 747.28C445.122 747.98 493.428 729.724 544.687 734.392C591.418 738.65 633.443 769.56 680.091 776.394" stroke="#3DB7A2" stroke-width="1.11822" stroke-miterlimit="10"/>
<path d="M-511.393 634.127L280.281 713.051C317.771 716.789 357.053 724.079 394.27 723.524C446.748 722.774 495.742 697.958 548.893 702.665C595.255 706.779 633.705 745.133 679.883 752.883" stroke="#3DB7A2" stroke-width="1.11822" stroke-miterlimit="10"/>
<path d="M-511.553 610.656L280.122 689.581C317.516 693.309 357.027 700.902 394.111 700.053C447.871 698.833 496.821 669.347 551.45 674.159C598.151 678.265 633.32 721.729 679.747 729.421" stroke="#3DB7A2" stroke-width="1.11822" stroke-miterlimit="10"/>
<path d="M-511.709 587.185C-352.884 604.215 -193.979 618.861 -35.1497 634.695L279.948 666.108C317.342 669.836 356.852 677.43 393.937 676.581C447.697 675.36 496.647 645.881 551.276 650.687C597.977 654.798 633.146 698.257 679.573 705.948" stroke="#3DB7A2" stroke-width="1.11822" stroke-miterlimit="10"/>
<path d="M-511.866 563.709C-469.263 568.334 -426.824 568.85 -384.236 572.928C-342.119 576.965 -300.131 583.107 -258.04 588.5C-183.879 598.082 -109.489 603.794 -35.3126 611.189L279.785 642.602C317.275 646.339 356.557 653.629 393.774 653.08C446.251 652.3 495.245 627.509 548.397 632.221C594.759 636.329 633.209 674.683 679.387 682.433" stroke="#3DB7A2" stroke-width="1.11822" stroke-miterlimit="10"/>
<path d="M-512.026 540.245C-472.434 544.091 -433.497 540.86 -393.989 543.794C-349.37 547.105 -304.889 556.601 -260.394 563.764C-185.71 575.768 -110.232 580.301 -35.4608 587.756L279.637 619.169C317.293 622.923 355.998 629.372 393.49 629.891C444.317 630.597 492.623 612.341 543.882 617.009C590.613 621.261 632.638 652.177 679.286 659.005" stroke="#3DB7A2" stroke-width="1.11822" stroke-miterlimit="10"/>
<path d="M-512.188 516.755C-475.858 519.641 -441.289 512.183 -405.177 513.785C-357.977 515.87 -310.127 529.691 -263.203 538.706C-187.932 553.161 -111.127 556.738 -35.6462 564.263L174.111 585.175C246.875 592.429 320.477 602.961 393.129 606.758C442.081 609.311 489.502 598.36 538.623 603.036C586.208 607.565 631.527 630.034 679.083 635.523" stroke="#3DB7A2" stroke-width="1.11822" stroke-miterlimit="10"/>
<path d="M-512.344 493.28C-478.776 495.4 -448.842 483.782 -415.72 484.171C-366.441 484.753 -314.644 503.161 -265.804 513.784C-189.989 530.279 -111.974 533.2 -35.7728 540.796C107.063 555.036 250.03 571 392.837 583.592C439.979 587.753 486.524 583.785 533.724 588.503C582.346 593.35 630.337 607.705 678.95 612.055" stroke="#3DB7A2" stroke-width="1.11822" stroke-miterlimit="10"/>
<path d="M-512.499 469.804C-480.504 471.66 -454.726 456.422 -423.512 456.177C-400.817 455.981 -377.215 462.294 -354.726 467.659C-325.619 474.604 -296.654 482.541 -267.53 489.38C-191.42 507.257 -112.552 509.682 -35.9218 517.321C106.92 531.562 249.792 544.854 392.63 560.23C438.497 565.174 484.265 566.811 530.118 571.49C579.671 576.544 629.261 584.533 678.801 588.58" stroke="#3DB7A2" stroke-width="1.11822" stroke-miterlimit="10"/>
<path d="M-512.662 446.333C-496.702 447.409 -482.473 446.064 -467.99 440.802C-454.333 435.841 -441.703 431.232 -426.496 431.097C-403.646 430.899 -379.858 437.308 -357.255 442.851C-327.407 450.163 -297.719 458.579 -267.855 465.785C-191.843 484.13 -112.685 486.213 -36.1146 493.847C106.728 508.087 249.562 522.106 392.4 536.627C487.806 546.329 583.209 555.589 678.614 565.101" stroke="#3DB7A2" stroke-width="1.11822" stroke-miterlimit="10"/>
<path d="M-512.821 422.856C-497.07 423.78 -482.696 422.658 -468.144 418.08C-454.447 413.768 -441.58 409.781 -426.64 409.685C-403.796 409.534 -380.063 415.836 -357.402 421.068C-327.593 427.958 -297.856 435.75 -268.012 442.542C-191.703 459.918 -113.028 462.712 -36.2731 470.364L173.484 491.275C244.717 498.377 315.859 507.736 387.076 515.111C434.295 519.998 481.431 521.599 528.662 526.666C578.592 532.021 628.528 536.622 678.456 541.6" stroke="#3DB7A2" stroke-width="1.11822" stroke-miterlimit="10"/>
<path d="M-512.979 399.385C-482.607 401.408 -456.589 389.981 -426.77 390.393C-403.857 390.715 -380.337 396.219 -357.538 400.884C-327.734 407.02 -297.985 413.892 -268.164 419.963C-191.528 435.535 -113.341 439.208 -36.4313 446.876L173.326 467.787C207.278 471.172 241.406 473.414 275.294 479.58C309.092 485.731 342.359 492.69 376.332 495.634C427.154 500.049 477.635 497.993 528.492 503.171C578.426 508.257 628.364 513.128 678.297 518.106" stroke="#3DB7A2" stroke-width="1.11822" stroke-miterlimit="10"/>
<path d="M-513.139 375.914C-483.491 378.385 -456.238 370.915 -426.895 372.201C-374.385 374.505 -320.663 388.72 -268.316 397.767C-191.398 411.064 -113.627 415.743 -36.5921 423.423L173.165 444.334C205.83 447.591 239.137 448.853 271.517 457.495C302.281 465.706 331.323 475.289 362.795 477.272C418.176 480.759 472.832 474.669 528.29 479.738C578.226 484.303 628.192 489.697 678.131 494.676" stroke="#3DB7A2" stroke-width="1.11822" stroke-miterlimit="10"/>
<path d="M-513.295 352.444C-484.174 355.347 -456.012 351.915 -427.015 354.076C-374.202 358.013 -321.217 368.075 -268.463 375.577C-191.346 386.537 -113.884 392.256 -36.7478 399.946L173.009 420.857C204.144 423.961 237.316 423.811 267.686 435.417C295.687 446.122 319.177 457.724 349.078 458.946C409.054 461.402 467.951 451.374 528.104 456.276C578.025 460.349 628.048 466.24 677.981 471.218" stroke="#3DB7A2" stroke-width="1.11822" stroke-miterlimit="10"/>
<path d="M-513.455 328.973C-484.6 332.161 -455.968 332.198 -427.145 334.994C-374.289 340.114 -321.468 346.923 -268.616 353.077C-191.4 362.073 -114.11 368.78 -36.9078 376.476L172.849 397.387C202.256 400.319 236.828 398.561 264.688 413.021C273.505 417.597 281.428 423.884 290.186 428.58C305.379 436.728 321.515 439.252 337.81 439.698C401.572 441.425 463.922 427.919 527.933 432.811C577.828 436.624 627.9 442.777 677.821 447.754" stroke="#3DB7A2" stroke-width="1.11822" stroke-miterlimit="10"/>
<path d="M-513.61 305.492C-354.758 322.124 -195.892 337.166 -37.0451 353.002L172.712 373.913C189.593 375.596 206.469 377.279 223.342 378.961C237.137 380.336 250.923 382.081 263.429 389.968C271.236 394.892 277.64 401.823 285.347 406.886C299.511 416.188 315.899 418.103 331.605 418.52C397.498 420.268 461.604 404.048 527.801 409.325C577.704 413.307 627.745 419.289 677.666 424.266" stroke="#3DB7A2" stroke-width="1.11822" stroke-miterlimit="10"/>
<path d="M-513.768 282.021C-354.879 297.861 -195.845 315.804 -36.9867 329.744C32.8414 335.874 102.179 340.849 172.081 349.923C200.857 353.665 236.832 350.773 263.586 366.397C271.785 371.187 278.825 377.852 286.911 382.768C301.507 391.611 317.659 393.837 333.614 394.231C398.733 395.848 462.234 380.835 527.644 385.861C577.54 389.698 627.611 395.827 677.527 400.803" stroke="#3DB7A2" stroke-width="1.11822" stroke-miterlimit="10"/>
<path d="M-513.929 258.545L-143.764 295.448C-108.621 298.951 -73.0007 304.297 -37.9627 305.433C-5.64557 306.501 26.1637 302.883 58.6295 305.683C95.7112 308.883 132.202 316.314 169.085 323.544C200.371 329.654 235.483 328.602 265.456 342.124C275.009 346.438 283.941 352.294 293.459 356.724C309.289 364.087 325.671 366.844 342.294 367.383C404.368 369.384 465.181 357.501 527.477 362.372C577.385 366.27 627.444 372.338 677.366 377.315" stroke="#3DB7A2" stroke-width="1.11822" stroke-miterlimit="10"/>
<path d="M-514.09 235.067L-143.925 271.97C-109.729 275.379 -73.5209 282.357 -39.7009 280.315C-10.4327 278.549 16.9259 269.008 46.7489 270.061C86.2589 271.463 125.882 285.17 164.631 295.613C183.869 300.803 203.254 305.84 222.766 308.419C238.316 310.472 253.383 312.453 268.661 317.391C297.892 326.844 324.286 337.574 354.773 339.136C412.532 342.083 469.436 333.938 527.351 338.916C577.28 343.211 627.271 348.877 677.21 353.856" stroke="#3DB7A2" stroke-width="1.11822" stroke-miterlimit="10"/>
<path d="M-514.247 211.62L-144.082 248.523C-111.322 251.789 -73.3909 260.877 -41.6564 254.984C-15.3854 250.108 6.14444 234.207 33.7938 233.344C74.8987 232.058 120.142 253.952 159.715 267.229C180.285 274.131 201.19 281.144 222.333 284.658C239.019 287.428 255.618 288.819 272.286 292.515C304.543 299.661 335.802 307.993 368.444 310.434C421.537 314.411 474.111 310.302 527.26 315.445C577.198 320.274 627.144 325.403 677.083 330.382" stroke="#3DB7A2" stroke-width="1.11822" stroke-miterlimit="10"/>
<path d="M-514.404 188.12L-92.1264 230.218C-75.6984 231.856 -58.8204 234.914 -43.3659 229.905C-19.4476 222.168 -4.39746 200.471 22.1634 197.975C40.6698 196.23 60.8218 203.725 78.7927 209.949C104.556 218.858 129.848 229.533 155.344 239.39C177.073 247.79 199.335 256.607 221.901 260.914C239.584 264.292 257.584 265.07 275.346 267.774C310.502 273.109 345.368 278.84 380.582 282.243C429.478 286.968 478.174 286.768 527.078 291.931C577.007 297.201 626.945 301.887 676.872 306.864" stroke="#3DB7A2" stroke-width="1.11822" stroke-miterlimit="10"/>
<path d="M-514.565 164.65L-92.2874 206.748C-76.2347 208.348 -58.918 212.025 -44.2223 205.713C-21.6686 195.998 -12.2677 169.838 14.3116 166.535C32.9687 164.208 54.0214 172.845 71.9897 179.577C99.1779 189.771 125.767 201.981 152.617 213.248C175.05 222.662 198.208 232.777 221.733 237.425C239.966 241.038 258.744 241.558 277.062 243.593C314.281 247.73 351.495 251.742 388.704 255.627C484.69 265.794 580.734 273.843 676.729 283.413" stroke="#3DB7A2" stroke-width="1.11822" stroke-miterlimit="10"/>
<path d="M-514.719 141.174L-92.4408 183.272C-76.4655 184.864 -58.8975 188.739 -44.3517 182.264C-21.9307 172.278 -13.7087 145.192 13.0434 141.925C31.7544 139.633 52.8488 148.286 70.8294 155.08C98.281 165.479 125.086 177.974 152.182 189.51C174.693 199.082 197.972 209.394 221.628 214.032C239.873 217.609 258.646 218.321 276.956 220.146L676.576 259.985" stroke="#3DB7A2" stroke-width="1.11822" stroke-miterlimit="10"/>
<path d="M-514.88 117.703L-92.602 159.802C-76.2812 161.429 -59.3487 164.63 -44.1293 159.184C-20.6915 150.796 -7.31723 127.741 19.1463 124.924C37.6986 122.945 58.1751 130.879 76.153 137.271C102.359 146.589 128.078 157.743 153.987 168.042C175.975 176.779 198.513 185.964 221.401 190.465C239.676 194.082 258.449 194.799 276.8 196.628L676.414 236.467" stroke="#3DB7A2" stroke-width="1.11822" stroke-miterlimit="10"/>
<path d="M-515.036 94.2267L-92.7578 136.325C-76.0022 137.995 -59.0789 140.711 -42.9304 137.105C-17.3732 131.41 2.4252 113.859 29.6724 112.508C47.9999 111.607 67.1657 117.61 85.1026 123.22C109.488 130.849 133.509 140.075 157.685 148.557C178.604 155.895 199.893 163.407 221.437 167.176C239.721 170.374 258.317 171.319 276.639 173.145L676.258 212.985" stroke="#3DB7A2" stroke-width="1.11822" stroke-miterlimit="10"/>
<path d="M-515.196 70.756L-145.032 107.659C-111.175 111.034 -74.6416 118.541 -41.3046 115.493C-12.8753 112.896 13.0372 101.643 42.1959 102.182C82.2491 102.921 123.148 118.692 162.236 129.971C236.859 151.497 314.463 153.467 390.014 160.999L676.098 189.52" stroke="#3DB7A2" stroke-width="1.11822" stroke-miterlimit="10"/>
<path d="M-515.355 47.279L-145.19 84.1819C-110.267 87.6635 -74.5498 93.3718 -39.7668 93.7767C-8.21628 94.1465 22.5293 89.0226 54.266 91.3969C92.0178 94.2273 129.138 103.102 166.58 111.184C240.254 127.088 315.811 130.141 389.826 137.519L675.939 166.043" stroke="#3DB7A2" stroke-width="1.11822" stroke-miterlimit="10"/>
<path d="M-515.513 23.803L-260.677 49.2084C-186.817 56.5718 -112.683 65.715 -38.8517 71.4126C-4.69051 74.0525 29.3455 74.0241 63.5372 77.6661C99.0155 81.4304 134.297 85.9766 169.761 91.1391C242.893 101.798 316.517 106.751 389.698 114.046L675.781 142.567" stroke="#3DB7A2" stroke-width="1.11822" stroke-miterlimit="10"/>
<path d="M418.678 93.4686C419.016 143.474 421.675 194.352 419.641 244.061C417.348 300.212 379.644 345.055 371.631 399.588C366.162 436.8 392.48 467.108 409.093 499.744C425.423 531.819 421.522 565.024 423.368 598.581C427.31 670.223 424.997 740.196 423.756 811.304C420.986 970.515 425.683 1131.01 426.76 1290.66" stroke="#3DB7A2" stroke-width="1.11822" stroke-miterlimit="10"/>
<path d="M395.319 91.14C395.656 141.122 398.476 192.069 396.288 241.733C393.706 300.212 348.83 344.208 339.431 400.601C333.029 438.989 364.14 466.873 383.679 498.18C403.405 529.786 398.257 564.272 398.938 598.245C400.343 668.81 399.949 739.11 400.091 809.519C400.406 969.02 402.323 1128.7 403.401 1288.29" stroke="#3DB7A2" stroke-width="1.11822" stroke-miterlimit="10"/>
<path d="M371.961 88.8114C372.299 138.841 374.809 189.638 372.978 239.398C370.765 298.648 323.224 342.027 313.936 399.089C307.57 438.305 339.517 464.747 360.073 495.952C380.629 527.156 375.177 562.492 375.405 596.276L380.061 1285.98" stroke="#3DB7A2" stroke-width="1.11822" stroke-miterlimit="10"/>
<path d="M348.612 86.4831C348.949 136.459 351.799 187.427 349.575 237.076C346.986 294.471 305.542 338.959 296.619 394.46C290.564 432.14 319.63 461.358 337.81 493.205C356.224 525.459 351.807 559.803 352.037 593.922L356.694 1283.65" stroke="#3DB7A2" stroke-width="1.11822" stroke-miterlimit="10"/>
<path d="M325.237 84.1533C325.575 134.219 327.863 184.91 326.218 234.742C324.414 289.433 291.094 334.552 284.358 387.891C279.708 424.766 302.581 456.154 317.273 489.777C331.867 523.163 328.444 557.396 328.675 591.599L333.331 1281.33" stroke="#3DB7A2" stroke-width="1.11822" stroke-miterlimit="10"/>
<path d="M301.882 81.8251C302.221 131.987 303.448 182.332 302.899 232.399C302.331 284.044 278.328 329.535 274.565 380.436C271.836 417.12 287.228 450.538 297.599 486.075C307.605 520.367 305.082 554.948 305.314 589.289L309.971 1279" stroke="#3DB7A2" stroke-width="1.11822" stroke-miterlimit="10"/>
<path d="M278.522 79.4967C278.86 129.682 279.009 179.854 279.574 230.056C280.118 278.857 265.58 324.532 264.58 373.023C263.824 410.035 271.903 445.469 277.849 482.371C283.477 517.292 281.713 552.266 281.948 586.96L286.604 1276.67" stroke="#3DB7A2" stroke-width="1.11822" stroke-miterlimit="10"/>
<path d="M255.166 77.168C255.505 127.329 255.105 177.489 256.224 227.728C257.265 274.407 251.127 320.058 251.805 366.664C252.35 404.177 254.792 441.406 257.141 479.027C259.343 514.312 258.349 549.493 258.586 584.624L263.242 1274.34" stroke="#3DB7A2" stroke-width="1.11822" stroke-miterlimit="10"/>
<path d="M231.805 74.8387C232.452 170.684 232.575 266.495 233.615 362.38C236.895 665.699 237.84 968.814 239.887 1272.01" stroke="#3DB7A2" stroke-width="1.11822" stroke-miterlimit="10"/>
<path d="M208.456 72.5108C209.932 121.864 206.309 170.746 206.475 219.975C206.629 266.648 210.822 313.635 210.642 360.251C209.49 663.008 214.492 966.594 216.538 1269.68" stroke="#3DB7A2" stroke-width="1.11822" stroke-miterlimit="10"/>
<path d="M185.1 70.1832C186.013 117.13 173.811 161.411 174.128 208.316C174.464 258.077 186.111 308.02 187.149 357.766C190.238 501.453 188.999 644.929 189.967 788.428L193.201 1267.36" stroke="#3DB7A2" stroke-width="1.11822" stroke-miterlimit="10"/>
<path d="M161.736 67.8533C161.117 111.985 137.74 148.752 138.29 193.09C138.952 247.154 159.762 300.906 163.335 354.997C165.855 393.119 164.185 431.469 164.441 469.444L169.812 1265.02" stroke="#3DB7A2" stroke-width="1.11822" stroke-miterlimit="10"/>
<path d="M138.348 65.5225C135.983 107.453 100.974 134.5 101.636 177.013C102.55 235.564 132.978 293.654 139.468 352.164C143.683 390.192 140.81 429.271 141.066 467.12L146.437 1262.69" stroke="#3DB7A2" stroke-width="1.11822" stroke-miterlimit="10"/>
<path d="M115 63.1942C112.982 86.1906 101.972 99.7186 87.7937 115.634C76.0965 128.777 66.553 143.51 66.8322 162.817C67.3252 193.523 80.561 226.666 90.0829 256.334C99.8965 286.904 111.297 318.052 115.778 349.478C121.17 387.319 117.492 427.114 117.747 464.801L123.118 1260.37" stroke="#3DB7A2" stroke-width="1.11822" stroke-miterlimit="10"/>
<path d="M91.6498 60.8659C89.6484 84.48 77.0383 95.5155 60.4276 109.143C46.694 120.414 36.1154 133.476 36.457 153.208C37.0055 185.08 52.1673 219.6 62.9386 250.068C74.1348 281.751 87.4678 314.294 92.4218 347.143C98.1109 384.852 94.1372 424.899 94.3908 462.466L99.7619 1258.04" stroke="#3DB7A2" stroke-width="1.11822" stroke-miterlimit="10"/>
<path d="M68.2884 58.5374C66.2931 82.1521 53.6769 93.187 37.0663 106.815C23.3267 118.084 12.754 131.148 13.0896 150.879C13.6381 182.751 28.8 217.271 39.5713 247.739C50.7675 279.422 64.1005 311.965 69.0544 344.814C74.7436 382.523 70.7699 422.57 71.0235 460.137L76.3945 1255.71" stroke="#3DB7A2" stroke-width="1.11822" stroke-miterlimit="10"/>
<path d="M44.9242 56.2081C42.9009 79.2039 31.8908 92.7318 17.7183 108.648C6.01524 121.79 -3.55807 136.52 -3.24913 155.83C-2.75611 186.536 10.4797 219.679 20.0016 249.347C29.8152 279.918 41.2102 311.064 45.6903 342.491C51.0827 380.331 47.4049 420.126 47.6593 457.813L53.0304 1253.38" stroke="#3DB7A2" stroke-width="1.11822" stroke-miterlimit="10"/>
<path d="M21.6024 53.8828C19.2366 95.8129 -15.7717 122.86 -15.1097 165.373C-14.1966 223.924 16.2317 282.015 22.7221 340.524C26.9372 378.552 24.0641 417.632 24.3196 455.48L29.6906 1251.05" stroke="#3DB7A2" stroke-width="1.11822" stroke-miterlimit="10"/>
<path d="M-1.77951 51.552C-2.39825 95.684 -25.7754 132.451 -25.226 176.789C-24.5634 230.853 -3.75381 284.605 -0.180251 338.696C2.33905 376.818 0.675327 415.169 0.931697 453.143L6.30279 1248.72" stroke="#3DB7A2" stroke-width="1.11822" stroke-miterlimit="10"/>
</g>
</mask>
<g mask="url(#mask0_4494_172014)">
<g filter="url(#filter0_f_4494_172014)">
<path d="M-27 600.531L349 600.531L349 1252.43L-27 1252.43L-27 600.531Z" fill="url(#paint0_angular_4494_172014)" fill-opacity="0.4"/>
</g>
</g>
<defs>
<filter id="filter0_f_4494_172014" x="-527" y="100.531" width="1376" height="1651.9" filterUnits="userSpaceOnUse" color-interpolation-filters="sRGB">
<feFlood flood-opacity="0" result="BackgroundImageFix"/>
<feBlend mode="normal" in="SourceGraphic" in2="BackgroundImageFix" result="shape"/>
<feGaussianBlur stdDeviation="250" result="effect1_foregroundBlur_4494_172014"/>
</filter>
<radialGradient id="paint0_angular_4494_172014" cx="0" cy="0" r="1" gradientUnits="userSpaceOnUse" gradientTransform="translate(90.7891 895.4) rotate(126.894) scale(488.667 350.278)">
<stop offset="0.285549" stop-color="#8458B3"/>
<stop offset="0.556778" stop-color="#F19E79"/>
</radialGradient>
<clipPath id="clip0_4494_172014">
<rect width="1197.82" height="1197.8" fill="white" transform="matrix(0.995067 0.0992014 0.00675102 0.999977 -516 0)"/>
</clipPath>
</defs>
</svg>
