<svg width="1274" height="788" viewBox="0 0 1274 788" fill="none" xmlns="http://www.w3.org/2000/svg">
<g opacity="0.05" clip-path="url(#clip0_9406_231675)">
<g filter="url(#filter0_d_9406_231675)">
<path d="M766.743 776.779C758.251 806.762 740.474 833.282 715.965 852.528C691.404 871.719 661.393 882.636 630.241 883.711H422.65L0 0H422.112L633.228 442.065C633.228 442.065 787.293 704.137 766.743 776.779Z" fill="#CDADEF"/>
</g>
<path d="M766.743 776.779C787.293 704.137 633.287 442.244 633.287 442.244H861.548L766.743 776.779Z" fill="url(#paint0_linear_9406_231675)"/>
<g filter="url(#filter1_d_9406_231675)">
<path d="M861.548 442.244H1273.74V0.179199H1109.1C1077.83 0.196493 1047.37 10.1544 1022.13 28.6147C996.878 47.1069 978.173 73.1561 968.719 102.989L861.548 442.244Z" fill="#CDADEF"/>
<path d="M1273.24 441.744V0.679199H1109.1C1077.94 0.696434 1047.58 10.6206 1022.42 29.0183C997.259 47.4477 978.617 73.4082 969.196 103.14L1273.24 441.744ZM1273.24 441.744H862.23L969.196 103.14L1273.24 441.744Z" stroke="black"/>
</g>
</g>
<defs>
<filter id="filter0_d_9406_231675" x="-4" y="0" width="776.63" height="891.711" filterUnits="userSpaceOnUse" color-interpolation-filters="sRGB">
<feFlood flood-opacity="0" result="BackgroundImageFix"/>
<feColorMatrix in="SourceAlpha" type="matrix" values="0 0 0 0 0 0 0 0 0 0 0 0 0 0 0 0 0 0 127 0" result="hardAlpha"/>
<feOffset dy="4"/>
<feGaussianBlur stdDeviation="2"/>
<feComposite in2="hardAlpha" operator="out"/>
<feColorMatrix type="matrix" values="0 0 0 0 0 0 0 0 0 0 0 0 0 0 0 0 0 0 0.25 0"/>
<feBlend mode="normal" in2="BackgroundImageFix" result="effect1_dropShadow_9406_231675"/>
<feBlend mode="normal" in="SourceGraphic" in2="effect1_dropShadow_9406_231675" result="shape"/>
</filter>
<filter id="filter1_d_9406_231675" x="857.548" y="0.179199" width="420.195" height="450.065" filterUnits="userSpaceOnUse" color-interpolation-filters="sRGB">
<feFlood flood-opacity="0" result="BackgroundImageFix"/>
<feColorMatrix in="SourceAlpha" type="matrix" values="0 0 0 0 0 0 0 0 0 0 0 0 0 0 0 0 0 0 127 0" result="hardAlpha"/>
<feOffset dy="4"/>
<feGaussianBlur stdDeviation="2"/>
<feComposite in2="hardAlpha" operator="out"/>
<feColorMatrix type="matrix" values="0 0 0 0 0 0 0 0 0 0 0 0 0 0 0 0 0 0 0.25 0"/>
<feBlend mode="normal" in2="BackgroundImageFix" result="effect1_dropShadow_9406_231675"/>
<feBlend mode="normal" in="SourceGraphic" in2="effect1_dropShadow_9406_231675" result="shape"/>
</filter>
<linearGradient id="paint0_linear_9406_231675" x1="754.079" y1="418.826" x2="655.51" y2="768.296" gradientUnits="userSpaceOnUse">
<stop stop-color="#16161C"/>
<stop offset="0.0001" stop-color="#16161C"/>
<stop offset="0.9999" stop-color="#16161C"/>
<stop offset="1" stop-color="#18181C"/>
</linearGradient>
<clipPath id="clip0_9406_231675">
<rect width="1273.74" height="883.711" fill="white"/>
</clipPath>
</defs>
</svg>
