<svg width="17" height="17" viewBox="0 0 17 17" fill="none" xmlns="http://www.w3.org/2000/svg">
<rect x="0.45459" y="0.666016" width="16" height="16" rx="8" fill="black"/>
<path d="M4.78418 13.3327V11.1257H5.06264V10.0108H5.3411V8.89588H5.61956V7.78095H5.89802V6.66602H6.17648V5.55109H6.45494V4.43616H12.0045V5.55109H12.5614V8.87186H11.168V8.89479H11.7249V12.2156H10.3315V13.3305H4.78418V13.3327ZM9.52018 11.1257V9.98898H7.54803V11.1039H7.26957V11.1268H9.52127L9.52018 11.1257ZM10.3556 7.78204V6.64527H8.38341V7.7602H8.10495V7.78314H10.3567L10.3556 7.78204Z" fill="url(#paint0_linear_30764_29457)" fill-opacity="0.22"/>
<path d="M4.56677 13.1134V10.9064H4.84523V9.79152H5.12369V8.67659H5.40215V7.56165H5.68061V6.44672H5.95907V5.33179H6.23753V4.21686H11.7871V5.33179H12.344V8.65256H10.9506V8.67549H11.5075V11.9963H10.1141V13.1112H4.56677V13.1134ZM9.30277 10.9064V9.76968H7.33062V10.8846H7.05216V10.9075H9.30387L9.30277 10.9064ZM10.1382 7.56275V6.42597H8.166V7.5409H7.88754V7.56384H10.1392L10.1382 7.56275Z" fill="url(#paint1_linear_30764_29457)" fill-opacity="0.22"/>
<path d="M4.34802 12.8959V10.689H4.62648V9.57405H4.90494V8.45912H5.1834V7.34418H5.46186V6.22925H5.74032V5.11432H6.01878V3.99939H11.5683V5.11432H12.1252V8.43509H10.7319V8.45802H11.2888V11.7788H9.89538V12.8937H4.34802V12.8959ZM9.08402 10.689V9.55221H7.11187V10.6671H6.83341V10.6901H9.08512L9.08402 10.689ZM9.9194 7.34528V6.2085H7.94725V7.32344H7.66879V7.34637H9.9205L9.9194 7.34528Z" fill="url(#paint2_linear_30764_29457)" fill-opacity="0.22"/>
<path d="M11.0104 4.34509V5.47713H11.5764V7.74121H10.4444V5.47713H7.33127V6.60917H7.04826V7.74121H10.1614V8.87325H10.7274V11.1373H9.59535V8.87325H6.48224V10.0053H6.19923V11.1373H9.31234V12.2694H4.78418V11.1373H5.06719V10.0053H5.3502V8.87325H5.63321V7.74121H5.91622V6.60917H6.19923V5.47713H6.48224V4.34509H11.0104Z" fill="#FF036D"/>
<defs>
<linearGradient id="paint0_linear_30764_29457" x1="8.67279" y1="4.43616" x2="8.67279" y2="13.3327" gradientUnits="userSpaceOnUse">
<stop stop-color="#DE076C" stop-opacity="0.74"/>
<stop offset="1" stop-color="#960178" stop-opacity="0.64"/>
</linearGradient>
<linearGradient id="paint1_linear_30764_29457" x1="8.45538" y1="4.21686" x2="8.45538" y2="13.1134" gradientUnits="userSpaceOnUse">
<stop stop-color="#DE076C" stop-opacity="0.74"/>
<stop offset="1" stop-color="#960178" stop-opacity="0.64"/>
</linearGradient>
<linearGradient id="paint2_linear_30764_29457" x1="8.23663" y1="3.99939" x2="8.23663" y2="12.8959" gradientUnits="userSpaceOnUse">
<stop stop-color="#DE076C" stop-opacity="0.74"/>
<stop offset="1" stop-color="#960178" stop-opacity="0.64"/>
</linearGradient>
</defs>
</svg>
