<svg width="731" height="198" viewBox="0 0 731 198" fill="none" xmlns="http://www.w3.org/2000/svg">
<path d="M268.611 173.203V23.5696H362.976V43.0043H291.32V88.5957H352.717V107.957H291.32V153.768H363.858V173.203H268.611Z" fill="#ffffff"/>
<path d="M415.591 23.5696V173.203H393.617V23.5696H415.591Z" fill="#ffffff"/>
<path d="M447.223 173.203V60.9778H469.198V173.203H447.223Z" fill="#ffffff"/>
<path d="M518.175 60.9778L543.089 104.67L568.224 60.9778H592.256L557.053 117.09L592.55 173.203H568.518L543.089 131.265L517.734 173.203H493.628L528.758 117.09L494.069 60.9778H518.175Z" fill="#ffffff"/>
<path d="M616.888 173.203V60.9778H638.863V173.203H616.888Z" fill="#ffffff"/>
<path d="M670.495 173.203V60.9778H691.734V78.8052H692.91C694.968 72.7654 698.594 68.0163 703.787 64.5579C709.03 61.0509 714.958 59.2974 721.573 59.2974C722.945 59.2974 724.561 59.3461 726.423 59.4435C728.334 59.5409 729.828 59.6627 730.906 59.8088V80.7049C730.024 80.4613 728.457 80.1934 726.203 79.9012C723.949 79.5602 721.695 79.3897 719.441 79.3897C714.248 79.3897 709.618 80.4857 705.551 82.6776C701.534 84.8207 698.349 87.8163 695.997 91.6643C693.645 95.4636 692.469 99.7987 692.469 104.67V173.203H670.495Z" fill="#ffffff"/>
<path d="M447.223 44.2703V23.5892H469.198V44.2703H447.223Z" fill="#ffffff"/>
<path d="M616.888 44.2703V23.5892H638.863V44.2703H616.888Z" fill="#ffffff"/>
<path d="M98.5067 0C44.0688 0 0 44.0688 0 98.5067C0 152.945 44.0688 197.013 98.5067 197.013C152.945 197.013 197.013 152.945 197.013 98.5067C197.013 44.0688 152.945 0 98.5067 0ZM98.5067 177.87C54.6373 177.87 19.143 142.376 19.143 98.5067C19.143 90.9293 22.9317 73.3816 50.051 73.3816C77.1702 73.3816 101.298 99.7031 133.802 103.492C144.769 104.888 153.543 104.688 160.123 103.891C169.695 102.694 177.472 111.867 174.68 121.239C164.909 153.942 134.599 177.87 98.5067 177.87Z" fill="url(#paint0_linear_2542_371)"/>
<defs>
<linearGradient id="paint0_linear_2542_371" x1="-37.5001" y1="98.9999" x2="91.0005" y2="231" gradientUnits="userSpaceOnUse">
<stop stop-color="#FFE480"/>
<stop offset="0.458483" stop-color="#FF43C3"/>
<stop offset="0.979531" stop-color="#4156E0"/>
</linearGradient>
</defs>
</svg>