<svg width="25" height="24" viewBox="0 0 25 24" fill="none" xmlns="http://www.w3.org/2000/svg">
<g id="arbitrum-arb-logo 1" clip-path="url(#clip0_419_315)">
<g id="Layer_x0020_1">
<g id="_2405588477232">
<g id="Group">
<g id="Group_2">
<path id="Vector" d="M2.82617 7.29729V16.7053C2.82617 17.3101 3.14297 17.8573 3.67097 18.1645L11.8214 22.8685C12.3398 23.1661 12.983 23.1661 13.5014 22.8685L21.6518 18.1645C22.1702 17.8669 22.4966 17.3101 22.4966 16.7053V7.29729C22.4966 6.69249 22.1798 6.14529 21.6518 5.83809L13.5014 1.13409C12.983 0.836489 12.3398 0.836489 11.8214 1.13409L3.67097 5.83809C3.15257 6.13569 2.83577 6.69249 2.83577 7.29729H2.82617Z" fill="#213147"/>
<g id="Group_3">
<g id="Group_4">
<g id="Group_5">
<path id="Vector_2" d="M14.4312 13.8254L13.2696 17.0126C13.2408 17.099 13.2408 17.195 13.2696 17.291L15.2664 22.7726L17.58 21.4382L14.8056 13.8254C14.7384 13.6526 14.4984 13.6526 14.4312 13.8254Z" fill="#12AAFF"/>
</g>
<g id="Group_6">
<path id="Vector_3" d="M16.7646 8.46773C16.6974 8.29493 16.4574 8.29493 16.3902 8.46773L15.2286 11.6549C15.1998 11.7413 15.1998 11.8373 15.2286 11.9333L18.5022 20.9093L20.8158 19.5749L16.7646 8.47733V8.46773Z" fill="#12AAFF"/>
</g>
</g>
</g>
<g id="Group_7">
<path id="Vector_4" d="M12.6563 1.48971C12.7139 1.48971 12.7715 1.50891 12.8195 1.53771L21.6323 6.62571C21.7379 6.68331 21.7955 6.79851 21.7955 6.91371V17.0897C21.7955 17.2049 21.7283 17.3201 21.6323 17.3777L12.8195 22.4657C12.7715 22.4945 12.7139 22.5137 12.6563 22.5137C12.5987 22.5137 12.5411 22.4945 12.4931 22.4657L3.68033 17.3777C3.57473 17.3201 3.51713 17.2049 3.51713 17.0897V6.90411C3.51713 6.78891 3.58433 6.67371 3.68033 6.61611L12.4931 1.52811C12.5411 1.49931 12.5987 1.48011 12.6563 1.48011V1.48971ZM12.6563 0.00170898C12.3395 0.00170898 12.0323 0.078509 11.7443 0.241709L2.93153 5.32971C2.36513 5.65611 2.01953 6.25131 2.01953 6.90411V17.0801C2.01953 17.7329 2.36513 18.3281 2.93153 18.6545L11.7443 23.7425C12.0227 23.9057 12.3395 23.9825 12.6563 23.9825C12.9731 23.9825 13.2803 23.9057 13.5683 23.7425L22.3811 18.6545C22.9475 18.3281 23.2931 17.7329 23.2931 17.0801V6.90411C23.2931 6.25131 22.9475 5.65611 22.3811 5.32971L13.5587 0.241709C13.2803 0.078509 12.9635 0.00170898 12.6467 0.00170898H12.6563Z" fill="#9DCCED"/>
</g>
<path id="Vector_5" d="M6.82031 20.9198L7.63631 18.6926L9.26831 20.0462L7.74191 21.4478L6.82031 20.9198Z" fill="#213147"/>
<g id="Group_8">
<path id="Vector_6" d="M11.9075 6.18416H9.67066C9.50746 6.18416 9.35386 6.28976 9.29626 6.44336L4.50586 19.5762L6.81946 20.9106L12.0995 6.44336C12.1475 6.30896 12.0515 6.17456 11.9171 6.17456L11.9075 6.18416Z" fill="white"/>
<path id="Vector_7" d="M15.8234 6.18416H13.5866C13.4234 6.18416 13.2698 6.28976 13.2122 6.44336L7.74023 21.4386L10.0538 22.773L16.0058 6.44336C16.0538 6.30896 15.9578 6.17456 15.8234 6.17456V6.18416Z" fill="white"/>
</g>
</g>
</g>
</g>
</g>
</g>
<defs>
<clipPath id="clip0_419_315">
<rect width="24" height="24" fill="white" transform="translate(0.658203)"/>
</clipPath>
</defs>
</svg>
