<svg width="41" height="11" viewBox="0 0 41 11" fill="none" xmlns="http://www.w3.org/2000/svg">
<path d="M0.505859 10.7768V8.22857H0.827381V6.94122H1.1489V5.65387H1.47042V4.36653H1.79195V3.07918H2.11347V1.79183H2.43499V0.504486H8.84272V1.79183H9.48577V5.62613H7.8769V5.65261H8.51994V9.48691H6.91107V10.7743H0.505859V10.7768ZM5.97425 8.22857V6.916H3.69712V8.20335H3.3756V8.22983H5.97551L5.97425 8.22857ZM6.93881 4.36779V3.05522H4.66168V4.34257H4.34016V4.36905H6.94007L6.93881 4.36779Z" fill="#333333" fill-opacity="0.08"/>
<path d="M8.54688 10.7763V8.22935H8.8684V6.942H9.18992V5.65591H9.5127V4.36857H9.83422V3.08248H10.1557V1.79513H10.4773V0.509048H13.0242V3.056H12.7027V4.34335H12.3812V5.62944H12.0597V6.91678H11.7381V8.20287H11.4166V8.22935H16.242V10.7763H8.54688Z" fill="#333333" fill-opacity="0.08"/>
<path d="M15.9453 10.7763V8.22935H18.8403V6.942H19.163V5.65591H19.4846V4.36857H19.8061V3.08248H20.1276V3.056H17.8757V0.509048H25.5695V3.056H22.6746V4.34335H22.353V5.62944H22.0315V6.91678H21.71V8.20287H21.3885V8.22935H23.6404V10.7763H15.9453Z" fill="#333333" fill-opacity="0.08"/>
<path d="M25.9165 10.7763V8.22935H26.238V6.942H26.5595V5.65591H26.8823V4.36857H27.2038V3.08248H27.5253V3.056H25.2734V0.509048H32.9673V3.056H30.0723V4.34335H29.7508V5.62944H29.4293V6.91678H29.1077V8.20287H28.7862V9.49022H28.4647V10.7763H25.9165Z" fill="#333333" fill-opacity="0.08"/>
<path d="M30.7422 10.7763V8.22935H31.0637V6.942H32.6726V5.65591H34.2802V4.36857H35.8891V3.08248H37.4979V3.056H32.6726V0.509048H40.3664V3.056H40.0449V4.34335H38.4373V5.62944H36.8284V6.91678H35.2195V8.20287H33.6119V8.22935H38.4373V10.7763H30.7422Z" fill="#333333" fill-opacity="0.08"/>
<path d="M0.251953 10.5242V7.97602H0.573475V6.68867H0.894996V5.40133H1.21652V4.11398H1.53804V2.82663H1.85956V1.53928H2.18108V0.251938H8.58882V1.53928H9.23186V5.37359H7.62299V5.40006H8.26603V9.23437H6.65717V10.5217H0.251953V10.5242ZM5.72034 7.97602V6.66345H3.44321V7.9508H3.12169V7.97728H5.7216L5.72034 7.97602ZM6.68491 4.11524V2.80268H4.40778V4.09002H4.08625V4.1165H6.68617L6.68491 4.11524Z" fill="#333333" fill-opacity="0.08"/>
<path d="M8.29492 10.5245V7.97756H8.61644V6.69022H8.93796V5.40413H9.26075V4.11678H9.58227V2.8307H9.90379V1.54335H10.2253V0.257263H12.7723V2.80422H12.4507V4.09157H12.1292V5.37765H11.8077V6.665H11.4862V7.95108H11.1647V7.97756H15.99V10.5245H8.29492Z" fill="#333333" fill-opacity="0.08"/>
<path d="M15.6934 10.5245V7.97756H18.5883V6.69022H18.9111V5.40413H19.2326V4.11678H19.5541V2.8307H19.8757V2.80422H17.6238V0.257263H25.3176V2.80422H22.4226V4.09157H22.1011V5.37765H21.7796V6.665H21.4581V7.95108H21.1365V7.97756H23.3884V10.5245H15.6934Z" fill="#333333" fill-opacity="0.08"/>
<path d="M25.6645 10.5245V7.97756H25.9861V6.69022H26.3076V5.40413H26.6304V4.11678H26.9519V2.8307H27.2734V2.80422H25.0215V0.257263H32.7153V2.80422H29.8204V4.09157H29.4988V5.37765H29.1773V6.665H28.8558V7.95108H28.5343V9.23843H28.2127V10.5245H25.6645Z" fill="#333333" fill-opacity="0.08"/>
<path d="M30.4902 10.5245V7.97756H30.8118V6.69022H32.4206V5.40413H34.0282V4.11678H35.6371V2.8307H37.246V2.80422H32.4206V0.257263H40.1144V2.80422H39.7929V4.09157H38.1853V5.37765H36.5764V6.665H34.9676V7.95108H33.36V7.97756H38.1853V10.5245H30.4902Z" fill="#333333" fill-opacity="0.08"/>
<path d="M0 10.2723V7.72408H0.321522V6.43673H0.643043V5.14939H0.964565V3.86204H1.28609V2.57469H1.60761V1.28735H1.92913V0H8.33686V1.28735H8.97991V5.12165H7.37104V5.14813H8.01408V8.98243H6.40521V10.2698H0V10.2723ZM5.46839 7.72408V6.41152H3.19126V7.69886H2.86974V7.72534H5.46965L5.46839 7.72408ZM6.43295 3.8633V2.55074H4.15582V3.83808H3.8343V3.86456H6.43421L6.43295 3.8633Z" fill="#333333" fill-opacity="0.08"/>
<path d="M8.04297 10.2727V7.72576H8.36449V6.43842H8.68601V5.15233H9.00879V3.86498H9.33032V2.5789H9.65184V1.29155H9.97336V0.00546265H12.5203V2.55242H12.1988V3.83976H11.8773V5.12585H11.5557V6.4132H11.2342V7.69928H10.9127V7.72576H15.738V10.2727H8.04297Z" fill="#333333" fill-opacity="0.08"/>
<path d="M15.4414 10.2727V7.72576H18.3364V6.43842H18.6591V5.15233H18.9807V3.86498H19.3022V2.5789H19.6237V2.55242H17.3718V0.00546265H25.0656V2.55242H22.1707V3.83976H21.8491V5.12585H21.5276V6.4132H21.2061V7.69928H20.8846V7.72576H23.1365V10.2727H15.4414Z" fill="#333333" fill-opacity="0.08"/>
<path d="M25.4145 10.2727V7.72576H25.7361V6.43842H26.0576V5.15233H26.3804V3.86498H26.7019V2.5789H27.0234V2.55242H24.7715V0.00546265H32.4653V2.55242H29.5704V3.83976H29.2488V5.12585H28.9273V6.4132H28.6058V7.69928H28.2843V8.98663H27.9627V10.2727H25.4145Z" fill="#333333" fill-opacity="0.08"/>
<path d="M30.2383 10.2727V7.72576H30.5598V6.43842H32.1687V5.15233H33.7763V3.86498H35.3851V2.5789H36.994V2.55242H32.1687V0.00546265H39.8625V2.55242H39.541V3.83976H37.9334V5.12585H36.3245V6.4132H34.7156V7.69928H33.108V7.72576H37.9334V10.2727H30.2383Z" fill="#333333" fill-opacity="0.08"/>
<path d="M7.69491 0.398758V1.70586H8.34846V4.32006H7.04136V1.70586H3.44684V3.01296H3.12006V4.32006H6.71459V5.62716H7.36814V8.24136H6.06104V5.62716H2.46651V6.93426H2.13974V8.24136H5.73426V9.54846H0.505859V8.24136H0.832635V6.93426H1.15941V5.62716H1.48618V4.32006H1.81296V3.01296H2.13974V1.70586H2.46651V0.398758H7.69491Z" fill="#333333"/>
<path d="M15.2056 8.24136V9.54846H8.67013V8.24136H8.99691V6.93426H9.32368V5.62716H9.65046V4.32006H9.97723V3.01296H10.304V1.70586H10.6308V0.398758H11.9379V1.70586H11.6111V3.01296H11.2843V4.32006H10.9576V5.62716H10.6308V6.93426H10.304V8.24136H15.2056Z" fill="#333333"/>
<path d="M24.677 0.398758V1.70586H21.736V3.01296H21.4093V4.32006H21.0825V5.62716H20.7557V6.93426H20.4289V8.24136H22.7164V9.54846H16.1809V8.24136H19.1218V6.93426H19.4486V5.62716H19.7754V4.32006H20.1022V3.01296H20.4289V1.70586H18.1415V0.398758H24.677Z" fill="#333333"/>
<path d="M32.1877 0.398758V1.70586H29.2468V3.01296H28.92V4.32006H28.5932V5.62716H28.2664V6.93426H27.9397V8.24136H27.6129V9.54846H26.3058V8.24136H26.6326V6.93426H26.9593V5.62716H27.2861V4.32006H27.6129V3.01296H27.9397V1.70586H25.6522V0.398758H32.1877Z" fill="#333333"/>
<path d="M39.701 0.398758V1.70586H39.3742V3.01296H38.0671V1.70586H33.1655V0.398758H39.701ZM37.7404 4.32006H36.4333V3.01296H37.7404V4.32006ZM34.7994 4.32006H36.1065V5.62716H34.7994V4.32006ZM33.1655 5.62716H34.4726V6.93426H33.1655V5.62716ZM37.7404 8.24136V9.54846H31.2049V8.24136H31.5316V6.93426H32.8387V8.24136H37.7404Z" fill="#333333"/>
</svg>
