<svg width="593" height="136" viewBox="0 0 593 136" fill="none" xmlns="http://www.w3.org/2000/svg">
<path d="M57.773 13.2231C27.4438 18.5481 7.15078 47.6011 12.4998 77.9232C17.8487 108.245 46.8545 128.58 77.1561 123.227C107.458 117.875 127.778 88.8492 122.429 58.527C117.08 28.2048 88.0746 7.87051 57.773 13.2231Z" fill="white"/>
<path d="M79.1689 134.38H79.1427L79.117 134.384C42.6639 140.839 7.77392 116.365 1.32294 79.8857C-5.10042 43.4071 19.3307 8.49365 55.8121 2.03847C92.2657 -4.38908 127.183 20.0584 133.606 56.5369C140.028 93.0072 115.61 127.94 79.1704 134.38H79.1689ZM58.724 13.4097L58.7611 13.3726L57.8314 13.5369C27.6986 18.863 7.5185 47.7117 12.8131 77.8643L12.8132 77.8646C18.1355 108.017 46.9647 128.212 77.0976 122.886C107.23 117.56 127.411 88.7109 122.088 58.5855C116.82 28.7399 88.5215 8.65079 58.724 13.4097Z" fill="#19172D" stroke="#19172D" stroke-width="0.595354"/>
<path d="M97.0354 85.5105L87.3576 87.2211C85.7033 87.5246 84.5729 89.0973 84.8762 90.7803C85.1795 92.4357 86.7511 93.567 88.433 93.2635L90.8869 92.822C86.8062 99.6093 80.0786 104.245 72.2482 105.624C67.2852 106.507 62.212 105.983 57.5523 104.162C55.9807 103.555 54.1885 104.327 53.5819 105.9C52.9753 107.473 53.7474 109.266 55.319 109.873C61.0264 112.108 67.2576 112.742 73.3235 111.666C82.7255 110.011 90.8317 104.52 95.8498 96.464L96.2358 98.7264C96.5391 100.382 98.1107 101.513 99.7926 101.21C101.447 100.906 102.577 99.3334 102.274 97.6504L100.565 87.966C100.261 86.3106 98.6897 85.1794 97.0078 85.4829L97.0354 85.5105Z" fill="#19172D"/>
<path fill-rule="evenodd" clip-rule="evenodd" d="M5.19312 59.9064L7.70217 74.1432L12.1413 73.3706L13.0787 78.7508L17.9314 77.8955L18.8688 83.2757L23.3079 82.5032L24.2454 87.8558L55.319 82.3652L54.3816 77.0126L58.8207 76.2401L57.8832 70.8599L62.5153 70.0322L60.6129 59.2994L70.8421 57.506L72.7445 68.2388L77.3766 67.4111L78.3141 72.7912L82.7532 72.0187L83.6906 77.3713L114.764 71.8808L113.827 66.5282L118.266 65.7556L117.328 60.3754L122.181 59.5201L121.244 54.1399L125.683 53.3674L123.174 39.1306L5.19312 59.9064ZM21.4056 66.1968L16.0291 67.1349L16.9665 72.515L22.343 71.577L21.4056 66.1968ZM22.3428 71.5499L27.7193 70.6118L28.6568 75.992L23.2802 76.9301L22.3428 71.5499ZM34.0338 75.0269L28.6572 75.9649L29.5947 81.3451L34.9712 80.407L34.0338 75.0269ZM26.7546 65.2313L32.1312 64.2932L33.0686 69.6734L27.6921 70.6115L26.7546 65.2313ZM38.4451 68.7078L33.0686 69.6458L34.0061 75.026L39.3826 74.0879L38.4451 68.7078ZM39.3826 74.0604L44.7591 73.1223L45.6966 78.5025L40.32 79.4406L39.3826 74.0604ZM80.8508 55.6846L75.4742 56.6227L76.4117 62.0028L81.7882 61.0648L80.8508 55.6846ZM81.7887 61.0653L87.1652 60.1272L88.1027 65.5074L82.7261 66.4455L81.7887 61.0653ZM93.4787 64.5417L88.1022 65.4798L89.0396 70.86L94.4162 69.9219L93.4787 64.5417ZM86.1998 54.7472L91.5764 53.8091L92.5138 59.1893L87.1373 60.1273L86.1998 54.7472ZM97.89 58.2236L92.5134 59.1617L93.4509 64.5419L98.8274 63.6038L97.89 58.2236ZM98.8281 63.5763L104.205 62.6382L105.142 68.0184L99.7656 68.9564L98.8281 63.5763Z" fill="#19172D"/>
<rect x="164.003" y="29.3601" width="169.783" height="82.8174" fill="white"/>
<path d="M294.745 64.2384C292.529 63.0467 290.093 62.4387 287.366 62.4387C284.638 62.4387 282.3 63.0467 280.084 64.2384C277.868 65.4301 276.114 67.2785 274.799 69.8078C273.484 72.3128 272.826 75.5231 272.826 79.4387C272.826 85.3 274.239 89.5804 277.088 92.3286C279.938 95.0768 283.347 96.4387 287.39 96.4387C290.093 96.4387 292.553 95.8307 294.769 94.639C296.961 93.4473 298.714 91.599 300.005 89.0696C301.296 86.5646 301.954 83.3543 301.954 79.4387C301.954 75.5231 301.296 72.3371 300.005 69.8078C298.714 67.3028 296.961 65.4301 294.769 64.2384H294.745Z" fill="#19172D"/>
<path d="M189.682 62.4387C185.712 62.4387 182.449 63.8493 179.868 66.6462C177.286 69.443 175.995 73.6991 175.995 79.4387C175.995 85.1783 177.286 89.4344 179.868 92.2313C182.449 95.0281 185.737 96.4387 189.682 96.4387C193.627 96.4387 196.915 95.0281 199.472 92.2313C202.03 89.4344 203.296 85.1783 203.296 79.4387C203.296 73.6991 202.03 69.443 199.472 66.6462C196.915 63.8493 193.652 62.4387 189.682 62.4387Z" fill="#19172D"/>
<path d="M330.204 20.8264H167.009C160.336 20.8264 154.929 26.2256 154.929 32.8894V103.54C154.929 110.204 160.336 115.603 167.009 115.603H330.204C336.877 115.603 342.284 110.204 342.284 103.54V32.8894C342.284 26.2256 336.877 20.8264 330.204 20.8264ZM208.678 92.7663C206.925 96.4387 204.465 99.2356 201.348 101.108C198.23 103.005 194.675 103.929 190.729 103.929C187.149 103.929 184.105 103.2 181.621 101.716C179.137 100.233 177.286 98.2141 176.093 95.6361H175.532L174.68 102.811H168.153V34.8836H176.093V62.7062C177.286 60.639 179.161 58.815 181.718 57.2341C184.276 55.6533 187.271 54.8751 190.729 54.8751C194.748 54.8751 198.328 55.8236 201.396 57.6962C204.489 59.5932 206.9 62.3414 208.678 65.9895C210.432 69.6376 211.333 74.0639 211.333 79.2928C211.333 84.5217 210.456 89.0696 208.678 92.742V92.7663ZM259.505 63.2899H249.763C245.915 63.2899 242.968 64.5546 240.874 67.1082C238.804 69.6619 237.757 72.9208 237.757 76.8851V96.0496H252.491V102.835H217.811V96.0496H229.817V65.1869C229.817 63.6061 229.062 62.8278 227.552 62.8278H219.053V56.0424H230.475C232.545 56.0424 234.225 56.6018 235.492 57.7449C236.758 58.8879 237.391 60.5417 237.391 62.7549V64.7248H237.781C238.536 61.5875 239.973 59.1555 242.092 57.453C244.21 55.7506 247.157 54.8994 250.932 54.8994H259.529V63.2899H259.505ZM307.117 92.4015C305.168 96.0739 302.489 98.9194 299.08 100.938C295.67 102.957 291.774 103.954 287.366 103.954C282.958 103.954 279.061 102.957 275.651 100.938C272.242 98.9194 269.563 96.0739 267.615 92.4015C265.666 88.7291 264.692 84.4001 264.692 79.4387C264.692 74.4773 265.666 70.1483 267.615 66.4759C269.563 62.8035 272.242 59.958 275.651 57.9394C279.061 55.9208 282.958 54.9237 287.366 54.9237C291.774 54.9237 295.67 55.9208 299.08 57.9394C302.489 59.958 305.168 62.8035 307.117 66.4759C309.065 70.1483 310.039 74.4773 310.039 79.4387C310.039 84.4001 309.065 88.7291 307.117 92.4015ZM328.28 101.035C326.892 102.349 325.236 103.005 323.263 103.005C321.291 103.005 319.634 102.349 318.246 101.035C316.858 99.722 316.176 98.0682 316.176 96.1226C316.176 94.1769 316.858 92.6204 318.246 91.3071C319.634 89.9938 321.291 89.3372 323.263 89.3372C325.236 89.3372 326.892 89.9938 328.28 91.3071C329.668 92.6204 330.35 94.2256 330.35 96.1226C330.35 98.0195 329.668 99.6977 328.28 101.035Z" fill="#19172D"/>
<path d="M376.709 102.811C372.422 102.811 369.062 101.765 366.602 99.6976C364.142 97.6304 362.924 93.885 362.924 88.4616V62.8035H351.015V56.0181H358.102C361.317 56.0181 363.168 54.4372 363.679 51.2999L364.995 44.0281H370.864V56.0181H389.568V62.8035H370.864V88.4616C370.864 91.1125 371.473 92.9608 372.715 94.0309C373.932 95.101 376.076 95.6361 379.095 95.6361H389.592V102.811H376.733H376.709Z" fill="#19172D"/>
<path d="M398.627 102.81V96.0247H410.634V65.1621C410.634 63.5812 409.879 62.803 408.369 62.803H399.869V56.0176H411.291C413.361 56.0176 415.042 56.5769 416.308 57.72C417.575 58.8631 418.208 60.5169 418.208 62.73V64.7H418.597C419.352 61.5626 420.789 59.1306 422.908 57.4282C425.027 55.7257 427.974 54.8745 431.749 54.8745H440.345V63.2651H430.604C426.756 63.2651 423.809 64.5297 421.715 67.0834C419.645 69.637 418.597 72.896 418.597 76.8602V96.0247H433.332V102.81H398.652H398.627Z" fill="#19172D"/>
<path d="M464.188 103.954C460.462 103.954 457.393 103.297 454.933 101.984C452.474 100.67 450.647 98.9192 449.454 96.7547C448.26 94.5902 447.652 92.2068 447.652 89.6288C447.652 84.8377 449.405 81.2139 452.888 78.7332C456.395 76.2525 461.071 75.0122 466.916 75.0122H479.774V74.0637C479.774 65.892 476.024 61.8062 468.523 61.8062C465.503 61.8062 462.97 62.4628 460.924 63.7761C458.879 65.0894 457.564 67.181 457.003 70.0022H448.869C449.186 66.8648 450.233 64.1409 452.035 61.8791C453.838 59.6173 456.151 57.8906 458.976 56.6989C461.801 55.5072 464.992 54.8992 468.523 54.8992C475.196 54.8992 480.067 56.6502 483.111 60.1281C486.155 63.6302 487.689 68.2511 487.689 74.0394V102.81H480.895L480.237 95.5387H479.58C478.191 97.8005 476.34 99.7704 474.051 101.424C471.762 103.102 468.45 103.929 464.188 103.929V103.954ZM465.6 96.9736C468.62 96.9736 471.177 96.2439 473.296 94.809C475.415 93.3741 477.022 91.4528 478.118 89.0451C479.214 86.6617 479.774 84.0351 479.774 81.2139H467.597C463.311 81.2139 460.316 81.9435 458.586 83.3784C456.857 84.8377 455.981 86.7346 455.981 89.1424C455.981 91.5501 456.809 93.5201 458.44 94.9063C460.072 96.2926 462.459 96.9736 465.625 96.9736H465.6Z" fill="#19172D"/>
<path d="M517.572 103.954C513.602 103.954 510.071 103.005 506.953 101.132C503.836 99.2355 501.401 96.4629 499.623 92.7906C497.845 89.1182 496.968 84.6189 496.968 79.3413C496.968 74.0638 497.845 69.6861 499.623 66.038C501.376 62.39 503.836 59.6174 506.953 57.7448C510.071 55.8478 513.602 54.9236 517.572 54.9236C521.298 54.9236 524.366 55.6532 526.777 57.0881C529.213 58.5473 531.015 60.42 532.208 62.7548V34.8835H540.148V102.811H533.621L532.768 95.5388H532.208C530.942 98.1167 529.091 100.16 526.631 101.668C524.172 103.175 521.152 103.929 517.572 103.929V103.954ZM518.619 96.4143C522.589 96.4143 525.852 95.0037 528.433 92.2069C531.015 89.41 532.306 85.1539 532.306 79.4143C532.306 73.6747 531.015 69.4186 528.433 66.6217C525.852 63.8249 522.564 62.4143 518.619 62.4143C514.674 62.4143 511.386 63.8249 508.853 66.6217C506.296 69.4186 505.029 73.6747 505.029 79.4143C505.029 85.1539 506.296 89.41 508.853 92.2069C511.41 95.0037 514.674 96.4143 518.619 96.4143Z" fill="#19172D"/>
<path d="M570.663 103.953C566.255 103.953 562.359 102.932 558.998 100.889C555.637 98.8459 552.958 95.9761 551.01 92.3037C549.061 88.6313 548.087 84.3266 548.087 79.4139C548.087 74.5011 549.037 70.2207 550.961 66.524C552.885 62.8516 555.539 59.9818 558.949 57.9389C562.359 55.896 566.328 54.8745 570.858 54.8745C575.388 54.8745 579.26 55.896 582.475 57.9389C585.69 59.9818 588.149 62.6814 589.854 66.0133C591.559 69.3452 592.411 72.9446 592.411 76.7629C592.411 77.4439 592.411 78.1492 592.363 78.8302C592.338 79.5111 592.314 80.3137 592.314 81.1892H555.929C556.124 84.6428 556.928 87.5369 558.34 89.823C559.753 92.1091 561.555 93.8359 563.722 94.9546C565.89 96.0977 568.203 96.6571 570.663 96.6571C574.121 96.6571 576.825 95.9274 578.797 94.4925C580.746 93.0576 582.231 91.039 583.23 88.4611H591.072C590 92.7901 587.76 96.4625 584.374 99.4539C580.965 102.445 576.411 103.929 570.688 103.929L570.663 103.953ZM570.663 61.9761C567.01 61.9761 563.82 63.0705 561.068 65.2837C558.34 67.4968 556.635 70.5612 556.002 74.5254H584.545C584.301 70.6342 582.889 67.5698 580.332 65.3323C577.775 63.0948 574.56 61.9761 570.639 61.9761H570.663Z" fill="#19172D"/>
</svg>
