<svg version="1.1" id="Layer_1" xmlns="http://www.w3.org/2000/svg" x="0" y="0" viewBox="0 0 142 142" xml:space="preserve">
    <path d="M82.2 137.4c-36.5 6.5-71.4-18-77.8-54.5C-2.1 46.4 22.3 11.5 58.8 5c36.5-6.4 71.4 18 77.8 54.5 6.4 36.5-18 71.4-54.4 77.9zm-20.5-121-.9.1c-30.1 5.3-50.3 34.2-45 64.3 5.3 30.2 34.2 50.3 64.3 45s50.3-34.2 45-64.3c-5.3-29.8-33.6-49.8-63.4-45.1z" style="fill:#fff;stroke:#fff;stroke-width:.5954"/>
    <path fill="#fff" d="m100 88.5-9.7 1.7c-1.7.3-2.8 1.9-2.5 3.6.3 1.7 1.9 2.8 3.6 2.5l2.5-.4c-4.1 6.8-10.8 11.4-18.6 12.8-5 .9-10 .4-14.7-1.5-1.6-.6-3.4.2-4 1.7-.6 1.6.2 3.4 1.7 4 5.7 2.2 11.9 2.9 18 1.8 9.4-1.7 17.5-7.1 22.5-15.2l.4 2.3c.3 1.7 1.9 2.8 3.6 2.5 1.7-.3 2.8-1.9 2.5-3.6l-1.7-9.7c-.3-1.7-1.9-2.8-3.6-2.5zM124.2 57.1l4.4-.8-2.5-14.2L8.2 62.9l2.5 14.2 4.4-.8.9 5.4 4.9-.9.9 5.4 4.4-.8.9 5.4 31.1-5.5-.8-5.3 4.4-.8-.9-5.4 4.6-.8-1.9-10.7 10.2-1.8 1.9 10.7 4.6-.8.9 5.4 4.4-.8.9 5.4 31.1-5.5-.9-5.4 4.4-.8-.9-5.4 4.9-.9-.9-5.3zM35.1 67.3l.9 5.4-5.4.9-.9-5.4 5.4-.9zM20 75.5l-1-5.4 5.4-.9.9 5.4-5.3.9zm6.3 4.4-.9-5.4 5.4-.9.9 5.4-5.4.9zm6.3 4.4-.9-5.3 5.3-1 .9 5.4-5.3.9zM37 78l-.9-5.4 5.4-.9.9 5.4-5.4.9zm6.3 4.4-.9-5.4 5.4-.9.9 5.4-5.4.9zm51.3-25.6.9 5.4-5.4.9-.9-5.4 5.4-.9zM79.4 65l-.9-5.4 5.4-.9.9 5.4-5.4.9zm6.3 4.4-.9-5.4 5.4-.9.9 5.4-5.4.9zm6.3 4.5-.9-5.4 5.4-.9.9 5.4-5.4.9zm4.4-6.4-.9-5.4 5.4-.9.9 5.4-5.4.9zm6.4 4.5-.9-5.4 5.4-.9.9 5.4-5.4.9zM297.7 67.2c-2.2-1.2-4.7-1.8-7.4-1.8s-5.1.6-7.3 1.8c-2.2 1.2-4 3-5.3 5.6-1.3 2.5-2 5.7-2 9.6 0 5.9 1.4 10.1 4.3 12.9 2.8 2.7 6.3 4.1 10.3 4.1 2.7 0 5.2-.6 7.4-1.8 2.2-1.2 3.9-3 5.2-5.6 1.3-2.5 1.9-5.7 1.9-9.6 0-3.9-.7-7.1-1.9-9.6s-2.9-4.4-5.2-5.6zM192.7 65.4c-4 0-7.2 1.4-9.8 4.2-2.6 2.8-3.9 7.1-3.9 12.8s1.3 10 3.9 12.8c2.6 2.8 5.9 4.2 9.8 4.2 3.9 0 7.2-1.4 9.8-4.2 2.6-2.8 3.8-7.1 3.8-12.8s-1.3-10-3.8-12.8c-2.6-2.8-5.9-4.2-9.8-4.2z"/>
</svg>
