<svg viewBox="0 0 136 136" fill="none" xmlns="http://www.w3.org/2000/svg">
<path d="M57.773 13.2231C27.4438 18.5481 7.15078 47.6011 12.4998 77.9232C17.8487 108.245 46.8545 128.58 77.1561 123.227C107.458 117.875 127.778 88.8492 122.429 58.527C117.08 28.2048 88.0746 7.87051 57.773 13.2231Z" fill="white"/>
<path d="M79.1689 134.38H79.1427L79.117 134.384C42.6639 140.839 7.77392 116.365 1.32294 79.8857C-5.10042 43.4071 19.3307 8.49365 55.8121 2.03847C92.2657 -4.38908 127.183 20.0584 133.606 56.5369C140.028 93.0072 115.61 127.94 79.1704 134.38H79.1689ZM58.724 13.4097L58.7611 13.3726L57.8314 13.5369C27.6986 18.863 7.5185 47.7117 12.8131 77.8643L12.8132 77.8646C18.1355 108.017 46.9647 128.212 77.0976 122.886C107.23 117.56 127.411 88.7109 122.088 58.5855C116.82 28.7399 88.5215 8.65079 58.724 13.4097Z" fill="#19172D" stroke="#19172D" stroke-width="0.595354"/>
<path d="M97.0354 85.5105L87.3576 87.2211C85.7033 87.5246 84.5729 89.0973 84.8762 90.7803C85.1795 92.4357 86.7511 93.567 88.433 93.2635L90.8869 92.822C86.8062 99.6093 80.0786 104.245 72.2482 105.624C67.2852 106.507 62.212 105.983 57.5523 104.162C55.9807 103.555 54.1885 104.327 53.5819 105.9C52.9753 107.473 53.7474 109.266 55.319 109.873C61.0264 112.108 67.2576 112.742 73.3235 111.666C82.7255 110.011 90.8317 104.52 95.8498 96.464L96.2358 98.7264C96.5391 100.382 98.1107 101.513 99.7926 101.21C101.447 100.906 102.577 99.3334 102.274 97.6504L100.565 87.966C100.261 86.3106 98.6897 85.1794 97.0078 85.4829L97.0354 85.5105Z" fill="#19172D"/>
<path fill-rule="evenodd" clip-rule="evenodd" d="M5.19312 59.9064L7.70217 74.1432L12.1413 73.3706L13.0787 78.7508L17.9314 77.8955L18.8688 83.2757L23.3079 82.5032L24.2454 87.8558L55.319 82.3652L54.3816 77.0126L58.8207 76.2401L57.8832 70.8599L62.5153 70.0322L60.6129 59.2994L70.8421 57.506L72.7445 68.2388L77.3766 67.4111L78.3141 72.7912L82.7532 72.0187L83.6906 77.3713L114.764 71.8808L113.827 66.5282L118.266 65.7556L117.328 60.3754L122.181 59.5201L121.244 54.1399L125.683 53.3674L123.174 39.1306L5.19312 59.9064ZM21.4056 66.1968L16.0291 67.1349L16.9665 72.515L22.343 71.577L21.4056 66.1968ZM22.3428 71.5499L27.7193 70.6118L28.6568 75.992L23.2802 76.9301L22.3428 71.5499ZM34.0338 75.0269L28.6572 75.9649L29.5947 81.3451L34.9712 80.407L34.0338 75.0269ZM26.7546 65.2313L32.1312 64.2932L33.0686 69.6734L27.6921 70.6115L26.7546 65.2313ZM38.4451 68.7078L33.0686 69.6458L34.0061 75.026L39.3826 74.0879L38.4451 68.7078ZM39.3826 74.0604L44.7591 73.1223L45.6966 78.5025L40.32 79.4406L39.3826 74.0604ZM80.8508 55.6846L75.4742 56.6227L76.4117 62.0028L81.7882 61.0648L80.8508 55.6846ZM81.7887 61.0653L87.1652 60.1272L88.1027 65.5074L82.7261 66.4455L81.7887 61.0653ZM93.4787 64.5417L88.1022 65.4798L89.0396 70.86L94.4162 69.9219L93.4787 64.5417ZM86.1998 54.7472L91.5764 53.8091L92.5138 59.1893L87.1373 60.1273L86.1998 54.7472ZM97.89 58.2236L92.5134 59.1617L93.4509 64.5419L98.8274 63.6038L97.89 58.2236ZM98.8281 63.5763L104.205 62.6382L105.142 68.0184L99.7656 68.9564L98.8281 63.5763Z" fill="#19172D"/>
</svg>
