<svg width="2700" height="1045" viewBox="0 0 2700 1045" fill="none" xmlns="http://www.w3.org/2000/svg">
<path d="M0 25.9607H21.1604L46.8813 97.8517L72.2373 25.9607H93.0328L58.556 118.911H34.4769L0 25.9607Z" fill="black"/>
<path d="M101.632 47.5643C105.463 40.3026 110.753 34.8563 117.685 30.8623C124.617 26.8684 132.461 24.8714 141.399 24.8714C150.338 24.8714 158.181 26.6868 165.113 30.3177C172.045 33.9486 177.335 39.2133 181.348 45.7489C185.362 52.466 187.368 60.2723 187.551 69.1679C187.551 71.7095 187.368 74.0696 187.003 76.6112H116.59V77.7005C116.955 85.8699 119.509 92.2239 124.252 96.944C128.812 101.664 135.014 104.024 142.676 104.024C148.696 104.024 153.803 102.753 157.999 99.8487C162.012 96.944 164.749 92.9501 166.208 87.6853H185.909C184.085 97.1256 179.524 104.932 172.045 110.923C164.566 117.095 155.263 120 144.135 120C134.285 120 125.894 118.185 118.597 114.191C111.3 110.197 105.828 104.75 101.815 97.4887C97.8013 90.4085 95.9772 82.0575 95.9772 72.6172C95.9772 63.177 97.8013 54.826 101.632 47.5643ZM167.485 62.2693C166.573 55.5522 163.836 50.2874 159.276 46.475C154.716 42.6626 149.061 40.6657 142.129 40.6657C135.562 40.6657 130.089 42.6626 125.346 46.6566C120.604 50.6505 118.05 55.7337 117.32 62.2693H167.485Z" fill="black"/>
<path d="M255.102 25.9607V44.2965H246.346C238.137 44.2965 232.3 47.0197 228.652 52.2844C225.003 57.5492 223.179 64.2663 223.179 72.2542V118.911H203.478V25.9607H220.99L223.179 39.9395C225.733 35.5825 229.199 32.3147 233.577 29.7731C237.772 27.2315 243.427 25.9607 250.724 25.9607H255.102Z" fill="black"/>
<path d="M267.609 0H287.31V25.9607H309.93V43.2073H287.31V91.6793C287.31 95.3101 288.04 98.0333 289.499 99.4856C290.958 100.938 293.33 101.664 296.978 101.664H311.936V118.911H292.965C284.027 118.911 277.642 116.914 273.629 112.738C269.616 108.744 267.609 102.39 267.609 93.6762V0Z" fill="black"/>
<path d="M322.884 47.5643C326.715 40.3026 332.005 34.8563 338.937 30.8623C345.869 26.8684 353.713 24.8714 362.651 24.8714C371.59 24.8714 379.434 26.6868 386.366 30.3177C393.297 33.9486 398.588 39.2133 402.601 45.7489C406.614 52.466 408.621 60.2723 408.803 69.1679C408.803 71.7095 408.621 74.0696 408.256 76.6112H337.843V77.7005C338.207 85.8699 340.761 92.2239 345.504 96.944C350.065 101.664 356.267 104.024 363.928 104.024C369.948 104.024 375.056 102.753 379.251 99.8487C383.265 96.944 386.001 92.9501 387.46 87.6853H407.161C405.337 97.1256 400.777 104.932 393.297 110.923C385.818 117.095 376.515 120 365.388 120C355.537 120 347.146 118.185 339.849 114.191C332.552 110.197 327.08 104.75 323.067 97.4887C319.054 90.4085 317.229 82.0575 317.229 72.6172C317.229 63.177 319.054 54.826 322.884 47.5643ZM388.737 62.2693C387.825 55.5522 385.089 50.2874 380.528 46.475C375.968 42.6626 370.313 40.6657 363.381 40.6657C356.814 40.6657 351.341 42.6626 346.599 46.6566C341.856 50.6505 339.302 55.7337 338.572 62.2693H388.737Z" fill="black"/>
<path d="M447.262 71.3464L414.244 25.9607H437.229L459.666 57.3676L482.468 25.9607H503.993L470.793 71.3464L506 118.911H483.015L458.389 85.1437L433.58 118.911H412.238L447.262 71.3464Z" fill="black"/>
<path d="M505.865 268.988H107.779V543.627H0V170.447H505.865V268.988Z" fill="black"/>
<path d="M0.00601448 850.997V642.168H107.786L107.786 939.801H88.7661C31.7061 939.801 0.00601448 908.086 0.00601448 850.997Z" fill="black"/>
<path d="M107.779 556.011V543.627H505.865V642.168H194.467C138.739 642.168 107.779 611.739 107.779 556.011Z" fill="black"/>
<path d="M107.779 952.684V940.3H505.865V1038.84H194.467C138.739 1038.84 107.779 1008.41 107.779 952.684Z" fill="black"/>
<path d="M711.779 268.988H1044.36V281.372C1044.36 336.682 1074.85 367.595 1129.79 368.055L1130.58 368.055V841.759H1142.96C1198.69 841.759 1229.12 810.799 1229.12 755.071V454.218C1229.12 398.49 1198.69 367.53 1142.96 367.53H1130.58V355.671C1130.58 300.361 1100.08 269.449 1045.14 268.988H1044.36V256.604C1044.36 200.876 1013.4 170.447 957.668 170.447H604V1038.84H957.668C1013.4 1038.84 1044.36 1008.41 1044.36 952.684V940.826L1045.14 940.826C1100.08 940.366 1130.58 909.454 1130.58 854.144V841.759L1129.79 841.76C1074.85 842.22 1044.36 873.132 1044.36 928.442V940.3H711.779L711.779 268.988Z" fill="black"/>
<path d="M1376.66 379.259C1409.81 312.931 1457.7 262.57 1520.32 225.721C1581.72 188.872 1654.16 170.447 1736.43 170.447C1830.98 170.447 1910.79 196.242 1974.64 247.83C2038.49 299.419 2079.01 369.433 2096.2 457.871H1990.6C1973.41 398.912 1942.72 352.236 1898.51 319.072C1853.08 285.908 1797.83 268.712 1733.97 268.712C1675.04 268.712 1622.24 283.451 1576.8 311.702C1531.37 341.182 1496.99 380.487 1472.43 432.076C1447.87 483.665 1435.6 542.624 1435.6 607.724C1435.6 674.052 1447.87 731.782 1472.43 783.371C1496.99 834.96 1531.37 875.494 1576.8 903.745C1621.01 933.224 1672.58 946.736 1731.52 946.736C1783.09 946.736 1829.75 936.909 1871.5 917.256C1913.25 897.604 1945.17 868.124 1968.5 831.275C1989.63 797.913 2001.69 758.509 2003.78 713.976V669.312L2016.94 669.312C2076.12 669.312 2108.45 702.173 2108.48 761.326C2108.48 761.357 2108.48 761.387 2108.48 761.418V1038.84H2020.72L2009.02 901.289C1984.47 940.594 1948.86 973.758 1902.2 1002.01C1854.31 1031.49 1796.6 1045 1730.29 1045C1651.71 1045 1581.72 1026.58 1520.32 989.726C1458.93 952.877 1411.04 902.517 1376.66 836.188C1342.28 769.86 1326.31 693.705 1326.31 607.724C1326.31 521.742 1342.28 445.587 1376.66 379.259Z" fill="black"/>
<path d="M2003.78 669.312L1748.19 669.312V570.771L1917.1 570.771C1972.82 570.771 2003.78 601.2 2003.78 656.928V669.312Z" fill="black"/>
<path d="M2302.09 256.604V268.988H2699.33V170.447H2388.78C2333.05 170.447 2302.09 200.876 2302.09 256.604Z" fill="black"/>
<path d="M2194.31 721.662V358.292C2194.31 301.203 2226.01 269.488 2283.07 269.488H2302.09V545.215H2699.33V642.756H2302.09V696.662H2302.09V940.3H2699.33V1038.84H2194.31V721.662H2194.31Z" fill="black"/>
</svg>
