<svg width="31" height="30" viewBox="0 0 31 30" fill="none" xmlns="http://www.w3.org/2000/svg">
<g clip-path="url(#clip0_900_10360)">
<rect x="0.414795" width="30" height="30" rx="15" fill="black"/>
<path d="M15.4148 26.3827V22.5291C15.0306 22.5291 14.6381 22.4954 14.2539 22.4363L13.6525 26.2394C14.2372 26.3406 14.8302 26.3827 15.4148 26.3827ZM17.1687 26.2478C17.7533 26.155 18.3296 26.0201 18.8892 25.8346L17.7116 22.1665C17.3441 22.2846 16.9599 22.3773 16.5757 22.4363L17.1687 26.2478ZM11.9404 25.8346L13.118 22.1749C12.7505 22.0569 12.3914 21.9051 12.0406 21.728L10.3034 25.16C10.8296 25.4214 11.3808 25.6491 11.9404 25.8346ZM20.5178 25.16C21.044 24.8902 21.5451 24.5782 22.0212 24.2324L19.7661 21.1209C19.4571 21.3485 19.123 21.5594 18.7723 21.728L20.5178 25.16ZM8.8001 24.224L11.0551 21.1124C10.7461 20.8848 10.4454 20.6318 10.1698 20.3535L7.46379 23.0772C7.88139 23.4904 8.33239 23.8783 8.8001 24.224ZM23.3491 23.0941L23.3742 23.0688C23.7918 22.6556 24.1759 22.2002 24.5184 21.728L21.4282 19.4597C21.2027 19.7717 20.9438 20.0752 20.6765 20.3451L20.6347 20.3872L21.9376 21.6268L23.3491 23.0941ZM6.31958 21.7196L9.40979 19.4512C9.18428 19.1392 8.97549 18.8019 8.8001 18.4562L5.39252 20.2017C5.65978 20.733 5.9688 21.2389 6.31958 21.7196ZM25.4371 20.2102C25.7043 19.6874 25.9298 19.1308 26.1136 18.5658L22.4722 17.3853C22.3552 17.7563 22.2049 18.1189 22.0295 18.4646L25.4371 20.2102ZM4.71602 18.5658L8.35745 17.3769C8.24052 17.0058 8.14865 16.6264 8.09019 16.2385L4.30678 16.8372C4.39865 17.419 4.54063 18.0009 4.71602 18.5658ZM26.5228 16.8456C26.6147 16.2638 26.6648 15.6651 26.6648 15.0748H22.8396C22.8396 15.4627 22.8062 15.859 22.7478 16.2469L26.5228 16.8456ZM7.99832 15.0664C7.99832 14.6785 8.03172 14.2821 8.09019 13.8943L4.30678 13.2955C4.21491 13.8774 4.17315 14.4761 4.16479 15.0664H7.99832ZM22.7478 13.9027L26.5312 13.304C26.4393 12.7221 26.3057 12.1403 26.1219 11.5753L22.4805 12.7559C22.5974 13.1353 22.6893 13.5148 22.7478 13.9027ZM8.35745 12.7559C8.47437 12.3848 8.62471 12.0222 8.8001 11.6765L5.39252 9.93099C5.12526 10.4538 4.89976 11.0103 4.71602 11.5753L8.35745 12.7559ZM22.0379 11.6849L25.4538 9.93943C25.1865 9.40818 24.8775 8.90223 24.5267 8.42158L21.4282 10.6899C21.6537 11.0019 21.8625 11.3392 22.0379 11.6849ZM9.40979 10.6815C9.63529 10.3695 9.8942 10.0659 10.1698 9.78764L10.1782 9.77921L7.47215 7.05552L7.46379 7.06396C7.0462 7.48558 6.66201 7.9325 6.31958 8.41315L9.40979 10.6815ZM20.6765 9.80451L21.495 8.96969L23.3742 7.08082L23.3658 7.07239C22.9482 6.6592 22.5056 6.27131 22.0379 5.92558L19.7828 9.03715C20.0919 9.26483 20.3925 9.5178 20.6598 9.79607L20.6765 9.80451ZM11.0635 9.02029C11.3725 8.79261 11.7066 8.59023 12.0573 8.41315L10.3201 4.98114C9.79397 5.25098 9.29286 5.56298 8.8168 5.90871L11.0635 9.02029ZM18.7973 8.42158L20.5429 4.98957C20.0167 4.71973 19.4738 4.49206 18.9142 4.30654L17.7283 7.96623C18.0874 8.09272 18.4465 8.2445 18.7973 8.42158ZM13.1347 7.96623C13.5022 7.84818 13.8864 7.75542 14.2706 7.69639L13.6776 3.89335C13.1013 3.98611 12.5167 4.12103 11.9571 4.30654L13.1347 7.96623ZM16.5841 7.69639L17.1854 3.89335C16.6091 3.80059 16.0161 3.75 15.4315 3.75V7.60363C15.8157 7.60363 16.2082 7.63736 16.5841 7.69639Z" fill="white"/>
<path d="M15.4816 22.6363V18.7658C15.1559 18.7658 14.8385 18.7236 14.5211 18.6393L13.5189 22.3749C14.162 22.5435 14.8218 22.6363 15.4816 22.6363ZM17.4443 22.3749C18.0874 22.2062 18.6971 21.9532 19.2734 21.6159L17.3357 18.2683C17.0601 18.4285 16.7595 18.555 16.4504 18.6393L17.4443 22.3749ZM11.6982 21.6159L13.6358 18.2683C13.3602 18.108 13.1013 17.9057 12.8675 17.678L12.8341 17.6443L11.6147 18.9344L10.1113 20.3932L10.1364 20.4185C10.6041 20.8823 11.1303 21.2871 11.6982 21.6159ZM20.8352 20.4185C21.3029 19.9463 21.7121 19.4235 22.0379 18.8501L18.6887 16.9106C18.5301 17.1889 18.3296 17.4419 18.0958 17.678L20.8352 20.4185ZM8.92537 18.8417L12.2745 16.9106C12.1158 16.6324 11.9905 16.3372 11.907 16.0252L8.1737 17.0203C8.34074 17.6527 8.59965 18.2683 8.92537 18.8417ZM22.7979 17.0287C22.9649 16.3878 23.0568 15.7301 23.0568 15.0724H19.1899C19.1899 15.3928 19.1481 15.7217 19.0646 16.0337L22.7979 17.0287ZM11.7901 15.0639C11.7901 14.7435 11.8318 14.4146 11.9154 14.1026L8.1737 13.1076C8.00667 13.7485 7.91479 14.4062 7.91479 15.0639H11.7901ZM19.0562 14.1111L22.7979 13.116C22.6308 12.4752 22.3719 11.8596 22.0462 11.2862L18.6971 13.2172C18.8474 13.5039 18.9727 13.799 19.0562 14.1111ZM12.2828 13.2172C12.4415 12.9474 12.6336 12.686 12.8675 12.4583L12.8758 12.4499L11.4894 11.0669L10.1615 9.69244L10.1364 9.71774C9.66869 10.1815 9.2678 10.7128 8.93373 11.2777L12.2828 13.2172ZM18.0958 12.4583L19.4655 11.0838L20.8686 9.75147L20.8352 9.71774C20.3675 9.24552 19.8413 8.84919 19.2734 8.5119L17.3357 11.8596C17.6113 12.0198 17.8619 12.2137 18.0958 12.4414V12.4583ZM13.6358 11.8596C13.9115 11.6994 14.2121 11.5729 14.5211 11.4886L13.5356 7.75297C12.8925 7.92162 12.2828 8.1746 11.7066 8.5119L13.6358 11.8596ZM16.4421 11.497L17.4443 7.76141C16.8096 7.59276 16.1498 7.5 15.49 7.5V11.3705C15.8073 11.3705 16.1331 11.4127 16.4421 11.497Z" fill="white"/>
</g>
<defs>
<clipPath id="clip0_900_10360">
<rect x="0.414795" width="30" height="30" rx="15" fill="white"/>
</clipPath>
</defs>
</svg>
