<svg width="24" height="24" fill="none" xmlns="http://www.w3.org/2000/svg">
    <rect width="24" height="24" rx="12" fill="#0A0A0D"/>
    <path fill-rule="evenodd" clip-rule="evenodd" d="M11.968 24c3.524 0 6.695-1.511 8.895-3.919l-.585-.644a1.978 1.978 0 0 0-2.77-.153l-1.248 1.1a4.268 4.268 0 0 1-5.866-.214l-.781-.797a1.978 1.978 0 0 0-2.762-.06l-2.29 2.143A12 12 0 0 0 11.968 24Zm10.002-6.085.285.313A11.92 11.92 0 0 0 24 12c0-2.765-.938-5.312-2.514-7.342a1.966 1.966 0 0 0-.815.432l-1.249 1.1a4.268 4.268 0 0 1-5.865-.214l-.781-.798a1.978 1.978 0 0 0-2.762-.06L6.8 8.126 5.237 6.473l3.214-3.007a4.268 4.268 0 0 1 5.959.13l.78.797c.735.75 1.932.794 2.72.1l1.248-1.101c.21-.185.433-.346.665-.482A12.003 12.003 0 0 0 11.968 0C5.933 0 .935 4.433.07 10.212a4.27 4.27 0 0 1 5.17.715l.902.922a1.978 1.978 0 0 0 2.627.176l2.677-2.086a4.27 4.27 0 0 1 5.42.144l3.645 3.168-1.5 1.708-3.646-3.167a1.978 1.978 0 0 0-2.512-.067l-2.677 2.086a4.268 4.268 0 0 1-5.668-.379l-.903-.922a1.978 1.978 0 0 0-2.762-.06L0 13.238a11.935 11.935 0 0 0 2.904 6.653l2.384-2.23a4.268 4.268 0 0 1 5.96.129l.78.797c.734.75 1.931.794 2.719.1l1.249-1.101a4.268 4.268 0 0 1 5.974.33Z" fill="url(#a)"/>
    <defs>
        <linearGradient id="a" x1="12" y1="0" x2="16.718" y2="24" gradientUnits="userSpaceOnUse">
            <stop stop-color="#780000"/>
            <stop offset="1" stop-color="#C1121F"/>
        </linearGradient>
    </defs>
</svg>
