<svg width="51" height="10" viewBox="0 0 51 10" fill="none" xmlns="http://www.w3.org/2000/svg">
<g clip-path="url(#clip0_687_498)">
<path d="M13.3301 2.01326L15.9879 9.21285H17.8436L20.5015 2.01326H18.8992L16.9449 7.58145L14.962 2.01326H13.3301ZM20.7962 3.68643C20.501 4.24917 20.3592 4.89591 20.3592 5.62858C20.3592 6.36126 20.5 7.00657 20.8093 7.55523C21.1047 8.10361 21.5544 8.5533 22.1028 8.84869C22.665 9.15798 23.3123 9.29881 24.0717 9.29881C24.9291 9.29881 25.6463 9.0735 26.2231 8.59573C26.7994 8.13155 27.1509 7.52753 27.2913 6.79582H25.7725C25.6599 7.20367 25.4491 7.51298 25.1413 7.73778C24.8174 7.96259 24.4242 8.06116 23.96 8.06116C23.3696 8.06116 22.8918 7.8786 22.5398 7.51299C22.1742 7.14738 21.977 6.65503 21.9494 6.02237V5.93788H27.3767C27.4048 5.74705 27.4189 5.55442 27.419 5.36154C27.4049 4.67256 27.2505 4.06761 26.9412 3.54759C26.6418 3.04164 26.2087 2.62802 25.6895 2.35219C25.1554 2.07107 24.5504 1.93024 23.8614 1.93024C23.1724 1.93024 22.5679 2.08515 22.0334 2.39444C21.5036 2.69567 21.0731 3.14458 20.7943 3.68643H20.7962ZM25.8725 4.8255H22.0052C22.0615 4.31957 22.2587 3.92583 22.6243 3.61654C22.9834 3.30747 23.4441 3.14211 23.9177 3.15234C24.4518 3.15234 24.8888 3.30676 25.2394 3.60245C25.5899 3.89815 25.8002 4.30549 25.8706 4.8255H25.8725ZM32.0636 2.01326H31.7237C31.1615 2.01326 30.7255 2.11038 30.4021 2.30847C30.0701 2.49562 29.7935 2.76737 29.6005 3.09605L29.432 2.01326H28.0817V9.21479H29.6005V5.60094C29.6005 4.98236 29.7413 4.46185 30.0224 4.054C30.3035 3.64614 30.7536 3.43541 31.3863 3.43541H32.0612L32.0636 2.01326ZM32.7084 0.00263977V7.25808C32.7084 7.93298 32.863 8.42516 33.1721 8.73461C33.4814 9.05798 33.9737 9.21285 34.6627 9.21285H36.1252V7.87714H34.972C34.6909 7.87714 34.5083 7.8208 34.3957 7.70815C34.283 7.59551 34.2267 7.38477 34.2267 7.10364V3.34902H35.9703V2.01326H34.2267V0.00263977H32.7084ZM36.6976 3.68643C36.4029 4.24917 36.2606 4.89591 36.2606 5.62858C36.2606 6.36126 36.4014 7.00657 36.7107 7.55523C37.0061 8.10361 37.4558 8.5533 38.0042 8.84869C38.5664 9.15798 39.2132 9.29881 39.9726 9.29881C40.8305 9.29881 41.5477 9.0735 42.124 8.59573C42.7008 8.13155 43.0523 7.52753 43.1922 6.79582H41.6739C41.5612 7.20367 41.3505 7.51298 41.0427 7.73778C40.7198 7.96259 40.3255 8.06116 39.8619 8.06116C39.2714 8.06116 38.7937 7.8786 38.4417 7.51299C38.0756 7.14738 37.8789 6.65503 37.8512 6.02237V5.93788H43.2791C43.3067 5.74701 43.3207 5.5544 43.3208 5.36154C43.3068 4.67256 43.1519 4.06761 42.8426 3.54759C42.5428 3.04074 42.1087 2.62654 41.5884 2.35072C41.0543 2.0696 40.4494 1.92882 39.7604 1.92882C39.0714 1.92882 38.4669 2.08368 37.9323 2.39297C37.4035 2.69516 36.9738 3.14453 36.6957 3.68643H36.6976ZM41.7739 4.8255H37.9071C37.9634 4.31957 38.1605 3.92583 38.5257 3.61654C38.885 3.30756 39.3458 3.14222 39.8196 3.15234C40.3537 3.15234 40.7907 3.30676 41.1417 3.60245C41.4928 3.89815 41.7016 4.30549 41.772 4.8255H41.7739ZM45.7233 5.52858L43.0232 9.21285H44.6682L46.5807 6.59724L48.4792 9.21285H50.2509L47.5368 5.52858L50.096 2.01326H48.4345L46.6769 4.44584L44.9469 2.01326H43.1752L45.7233 5.52858Z" fill="#333333"/>
<g clip-path="url(#clip1_687_498)">
<path d="M6.21066 8.2275C6.14188 8.47036 5.99788 8.68517 5.79936 8.84107C5.60041 8.99652 5.35732 9.08495 5.10499 9.09366H3.42349L0 1.93555H3.41913L5.12918 5.5163C5.12918 5.5163 6.37712 7.6391 6.21066 8.2275Z" fill="#333333"/>
<path d="M6.2099 8.2275C6.37636 7.6391 5.12891 5.51775 5.12891 5.51775H6.97783L6.2099 8.2275Z" fill="url(#paint0_linear_687_498)"/>
<path d="M6.97852 5.51774H10.3173V1.937H8.98373C8.73041 1.93714 8.48369 2.0178 8.2792 2.16733C8.07469 2.31711 7.92318 2.52811 7.84661 2.76976L6.97852 5.51774Z" fill="#333333"/>
</g>
</g>
<defs>
<linearGradient id="paint0_linear_687_498" x1="6.10732" y1="5.32806" x2="5.30891" y2="8.15879" gradientUnits="userSpaceOnUse">
<stop/>
<stop offset="1" stop-opacity="0.22"/>
</linearGradient>
<clipPath id="clip0_687_498">
<rect width="50.2756" height="9.2422" fill="white"/>
</clipPath>
<clipPath id="clip1_687_498">
<rect width="10.3174" height="7.15811" fill="white" transform="translate(0 1.93555)"/>
</clipPath>
</defs>
</svg>
