<svg width="600" height="86" viewBox="0 0 600 86" fill="none" xmlns="http://www.w3.org/2000/svg">
    <path fill-rule="evenodd" clip-rule="evenodd"
          d="M189.186 0.547821V27.7992H193.436C194.264 22.7445 198.983 16.5223 209.718 16.5223C226.124 16.5223 236.376 29.7909 236.376 46.5895V48.3477C236.376 65.2562 226.11 78.5385 209.718 78.5385C198.983 78.5385 194.374 72.3163 193.436 67.2616H189.186V76.8902H179.748V0.547821H189.186ZM207.828 70.4345C219.391 70.4345 226.704 61.8635 226.704 48.3614V46.6032C226.704 33.1012 219.391 24.7637 207.828 24.7637C196.264 24.7637 189.186 33.1012 189.186 46.6032V48.3614C189.186 61.8635 196.03 70.4345 207.828 70.4345Z"
          fill="#FFFFFF"/>
    <path fill-rule="evenodd" clip-rule="evenodd"
          d="M140.16 16.5223C150.895 16.5223 155.614 22.7445 156.442 27.7992H160.692V18.1706H170.13V76.8902H160.692V67.2616H156.442C155.504 72.3163 150.895 78.5385 140.16 78.5385C123.754 78.5385 113.502 65.2699 113.502 48.3477V46.5895C113.502 29.7909 123.768 16.5223 140.16 16.5223ZM142.051 70.4345C153.848 70.4345 160.692 61.8635 160.692 48.3614V46.6032C160.692 33.1012 153.848 24.7637 142.051 24.7637C130.253 24.7637 123.174 33.1012 123.174 46.6032V48.3614C123.174 61.8635 130.488 70.4345 142.051 70.4345Z"
          fill="#FFFFFF"/>
    <path d="M284.353 60.7921C284.353 67.246 276.81 70.7759 269.14 70.7779C261.112 70.776 252.741 67.6021 250.147 57.8527H240.709C242.958 70.2971 253.459 78.5248 267.851 78.5248C282.242 78.5248 293.805 72.5223 293.805 61.1355C293.805 48.8009 283.788 45.5181 274.225 43.8699C272.225 43.5265 266.443 42.4688 264.787 42.1117C256.177 40.2299 253.224 38.1284 253.224 33.5407C253.224 27.4284 260.068 24.1456 266.084 24.1456C271.742 24.1456 279.055 25.6702 281.18 35.8895H290.618C288.369 22.7308 278.337 16.5086 266.071 16.5086C253.804 16.5086 244.241 24.9697 244.241 34.1313C244.241 43.293 251.789 48.6911 263.352 50.5728L271.728 51.9876C279.993 53.3886 284.353 55.5039 284.353 60.7921Z"
          fill="#FFFFFF"/>
    <path d="M310.184 18.1706C313.137 18.1706 313.965 17.3464 313.965 14.407V0.547821H323.403V18.1706H352.669V26.3982H323.403V67.7423H352.669V76.904H322.34C317.746 76.904 313.965 73.1404 313.965 68.5665V26.3982H296.027V18.1706H310.184Z"
          fill="#FFFFFF"/>
    <path d="M377.203 26.3845V67.6187H359.279V76.8902H413.548V67.6187H386.641V47.9906C386.641 32.7303 399.501 23.3352 413.783 27.6756V17.0992C401.75 14.7504 392.657 23.8022 390.891 30.2579H386.641V18.1568H363.515V26.3845H377.203Z"
          fill="#FFFFFF"/>
    <path fill-rule="evenodd" clip-rule="evenodd"
          d="M443.753 16.5223C454.488 16.5223 459.207 22.7445 460.035 27.7992H464.285V18.1706H473.723V76.8902H464.285V67.2616H460.035C459.097 72.3163 454.488 78.5385 443.753 78.5385C427.347 78.5385 417.094 65.2699 417.094 48.3477V46.5895C417.094 29.7909 427.36 16.5223 443.753 16.5223ZM445.643 70.4345C457.441 70.4345 464.285 61.8635 464.285 48.3614V46.6032C464.285 33.1012 457.441 24.7637 445.643 24.7637C433.846 24.7637 426.767 33.1012 426.767 46.6032V48.3614C426.767 61.8635 434.08 70.4345 445.643 70.4345Z"
          fill="#FFFFFF"/>
    <path d="M538.617 37.8949C535.664 25.4504 526.336 16.5223 510.647 16.5223L510.661 16.5086C491.895 16.5086 481.988 29.6673 481.988 46.5758V48.3339C481.988 65.2562 491.895 78.5248 510.661 78.5248C526.005 78.5248 535.319 70.0636 538.506 57.8527H528.709C525.756 65.9567 519.395 70.5306 510.661 70.5306C499.098 70.5306 491.426 61.836 491.426 48.3339V46.5758C491.426 32.9638 499.098 24.5027 510.661 24.5027C519.616 24.5027 526.115 29.5574 528.944 37.8949H538.617Z"
          fill="#FFFFFF"/>
    <path d="M556.789 18.1706C559.742 18.1706 560.57 17.3464 560.57 14.407V0.547821H570.008V18.1706H599.274V26.3982H570.008V67.7423H599.274V76.904H568.945C564.351 76.904 560.57 73.1404 560.57 68.5665V26.3982H542.632V18.1706H556.789Z"
          fill="#FFFFFF"/>
    <path d="M75.8182 77.1649L58.1148 59.5422H30.1593L12.4559 77.1649L20.7626 85.4338L38.4659 67.811C39.9837 66.3001 41.9845 65.4759 44.1371 65.4759C46.2896 65.4759 48.2904 66.3001 49.8082 67.811L67.5116 85.4338L75.8182 77.1649Z"
          fill="#FFFFFF"/>
    <path d="M61.0677 54.46L85.2425 60.902L88.2781 49.5976L64.1033 43.1556C62.0336 42.6062 60.3088 41.2876 59.2325 39.4333C58.1562 37.5927 57.8803 35.4362 58.4322 33.3759L64.9036 9.31112L53.5476 6.2893L47.0761 30.354L61.0539 54.4463L61.0677 54.46Z"
          fill="#FFFFFF"/>
    <path d="M3.04541 60.902L27.2202 54.46L27.234 54.4463L41.2118 30.3541L34.7403 6.2893L23.3843 9.31112L29.8557 33.3759C30.4076 35.4362 30.1317 37.5927 29.0554 39.4333C27.9791 41.2876 26.2543 42.6062 24.1846 43.1556L0.00976562 49.5976L3.04541 60.902Z"
          fill="#FFFFFF"/>
</svg>
