<svg width="41" height="13" viewBox="0 0 41 13" fill="none" xmlns="http://www.w3.org/2000/svg">
<g id="Frame 1000003502">
<g id="Group 624977">
<g id="Vector">
<path d="M8.39455 1.46479H2.47711V5.54721H0.875V0H8.39455V1.46479Z" fill="white"/>
<path d="M0.875089 10.1162V7.012H2.47721L2.47721 11.4362H2.19449C1.3463 11.4362 0.875089 10.9648 0.875089 10.1162Z" fill="white"/>
<path d="M2.47711 5.7313V5.54721H8.39455V7.012H3.76571C2.93733 7.012 2.47711 6.55968 2.47711 5.7313Z" fill="white"/>
<path d="M2.47711 11.6277V11.4437H8.39455V12.9085H3.76571C2.93733 12.9085 2.47711 12.4561 2.47711 11.6277Z" fill="white"/>
</g>
<path id="Union" d="M11.4551 1.46479H16.3988V1.64887C16.3988 2.47104 16.8521 2.93054 17.6688 2.93739L17.6805 2.93739V9.97887H17.8646C18.693 9.97887 19.1453 9.51866 19.1453 8.69028V4.21817C19.1453 3.38979 18.693 2.92958 17.8646 2.92958H17.6805V2.7533C17.6805 1.93114 17.2272 1.47164 16.4105 1.46479H16.3988V1.2807C16.3988 0.452322 15.9386 0 15.1102 0H9.85303V12.9085H15.1102C15.9386 12.9085 16.3988 12.4561 16.3988 11.6277V11.4515L16.4105 11.4515C17.2272 11.4446 17.6805 10.9851 17.6805 10.163V9.97887L17.6688 9.97888C16.8521 9.98573 16.3988 10.4452 16.3988 11.2674V11.4437H11.4551L11.4551 1.46479Z" fill="white"/>
<g id="Union_2">
<path d="M21.3387 3.10393C21.8315 2.11798 22.5433 1.36938 23.4742 0.821629C24.3868 0.273876 25.4637 0 26.6866 0C28.0921 0 29.2785 0.383426 30.2276 1.15028C31.1767 1.91714 31.779 2.95786 32.0346 4.27247H30.4649C30.2093 3.39607 29.753 2.70225 29.0959 2.20927C28.4206 1.71629 27.5992 1.46067 26.6501 1.46067C25.774 1.46067 24.9892 1.67978 24.3138 2.09972C23.6385 2.53792 23.1274 3.12219 22.7624 3.88904C22.3973 4.6559 22.2148 5.5323 22.2148 6.5C22.2148 7.48596 22.3973 8.3441 22.7624 9.11096C23.1274 9.87781 23.6385 10.4803 24.3138 10.9003C24.9709 11.3385 25.7375 11.5393 26.6136 11.5393C27.3802 11.5393 28.0738 11.3933 28.6944 11.1011C29.315 10.809 29.7895 10.3708 30.1363 9.82303C30.4503 9.32711 30.6296 8.74139 30.6608 8.07942V7.41549L30.8563 7.41549C31.736 7.41549 32.2166 7.90396 32.2171 8.78326C32.2171 8.78371 32.2171 8.78417 32.2171 8.78463V12.9085H30.9125L30.7387 10.8638C30.3736 11.448 29.8443 11.941 29.1507 12.361C28.4389 12.7992 27.581 13 26.5954 13C25.4272 13 24.3868 12.7261 23.4742 12.1784C22.5616 11.6306 21.8497 10.882 21.3387 9.89607C20.8276 8.91011 20.5903 7.77809 20.5903 6.5C20.5903 5.22191 20.8276 4.08989 21.3387 3.10393Z" fill="white"/>
<path d="M30.6608 7.41549L26.8615 7.41549V5.95071L29.3722 5.9507C30.2005 5.9507 30.6608 6.40303 30.6608 7.23141V7.41549Z" fill="white"/>
</g>
<g id="Union_3">
<path d="M35.0958 1.2807V1.46479H41.0007V0H36.3844C35.556 0 35.0958 0.452322 35.0958 1.2807Z" fill="white"/>
<path d="M33.4937 8.19366V2.79226C33.4937 1.94366 33.965 1.47221 34.8131 1.47221H35.0959V5.57082H41.0007V7.02075H35.0959V7.82204H35.0958V11.4437H41.0007V12.9085H33.4937V8.19366H33.4937Z" fill="white"/>
</g>
</g>
</g>
</svg>
