<svg xmlns="http://www.w3.org/2000/svg" width="79" height="21" fill="none"><mask id="c" width="79" height="21" x="0" y=".5" fill="#000" maskUnits="userSpaceOnUse"><path fill="#fff" d="M0 .5h79v21H0z"/><path d="M14.803.9v2.8h-5.6v16.8h-2.8V3.7h-5.6V.9h14Zm3.774 0h2.8v2.8h-2.8V.9Zm2.8 16.8h2.8v2.8h-5.6V9.3h-2.8V6.5h5.6v11.2ZM37.068 6.5v1.4h2.8v5.6h-2.8v1.4h-7.7v2.8h7.7v-1.4h2.8v2.8h-2.8v1.4h-8.4v-2.8h-2.1v-2.8h-.7v-2.8h.7V9.3h2.1V6.5h8.4Zm0 5.6V9.3h-7.7v2.8h7.7Zm4.47-5.6h2.8v2.8h2.8v2.8h-2.8v8.4h-2.8v-14Zm5.6 0h5.6v2.8h-5.6V6.5Zm5.6 5.6V9.3h2.8v2.8h-2.8Zm25.06-9.8v2.8h.7v2.8h-.7v2.8h-2.8v1.4h-4.2v2.8h-4.2v2.8h11.2v2.8h-14v-5.6h1.4v-2.8h4.2V9.3h5.6V7.9h.7V5.1h-.7V3.7h-8.4V.9h8.4v1.4h2.8Zm-11.2 4.2h-2.8V3.7h2.8v2.8Z"/></mask><path fill="#D0D0D9" d="M14.803.9v2.8h-5.6v16.8h-2.8V3.7h-5.6V.9h14Zm3.774 0h2.8v2.8h-2.8V.9Zm2.8 16.8h2.8v2.8h-5.6V9.3h-2.8V6.5h5.6v11.2ZM37.068 6.5v1.4h2.8v5.6h-2.8v1.4h-7.7v2.8h7.7v-1.4h2.8v2.8h-2.8v1.4h-8.4v-2.8h-2.1v-2.8h-.7v-2.8h.7V9.3h2.1V6.5h8.4Zm0 5.6V9.3h-7.7v2.8h7.7Zm4.47-5.6h2.8v2.8h2.8v2.8h-2.8v8.4h-2.8v-14Zm5.6 0h5.6v2.8h-5.6V6.5Zm5.6 5.6V9.3h2.8v2.8h-2.8Zm25.06-9.8v2.8h.7v2.8h-.7v2.8h-2.8v1.4h-4.2v2.8h-4.2v2.8h11.2v2.8h-14v-5.6h1.4v-2.8h4.2V9.3h5.6V7.9h.7V5.1h-.7V3.7h-8.4V.9h8.4v1.4h2.8Zm-11.2 4.2h-2.8V3.7h2.8v2.8Z"/><path fill="url(#a)" d="M14.803.9v2.8h-5.6v16.8h-2.8V3.7h-5.6V.9h14Zm3.774 0h2.8v2.8h-2.8V.9Zm2.8 16.8h2.8v2.8h-5.6V9.3h-2.8V6.5h5.6v11.2ZM37.068 6.5v1.4h2.8v5.6h-2.8v1.4h-7.7v2.8h7.7v-1.4h2.8v2.8h-2.8v1.4h-8.4v-2.8h-2.1v-2.8h-.7v-2.8h.7V9.3h2.1V6.5h8.4Zm0 5.6V9.3h-7.7v2.8h7.7Zm4.47-5.6h2.8v2.8h2.8v2.8h-2.8v8.4h-2.8v-14Zm5.6 0h5.6v2.8h-5.6V6.5Zm5.6 5.6V9.3h2.8v2.8h-2.8Zm25.06-9.8v2.8h.7v2.8h-.7v2.8h-2.8v1.4h-4.2v2.8h-4.2v2.8h11.2v2.8h-14v-5.6h1.4v-2.8h4.2V9.3h5.6V7.9h.7V5.1h-.7V3.7h-8.4V.9h8.4v1.4h2.8Zm-11.2 4.2h-2.8V3.7h2.8v2.8Z"/><path fill="url(#b)" d="M14.803.9h.16V.74h-.16V.9Zm0 2.8v.16h.16V3.7h-.16Zm-5.6 0v-.16h-.16v.16h.16Zm0 16.8v.16h.16v-.16h-.16Zm-2.8 0h-.16v.16h.16v-.16Zm0-16.8h.16v-.16h-.16v.16Zm-5.6 0h-.16v.16h.16V3.7Zm0-2.8V.74h-.16V.9h.16Zm13.84 0v2.8h.32V.9h-.32Zm.16 2.64h-5.6v.32h5.6v-.32Zm-5.76.16v16.8h.32V3.7h-.32Zm.16 16.64h-2.8v.32h2.8v-.32Zm-2.64.16V3.7h-.32v16.8h.32Zm-.16-16.96h-5.6v.32h5.6v-.32Zm-5.44.16V.9h-.32v2.8h.32Zm-.16-2.64h14V.74h-14v.32ZM18.577.9V.74h-.16V.9h.16Zm2.8 0h.16V.74h-.16V.9Zm0 2.8v.16h.16V3.7h-.16Zm-2.8 0h-.16v.16h.16V3.7Zm2.8 14h-.16v.16h.16v-.16Zm2.8 0h.16v-.16h-.16v.16Zm0 2.8v.16h.16v-.16h-.16Zm-5.6 0h-.16v.16h.16v-.16Zm0-11.2h.16v-.16h-.16v.16Zm-2.8 0h-.16v.16h.16V9.3Zm0-2.8v-.16h-.16v.16h.16Zm5.6 0h.16v-.16h-.16v.16Zm-2.8-5.44h2.8V.74h-2.8v.32Zm2.64-.16v2.8h.32V.9h-.32Zm.16 2.64h-2.8v.32h2.8v-.32Zm-2.64.16V.9h-.32v2.8h.32Zm2.64 14.16h2.8v-.32h-2.8v.32Zm2.64-.16v2.8h.32v-2.8h-.32Zm.16 2.64h-5.6v.32h5.6v-.32Zm-5.44.16V9.3h-.32v11.2h.32Zm-.16-11.36h-2.8v.32h2.8v-.32Zm-2.64.16V6.5h-.32v2.8h.32Zm-.16-2.64h5.6v-.32h-5.6v.32Zm5.44-.16v11.2h.32V6.5h-.32Zm15.851 0h.16v-.16h-.16v.16Zm0 1.4h-.16v.16h.16V7.9Zm2.8 0h.16v-.16h-.16v.16Zm0 5.6v.16h.16v-.16h-.16Zm-2.8 0v-.16h-.16v.16h.16Zm0 1.4v.16h.16v-.16h-.16Zm-7.7 0v-.16h-.16v.16h.16Zm0 2.8h-.16v.16h.16v-.16Zm7.7 0v.16h.16v-.16h-.16Zm0-1.4v-.16h-.16v.16h.16Zm2.8 0h.16v-.16h-.16v.16Zm0 2.8v.16h.16v-.16h-.16Zm-2.8 0v-.16h-.16v.16h.16Zm0 1.4v.16h.16v-.16h-.16Zm-8.4 0h-.16v.16h.16v-.16Zm0-2.8h.16v-.16h-.16v.16Zm-2.1 0h-.16v.16h.16v-.16Zm0-2.8h.16v-.16h-.16v.16Zm-.7 0h-.16v.16h.16v-.16Zm0-2.8v-.16h-.16v.16h.16Zm.7 0v.16h.16v-.16h-.16Zm0-2.8v-.16h-.16v.16h.16Zm2.1 0v.16h.16V9.3h-.16Zm0-2.8v-.16h-.16v.16h.16Zm8.4 5.6v.16h.16v-.16h-.16Zm0-2.8h.16v-.16h-.16v.16Zm-7.7 0v-.16h-.16v.16h.16Zm0 2.8h-.16v.16h.16v-.16Zm7.54-5.6v1.4h.32V6.5h-.32Zm.16 1.56h2.8v-.32h-2.8v.32Zm2.64-.16v5.6h.32V7.9h-.32Zm.16 5.44h-2.8v.32h2.8v-.32Zm-2.96.16v1.4h.32v-1.4h-.32Zm.16 1.24h-7.7v.32h7.7v-.32Zm-7.86.16v2.8h.32v-2.8h-.32Zm.16 2.96h7.7v-.32h-7.7v.32Zm7.86-.16v-1.4h-.32v1.4h.32Zm-.16-1.24h2.8v-.32h-2.8v.32Zm2.64-.16v2.8h.32v-2.8h-.32Zm.16 2.64h-2.8v.32h2.8v-.32Zm-2.96.16v1.4h.32v-1.4h-.32Zm.16 1.24h-8.4v.32h8.4v-.32Zm-8.24.16v-2.8h-.32v2.8h.32Zm-.16-2.96h-2.1v.32h2.1v-.32Zm-1.94.16v-2.8h-.32v2.8h.32Zm-.16-2.96h-.7v.32h.7v-.32Zm-.54.16v-2.8h-.32v2.8h.32Zm-.16-2.64h.7v-.32h-.7v.32Zm.86-.16V9.3h-.32v2.8h.32Zm-.16-2.64h2.1v-.32h-2.1v.32Zm2.26-.16V6.5h-.32v2.8h.32Zm-.16-2.64h8.4v-.32h-8.4v.32Zm8.56 5.44V9.3h-.32v2.8h.32Zm-.16-2.96h-7.7v.32h7.7v-.32Zm-7.86.16v2.8h.32V9.3h-.32Zm.16 2.96h7.7v-.32h-7.7v.32Zm12.17-5.76v-.16h-.161v.16h.16Zm2.8 0h.16v-.16h-.16v.16Zm0 2.8h-.161v.16h.16V9.3Zm2.8 0h.16v-.16h-.16v.16Zm0 2.8v.16h.16v-.16h-.16Zm-2.8 0v-.16h-.161v.16h.16Zm0 8.4v.16h.16v-.16h-.16Zm-2.8 0h-.161v.16h.16v-.16Zm5.6-14v-.16h-.161v.16h.16Zm5.6 0h.16v-.16h-.16v.16Zm0 2.8v.16h.16V9.3h-.16Zm-5.6 0h-.161v.16h.16V9.3Zm5.6 2.8h-.161v.16h.16v-.16Zm0-2.8v-.16h-.161v.16h.16Zm2.8 0h.16v-.16h-.16v.16Zm0 2.8v.16h.16v-.16h-.16Zm-14-5.44h2.8v-.32h-2.8v.32Zm2.639-.16v2.8h.32V6.5h-.32Zm.16 2.96h2.8v-.32h-2.8v.32Zm2.64-.16v2.8h.32V9.3h-.32Zm.16 2.64h-2.8v.32h2.8v-.32Zm-2.96.16v8.4h.32v-8.4h-.32Zm.16 8.24h-2.8v.32h2.8v-.32Zm-2.64.16v-14h-.32v14h.32Zm5.44-13.84h5.6v-.32h-5.6v.32Zm5.44-.16v2.8h.32V6.5h-.32Zm.16 2.64h-5.6v.32h5.6v-.32Zm-5.44.16V6.5h-.32v2.8h.32Zm5.6 2.8V9.3h-.32v2.8h.32Zm-.16-2.64h2.8v-.32h-2.8v.32Zm2.64-.16v2.8h.32V9.3h-.32Zm.16 2.64h-2.8v.32h2.8v-.32Zm22.26-9.64h.16v-.16h-.16v.16Zm0 2.8h-.16v.16h.16V5.1Zm.7 0h.16v-.16h-.16v.16Zm0 2.8v.16h.16V7.9h-.16Zm-.7 0v-.16h-.16v.16h.16Zm0 2.8v.16h.16v-.16h-.16Zm-2.8 0v-.16h-.16v.16h.16Zm0 1.4v.16h.16v-.16h-.16Zm-4.2 0v-.16h-.16v.16h.16Zm0 2.8v.16h.16v-.16h-.16Zm-4.2 0v-.16h-.16v.16h.16Zm0 2.8h-.16v.16h.16v-.16Zm11.2 0h.16v-.16h-.16v.16Zm0 2.8v.16h.16v-.16h-.16Zm-14 0h-.16v.16h.16v-.16Zm0-5.6v-.16h-.16v.16h.16Zm1.4 0v.16h.16v-.16h-.16Zm0-2.8v-.16h-.16v.16h.16Zm4.2 0v.16h.16v-.16h-.16Zm0-2.8v-.16h-.16v.16h.16Zm5.6 0v.16h.16V9.3h-.16Zm0-1.4v-.16h-.16v.16h.16Zm.7 0v.16h.16V7.9h-.16Zm0-2.8h.16v-.16h-.16v.16Zm-.7 0h-.16v.16h.16V5.1Zm0-1.4h.16v-.16h-.16v.16Zm-8.4 0h-.16v.16h.16V3.7Zm0-2.8V.74h-.16V.9h.16Zm8.4 0h.16V.74h-.16V.9Zm0 1.4h-.16v.16h.16V2.3Zm-8.4 4.2v.16h.16V6.5h-.16Zm-2.8 0h-.16v.16h.16V6.5Zm0-2.8v-.16h-.16v.16h.16Zm2.8 0h.16v-.16h-.16v.16Zm11.04-1.4v2.8h.32V2.3h-.32Zm.16 2.96h.7v-.32h-.7v.32Zm.54-.16v2.8h.32V5.1h-.32Zm.16 2.64h-.7v.32h.7v-.32Zm-.86.16v2.8h.32V7.9h-.32Zm.16 2.64h-2.8v.32h2.8v-.32Zm-2.96.16v1.4h.32v-1.4h-.32Zm.16 1.24h-4.2v.32h4.2v-.32Zm-4.36.16v2.8h.32v-2.8h-.32Zm.16 2.64h-4.2v.32h4.2v-.32Zm-4.36.16v2.8h.32v-2.8h-.32Zm.16 2.96h11.2v-.32h-11.2v.32Zm11.04-.16v2.8h.32v-2.8h-.32Zm.16 2.64h-14v.32h14v-.32Zm-13.84.16v-5.6h-.32v5.6h.32Zm-.16-5.44h1.4v-.32h-1.4v.32Zm1.56-.16v-2.8h-.32v2.8h.32Zm-.16-2.64h4.2v-.32h-4.2v.32Zm4.36-.16V9.3h-.32v2.8h.32Zm-.16-2.64h5.6v-.32h-5.6v.32Zm5.76-.16V7.9h-.32v1.4h.32Zm-.16-1.24h.7v-.32h-.7v.32Zm.86-.16V5.1h-.32v2.8h.32Zm-.16-2.96h-.7v.32h.7v-.32Zm-.54.16V3.7h-.32v1.4h.32Zm-.16-1.56h-8.4v.32h8.4v-.32Zm-8.24.16V.9h-.32v2.8h.32Zm-.16-2.64h8.4V.74h-8.4v.32Zm8.24-.16v1.4h.32V.9h-.32Zm.16 1.56h2.8v-.32h-2.8v.32Zm-8.4 3.88h-2.8v.32h2.8v-.32Zm-2.64.16V3.7h-.32v2.8h.32Zm-.16-2.64h2.8v-.32h-2.8v.32Zm2.64-.16v2.8h.32V3.7h-.32Z" mask="url(#c)"/><path fill="url(#d)" d="M14.803.9h.16V.74h-.16V.9Zm0 2.8v.16h.16V3.7h-.16Zm-5.6 0v-.16h-.16v.16h.16Zm0 16.8v.16h.16v-.16h-.16Zm-2.8 0h-.16v.16h.16v-.16Zm0-16.8h.16v-.16h-.16v.16Zm-5.6 0h-.16v.16h.16V3.7Zm0-2.8V.74h-.16V.9h.16Zm13.84 0v2.8h.32V.9h-.32Zm.16 2.64h-5.6v.32h5.6v-.32Zm-5.76.16v16.8h.32V3.7h-.32Zm.16 16.64h-2.8v.32h2.8v-.32Zm-2.64.16V3.7h-.32v16.8h.32Zm-.16-16.96h-5.6v.32h5.6v-.32Zm-5.44.16V.9h-.32v2.8h.32Zm-.16-2.64h14V.74h-14v.32ZM18.577.9V.74h-.16V.9h.16Zm2.8 0h.16V.74h-.16V.9Zm0 2.8v.16h.16V3.7h-.16Zm-2.8 0h-.16v.16h.16V3.7Zm2.8 14h-.16v.16h.16v-.16Zm2.8 0h.16v-.16h-.16v.16Zm0 2.8v.16h.16v-.16h-.16Zm-5.6 0h-.16v.16h.16v-.16Zm0-11.2h.16v-.16h-.16v.16Zm-2.8 0h-.16v.16h.16V9.3Zm0-2.8v-.16h-.16v.16h.16Zm5.6 0h.16v-.16h-.16v.16Zm-2.8-5.44h2.8V.74h-2.8v.32Zm2.64-.16v2.8h.32V.9h-.32Zm.16 2.64h-2.8v.32h2.8v-.32Zm-2.64.16V.9h-.32v2.8h.32Zm2.64 14.16h2.8v-.32h-2.8v.32Zm2.64-.16v2.8h.32v-2.8h-.32Zm.16 2.64h-5.6v.32h5.6v-.32Zm-5.44.16V9.3h-.32v11.2h.32Zm-.16-11.36h-2.8v.32h2.8v-.32Zm-2.64.16V6.5h-.32v2.8h.32Zm-.16-2.64h5.6v-.32h-5.6v.32Zm5.44-.16v11.2h.32V6.5h-.32Zm15.851 0h.16v-.16h-.16v.16Zm0 1.4h-.16v.16h.16V7.9Zm2.8 0h.16v-.16h-.16v.16Zm0 5.6v.16h.16v-.16h-.16Zm-2.8 0v-.16h-.16v.16h.16Zm0 1.4v.16h.16v-.16h-.16Zm-7.7 0v-.16h-.16v.16h.16Zm0 2.8h-.16v.16h.16v-.16Zm7.7 0v.16h.16v-.16h-.16Zm0-1.4v-.16h-.16v.16h.16Zm2.8 0h.16v-.16h-.16v.16Zm0 2.8v.16h.16v-.16h-.16Zm-2.8 0v-.16h-.16v.16h.16Zm0 1.4v.16h.16v-.16h-.16Zm-8.4 0h-.16v.16h.16v-.16Zm0-2.8h.16v-.16h-.16v.16Zm-2.1 0h-.16v.16h.16v-.16Zm0-2.8h.16v-.16h-.16v.16Zm-.7 0h-.16v.16h.16v-.16Zm0-2.8v-.16h-.16v.16h.16Zm.7 0v.16h.16v-.16h-.16Zm0-2.8v-.16h-.16v.16h.16Zm2.1 0v.16h.16V9.3h-.16Zm0-2.8v-.16h-.16v.16h.16Zm8.4 5.6v.16h.16v-.16h-.16Zm0-2.8h.16v-.16h-.16v.16Zm-7.7 0v-.16h-.16v.16h.16Zm0 2.8h-.16v.16h.16v-.16Zm7.54-5.6v1.4h.32V6.5h-.32Zm.16 1.56h2.8v-.32h-2.8v.32Zm2.64-.16v5.6h.32V7.9h-.32Zm.16 5.44h-2.8v.32h2.8v-.32Zm-2.96.16v1.4h.32v-1.4h-.32Zm.16 1.24h-7.7v.32h7.7v-.32Zm-7.86.16v2.8h.32v-2.8h-.32Zm.16 2.96h7.7v-.32h-7.7v.32Zm7.86-.16v-1.4h-.32v1.4h.32Zm-.16-1.24h2.8v-.32h-2.8v.32Zm2.64-.16v2.8h.32v-2.8h-.32Zm.16 2.64h-2.8v.32h2.8v-.32Zm-2.96.16v1.4h.32v-1.4h-.32Zm.16 1.24h-8.4v.32h8.4v-.32Zm-8.24.16v-2.8h-.32v2.8h.32Zm-.16-2.96h-2.1v.32h2.1v-.32Zm-1.94.16v-2.8h-.32v2.8h.32Zm-.16-2.96h-.7v.32h.7v-.32Zm-.54.16v-2.8h-.32v2.8h.32Zm-.16-2.64h.7v-.32h-.7v.32Zm.86-.16V9.3h-.32v2.8h.32Zm-.16-2.64h2.1v-.32h-2.1v.32Zm2.26-.16V6.5h-.32v2.8h.32Zm-.16-2.64h8.4v-.32h-8.4v.32Zm8.56 5.44V9.3h-.32v2.8h.32Zm-.16-2.96h-7.7v.32h7.7v-.32Zm-7.86.16v2.8h.32V9.3h-.32Zm.16 2.96h7.7v-.32h-7.7v.32Zm12.17-5.76v-.16h-.161v.16h.16Zm2.8 0h.16v-.16h-.16v.16Zm0 2.8h-.161v.16h.16V9.3Zm2.8 0h.16v-.16h-.16v.16Zm0 2.8v.16h.16v-.16h-.16Zm-2.8 0v-.16h-.161v.16h.16Zm0 8.4v.16h.16v-.16h-.16Zm-2.8 0h-.161v.16h.16v-.16Zm5.6-14v-.16h-.161v.16h.16Zm5.6 0h.16v-.16h-.16v.16Zm0 2.8v.16h.16V9.3h-.16Zm-5.6 0h-.161v.16h.16V9.3Zm5.6 2.8h-.161v.16h.16v-.16Zm0-2.8v-.16h-.161v.16h.16Zm2.8 0h.16v-.16h-.16v.16Zm0 2.8v.16h.16v-.16h-.16Zm-14-5.44h2.8v-.32h-2.8v.32Zm2.639-.16v2.8h.32V6.5h-.32Zm.16 2.96h2.8v-.32h-2.8v.32Zm2.64-.16v2.8h.32V9.3h-.32Zm.16 2.64h-2.8v.32h2.8v-.32Zm-2.96.16v8.4h.32v-8.4h-.32Zm.16 8.24h-2.8v.32h2.8v-.32Zm-2.64.16v-14h-.32v14h.32Zm5.44-13.84h5.6v-.32h-5.6v.32Zm5.44-.16v2.8h.32V6.5h-.32Zm.16 2.64h-5.6v.32h5.6v-.32Zm-5.44.16V6.5h-.32v2.8h.32Zm5.6 2.8V9.3h-.32v2.8h.32Zm-.16-2.64h2.8v-.32h-2.8v.32Zm2.64-.16v2.8h.32V9.3h-.32Zm.16 2.64h-2.8v.32h2.8v-.32Zm22.26-9.64h.16v-.16h-.16v.16Zm0 2.8h-.16v.16h.16V5.1Zm.7 0h.16v-.16h-.16v.16Zm0 2.8v.16h.16V7.9h-.16Zm-.7 0v-.16h-.16v.16h.16Zm0 2.8v.16h.16v-.16h-.16Zm-2.8 0v-.16h-.16v.16h.16Zm0 1.4v.16h.16v-.16h-.16Zm-4.2 0v-.16h-.16v.16h.16Zm0 2.8v.16h.16v-.16h-.16Zm-4.2 0v-.16h-.16v.16h.16Zm0 2.8h-.16v.16h.16v-.16Zm11.2 0h.16v-.16h-.16v.16Zm0 2.8v.16h.16v-.16h-.16Zm-14 0h-.16v.16h.16v-.16Zm0-5.6v-.16h-.16v.16h.16Zm1.4 0v.16h.16v-.16h-.16Zm0-2.8v-.16h-.16v.16h.16Zm4.2 0v.16h.16v-.16h-.16Zm0-2.8v-.16h-.16v.16h.16Zm5.6 0v.16h.16V9.3h-.16Zm0-1.4v-.16h-.16v.16h.16Zm.7 0v.16h.16V7.9h-.16Zm0-2.8h.16v-.16h-.16v.16Zm-.7 0h-.16v.16h.16V5.1Zm0-1.4h.16v-.16h-.16v.16Zm-8.4 0h-.16v.16h.16V3.7Zm0-2.8V.74h-.16V.9h.16Zm8.4 0h.16V.74h-.16V.9Zm0 1.4h-.16v.16h.16V2.3Zm-8.4 4.2v.16h.16V6.5h-.16Zm-2.8 0h-.16v.16h.16V6.5Zm0-2.8v-.16h-.16v.16h.16Zm2.8 0h.16v-.16h-.16v.16Zm11.04-1.4v2.8h.32V2.3h-.32Zm.16 2.96h.7v-.32h-.7v.32Zm.54-.16v2.8h.32V5.1h-.32Zm.16 2.64h-.7v.32h.7v-.32Zm-.86.16v2.8h.32V7.9h-.32Zm.16 2.64h-2.8v.32h2.8v-.32Zm-2.96.16v1.4h.32v-1.4h-.32Zm.16 1.24h-4.2v.32h4.2v-.32Zm-4.36.16v2.8h.32v-2.8h-.32Zm.16 2.64h-4.2v.32h4.2v-.32Zm-4.36.16v2.8h.32v-2.8h-.32Zm.16 2.96h11.2v-.32h-11.2v.32Zm11.04-.16v2.8h.32v-2.8h-.32Zm.16 2.64h-14v.32h14v-.32Zm-13.84.16v-5.6h-.32v5.6h.32Zm-.16-5.44h1.4v-.32h-1.4v.32Zm1.56-.16v-2.8h-.32v2.8h.32Zm-.16-2.64h4.2v-.32h-4.2v.32Zm4.36-.16V9.3h-.32v2.8h.32Zm-.16-2.64h5.6v-.32h-5.6v.32Zm5.76-.16V7.9h-.32v1.4h.32Zm-.16-1.24h.7v-.32h-.7v.32Zm.86-.16V5.1h-.32v2.8h.32Zm-.16-2.96h-.7v.32h.7v-.32Zm-.54.16V3.7h-.32v1.4h.32Zm-.16-1.56h-8.4v.32h8.4v-.32Zm-8.24.16V.9h-.32v2.8h.32Zm-.16-2.64h8.4V.74h-8.4v.32Zm8.24-.16v1.4h.32V.9h-.32Zm.16 1.56h2.8v-.32h-2.8v.32Zm-8.4 3.88h-2.8v.32h2.8v-.32Zm-2.64.16V3.7h-.32v2.8h.32Zm-.16-2.64h2.8v-.32h-2.8v.32Zm2.64-.16v2.8h.32V3.7h-.32Z" mask="url(#c)"/><path fill="url(#e)" fill-opacity=".9" d="M14.803.9h.16V.74h-.16V.9Zm0 2.8v.16h.16V3.7h-.16Zm-5.6 0v-.16h-.16v.16h.16Zm0 16.8v.16h.16v-.16h-.16Zm-2.8 0h-.16v.16h.16v-.16Zm0-16.8h.16v-.16h-.16v.16Zm-5.6 0h-.16v.16h.16V3.7Zm0-2.8V.74h-.16V.9h.16Zm13.84 0v2.8h.32V.9h-.32Zm.16 2.64h-5.6v.32h5.6v-.32Zm-5.76.16v16.8h.32V3.7h-.32Zm.16 16.64h-2.8v.32h2.8v-.32Zm-2.64.16V3.7h-.32v16.8h.32Zm-.16-16.96h-5.6v.32h5.6v-.32Zm-5.44.16V.9h-.32v2.8h.32Zm-.16-2.64h14V.74h-14v.32ZM18.577.9V.74h-.16V.9h.16Zm2.8 0h.16V.74h-.16V.9Zm0 2.8v.16h.16V3.7h-.16Zm-2.8 0h-.16v.16h.16V3.7Zm2.8 14h-.16v.16h.16v-.16Zm2.8 0h.16v-.16h-.16v.16Zm0 2.8v.16h.16v-.16h-.16Zm-5.6 0h-.16v.16h.16v-.16Zm0-11.2h.16v-.16h-.16v.16Zm-2.8 0h-.16v.16h.16V9.3Zm0-2.8v-.16h-.16v.16h.16Zm5.6 0h.16v-.16h-.16v.16Zm-2.8-5.44h2.8V.74h-2.8v.32Zm2.64-.16v2.8h.32V.9h-.32Zm.16 2.64h-2.8v.32h2.8v-.32Zm-2.64.16V.9h-.32v2.8h.32Zm2.64 14.16h2.8v-.32h-2.8v.32Zm2.64-.16v2.8h.32v-2.8h-.32Zm.16 2.64h-5.6v.32h5.6v-.32Zm-5.44.16V9.3h-.32v11.2h.32Zm-.16-11.36h-2.8v.32h2.8v-.32Zm-2.64.16V6.5h-.32v2.8h.32Zm-.16-2.64h5.6v-.32h-5.6v.32Zm5.44-.16v11.2h.32V6.5h-.32Zm15.851 0h.16v-.16h-.16v.16Zm0 1.4h-.16v.16h.16V7.9Zm2.8 0h.16v-.16h-.16v.16Zm0 5.6v.16h.16v-.16h-.16Zm-2.8 0v-.16h-.16v.16h.16Zm0 1.4v.16h.16v-.16h-.16Zm-7.7 0v-.16h-.16v.16h.16Zm0 2.8h-.16v.16h.16v-.16Zm7.7 0v.16h.16v-.16h-.16Zm0-1.4v-.16h-.16v.16h.16Zm2.8 0h.16v-.16h-.16v.16Zm0 2.8v.16h.16v-.16h-.16Zm-2.8 0v-.16h-.16v.16h.16Zm0 1.4v.16h.16v-.16h-.16Zm-8.4 0h-.16v.16h.16v-.16Zm0-2.8h.16v-.16h-.16v.16Zm-2.1 0h-.16v.16h.16v-.16Zm0-2.8h.16v-.16h-.16v.16Zm-.7 0h-.16v.16h.16v-.16Zm0-2.8v-.16h-.16v.16h.16Zm.7 0v.16h.16v-.16h-.16Zm0-2.8v-.16h-.16v.16h.16Zm2.1 0v.16h.16V9.3h-.16Zm0-2.8v-.16h-.16v.16h.16Zm8.4 5.6v.16h.16v-.16h-.16Zm0-2.8h.16v-.16h-.16v.16Zm-7.7 0v-.16h-.16v.16h.16Zm0 2.8h-.16v.16h.16v-.16Zm7.54-5.6v1.4h.32V6.5h-.32Zm.16 1.56h2.8v-.32h-2.8v.32Zm2.64-.16v5.6h.32V7.9h-.32Zm.16 5.44h-2.8v.32h2.8v-.32Zm-2.96.16v1.4h.32v-1.4h-.32Zm.16 1.24h-7.7v.32h7.7v-.32Zm-7.86.16v2.8h.32v-2.8h-.32Zm.16 2.96h7.7v-.32h-7.7v.32Zm7.86-.16v-1.4h-.32v1.4h.32Zm-.16-1.24h2.8v-.32h-2.8v.32Zm2.64-.16v2.8h.32v-2.8h-.32Zm.16 2.64h-2.8v.32h2.8v-.32Zm-2.96.16v1.4h.32v-1.4h-.32Zm.16 1.24h-8.4v.32h8.4v-.32Zm-8.24.16v-2.8h-.32v2.8h.32Zm-.16-2.96h-2.1v.32h2.1v-.32Zm-1.94.16v-2.8h-.32v2.8h.32Zm-.16-2.96h-.7v.32h.7v-.32Zm-.54.16v-2.8h-.32v2.8h.32Zm-.16-2.64h.7v-.32h-.7v.32Zm.86-.16V9.3h-.32v2.8h.32Zm-.16-2.64h2.1v-.32h-2.1v.32Zm2.26-.16V6.5h-.32v2.8h.32Zm-.16-2.64h8.4v-.32h-8.4v.32Zm8.56 5.44V9.3h-.32v2.8h.32Zm-.16-2.96h-7.7v.32h7.7v-.32Zm-7.86.16v2.8h.32V9.3h-.32Zm.16 2.96h7.7v-.32h-7.7v.32Zm12.17-5.76v-.16h-.161v.16h.16Zm2.8 0h.16v-.16h-.16v.16Zm0 2.8h-.161v.16h.16V9.3Zm2.8 0h.16v-.16h-.16v.16Zm0 2.8v.16h.16v-.16h-.16Zm-2.8 0v-.16h-.161v.16h.16Zm0 8.4v.16h.16v-.16h-.16Zm-2.8 0h-.161v.16h.16v-.16Zm5.6-14v-.16h-.161v.16h.16Zm5.6 0h.16v-.16h-.16v.16Zm0 2.8v.16h.16V9.3h-.16Zm-5.6 0h-.161v.16h.16V9.3Zm5.6 2.8h-.161v.16h.16v-.16Zm0-2.8v-.16h-.161v.16h.16Zm2.8 0h.16v-.16h-.16v.16Zm0 2.8v.16h.16v-.16h-.16Zm-14-5.44h2.8v-.32h-2.8v.32Zm2.639-.16v2.8h.32V6.5h-.32Zm.16 2.96h2.8v-.32h-2.8v.32Zm2.64-.16v2.8h.32V9.3h-.32Zm.16 2.64h-2.8v.32h2.8v-.32Zm-2.96.16v8.4h.32v-8.4h-.32Zm.16 8.24h-2.8v.32h2.8v-.32Zm-2.64.16v-14h-.32v14h.32Zm5.44-13.84h5.6v-.32h-5.6v.32Zm5.44-.16v2.8h.32V6.5h-.32Zm.16 2.64h-5.6v.32h5.6v-.32Zm-5.44.16V6.5h-.32v2.8h.32Zm5.6 2.8V9.3h-.32v2.8h.32Zm-.16-2.64h2.8v-.32h-2.8v.32Zm2.64-.16v2.8h.32V9.3h-.32Zm.16 2.64h-2.8v.32h2.8v-.32Zm22.26-9.64h.16v-.16h-.16v.16Zm0 2.8h-.16v.16h.16V5.1Zm.7 0h.16v-.16h-.16v.16Zm0 2.8v.16h.16V7.9h-.16Zm-.7 0v-.16h-.16v.16h.16Zm0 2.8v.16h.16v-.16h-.16Zm-2.8 0v-.16h-.16v.16h.16Zm0 1.4v.16h.16v-.16h-.16Zm-4.2 0v-.16h-.16v.16h.16Zm0 2.8v.16h.16v-.16h-.16Zm-4.2 0v-.16h-.16v.16h.16Zm0 2.8h-.16v.16h.16v-.16Zm11.2 0h.16v-.16h-.16v.16Zm0 2.8v.16h.16v-.16h-.16Zm-14 0h-.16v.16h.16v-.16Zm0-5.6v-.16h-.16v.16h.16Zm1.4 0v.16h.16v-.16h-.16Zm0-2.8v-.16h-.16v.16h.16Zm4.2 0v.16h.16v-.16h-.16Zm0-2.8v-.16h-.16v.16h.16Zm5.6 0v.16h.16V9.3h-.16Zm0-1.4v-.16h-.16v.16h.16Zm.7 0v.16h.16V7.9h-.16Zm0-2.8h.16v-.16h-.16v.16Zm-.7 0h-.16v.16h.16V5.1Zm0-1.4h.16v-.16h-.16v.16Zm-8.4 0h-.16v.16h.16V3.7Zm0-2.8V.74h-.16V.9h.16Zm8.4 0h.16V.74h-.16V.9Zm0 1.4h-.16v.16h.16V2.3Zm-8.4 4.2v.16h.16V6.5h-.16Zm-2.8 0h-.16v.16h.16V6.5Zm0-2.8v-.16h-.16v.16h.16Zm2.8 0h.16v-.16h-.16v.16Zm11.04-1.4v2.8h.32V2.3h-.32Zm.16 2.96h.7v-.32h-.7v.32Zm.54-.16v2.8h.32V5.1h-.32Zm.16 2.64h-.7v.32h.7v-.32Zm-.86.16v2.8h.32V7.9h-.32Zm.16 2.64h-2.8v.32h2.8v-.32Zm-2.96.16v1.4h.32v-1.4h-.32Zm.16 1.24h-4.2v.32h4.2v-.32Zm-4.36.16v2.8h.32v-2.8h-.32Zm.16 2.64h-4.2v.32h4.2v-.32Zm-4.36.16v2.8h.32v-2.8h-.32Zm.16 2.96h11.2v-.32h-11.2v.32Zm11.04-.16v2.8h.32v-2.8h-.32Zm.16 2.64h-14v.32h14v-.32Zm-13.84.16v-5.6h-.32v5.6h.32Zm-.16-5.44h1.4v-.32h-1.4v.32Zm1.56-.16v-2.8h-.32v2.8h.32Zm-.16-2.64h4.2v-.32h-4.2v.32Zm4.36-.16V9.3h-.32v2.8h.32Zm-.16-2.64h5.6v-.32h-5.6v.32Zm5.76-.16V7.9h-.32v1.4h.32Zm-.16-1.24h.7v-.32h-.7v.32Zm.86-.16V5.1h-.32v2.8h.32Zm-.16-2.96h-.7v.32h.7v-.32Zm-.54.16V3.7h-.32v1.4h.32Zm-.16-1.56h-8.4v.32h8.4v-.32Zm-8.24.16V.9h-.32v2.8h.32Zm-.16-2.64h8.4V.74h-8.4v.32Zm8.24-.16v1.4h.32V.9h-.32Zm.16 1.56h2.8v-.32h-2.8v.32Zm-8.4 3.88h-2.8v.32h2.8v-.32Zm-2.64.16V3.7h-.32v2.8h.32Zm-.16-2.64h2.8v-.32h-2.8v.32Zm2.64-.16v2.8h.32V3.7h-.32Z" mask="url(#c)"/><path fill="url(#f)" d="M14.803.9h.16V.74h-.16V.9Zm0 2.8v.16h.16V3.7h-.16Zm-5.6 0v-.16h-.16v.16h.16Zm0 16.8v.16h.16v-.16h-.16Zm-2.8 0h-.16v.16h.16v-.16Zm0-16.8h.16v-.16h-.16v.16Zm-5.6 0h-.16v.16h.16V3.7Zm0-2.8V.74h-.16V.9h.16Zm13.84 0v2.8h.32V.9h-.32Zm.16 2.64h-5.6v.32h5.6v-.32Zm-5.76.16v16.8h.32V3.7h-.32Zm.16 16.64h-2.8v.32h2.8v-.32Zm-2.64.16V3.7h-.32v16.8h.32Zm-.16-16.96h-5.6v.32h5.6v-.32Zm-5.44.16V.9h-.32v2.8h.32Zm-.16-2.64h14V.74h-14v.32ZM18.577.9V.74h-.16V.9h.16Zm2.8 0h.16V.74h-.16V.9Zm0 2.8v.16h.16V3.7h-.16Zm-2.8 0h-.16v.16h.16V3.7Zm2.8 14h-.16v.16h.16v-.16Zm2.8 0h.16v-.16h-.16v.16Zm0 2.8v.16h.16v-.16h-.16Zm-5.6 0h-.16v.16h.16v-.16Zm0-11.2h.16v-.16h-.16v.16Zm-2.8 0h-.16v.16h.16V9.3Zm0-2.8v-.16h-.16v.16h.16Zm5.6 0h.16v-.16h-.16v.16Zm-2.8-5.44h2.8V.74h-2.8v.32Zm2.64-.16v2.8h.32V.9h-.32Zm.16 2.64h-2.8v.32h2.8v-.32Zm-2.64.16V.9h-.32v2.8h.32Zm2.64 14.16h2.8v-.32h-2.8v.32Zm2.64-.16v2.8h.32v-2.8h-.32Zm.16 2.64h-5.6v.32h5.6v-.32Zm-5.44.16V9.3h-.32v11.2h.32Zm-.16-11.36h-2.8v.32h2.8v-.32Zm-2.64.16V6.5h-.32v2.8h.32Zm-.16-2.64h5.6v-.32h-5.6v.32Zm5.44-.16v11.2h.32V6.5h-.32Zm15.851 0h.16v-.16h-.16v.16Zm0 1.4h-.16v.16h.16V7.9Zm2.8 0h.16v-.16h-.16v.16Zm0 5.6v.16h.16v-.16h-.16Zm-2.8 0v-.16h-.16v.16h.16Zm0 1.4v.16h.16v-.16h-.16Zm-7.7 0v-.16h-.16v.16h.16Zm0 2.8h-.16v.16h.16v-.16Zm7.7 0v.16h.16v-.16h-.16Zm0-1.4v-.16h-.16v.16h.16Zm2.8 0h.16v-.16h-.16v.16Zm0 2.8v.16h.16v-.16h-.16Zm-2.8 0v-.16h-.16v.16h.16Zm0 1.4v.16h.16v-.16h-.16Zm-8.4 0h-.16v.16h.16v-.16Zm0-2.8h.16v-.16h-.16v.16Zm-2.1 0h-.16v.16h.16v-.16Zm0-2.8h.16v-.16h-.16v.16Zm-.7 0h-.16v.16h.16v-.16Zm0-2.8v-.16h-.16v.16h.16Zm.7 0v.16h.16v-.16h-.16Zm0-2.8v-.16h-.16v.16h.16Zm2.1 0v.16h.16V9.3h-.16Zm0-2.8v-.16h-.16v.16h.16Zm8.4 5.6v.16h.16v-.16h-.16Zm0-2.8h.16v-.16h-.16v.16Zm-7.7 0v-.16h-.16v.16h.16Zm0 2.8h-.16v.16h.16v-.16Zm7.54-5.6v1.4h.32V6.5h-.32Zm.16 1.56h2.8v-.32h-2.8v.32Zm2.64-.16v5.6h.32V7.9h-.32Zm.16 5.44h-2.8v.32h2.8v-.32Zm-2.96.16v1.4h.32v-1.4h-.32Zm.16 1.24h-7.7v.32h7.7v-.32Zm-7.86.16v2.8h.32v-2.8h-.32Zm.16 2.96h7.7v-.32h-7.7v.32Zm7.86-.16v-1.4h-.32v1.4h.32Zm-.16-1.24h2.8v-.32h-2.8v.32Zm2.64-.16v2.8h.32v-2.8h-.32Zm.16 2.64h-2.8v.32h2.8v-.32Zm-2.96.16v1.4h.32v-1.4h-.32Zm.16 1.24h-8.4v.32h8.4v-.32Zm-8.24.16v-2.8h-.32v2.8h.32Zm-.16-2.96h-2.1v.32h2.1v-.32Zm-1.94.16v-2.8h-.32v2.8h.32Zm-.16-2.96h-.7v.32h.7v-.32Zm-.54.16v-2.8h-.32v2.8h.32Zm-.16-2.64h.7v-.32h-.7v.32Zm.86-.16V9.3h-.32v2.8h.32Zm-.16-2.64h2.1v-.32h-2.1v.32Zm2.26-.16V6.5h-.32v2.8h.32Zm-.16-2.64h8.4v-.32h-8.4v.32Zm8.56 5.44V9.3h-.32v2.8h.32Zm-.16-2.96h-7.7v.32h7.7v-.32Zm-7.86.16v2.8h.32V9.3h-.32Zm.16 2.96h7.7v-.32h-7.7v.32Zm12.17-5.76v-.16h-.161v.16h.16Zm2.8 0h.16v-.16h-.16v.16Zm0 2.8h-.161v.16h.16V9.3Zm2.8 0h.16v-.16h-.16v.16Zm0 2.8v.16h.16v-.16h-.16Zm-2.8 0v-.16h-.161v.16h.16Zm0 8.4v.16h.16v-.16h-.16Zm-2.8 0h-.161v.16h.16v-.16Zm5.6-14v-.16h-.161v.16h.16Zm5.6 0h.16v-.16h-.16v.16Zm0 2.8v.16h.16V9.3h-.16Zm-5.6 0h-.161v.16h.16V9.3Zm5.6 2.8h-.161v.16h.16v-.16Zm0-2.8v-.16h-.161v.16h.16Zm2.8 0h.16v-.16h-.16v.16Zm0 2.8v.16h.16v-.16h-.16Zm-14-5.44h2.8v-.32h-2.8v.32Zm2.639-.16v2.8h.32V6.5h-.32Zm.16 2.96h2.8v-.32h-2.8v.32Zm2.64-.16v2.8h.32V9.3h-.32Zm.16 2.64h-2.8v.32h2.8v-.32Zm-2.96.16v8.4h.32v-8.4h-.32Zm.16 8.24h-2.8v.32h2.8v-.32Zm-2.64.16v-14h-.32v14h.32Zm5.44-13.84h5.6v-.32h-5.6v.32Zm5.44-.16v2.8h.32V6.5h-.32Zm.16 2.64h-5.6v.32h5.6v-.32Zm-5.44.16V6.5h-.32v2.8h.32Zm5.6 2.8V9.3h-.32v2.8h.32Zm-.16-2.64h2.8v-.32h-2.8v.32Zm2.64-.16v2.8h.32V9.3h-.32Zm.16 2.64h-2.8v.32h2.8v-.32Zm22.26-9.64h.16v-.16h-.16v.16Zm0 2.8h-.16v.16h.16V5.1Zm.7 0h.16v-.16h-.16v.16Zm0 2.8v.16h.16V7.9h-.16Zm-.7 0v-.16h-.16v.16h.16Zm0 2.8v.16h.16v-.16h-.16Zm-2.8 0v-.16h-.16v.16h.16Zm0 1.4v.16h.16v-.16h-.16Zm-4.2 0v-.16h-.16v.16h.16Zm0 2.8v.16h.16v-.16h-.16Zm-4.2 0v-.16h-.16v.16h.16Zm0 2.8h-.16v.16h.16v-.16Zm11.2 0h.16v-.16h-.16v.16Zm0 2.8v.16h.16v-.16h-.16Zm-14 0h-.16v.16h.16v-.16Zm0-5.6v-.16h-.16v.16h.16Zm1.4 0v.16h.16v-.16h-.16Zm0-2.8v-.16h-.16v.16h.16Zm4.2 0v.16h.16v-.16h-.16Zm0-2.8v-.16h-.16v.16h.16Zm5.6 0v.16h.16V9.3h-.16Zm0-1.4v-.16h-.16v.16h.16Zm.7 0v.16h.16V7.9h-.16Zm0-2.8h.16v-.16h-.16v.16Zm-.7 0h-.16v.16h.16V5.1Zm0-1.4h.16v-.16h-.16v.16Zm-8.4 0h-.16v.16h.16V3.7Zm0-2.8V.74h-.16V.9h.16Zm8.4 0h.16V.74h-.16V.9Zm0 1.4h-.16v.16h.16V2.3Zm-8.4 4.2v.16h.16V6.5h-.16Zm-2.8 0h-.16v.16h.16V6.5Zm0-2.8v-.16h-.16v.16h.16Zm2.8 0h.16v-.16h-.16v.16Zm11.04-1.4v2.8h.32V2.3h-.32Zm.16 2.96h.7v-.32h-.7v.32Zm.54-.16v2.8h.32V5.1h-.32Zm.16 2.64h-.7v.32h.7v-.32Zm-.86.16v2.8h.32V7.9h-.32Zm.16 2.64h-2.8v.32h2.8v-.32Zm-2.96.16v1.4h.32v-1.4h-.32Zm.16 1.24h-4.2v.32h4.2v-.32Zm-4.36.16v2.8h.32v-2.8h-.32Zm.16 2.64h-4.2v.32h4.2v-.32Zm-4.36.16v2.8h.32v-2.8h-.32Zm.16 2.96h11.2v-.32h-11.2v.32Zm11.04-.16v2.8h.32v-2.8h-.32Zm.16 2.64h-14v.32h14v-.32Zm-13.84.16v-5.6h-.32v5.6h.32Zm-.16-5.44h1.4v-.32h-1.4v.32Zm1.56-.16v-2.8h-.32v2.8h.32Zm-.16-2.64h4.2v-.32h-4.2v.32Zm4.36-.16V9.3h-.32v2.8h.32Zm-.16-2.64h5.6v-.32h-5.6v.32Zm5.76-.16V7.9h-.32v1.4h.32Zm-.16-1.24h.7v-.32h-.7v.32Zm.86-.16V5.1h-.32v2.8h.32Zm-.16-2.96h-.7v.32h.7v-.32Zm-.54.16V3.7h-.32v1.4h.32Zm-.16-1.56h-8.4v.32h8.4v-.32Zm-8.24.16V.9h-.32v2.8h.32Zm-.16-2.64h8.4V.74h-8.4v.32Zm8.24-.16v1.4h.32V.9h-.32Zm.16 1.56h2.8v-.32h-2.8v.32Zm-8.4 3.88h-2.8v.32h2.8v-.32Zm-2.64.16V3.7h-.32v2.8h.32Zm-.16-2.64h2.8v-.32h-2.8v.32Zm2.64-.16v2.8h.32V3.7h-.32Z" mask="url(#c)"/><defs><radialGradient id="d" cx="0" cy="0" r="1" gradientTransform="rotate(126.013 -.07 4.705) scale(19.7295 40.4905)" gradientUnits="userSpaceOnUse"><stop offset=".002" stop-color="#ADA7FB"/><stop offset=".161" stop-color="#ADA7FB" stop-opacity=".7"/><stop offset=".311" stop-color="#ADA7FB" stop-opacity=".2"/><stop offset=".341" stop-opacity="0"/></radialGradient><radialGradient id="e" cx="0" cy="0" r="1" gradientTransform="matrix(35.84016 15.57073 -6.6732 15.36014 9.583 2.297)" gradientUnits="userSpaceOnUse"><stop stop-color="#ADA7FB"/><stop offset="1" stop-opacity="0"/></radialGradient><radialGradient id="f" cx="0" cy="0" r="1" gradientTransform="rotate(142.969 36.694 17.732) scale(22.9651 22.0396)" gradientUnits="userSpaceOnUse"><stop stop-color="#ADA7FB"/><stop offset="1" stop-opacity="0"/></radialGradient><linearGradient id="a" x1="76.204" x2="-32.148" y1="-7.5" y2="-6.663" gradientUnits="userSpaceOnUse"><stop stop-color="#16161D" stop-opacity="0"/><stop offset=".265" stop-color="#313149" stop-opacity=".265"/><stop offset="1" stop-color="#16161D"/></linearGradient><linearGradient id="b" x1="51.536" x2="47.064" y1="5.507" y2="-8.255" gradientUnits="userSpaceOnUse"><stop stop-color="#050505"/><stop offset="1" stop-color="#2D2931"/></linearGradient></defs></svg>