<svg width="256" height="256" viewBox="0 0 256 256" fill="none" xmlns="http://www.w3.org/2000/svg">
<g clip-path="url(#clip0_3116_958)">
<path d="M256 0H0V256H256V0Z" fill="#0030CF"/>
<path fill-rule="evenodd" clip-rule="evenodd" d="M152.782 -237.338C208.3 -217.323 262.183 -172.694 293.914 -136.359C325.73 -99.9238 348.213 -57.0201 353.261 -7.52074C358.31 41.9909 345.885 97.8051 308.403 159.993C271.003 222.046 193.662 315.306 117.769 384.037C79.8344 418.39 42.0879 446.777 9.73694 462.036C-6.43278 469.663 -21.4551 474.107 -34.5958 474.241C-47.838 474.377 -59.2189 470.122 -67.7204 460.386C-76.0666 450.829 -82.188 435.331 -86.5343 415.717C-90.8988 396.021 -93.5453 371.827 -94.7046 344.557C-97.0234 290.008 -93.4022 222.861 -85.4858 154.174C-77.5684 85.4773 -65.3453 15.1596 -50.4315 -45.7431C-35.5362 -106.57 -17.8974 -158.26 0.947548 -189.527C19.8953 -220.964 43.8667 -238.082 70.2696 -244.693C96.5872 -251.283 124.997 -247.355 152.782 -237.338ZM71.6055 -239.358C46.7802 -233.142 23.9489 -217.035 5.65809 -186.688C-12.7355 -156.17 -30.219 -105.16 -45.0893 -44.435C-59.9412 16.2151 -72.1272 86.3034 -80.022 154.804C-87.9179 223.313 -91.5122 290.155 -89.2095 344.323C-88.058 371.411 -85.4345 395.258 -81.1646 414.527C-76.8766 433.878 -70.9994 448.27 -63.5777 456.769C-56.3111 465.09 -46.5779 468.863 -34.6519 468.742C-22.6243 468.619 -8.42419 464.521 7.39067 457.061C39.0089 442.148 76.2801 414.189 114.077 379.96C189.644 311.524 266.616 218.67 303.692 157.154C340.688 95.7736 352.695 41.1389 347.789 -6.96275C342.883 -55.0767 321.025 -96.9505 289.771 -132.741C258.429 -168.631 205.281 -212.564 150.917 -232.164C123.76 -241.954 96.5161 -245.596 71.6055 -239.358Z" fill="url(#paint0_linear_3116_958)"/>
<path fill-rule="evenodd" clip-rule="evenodd" d="M150.397 -201.063C200.421 -183.028 248.952 -142.828 277.529 -110.104C306.193 -77.28 326.459 -38.6152 331.009 6.00346C335.56 50.6344 324.356 100.926 290.598 156.936C256.922 212.81 187.297 296.764 118.976 358.637C84.8288 389.561 50.8332 415.131 21.6807 428.881C7.11021 435.754 -6.45096 439.771 -18.3332 439.892C-30.3171 440.015 -40.6423 436.161 -48.3553 427.329C-55.9132 418.674 -61.4347 404.671 -65.3493 387.005C-69.282 369.257 -71.6651 347.465 -72.7088 322.913C-74.7966 273.8 -71.5362 213.353 -64.4104 151.525C-57.2835 89.6884 -46.2808 26.391 -32.8553 -28.4341C-19.4483 -83.1839 -3.56564 -129.739 13.4174 -157.916C30.5032 -186.264 52.1344 -201.721 75.9759 -207.691C99.7321 -213.639 125.359 -210.089 150.397 -201.063ZM77.3119 -202.355C55.0479 -196.781 34.5568 -182.335 18.1279 -155.077C1.59626 -127.648 -14.1311 -81.7737 -27.5132 -27.126C-40.8768 27.4465 -51.8423 90.5145 -58.9465 152.155C-66.0518 213.805 -69.2854 273.947 -67.2137 322.679C-66.1778 347.05 -63.8177 368.494 -59.9796 385.815C-56.1232 403.218 -50.846 416.115 -44.2126 423.711C-37.7345 431.129 -29.057 434.502 -18.3894 434.393C-7.62021 434.283 5.11879 430.612 19.3344 423.907C47.7542 410.502 81.2745 385.36 115.284 354.56C183.279 292.982 252.535 209.434 285.887 154.096C319.159 98.8946 329.945 49.7824 325.537 6.56143C321.129 -36.6718 301.487 -74.3067 273.386 -106.486C245.198 -138.764 197.402 -178.27 148.532 -195.889C124.123 -204.689 99.6611 -207.952 77.3119 -202.355Z" fill="url(#paint1_linear_3116_958)"/>
<path fill-rule="evenodd" clip-rule="evenodd" d="M148.012 -164.788C192.541 -148.734 235.721 -112.961 261.144 -83.8486C286.654 -54.6364 304.703 -20.2105 308.756 19.5275C312.81 59.2778 302.827 104.047 272.793 153.878C242.841 203.574 180.931 278.223 120.184 333.237C89.8229 360.732 59.5781 383.485 33.6241 395.726C20.6529 401.845 8.55281 405.435 -2.07104 405.544C-12.7965 405.653 -22.066 402.201 -28.9906 394.271C-35.76 386.52 -40.6816 374.011 -44.1645 358.293C-47.6656 342.494 -49.7851 323.104 -50.7133 301.269C-52.57 257.592 -49.6703 203.844 -43.3352 148.876C-36.9989 93.8994 -27.2167 37.6223 -15.2795 -11.1252C-3.36072 -59.7974 10.7658 -101.217 25.887 -126.305C41.1108 -151.564 60.402 -165.36 81.682 -170.688C102.877 -175.995 125.721 -172.824 148.012 -164.788ZM83.018 -165.353C63.3155 -160.419 45.1645 -147.635 30.5975 -123.466C15.9277 -99.127 1.95647 -58.3872 -9.93732 -9.81704C-21.8127 38.6777 -31.5577 94.7255 -37.8713 149.506C-44.186 204.296 -47.0588 257.739 -45.2182 301.036C-44.2978 322.688 -42.2012 341.731 -38.7948 357.103C-35.3702 372.558 -30.6929 383.961 -24.8479 390.654C-19.1582 397.169 -11.5364 400.14 -2.12722 400.044C7.38354 399.947 18.6614 396.703 31.2778 390.752C56.4991 378.856 86.2686 356.531 116.492 329.16C176.914 274.441 238.454 200.198 268.082 151.039C297.63 102.016 307.194 58.4258 303.284 20.0855C299.373 -18.267 281.949 -51.663 257.001 -80.2309C231.967 -108.898 189.523 -143.976 146.146 -159.614C124.484 -167.423 102.806 -170.308 83.018 -165.353Z" fill="url(#paint2_linear_3116_958)"/>
<path fill-rule="evenodd" clip-rule="evenodd" d="M145.627 -128.513C184.662 -114.44 222.491 -83.0952 244.76 -57.5936C267.117 -31.9927 282.949 -1.80563 286.504 33.0517C290.06 67.9212 281.3 107.168 254.99 150.821C228.761 194.338 174.566 259.681 121.392 307.837C94.8174 331.904 68.3234 351.839 45.5679 362.572C34.1958 367.936 23.5569 371.099 14.1914 371.195C4.72441 371.291 -3.48938 368.241 -9.62564 361.214C-15.6067 354.365 -19.9283 343.35 -22.9795 329.581C-26.0488 315.73 -27.9048 298.742 -28.7175 279.625C-30.3431 241.384 -27.8043 194.336 -22.2597 146.228C-16.7141 98.1105 -8.15236 48.8536 2.29657 6.18375C12.727 -36.4108 25.0975 -72.6957 38.3566 -94.6946C51.7186 -116.864 68.6696 -128.998 87.3882 -133.686C106.022 -138.352 126.083 -135.558 145.627 -128.513ZM88.7242 -128.35C71.5831 -124.058 55.7722 -112.935 43.0672 -91.8554C30.2594 -70.6054 18.0442 -35.0006 7.63873 7.49193C-2.74831 49.9091 -11.2729 98.9366 -16.7959 146.857C-22.3199 194.788 -24.8319 241.531 -23.2224 279.392C-22.4175 298.326 -20.5845 314.967 -17.6098 328.391C-14.6169 341.897 -10.5395 351.806 -5.48292 357.596C-0.581581 363.209 5.98452 365.778 14.1353 365.695C22.3876 365.611 32.2044 362.794 43.2216 357.597C65.2444 347.21 91.2631 327.702 117.7 303.76C170.549 255.9 224.374 190.962 250.28 147.982C276.102 105.137 284.445 67.0693 281.032 33.6097C277.619 0.137787 262.412 -29.0193 240.618 -53.9759C218.737 -79.0318 181.644 -109.681 143.762 -123.339C124.847 -130.158 105.951 -132.664 88.7242 -128.35Z" fill="url(#paint3_linear_3116_958)"/>
<path fill-rule="evenodd" clip-rule="evenodd" d="M143.242 -92.2375C176.783 -80.1452 209.26 -53.229 228.376 -31.3387C247.579 -9.34892 261.194 16.5993 264.251 46.576C267.309 76.5649 259.771 110.289 237.184 147.764C214.679 185.103 168.201 241.14 122.6 282.438C99.8115 303.075 77.0685 320.193 57.5115 329.417C47.7387 334.027 38.5609 336.763 30.4539 336.846C22.2452 336.929 15.0872 334.28 9.73934 328.156C4.54672 322.21 0.824976 312.69 -1.79448 300.869C-4.43207 288.966 -6.02459 274.38 -6.7217 257.982C-8.11625 225.176 -5.93818 184.827 -1.18424 143.579C3.57076 102.322 10.9121 60.085 19.8727 23.4927C28.8149 -13.0242 39.4292 -44.1742 50.8265 -63.0839C62.3265 -82.164 76.9373 -92.6372 93.0946 -96.683C109.167 -100.707 126.445 -98.293 143.242 -92.2375ZM94.4305 -91.3478C79.8508 -87.697 66.3801 -78.235 55.537 -60.2447C44.5911 -42.0839 34.1321 -11.6141 25.2149 24.8009C16.3161 61.1404 9.01196 103.148 4.27959 144.209C-0.453852 185.279 -2.60506 225.323 -1.22666 257.748C-0.537286 273.965 1.03223 288.203 3.57526 299.679C6.13643 311.237 9.61389 319.651 13.8821 324.539C17.995 329.248 23.5054 331.416 30.3977 331.346C37.3916 331.274 45.7472 328.885 55.1652 324.443C73.9895 315.564 96.2572 298.874 118.908 278.361C164.183 237.358 210.292 181.726 232.474 144.924C254.573 108.258 261.694 75.7129 258.779 47.134C255.864 18.5427 242.874 -6.37558 224.234 -27.7209C205.507 -49.1656 173.765 -75.387 141.377 -87.0634C125.209 -92.8923 109.096 -95.0199 94.4305 -91.3478Z" fill="url(#paint4_linear_3116_958)"/>
<path fill-rule="evenodd" clip-rule="evenodd" d="M140.857 -55.9625C168.904 -45.851 196.029 -23.3629 211.992 -5.08373C228.041 13.2948 239.439 35.0041 241.999 60.1001C244.559 85.2084 238.242 113.41 219.38 144.706C200.598 175.867 161.835 222.599 123.807 257.038C104.806 274.246 85.8138 288.547 69.4551 296.263C61.2816 300.118 53.5649 302.427 46.7163 302.497C39.7661 302.568 33.6638 300.32 29.1044 295.099C24.7001 290.056 21.5783 282.03 19.3906 272.157C17.1847 262.202 15.8557 250.018 15.2741 236.338C14.1106 208.968 15.9279 175.319 19.8912 140.93C23.8556 106.533 29.9764 71.3163 37.4488 40.8016C44.9027 10.3624 53.7609 -15.6526 63.2962 -31.4731C72.9342 -47.4641 85.205 -56.2761 98.8008 -59.6805C112.311 -63.0636 126.808 -61.0277 140.857 -55.9625ZM100.137 -54.3453C88.1185 -51.3358 76.9879 -43.5351 68.0067 -28.6339L65.6515 -30.0535L68.0067 -28.6339C58.9228 -13.5624 50.2199 11.7725 42.7909 42.1098C35.3805 72.3718 29.2968 107.359 25.355 141.56C21.4122 175.77 19.6218 209.115 20.7691 236.104C21.343 249.603 22.649 261.439 24.7603 270.967C26.8898 280.577 29.7673 287.496 33.2471 291.481L31.1757 293.29L33.2471 291.481C36.5716 295.288 41.0262 297.055 46.6601 296.997C52.3956 296.938 59.2901 294.976 67.1088 291.288C82.7347 283.918 101.252 270.045 120.115 252.961C157.818 218.817 196.211 172.491 214.669 141.867C233.045 111.379 238.944 84.3564 236.527 60.6581C234.109 36.9475 223.336 16.2681 207.849 -1.46602C192.276 -19.2995 165.886 -41.0928 138.992 -50.7885C125.571 -55.627 112.24 -57.376 100.137 -54.3453Z" fill="url(#paint5_linear_3116_958)"/>
<path fill-rule="evenodd" clip-rule="evenodd" d="M138.472 -19.6875C161.025 -11.5567 182.799 6.50338 195.608 21.1712C208.504 35.9384 217.684 53.4089 219.746 73.6242C221.809 93.8518 216.713 116.531 201.574 141.649C186.517 166.631 155.47 204.056 125.015 231.637C109.8 245.416 94.5588 256.899 81.3986 263.106C74.8243 266.207 68.5687 268.088 62.9785 268.145C57.2867 268.203 52.2401 266.357 48.469 262.039C44.8532 257.898 42.3313 251.367 40.5753 243.443C38.8012 235.437 37.7356 225.655 37.2696 214.692C36.3372 192.759 37.7937 165.809 40.9664 138.281C44.1402 110.743 49.0406 82.5472 55.0247 58.1103C60.9903 33.7488 68.0924 12.8688 75.7658 0.137533C83.542 -12.7642 93.4726 -19.915 104.507 -22.678C115.456 -25.4197 127.17 -23.7622 138.472 -19.6875ZM105.843 -17.3428C96.3861 -14.9747 87.5956 -8.83525 80.4764 2.97667L78.1211 1.5571L80.4764 2.97668C73.2543 14.9591 66.3075 35.1589 60.3668 59.4185C54.4446 83.6027 49.5814 111.569 46.4303 138.91C43.2781 166.261 41.8484 192.905 42.7646 214.459C43.2229 225.239 44.2655 234.674 45.9451 242.253C47.6428 249.915 49.9204 255.339 52.6117 258.421C55.1479 261.325 58.5469 262.69 62.9224 262.646C67.3995 262.6 72.8329 261.065 79.0524 258.131C91.4798 252.27 106.246 241.214 121.323 227.56C151.453 200.275 182.13 163.255 196.864 138.81C211.516 114.5 216.193 92.9998 214.274 74.1822C212.354 55.3523 203.798 38.9118 191.465 24.7889C179.045 10.5667 158.007 -6.7984 136.607 -14.5134C125.933 -18.3616 115.385 -19.7321 105.843 -17.3428Z" fill="url(#paint6_linear_3116_958)"/>
<path fill-rule="evenodd" clip-rule="evenodd" d="M136.087 16.5876C153.146 22.7377 169.568 36.3695 179.224 47.4261C188.966 58.582 195.93 71.8136 197.494 87.1483C199.059 102.495 195.185 119.652 183.77 138.592C172.436 157.395 149.105 185.515 126.223 206.238C114.794 216.587 103.304 225.253 93.3423 229.952C88.3672 232.298 83.5728 233.753 79.241 233.797C74.8077 233.842 70.8167 232.398 67.8341 228.982L69.9054 227.173L67.8341 228.982C65.0066 225.744 63.0847 220.708 61.7604 214.732C60.4179 208.673 59.6159 201.293 59.2654 193.049C58.5641 176.551 59.6598 156.3 62.0419 135.632C64.4251 114.954 68.105 93.7784 72.6008 75.4191C77.0782 57.1352 82.4242 41.3902 88.2357 31.7481C94.1499 21.9356 101.74 16.4462 110.213 14.3245C118.601 12.2242 127.532 13.5032 136.087 16.5876ZM111.549 19.6598C104.654 21.3864 98.2035 25.8646 92.9462 34.5873L90.5909 33.1677L92.9462 34.5873C87.5861 43.4805 82.3954 58.5453 77.943 76.7273C73.509 94.8339 69.8663 115.78 67.5057 136.261C65.1441 156.752 64.0752 176.698 64.7604 192.815C65.1032 200.878 65.8822 207.91 67.1301 213.542C68.3961 219.255 70.0738 223.185 71.9768 225.364L69.9224 227.158L71.9768 225.364C73.7245 227.366 76.0678 228.329 79.1849 228.298C82.4036 228.265 86.3758 227.157 90.9961 224.977C100.225 220.624 111.24 212.386 122.531 202.161C145.087 181.733 168.049 154.019 179.059 135.752C189.987 117.621 193.443 101.643 192.022 87.7063C190.599 73.757 184.26 61.5554 175.081 51.0438C165.815 40.4329 150.128 27.4959 134.222 21.7617C126.295 18.9039 118.53 17.9118 111.549 19.6598Z" fill="url(#paint7_linear_3116_958)"/>
<path fill-rule="evenodd" clip-rule="evenodd" d="M133.702 52.8629C145.267 57.0323 156.338 66.236 162.84 73.6814C169.428 81.226 174.175 90.2188 175.241 100.673C176.308 111.139 173.656 122.774 165.965 135.534C158.355 148.16 142.739 166.974 127.43 180.838C119.788 187.759 112.049 193.607 105.286 196.797C101.91 198.389 98.5766 199.417 95.5032 199.448C92.3283 199.481 89.393 198.437 87.1988 195.925C85.1597 193.59 83.8377 190.048 82.9451 186.02C82.0344 181.91 81.4959 176.932 81.2609 171.405C80.7907 160.343 81.5256 146.792 83.1171 132.983C84.7096 119.165 87.1691 105.01 90.1766 92.7282C93.1657 80.522 96.7556 69.9119 100.705 63.3591C104.757 56.6358 110.008 52.8076 115.919 51.3273C121.746 49.8684 127.894 50.7689 133.702 52.8629ZM117.255 56.6626C112.921 57.7478 108.811 60.5648 105.416 66.1983L103.06 64.7787L105.416 66.1983C101.917 72.0022 98.4829 81.9321 95.5188 94.0364C92.5732 106.065 90.1508 119.991 88.5809 133.613C87.01 147.244 86.3019 160.49 86.756 171.171C86.9832 176.516 87.4987 181.147 88.3149 184.83C89.1492 188.595 90.2269 191.031 91.3415 192.307C92.3008 193.405 93.5884 193.968 95.4471 193.949C97.4073 193.929 99.9185 193.248 102.939 191.823C108.97 188.978 116.234 183.557 123.738 176.761C138.722 163.192 153.968 144.784 161.254 132.695L163.609 134.115L161.254 132.695C168.458 120.742 170.693 110.287 169.769 101.231C168.844 92.1622 164.723 84.1994 158.697 77.2991L160.768 75.4902L158.697 77.2991C152.584 70.2994 142.249 61.7905 131.837 58.0369C126.657 56.1695 121.675 55.556 117.255 56.6626Z" fill="url(#paint8_linear_3116_958)"/>
<path fill-rule="evenodd" clip-rule="evenodd" d="M131.318 89.1379C137.388 91.3265 143.107 96.1021 146.456 99.9362C149.891 103.87 152.42 108.623 152.988 114.197C153.558 119.782 152.127 125.895 148.16 132.477L145.805 131.057L148.16 132.477C144.275 138.924 136.374 148.432 128.638 155.438C124.783 158.93 120.794 161.961 117.23 163.642C115.453 164.48 113.581 165.081 111.766 165.099C109.849 165.119 107.97 164.477 106.564 162.867C105.313 161.435 104.591 159.387 104.13 157.307C103.651 155.146 103.376 152.57 103.257 149.761C103.018 144.135 103.392 137.283 104.193 130.334C104.995 123.376 106.234 116.241 107.753 110.037C109.254 103.908 111.087 98.4333 113.175 94.9697C115.365 91.3356 118.276 89.1687 121.626 88.3298C124.891 87.5123 128.256 88.0342 131.318 89.1379ZM122.962 93.6651C121.189 94.109 119.419 95.2646 117.885 97.8089C116.249 100.524 114.571 105.319 113.095 111.345C111.638 117.296 110.436 124.202 109.657 130.964C108.876 137.735 108.529 144.281 108.752 149.527C108.864 152.154 109.116 154.382 109.5 156.117C109.903 157.934 110.38 158.875 110.707 159.249L110.707 159.249C110.878 159.445 111.109 159.605 111.71 159.599C112.411 159.592 113.461 159.338 114.883 158.668C117.715 157.332 121.229 154.728 124.946 151.361C132.357 144.651 139.888 135.548 143.45 129.638C146.93 123.863 147.943 118.93 147.517 114.755C147.09 110.567 145.185 106.843 142.313 103.554C139.354 100.165 134.37 96.0848 129.452 94.312C127.02 93.4349 124.82 93.1999 122.962 93.6651Z" fill="url(#paint9_linear_3116_958)"/>
<path fill-rule="evenodd" clip-rule="evenodd" d="M230.874 111.764C236.613 105.528 236.143 95.88 229.828 90.2143C223.513 84.5488 213.741 85.011 208.005 91.2473L166.854 135.971L150.217 118.722C144.333 112.621 134.553 112.385 128.374 118.196C122.195 124.007 121.957 133.663 127.841 139.764L155.933 168.889C158.892 171.957 163.011 173.672 167.303 173.622C171.593 173.572 175.671 171.763 178.555 168.626L230.874 111.764ZM114.403 150.057L96.478 132.198L114.403 114.34C118.278 110.513 120.216 107.271 120.216 104.613C120.216 101.849 118.278 98.5538 114.403 94.727C110.527 90.9003 107.244 88.9868 104.552 88.9868C101.861 88.9868 98.5773 90.9003 94.7018 94.727L76.9388 112.586L59.0143 94.727C55.1388 90.9003 51.8552 88.9868 49.1637 88.9868C46.58 88.9868 43.2965 90.9003 39.3133 94.727C35.4378 98.5538 33.5 101.849 33.5 104.613C33.5 107.271 35.4378 110.513 39.3133 114.34L57.238 132.198L39.3133 150.057C35.4378 153.884 33.5 157.179 33.5 159.943C33.5 162.6 35.4378 165.843 39.3133 169.669C43.2965 173.39 46.58 175.25 49.1637 175.25C51.8552 175.25 55.1388 173.337 59.0143 169.51L76.9388 151.811L94.7018 169.51C98.5773 173.337 101.861 175.25 104.552 175.25C107.244 175.25 110.527 173.39 114.403 169.669C118.278 165.843 120.216 162.6 120.216 159.943C120.216 157.179 118.278 153.884 114.403 150.057Z" fill="white"/>
</g>
<defs>
<linearGradient id="paint0_linear_3116_958" x1="185.167" y1="-232.938" x2="70.8329" y2="488.937" gradientUnits="userSpaceOnUse">
<stop offset="0.45" stop-color="#2247FF"/>
<stop offset="1" stop-color="#0D1C65"/>
</linearGradient>
<linearGradient id="paint1_linear_3116_958" x1="179.45" y1="-196.844" x2="76.5498" y2="452.845" gradientUnits="userSpaceOnUse">
<stop offset="0.45" stop-color="#2247FF"/>
<stop offset="1" stop-color="#0D1C65"/>
</linearGradient>
<linearGradient id="paint2_linear_3116_958" x1="173.733" y1="-160.75" x2="82.2662" y2="416.75" gradientUnits="userSpaceOnUse">
<stop offset="0.45" stop-color="#2247FF"/>
<stop offset="1" stop-color="#0D1C65"/>
</linearGradient>
<linearGradient id="paint3_linear_3116_958" x1="168.017" y1="-124.657" x2="87.9831" y2="380.658" gradientUnits="userSpaceOnUse">
<stop offset="0.45" stop-color="#2247FF"/>
<stop offset="1" stop-color="#0D1C65"/>
</linearGradient>
<linearGradient id="paint4_linear_3116_958" x1="162.3" y1="-88.5628" x2="93.6997" y2="344.562" gradientUnits="userSpaceOnUse">
<stop offset="0.45" stop-color="#2247FF"/>
<stop offset="1" stop-color="#0D1C65"/>
</linearGradient>
<linearGradient id="paint5_linear_3116_958" x1="156.583" y1="-52.469" x2="99.4165" y2="308.47" gradientUnits="userSpaceOnUse">
<stop offset="0.45" stop-color="#2247FF"/>
<stop offset="1" stop-color="#0D1C65"/>
</linearGradient>
<linearGradient id="paint6_linear_3116_958" x1="150.867" y1="-16.3753" x2="105.133" y2="272.375" gradientUnits="userSpaceOnUse">
<stop offset="0.45" stop-color="#2247FF"/>
<stop offset="1" stop-color="#0D1C65"/>
</linearGradient>
<linearGradient id="paint7_linear_3116_958" x1="145.15" y1="19.7185" x2="110.85" y2="236.281" gradientUnits="userSpaceOnUse">
<stop offset="0.45" stop-color="#2247FF"/>
<stop offset="1" stop-color="#0D1C65"/>
</linearGradient>
<linearGradient id="paint8_linear_3116_958" x1="139.433" y1="55.8125" x2="116.566" y2="200.188" gradientUnits="userSpaceOnUse">
<stop offset="0.45" stop-color="#2247FF"/>
<stop offset="1" stop-color="#0D1C65"/>
</linearGradient>
<linearGradient id="paint9_linear_3116_958" x1="133.717" y1="91.9063" x2="122.283" y2="164.094" gradientUnits="userSpaceOnUse">
<stop offset="0.45" stop-color="#2247FF"/>
<stop offset="1" stop-color="#0D1C65"/>
</linearGradient>
<clipPath id="clip0_3116_958">
<rect width="256" height="256" rx="60" fill="white"/>
</clipPath>
</defs>
</svg>
