<svg width="141" height="26" viewBox="0 0 141 26" fill="none" xmlns="http://www.w3.org/2000/svg">
<g clip-path="url(#clip0_3361_94830)">
<path d="M37.3828 5.64669L44.8368 25.8382H50.0413L57.4953 5.64669H53.0016L47.5208 21.2629L41.9595 5.64669H37.3828ZM58.3219 10.3391C57.4939 11.9174 57.0963 13.7312 57.0963 15.786C57.0963 17.8408 57.4912 19.6506 58.3586 21.1894C59.1871 22.7273 60.4483 23.9885 61.9862 24.8169C63.5631 25.6843 65.3783 26.0793 67.508 26.0793C69.9128 26.0793 71.924 25.4474 73.5417 24.1075C75.1581 22.8057 76.144 21.1117 76.5375 19.0596H72.2781C71.9621 20.2034 71.3712 21.0709 70.5078 21.7013C69.5996 22.3318 68.4966 22.6083 67.1948 22.6083C65.5389 22.6083 64.199 22.0962 63.2118 21.0709C62.1864 20.0455 61.6336 18.6647 61.5559 16.8904V16.6534H76.7772C76.8559 16.1182 76.8955 15.578 76.8956 15.037C76.8561 13.1048 76.4231 11.4082 75.5557 9.94978C74.716 8.53081 73.5013 7.37078 72.0452 6.59722C70.5473 5.80879 68.8506 5.41384 66.9184 5.41384C64.9861 5.41384 63.2908 5.8483 61.7915 6.71571C60.3059 7.56051 59.0984 8.81951 58.3164 10.3391H58.3219ZM72.5586 13.5337H61.7125C61.8705 12.1148 62.4233 11.0105 63.4487 10.1431C64.4558 9.27634 65.7479 8.81259 67.0763 8.84126C68.5742 8.84126 69.7997 9.27435 70.7829 10.1036C71.7661 10.9329 72.3557 12.0753 72.5531 13.5337H72.5586ZM89.9218 5.64669H88.9686C87.3917 5.64669 86.1689 5.91904 85.262 6.47462C84.3307 6.99946 83.5551 7.76161 83.0138 8.68341L82.5413 5.64669H78.7544V25.8436H83.0138V15.7085C83.0138 13.9736 83.4087 12.5138 84.1971 11.37C84.9856 10.2262 86.2479 9.63515 88.0222 9.63515H89.915L89.9218 5.64669ZM91.7301 0.0078125V20.356C91.7301 22.2488 92.1636 23.6291 93.0306 24.497C93.898 25.4039 95.2787 25.8382 97.211 25.8382H101.312V22.0922H98.0784C97.29 22.0922 96.778 21.9341 96.4621 21.6182C96.1462 21.3023 95.9882 20.7113 95.9882 19.9229V9.39286H100.878V5.64669H95.9882V0.0078125H91.7301ZM102.918 10.3391C102.091 11.9174 101.692 13.7312 101.692 15.786C101.692 17.8408 102.087 19.6506 102.955 21.1894C103.783 22.7273 105.044 23.9885 106.582 24.8169C108.159 25.6843 109.973 26.0793 112.103 26.0793C114.509 26.0793 116.52 25.4474 118.136 24.1075C119.754 22.8057 120.74 21.1117 121.132 19.0596H116.874C116.558 20.2034 115.967 21.0709 115.104 21.7013C114.198 22.3318 113.093 22.6083 111.792 22.6083C110.136 22.6083 108.796 22.0962 107.809 21.0709C106.782 20.0455 106.231 18.6647 106.153 16.8904V16.6534H121.376C121.454 16.1181 121.493 15.5779 121.493 15.037C121.454 13.1048 121.019 11.4082 120.152 9.94978C119.311 8.52829 118.094 7.36665 116.634 6.5931C115.137 5.80467 113.44 5.40985 111.508 5.40985C109.575 5.40985 107.88 5.84418 106.381 6.71159C104.898 7.55909 103.693 8.81935 102.913 10.3391H102.918ZM117.155 13.5337H106.31C106.468 12.1148 107.021 11.0105 108.045 10.1431C109.053 9.27659 110.345 8.81289 111.674 8.84126C113.172 8.84126 114.397 9.27435 115.382 10.1036C116.366 10.9329 116.952 12.0753 117.149 13.5337H117.155ZM128.231 15.5055L120.658 25.8382H125.272L130.636 18.5026L135.96 25.8382H140.929L133.317 15.5055L140.494 5.64669H135.835L130.905 12.4689L126.053 5.64669H121.085L128.231 15.5055Z" fill="white"/>
<g clip-path="url(#clip1_3361_94830)">
<path d="M17.418 23.0757C17.2251 23.7568 16.8213 24.3593 16.2645 24.7965C15.7066 25.2325 15.0248 25.4805 14.3171 25.5049H9.6013L0 5.42969H9.58909L14.385 15.472C14.385 15.472 17.8849 21.4255 17.418 23.0757Z" fill="#F9F9FA"/>
<path d="M17.4184 23.0762C17.8853 21.426 14.3867 15.4766 14.3867 15.4766H19.5721L17.4184 23.0762Z" fill="url(#paint0_linear_3361_94830)"/>
<path d="M19.5723 15.4759H28.9361V5.43359H25.196C24.4855 5.43399 23.7936 5.6602 23.2201 6.07956C22.6465 6.49965 22.2216 7.0914 22.0069 7.76912L19.5723 15.4759Z" fill="#F9F9FA"/>
</g>
</g>
<defs>
<linearGradient id="paint0_linear_3361_94830" x1="17.1307" y1="14.9446" x2="14.8915" y2="22.8835" gradientUnits="userSpaceOnUse">
<stop stop-color="#F9F9FA"/>
<stop offset="1" stop-color="white" stop-opacity="0"/>
</linearGradient>
<clipPath id="clip0_3361_94830">
<rect width="141" height="25.9201" fill="white"/>
</clipPath>
<clipPath id="clip1_3361_94830">
<rect width="28.9355" height="20.0752" fill="white" transform="translate(0 5.42969)"/>
</clipPath>
</defs>
</svg>