<svg width="64" height="20" viewBox="0 0 64 20" fill="none" xmlns="http://www.w3.org/2000/svg">
<g clip-path="url(#clip0_26082_6100)">
<mask id="mask0_26082_6100" style="mask-type:luminance" maskUnits="userSpaceOnUse" x="0" y="0" width="64" height="20">
<path d="M63.3559 -2.28882e-05H0.59375V20H63.3559V-2.28882e-05Z" fill="white"/>
</mask>
<g mask="url(#mask0_26082_6100)">
<path d="M10.5938 20C16.1166 20 20.5938 15.5228 20.5938 9.99998C20.5938 4.47713 16.1166 -2.28882e-05 10.5938 -2.28882e-05C5.07091 -2.28882e-05 0.59375 4.47713 0.59375 9.99998C0.59375 15.5228 5.07091 20 10.5938 20Z" fill="url(#paint0_linear_26082_6100)"/>
<path d="M16.9109 9.38863L14.0864 6.5641L14.0813 6.55898L14.0701 6.54919C14.0518 6.53266 14.0327 6.51713 14.0128 6.5026C13.9988 6.49141 13.9848 6.48069 13.9699 6.47091C13.9634 6.46626 13.9569 6.46254 13.9499 6.45835C13.7888 6.35288 13.594 6.31182 13.4041 6.34332C13.2142 6.37482 13.0431 6.4766 12.9248 6.62841L8.53192 11.0218V7.10785C8.53192 6.9021 8.45017 6.70479 8.3047 6.55929C8.1592 6.41379 7.96189 6.33207 7.75614 6.33207C7.55039 6.33207 7.35305 6.41379 7.20758 6.55929C7.06208 6.70479 6.98033 6.9021 6.98033 7.10785V11.0218L5.37658 9.41798C5.22998 9.27819 5.03452 9.20129 4.83198 9.20369C4.62945 9.2061 4.43586 9.28763 4.29264 9.43088C4.14942 9.5741 4.06789 9.76766 4.06548 9.97023C4.06308 10.1728 4.13998 10.3682 4.27977 10.5148L7.20773 13.4428C7.22611 13.4614 7.24558 13.479 7.26595 13.4954C7.28555 13.5113 7.30605 13.5266 7.32655 13.542C7.43233 13.6106 7.55323 13.6523 7.6788 13.6636H7.68205C7.7072 13.666 7.73236 13.6674 7.75752 13.6674H7.76917C7.7903 13.6674 7.81127 13.6664 7.83208 13.6646H7.84745C7.86748 13.6622 7.88752 13.6599 7.90711 13.6557H7.91595C7.93786 13.651 7.95973 13.6459 7.98117 13.6394H7.98492C8.0083 13.6324 8.03133 13.6241 8.05386 13.6147C8.08602 13.6014 8.11714 13.5859 8.14705 13.5681L8.16477 13.5579C8.19408 13.5399 8.22208 13.52 8.24864 13.4982L8.25655 13.4912C8.27286 13.4773 8.28917 13.4633 8.30314 13.4474L12.7575 8.99026V12.892C12.7575 13.0978 12.8393 13.2951 12.9848 13.4406C13.1302 13.5861 13.3276 13.6678 13.5333 13.6678C13.7391 13.6678 13.9364 13.5861 14.0819 13.4406C14.2274 13.2951 14.3091 13.0978 14.3091 12.892V8.97813L15.8141 10.4859C15.9602 10.6285 16.1566 10.7078 16.3608 10.7065C16.5649 10.7053 16.7604 10.6236 16.9047 10.4792C17.049 10.3348 17.1306 10.1394 17.1318 9.93519C17.133 9.73107 17.0536 9.53466 16.9109 9.38863Z" fill="white"/>
<path d="M24.0869 7.66569H26.3887V13.6782H27.7674V7.66569H30.0691V6.37785H24.0869V7.66569Z" fill="white"/>
<path d="M33.0919 8.19032C32.9288 8.20163 32.7672 8.23054 32.61 8.27651C32.4588 8.32051 32.3141 8.38429 32.1797 8.46613C32.0103 8.56495 31.8622 8.69601 31.7435 8.85195C31.6875 8.92598 31.6367 9.00382 31.5916 9.08492V8.20288H30.375V13.6782H31.7663V10.8797C31.7626 10.6877 31.7908 10.4964 31.8497 10.3136C31.9032 10.1518 31.9897 10.003 32.1041 9.87688C32.2188 9.7507 32.3582 9.64995 32.5141 9.58113C32.6853 9.50098 32.87 9.45357 33.0588 9.44135C33.2369 9.42373 33.4169 9.43951 33.5891 9.48795V8.20288C33.4241 8.18242 33.2575 8.1782 33.0919 8.19032Z" fill="white"/>
<path d="M38.8197 9.04436C38.6403 8.69151 38.3372 8.41723 37.9681 8.27417C37.5931 8.12508 37.1638 8.05051 36.6803 8.05051C36.0213 8.05051 35.501 8.19264 35.1188 8.47686C34.7444 8.74967 34.4703 9.13801 34.3385 9.58208L35.5853 9.97717C35.6735 9.72683 35.8272 9.55286 36.0466 9.45533C36.245 9.36198 36.461 9.3118 36.6803 9.30808C37.0456 9.30808 37.306 9.3842 37.4613 9.53639C37.5828 9.6552 37.6553 9.82901 37.6816 10.0536C37.4485 10.0885 37.2272 10.1216 37.02 10.1519C36.6657 10.2044 36.3478 10.2594 36.0672 10.3169C35.821 10.3651 35.5788 10.4311 35.3422 10.5144C35.0841 10.6025 34.8453 10.74 34.64 10.9193C34.4713 11.0716 34.3419 11.262 34.2619 11.4747C34.1822 11.6974 34.1428 11.9325 34.1456 12.169C34.1422 12.4605 34.215 12.7479 34.3563 13.003C34.5 13.2599 34.7147 13.4701 34.9744 13.6087C35.2466 13.7594 35.5788 13.8345 35.9706 13.8342C36.4441 13.8342 36.8353 13.7522 37.1444 13.5882C37.4097 13.4403 37.6447 13.243 37.8363 13.0072V13.6823H39.0431V10.3318C39.0441 10.1051 39.0338 9.87851 39.0122 9.65289C38.9888 9.43936 38.9235 9.23255 38.8197 9.04436ZM37.5319 12.0152C37.475 12.1205 37.4044 12.2176 37.3219 12.3041C37.2031 12.4308 37.0622 12.5347 36.9063 12.6107C36.7063 12.706 36.4863 12.752 36.2647 12.7449C36.1244 12.7483 35.985 12.7243 35.8541 12.674C35.7472 12.6332 35.6547 12.562 35.5882 12.469C35.5241 12.3741 35.4916 12.2615 35.495 12.1471C35.4938 12.0607 35.5138 11.9754 35.5535 11.8987C35.5982 11.8175 35.6607 11.7473 35.7357 11.6932C35.8366 11.6211 35.9463 11.5624 36.0619 11.5185C36.1963 11.4698 36.3331 11.4291 36.4725 11.3969C36.6278 11.3596 36.8322 11.3182 37.086 11.2725C37.2478 11.2436 37.4453 11.2091 37.671 11.1709C37.6682 11.2683 37.6638 11.3731 37.6563 11.4971C37.6491 11.6762 37.6066 11.8522 37.5319 12.0152Z" fill="white"/>
<path d="M45.3518 9.50832C45.2846 9.25897 45.1758 9.02272 45.0302 8.80941C44.868 8.57647 44.6514 8.38675 44.3989 8.25682C44.1286 8.11175 43.7789 8.03922 43.3496 8.03922C42.8124 8.03922 42.3671 8.15569 42.0139 8.38866C41.8518 8.49572 41.7046 8.62338 41.5752 8.76841V8.20275H40.3486V13.678H41.7464V10.9001C41.7464 10.5584 41.7843 10.2846 41.8599 10.0786C41.9358 9.87269 42.0336 9.71644 42.1536 9.60991C42.2614 9.5091 42.3918 9.43519 42.5339 9.39416C42.6574 9.35857 42.7852 9.33975 42.9139 9.33825C43.2077 9.33825 43.4352 9.40425 43.5958 9.53629C43.7546 9.66516 43.8746 9.83522 43.9433 10.0278C44.0124 10.2162 44.0552 10.4134 44.0699 10.6135C44.0836 10.8077 44.0902 10.9673 44.0899 11.0925V13.678H45.4877V10.6056C45.4877 10.5124 45.4814 10.3694 45.4677 10.1695C45.4502 9.94591 45.4114 9.7245 45.3518 9.50832Z" fill="white"/>
<path d="M50.5196 10.7794C50.2671 10.6365 49.9334 10.5107 49.5181 10.402C49.0925 10.2939 48.7756 10.206 48.5678 10.1383C48.36 10.0706 48.2231 10.0047 48.1572 9.94073C48.125 9.91011 48.0993 9.87305 48.0825 9.83195C48.0653 9.79089 48.0568 9.74667 48.0581 9.70217C48.0581 9.5433 48.135 9.42261 48.2887 9.33736C48.4425 9.25208 48.6465 9.21945 48.8993 9.23623C49.1597 9.25642 49.3659 9.3257 49.5181 9.44405C49.5931 9.50183 49.655 9.57445 49.7006 9.65736C49.7459 9.74027 49.7737 9.83167 49.7818 9.92583L51.1915 9.67189C51.15 9.35452 51.0187 9.05552 50.8134 8.80989C50.5968 8.55817 50.3206 8.36483 50.0096 8.24751C49.6456 8.1097 49.2584 8.04248 48.869 8.04948C48.4265 8.04948 48.0421 8.1197 47.7159 8.26011C47.4109 8.38333 47.1475 8.59123 46.9568 8.8593C46.7746 9.12908 46.6809 9.44889 46.6887 9.77439C46.6812 10.0251 46.7425 10.2731 46.8656 10.4915C46.984 10.6897 47.1768 10.8596 47.4437 11.0012C47.7109 11.1429 48.0681 11.2713 48.5156 11.3865C48.9106 11.4915 49.2022 11.576 49.3897 11.64C49.5759 11.7043 49.6981 11.7691 49.7522 11.8353C49.809 11.9099 49.8378 12.0024 49.8331 12.0962C49.8362 12.175 49.8193 12.2534 49.784 12.3239C49.7484 12.3944 49.6956 12.4547 49.6306 12.4992C49.4943 12.5952 49.3022 12.6432 49.0537 12.6432C48.7493 12.6432 48.4984 12.5705 48.3006 12.4251C48.1018 12.2783 47.9653 12.0621 47.9181 11.8194L46.5068 12.0375C46.5981 12.6087 46.8559 13.0507 47.28 13.3635C47.7037 13.6763 48.2606 13.8326 48.9503 13.8323C49.6668 13.8323 50.2278 13.6717 50.6331 13.3505C51.0387 13.0293 51.2422 12.5876 51.2437 12.0254C51.2509 11.7718 51.1915 11.5208 51.0712 11.2975C50.9553 11.0969 50.7715 10.9242 50.5196 10.7794Z" fill="white"/>
<path d="M56.725 9.04436C56.5456 8.69158 56.2425 8.41736 55.8735 8.27417C55.4981 8.12508 55.0688 8.05051 54.5856 8.05051C53.9266 8.05051 53.4063 8.19264 53.0241 8.47686C52.6497 8.74976 52.3753 9.13805 52.2431 9.58208L53.4906 9.97717C53.5788 9.72683 53.7325 9.55286 53.9519 9.45533C54.1503 9.36198 54.3663 9.3118 54.5856 9.30808C54.951 9.30808 55.2113 9.3842 55.3666 9.53639C55.4881 9.65523 55.5603 9.82901 55.5869 10.0536C55.3538 10.0885 55.1325 10.1216 54.9253 10.1519C54.5706 10.2044 54.2531 10.2594 53.9725 10.3169C53.7263 10.3651 53.4841 10.4311 53.2475 10.5144C52.9535 10.6231 52.7194 10.7575 52.5453 10.9175C52.3766 11.0697 52.2472 11.2602 52.1672 11.4729C52.0872 11.6955 52.0478 11.9306 52.051 12.1671C52.0475 12.4587 52.12 12.746 52.2616 13.0011C52.4053 13.2581 52.62 13.4683 52.8797 13.6069C53.1519 13.7575 53.4838 13.8327 53.876 13.8324C54.3494 13.8324 54.7406 13.7504 55.0497 13.5864C55.315 13.4384 55.55 13.2412 55.7416 13.0053V13.6805H56.9485V10.3318C56.9494 10.1051 56.9391 9.87851 56.9175 9.65289C56.8941 9.43936 56.8288 9.23255 56.725 9.04436ZM55.4372 12.0152C55.3803 12.1205 55.3097 12.2176 55.2272 12.3041C55.1085 12.4308 54.9675 12.5347 54.8116 12.6107C54.6116 12.706 54.3916 12.752 54.17 12.7449C54.0297 12.7483 53.8903 12.7243 53.7594 12.674C53.6525 12.6332 53.56 12.562 53.4935 12.469C53.4294 12.3741 53.3966 12.2615 53.4003 12.1471C53.3991 12.0607 53.4191 11.9754 53.4588 11.8987C53.5035 11.8174 53.5656 11.7472 53.641 11.6932C53.7419 11.6211 53.8513 11.5624 53.9672 11.5185C54.1016 11.4697 54.2385 11.4291 54.3778 11.3969C54.5331 11.3596 54.7375 11.3182 54.9913 11.2725C55.1531 11.2436 55.3506 11.2091 55.5763 11.1709C55.5735 11.2683 55.5688 11.3731 55.5616 11.4971C55.5538 11.6762 55.5116 11.8521 55.4372 12.0152Z" fill="white"/>
<path d="M61.2461 10.9403L63.223 8.20294H61.5196L59.6643 10.8392V6.37785H58.2649L58.2549 13.6782H59.6643V11.0419L61.5602 13.6782H63.3549L61.2461 10.9403Z" fill="white"/>
</g>
</g>
<defs>
<linearGradient id="paint0_linear_26082_6100" x1="1.93193" y1="4.99904" x2="19.2556" y2="15.0004" gradientUnits="userSpaceOnUse">
<stop offset="0.13" stop-color="#348BED"/>
<stop offset="0.31" stop-color="#2B80E8"/>
<stop offset="0.64" stop-color="#1461DB"/>
<stop offset="0.72" stop-color="#0E57D7"/>
</linearGradient>
<clipPath id="clip0_26082_6100">
<rect width="62.8125" height="20" fill="white" transform="translate(0.59375)"/>
</clipPath>
</defs>
</svg>
