<svg width="31" height="8" viewBox="0 0 31 8" fill="none" xmlns="http://www.w3.org/2000/svg">
<path d="M9.66513 3.35054L11.8322 1.19583L11.0102 0.378418L9.25414 2.12442L7.49808 0.378418L6.67572 1.19583L8.84296 3.35054C8.9566 3.46348 9.10537 3.51995 9.25414 3.51995C9.4029 3.51995 9.55166 3.46348 9.66513 3.35054ZM12.8024 5.65224L11.0464 3.90642L12.8023 2.16042L11.9803 1.34301L9.81319 3.49771C9.75924 3.55123 9.71642 3.61489 9.68719 3.68504C9.65797 3.75519 9.64292 3.83043 9.64292 3.90642C9.64292 3.98241 9.65797 4.05765 9.68719 4.1278C9.71642 4.19794 9.75924 4.26161 9.81319 4.31512L11.9803 6.46983L12.8024 5.65224ZM9.25113 5.69124L11.007 7.43724L11.8294 6.61983L9.66214 4.46512C9.5528 4.35668 9.40504 4.29583 9.25105 4.29583C9.09705 4.29583 8.9493 4.35668 8.83996 4.46512L6.6729 6.61983L7.4949 7.43724L9.25113 5.69124ZM8.69208 4.31795C8.74592 4.26439 8.78864 4.20072 8.8178 4.13059C8.84695 4.06047 8.86196 3.98527 8.86196 3.90933C8.86196 3.83339 8.84695 3.75819 8.8178 3.68807C8.78864 3.61794 8.74592 3.55427 8.69208 3.50071L6.52502 1.34601L5.70266 2.16342L7.4589 3.90924L5.70284 5.65524L6.52484 6.47265L8.69208 4.31795ZM5.67355 7.15383H3.85096L3.71984 6.32971H2.53166L2.38784 7.15383H0.56543L2.13425 0.662006H4.29072L5.67355 7.15383ZM3.51266 4.93789L3.39849 4.18101C3.39549 4.17836 3.39002 4.14042 3.38155 4.06736C3.37608 4.00595 3.34625 3.76207 3.29278 3.33607C3.28714 3.28842 3.28008 3.22312 3.27161 3.14054C3.26314 3.05759 3.25184 2.95312 3.2379 2.82695L3.18266 2.21336C3.17737 2.2723 3.16943 2.33812 3.15955 2.41101C3.14966 2.48389 3.13908 2.56365 3.12778 2.65065C3.11428 2.77131 3.10016 2.8919 3.08543 3.01242C3.07696 3.0793 3.07149 3.12007 3.06866 3.13418L2.94602 3.92018L2.76849 4.93789H3.51266ZM16.5658 7.15348V5.59383H15.0521V4.60136H16.4091V3.13436H15.0521V2.18848H16.5658V0.662006H13.2888V7.15348H16.5658ZM20.034 5.59383H18.7105V0.662006H16.9472V7.15365H20.034V5.59383ZM25.4487 7.15365H23.6264L23.4951 6.32954H22.307L22.1631 7.15365H20.3405L21.9094 0.66183H24.066L25.4487 7.15348V7.15365ZM23.2881 4.93807L23.1738 4.18118C23.1708 4.17854 23.1653 4.14059 23.1568 4.06754C23.1514 4.00612 23.1215 3.76224 23.0681 3.33624C23.0623 3.28859 23.0555 3.2233 23.0469 3.14071C23.0384 3.05777 23.0271 2.9533 23.0134 2.82712L22.958 2.21371C22.9525 2.27248 22.9447 2.3383 22.9348 2.41136C22.925 2.48407 22.9144 2.56383 22.9031 2.65101C22.8833 2.82465 22.8692 2.94518 22.8607 3.01242C22.8523 3.07948 22.8468 3.12024 22.8441 3.13436L22.7213 3.92036L22.5436 4.93807H23.2881ZM30.4724 7.15383H28.5655L27.6946 4.84136C27.6822 4.78877 27.6673 4.73682 27.6498 4.68571C27.6244 4.60845 27.5984 4.53139 27.5718 4.45454L27.5843 4.88336V7.15383H25.8295V0.662006H27.6351C28.4301 0.662006 29.0248 0.817653 29.4198 1.12895C29.9213 1.52689 30.1722 2.09318 30.1722 2.82712C30.1722 3.61224 29.8354 4.15471 29.1616 4.45454L30.4724 7.15383ZM28.4217 2.8483C28.4217 2.36354 28.1665 2.12124 27.6563 2.12124H27.5928V3.66818H27.7112C27.9141 3.66818 28.0834 3.59124 28.2187 3.43701C28.3541 3.28295 28.4217 3.08671 28.4217 2.8483Z" fill="#FAFAFA"/>
</svg>
