<svg width="26" height="14" viewBox="0 0 26 14" fill="none" xmlns="http://www.w3.org/2000/svg">
<path d="M5.88408 12.2661C5.62262 12.2661 5.36351 12.1896 5.13486 12.0451C4.89918 11.8962 4.69437 11.6736 4.5428 11.4014C4.31689 10.9958 4.2152 10.4777 4.26403 9.98018C4.31624 9.44725 4.09359 9.06041 3.95622 8.87722C3.90309 8.80635 3.84346 8.73868 3.78564 8.67319C3.67783 8.55076 3.56624 8.42425 3.4984 8.27675C3.44684 8.16469 3.43082 8.03254 3.45465 7.91421C3.48004 7.78757 3.54892 7.69252 3.64853 7.64647C3.6928 7.626 3.74046 7.61564 3.78994 7.61564C3.98473 7.61564 4.18017 7.77362 4.29814 7.9215C4.55335 8.24131 4.71468 8.57123 4.7777 8.90204C4.81468 9.09649 4.82392 9.27085 4.83278 9.43932C4.854 9.84241 4.87236 10.1905 5.27952 10.5766C5.53577 10.8196 5.86038 10.9589 6.17002 10.9589C6.53981 10.9589 6.88096 10.7738 7.18395 10.4089C7.44202 10.0981 7.58395 9.70413 7.60596 9.23784C7.62444 8.84397 7.55439 8.40288 7.40348 7.96231C7.1639 7.26359 6.69944 6.63357 5.94163 5.97975C5.84853 5.89941 5.75231 5.8192 5.65921 5.74168C5.3652 5.49671 5.06103 5.24342 4.8126 4.94855C4.44059 4.50709 4.19241 4.07368 4.0751 3.66023C3.9751 3.30818 3.9695 2.97098 4.0583 2.65795C4.22158 2.0828 4.68317 1.68815 5.04293 1.56496C5.17327 1.52032 5.30218 1.4978 5.42627 1.4978C5.69411 1.4978 5.93239 1.5995 6.1346 1.80022C6.37119 2.03496 6.52366 2.36973 6.5639 2.74289C6.56885 2.7883 6.57353 2.83358 6.57822 2.87874C6.62523 3.3307 6.66963 3.75771 6.87913 4.17474C6.89957 4.21529 6.92588 4.26211 6.95648 4.31635C7.08135 4.53766 7.27002 4.87218 7.19437 5.09362C7.16637 5.17562 7.10569 5.236 7.00882 5.27821C6.95101 5.30341 6.89359 5.31621 6.83812 5.31621C6.66585 5.31621 6.50921 5.1925 6.40843 4.9767C6.24319 4.62273 6.20804 4.26147 6.1708 3.87885C6.15192 3.68428 6.13226 3.48305 6.09385 3.28503C6.0501 3.05975 5.91598 2.92531 5.73512 2.92531C5.62288 2.92531 5.50869 2.97839 5.42158 3.07101C5.31676 3.18256 5.26611 3.33351 5.27926 3.49598C5.32041 4.00639 5.62327 4.45182 5.9445 4.85734C6.49684 5.55453 6.88655 6.23547 7.29918 6.95657L7.31728 6.9883C7.57835 7.44448 7.75231 7.88901 7.84879 8.34736C8.00075 9.0686 7.95596 9.80749 7.71559 10.5437C7.53421 11.0994 7.25765 11.5513 6.91598 11.8507C6.6057 12.1225 6.24892 12.2663 5.88447 12.2663H5.88421L5.88408 12.2661Z" fill="white"/>
<path d="M16.3267 3.2588C16.2181 3.2588 16.1116 3.21544 16.0188 3.13356C15.8878 3.01792 15.8107 2.83 15.8128 2.63108C15.8145 2.46247 15.8688 2.28121 15.9742 2.09213C16.1041 1.85919 16.2732 1.68559 16.4634 1.59016C16.5735 1.53503 16.6953 1.50586 16.8159 1.50586C16.9365 1.50586 17.0474 1.53528 17.1401 1.59093C17.3483 1.71591 17.4435 1.98071 17.3522 2.1813C17.2933 2.31088 17.1929 2.36551 17.0864 2.42346C17.0232 2.45787 16.958 2.4933 16.8977 2.54575C16.7852 2.64374 16.7766 2.70336 16.7636 2.79354C16.7591 2.82424 16.7541 2.85917 16.744 2.90138C16.6931 3.11514 16.5254 3.25867 16.3266 3.25867L16.3267 3.2588Z" fill="white"/>
<path d="M16.7429 12.2698C16.689 12.2698 16.6367 12.2593 16.5873 12.2388C16.4672 12.1884 16.3814 12.0787 16.3457 11.9298C16.3125 11.7911 16.3255 11.6346 16.3815 11.5001C16.4612 11.3087 16.5924 11.1424 16.7195 10.9816C16.8422 10.8263 16.969 10.6657 17.0527 10.4801C17.3836 9.74526 17.4011 8.91823 17.1019 8.1512C17.0674 8.06268 17.0323 7.9739 16.997 7.88512C16.7157 7.17591 16.4248 6.44252 16.4233 5.66794C16.422 5.00747 16.6323 4.37655 17.0315 3.84361C17.1686 3.66056 17.3985 3.46509 17.6327 3.46509C17.6868 3.46509 17.7394 3.47583 17.7889 3.49694C18.0462 3.60657 18.1008 3.96821 17.9902 4.23711C17.9393 4.36107 17.8448 4.4895 17.7353 4.63815C17.308 5.21854 16.6625 6.09559 17.4272 8.24548C17.5237 8.51681 17.7002 9.16743 17.7496 9.88444C17.8084 10.74 17.6677 11.4328 17.3427 11.888C17.2168 12.0643 16.9844 12.2701 16.7433 12.2701L16.7429 12.2698Z" fill="white"/>
<path d="M9.55334 12.2769C9.41284 12.2769 9.19917 12.194 8.97847 11.799C8.6786 11.2623 8.54045 10.5408 8.62652 9.96095C8.74045 9.1934 8.96102 8.57706 9.32092 8.02111C9.64188 7.52527 10.0333 7.13907 10.4477 6.73023C10.6104 6.56981 10.7786 6.40389 10.9454 6.22812C11.0537 6.11402 11.4054 5.7227 11.3821 5.48156C11.3766 5.42438 11.3507 5.37871 11.3053 5.34622C11.2779 5.32652 11.2497 5.31654 11.2216 5.31654C11.1365 5.31654 11.0638 5.40481 10.9717 5.51636C10.8802 5.62739 10.7661 5.76555 10.6029 5.86559C10.432 5.97049 10.1773 6.03304 9.9217 6.03304C9.69579 6.03304 9.36102 5.98392 9.04865 5.74969C8.7381 5.51674 8.51675 5.15267 8.39084 4.66732C8.23524 4.06736 8.2454 3.42314 8.41857 2.8998C8.52183 2.58792 8.68107 2.31966 8.89188 2.10245C9.1286 1.85863 9.43133 1.67889 9.79175 1.56811C9.91063 1.53152 10.05 1.51221 10.1944 1.51221C10.4302 1.51221 10.8929 1.56657 11.3418 1.93077C11.7793 2.28576 12.0876 2.83532 12.2583 3.56398C12.3308 3.87381 12.4019 4.24735 12.3783 4.66835C12.3488 5.19795 12.172 5.67741 11.8527 6.09304C11.645 6.3636 11.3234 6.59424 10.983 6.83845C10.5694 7.13523 10.1003 7.47155 9.76584 7.93936C9.38224 8.47575 9.23016 9.10718 9.30099 9.86961C9.34514 10.3456 9.65334 10.886 9.81896 11.1762C9.85438 11.2384 9.88251 11.2876 9.89761 11.3185C9.93159 11.3879 10.011 11.5704 10.0157 11.7619C10.021 11.9824 9.92613 12.141 9.73342 12.2333C9.67339 12.262 9.61284 12.2766 9.5536 12.2766L9.55334 12.2769ZM9.79696 2.378C9.57248 2.378 9.34514 2.49185 9.18849 2.68271C9.04266 2.86027 8.95334 3.10486 8.9299 3.39C8.91089 3.62142 8.93902 3.82418 9.0135 3.9924C9.10321 4.19516 9.26922 4.35174 9.45738 4.41135C9.52001 4.43118 9.58133 4.44115 9.63993 4.44115C9.776 4.44115 9.89839 4.38564 9.98459 4.28458C10.0911 4.15985 10.1348 3.97526 10.1018 3.79079C10.0757 3.64547 10.0802 3.56065 10.119 3.46663C10.1338 3.43081 10.1545 3.39154 10.1825 3.34676C10.1981 3.32182 10.2148 3.29662 10.2311 3.27244C10.304 3.16332 10.3793 3.05036 10.3793 2.9053C10.3793 2.65227 10.1541 2.41791 9.87769 2.38299C9.85113 2.37966 9.82404 2.37787 9.79696 2.37787V2.378Z" fill="white"/>
<path d="M20.5488 12.277C20.4043 12.277 20.2651 12.2577 20.1462 12.2211C19.7858 12.1103 19.4831 11.9306 19.2464 11.6868C19.0356 11.4695 18.8763 11.2013 18.7731 10.8894C18.5999 10.3661 18.5897 9.72184 18.7453 9.12188C18.8712 8.63654 19.0925 8.27234 19.4031 8.03952C19.7155 7.80529 20.0504 7.75616 20.2762 7.75616C20.5318 7.75616 20.7866 7.81872 20.9574 7.92362C21.1206 8.02378 21.2347 8.16181 21.3262 8.27285C21.4184 8.38453 21.491 8.47267 21.5761 8.47267C21.6043 8.47267 21.6324 8.46269 21.6598 8.44299C21.7052 8.41037 21.731 8.36483 21.7366 8.30764C21.7599 8.06638 21.4082 7.67519 21.2999 7.56108C21.1331 7.38531 20.9649 7.2194 20.8022 7.05898C20.3878 6.65013 19.9962 6.26406 19.6754 5.76823C19.3156 5.21227 19.0949 4.5958 18.981 3.82839C18.8949 3.24851 19.0331 2.52714 19.333 1.99038C19.5537 1.59535 19.7675 1.51245 19.9078 1.51245C19.9671 1.51245 20.0276 1.52703 20.0876 1.55582C20.2804 1.64805 20.3753 1.80668 20.3699 2.02722C20.3653 2.21885 20.2858 2.40114 20.2518 2.4706C20.2392 2.49631 20.2189 2.53418 20.1931 2.58228C20.0461 2.85604 19.7401 3.42555 19.6943 3.91947C19.6233 4.68394 19.7725 5.3164 20.1503 5.85317C20.48 6.3215 20.943 6.65819 21.3515 6.95523C21.6852 7.1979 22.0005 7.42714 22.2069 7.69604C22.5261 8.11179 22.7029 8.59112 22.7324 9.12073C22.756 9.54185 22.6849 9.91527 22.6124 10.2251C22.4417 10.9538 22.1334 11.5033 21.6959 11.8583C21.2472 12.2224 20.7845 12.2767 20.5486 12.2767L20.5488 12.277ZM19.9947 9.34818C19.9361 9.34818 19.8746 9.35828 19.8121 9.37799C19.6238 9.4376 19.458 9.59418 19.3682 9.79694C19.2938 9.96516 19.2656 10.1679 19.2847 10.3993C19.308 10.6845 19.3974 10.9289 19.5432 11.1066C19.6999 11.2975 19.9274 11.4113 20.1517 11.4113C20.1788 11.4113 20.206 11.4097 20.2324 11.4062C20.5089 11.3712 20.7339 11.1369 20.734 10.8839C20.734 10.7388 20.6587 10.6259 20.5858 10.5168C20.5696 10.4925 20.5529 10.4674 20.5373 10.4423C20.5094 10.3975 20.4886 10.3584 20.4737 10.3224C20.4349 10.2284 20.4305 10.1436 20.4565 9.99829C20.4896 9.81382 20.4459 9.62923 20.3393 9.5045C20.2531 9.40357 20.1307 9.34792 19.9947 9.34792V9.34818Z" fill="white"/>
<path d="M13.2648 12.2658C12.7856 12.2658 12.3379 12.085 12.0365 11.7698C11.5993 11.3124 11.298 10.6584 11.2098 9.97537C11.1125 9.22202 11.1144 8.54825 11.2151 7.91579C11.2477 7.71201 11.32 7.52127 11.4188 7.37864C11.5368 7.20837 11.6825 7.11614 11.852 7.1045C11.8677 7.10347 11.8834 7.10283 11.8986 7.10283C12.0595 7.10283 12.1918 7.16321 12.2918 7.28218C12.4834 7.51001 12.5145 7.90005 12.4624 8.16588C12.428 8.34139 12.3778 8.52241 12.3291 8.6974C12.2075 9.13542 12.0817 9.58827 12.1705 10.0427C12.2325 10.3602 12.4226 10.6816 12.6547 10.8619C12.8012 10.9755 13.0099 11.0495 13.1995 11.0552C13.2167 11.0557 13.2336 11.0559 13.2506 11.0559C13.5339 11.0559 13.7995 10.9847 14.0401 10.8442C14.2549 10.7189 14.4508 10.5378 14.6223 10.3062C15.0103 9.78233 15.1696 9.15256 15.2299 8.82392C15.3687 8.06751 15.3045 7.39258 15.0275 6.69974C14.8973 6.37379 14.6653 5.99181 14.4411 5.62237C14.2704 5.34106 14.109 5.07549 13.9957 4.8419C13.852 4.54563 13.761 4.27993 13.784 3.94618C13.7921 3.82913 13.8525 3.44702 14.2896 3.44702C14.2963 3.44702 14.3032 3.44702 14.3099 3.44728C14.4552 3.45111 14.5753 3.5193 14.6571 3.64454C14.7366 3.76632 14.7778 3.93505 14.776 4.13244C14.7736 4.37818 14.7937 4.66882 14.828 4.89077C14.8827 5.24371 14.9746 5.54574 15.072 5.86542C15.1051 5.97416 15.1394 6.0866 15.1728 6.20327C15.2489 6.46897 15.3293 6.73812 15.4071 6.99845C15.4515 7.14735 15.496 7.29625 15.5399 7.44541C15.7826 8.26873 15.7956 9.20641 15.5758 10.0178C15.3256 10.9416 14.783 11.7031 14.1245 12.055C13.8667 12.1928 13.5694 12.2657 13.2651 12.2657L13.2648 12.2658Z" fill="white"/>
</svg>
