<svg
  width="16"
  height="16"
  viewBox="0 0 16 16"
  fill="none"
  xmlns="http://www.w3.org/2000/svg"
>
  <path
    d="M1.4375 4.86307V11.1351C1.4375 11.5383 1.6487 11.9031 2.0007 12.1079L7.4343 15.2439C7.7799 15.4423 8.2087 15.4423 8.5543 15.2439L13.9879 12.1079C14.3335 11.9095 14.5511 11.5383 14.5511 11.1351V4.86307C14.5511 4.45987 14.3399 4.09507 13.9879 3.89027L8.5543 0.754269C8.2087 0.555869 7.7799 0.555869 7.4343 0.754269L2.0007 3.89027C1.6551 4.08867 1.4439 4.45987 1.4439 4.86307H1.4375Z"
    fill="#213147"
  />
  <path
    d="M9.17942 9.21531L8.40502 11.3401C8.38583 11.3977 8.38583 11.4617 8.40502 11.5257L9.73622 15.1801L11.2786 14.2905L9.42902 9.21531C9.38422 9.10011 9.22422 9.10011 9.17942 9.21531Z"
    fill="#12AAFF"
  />
  <path
    d="M10.7415 5.64499C10.6967 5.52979 10.5367 5.52979 10.4919 5.64499L9.71753 7.76979C9.69832 7.82739 9.69832 7.89139 9.71753 7.95539L11.8999 13.9394L13.4423 13.0498L10.7415 5.65139V5.64499Z"
    fill="#12AAFF"
  />
  <path
    d="M7.99745 0.992C8.03585 0.992 8.07425 1.0048 8.10625 1.024L13.9815 4.416C14.0518 4.4544 14.0903 4.5312 14.0903 4.608V11.392C14.0903 11.4688 14.0454 11.5456 13.9815 11.584L8.10625 14.976C8.07425 14.9952 8.03585 15.008 7.99745 15.008C7.95905 15.008 7.92065 14.9952 7.88865 14.976L2.01345 11.584C1.94305 11.5456 1.90465 11.4688 1.90465 11.392V4.6016C1.90465 4.5248 1.94945 4.448 2.01345 4.4096L7.88865 1.0176C7.92065 0.9984 7.95905 0.9856 7.99745 0.9856V0.992ZM7.99745 0C7.78625 0 7.58145 0.0512 7.38945 0.16L1.51425 3.552C1.13665 3.7696 0.90625 4.1664 0.90625 4.6016V11.3856C0.90625 11.8208 1.13665 12.2176 1.51425 12.4352L7.38945 15.8272C7.57505 15.936 7.78625 15.9872 7.99745 15.9872C8.20865 15.9872 8.41345 15.936 8.60545 15.8272L14.4806 12.4352C14.8582 12.2176 15.0886 11.8208 15.0886 11.3856V4.6016C15.0886 4.1664 14.8582 3.7696 14.4806 3.552L8.59905 0.16C8.41345 0.0512 8.20225 0 7.99105 0H7.99745Z"
    fill="#9DCCED"
  />
  <path
    d="M4.10938 13.9457L4.65337 12.4609L5.74137 13.3633L4.72377 14.2977L4.10938 13.9457Z"
    fill="#213147"
  />
  <path
    d="M7.4969 4.12163H6.0057C5.8969 4.12163 5.7945 4.19203 5.7561 4.29443L2.5625 13.0496L4.1049 13.9392L7.6249 4.29443C7.6569 4.20483 7.5929 4.11523 7.5033 4.11523L7.4969 4.12163Z"
    fill="white"
  />
  <path
    d="M10.1076 4.12163H8.61635C8.50755 4.12163 8.40515 4.19203 8.36675 4.29443L4.71875 14.2912L6.26115 15.1808L10.2292 4.29443C10.2612 4.20483 10.1972 4.11523 10.1076 4.11523V4.12163Z"
    fill="white"
  />
</svg>
