<svg
  width="71"
  height="18"
  viewBox="0 0 71 18"
  fill="none"
  xmlns="http://www.w3.org/2000/svg"
>
  <g clip-path="url(#clip0_6257_8444)">
    <path
      d="M23.7273 13.1587C22.7367 13.1587 21.951 12.8854 21.3789 12.3304C20.7982 11.7753 20.5078 10.9896 20.5078 9.96487V8.04343C20.5078 7.01867 20.7982 6.22447 21.3789 5.67793C21.9596 5.12285 22.7367 4.84958 23.7273 4.84958C24.7094 4.84958 25.4694 5.11431 26.0074 5.65231C26.5454 6.19031 26.8101 6.92473 26.8101 7.8641V7.93241H25.3242V7.8214C25.3242 7.35171 25.1961 6.95889 24.9314 6.66C24.6667 6.35257 24.2653 6.20739 23.7273 6.20739C23.1978 6.20739 22.7794 6.36965 22.4719 6.69416C22.1645 7.01867 22.0193 7.46273 22.0193 8.02635V9.99048C22.0193 10.5456 22.1731 10.9896 22.4719 11.3227C22.7794 11.6557 23.1978 11.818 23.7273 11.818C24.2653 11.818 24.6667 11.6643 24.9314 11.3568C25.1961 11.0494 25.3242 10.6651 25.3242 10.1954V9.99048H26.8101V10.1527C26.8101 11.0921 26.5454 11.8265 26.0074 12.3645C25.4694 12.8854 24.7094 13.1587 23.7273 13.1587Z"
      fill="#FAFAFA"
    />
    <path
      d="M27.4072 12.9964L29.508 5.00328H32.1297L34.2305 12.9964H32.6762L32.2407 11.2373H29.3884L28.9529 12.9964H27.4072ZM29.7471 9.8453H31.8906L30.917 5.95119H30.7121L29.7471 9.8453Z"
      fill="#FAFAFA"
    />
    <path
      d="M35.1875 12.9964V5.00328H37.98L39.3634 11.9631H39.5684L40.9518 5.00328H43.7443V12.9964H42.284V6.11344H42.079L40.7127 12.9964H38.2276L36.8613 6.11344H36.6563V12.9964H35.1875Z"
      fill="#FAFAFA"
    />
    <path
      d="M45.2559 12.9964V5.00328H50.3882V6.36963H46.7588V8.27399H50.0723V9.64034H46.7588V11.613H50.4565V12.9794H45.2559V12.9964Z"
      fill="#FAFAFA"
    />
    <path
      d="M51.584 12.9965V5.00329H53.087V11.6216H56.742V12.9879H51.584V12.9965Z"
      fill="#FAFAFA"
    />
    <path
      d="M60.6013 13.1586C59.5936 13.1586 58.7994 12.8853 58.2016 12.3303C57.6038 11.7752 57.3135 10.9895 57.3135 9.96477V8.04333C57.3135 7.01857 57.6124 6.22437 58.2016 5.67783C58.7994 5.12275 59.5936 4.84948 60.6013 4.84948C61.609 4.84948 62.4031 5.12275 63.0009 5.67783C63.5987 6.23291 63.8891 7.01857 63.8891 8.04333V9.96477C63.8891 10.9895 63.5902 11.7837 63.0009 12.3303C62.4031 12.8768 61.6004 13.1586 60.6013 13.1586ZM60.6013 11.8093C61.1649 11.8093 61.6004 11.6471 61.9164 11.3226C62.2323 10.9981 62.3861 10.554 62.3861 10.0075V7.99209C62.3861 7.44555 62.2323 7.01003 61.9164 6.67698C61.6004 6.35247 61.1649 6.19021 60.6013 6.19021C60.0462 6.19021 59.6107 6.35247 59.2947 6.67698C58.9787 7.00149 58.825 7.44555 58.825 7.99209V9.99892C58.825 10.5455 58.9787 10.981 59.2947 11.314C59.6021 11.6471 60.0462 11.8093 60.6013 11.8093Z"
      fill="#FAFAFA"
    />
    <path
      d="M66.7415 12.9965V6.37818H64.4102V5.01183H70.5758V6.37818H68.2445V12.9965H66.7415Z"
      fill="#FAFAFA"
    />
    <path
      d="M10.5746 17.5397V10.5201C12.2484 10.6994 13.3842 11.468 13.3842 11.468L14.4516 10.2639C12.701 9.0171 10.1049 8.96586 10.1049 8.96586L9.67793 4.25194C9.95974 4.06407 10.1476 3.7481 10.1476 3.38089C10.1476 2.80873 9.67793 2.33905 9.10577 2.33905C8.53361 2.33905 8.06392 2.80873 8.06392 3.38089C8.06392 3.7481 8.25179 4.07261 8.53361 4.25194L8.10662 8.96586C8.10662 8.96586 5.51055 9.00856 3.75991 10.2639L4.82737 11.468C4.82737 11.468 5.96315 10.6994 7.63694 10.5201V17.5397C1.09552 12.6892 0.557516 5.64392 0.574595 3.30404C0.574595 2.81727 0.864945 2.37321 1.30901 2.17679C2.61559 1.59609 5.59595 0.460312 9.09723 0.460312C12.5985 0.460312 15.5789 1.59609 16.8854 2.17679C17.3295 2.37321 17.6199 2.81727 17.6199 3.30404C17.6369 5.64392 17.0989 12.6892 10.5746 17.5397Z"
      fill="#FFAF1D"
    />
  </g>
  <defs>
    <clipPath id="clip0_6257_8444">
      <rect
        width="70"
        height="17.0794"
        fill="white"
        transform="translate(0.575195 0.460258)"
      />
    </clipPath>
  </defs>
</svg>
