<svg
  width="22"
  height="21"
  viewBox="0 0 22 21"
  fill="none"
  xmlns="http://www.w3.org/2000/svg"
>
  <path
    d="M18.9674 12.7574C18.5978 12.9705 18.1666 13.0093 17.8381 12.8349C17.4274 12.6023 17.181 12.0791 17.181 11.362V9.17208C17.181 8.12557 16.7498 7.36975 16.0106 7.17595C14.758 6.82712 13.8134 8.28061 13.4643 8.82324L11.2467 12.176V8.04805C11.2261 7.09844 10.8976 6.53642 10.2816 6.362C9.8709 6.24573 9.25488 6.30387 8.6594 7.15658L3.71072 14.6372C3.05363 13.455 2.70455 12.1372 2.70455 10.8C2.70455 6.28448 6.5444 2.62169 11.2467 2.62169C15.9489 2.62169 19.7888 6.28448 19.7888 10.8V10.8194V10.8387C19.8299 11.7108 19.5424 12.4085 18.9674 12.7574ZM21.6779 10.8V10.7806V10.7612C21.6574 5.27673 16.9756 0.799988 11.2467 0.799988C5.49717 0.799988 0.81543 5.27673 0.81543 10.8C0.81543 16.3039 5.49717 20.8 11.2467 20.8C13.8956 20.8 16.4007 19.8504 18.3309 18.1256C18.721 17.7767 18.7416 17.2147 18.372 16.8465C18.0229 16.4783 17.4274 16.4589 17.0372 16.7884C17.0372 16.7884 17.0372 16.7884 17.0167 16.8077C15.4561 18.2031 13.3617 18.9977 11.2056 18.9977C8.67993 18.9977 6.4212 17.9511 4.86062 16.2845L9.31648 9.5403V12.6605C9.31648 14.1527 9.9325 14.6372 10.4459 14.7729C10.9592 14.9085 11.7395 14.8116 12.5814 13.5519L15.0249 9.81161C15.1071 9.69534 15.1687 9.57905 15.2508 9.50154V11.4008C15.2508 12.7961 15.8463 13.9201 16.873 14.4628C17.797 14.9667 18.9674 14.9085 19.9325 14.3465C21.1235 13.6101 21.7601 12.331 21.6779 10.8Z"
    fill="white"
  />
</svg>
