<svg
  width="65"
  height="16"
  viewBox="0 0 65 16"
  fill="none"
  xmlns="http://www.w3.org/2000/svg"
>
  <g id="Group 9004">
    <path
      id="Vector"
      d="M39.6068 3.41052H37.9176V5.22778H36.9063V6.82223H37.9176V10.994C37.9062 11.3598 37.9597 11.7247 38.0756 12.0717C38.1715 12.3304 38.3294 12.5616 38.5355 12.7449C38.7337 12.9258 38.9712 13.0583 39.2292 13.1321C39.8148 13.2743 40.426 13.2743 41.0116 13.1321C41.2443 13.0707 41.4687 12.9816 41.6801 12.8666V11.5835C41.3637 11.7169 41.0247 11.7888 40.6814 11.7952C40.5395 11.8113 40.3958 11.7959 40.2606 11.75C40.1253 11.7041 40.0019 11.6289 39.8992 11.5297C39.7048 11.3464 39.6021 11.1062 39.6021 10.7017V6.82223H41.6801V5.22778H39.6068V3.41052ZM34.2926 5.79351C33.6779 5.34346 32.9505 5.0725 32.1911 5.01067C31.4318 4.94885 30.6701 5.09857 29.9906 5.44324C29.3112 5.78791 28.7405 6.31405 28.3418 6.96331C27.9431 7.61257 27.7321 8.35957 27.7321 9.12146C27.7321 9.88335 27.9431 10.6304 28.3418 11.2796C28.7405 11.9289 29.3112 12.455 29.9906 12.7997C30.6701 13.1444 31.4318 13.2941 32.1911 13.2323C32.9505 13.1704 33.6779 12.8995 34.2926 12.4494V13.0199H35.9819V5.22146H34.2926V5.79351ZM31.856 11.5503C31.374 11.5503 30.9028 11.4073 30.5021 11.1395C30.1013 10.8717 29.789 10.491 29.6046 10.0457C29.4203 9.60034 29.3721 9.11032 29.4662 8.6376C29.5604 8.16488 29.7926 7.73071 30.1335 7.38999C30.4745 7.04927 30.9088 6.81732 31.3816 6.72348C31.8543 6.62964 32.3443 6.67812 32.7895 6.86279C33.2348 7.04746 33.6152 7.36003 33.8828 7.76095C34.1503 8.16187 34.2929 8.63314 34.2926 9.11514C34.2926 9.43506 34.2296 9.75185 34.1071 10.0474C33.9846 10.3429 33.8051 10.6115 33.5789 10.8376C33.3526 11.0637 33.0839 11.2431 32.7883 11.3654C32.4927 11.4876 32.1759 11.5505 31.856 11.5503ZM22.5992 7.5997V9.48018H25.1417C24.9837 10.1483 24.6006 10.7417 24.0568 11.1607C23.5129 11.5796 22.8414 11.7987 22.1551 11.781C21.6132 11.7799 21.0801 11.6429 20.6047 11.3826C20.1294 11.1222 19.7269 10.7468 19.4341 10.2907C19.1414 9.83461 18.9677 9.31236 18.9289 8.77175C18.8901 8.23115 18.9876 7.68946 19.2123 7.19624C19.437 6.70303 19.7818 6.27404 20.2151 5.94853C20.6484 5.62302 21.1565 5.41138 21.6928 5.33298C22.2291 5.25459 22.7764 5.31193 23.2848 5.49978C23.7932 5.68762 24.2464 5.99996 24.6029 6.40821L26.0582 5.21988C25.5021 4.56431 24.7898 4.05933 23.9871 3.75153C23.1845 3.44372 22.3172 3.34299 21.4653 3.45864C20.6135 3.57428 19.8044 3.90257 19.1128 4.41323C18.4213 4.92389 17.8694 5.60047 17.5081 6.38058C17.1469 7.16069 16.9879 8.01921 17.0458 8.87695C17.1037 9.73469 17.3767 10.564 17.8395 11.2885C18.3024 12.013 18.9402 12.6092 19.6941 13.0223C20.4481 13.4353 21.2939 13.6519 22.1536 13.652C22.8131 13.664 23.4682 13.5427 24.0797 13.2953C24.6912 13.0479 25.2465 12.6796 25.7122 12.2124C26.5001 11.3966 26.9896 10.3387 27.1012 9.20996C27.147 8.67179 27.1549 8.13108 27.1249 7.5918L22.5992 7.5997ZM60.5998 4.99549C59.7837 4.99549 58.986 5.23747 58.3075 5.69084C57.629 6.14421 57.1002 6.7886 56.7879 7.54252C56.4757 8.29644 56.394 9.12604 56.5532 9.9264C56.7123 10.7268 57.1053 11.4619 57.6823 12.039C58.2593 12.616 58.9945 13.009 59.7948 13.1682C60.5952 13.3274 61.4248 13.2457 62.1787 12.9334C62.9326 12.6211 63.577 12.0922 64.0303 11.4137C64.4837 10.7352 64.7257 9.9375 64.7257 9.12146C64.7265 8.5791 64.6204 8.0419 64.4134 7.54058C64.2064 7.03926 63.9027 6.58368 63.5195 6.19987C63.1362 5.81607 62.6811 5.51159 62.1801 5.30384C61.6791 5.0961 61.1421 4.98917 60.5998 4.98917V4.99549ZM60.5998 11.5566C60.1178 11.5566 59.6466 11.4136 59.2459 11.1458C58.8451 10.878 58.5328 10.4973 58.3484 10.052C58.1641 9.60666 58.1159 9.11664 58.21 8.64392C58.3042 8.1712 58.5364 7.73703 58.8773 7.39631C59.2183 7.05559 59.6526 6.82364 60.1254 6.7298C60.5981 6.63596 61.0881 6.68444 61.5333 6.86911C61.9785 7.05378 62.359 7.36635 62.6265 7.76727C62.8941 8.16819 63.0367 8.63946 63.0364 9.12146C63.0348 9.76648 62.7772 10.3845 62.3204 10.8398C61.8636 11.2952 61.2448 11.5507 60.5998 11.5503V11.5566ZM53.7101 13.0262H55.5273V6.02738H53.7101V13.0262ZM50.9337 13.0262H52.7509V11.2026H50.9337V13.0262ZM46.329 4.99549C45.6 4.99479 44.8839 5.18724 44.2534 5.55327C43.623 5.9193 43.1008 6.44582 42.74 7.07926C42.3792 7.7127 42.1926 8.43042 42.1993 9.15939C42.206 9.88836 42.4057 10.6025 42.7781 11.2292C43.1505 11.8559 43.6823 12.3728 44.3194 12.7271C44.9564 13.0815 45.676 13.2608 46.4049 13.2467C47.1337 13.2326 47.8458 13.0256 48.4687 12.6468C49.0915 12.2681 49.6029 11.7311 49.9508 11.0904L48.4259 10.3493C48.182 10.7634 47.8211 11.0961 47.3885 11.3056C46.956 11.5151 46.4712 11.592 45.995 11.5266C45.5189 11.4612 45.0727 11.2565 44.7127 10.9382C44.3526 10.6199 44.0947 10.2023 43.9713 9.73775H48.6867H50.4122C50.5022 9.14991 50.464 8.54957 50.3004 7.97784C50.1367 7.40611 49.8515 6.87649 49.4642 6.42524C49.0769 5.97399 48.5966 5.61176 48.0563 5.36335C47.516 5.11495 46.9284 4.98623 46.3337 4.98601L46.329 4.99549ZM44.0488 8.26182C44.223 7.79807 44.5346 7.39852 44.9419 7.11648C45.3492 6.83444 45.8328 6.68333 46.3282 6.68333C46.8236 6.68333 47.3072 6.83444 47.7145 7.11648C48.1218 7.39852 48.4334 7.79807 48.6076 8.26182H44.0488ZM53.7101 5.2341H55.5273V3.41684H53.7101V5.2341Z"
      fill="white"
    />
    <path
      id="Vector_2"
      d="M8.05139 12.2296C6.9827 12.2296 5.95778 11.805 5.2021 11.0493C4.44642 10.2936 4.02188 9.26868 4.02188 8.19997C4.02188 7.13126 4.44642 6.10632 5.2021 5.35063C5.95778 4.59494 6.9827 4.17039 8.05139 4.17039V0.874039C6.60248 0.874039 5.18611 1.3037 3.98139 2.10868C2.77667 2.91366 1.8377 4.05782 1.28323 5.39646C0.72876 6.7351 0.583685 8.2081 0.866352 9.62919C1.14902 11.0503 1.84674 12.3556 2.87127 13.3802C3.8958 14.4047 5.20113 15.1025 6.62219 15.3851C8.04326 15.6678 9.51623 15.5227 10.8548 14.9683C12.1935 14.4138 13.3376 13.4748 14.1426 12.27C14.9475 11.0653 15.3772 9.64891 15.3772 8.19997H12.0809C12.0809 9.26868 11.6564 10.2936 10.9007 11.0493C10.145 11.805 9.12008 12.2296 8.05139 12.2296Z"
      fill="#2354E6"
    />
    <path
      id="Vector_3"
      d="M12.0783 4.17043H8.04883V8.20001H12.0783V4.17043Z"
      fill="#17E6A1"
    />
  </g>
</svg>
