<svg
  width="65"
  height="16"
  viewBox="0 0 65 16"
  fill="none"
  xmlns="http://www.w3.org/2000/svg"
>
  <g clip-path="url(#clip0_6257_8434)">
    <path
      d="M50.9277 8.45408C50.9277 8.07166 50.9277 7.71756 50.9135 7.39174C50.8994 7.06597 50.871 6.75436 50.8286 6.48524C50.7861 6.20197 50.7011 5.94696 50.5736 5.69202C50.4603 5.43706 50.2761 5.21043 50.0637 4.9838C49.752 4.67218 49.4121 4.44555 49.0297 4.27558C48.6472 4.11977 48.2081 4.02061 47.7124 4.02061C47.2166 4.02061 46.7775 4.1056 46.3951 4.27558C46.0127 4.43138 45.6585 4.67218 45.3469 4.9838C45.1203 5.21043 44.9645 5.43706 44.8512 5.69202C44.7379 5.94696 44.6387 6.20197 44.5962 6.48524C44.5537 6.76852 44.5254 7.06597 44.5112 7.39174C44.4971 7.71756 44.4971 8.07166 44.4971 8.45408C44.4971 8.83651 44.4971 9.1765 44.5112 9.51643C44.5254 9.8422 44.5537 10.1538 44.5962 10.4229C44.6387 10.7063 44.7237 10.9612 44.8512 11.2162C44.9645 11.4711 45.1486 11.6977 45.3469 11.9244C45.6585 12.236 45.9985 12.4626 46.3951 12.6326C46.7775 12.7884 47.2166 12.8876 47.7124 12.8876C48.2081 12.8876 48.633 12.8026 49.0297 12.6326C49.4121 12.4768 49.7662 12.236 50.0637 11.9244C50.2903 11.6977 50.4461 11.4711 50.5736 11.2162C50.6869 10.9612 50.7861 10.7063 50.8286 10.4229C50.871 10.1396 50.9135 9.8422 50.9135 9.51643C50.9277 9.16233 50.9277 8.83651 50.9277 8.45408ZM49.2421 8.45408C49.2421 8.86484 49.2421 9.21899 49.228 9.50227C49.2138 9.78555 49.1997 9.99801 49.1572 10.1821C49.1288 10.3521 49.0863 10.5079 49.0297 10.6071C48.973 10.7204 48.9164 10.8337 48.8172 10.9187C48.7039 11.0604 48.5339 11.1737 48.3639 11.2586C48.1798 11.3436 47.9673 11.372 47.7266 11.3861C47.4858 11.3861 47.2874 11.3436 47.0891 11.2586C46.905 11.1737 46.7492 11.0745 46.6217 10.9187C46.5367 10.8337 46.4801 10.7346 46.4093 10.6071C46.3526 10.4937 46.3101 10.3521 46.2818 10.1821C46.2535 10.0122 46.2251 9.78555 46.2251 9.50227C46.211 9.21899 46.211 8.879 46.211 8.45408C46.211 8.04333 46.211 7.68923 46.2251 7.4059C46.2393 7.12262 46.2535 6.91016 46.2818 6.72603C46.3101 6.5419 46.3526 6.40026 46.4093 6.30111C46.4659 6.1878 46.5226 6.07444 46.6217 5.98945C46.735 5.84781 46.905 5.73451 47.0891 5.64953C47.2733 5.56454 47.4858 5.53621 47.7266 5.52205C47.9673 5.52205 48.1656 5.56454 48.3639 5.64953C48.5339 5.73451 48.7039 5.83367 48.8172 5.98945C48.9022 6.07444 48.9589 6.17364 49.0297 6.30111C49.0863 6.41442 49.1288 6.55606 49.1572 6.72603C49.1855 6.896 49.2138 7.12262 49.228 7.4059C49.228 7.68923 49.2421 8.04333 49.2421 8.45408Z"
      fill="#01BC8D"
    />
    <path
      d="M64.4559 4.24722C64.4559 4.16224 64.3851 4.10558 64.3143 4.10558H62.9257C62.8407 4.10558 62.784 4.1764 62.784 4.24722V9.43142L59.3705 4.14807C59.3422 4.11974 59.328 4.10558 59.2855 4.10558H57.9825C57.9116 4.10558 57.8408 4.1764 57.8408 4.24722C57.8408 7.05177 57.8408 9.85634 57.8408 12.6326C57.8408 12.7176 57.9116 12.7742 57.9825 12.7742H59.3705C59.4555 12.7742 59.5122 12.7034 59.5122 12.6326V7.4342L62.9257 12.7317C62.954 12.7601 62.9682 12.7742 63.0107 12.7742H64.3143C64.3992 12.7742 64.4559 12.7034 64.4559 12.6326V4.24722Z"
      fill="#01BC8D"
    />
    <path
      d="M55.0639 4.2473C55.0639 4.16231 54.9931 4.10565 54.9223 4.10565H53.5342C53.4492 4.10565 53.3926 4.17648 53.3926 4.2473V12.6327C53.3926 12.7176 53.4634 12.7743 53.5342 12.7743H54.9223C55.0073 12.7743 55.0639 12.7035 55.0639 12.6327V4.2473Z"
      fill="#01BC8D"
    />
    <path
      d="M38.3213 8.45416C38.3213 8.04341 38.3213 7.68931 38.3355 7.40598C38.3496 7.1227 38.3638 6.91024 38.3921 6.72611C38.5196 5.97537 39.1004 5.53629 39.8369 5.53629C40.3185 5.53629 40.7434 5.70626 41.0267 6.11701C41.14 6.28703 41.2392 6.49948 41.2958 6.74027C41.2958 6.7686 41.31 6.78276 41.3383 6.78276H42.9814C43.0097 6.78276 43.0097 6.7686 43.0097 6.74027C42.8398 5.73459 42.2874 4.79974 41.3242 4.34648C40.8851 4.13401 40.3751 4.02069 39.8086 4.02069C38.8879 4.02069 38.0947 4.34648 37.4573 4.96971C37.089 5.33799 36.8624 5.77708 36.7491 6.27286C36.6499 6.75444 36.6074 7.4768 36.6074 8.42583C36.6074 9.37487 36.6499 10.0972 36.7491 10.5788C36.8482 11.0746 37.1032 11.5137 37.4573 11.8819C38.0947 12.5194 38.8737 12.831 39.8086 12.831C40.361 12.831 40.8709 12.7318 41.3242 12.5052C42.2732 12.052 42.8398 11.1454 43.0097 10.1114C43.0097 10.0831 43.0097 10.0689 42.9814 10.0689H41.3383C41.31 10.0689 41.2958 10.0831 41.2958 10.1114C41.2392 10.3522 41.1542 10.5505 41.0267 10.7347C40.7434 11.1312 40.3185 11.3012 39.8369 11.3154C39.1004 11.3154 38.5338 10.8763 38.3921 10.1256C38.3638 9.95559 38.3355 9.72897 38.3355 9.44569C38.3213 9.21906 38.3213 8.86491 38.3213 8.45416Z"
      fill="#01BC8D"
    />
    <path
      d="M20.9273 4.2473C20.9273 4.16231 20.8564 4.10565 20.7856 4.10565H19.3975C19.3125 4.10565 19.2559 4.17648 19.2559 4.2473V12.6326C19.2559 12.7176 19.3267 12.7743 19.3975 12.7743H20.7856C20.8706 12.7743 20.9273 12.7035 20.9273 12.6326V10.168L22.0604 8.82239L24.3692 12.746C24.3834 12.7743 24.4117 12.7885 24.4542 12.7885H26.154C26.2248 12.7885 26.2389 12.746 26.2106 12.6751L23.1936 7.56175L25.9698 4.23313C26.0265 4.16231 25.9982 4.10565 25.9132 4.10565H24.0434C24.0151 4.10565 24.0009 4.10565 23.9868 4.13398L20.9273 7.77426V4.2473Z"
      fill="#01BC8D"
    />
    <path
      d="M31.126 11.3578C30.3327 11.3578 29.6245 10.6212 29.6245 9.75715V4.26138C29.6245 4.17639 29.5537 4.11974 29.4828 4.11974H28.0948C28.0098 4.11974 27.9531 4.19056 27.9531 4.26138V9.74299C27.9531 11.6694 29.3978 12.8875 31.1543 12.8875C32.9107 12.8875 34.3554 11.6694 34.3554 9.74299V4.26138C34.3554 4.17639 34.2846 4.11974 34.2138 4.11974H32.8257C32.7407 4.11974 32.684 4.19056 32.684 4.26138V9.75715C32.6132 10.6212 31.905 11.3578 31.126 11.3578Z"
      fill="#01BC8D"
    />
    <path
      d="M5.14825 8.45408L9.49674 12.8026L12.2446 10.0547C12.7262 9.57308 13.5194 9.57308 14.001 10.0547C14.4826 10.5362 14.4826 11.3295 14.001 11.811L10.3749 15.4372C9.89333 15.9187 9.1001 15.9187 8.61852 15.4372L3.40602 10.2105V13.3266C3.40602 14.0065 2.85361 14.5731 2.15956 14.5731C1.4655 14.5731 0.913086 14.0207 0.913086 13.3266V3.60983C0.913086 2.91577 1.4655 2.36335 2.15956 2.36335C2.85361 2.36335 3.40602 2.91577 3.40602 3.60983V6.6977L8.63269 1.471C9.11426 0.989404 9.9075 0.989404 10.3891 1.471L14.0152 5.09709C14.4968 5.57868 14.4968 6.37187 14.0152 6.8535C13.5336 7.33507 12.7404 7.33507 12.2588 6.8535L9.51091 4.10558L5.14825 8.45408ZM9.51091 7.2076C8.81682 7.2076 8.26443 7.75999 8.26443 8.45408C8.26443 9.14811 8.81682 9.70056 9.51091 9.70056C10.2049 9.70056 10.7573 9.14811 10.7573 8.45408C10.7432 7.75999 10.1908 7.2076 9.51091 7.2076Z"
      fill="#01BC8D"
    />
  </g>
  <defs>
    <clipPath id="clip0_6257_8434">
      <rect
        width="64"
        height="15.2131"
        fill="white"
        transform="translate(0.575195 0.593418)"
      />
    </clipPath>
  </defs>
</svg>
