<svg
  width="71"
  height="14"
  viewBox="0 0 71 14"
  fill="none"
  xmlns="http://www.w3.org/2000/svg"
>
  <g clip-path="url(#clip0_6257_8429)">
    <path
      d="M18.9893 3.38272L22.6898 13.4069H25.2736L28.9742 3.38272H26.7433L24.0223 11.1354L21.2614 3.38272H18.9893ZM29.3845 5.7123C28.9735 6.49582 28.7761 7.39629 28.7761 8.41641C28.7761 9.43654 28.9722 10.335 29.4028 11.0989C29.8141 11.8624 30.4402 12.4886 31.2037 12.8998C31.9866 13.3305 32.8877 13.5266 33.945 13.5266C35.1389 13.5266 36.1374 13.2129 36.9405 12.5476C37.7429 11.9014 38.2324 11.0604 38.4278 10.0416H36.3131C36.1563 10.6094 35.8629 11.0401 35.4343 11.3531C34.9834 11.6661 34.4358 11.8034 33.7895 11.8034C32.9675 11.8034 32.3023 11.5492 31.8122 11.0401C31.3031 10.5311 31.0286 9.84556 30.9901 8.9647V8.84705H38.5467C38.5858 8.58135 38.6055 8.31315 38.6055 8.0446C38.5859 7.08531 38.371 6.24303 37.9403 5.519C37.5234 4.81455 36.9204 4.23865 36.1975 3.85461C35.4539 3.46319 34.6116 3.26712 33.6523 3.26712C32.693 3.26712 31.8514 3.48281 31.1071 3.91344C30.3695 4.33284 29.77 4.95788 29.3818 5.7123H29.3845ZM36.4524 7.29826H31.0678C31.1463 6.59384 31.4207 6.04562 31.9298 5.61499C32.4297 5.18467 33.0712 4.95444 33.7307 4.96867C34.4743 4.96867 35.0828 5.18368 35.5709 5.59538C36.059 6.00709 36.3517 6.57424 36.4497 7.29826H36.4524ZM45.0724 3.38272H44.5992C43.8164 3.38272 43.2093 3.51793 42.7591 3.79375C42.2967 4.05431 41.9116 4.43268 41.6429 4.89031L41.4084 3.38272H39.5283V13.4096H41.6429V8.37792C41.6429 7.51667 41.839 6.79194 42.2304 6.22408C42.6218 5.65621 43.2485 5.3628 44.1294 5.3628H45.069L45.0724 3.38272ZM45.9702 0.583275V10.6852C45.9702 11.6249 46.1854 12.3102 46.6158 12.741C47.0464 13.1912 47.7319 13.4069 48.6912 13.4069H50.7274V11.5471H49.1218C48.7304 11.5471 48.4762 11.4687 48.3194 11.3118C48.1625 11.155 48.0841 10.8616 48.0841 10.4702V5.24252H50.5117V3.38272H48.0841V0.583275H45.9702ZM51.5244 5.7123C51.1141 6.49582 50.916 7.39629 50.916 8.41641C50.916 9.43654 51.1121 10.335 51.5427 11.0989C51.954 11.8624 52.5801 12.4886 53.3436 12.8998C54.1265 13.3305 55.0269 13.5266 56.0842 13.5266C57.2788 13.5266 58.2773 13.2129 59.0797 12.5476C59.8828 11.9014 60.3723 11.0604 60.567 10.0416H58.453C58.2962 10.6094 58.0028 11.0401 57.5742 11.3531C57.1246 11.6661 56.5757 11.8034 55.9301 11.8034C55.1081 11.8034 54.4428 11.5492 53.9527 11.0401C53.443 10.5311 53.1692 9.84556 53.1307 8.9647V8.84705H60.688C60.7265 8.5813 60.7459 8.31312 60.7461 8.0446C60.7265 7.08531 60.5109 6.24303 60.0802 5.519C59.6628 4.8133 59.0585 4.2366 58.3341 3.85257C57.5904 3.46115 56.7481 3.26514 55.7888 3.26514C54.8295 3.26514 53.9879 3.48076 53.2436 3.91139C52.5072 4.33214 51.909 4.9578 51.5217 5.7123H51.5244ZM58.5923 7.29826H53.2084C53.2868 6.59384 53.5613 6.04562 54.0697 5.61499C54.57 5.18479 55.2116 4.95459 55.8713 4.96867C56.6149 4.96867 57.2233 5.18368 57.7121 5.59538C58.2009 6.00709 58.4916 6.57424 58.5896 7.29826H58.5923ZM64.0911 8.27718L60.3317 13.4069H62.6221L65.285 9.7651L67.9282 13.4069H70.3951L66.6161 8.27718L70.1794 3.38272H67.866L65.4188 6.76965L63.0101 3.38272H60.5433L64.0911 8.27718Z"
      fill="white"
    />
    <g clip-path="url(#clip1_6257_8429)">
      <path
        d="M9.07304 12.0212C8.97727 12.3594 8.77678 12.6585 8.50037 12.8755C8.22336 13.092 7.88491 13.2151 7.53358 13.2272H5.19238L0.425781 3.2608H5.18632L7.56726 8.24637C7.56726 8.24637 9.3048 11.202 9.07304 12.0212Z"
        fill="#CDADEF"
      />
      <path
        d="M9.07346 12.0212C9.30522 11.202 7.56836 8.24838 7.56836 8.24838H10.1427L9.07346 12.0212Z"
        fill="url(#paint0_linear_6257_8429)"
      />
      <path
        d="M10.1426 8.24839H14.7913V3.26283H12.9345C12.5818 3.26302 12.2383 3.37532 11.9536 3.58352C11.6688 3.79207 11.4579 4.08585 11.3512 4.42231L10.1426 8.24839Z"
        fill="#CDADEF"
      />
    </g>
  </g>
  <defs>
    <linearGradient
      id="paint0_linear_6257_8429"
      x1="8.93063"
      y1="7.98428"
      x2="7.81898"
      y2="11.9256"
      gradientUnits="userSpaceOnUse"
    >
      <stop stop-color="#CDADEF" />
      <stop offset="1" stop-color="#8458B3" />
    </linearGradient>
    <clipPath id="clip0_6257_8429">
      <rect
        width="70"
        height="12.8681"
        fill="white"
        transform="translate(0.425781 0.565903)"
      />
    </clipPath>
    <clipPath id="clip1_6257_8429">
      <rect
        width="14.3652"
        height="9.96641"
        fill="white"
        transform="translate(0.425781 3.2608)"
      />
    </clipPath>
  </defs>
</svg>
