<svg width="31" height="8" fill="none" xmlns="http://www.w3.org/2000/svg">
    <path d="m9.665 3.35 2.167-2.154-.822-.818-1.756 1.746L7.498.378l-.822.818L8.843 3.35a.582.582 0 0 0 .822 0Zm3.137 2.302-1.756-1.746 1.756-1.746-.822-.817-2.167 2.155a.576.576 0 0 0 0 .817L11.98 6.47l.822-.818Zm-3.55.04 1.755 1.745.822-.817-2.167-2.155a.584.584 0 0 0-.822 0L6.673 6.62l.822.817L9.25 5.691Zm-.56-1.374a.576.576 0 0 0 0-.817L6.525 1.346l-.822.817L7.459 3.91 5.703 5.655l.822.818 2.167-2.155ZM5.674 7.154H3.85L3.72 6.33H2.532l-.144.824H.565L2.135.662H4.29l1.383 6.492ZM3.513 4.938l-.115-.757a.7.7 0 0 1-.016-.114 41.859 41.859 0 0 0-.09-.73 40.04 40.04 0 0 0-.055-.51l-.054-.614a4.479 4.479 0 0 1-.023.198l-.032.24a35.724 35.724 0 0 1-.06.483l-.122.786-.178 1.018h.745Zm13.053 2.215v-1.56h-1.514v-.992h1.357V3.134h-1.357v-.946h1.514V.662h-3.277v6.491h3.277Zm3.468-1.56h-1.323V.663h-1.764v6.492h3.087v-1.56Zm5.415 1.56h-1.823l-.13-.823h-1.189l-.144.824H20.34L21.91.662h2.156l1.383 6.491Zm-2.16-2.215-.115-.757a.699.699 0 0 1-.017-.113 41.452 41.452 0 0 0-.089-.732 56.794 56.794 0 0 0-.055-.51l-.055-.612a4.867 4.867 0 0 1-.023.197l-.032.24a35.75 35.75 0 0 1-.059.483l-.123.786-.177 1.018h.744Zm7.183 2.216h-1.907l-.87-2.313a1.648 1.648 0 0 0-.045-.155 15.647 15.647 0 0 0-.078-.231l.012.428v2.27H25.83V.663h1.806c.795 0 1.39.156 1.785.467.501.398.752.964.752 1.698 0 .785-.337 1.328-1.01 1.628l1.31 2.699Zm-2.05-4.306c0-.484-.256-.727-.766-.727h-.063v1.547h.118a.647.647 0 0 0 .508-.231.859.859 0 0 0 .203-.589Z" fill="#FAFAFA"/>
</svg>
