<svg width="731" height="198" fill="none" xmlns="http://www.w3.org/2000/svg">
    <path d="M268.611 173.203V23.57h94.365v19.434H291.32v45.592h61.397v19.361H291.32v45.811h72.538v19.435h-95.247ZM415.591 23.57v149.633h-21.974V23.57h21.974Zm31.632 149.633V60.978h21.975v112.225h-21.975Zm70.952-112.225 24.914 43.692 25.135-43.692h24.032l-35.203 56.112 35.497 56.113h-24.032l-25.429-41.938-25.355 41.938h-24.106l35.13-56.113-34.689-56.112h24.106Zm98.713 112.225V60.978h21.975v112.225h-21.975Zm53.607 0V60.978h21.239v17.827h1.176c2.058-6.04 5.684-10.789 10.877-14.247 5.243-3.507 11.171-5.26 17.786-5.26 1.372 0 2.988.048 4.85.145 1.911.098 3.405.22 4.483.366v20.896c-.882-.244-2.449-.512-4.703-.804a45.144 45.144 0 0 0-6.762-.511c-5.193 0-9.823 1.096-13.89 3.288-4.017 2.143-7.202 5.138-9.554 8.986-2.352 3.8-3.528 8.135-3.528 13.006v68.533h-21.974ZM447.223 44.27V23.59h21.975v20.68h-21.975Zm169.665 0V23.59h21.975v20.68h-21.975Z" fill="#fff"/>
    <path d="M98.507 0C44.069 0 0 44.069 0 98.507s44.069 98.506 98.507 98.506 98.506-44.068 98.506-98.506S152.945 0 98.507 0Zm0 177.87c-43.87 0-79.364-35.494-79.364-79.363 0-7.578 3.789-25.125 30.908-25.125 27.12 0 51.247 26.321 83.751 30.11 10.967 1.396 19.741 1.196 26.321.399 9.572-1.197 17.349 7.976 14.557 17.348-9.771 32.703-40.081 56.631-76.173 56.631Z" fill="url(#a)"/>
    <defs>
        <linearGradient id="a" x1="-37.5" y1="99" x2="91.001" y2="231" gradientUnits="userSpaceOnUse">
            <stop stop-color="#FFE480"/>
            <stop offset=".458" stop-color="#FF43C3"/>
            <stop offset=".98" stop-color="#4156E0"/>
        </linearGradient>
    </defs>
</svg>
