<svg width="346" height="61" fill="none" xmlns="http://www.w3.org/2000/svg">
    <path d="M9.403 0 0 10.344h61.122L44.196 34.793h-8.463l3.761 6.582-4.701 6.583L21.628 28.21h15.986l7.523-10.344H1.88l27.27 42.316h11.284l33.852-49.838L63.943 0H9.403Z" fill="#C6FF35"/>
    <path fill-rule="evenodd" clip-rule="evenodd" d="M121.682 40.174c0-2.31-1.54-4.105-3.592-4.618l-14.111-3.592c-5.644-1.54-9.493-6.158-9.493-12.315 0-3.08 1.026-6.414 3.335-8.723 2.566-2.823 5.901-3.849 9.493-3.849h20.269v7.954h-19.756c-2.565 0-4.618 1.795-4.618 4.361 0 2.31 1.283 3.849 3.336 4.362l13.854 3.591c5.901 1.54 9.749 6.415 9.749 12.572 0 3.335-1.026 6.67-3.335 8.98-2.566 2.822-5.901 4.105-9.749 4.105H96.026v-8.21h20.781c2.822 0 4.875-2.053 4.875-4.618ZM250.99 15.03V6.82h-34.123v8.21h12.572v37.971h8.979v-37.97h12.572ZM288.704 53.001v-7.953h-22.321V33.759h19.243v-7.953h-19.243V15.03h22.321V6.82h-31.3v46.181h31.3ZM137.332 6.82h8.98v19.242h7.953l8.98-19.242h9.492l-8.979 19.242h1.026c2.052 0 3.848.77 5.131 2.053 1.283 1.283 2.053 3.079 2.053 5.131v19.499h-8.98V33.503h-16.676v19.242h-8.98V6.82ZM197.88 20.418c-3.849 10.776-7.441 21.808-11.032 32.583h-9.493l16.676-46.18h7.184L218.148 53h-9.493c-3.592-10.775-6.927-21.807-10.775-32.583Z" fill="#fff"/>
    <path d="M306.344 14.266v11.848h17.604v7.63h-17.604V52.82h-8.769V6.636h29.318v7.63h-20.549Zm26.806 3.749h8.233V52.82h-8.233V18.015Zm-.134-11.38h8.434v6.627h-8.434V6.636Z" fill="#fff"/>
</svg>
