<svg width="26" height="14" fill="none" xmlns="http://www.w3.org/2000/svg">
    <path d="M5.884 12.266c-.261 0-.52-.076-.75-.22a1.78 1.78 0 0 1-.591-.645 2.487 2.487 0 0 1-.279-1.42 1.58 1.58 0 0 0-.308-1.104 3.346 3.346 0 0 0-.17-.204c-.108-.122-.22-.249-.288-.396a.602.602 0 0 1-.043-.363.359.359 0 0 1 .194-.268.335.335 0 0 1 .14-.03c.196 0 .391.158.51.306.254.32.416.65.479.98.037.194.046.369.055.537.021.403.04.752.447 1.138.256.243.58.382.89.382.37 0 .711-.185 1.014-.55.258-.31.4-.705.422-1.171a3.5 3.5 0 0 0-.203-1.276c-.24-.698-.704-1.328-1.461-1.982-.093-.08-.19-.16-.283-.238-.294-.245-.598-.499-.846-.793-.372-.442-.62-.875-.738-1.289-.1-.352-.106-.689-.017-1.002.164-.575.625-.97.985-1.093.13-.045.26-.067.383-.067a.98.98 0 0 1 .709.302c.236.235.389.57.429.943l.014.136c.047.452.092.879.301 1.296.02.04.047.087.077.141.125.222.314.556.238.778a.31.31 0 0 1-.185.184.427.427 0 0 1-.17.038c-.173 0-.33-.123-.43-.34-.166-.353-.201-.715-.238-1.097a6.318 6.318 0 0 0-.077-.594c-.044-.225-.178-.36-.359-.36a.439.439 0 0 0-.313.146.547.547 0 0 0-.143.425c.041.51.344.956.665 1.361.553.698.943 1.378 1.355 2.1l.018.031c.261.456.435.901.532 1.36.152.72.107 1.46-.133 2.196-.182.555-.458 1.007-.8 1.307-.31.271-.667.415-1.032.415ZM16.327 3.259a.465.465 0 0 1-.308-.125.664.664 0 0 1-.206-.503c.002-.169.056-.35.161-.539.13-.233.3-.406.49-.502a.792.792 0 0 1 .352-.084c.12 0 .231.03.324.085.208.125.303.39.212.59-.059.13-.16.185-.266.242-.063.035-.128.07-.188.123-.113.098-.121.157-.134.248-.005.03-.01.065-.02.107-.05.214-.219.358-.417.358ZM16.743 12.27a.404.404 0 0 1-.156-.031.426.426 0 0 1-.241-.31.711.711 0 0 1 .035-.429c.08-.191.211-.358.338-.518.123-.156.25-.316.334-.502.33-.735.348-1.562.049-2.329l-.105-.266c-.281-.71-.572-1.442-.574-2.217a3.012 3.012 0 0 1 .609-1.824c.137-.183.366-.379.6-.379.055 0 .107.01.157.032.257.11.312.471.201.74-.05.124-.145.252-.255.401-.427.58-1.072 1.458-.308 3.607a6.8 6.8 0 0 1 .323 1.64c.058.855-.082 1.548-.407 2.003-.126.176-.359.382-.6.382ZM9.553 12.277c-.14 0-.354-.083-.575-.478-.3-.537-.438-1.258-.351-1.838.113-.768.334-1.384.694-1.94.32-.496.712-.882 1.127-1.29.162-.161.33-.327.497-.503.109-.114.46-.505.437-.746a.18.18 0 0 0-.077-.136.143.143 0 0 0-.083-.03c-.085 0-.158.089-.25.2-.092.111-.206.25-.37.35-.17.104-.425.167-.68.167-.226 0-.561-.05-.873-.283-.31-.233-.532-.597-.658-1.083-.156-.6-.146-1.244.028-1.767a2.06 2.06 0 0 1 .473-.798c.237-.243.54-.423.9-.534.119-.036.258-.056.402-.056.236 0 .699.055 1.148.419.437.355.746.904.916 1.633.073.31.144.683.12 1.104-.03.53-.206 1.01-.525 1.425-.208.27-.53.501-.87.745-.414.297-.883.634-1.217 1.101-.384.537-.536 1.168-.465 1.93.044.477.352 1.017.518 1.307.035.062.064.112.079.143.034.069.113.251.118.443.005.22-.09.379-.283.471a.416.416 0 0 1-.18.044Zm.244-9.899a.805.805 0 0 0-.609.305c-.145.177-.235.422-.258.707-.02.231.009.434.084.602.09.203.255.36.443.42.063.02.124.03.183.03a.445.445 0 0 0 .345-.157.601.601 0 0 0 .117-.494c-.026-.146-.022-.23.017-.324a.818.818 0 0 1 .063-.12l.05-.075c.072-.109.147-.222.147-.367 0-.253-.225-.487-.501-.522a.65.65 0 0 0-.081-.005ZM20.549 12.277a1.39 1.39 0 0 1-.403-.056c-.36-.11-.663-.29-.9-.534a2.061 2.061 0 0 1-.473-.798c-.173-.523-.183-1.167-.028-1.767.126-.485.348-.85.658-1.082.313-.235.647-.284.873-.284.256 0 .51.063.681.168.164.1.278.238.37.349.091.112.164.2.25.2.027 0 .055-.01.083-.03a.181.181 0 0 0 .077-.135c.023-.242-.329-.633-.437-.747a21.101 21.101 0 0 0-.498-.502c-.414-.409-.806-.795-1.127-1.29-.36-.557-.58-1.173-.694-1.94-.086-.58.052-1.302.352-1.839.22-.395.434-.478.575-.478.06 0 .12.015.18.044a.47.47 0 0 1 .282.471 1.146 1.146 0 0 1-.118.444 4.088 4.088 0 0 1-.059.111c-.147.274-.453.844-.499 1.337-.07.765.079 1.397.456 1.934.33.469.793.805 1.202 1.102.333.243.648.472.855.741.32.416.496.895.525 1.425.024.42-.047.794-.12 1.104-.17.729-.479 1.278-.916 1.633a1.828 1.828 0 0 1-1.147.419Zm-.554-2.929a.61.61 0 0 0-.183.03.755.755 0 0 0-.444.419 1.232 1.232 0 0 0-.083.602c.023.286.112.53.258.708.157.19.384.304.609.304a.617.617 0 0 0 .08-.005c.277-.035.502-.27.502-.522 0-.145-.075-.258-.148-.367a2.805 2.805 0 0 1-.049-.075.83.83 0 0 1-.063-.12c-.04-.094-.044-.178-.018-.324a.6.6 0 0 0-.117-.493.446.446 0 0 0-.344-.157Z" fill="#fff"/>
    <path d="M13.265 12.266c-.48 0-.927-.181-1.229-.496-.437-.458-.738-1.112-.826-1.795-.098-.753-.096-1.427.005-2.06a1.33 1.33 0 0 1 .204-.536c.118-.17.263-.263.433-.274a.491.491 0 0 1 .44.178c.191.227.223.617.17.883a7.154 7.154 0 0 1-.133.531c-.122.438-.247.891-.159 1.346.063.317.253.639.485.819a.981.981 0 0 0 .596.194c.283 0 .549-.071.79-.212.214-.125.41-.306.581-.538.388-.524.548-1.153.608-1.482a3.692 3.692 0 0 0-.203-2.124c-.13-.326-.362-.708-.586-1.078-.17-.28-.332-.547-.445-.78-.144-.296-.235-.562-.212-.896.008-.117.068-.499.506-.499h.02a.414.414 0 0 1 .347.198c.08.121.12.29.119.487-.002.246.018.537.052.759.055.353.147.655.244.974.033.11.067.222.1.338.077.266.157.535.235.795l.133.447c.243.824.256 1.761.036 2.573-.25.924-.793 1.685-1.452 2.037-.257.138-.555.21-.859.21Z" fill="#fff"/>
</svg>
