<svg width="114" height="134" fill="none" xmlns="http://www.w3.org/2000/svg">
    <mask id="a" style="mask-type:luminance" maskUnits="userSpaceOnUse" x="3" y="2" width="108" height="130">
        <path d="M110.107 21.733 28.945 2.51 3.714 111.919l81.161 19.223 25.232-109.41Z" fill="#fff"/>
    </mask>
    <g mask="url(#a)">
        <path d="M43.773 87.092c1.354-2.93.072-6.417-2.86-7.786-2.937-1.37-6.411-.106-7.766 2.826-1.35 2.93-.072 6.417 2.86 7.787 2.937 1.369 6.411.105 7.766-2.827Z" fill="url(#b)"/>
        <path d="M38.881 86.08c-1.893-.294-3.603-.231-4.853.196l-.053.019c.133.317.297.624.496.91l.09-.041a12.098 12.098 0 0 1 4.326-1.086l-.006.001ZM33.893 82.868a4.586 4.586 0 0 0-.145 2.737l.036-.013c.768-.26 1.685-.4 2.71-.413.904-.012 1.892.078 2.914.263l-5.515-2.574ZM38.933 80.882a11.529 11.529 0 0 0 4.174 5.307c.74-2.258-.374-4.804-2.66-5.872a5.072 5.072 0 0 0-1.857-.47c.098.35.214.698.343 1.035ZM36.86 80.126c.482 1.237 1.542 2.593 2.988 3.863a12.448 12.448 0 0 1-1.587-2.871c-.145-.378-.271-.766-.38-1.158l-.026-.097a4.877 4.877 0 0 0-1.015.207l.02.056ZM35.94 87.388c-.343.117-.682.253-1.006.403.427.455.946.84 1.552 1.12 2.281 1.066 4.933.28 6.169-1.742a11.43 11.43 0 0 0-6.714.218v.001ZM37.626 82.73c-.656-.799-1.135-1.59-1.438-2.352l-.01-.035a4.545 4.545 0 0 0-1.987 1.879l5.518 2.577a15.493 15.493 0 0 1-2.083-2.07v.001Z" fill="#141416"/>
        <path d="M51.883 78.115c-.576-3.186-3.62-5.315-6.798-4.755-3.177.56-5.288 3.597-4.716 6.783.576 3.186 3.62 5.314 6.797 4.754a5.822 5.822 0 0 0 4.717-6.782Z" fill="url(#c)"/>
        <path d="M47.304 80.094c-1.715.848-3.076 1.884-3.849 2.953l-.034.048c.291.186.6.343.93.465l.046-.087c.205-.348.424-.69.66-1.018a12.112 12.112 0 0 1 2.252-2.36h-.005ZM41.395 80.33c.245.93.76 1.73 1.45 2.333l.022-.03c.483-.658 1.148-1.297 1.977-1.9a15.346 15.346 0 0 1 2.53-1.457l-5.979 1.054ZM44.386 75.791a11.5 11.5 0 0 0 6.438 1.959c-.688-2.278-3.052-3.727-5.526-3.29a4.979 4.979 0 0 0-1.784.68c.279.229.575.45.872.651ZM42.256 76.37c1.101.737 2.74 1.244 4.646 1.452a12.34 12.34 0 0 1-2.933-1.445c-.333-.226-.662-.47-.974-.73l-.08-.064a4.9 4.9 0 0 0-.705.753l.046.033ZM45.652 82.854c-.211.292-.413.6-.592.91.61.128 1.257.144 1.908.029 2.48-.436 4.191-2.607 4.041-4.982a11.365 11.365 0 0 0-5.357 4.041v.002ZM44.37 78.068c-.995-.28-1.839-.653-2.523-1.106l-.033-.02a4.621 4.621 0 0 0-.544 2.684l5.982-1.055a15.484 15.484 0 0 1-2.887-.504l.005.001Z" fill="#141416"/>
        <path d="M53.16 86.31c-.577-3.187-3.621-5.316-6.799-4.755a5.826 5.826 0 0 0-4.716 6.782c.576 3.186 3.62 5.315 6.798 4.755a5.826 5.826 0 0 0 4.716-6.783Z" fill="url(#d)"/>
        <path d="M48.582 88.288c-1.716.849-3.077 1.884-3.85 2.953l-.034.049c.292.185.6.342.925.464l.051-.086a12.11 12.11 0 0 1 2.912-3.379h-.004ZM42.672 88.523c.244.93.76 1.73 1.45 2.334l.021-.03c.479-.658 1.144-1.298 1.977-1.9a15.346 15.346 0 0 1 2.53-1.458l-5.978 1.055ZM45.662 83.985a11.481 11.481 0 0 0 6.438 1.96c-.688-2.278-3.052-3.727-5.53-3.29a4.977 4.977 0 0 0-1.78.68c.28.228.576.448.872.65ZM43.532 84.563c1.101.738 2.741 1.245 4.646 1.453a12.323 12.323 0 0 1-2.933-1.445c-.337-.225-.662-.47-.974-.73l-.079-.064a4.92 4.92 0 0 0-.706.753l.047.033ZM46.924 91.049a13.34 13.34 0 0 0-.592.909 5.04 5.04 0 0 0 1.913.029c2.476-.436 4.19-2.606 4.04-4.982a11.379 11.379 0 0 0-5.36 4.042v.002ZM45.642 86.264c-.99-.28-1.839-.653-2.519-1.106l-.032-.02a4.62 4.62 0 0 0-.545 2.684l5.977-1.054a15.558 15.558 0 0 1-2.881-.504Z" fill="#141416"/>
        <path d="M68.625 82.752c-.576-3.186-3.616-5.315-6.798-4.754-3.178.56-5.288 3.596-4.712 6.782.576 3.186 3.616 5.315 6.798 4.754 3.177-.56 5.288-3.596 4.712-6.782Z" fill="url(#e)"/>
        <path d="M64.052 84.731c-1.716.848-3.077 1.884-3.854 2.953l-.03.048c.291.186.6.343.925.465l.051-.086a11.98 11.98 0 0 1 2.912-3.379h-.004ZM58.138 84.965c.244.93.76 1.73 1.454 2.334l.022-.03c.478-.659 1.143-1.298 1.976-1.9a15.169 15.169 0 0 1 2.53-1.458l-5.982 1.054ZM61.128 80.427a11.496 11.496 0 0 0 6.443 1.959c-.689-2.278-3.057-3.726-5.531-3.29a5.002 5.002 0 0 0-1.784.68c.283.229.576.45.876.651h-.004ZM59.003 81.004c1.1.738 2.736 1.245 4.645 1.453a12.35 12.35 0 0 1-2.937-1.444 12.41 12.41 0 0 1-.974-.73l-.075-.065c-.267.228-.503.48-.71.753l.05.033ZM62.394 87.492c-.207.291-.409.598-.592.908a5.04 5.04 0 0 0 1.913.03c2.476-.436 4.19-2.607 4.04-4.982a11.358 11.358 0 0 0-5.36 4.042v.002ZM61.112 82.705c-.99-.28-1.84-.653-2.519-1.106l-.032-.02a4.586 4.586 0 0 0-.545 2.684l5.977-1.054a15.533 15.533 0 0 1-2.886-.504h.005Z" fill="#141416"/>
        <path d="M70.964 96.464c2.15-2.401 1.946-6.106-.467-8.272-2.408-2.167-6.105-1.977-8.26.426-2.15 2.401-1.94 6.105.467 8.272 2.408 2.166 6.11 1.977 8.26-.426Z" fill="url(#f)"/>
        <path d="M66.582 94.064c-1.731-.835-3.386-1.275-4.708-1.233l-.059.002c.035.342.1.683.212 1.016l.098-.013c.4-.054.806-.09 1.212-.103a12.2 12.2 0 0 1 3.245.332v-.001ZM62.735 89.535a4.606 4.606 0 0 0-.937 2.574l.036-.002c.817-.023 1.73.11 2.722.4.867.254 1.784.629 2.714 1.105l-4.535-4.077ZM68.14 89.12a11.516 11.516 0 0 0 2.448 6.29c1.369-1.94 1.047-4.698-.836-6.388a5.061 5.061 0 0 0-1.641-.993c-.006.362.002.73.028 1.089v.001ZM66.373 87.787c.1 1.324.717 2.928 1.738 4.565a12.128 12.128 0 0 1-.71-4.425l.002-.1a4.803 4.803 0 0 0-1.032-.099l.002.059ZM63.38 94.455c-.361.013-.726.041-1.081.088.277.56.66 1.08 1.16 1.525 1.873 1.686 4.64 1.71 6.42.142a11.479 11.479 0 0 0-6.499-1.756ZM66.349 90.498c-.395-.955-.625-1.853-.69-2.669v-.037a4.584 4.584 0 0 0-2.456 1.214l4.533 4.079a15.607 15.607 0 0 1-1.387-2.587Z" fill="#141416"/>
        <path d="M31.695 89.547a.43.43 0 0 1-.323-.313L19.76 46.311a.435.435 0 0 1 .308-.534.44.44 0 0 1 .537.31L32.212 89.01a.434.434 0 0 1-.517.537ZM69.633 98.49a.44.44 0 0 1-.184-.098.437.437 0 0 1-.044-.615l29.188-33.24a.437.437 0 0 1 .657.576L70.063 98.355a.438.438 0 0 1-.43.136Z" fill="#000"/>
        <path d="M99.688 64.742c-.519 2.24-18.899-.164-41.048-5.388C36.496 54.131 18.947 48.06 19.466 45.82c.28-1.198 5.56-1.082 13.765.068 4.915.683 10.864 1.745 17.42 3.112 3.162.657 6.484 1.396 9.881 2.197 3.397.802 6.687 1.623 9.823 2.452 6.477 1.705 12.276 3.415 16.983 5 7.846 2.638 12.63 4.895 12.35 6.093Z" fill="#141416"/>
        <path d="M75.508 63.379a.438.438 0 0 1-.329-.504.429.429 0 0 1 .503-.347C92.362 65.64 99 65.477 99.265 64.642c.004-.014-.008-1.527-12.067-5.582-4.688-1.58-10.552-3.307-16.951-4.993a393.414 393.414 0 0 0-19.686-4.644c-6.479-1.352-12.491-2.427-17.388-3.107-12.604-1.764-13.28-.413-13.285-.399-.076.538 3.425 3.174 20.002 8.054.228.067.363.31.294.54a.44.44 0 0 1-.536.294c-9.7-2.854-21.145-6.748-20.606-9.086.142-.598.507-2.186 14.25-.263 4.915.683 10.946 1.763 17.443 3.118a395.222 395.222 0 0 1 19.727 4.654c6.422 1.69 12.3 3.424 17.01 5.01 13.147 4.42 12.777 6.007 12.64 6.605-.602 2.608-15.662.205-24.586-1.46l-.018-.004Z" fill="#000"/>
        <path d="M44.272 92.53a.44.44 0 0 1-.333-.457l3.157-44.788a.428.428 0 0 1 .463-.402c.237.015.42.226.406.468L44.808 92.14a.43.43 0 0 1-.536.39Z" fill="#000"/>
        <path d="M99.74 64.72c.275-1.196-4.513-3.46-12.37-6.103-4.71-1.589-10.518-3.307-16.995-5.016a402.355 402.355 0 0 0-19.717-4.66c-6.556-1.37-12.513-2.433-17.432-3.117-8.211-1.154-13.494-1.273-13.774-.075a47.39 47.39 0 0 1 1.216-4.323c1.81-5.409 4.526-10.257 7.949-14.404 4.462-5.45 10.1-9.69 16.372-12.342 7.55-3.207 16.042-4.13 24.482-2.137 11.26 2.661 20.304 10.003 25.75 19.676 5.282 9.36 7.2 20.902 4.519 32.5v.002Z" fill="#FE515E"/>
        <path d="M99.74 64.72c.275-1.196-4.513-3.46-12.37-6.103-4.71-1.589-10.518-3.307-16.995-5.016a402.355 402.355 0 0 0-19.717-4.66c-6.556-1.37-12.513-2.433-17.432-3.117-8.211-1.154-13.494-1.273-13.774-.075a47.39 47.39 0 0 1 1.216-4.323c1.81-5.409 4.526-10.257 7.949-14.404 4.462-5.45 10.1-9.69 16.372-12.342 7.55-3.207 16.042-4.13 24.482-2.137 11.26 2.661 20.304 10.003 25.75 19.676 5.282 9.36 7.2 20.902 4.519 32.5v.002Z" fill="url(#g)"/>
        <path d="M43.737 17.616c-1.163.643-2.727.357-3.752 1.187-1.06.858-1.157 2.622-2.347 3.246-.488.254-1.053.265-1.556.48-.79.325-1.304 1.108-1.62 1.915-.316.796-.477 1.651-.847 2.433-.358.773-.992 1.504-1.832 1.676-.938.194-1.878-.325-2.58-.992a7.445 7.445 0 0 1-.538-.557c4.463-5.45 10.102-9.693 16.375-12.345.162 1.147-.302 2.383-1.303 2.957Z" fill="#FFECD4"/>
        <path d="M30.933 33.593c-1.45-.342-2.653-1.267-3.712-2.084-.242-.196-.488-.383-.734-.572l-.502-.388a.44.44 0 0 1-.075-.612.437.437 0 0 1 .612-.073l.497.384c.246.19.497.382.739.576.994.765 2.099 1.602 3.408 1.93 1.094.259 2.562-.031 3.136-1.077.306-.55.347-1.216.39-1.921l.033-.474c.119-1.289.554-2.169 1.293-2.617.63-.378 1.326-.364 2-.351.52.01 1.013.02 1.414-.156.94-.418 1.219-1.755 1.348-2.725.15-1.156.357-2.739 1.582-3.52.633-.407 1.354-.467 2.044-.525.446-.038.87-.074 1.25-.197 1.506-.495 2.175-2.335 2.053-3.896a5.488 5.488 0 0 0-.333-1.527.438.438 0 1 1 .837-.239c.205.578.324 1.137.362 1.709.147 1.892-.716 4.146-2.647 4.781-.478.154-.97.197-1.442.236-.618.051-1.2.101-1.65.392-.819.522-1.032 1.67-1.193 2.903-.158 1.177-.518 2.81-1.853 3.405-.584.252-1.195.24-1.783.229-.579-.012-1.122-.023-1.538.226-.487.298-.785.954-.877 1.95l-.035.452c-.045.771-.094 1.568-.494 2.288-.796 1.448-2.682 1.818-4.13 1.492v.001Z" fill="#FFECD4"/>
        <path d="M99.692 64.734c.275-1.198-4.52-3.465-12.395-6.11 1.215-6.526 1.417-12.871.742-18.673 2.857-.65 5.304-3.077 6.471-5.855.268-.63.482-1.258.659-1.908 5.29 9.373 7.205 20.931 4.518 32.546h.005Z" fill="#F83B4D"/>
        <path d="M99.692 64.734c.275-1.198-4.52-3.465-12.395-6.11 1.215-6.526 1.417-12.871.742-18.673 2.857-.65 5.304-3.077 6.471-5.855.268-.63.482-1.258.659-1.908 5.29 9.373 7.205 20.931 4.518 32.546h.005Z" fill="url(#h)"/>
        <path d="M87.377 58.619c-4.707-1.59-10.517-3.31-16.995-5.02a402.987 402.987 0 0 0-19.723-4.66c-6.557-1.371-12.517-2.435-17.436-3.12a63.862 63.862 0 0 1 1.678-5.192C41.87 21.602 56.29 9.412 69.476 12.528c10.178 2.406 17.011 13.314 18.64 27.439.674 5.795.473 12.134-.734 18.651h-.005Z" fill="#1E1E20"/>
        <path d="M87.336 58.63c-4.709-1.59-10.52-3.31-17.002-5.021.873-4.18 1.566-8.212 2.085-12.012 1.522-1.523 3.014-3.09 5.05-3.442 2.896-.497 5.58 1.688 8.512 1.963a6.302 6.302 0 0 0 2.093-.147c.675 5.797.474 12.138-.738 18.658ZM53.014 40.594c-.82 2.675-1.61 5.465-2.34 8.375-6.553-1.37-12.513-2.43-17.425-3.114a62.012 62.012 0 0 1 1.678-5.187c1.306-.24 2.632-.308 3.938-.035 2.462.522 4.658 2.207 7.158 2.25 2.464.047 4.669-1.505 6.996-2.288h-.005Z" fill="#282828"/>
        <path d="M70.388 53.611a400.867 400.867 0 0 0-19.742-4.664c.732-2.916 1.522-5.71 2.344-8.39 5.287-17.236 12.012-29.11 16.493-28.052 4.183.989 5.177 12.982 2.992 29.089a175.42 175.42 0 0 1-2.087 12.017Z" fill="#FE515E"/>
        <path d="M70.388 53.611a400.867 400.867 0 0 0-19.742-4.664c.732-2.916 1.522-5.71 2.344-8.39 5.287-17.236 12.012-29.11 16.493-28.052 4.183.989 5.177 12.982 2.992 29.089a175.42 175.42 0 0 1-2.087 12.017Z" fill="url(#i)"/>
        <path d="M70.365 53.62a404.165 404.165 0 0 0-19.716-4.658 178.378 178.378 0 0 1 2.34-8.38c.858-.297 1.733-.483 2.633-.45 4.385.143 7.732 5.34 12.064 4.626 1.923-.32 3.353-1.71 4.764-3.138a175.286 175.286 0 0 1-2.085 12.002v-.002Z" fill="#F83B4D"/>
        <path d="M70.365 53.62a404.165 404.165 0 0 0-19.716-4.658 178.378 178.378 0 0 1 2.34-8.38c.858-.297 1.733-.483 2.633-.45 4.385.143 7.732 5.34 12.064 4.626 1.923-.32 3.353-1.71 4.764-3.138a175.286 175.286 0 0 1-2.085 12.002v-.002Z" fill="url(#j)"/>
        <path d="M99.643 65.146a.438.438 0 0 1-.326-.524c.004-.015-.012-1.531-12.084-5.59-4.715-1.591-10.578-3.323-16.964-5.009a403.595 403.595 0 0 0-19.695-4.655c-6.46-1.35-12.477-2.427-17.404-3.112-12.613-1.773-13.289-.42-13.293-.405a.433.433 0 0 1-.522.323.442.442 0 0 1-.326-.523l.005-.009a47.662 47.662 0 0 1 1.223-4.354C27.461 19.72 48.663 7.18 69.57 12.121c6.867 1.622 13.224 5.085 18.38 10.01a.437.437 0 0 1 .017.616.434.434 0 0 1-.615.014c-5.048-4.82-11.262-8.206-17.978-9.793-20.47-4.837-41.233 7.459-48.294 28.6a45.747 45.747 0 0 0-.934 3.178c1.455-.403 4.886-.513 13.143.649 4.941.69 10.976 1.769 17.459 3.123a408.567 408.567 0 0 1 19.74 4.664c6.4 1.69 12.286 3.429 17.019 5.025 7.897 2.655 10.923 4.291 12.052 5.304a45.905 45.905 0 0 0 .789-13.141.43.43 0 0 1 .395-.468.439.439 0 0 1 .47.4c.411 4.834.06 9.719-1.048 14.515v.008a.435.435 0 0 1-.522.323v-.002Z" fill="#000"/>
        <path d="M69.303 45.321c-.77-.182-1.559.023-2.198.507-.648.482-1.151 1.23-1.364 2.144.42-1.827-.482-3.607-2.023-3.972.77.183 1.55-.025 2.198-.496.64-.485 1.143-1.233 1.355-2.147-.212.914-.086 1.81.283 2.534.363.71.979 1.248 1.754 1.43h-.005ZM65.35 19.522c.747.392.392 2.538-.531 4.909-.937 2.365-2.133 4.176-2.946 3.95-.8-.22-.866-2.536.133-5.07.99-2.536 2.612-4.178 3.345-3.79ZM67.397 15.816c.314.193.221.902-.175 1.6-.397.698-.965 1.134-1.284.963-.322-.172-.27-.903.139-1.621.41-.72 1.015-1.133 1.32-.942Z" fill="#FFECD4"/>
        <path d="M61.475 80.912a5.888 5.888 0 0 0-4.986-6.633 5.817 5.817 0 0 0-6.602 4.962 5.889 5.889 0 0 0 4.99 6.633c3.2.46 6.153-1.76 6.598-4.962Z" fill="url(#k)"/>
        <path d="M56.506 81.362c-1.898.269-3.514.826-4.58 1.597l-.05.035c.218.266.466.512.74.73l.074-.066a12.117 12.117 0 0 1 3.82-2.296h-.004ZM50.808 79.737a4.613 4.613 0 0 0 .657 2.665l.026-.022c.666-.474 1.497-.874 2.476-1.184a15.317 15.317 0 0 1 2.862-.592l-6.021-.867ZM55.058 76.365a11.522 11.522 0 0 0 5.523 3.873c.053-2.378-1.747-4.492-4.241-4.853a5.04 5.04 0 0 0-1.91.09c.196.305.406.605.628.89ZM52.858 76.246c.818 1.045 2.222 2.038 3.972 2.833a12.237 12.237 0 0 1-3.048-3.287l-.052-.085c-.321.133-.628.299-.91.493l.038.046ZM54.071 83.465c-.29.21-.576.44-.844.677.54.312 1.148.53 1.806.624 2.493.36 4.8-1.164 5.393-3.46a11.384 11.384 0 0 0-6.355 2.157v.002ZM54.342 78.519c-.856-.576-1.55-1.194-2.057-1.838l-.019-.028a4.594 4.594 0 0 0-1.36 2.377l6.023.867a15.497 15.497 0 0 1-2.592-1.379h.005Z" fill="#141416"/>
        <path d="M60.712 93.573c1.895-2.611 1.311-6.277-1.305-8.187-2.62-1.91-6.277-1.341-8.172 1.27-1.894 2.612-1.31 6.277 1.31 8.187 2.616 1.91 6.273 1.342 8.167-1.27Z" fill="url(#l)"/>
        <path d="M56.11 91.632c-1.806-.654-3.495-.92-4.803-.744l-.059.007c.07.337.172.67.314.99l.094-.023c.395-.095.794-.171 1.194-.227a12.19 12.19 0 0 1 3.265-.003h-.005ZM51.827 87.52c-.5.816-.717 1.74-.668 2.656l.032-.005c.81-.106 1.733-.067 2.747.12.892.163 1.842.442 2.813.823l-4.924-3.593v-.001ZM57.158 86.552a11.492 11.492 0 0 0 3.077 6.01c1.16-2.07.56-4.781-1.484-6.271a5.048 5.048 0 0 0-1.734-.819c.03.36.079.724.141 1.08ZM55.267 85.409c.236 1.305 1.013 2.84 2.188 4.364a12.472 12.472 0 0 1-1.004-3.12 12.04 12.04 0 0 1-.15-1.21l-.008-.1a4.903 4.903 0 0 0-1.037.008l.007.057h.005ZM52.964 92.35c-.355.05-.714.116-1.063.2.33.528.77 1.007 1.308 1.399 2.039 1.485 4.79 1.227 6.397-.517a11.467 11.467 0 0 0-6.637-1.083l-.005.001ZM55.517 88.109c-.488-.91-.807-1.78-.957-2.585l-.006-.036a4.586 4.586 0 0 0-2.315 1.458l4.927 3.594a15.512 15.512 0 0 1-1.649-2.433v.002Z" fill="#141416"/>
        <path d="M56.562 95.413a.434.434 0 0 1-.306-.59l16.83-41.519a.437.437 0 0 1 .807.33l-16.828 41.52a.434.434 0 0 1-.503.26Z" fill="#000"/>
        <path d="m72.125 98.582-5.284 22.864a4.857 4.857 0 0 1-5.855 3.632l-33.265-7.862a4.913 4.913 0 0 1-3.648-5.877l5.289-22.864L72.125 98.58Z" fill="#141416"/>
        <path d="m72.125 98.582-5.284 22.864a4.857 4.857 0 0 1-5.855 3.632l-33.265-7.862a4.913 4.913 0 0 1-3.648-5.877l5.289-22.864L72.125 98.58Z" fill="#FFCB67" fill-opacity=".9"/>
        <path d="M39.453 93.796c-1.224.663-2.954.325-3.886 1.357-.352.393-.51.915-.738 1.386-.219.484-.564.95-1.08 1.067-.592.145-1.216-.251-1.813-.143-.93.162-1.244 1.303-1.73 2.118-.62 1.033-1.787 1.699-2.98 1.703a3.679 3.679 0 0 1-.776-.089l2.945-12.734 11.523 2.723c-.044 1.062-.537 2.102-1.465 2.61v.002Z" fill="#FE9A4C"/>
        <path d="M26.57 107.427a5.76 5.76 0 0 1-1.546-.627.437.437 0 0 1-.16-.595.43.43 0 0 1 .59-.159c.854.491 1.702.703 2.463.613.976-.122 1.826-.781 2.05-1.604.065-.227.093-.468.12-.709.07-.585.147-1.246.665-1.705.606-.518 1.518-.527 2.584-.033l.22.101c.575.263 1.117.512 1.6.377.779-.23 1.02-1.332 1.085-2.214.077-1.05.176-2.49 1.274-3.159.682-.412 1.554-.415 2.657-.01.165.064.326.13.486.197.555.227 1.078.446 1.607.449 1.212.016 2.186-1.09 2.518-2.193.344-1.167.22-2.386.025-3.858 0-.006 0-.01-.005-.015a.44.44 0 0 1 .2-.49.432.432 0 0 1 .593.156.447.447 0 0 1 .06.154c.005.02.01.04.01.06.17 1.246.378 2.797-.047 4.246-.418 1.37-1.642 2.832-3.356 2.81-.7-.008-1.324-.265-1.93-.516-.155-.063-.307-.127-.458-.185-.838-.306-1.462-.326-1.9-.06-.665.404-.785 1.362-.864 2.481-.153 2.096-1.011 2.78-1.71 2.985-.791.223-1.54-.12-2.197-.421l-.225-.1c-.349-.165-1.196-.493-1.653-.103-.268.237-.316.661-.371 1.152-.036.285-.071.573-.148.841-.32 1.168-1.438 2.065-2.784 2.23a4.157 4.157 0 0 1-1.45-.095l-.004-.001Z" fill="#FFECD4"/>
        <path d="m70.96 103.577-4.136 17.879a4.855 4.855 0 0 1-5.852 3.63l-33.248-7.852a4.907 4.907 0 0 1-3.646-5.871l.009-.024c1.892 2.327 5.472 3.305 8.166 1.904 2.273-1.177 3.897-3.722 6.458-4.033 2.478-.308 4.601 1.633 6.48 3.292 1.873 1.67 4.428 3.296 6.706 2.287 1.59-.685 2.411-2.395 3.221-3.931.806-1.524 1.93-3.15 3.642-3.401 2.378-.342 4.544 2.191 6.895 1.7 1.624-.33 2.584-1.96 3.448-3.375.492-.8 1.104-1.643 1.853-2.205h.004Z" fill="#141416"/>
        <path d="m70.96 103.577-4.136 17.879a4.855 4.855 0 0 1-5.852 3.63l-33.248-7.852a4.907 4.907 0 0 1-3.646-5.871l.009-.024c1.892 2.327 5.472 3.305 8.166 1.904 2.273-1.177 3.897-3.722 6.458-4.033 2.478-.308 4.601 1.633 6.48 3.292 1.873 1.67 4.428 3.296 6.706 2.287 1.59-.685 2.411-2.395 3.221-3.931.806-1.524 1.93-3.15 3.642-3.401 2.378-.342 4.544 2.191 6.895 1.7 1.624-.33 2.584-1.96 3.448-3.375.492-.8 1.104-1.643 1.853-2.205h.004Z" fill="#FE9A4C" fill-opacity=".5"/>
        <path d="m49.984 122.919-22.358-5.283c-2.848-.674-4.629-3.545-3.968-6.4l5.284-22.862a.428.428 0 0 1 .517-.323l42.765 10.104c.232.055.376.29.325.524l-3.766 16.293a.435.435 0 1 1-.848-.2l3.668-15.87-41.912-9.904-5.19 22.438c-.55 2.389.938 4.79 3.322 5.353l22.353 5.283c.237.055.38.29.325.523a.428.428 0 0 1-.517.324Z" fill="#000"/>
        <path d="m70.83 102.176-41.888-9.887a3.384 3.384 0 0 1-2.52-4.047 3.348 3.348 0 0 1 4.034-2.5l41.887 9.886a3.378 3.378 0 0 1 2.516 4.047 3.341 3.341 0 0 1-4.03 2.501ZM57.68 111.66c-.776-.182-1.565.023-2.204.506-.648.483-1.151 1.232-1.364 2.145.425-1.826-.477-3.607-2.023-3.972.77.183 1.555-.025 2.199-.496a3.728 3.728 0 0 0 1.355-2.146c-.209.913-.087 1.81.282 2.533.363.71.983 1.248 1.754 1.431v-.001ZM59.584 107.454c-.351-.083-.71.01-1 .23-.292.219-.524.56-.618.974.193-.829-.22-1.638-.917-1.804.346.083.705-.01.996-.225.29-.22.523-.561.617-.975-.098.416-.039.823.126 1.151.165.323.445.566.8.649h-.004ZM53.304 100.857c-.235.8-2.208.947-4.518.525-2.319-.427-4.154-1.377-4.025-2.208.126-.816 2.15-1.205 4.569-.76 2.423.442 4.208 1.644 3.974 2.442v.001ZM56.957 102.091c-.142.339-.796.379-1.482.139-.682-.244-1.168-.699-1.062-1.046.105-.351.78-.452 1.498-.195.723.253 1.184.771 1.046 1.102Z" fill="#FFECD4"/>
    </g>
    <defs>
        <linearGradient id="b" x1="43.892" y1="87.15" x2="33.03" y2="82.13" gradientUnits="userSpaceOnUse">
            <stop stop-color="#1A3746"/>
            <stop offset=".24" stop-color="#2B588B"/>
            <stop offset=".37" stop-color="#5A6B83"/>
            <stop offset=".74" stop-color="#ED5409"/>
            <stop offset="1" stop-color="#FFCB67"/>
        </linearGradient>
        <linearGradient id="c" x1="52.013" y1="78.093" x2="40.27" y2="80.213" gradientUnits="userSpaceOnUse">
            <stop stop-color="#1A3746"/>
            <stop offset=".24" stop-color="#2B588B"/>
            <stop offset=".37" stop-color="#5A6B83"/>
            <stop offset=".74" stop-color="#ED5409"/>
            <stop offset="1" stop-color="#FFCB67"/>
        </linearGradient>
        <linearGradient id="d" x1="53.29" y1="86.288" x2="41.546" y2="88.409" gradientUnits="userSpaceOnUse">
            <stop stop-color="#1A3746"/>
            <stop offset=".24" stop-color="#2B588B"/>
            <stop offset=".37" stop-color="#5A6B83"/>
            <stop offset=".74" stop-color="#ED5409"/>
            <stop offset="1" stop-color="#FFCB67"/>
        </linearGradient>
        <linearGradient id="e" x1="68.755" y1="82.732" x2="57.016" y2="84.852" gradientUnits="userSpaceOnUse">
            <stop stop-color="#1A3746"/>
            <stop offset=".24" stop-color="#2B588B"/>
            <stop offset=".37" stop-color="#5A6B83"/>
            <stop offset=".74" stop-color="#ED5409"/>
            <stop offset="1" stop-color="#FFCB67"/>
        </linearGradient>
        <linearGradient id="f" x1="71.062" y1="96.552" x2="62.139" y2="88.557" gradientUnits="userSpaceOnUse">
            <stop stop-color="#1A3746"/>
            <stop offset=".24" stop-color="#2B588B"/>
            <stop offset=".37" stop-color="#5A6B83"/>
            <stop offset=".74" stop-color="#ED5409"/>
            <stop offset="1" stop-color="#FFCB67"/>
        </linearGradient>
        <linearGradient id="g" x1="105.879" y1="41.626" x2="22.723" y2="36.534" gradientUnits="userSpaceOnUse">
            <stop stop-color="#1A3746"/>
            <stop offset=".24" stop-color="#2B588B"/>
            <stop offset=".37" stop-color="#5A6B83"/>
            <stop offset=".74" stop-color="#ED5409"/>
            <stop offset="1" stop-color="#FFCB67"/>
        </linearGradient>
        <linearGradient id="h" x1="103.61" y1="48.5" x2="86.553" y2="45.428" gradientUnits="userSpaceOnUse">
            <stop stop-color="#1A3746"/>
            <stop offset=".24" stop-color="#2B588B"/>
            <stop offset=".37" stop-color="#5A6B83"/>
            <stop offset=".74" stop-color="#ED5409"/>
            <stop offset="1" stop-color="#FFCB67"/>
        </linearGradient>
        <linearGradient id="i" x1="75.464" y1="32.518" x2="55.04" y2="28.763" gradientUnits="userSpaceOnUse">
            <stop stop-color="#1A3746"/>
            <stop offset=".24" stop-color="#2B588B"/>
            <stop offset=".37" stop-color="#5A6B83"/>
            <stop offset=".74" stop-color="#ED5409"/>
            <stop offset="1" stop-color="#FFCB67"/>
        </linearGradient>
        <linearGradient id="j" x1="72.046" y1="47.207" x2="51.587" y2="45.568" gradientUnits="userSpaceOnUse">
            <stop stop-color="#1A3746"/>
            <stop offset=".24" stop-color="#2B588B"/>
            <stop offset=".37" stop-color="#5A6B83"/>
            <stop offset=".74" stop-color="#ED5409"/>
            <stop offset="1" stop-color="#FFCB67"/>
        </linearGradient>
        <linearGradient id="k" x1="61.607" y1="80.934" x2="49.77" y2="79.287" gradientUnits="userSpaceOnUse">
            <stop stop-color="#1A3746"/>
            <stop offset=".24" stop-color="#2B588B"/>
            <stop offset=".37" stop-color="#5A6B83"/>
            <stop offset=".74" stop-color="#ED5409"/>
            <stop offset="1" stop-color="#FFCB67"/>
        </linearGradient>
        <linearGradient id="l" x1="60.819" y1="93.642" x2="51.123" y2="86.611" gradientUnits="userSpaceOnUse">
            <stop stop-color="#1A3746"/>
            <stop offset=".24" stop-color="#2B588B"/>
            <stop offset=".37" stop-color="#5A6B83"/>
            <stop offset=".74" stop-color="#ED5409"/>
            <stop offset="1" stop-color="#FFCB67"/>
        </linearGradient>
    </defs>
</svg>
