<svg width="525" height="408" viewBox="0 0 525 408" fill="none" xmlns="http://www.w3.org/2000/svg">
<g clip-path="url(#clip0_38598_52097)">
<path d="M65.5653 24.2692H59.804C59.5824 23.0381 59.17 21.9548 58.5668 21.0192C57.9635 20.0836 57.2249 19.2895 56.3509 18.6371C55.4768 17.9846 54.4981 17.4922 53.4148 17.1598C52.3438 16.8274 51.205 16.6612 49.9986 16.6612C47.8196 16.6612 45.8684 17.209 44.1449 18.3047C42.4337 19.4003 41.0795 21.0069 40.0824 23.1243C39.0975 25.2417 38.6051 27.8269 38.6051 30.88C38.6051 33.9576 39.0975 36.5552 40.0824 38.6726C41.0795 40.79 42.4399 42.3904 44.1634 43.4737C45.8868 44.5571 47.8258 45.0987 49.9801 45.0987C51.1742 45.0987 52.3068 44.9387 53.3778 44.6186C54.4612 44.2862 55.4399 43.8 56.3139 43.1598C57.188 42.5196 57.9266 41.7379 58.5298 40.8146C59.1454 39.879 59.5701 38.808 59.804 37.6016L65.5653 37.62C65.2576 39.4789 64.6605 41.1901 63.7741 42.7536C62.9001 44.3047 61.7737 45.6465 60.3949 46.7791C59.0284 47.8994 57.465 48.7673 55.7045 49.3828C53.9441 49.9983 52.0237 50.3061 49.9432 50.3061C46.6686 50.3061 43.7509 49.5305 41.1903 47.9794C38.6297 46.416 36.6108 44.1816 35.1335 41.2763C33.6686 38.371 32.9361 34.9055 32.9361 30.88C32.9361 26.8421 33.6747 23.3767 35.152 20.4837C36.6293 17.5784 38.6482 15.3501 41.2088 13.799C43.7694 12.2356 46.6809 11.4538 49.9432 11.4538C51.9498 11.4538 53.821 11.7431 55.5568 12.3217C57.3049 12.888 58.8745 13.7251 60.2656 14.8331C61.6567 15.9287 62.8078 17.2706 63.7188 18.8587C64.6297 20.4344 65.2453 22.2379 65.5653 24.2692ZM70.3899 49.7891V21.4254H75.7266V25.9311H76.022C76.5391 24.4046 77.4501 23.2043 78.755 22.3303C80.0722 21.4439 81.5618 21.0007 83.2237 21.0007C83.5684 21.0007 83.9747 21.013 84.4425 21.0376C84.9226 21.0623 85.2981 21.093 85.5689 21.13V26.4112C85.3473 26.3497 84.9534 26.282 84.3871 26.2081C83.8208 26.1219 83.2545 26.0788 82.6882 26.0788C81.3833 26.0788 80.2199 26.3558 79.1982 26.9098C78.1887 27.4515 77.3885 28.2086 76.7976 29.1811C76.2067 30.1413 75.9112 31.237 75.9112 32.468V49.7891H70.3899ZM99.9958 50.3615C97.2013 50.3615 94.7945 49.7644 92.7756 48.5703C90.769 47.3639 89.2178 45.6712 88.1222 43.4922C87.0389 41.3009 86.4972 38.7341 86.4972 35.7919C86.4972 32.8866 87.0389 30.326 88.1222 28.1101C89.2178 25.8942 90.7443 24.1645 92.7017 22.9212C94.6714 21.6778 96.9735 21.0561 99.608 21.0561C101.208 21.0561 102.76 21.3208 104.261 21.8501C105.763 22.3795 107.111 23.2105 108.305 24.343C109.5 25.4756 110.441 26.9467 111.131 28.7564C111.82 30.5537 112.165 32.7389 112.165 35.3118V37.2692H89.6179V33.1328H106.754C106.754 31.6802 106.459 30.3937 105.868 29.2734C105.277 28.1409 104.446 27.2483 103.375 26.5959C102.316 25.9434 101.073 25.6172 99.6449 25.6172C98.0938 25.6172 96.7396 25.9988 95.5824 26.7621C94.4375 27.513 93.5512 28.4979 92.9233 29.7166C92.3078 30.9231 92 32.2341 92 33.6499V36.8814C92 38.7772 92.3324 40.3899 92.9972 41.7195C93.6743 43.049 94.616 44.0646 95.8225 44.7663C97.0289 45.4557 98.4385 45.8004 100.051 45.8004C101.098 45.8004 102.052 45.6527 102.913 45.3572C103.775 45.0495 104.52 44.594 105.148 43.9908C105.776 43.3875 106.256 42.6428 106.588 41.7564L111.814 42.6982C111.395 44.237 110.644 45.585 109.561 46.7422C108.49 47.8871 107.142 48.7796 105.517 49.4197C103.904 50.0476 102.064 50.3615 99.9958 50.3615ZM127.349 50.343C125.059 50.343 123.015 49.7583 121.218 48.5888C119.433 47.407 118.03 45.7266 117.008 43.5476C115.998 41.3563 115.494 38.728 115.494 35.6626C115.494 32.5973 116.005 29.9751 117.026 27.7962C118.06 25.6172 119.476 23.9491 121.273 22.7919C123.071 21.6347 125.108 21.0561 127.386 21.0561C129.146 21.0561 130.562 21.3516 131.633 21.9425C132.716 22.5211 133.553 23.1982 134.144 23.9737C134.747 24.7493 135.215 25.4325 135.548 26.0234H135.88V11.9709H141.401V49.7891H136.009V45.3757H135.548C135.215 45.9789 134.735 46.6683 134.107 47.4439C133.492 48.2195 132.642 48.8965 131.559 49.4751C130.476 50.0537 129.072 50.343 127.349 50.343ZM128.568 45.6342C130.156 45.6342 131.497 45.2157 132.593 44.3786C133.701 43.5291 134.538 42.3535 135.104 40.8516C135.683 39.3497 135.972 37.6016 135.972 35.6072C135.972 33.6375 135.689 31.9141 135.123 30.4368C134.557 28.9595 133.726 27.8085 132.63 26.9837C131.534 26.1589 130.18 25.7464 128.568 25.7464C126.906 25.7464 125.521 26.1773 124.413 27.0391C123.305 27.9008 122.468 29.0765 121.901 30.5661C121.347 32.0556 121.07 33.736 121.07 35.6072C121.07 37.5031 121.353 39.2081 121.92 40.7223C122.486 42.2365 123.323 43.4368 124.431 44.3232C125.551 45.1972 126.93 45.6342 128.568 45.6342ZM147.722 49.7891V21.4254H153.243V49.7891H147.722ZM150.51 17.049C149.55 17.049 148.725 16.7289 148.036 16.0888C147.358 15.4363 147.02 14.6607 147.02 13.7621C147.02 12.8511 147.358 12.0755 148.036 11.4354C148.725 10.7829 149.55 10.4567 150.51 10.4567C151.47 10.4567 152.289 10.7829 152.966 11.4354C153.655 12.0755 154 12.8511 154 13.7621C154 14.6607 153.655 15.4363 152.966 16.0888C152.289 16.7289 151.47 17.049 150.51 17.049ZM172.351 21.4254V25.8572H156.858V21.4254H172.351ZM161.013 14.63H166.534V41.4609C166.534 42.532 166.694 43.3383 167.014 43.88C167.334 44.4093 167.747 44.7725 168.251 44.9695C168.769 45.1541 169.329 45.2464 169.932 45.2464C170.375 45.2464 170.763 45.2157 171.095 45.1541C171.428 45.0926 171.686 45.0433 171.871 45.0064L172.868 49.5675C172.548 49.6906 172.092 49.8137 171.501 49.9368C170.911 50.0722 170.172 50.1461 169.286 50.1584C167.833 50.183 166.479 49.9245 165.223 49.3828C163.967 48.8411 162.952 48.004 162.176 46.8714C161.401 45.7389 161.013 44.317 161.013 42.6058V14.63ZM197.696 28.3501L192.691 29.2365C192.482 28.5964 192.15 27.987 191.694 27.4084C191.251 26.8298 190.648 26.3558 189.885 25.9865C189.121 25.6172 188.167 25.4325 187.022 25.4325C185.459 25.4325 184.154 25.7834 183.108 26.4851C182.061 27.1745 181.538 28.067 181.538 29.1626C181.538 30.1106 181.889 30.8738 182.591 31.4524C183.292 32.031 184.425 32.505 185.988 32.8743L190.494 33.9084C193.104 34.5116 195.049 35.4411 196.329 36.6967C197.61 37.9524 198.25 39.5836 198.25 41.5902C198.25 43.2891 197.757 44.8033 196.772 46.1328C195.8 47.45 194.44 48.4841 192.691 49.2351C190.956 49.986 188.943 50.3615 186.653 50.3615C183.477 50.3615 180.886 49.6844 178.879 48.3303C176.872 46.9638 175.641 45.0249 175.186 42.5135L180.522 41.701C180.855 43.0921 181.538 44.1446 182.572 44.8587C183.606 45.5604 184.954 45.9112 186.616 45.9112C188.426 45.9112 189.872 45.5357 190.956 44.7848C192.039 44.0215 192.581 43.0921 192.581 41.9964C192.581 41.1101 192.248 40.3653 191.584 39.7621C190.931 39.1589 189.928 38.7034 188.574 38.3956L183.772 37.343C181.126 36.7398 179.168 35.7796 177.9 34.4624C176.645 33.1451 176.017 31.477 176.017 29.4581C176.017 27.7839 176.485 26.3189 177.42 25.0632C178.356 23.8075 179.648 22.8288 181.298 22.1271C182.948 21.4131 184.837 21.0561 186.967 21.0561C190.032 21.0561 192.445 21.7209 194.206 23.0504C195.966 24.3677 197.129 26.1342 197.696 28.3501Z" fill="white"/>
<path d="M16 79.788C20.8585 79.788 97.5672 56.6538 210 67.9977" stroke="#D4D4D8" stroke-width="4" stroke-linecap="round" stroke-linejoin="round"/>
<path d="M159.462 74.7175C159.462 74.7175 178.871 74.1678 195.335 84.264" stroke="#D4D4D8" stroke-width="4" stroke-linecap="round" stroke-linejoin="round"/>
<mask id="mask0_38598_52097" style="mask-type:luminance" maskUnits="userSpaceOnUse" x="126" y="232" width="265" height="311">
<path d="M126.015 297.287L299.39 232.082L390.51 477.197L217.136 542.402L126.015 297.287Z" fill="white"/>
</mask>
<g mask="url(#mask0_38598_52097)">
<path d="M147.747 335.544C147.609 335.068 147.623 334.571 147.802 334.114L165.275 290.822C165.275 290.822 165.323 290.743 165.344 290.698C165.379 290.621 165.413 290.557 165.447 290.48C165.489 290.416 165.53 290.362 165.572 290.308C165.606 290.27 165.627 290.225 165.654 290.19C165.675 290.17 165.689 290.151 165.71 290.132C165.751 290.078 165.806 290.032 165.854 289.989C165.91 289.942 165.979 289.88 166.041 289.844C166.089 289.813 166.144 289.781 166.192 289.749C166.261 289.709 166.337 289.669 166.427 289.636C166.447 289.628 166.468 289.62 166.503 289.607L263.796 253.016C264.355 252.806 264.989 252.842 265.513 253.111L306.941 274.251C306.941 274.251 306.975 274.264 306.975 274.275C306.975 274.275 307.01 274.289 307.017 274.285C307.051 274.309 307.086 274.334 307.12 274.359C307.189 274.409 307.251 274.448 307.32 274.497C307.375 274.54 307.417 274.588 307.458 274.624C307.513 274.677 307.555 274.724 307.603 274.782C307.644 274.829 307.679 274.891 307.72 274.938C307.761 275 307.803 275.058 307.844 275.12C307.865 275.187 307.899 275.237 307.934 275.3C307.948 275.333 307.961 275.377 307.975 275.41L368.71 438.784C368.71 438.784 368.73 438.838 368.737 438.872C368.979 439.385 369.013 439.977 368.813 440.544C368.703 440.85 368.524 441.117 368.303 441.338L351.23 483.649C351.002 484.21 350.554 484.647 349.989 484.855L349.451 485.056L252.722 521.441C252.709 521.441 252.688 521.454 252.674 521.454C252.543 521.503 252.391 521.538 252.254 521.565C252.212 521.579 252.157 521.565 252.109 521.572C251.998 521.572 251.874 521.579 251.771 521.572C251.75 521.579 251.723 521.579 251.709 521.572C251.654 521.565 251.612 521.545 251.571 521.531C251.502 521.524 251.433 521.51 251.364 521.482C251.288 521.461 251.212 521.427 251.143 521.392C251.095 521.371 251.054 521.364 251.006 521.343L209.585 500.204C209.585 500.204 209.55 500.19 209.537 500.183C209.537 500.183 209.509 500.176 209.509 500.169C209.475 500.141 209.44 500.121 209.406 500.093C209.337 500.044 209.275 500.003 209.206 499.954C209.151 499.913 209.109 499.864 209.068 499.829C209.013 499.774 208.971 499.725 208.923 499.67C208.882 499.621 208.847 499.559 208.799 499.517C208.764 499.455 208.723 499.392 208.682 499.33C208.661 499.267 208.626 499.212 208.592 499.15C208.578 499.122 208.564 499.073 208.551 499.039L147.816 335.669C147.816 335.669 147.788 335.581 147.782 335.532L147.747 335.544Z" fill="#040A14"/>
<path d="M363.117 436.105L305.582 281.332L296.053 298.482L344.631 429.154L363.117 436.105Z" fill="#00C96B"/>
<path d="M266.41 258.424L263.652 280.1L292.634 295.726L302.991 277.094L266.41 258.424Z" fill="#00C96B"/>
<path d="M152.623 333.712L172.571 340.982L184.342 309.829L168.131 295.299L152.623 333.712Z" fill="#00C96B"/>
<path d="M293.294 303.449L282.806 322.305L313.014 356.497L293.294 303.449Z" fill="#00C96B"/>
<path d="M285.229 331.582L314.913 411.436L315.423 365.742L285.229 331.582Z" fill="#00C96B"/>
<path d="M279.027 320.192L290.528 299.51L263.071 284.705L260.058 308.478L279.027 320.192Z" fill="#00C96B"/>
<path d="M201.588 363.041L201.099 408.742L231.273 442.895L201.588 363.041Z" fill="#00C96B"/>
<path d="M198.779 350.529L205.571 328.861L187.788 312.922L176.624 342.465L198.779 350.529Z" fill="#00C96B"/>
<path d="M207.44 324.726L220.197 299.328L191.25 310.214L207.44 324.726Z" fill="#00C96B"/>
<path d="M212.541 324.161L251.61 309.467L225.346 298.695L212.541 324.161Z" fill="#00C96B"/>
<path d="M255.956 306.581L258.721 284.842L229.644 295.777L255.956 306.581Z" fill="#00C96B"/>
<path d="M278.061 324.692L257.381 311.932L256.713 312.183L256.223 312.369L209.776 329.837L202.494 353.112L238.44 449.802L259.112 462.551L306.718 444.646L314.006 421.382L278.061 324.692Z" fill="#00C96B"/>
<path d="M196.877 400.174L197.366 354.637L177.218 347.291L196.877 400.174Z" fill="#00C96B"/>
<path d="M187.615 306.949L259.341 279.973L262.086 258.291L171.384 292.402L187.615 306.949Z" fill="#00C96B"/>
<path d="M319.633 374.312L319.137 419.574L339.271 427.14L319.633 374.312Z" fill="#00C96B"/>
<path d="M220.458 476.004L171.887 345.356L153.483 338.648L210.922 493.142L220.458 476.004Z" fill="#00C96B"/>
<path opacity="0.9" d="M363.117 436.103L305.582 281.33L296.053 298.48L344.631 429.153L363.117 436.103Z" fill="white"/>
<path opacity="0.6" d="M266.415 258.424L263.657 280.1L292.639 295.726L302.995 277.094L266.415 258.424Z" fill="white"/>
<path opacity="0.48" d="M152.615 333.716L172.564 340.986L184.334 309.832L168.123 295.303L152.615 333.716Z" fill="white"/>
<path opacity="0.6" d="M293.294 303.441L282.806 322.297L313.014 356.49L293.294 303.441Z" fill="white"/>
<path opacity="0.9" d="M285.229 331.584L314.913 411.438L315.423 365.744L285.229 331.584Z" fill="white"/>
<path opacity="0.9" d="M279.034 320.19L290.528 299.508L263.078 284.703L260.058 308.476L279.034 320.19Z" fill="white"/>
<path opacity="0.1" d="M201.595 363.035L201.099 408.737L231.28 442.889L201.595 363.035Z" fill="white"/>
<path opacity="0.3" d="M198.779 350.533L205.571 328.864L187.788 312.926L176.624 342.469L198.779 350.533Z" fill="white"/>
<path opacity="0.5" d="M207.429 324.724L220.192 299.326L191.245 310.212L207.429 324.724Z" fill="white"/>
<path opacity="0.4" d="M212.536 324.161L251.605 309.467L225.341 298.695L212.536 324.161Z" fill="white"/>
<path opacity="0.6" d="M255.95 306.579L258.708 284.84L229.63 295.775L255.95 306.579Z" fill="white"/>
<path opacity="0.6" d="M278.069 324.69L257.389 311.93L256.72 312.181L256.224 312.367L209.777 329.835L202.502 353.11L238.441 449.8L259.113 462.549L306.726 444.644L314.007 421.38L278.069 324.69Z" fill="white"/>
<path opacity="0.4" d="M196.869 400.174L197.365 354.637L177.21 347.291L196.869 400.174Z" fill="white"/>
<path opacity="0.8" d="M187.595 306.953L259.321 279.977L262.065 258.295L171.37 292.406L187.595 306.953Z" fill="white"/>
<path opacity="0.6" d="M319.633 374.309L319.137 419.57L339.271 427.136L319.633 374.309Z" fill="white"/>
<path opacity="0.1" d="M220.459 475.998L171.895 345.348L153.491 338.641L210.923 493.136L220.459 475.998Z" fill="white"/>
<g style="mix-blend-mode:overlay" opacity="0.4">
<path d="M363.119 436.105L305.584 281.332L296.055 298.482L344.633 429.154L363.119 436.105Z" fill="#00C96B"/>
<path d="M266.41 258.424L263.651 280.1L292.633 295.726L302.99 277.094L266.41 258.424Z" fill="#00C96B"/>
<path d="M152.622 333.71L172.57 340.98L184.341 309.827L168.13 295.297L152.622 333.71Z" fill="#00C96B"/>
<path d="M293.295 303.449L282.808 322.305L313.016 356.497L293.295 303.449Z" fill="#00C96B"/>
<path d="M285.228 331.582L314.912 411.436L315.422 365.742L285.228 331.582Z" fill="#00C96B"/>
<path d="M279.029 320.19L290.53 299.508L263.073 284.703L260.06 308.476L279.029 320.19Z" fill="#00C96B"/>
<path d="M201.587 363.041L201.098 408.742L231.272 442.895L201.587 363.041Z" fill="#00C96B"/>
<path d="M198.781 350.529L205.573 328.861L187.79 312.922L176.626 342.465L198.781 350.529Z" fill="#00C96B"/>
<path d="M207.439 324.726L220.196 299.328L191.249 310.214L207.439 324.726Z" fill="#00C96B"/>
<path d="M212.543 324.161L251.612 309.467L225.348 298.695L212.543 324.161Z" fill="#00C96B"/>
<path d="M255.958 306.581L258.723 284.842L229.646 295.777L255.958 306.581Z" fill="#00C96B"/>
<path d="M196.877 400.174L197.366 354.637L177.218 347.291L196.877 400.174Z" fill="#00C96B"/>
<path d="M187.614 306.949L259.34 279.973L262.085 258.291L171.383 292.402L187.614 306.949Z" fill="#00C96B"/>
<path d="M319.635 374.311L319.139 419.572L339.273 427.138L319.635 374.311Z" fill="#00C96B"/>
<path d="M220.46 476.004L171.889 345.356L153.485 338.648L210.924 493.142L220.46 476.004Z" fill="#00C96B"/>
</g>
</g>
<mask id="mask1_38598_52097" style="mask-type:luminance" maskUnits="userSpaceOnUse" x="357" y="292" width="168" height="216">
<path d="M357.265 309.883L500.09 292.021L524.58 490.139L381.754 508L357.265 309.883Z" fill="white"/>
</mask>
<g mask="url(#mask1_38598_52097)">
<path d="M368.97 354.249L428.542 306.671C428.542 306.671 428.575 306.649 428.589 306.637C428.683 306.571 428.777 306.514 428.879 306.465C428.912 306.452 428.939 306.44 428.973 306.426C429.094 306.375 429.222 306.34 429.363 306.323C429.505 306.305 429.633 306.307 429.768 306.326C429.808 306.322 429.835 306.336 429.869 306.341C429.983 306.363 430.084 306.396 430.192 306.437C430.205 306.444 430.226 306.442 430.246 306.457L499.578 337.916C499.578 337.916 499.618 337.947 499.639 337.954C499.726 337.997 499.8 338.042 499.874 338.106C499.901 338.129 499.942 338.152 499.975 338.184C499.996 338.2 500.023 338.215 500.043 338.239C500.097 338.287 500.13 338.347 500.171 338.395C500.191 338.421 500.211 338.445 500.231 338.469C500.312 338.578 500.366 338.689 500.42 338.809C500.42 338.827 500.427 338.845 500.434 338.871C500.474 338.975 500.501 339.081 500.521 339.188C500.521 339.205 500.528 339.223 500.528 339.241L513.515 444.291C513.515 444.291 513.515 444.327 513.521 444.345C513.535 444.452 513.528 444.553 513.521 444.653C513.521 444.68 513.528 444.707 513.515 444.727C513.494 444.857 513.461 444.978 513.414 445.102C513.4 445.132 513.387 445.152 513.38 445.18C513.353 445.247 513.326 445.314 513.279 445.383C513.265 445.403 513.245 445.423 513.232 445.443C513.198 445.483 513.171 445.524 513.131 445.565C513.077 445.626 513.016 445.688 512.955 445.75C512.935 445.77 512.922 445.791 512.908 445.802L453.336 493.378C453.336 493.378 453.303 493.405 453.283 493.412C453.195 493.48 453.101 493.534 453 493.588C452.966 493.602 452.939 493.608 452.905 493.622C452.784 493.676 452.656 493.71 452.515 493.73C452.366 493.744 452.245 493.744 452.104 493.724C452.07 493.73 452.043 493.717 452.003 493.71C451.895 493.69 451.794 493.656 451.686 493.615C451.666 493.608 451.652 493.608 451.632 493.595L382.287 462.136C381.761 461.903 381.404 461.403 381.33 460.83L368.343 355.753C368.276 355.181 368.512 354.607 368.95 354.252L368.97 354.249Z" fill="#040A14"/>
<path d="M377.336 401.616L388.477 369.312L372.096 359.246L377.336 401.616Z" fill="#00A2FF"/>
<path d="M408.891 377.994L434.07 357.882L431.598 337.904L393.365 368.438L408.891 377.994Z" fill="#00A2FF"/>
<path d="M445.819 439.493L471.112 419.295L465.501 373.883L436.059 360.529L410.766 380.729L416.377 426.14L445.819 439.493Z" fill="#00A2FF"/>
<path d="M437.337 357.474L466.631 370.764L479.214 357.622L434.865 337.496L437.337 357.474Z" fill="#00A2FF"/>
<path d="M468.753 373.331L474.344 418.582L489.142 428.01L480.824 360.725L468.753 373.331Z" fill="#00A2FF"/>
<path d="M413.13 426.69L407.478 381.001L392.74 371.93L401.093 439.501L413.13 426.69Z" fill="#00A2FF"/>
<path d="M428.196 336.392L400.29 334.852L392.961 364.537L428.196 336.392Z" fill="#00A2FF"/>
<path d="M478.818 353.804L464.484 326.828L437.797 335.196L478.818 353.804Z" fill="#00A2FF"/>
<path d="M492.019 424.583L503.173 392.232L484.481 363.611L492.019 424.583Z" fill="#00A2FF"/>
<path d="M397.386 436.413L389.849 375.441L378.694 407.793L397.386 436.413Z" fill="#00A2FF"/>
<path d="M389.246 365.892L396.501 336.488L372.548 355.621L389.246 365.892Z" fill="#00A2FF"/>
<path d="M431.027 333.225L428.285 311.092L402.541 331.656L431.027 333.225Z" fill="#00A2FF"/>
<path d="M434.295 332.817L461.528 324.281L431.561 310.684L434.295 332.817Z" fill="#00A2FF"/>
<path d="M482.664 354.005L496.095 339.966L468.565 327.473L482.664 354.005Z" fill="#00A2FF"/>
<path d="M484.214 357.165L502.993 385.901L497.699 343.074L484.214 357.165Z" fill="#00A2FF"/>
<path d="M493.388 430.722L509.823 441.197L504.535 398.406L493.388 430.722Z" fill="#00A2FF"/>
<path opacity="0.1" d="M377.336 401.616L388.477 369.312L372.096 359.246L377.336 401.616Z" fill="white"/>
<path opacity="0.4" d="M408.891 377.994L434.07 357.882L431.598 337.904L393.365 368.438L408.891 377.994Z" fill="white"/>
<path opacity="0.6" d="M445.819 439.493L471.112 419.295L465.501 373.883L436.059 360.529L410.766 380.729L416.377 426.14L445.819 439.493Z" fill="white"/>
<path opacity="0.6" d="M437.337 357.474L466.631 370.764L479.214 357.622L434.865 337.496L437.337 357.474Z" fill="white"/>
<path opacity="0.8" d="M468.753 373.331L474.344 418.582L489.142 428.01L480.824 360.725L468.753 373.331Z" fill="white"/>
<path opacity="0.1" d="M413.13 426.69L407.478 381.001L392.74 371.93L401.093 439.501L413.13 426.69Z" fill="white"/>
<path opacity="0.6" d="M428.196 336.392L400.29 334.852L392.961 364.537L428.196 336.392Z" fill="white"/>
<path opacity="0.8" d="M478.818 353.804L464.484 326.828L437.797 335.196L478.818 353.804Z" fill="white"/>
<path opacity="0.6" d="M492.019 424.583L503.173 392.232L484.481 363.611L492.019 424.583Z" fill="white"/>
<path opacity="0.6" d="M397.386 436.413L389.849 375.441L378.694 407.793L397.386 436.413Z" fill="white"/>
<path opacity="0.4" d="M389.246 365.892L396.501 336.488L372.548 355.621L389.246 365.892Z" fill="white"/>
<path opacity="0.4" d="M431.027 333.225L428.285 311.092L402.541 331.656L431.027 333.225Z" fill="white"/>
<path opacity="0.6" d="M434.295 332.817L461.528 324.281L431.561 310.684L434.295 332.817Z" fill="white"/>
<path opacity="0.6" d="M482.664 354.005L496.095 339.966L468.565 327.473L482.664 354.005Z" fill="white"/>
<path opacity="0.8" d="M484.214 357.165L502.993 385.901L497.699 343.074L484.214 357.165Z" fill="white"/>
<path opacity="0.8" d="M493.388 430.722L509.823 441.197L504.535 398.406L493.388 430.722Z" fill="white"/>
<g style="mix-blend-mode:overlay" opacity="0.4">
<path d="M377.336 401.616L388.477 369.312L372.096 359.246L377.336 401.616Z" fill="#00A2FF"/>
<path d="M408.891 377.996L434.07 357.884L431.598 337.906L393.365 368.44L408.891 377.996Z" fill="#00A2FF"/>
<path d="M437.338 357.474L466.632 370.764L479.215 357.622L434.866 337.496L437.338 357.474Z" fill="#00A2FF"/>
<path d="M468.753 373.331L474.344 418.582L489.142 428.01L480.824 360.725L468.753 373.331Z" fill="#00A2FF"/>
<path d="M413.133 426.69L407.481 381.001L392.743 371.93L401.096 439.501L413.133 426.69Z" fill="#00A2FF"/>
<path d="M428.196 336.394L400.29 334.854L392.961 364.539L428.196 336.394Z" fill="#00A2FF"/>
<path d="M478.821 353.804L464.487 326.828L437.8 335.196L478.821 353.804Z" fill="#00A2FF"/>
<path d="M492.022 424.583L503.176 392.232L484.484 363.611L492.022 424.583Z" fill="#00A2FF"/>
<path d="M397.386 436.413L389.849 375.441L378.694 407.793L397.386 436.413Z" fill="#00A2FF"/>
<path d="M389.246 365.892L396.501 336.488L372.548 355.621L389.246 365.892Z" fill="#00A2FF"/>
<path d="M431.03 333.225L428.288 311.092L402.544 331.656L431.03 333.225Z" fill="#00A2FF"/>
<path d="M434.295 332.817L461.528 324.281L431.561 310.684L434.295 332.817Z" fill="#00A2FF"/>
<path d="M482.666 354.007L496.097 339.968L468.567 327.475L482.666 354.007Z" fill="#00A2FF"/>
<path d="M484.216 357.167L502.995 385.903L497.701 343.076L484.216 357.167Z" fill="#00A2FF"/>
<path d="M493.388 430.724L509.823 441.199L504.535 398.408L493.388 430.724Z" fill="#00A2FF"/>
</g>
</g>
<mask id="mask2_38598_52097" style="mask-type:luminance" maskUnits="userSpaceOnUse" x="226" y="220" width="193" height="196">
<path d="M226.624 297.938L335.251 220L418.887 337.932L310.261 415.87L226.624 297.938Z" fill="white"/>
</mask>
<g mask="url(#mask2_38598_52097)">
<path d="M256.101 331.628C256.078 331.599 256.056 331.564 256.048 331.527C256.018 331.487 255.995 331.448 255.973 331.403C255.958 331.375 255.958 331.339 255.943 331.306C255.92 331.257 255.905 331.208 255.898 331.155C255.89 331.15 255.883 331.139 255.883 331.128C255.883 331.103 255.883 331.077 255.875 331.055C255.868 331.008 255.868 330.958 255.868 330.906C255.86 330.865 255.868 330.819 255.868 330.78C255.868 330.754 255.868 330.728 255.875 330.699L262.397 278.02C262.442 277.647 262.637 277.313 262.946 277.094L304.074 247.586C304.112 247.557 304.157 247.533 304.21 247.506C304.21 247.502 304.225 247.494 304.232 247.489C304.503 247.347 304.819 247.294 305.127 247.361L356.178 258.177C356.501 258.145 356.794 258.236 357.043 258.399C357.058 258.407 357.073 258.414 357.088 258.422C357.11 258.436 357.14 258.445 357.163 258.454C357.17 258.466 357.17 258.472 357.193 258.475C357.238 258.497 357.276 258.53 357.306 258.56C357.336 258.581 357.366 258.606 357.396 258.632C357.434 258.662 357.464 258.693 357.486 258.728C357.509 258.763 357.547 258.789 357.569 258.824C357.569 258.824 357.577 258.83 357.577 258.836L389.476 303.811C389.476 303.811 389.476 303.817 389.484 303.823C389.506 303.852 389.529 303.887 389.536 303.924C389.567 303.964 389.582 304.002 389.604 304.047C389.627 304.076 389.627 304.112 389.642 304.144C389.657 304.194 389.679 304.242 389.687 304.295C389.694 304.3 389.702 304.312 389.702 304.322C389.71 304.334 389.702 304.348 389.702 304.363C389.725 304.463 389.725 304.571 389.717 304.676C389.709 304.696 389.717 304.712 389.709 304.732C389.709 304.732 389.717 304.738 389.717 304.747L383.188 357.414C383.188 357.414 383.173 357.438 383.173 357.448C383.173 357.503 383.158 357.557 383.135 357.609C383.12 357.643 383.113 357.682 383.098 357.71C383.083 357.758 383.06 357.8 383.038 357.853C383.023 357.891 383 357.928 382.978 357.965C382.962 357.973 382.97 357.989 382.962 357.993C382.932 358.029 382.902 358.07 382.872 358.1C382.857 358.122 382.835 358.145 382.82 358.167C382.759 358.228 382.692 358.293 382.624 358.342L341.495 387.848C341.427 387.897 341.352 387.945 341.27 387.977C341.247 387.993 341.217 387.999 341.187 388.009C341.142 388.023 341.104 388.045 341.059 388.058C341.044 388.067 341.029 388.06 341.029 388.064C340.991 388.073 340.946 388.076 340.901 388.083C340.856 388.091 340.796 388.096 340.75 388.098C340.713 388.097 340.675 388.096 340.645 388.095C340.585 388.092 340.532 388.087 340.48 388.083C340.465 388.082 340.45 388.084 340.442 388.083L289.4 377.272C289.076 377.305 288.775 377.213 288.527 377.05C288.324 376.954 288.128 376.804 287.993 376.614L256.101 331.644C256.101 331.644 256.101 331.638 256.093 331.632L256.101 331.628Z" fill="#040A14"/>
<path d="M338.876 385.008L335.552 372.215L297.958 376.339L338.876 385.008Z" fill="#FF1467"/>
<path d="M386.03 312.744L369.836 347.597L380.795 354.933L386.03 312.744Z" fill="#FF1467"/>
<path d="M306.655 250.436L309.995 263.236L347.619 259.111L306.655 250.436Z" fill="#FF1467"/>
<path d="M259.545 322.706L275.694 287.925L264.765 280.607L259.545 322.706Z" fill="#FF1467"/>
<path d="M284.678 342.726L294.396 324.781L274.749 328.718L284.678 342.726Z" fill="#FF1467"/>
<path d="M345.799 335.77L332.268 345.481L349.959 356.033L345.799 335.77Z" fill="#FF1467"/>
<path d="M299.772 299.67L313.311 289.959L295.62 279.416L299.772 299.67Z" fill="#FF1467"/>
<path d="M297.477 303.707L278.214 308.326L295.348 320.892L297.477 303.707Z" fill="#FF1467"/>
<path d="M334.704 292.657L328.469 272.271L317.855 289.088L334.704 292.657Z" fill="#FF1467"/>
<path d="M348.73 309.564L357.996 292.465L338.906 295.707L348.73 309.564Z" fill="#FF1467"/>
<path d="M348.097 331.74L367.36 327.121L350.225 314.555L348.097 331.74Z" fill="#FF1467"/>
<path d="M310.873 342.789L317.109 363.174L327.722 346.358L310.873 342.789Z" fill="#FF1467"/>
<path d="M296.832 325.887L287.573 342.987L306.663 339.744L296.832 325.887Z" fill="#FF1467"/>
<path d="M292.8 322.352L275.996 310.029L274.003 326.118L292.8 322.352Z" fill="#FF1467"/>
<path d="M295.77 301.35L278.507 289.801L276.499 305.973L295.77 301.35Z" fill="#FF1467"/>
<path d="M296.868 298.861L292.626 278.148L279.741 287.394L296.868 298.861Z" fill="#FF1467"/>
<path d="M313.387 286.883L308.197 266.979L295.402 276.158L313.387 286.883Z" fill="#FF1467"/>
<path d="M316.125 286.799L326.806 269.882L310.837 266.502L316.125 286.799Z" fill="#FF1467"/>
<path d="M330.784 270.723L336.914 290.764L346.58 274.073L330.784 270.723Z" fill="#FF1467"/>
<path d="M338.72 293.009L358.705 289.617L348.784 275.627L338.72 293.009Z" fill="#FF1467"/>
<path d="M360.893 292.725L351.175 310.663L370.829 306.732L360.893 292.725Z" fill="#FF1467"/>
<path d="M352.771 313.088L369.574 325.411L371.567 309.328L352.771 313.088Z" fill="#FF1467"/>
<path d="M349.707 334.121L367.06 345.742L369.076 329.475L349.707 334.121Z" fill="#FF1467"/>
<path d="M348.718 336.699L352.945 357.296L365.755 348.104L348.718 336.699Z" fill="#FF1467"/>
<path d="M332.184 348.561L337.359 368.481L350.176 359.286L332.184 348.561Z" fill="#FF1467"/>
<path d="M329.43 348.656L318.757 365.569L334.71 368.946L329.43 348.656Z" fill="#FF1467"/>
<path d="M314.794 364.725L308.686 344.77L299.179 361.421L314.794 364.725Z" fill="#FF1467"/>
<path d="M306.933 342.426L286.88 345.832L296.914 359.978L306.933 342.426Z" fill="#FF1467"/>
<path d="M271.866 329.293L259.493 331.771L289.151 373.596L295.455 362.551L271.866 329.293Z" fill="#FF1467"/>
<path d="M271.242 326.676L275.086 295.592L259.568 329.014L271.242 326.676Z" fill="#FF1467"/>
<path d="M277.363 285.795L288.774 277.609L266.532 278.545L277.363 285.795Z" fill="#FF1467"/>
<path d="M307.474 264.193L304.209 251.648L296.161 272.313L307.474 264.193Z" fill="#FF1467"/>
<path d="M347.994 271.617L354.072 261.113L317.373 265.134L347.994 271.617Z" fill="#FF1467"/>
<path d="M350.25 273.067L373.718 306.151L386.099 303.678L356.606 262.09L350.25 273.067Z" fill="#FF1467"/>
<path d="M374.335 308.781L370.483 339.859L386.008 306.443L374.335 308.781Z" fill="#FF1467"/>
<path d="M368.145 349.691L356.81 357.827L378.916 356.9L368.145 349.691Z" fill="#FF1467"/>
<path d="M338.089 371.263L341.361 383.849L349.424 363.127L338.089 371.263Z" fill="#FF1467"/>
<path d="M297.772 363.873L291.822 374.301L328.197 370.312L297.772 363.873Z" fill="#FF1467"/>
<path d="M292.333 274.775L300.69 253.322L269.452 275.735L292.333 274.775Z" fill="#FF1467"/>
<path d="M353.251 360.675L344.902 382.129L376.14 359.717L353.251 360.675Z" fill="#FF1467"/>
<path d="M300.313 302.587L300.96 302.121L315.883 291.416L335.537 295.585L347.745 312.8L345.263 332.848L329.693 344.019L310.031 339.86L297.823 322.645L300.313 302.587Z" fill="#FF1467"/>
<path opacity="0.28" d="M338.876 385.008L335.552 372.215L297.958 376.339L338.876 385.008Z" fill="white"/>
<path opacity="0.8" d="M386.03 312.744L369.836 347.597L380.795 354.933L386.03 312.744Z" fill="white"/>
<path opacity="0.8" d="M306.655 250.436L309.995 263.236L347.619 259.111L306.655 250.436Z" fill="white"/>
<path opacity="0.28" d="M259.545 322.706L275.694 287.925L264.765 280.607L259.545 322.706Z" fill="white"/>
<path opacity="0.1" d="M284.678 342.726L294.396 324.781L274.749 328.718L284.678 342.726Z" fill="white"/>
<path opacity="0.72" d="M345.799 335.77L332.268 345.481L349.959 356.033L345.799 335.77Z" fill="white"/>
<path opacity="0.72" d="M299.772 299.67L313.311 289.959L295.62 279.416L299.772 299.67Z" fill="white"/>
<path opacity="0.6" d="M297.477 303.707L278.214 308.326L295.348 320.892L297.477 303.707Z" fill="white"/>
<path opacity="0.6" d="M329.693 344.019L345.263 332.848L347.745 312.8L335.537 295.585L315.883 291.416L300.283 302.608L297.823 322.645L310.031 339.86L329.693 344.019Z" fill="white"/>
<path opacity="0.8" d="M334.704 292.657L328.469 272.271L317.855 289.088L334.704 292.657Z" fill="white"/>
<path opacity="0.8" d="M348.73 309.564L357.996 292.465L338.906 295.707L348.73 309.564Z" fill="white"/>
<path opacity="0.8" d="M348.097 331.74L367.36 327.121L350.225 314.555L348.097 331.74Z" fill="white"/>
<path opacity="0.6" d="M310.873 342.789L317.109 363.174L327.722 346.358L310.873 342.789Z" fill="white"/>
<path opacity="0.4" d="M296.832 325.887L287.573 342.987L306.663 339.744L296.832 325.887Z" fill="white"/>
<path opacity="0.4" d="M292.8 322.352L275.996 310.029L274.003 326.118L292.8 322.352Z" fill="white"/>
<path opacity="0.28" d="M295.77 301.35L278.507 289.801L276.499 305.973L295.77 301.35Z" fill="white"/>
<path opacity="0.6" d="M296.868 298.861L292.626 278.148L279.741 287.394L296.868 298.861Z" fill="white"/>
<path opacity="0.4" d="M313.387 286.883L308.197 266.979L295.402 276.158L313.387 286.883Z" fill="white"/>
<path opacity="0.6" d="M316.125 286.799L326.806 269.882L310.837 266.502L316.125 286.799Z" fill="white"/>
<path opacity="0.28" d="M330.784 270.723L336.914 290.764L346.58 274.073L330.784 270.723Z" fill="white"/>
<path opacity="0.6" d="M338.72 293.009L358.705 289.617L348.784 275.627L338.72 293.009Z" fill="white"/>
<path opacity="0.6" d="M360.893 292.725L351.175 310.663L370.829 306.732L360.893 292.725Z" fill="white"/>
<path opacity="0.28" d="M352.771 313.088L369.574 325.411L371.567 309.328L352.771 313.088Z" fill="white"/>
<path opacity="0.6" d="M349.707 334.121L367.06 345.742L369.076 329.475L349.707 334.121Z" fill="white"/>
<path opacity="0.4" d="M348.718 336.699L352.945 357.296L365.755 348.104L348.718 336.699Z" fill="white"/>
<path opacity="0.6" d="M332.184 348.561L337.359 368.481L350.176 359.286L332.184 348.561Z" fill="white"/>
<path opacity="0.28" d="M329.43 348.656L318.757 365.569L334.71 368.946L329.43 348.656Z" fill="white"/>
<path opacity="0.4" d="M314.794 364.725L308.686 344.77L299.179 361.421L314.794 364.725Z" fill="white"/>
<path opacity="0.1" d="M306.933 342.426L286.88 345.832L296.914 359.978L306.933 342.426Z" fill="white"/>
<path opacity="0.4" d="M271.866 329.293L259.493 331.771L289.151 373.596L295.455 362.551L271.866 329.293Z" fill="white"/>
<path opacity="0.28" d="M271.242 326.676L275.086 295.592L259.568 329.014L271.242 326.676Z" fill="white"/>
<path opacity="0.4" d="M277.363 285.795L288.774 277.609L266.532 278.545L277.363 285.795Z" fill="white"/>
<path opacity="0.6" d="M307.474 264.193L304.209 251.648L296.161 272.313L307.474 264.193Z" fill="white"/>
<path opacity="0.4" d="M347.994 271.617L354.072 261.113L317.373 265.134L347.994 271.617Z" fill="white"/>
<path opacity="0.8" d="M350.25 273.067L373.718 306.151L386.099 303.678L356.606 262.09L350.25 273.067Z" fill="white"/>
<path opacity="0.4" d="M374.335 308.781L370.483 339.859L386.008 306.443L374.335 308.781Z" fill="white"/>
<path opacity="0.6" d="M368.145 349.691L356.81 357.827L378.916 356.9L368.145 349.691Z" fill="white"/>
<path opacity="0.4" d="M338.089 371.263L341.361 383.849L349.424 363.127L338.089 371.263Z" fill="white"/>
<path opacity="0.28" d="M297.772 363.873L291.822 374.301L328.197 370.312L297.772 363.873Z" fill="white"/>
<path opacity="0.8" d="M292.333 274.775L300.69 253.322L269.452 275.735L292.333 274.775Z" fill="white"/>
<path opacity="0.8" d="M353.251 360.675L344.902 382.129L376.14 359.717L353.251 360.675Z" fill="white"/>
<g style="mix-blend-mode:overlay" opacity="0.4">
<path d="M338.88 385.008L335.556 372.215L297.962 376.339L338.88 385.008Z" fill="#FF1467"/>
<path d="M386.032 312.744L369.838 347.597L380.797 354.933L386.032 312.744Z" fill="#FF1467"/>
<path d="M306.656 250.436L309.996 263.236L347.62 259.111L306.656 250.436Z" fill="#FF1467"/>
<path d="M259.546 322.706L275.695 287.925L264.766 280.607L259.546 322.706Z" fill="#FF1467"/>
<path d="M284.679 342.726L294.397 324.781L274.75 328.718L284.679 342.726Z" fill="#FF1467"/>
<path d="M345.8 335.77L332.269 345.481L349.96 356.033L345.8 335.77Z" fill="#FF1467"/>
<path d="M299.773 299.67L313.312 289.959L295.621 279.416L299.773 299.67Z" fill="#FF1467"/>
<path d="M297.478 303.707L278.215 308.326L295.349 320.892L297.478 303.707Z" fill="#FF1467"/>
<path d="M334.703 292.657L328.468 272.271L317.854 289.088L334.703 292.657Z" fill="#FF1467"/>
<path d="M348.734 309.564L358 292.465L338.91 295.707L348.734 309.564Z" fill="#FF1467"/>
<path d="M348.101 331.74L367.364 327.121L350.229 314.555L348.101 331.74Z" fill="#FF1467"/>
<path d="M310.875 342.789L317.111 363.174L327.724 346.358L310.875 342.789Z" fill="#FF1467"/>
<path d="M296.833 325.887L287.574 342.987L306.664 339.744L296.833 325.887Z" fill="#FF1467"/>
<path d="M292.801 322.352L275.997 310.029L274.004 326.118L292.801 322.352Z" fill="#FF1467"/>
<path d="M295.772 301.35L278.509 289.801L276.501 305.973L295.772 301.35Z" fill="#FF1467"/>
<path d="M296.869 298.861L292.627 278.148L279.742 287.394L296.869 298.861Z" fill="#FF1467"/>
<path d="M313.388 286.883L308.198 266.979L295.403 276.158L313.388 286.883Z" fill="#FF1467"/>
<path d="M316.126 286.799L326.807 269.882L310.838 266.502L316.126 286.799Z" fill="#FF1467"/>
<path d="M330.785 270.723L336.915 290.764L346.581 274.073L330.785 270.723Z" fill="#FF1467"/>
<path d="M338.721 293.009L358.706 289.617L348.785 275.627L338.721 293.009Z" fill="#FF1467"/>
<path d="M360.895 292.723L351.177 310.661L370.831 306.73L360.895 292.723Z" fill="#FF1467"/>
<path d="M352.771 313.088L369.575 325.411L371.568 309.328L352.771 313.088Z" fill="#FF1467"/>
<path d="M349.711 334.119L367.064 345.74L369.079 329.473L349.711 334.119Z" fill="#FF1467"/>
<path d="M348.717 336.699L352.944 357.296L365.754 348.104L348.717 336.699Z" fill="#FF1467"/>
<path d="M332.183 348.561L337.358 368.481L350.175 359.286L332.183 348.561Z" fill="#FF1467"/>
<path d="M329.431 348.656L318.758 365.569L334.711 368.946L329.431 348.656Z" fill="#FF1467"/>
<path d="M314.793 364.725L308.685 344.77L299.178 361.421L314.793 364.725Z" fill="#FF1467"/>
<path d="M306.934 342.424L286.881 345.83L296.915 359.976L306.934 342.424Z" fill="#FF1467"/>
<path d="M271.867 329.293L259.494 331.771L289.152 373.596L295.456 362.551L271.867 329.293Z" fill="#FF1467"/>
<path d="M271.244 326.676L275.088 295.592L259.57 329.014L271.244 326.676Z" fill="#FF1467"/>
<path d="M277.364 285.793L288.775 277.607L266.533 278.543L277.364 285.793Z" fill="#FF1467"/>
<path d="M307.477 264.193L304.212 251.648L296.164 272.313L307.477 264.193Z" fill="#FF1467"/>
<path d="M347.995 271.617L354.073 261.113L317.374 265.134L347.995 271.617Z" fill="#FF1467"/>
<path d="M350.252 273.067L373.72 306.151L386.101 303.678L356.608 262.09L350.252 273.067Z" fill="#FF1467"/>
<path d="M374.336 308.781L370.484 339.859L386.009 306.443L374.336 308.781Z" fill="#FF1467"/>
<path d="M368.146 349.691L356.811 357.827L378.917 356.9L368.146 349.691Z" fill="#FF1467"/>
<path d="M338.09 371.261L341.362 383.847L349.425 363.125L338.09 371.261Z" fill="#FF1467"/>
<path d="M297.774 363.873L291.824 374.301L328.199 370.312L297.774 363.873Z" fill="#FF1467"/>
<path d="M292.334 274.773L300.691 253.32L269.453 275.733L292.334 274.773Z" fill="#FF1467"/>
<path d="M353.252 360.675L344.903 382.129L376.141 359.717L353.252 360.675Z" fill="#FF1467"/>
</g>
</g>
<mask id="mask3_38598_52097" style="mask-type:luminance" maskUnits="userSpaceOnUse" x="37" y="306" width="129" height="162">
<path d="M61.8521 306.093L165.465 323.912L141.033 467.636L37.4201 449.817L61.8521 306.093Z" fill="white"/>
</mask>
<g mask="url(#mask3_38598_52097)">
<path d="M60.7278 339.596L112.365 318.971C112.365 318.971 112.39 318.961 112.407 318.957C112.481 318.93 112.564 318.91 112.639 318.898C112.672 318.895 112.689 318.893 112.714 318.89C112.813 318.88 112.913 318.884 113.012 318.901C113.112 318.919 113.203 318.947 113.295 318.99C113.32 318.995 113.336 319.011 113.361 319.021C113.436 319.061 113.502 319.106 113.569 319.157C113.577 319.165 113.594 319.168 113.602 319.183L155.478 355.892C155.478 355.892 155.503 355.923 155.511 355.931C155.569 355.979 155.611 356.028 155.644 356.087C155.66 356.11 155.685 356.134 155.702 356.163C155.71 356.178 155.727 356.195 155.735 356.217C155.76 356.261 155.777 356.309 155.793 356.353C155.801 356.374 155.81 356.396 155.826 356.418C155.851 356.51 155.868 356.6 155.884 356.695C155.876 356.708 155.876 356.721 155.884 356.742C155.884 356.823 155.876 356.902 155.876 356.98C155.868 356.994 155.868 357.006 155.868 357.02L142.911 433.228C142.911 433.228 142.911 433.254 142.903 433.268C142.894 433.345 142.869 433.414 142.844 433.484C142.836 433.503 142.836 433.522 142.82 433.533C142.778 433.62 142.728 433.698 142.67 433.775C142.654 433.792 142.645 433.803 142.629 433.821C142.595 433.862 142.562 433.903 142.521 433.942C142.504 433.953 142.488 433.964 142.471 433.975C142.446 433.996 142.413 434.017 142.38 434.038C142.321 434.069 142.272 434.1 142.214 434.13C142.197 434.141 142.189 434.152 142.172 434.156L90.5348 454.783C90.5348 454.783 90.5099 454.791 90.4933 454.795C90.4186 454.822 90.3439 454.842 90.2609 454.854C90.236 454.857 90.2111 454.86 90.1862 454.862C90.0865 454.873 89.9953 454.869 89.8873 454.851C89.7877 454.833 89.6965 454.805 89.6052 454.763C89.5803 454.758 89.5637 454.742 89.5388 454.731C89.4641 454.692 89.3977 454.647 89.3396 454.596C89.323 454.587 89.3146 454.585 89.298 454.57L47.413 417.86C47.0959 417.584 46.9498 417.158 47.0204 416.743L59.9807 340.516C60.0471 340.1 60.3377 339.748 60.7195 339.594L60.7278 339.596Z" fill="#040A14"/>
<path d="M56.6445 374.493L71.2119 354.27L61.8656 343.756L56.6445 374.493Z" fill="#00A2FF"/>
<path d="M83.6627 364.672L105.485 355.953L107.95 341.459L74.8145 354.697L83.6627 364.672Z" fill="#00A2FF"/>
<path d="M96.5873 415.51L118.509 406.753L124.112 373.81L106.324 358.225L84.4021 366.981L78.8076 399.925L96.5873 415.51Z" fill="#00A2FF"/>
<path d="M107.858 356.361L125.555 371.871L137.109 365.351L110.324 341.867L107.858 356.361Z" fill="#00A2FF"/>
<path d="M126.501 374.113L120.915 406.94L129.29 416.672L137.582 367.859L126.501 374.113Z" fill="#00A2FF"/>
<path d="M95.0405 417.374L77.3521 401.865L65.8975 408.475L92.5752 431.867L95.0405 417.374Z" fill="#00A2FF"/>
<path d="M76.4166 399.618L82.0527 366.474L73.6443 357.002L65.3105 406.022L76.4166 399.618Z" fill="#00A2FF"/>
<path d="M105.891 339.681L86.6998 332.682L75.3447 351.882L105.891 339.681Z" fill="#00A2FF"/>
<path d="M137.632 362.595L133.266 340.691L112.855 340.88L137.632 362.595Z" fill="#00A2FF"/>
<path d="M132.02 414.888L146.604 394.633L139.54 370.656L132.02 414.888Z" fill="#00A2FF"/>
<path d="M63.3665 403.077L70.8867 358.846L56.3027 379.099L63.3665 403.077Z" fill="#00A2FF"/>
<path d="M72.465 352.039L83.7038 333.02L62.9443 341.313L72.465 352.039Z" fill="#00A2FF"/>
<path d="M108.531 338.064L111.261 322.008L88.9414 330.924L108.531 338.064Z" fill="#00A2FF"/>
<path d="M110.904 338.473L131.738 338.282L113.635 322.416L110.904 338.473Z" fill="#00A2FF"/>
<path d="M140.279 363.554L152.613 356.589L135.987 342.01L140.279 363.554Z" fill="#00A2FF"/>
<path d="M140.702 366.091L147.799 390.168L153.086 359.1L140.702 366.091Z" fill="#00A2FF"/>
<path d="M131.68 419.47L140.976 430.283L146.255 399.24L131.68 419.47Z" fill="#00A2FF"/>
<path d="M62.2549 407.786L55.1082 383.561L49.7686 414.98L62.2549 407.786Z" fill="#00A2FF"/>
<path opacity="0.1" d="M56.6445 374.493L71.2119 354.27L61.8656 343.756L56.6445 374.493Z" fill="white"/>
<path opacity="0.4" d="M83.6627 364.672L105.485 355.953L107.95 341.459L74.8145 354.697L83.6627 364.672Z" fill="white"/>
<path opacity="0.6" d="M96.5873 415.51L118.509 406.753L124.112 373.81L106.324 358.225L84.4021 366.981L78.8076 399.925L96.5873 415.51Z" fill="white"/>
<path opacity="0.6" d="M107.858 356.361L125.555 371.871L137.109 365.351L110.324 341.867L107.858 356.361Z" fill="white"/>
<path opacity="0.8" d="M126.501 374.113L120.915 406.94L129.29 416.672L137.582 367.859L126.501 374.113Z" fill="white"/>
<path opacity="0.4" d="M95.0405 417.374L77.3521 401.865L65.8975 408.475L92.5752 431.867L95.0405 417.374Z" fill="white"/>
<path opacity="0.1" d="M76.4166 399.618L82.0527 366.474L73.6443 357.002L65.3105 406.022L76.4166 399.618Z" fill="white"/>
<path opacity="0.6" d="M105.891 339.681L86.6998 332.682L75.3447 351.882L105.891 339.681Z" fill="white"/>
<path opacity="0.8" d="M137.632 362.595L133.266 340.691L112.855 340.88L137.632 362.595Z" fill="white"/>
<path opacity="0.6" d="M132.02 414.888L146.604 394.633L139.54 370.656L132.02 414.888Z" fill="white"/>
<path opacity="0.6" d="M63.3665 403.077L70.8867 358.846L56.3027 379.099L63.3665 403.077Z" fill="white"/>
<path opacity="0.4" d="M72.465 352.039L83.7038 333.02L62.9443 341.313L72.465 352.039Z" fill="white"/>
<path opacity="0.4" d="M108.531 338.064L111.261 322.008L88.9414 330.924L108.531 338.064Z" fill="white"/>
<path opacity="0.6" d="M110.904 338.473L131.738 338.282L113.635 322.416L110.904 338.473Z" fill="white"/>
<path opacity="0.6" d="M140.279 363.554L152.613 356.589L135.987 342.01L140.279 363.554Z" fill="white"/>
<path opacity="0.8" d="M140.702 366.091L147.799 390.168L153.086 359.1L140.702 366.091Z" fill="white"/>
<path opacity="0.8" d="M131.68 419.47L140.976 430.283L146.255 399.24L131.68 419.47Z" fill="white"/>
<path opacity="0.1" d="M62.2549 407.786L55.1082 383.561L49.7686 414.98L62.2549 407.786Z" fill="white"/>
<g style="mix-blend-mode:overlay" opacity="0.4">
<path d="M56.6436 374.493L71.2109 354.27L61.8646 343.756L56.6436 374.493Z" fill="#00A2FF"/>
<path d="M83.6598 364.67L105.482 355.951L107.947 341.457L74.8115 354.695L83.6598 364.67Z" fill="#00A2FF"/>
<path d="M107.859 356.361L125.556 371.871L137.11 365.351L110.325 341.867L107.859 356.361Z" fill="#00A2FF"/>
<path d="M126.498 374.113L120.912 406.94L129.287 416.672L137.58 367.859L126.498 374.113Z" fill="#00A2FF"/>
<path d="M95.0415 417.374L77.3531 401.865L65.8984 408.475L92.5761 431.867L95.0415 417.374Z" fill="#00A2FF"/>
<path d="M76.4156 399.62L82.0517 366.476L73.6433 357.004L65.3096 406.024L76.4156 399.62Z" fill="#00A2FF"/>
<path d="M105.888 339.681L86.6969 332.682L75.3418 351.882L105.888 339.681Z" fill="#00A2FF"/>
<path d="M137.63 362.597L133.264 340.693L112.854 340.882L137.63 362.597Z" fill="#00A2FF"/>
<path d="M132.02 414.888L146.604 394.633L139.54 370.656L132.02 414.888Z" fill="#00A2FF"/>
<path d="M63.3674 403.077L70.8877 358.846L56.3037 379.099L63.3674 403.077Z" fill="#00A2FF"/>
<path d="M72.464 352.039L83.7029 333.02L62.9434 341.313L72.464 352.039Z" fill="#00A2FF"/>
<path d="M108.528 338.064L111.258 322.008L88.9385 330.924L108.528 338.064Z" fill="#00A2FF"/>
<path d="M110.904 338.475L131.738 338.284L113.635 322.418L110.904 338.475Z" fill="#00A2FF"/>
<path d="M140.279 363.554L152.613 356.589L135.987 342.01L140.279 363.554Z" fill="#00A2FF"/>
<path d="M140.703 366.091L147.8 390.168L153.087 359.1L140.703 366.091Z" fill="#00A2FF"/>
<path d="M131.68 419.47L140.976 430.283L146.255 399.24L131.68 419.47Z" fill="#00A2FF"/>
<path d="M62.254 407.788L55.1073 383.562L49.7676 414.982L62.254 407.788Z" fill="#00A2FF"/>
</g>
</g>
<path d="M189.156 237.375C189.915 238.393 191.356 238.603 192.375 237.844L208.971 225.472C209.989 224.713 210.199 223.272 209.44 222.254C208.681 221.235 207.24 221.025 206.222 221.784L191.469 232.781L180.472 218.029C179.713 217.011 178.272 216.801 177.254 217.56C176.235 218.319 176.025 219.76 176.784 220.778L189.156 237.375ZM122.902 98.0211C149.391 112.41 199.737 160.151 188.724 235.668L193.276 236.332C204.663 158.249 152.609 108.923 125.098 93.9789L122.902 98.0211Z" fill="#D4D4D8"/>
</g>
<defs>
<clipPath id="clip0_38598_52097">
<rect width="525" height="408" rx="16" fill="white"/>
</clipPath>
</defs>
</svg>
