<svg width="516" height="121" fill="none" xmlns="http://www.w3.org/2000/svg">
    <g clip-path="url(#a)">
        <mask id="b" style="mask-type:luminance" maskUnits="userSpaceOnUse" x="265" y="13" width="177" height="207">
            <path d="m265 57.066 115.458-43.171 60.681 162.288-115.458 43.171L265 57.066Z" fill="#fff"/>
        </mask>
        <g mask="url(#b)">
            <path d="M279.472 82.396a1.45 1.45 0 0 1 .037-.947l11.636-28.663s.032-.053.046-.083c.023-.05.046-.093.069-.143.027-.043.055-.079.082-.114.023-.026.037-.056.055-.079.014-.012.023-.025.037-.038.028-.035.064-.066.096-.095.037-.031.083-.072.124-.096.033-.02.069-.041.101-.063a.99.99 0 0 1 .207-.093l64.793-24.227c.372-.139.794-.115 1.143.063l27.589 13.996s.023.01.023.017c0 0 .023.009.027.006l.069.05.133.09c.037.03.065.06.092.084.037.035.065.067.097.105.027.031.05.072.078.103l.082.12c.014.045.037.079.06.12.009.022.018.05.028.073l40.446 108.168s.014.036.018.058c.161.34.184.732.051 1.107-.074.203-.193.38-.34.526l-11.37 28.013c-.151.372-.45.661-.826.799l-.359.133-64.416 24.09c-.009 0-.023.009-.032.009a1.887 1.887 0 0 1-.28.073c-.028.01-.064 0-.097.005-.073 0-.156.005-.225 0-.013.005-.032.005-.041 0-.037-.005-.064-.018-.092-.028a.447.447 0 0 1-.137-.032.753.753 0 0 1-.147-.059c-.033-.014-.06-.019-.092-.033l-27.584-13.996-.032-.014s-.019-.004-.019-.009c-.023-.018-.046-.032-.069-.05l-.133-.092c-.037-.028-.064-.06-.092-.083-.036-.037-.064-.069-.096-.105-.028-.033-.051-.074-.083-.101a1.502 1.502 0 0 0-.078-.124c-.014-.042-.037-.079-.059-.12-.01-.018-.019-.05-.028-.073L279.518 82.478s-.019-.058-.023-.09l-.023.008Z" fill="#040A14"/>
            <path d="M422.898 148.976 384.582 46.503l-6.346 11.355 32.351 86.516 12.311 4.602ZM358.496 31.336l-1.837 14.351 19.3 10.346 6.897-12.335-24.36-12.362ZM282.719 81.182l13.284 4.814 7.839-20.626-10.796-9.62-10.327 25.432ZM376.398 61.147l-6.984 12.484 20.117 22.639-13.133-35.123ZM371.027 79.772l19.769 52.871.34-30.254-20.109-22.617ZM366.897 72.231l7.66-13.694-18.286-9.802-2.006 15.74 12.632 7.756ZM315.327 100.601l-.326 30.258 20.094 22.613-19.768-52.871ZM313.456 92.317l4.523-14.346-11.842-10.553-7.435 19.56 14.754 5.34ZM319.224 75.233l8.495-16.815-19.277 7.208 10.782 9.607ZM322.622 74.86l26.018-9.729L331.149 58l-8.527 16.861ZM351.534 63.22l1.841-14.393-19.364 7.24 17.523 7.153ZM366.254 75.21l-13.771-8.448-.446.167-.326.123-30.931 11.565-4.849 15.41 23.938 64.018 13.766 8.441 31.703-11.855 4.854-15.403-23.938-64.018ZM312.19 125.186l.326-30.15-13.417-4.863 13.091 35.013ZM306.022 63.464l47.766-17.86 1.828-14.356-60.403 22.584 10.809 9.632ZM393.94 108.064l-.331 29.967 13.409 5.01-13.078-34.977ZM327.894 175.393l-32.346-86.5-12.256-4.441 38.251 102.288 6.351-11.347Z" fill="#00C96B"/>
            <path opacity=".9" d="M422.898 148.974 384.582 46.501l-6.346 11.355 32.351 86.517 12.311 4.601Z" fill="#fff"/>
            <path opacity=".6" d="m358.499 31.336-1.837 14.351 19.3 10.346 6.897-12.335-24.36-12.362Z" fill="#fff"/>
            <path opacity=".48" d="m282.714 81.186 13.284 4.813 7.839-20.626-10.796-9.62-10.327 25.433Z" fill="#fff"/>
            <path opacity=".6" d="m376.398 61.141-6.984 12.484 20.117 22.639-13.133-35.123Z" fill="#fff"/>
            <path opacity=".9" d="m371.027 79.774 19.769 52.871.34-30.254-20.109-22.617ZM366.902 72.23l7.655-13.694-18.281-9.802-2.011 15.74 12.637 7.756Z" fill="#fff"/>
            <path opacity=".1" d="m315.332 100.598-.331 30.258 20.099 22.612-19.768-52.87Z" fill="#fff"/>
            <path opacity=".3" d="m313.456 92.32 4.523-14.347-11.842-10.553-7.435 19.56 14.754 5.34Z" fill="#fff"/>
            <path opacity=".5" d="m319.217 75.231 8.5-16.815-19.278 7.208 10.778 9.607Z" fill="#fff"/>
            <path opacity=".4" d="m322.618 74.86 26.018-9.729L331.145 58l-8.527 16.861Z" fill="#fff"/>
            <path opacity=".6" d="m351.529 63.219 1.837-14.393-19.364 7.24 17.527 7.153ZM366.259 75.21l-13.771-8.45-.446.167-.33.123-30.932 11.566-4.844 15.41 23.933 64.017 13.767 8.441 31.707-11.854 4.849-15.403-23.933-64.018Z" fill="#fff"/>
            <path opacity=".4" d="m312.185 125.186.33-30.15-13.422-4.863 13.092 35.013Z" fill="#fff"/>
            <path opacity=".8" d="m306.009 63.466 47.766-17.86 1.827-14.356-60.398 22.584 10.805 9.632Z" fill="#fff"/>
            <path opacity=".6" d="m393.94 108.062-.331 29.967 13.409 5.01-13.078-34.977Z" fill="#fff"/>
            <path opacity=".1" d="m327.894 175.389-32.341-86.502-12.256-4.44 38.246 102.289 6.351-11.347Z" fill="#fff"/>
            <g style="mix-blend-mode:overlay" opacity=".4" fill="#00C96B">
                <path d="M422.899 148.976 384.583 46.503l-6.346 11.355 32.351 86.516 12.311 4.602ZM358.495 31.335l-1.837 14.352 19.3 10.346 6.897-12.336-24.36-12.362ZM282.719 81.182l13.284 4.813 7.839-20.626-10.796-9.62-10.327 25.433ZM376.4 61.147l-6.984 12.484 20.117 22.638L376.4 61.146ZM371.027 79.772l19.769 52.871.34-30.254-20.109-22.617ZM366.899 72.231l7.66-13.694-18.286-9.802-2.006 15.74 12.632 7.756ZM315.327 100.601l-.326 30.258 20.094 22.612-19.768-52.87ZM313.458 92.317l4.523-14.346-11.843-10.553-7.434 19.56 14.754 5.339ZM319.224 75.233l8.495-16.816-19.277 7.208 10.782 9.608ZM322.623 74.86l26.018-9.73L331.15 58l-8.527 16.86ZM351.536 63.22l1.841-14.394-19.364 7.24 17.523 7.153ZM312.189 125.186l.326-30.15-13.417-4.863 13.091 35.013ZM306.022 63.464l47.766-17.861 1.828-14.355-60.403 22.584 10.809 9.632ZM393.941 108.063l-.331 29.968 13.409 5.009-13.078-34.977ZM327.896 175.393l-32.346-86.5-12.256-4.441 38.251 102.288 6.351-11.347Z"/>
            </g>
        </g>
        <mask id="c" style="mask-type:luminance" maskUnits="userSpaceOnUse" x="419" y="53" width="112" height="144">
            <path d="m419 65.405 95.114-11.826 16.309 131.171-95.114 11.826L419 65.405Z" fill="#fff"/>
        </mask>
        <g mask="url(#c)">
            <path d="m426.796 94.779 39.672-31.501s.022-.015.031-.023a1.48 1.48 0 0 1 .193-.114l.063-.025a1 1 0 0 1 .529-.066c.027-.003.045.006.067.01.077.014.144.035.216.063.009.004.022.003.036.013l46.171 20.828s.027.021.041.026a.728.728 0 0 1 .157.1c.018.016.044.03.067.052.013.01.031.02.045.037.036.031.058.07.085.103l.04.049c.054.072.09.145.126.225 0 .012.004.024.009.041.027.069.045.14.058.21 0 .011.005.023.005.035l8.648 69.553s0 .023.005.035c.009.071.004.138 0 .204 0 .018.004.036-.005.049a1.224 1.224 0 0 1-.067.249c-.009.019-.018.032-.023.051a.578.578 0 0 1-.067.134c-.009.014-.022.027-.031.04-.023.027-.041.054-.067.081-.036.04-.077.081-.117.122-.014.014-.023.027-.031.034l-39.672 31.5s-.023.018-.036.023c-.059.045-.121.08-.189.116l-.062.023a.947.947 0 0 1-.534.067c-.023.004-.041-.004-.068-.009a1.197 1.197 0 0 1-.21-.063c-.014-.004-.023-.004-.036-.013l-46.181-20.828a1.098 1.098 0 0 1-.637-.865l-8.648-69.57c-.045-.38.112-.76.403-.995l.014-.001Z" fill="#040A14"/>
            <path d="m432.368 126.14 7.419-21.389-10.909-6.664 3.49 28.053ZM453.382 110.501l16.767-13.316-1.646-13.228-25.461 20.217 10.34 6.327ZM477.974 151.218l16.844-13.374-3.737-30.066-19.607-8.842-16.844 13.374 3.736 30.066 19.608 8.842ZM472.325 96.914l19.508 8.799 8.38-8.702-29.534-13.325 1.646 13.228ZM493.246 107.413l3.723 29.959 9.855 6.243-5.539-44.55-8.039 8.348ZM456.204 142.741l-3.763-30.25-9.815-6.006 5.562 44.738 8.016-8.482ZM466.237 82.957l-18.584-1.02-4.881 19.654 23.465-18.634ZM499.949 94.484l-9.546-17.86-17.772 5.54 27.318 12.32ZM508.74 141.346l7.429-21.42-12.448-18.949 5.019 40.369ZM445.72 149.178l-5.019-40.369-7.429 21.42 12.448 18.949ZM440.299 102.487l4.831-19.468-15.951 12.668 11.12 6.8ZM468.122 80.859l-1.825-14.654-17.145 13.615 18.97 1.039ZM470.299 80.588l18.136-5.651-19.957-9.003 1.821 14.654ZM502.51 94.618l8.944-9.295-18.333-8.272 9.389 17.567ZM503.542 96.71l12.506 19.026-3.526-28.356-8.98 9.33Z" fill="#00A2FF"/>
            <path opacity=".1" d="m432.368 126.14 7.419-21.389-10.909-6.664 3.49 28.053Z" fill="#fff"/>
            <path opacity=".4" d="m453.382 110.501 16.767-13.316-1.646-13.228-25.461 20.217 10.34 6.327Z" fill="#fff"/>
            <path opacity=".6" d="m477.974 151.218 16.844-13.374-3.737-30.066-19.607-8.842-16.844 13.374 3.736 30.066 19.608 8.842ZM472.325 96.914l19.508 8.799 8.38-8.702-29.534-13.325 1.646 13.228Z" fill="#fff"/>
            <path opacity=".8" d="m493.246 107.413 3.723 29.959 9.855 6.243-5.539-44.55-8.039 8.348Z" fill="#fff"/>
            <path opacity=".1" d="m456.204 142.741-3.763-30.25-9.815-6.006 5.562 44.738 8.016-8.482Z" fill="#fff"/>
            <path opacity=".6" d="m466.237 82.957-18.584-1.02-4.881 19.654 23.465-18.634Z" fill="#fff"/>
            <path opacity=".8" d="m499.949 94.484-9.546-17.86-17.772 5.54 27.318 12.32Z" fill="#fff"/>
            <path opacity=".6" d="m508.74 141.346 7.429-21.42-12.448-18.949 5.019 40.369ZM445.72 149.178l-5.019-40.369-7.429 21.42 12.448 18.949Z" fill="#fff"/>
            <path opacity=".4" d="m440.299 102.487 4.831-19.468-15.951 12.668 11.12 6.8ZM468.122 80.859l-1.825-14.654-17.145 13.615 18.97 1.039Z" fill="#fff"/>
            <path opacity=".6" d="m470.299 80.588 18.136-5.651-19.957-9.003 1.821 14.654ZM502.51 94.618l8.944-9.295-18.333-8.272 9.389 17.567Z" fill="#fff"/>
            <path opacity=".8" d="m503.542 96.71 12.506 19.026-3.526-28.356-8.98 9.33Z" fill="#fff"/>
            <g style="mix-blend-mode:overlay" opacity=".4" fill="#00A2FF">
                <path d="m432.368 126.14 7.419-21.389-10.909-6.664 3.49 28.053ZM453.383 110.501l16.767-13.316-1.646-13.228-25.461 20.217 10.34 6.327ZM472.326 96.913l19.508 8.799 8.38-8.701-29.534-13.325 1.646 13.227ZM493.247 107.413l3.723 29.959 9.855 6.243-5.539-44.55-8.039 8.348ZM456.206 142.741l-3.763-30.25-9.815-6.006 5.562 44.738 8.016-8.482ZM466.238 82.957l-18.584-1.02-4.881 19.654 23.465-18.634ZM499.951 94.484l-9.546-17.86-17.772 5.54 27.318 12.32ZM508.742 141.346l7.429-21.42-12.448-18.949 5.019 40.369ZM445.72 149.178l-5.019-40.369-7.429 21.42 12.448 18.949ZM440.299 102.487l4.831-19.468-15.951 12.668 11.12 6.8ZM468.124 80.859l-1.825-14.654-17.145 13.615 18.97 1.039ZM470.3 80.588l18.136-5.651-19.957-9.003 1.821 14.654ZM502.512 94.618l8.944-9.295-18.333-8.272 9.389 17.567ZM503.544 96.71l12.506 19.026-3.526-28.356-8.98 9.33Z"/>
            </g>
        </g>
        <mask id="d" style="mask-type:luminance" maskUnits="userSpaceOnUse" x="332" y="5" width="129" height="131">
            <path d="m332 57.497 72.34-51.602 55.697 78.081-72.339 51.602L332 57.497Z" fill="#fff"/>
        </mask>
        <g mask="url(#d)">
            <path d="M351.63 79.803a.167.167 0 0 1-.035-.066.555.555 0 0 1-.05-.083c-.01-.019-.01-.042-.02-.064a.347.347 0 0 1-.03-.1.024.024 0 0 1-.01-.018c0-.016 0-.034-.005-.048-.005-.031-.005-.065-.005-.099-.005-.027 0-.057 0-.083 0-.017 0-.035.005-.054l4.343-34.878a.875.875 0 0 1 .365-.613l27.39-19.537c.025-.02.055-.035.09-.053 0-.003.01-.008.015-.011a.885.885 0 0 1 .596-.085l33.997 7.16a.88.88 0 0 1 .576.148l.03.015c.015.01.035.016.05.022.005.008.005.011.02.014a.29.29 0 0 1 .076.056.64.64 0 0 1 .12.11c.015.024.04.041.055.064 0 0 .005.004.005.008l21.243 29.778s0 .004.005.008a.158.158 0 0 1 .036.066c.02.027.03.052.045.082.015.02.015.043.025.065.01.032.025.064.03.1.005.003.01.01.01.017.005.008 0 .017 0 .027a.717.717 0 0 1 .01.208c-.005.013 0 .023-.005.036 0 0 .005.004.005.01l-4.348 34.87s-.01.017-.01.023c0 .037-.01.072-.025.107-.01.022-.015.048-.025.067-.01.031-.025.06-.04.094a.487.487 0 0 1-.04.074c-.01.006-.005.016-.01.019-.02.024-.041.05-.061.07-.01.016-.025.03-.035.045-.04.04-.085.084-.13.116l-27.39 19.536a.686.686 0 0 1-.15.085c-.015.011-.035.014-.055.021-.03.009-.055.024-.085.033-.01.005-.02.001-.02.003-.025.006-.055.008-.085.013-.03.005-.07.009-.1.011a6.62 6.62 0 0 1-.071-.003l-.11-.008h-.025l-33.992-7.158a.893.893 0 0 1-.581-.147.916.916 0 0 1-.355-.288L351.63 79.814s0-.004-.005-.008l.005-.003Z" fill="#040A14"/>
            <path d="m406.754 115.146-2.214-8.47-25.035 2.73 27.249 5.74ZM438.157 67.3l-10.785 23.075 7.298 4.858 3.487-27.933ZM385.297 26.047l2.224 8.475 25.055-2.731-27.279-5.744ZM353.924 73.896l10.754-23.028-7.278-4.845-3.476 27.873ZM370.661 87.152l6.472-11.882-13.084 2.607 6.612 9.275ZM411.365 82.544l-9.011 6.43 11.781 6.987-2.77-13.417ZM380.713 58.644l9.017-6.43-11.782-6.98 2.765 13.41ZM379.185 61.317l-12.829 3.058 11.411 8.32 1.418-11.378ZM403.976 54.001l-4.152-13.497-7.068 11.135L403.976 54ZM413.316 65.195l6.172-11.321-12.714 2.146 6.542 9.175ZM412.895 79.877l12.828-3.058-11.411-8.32-1.417 11.378ZM388.105 87.193l4.153 13.497 7.068-11.134-11.221-2.363ZM378.755 76.002l-6.166 11.323 12.713-2.148-6.547-9.175ZM376.069 73.662l-11.19-8.159-1.327 10.653 12.517-2.494ZM378.048 59.756l-11.496-7.647-1.337 10.708 12.833-3.06ZM378.779 58.109l-2.825-13.714-8.581 6.122 11.406 7.592ZM389.779 50.178 386.323 37l-8.52 6.078 11.976 7.1ZM391.603 50.122l7.113-11.2-10.634-2.238 3.521 13.438ZM401.365 39.478l4.083 13.27 6.436-11.051-10.519-2.219ZM406.65 54.233l13.31-2.246-6.607-9.262-6.703 11.508ZM421.417 54.045l-6.472 11.877 13.089-2.603-6.617-9.274ZM416.007 67.528l11.19 8.158 1.328-10.648-12.518 2.49ZM413.968 81.453l11.556 7.694 1.342-10.77-12.898 3.076ZM413.309 83.16l2.815 13.637 8.53-6.086-11.345-7.55ZM402.298 91.014l3.446 13.189 8.536-6.088-11.982-7.101ZM400.464 91.078l-7.108 11.197 10.625 2.236-3.517-13.433ZM390.717 101.716l-4.067-13.213-6.332 11.025 10.399 2.188ZM385.481 86.952l-13.354 2.255 6.682 9.366 6.672-11.621ZM362.13 78.257l-8.24 1.641 19.751 27.692 4.197-7.313-15.708-22.02ZM361.714 76.524l2.559-20.58-10.334 22.128 7.775-1.548ZM365.79 49.456l7.599-5.419-14.812.62 7.213 4.8ZM385.841 35.155l-2.174-8.305-5.359 13.681 7.533-5.376ZM412.826 40.07l4.047-6.954-24.439 2.663 20.392 4.291ZM414.329 41.03l15.629 21.905 8.244-1.637-19.64-27.535-4.233 7.267ZM430.367 64.677l-2.564 20.576 10.339-22.124-7.775 1.548ZM426.246 91.763l-7.549 5.387 14.722-.614-7.173-4.773ZM406.229 106.045l2.179 8.333 5.37-13.72-7.549 5.387ZM379.381 101.151l-3.962 6.904 24.224-2.64-20.262-4.264ZM375.759 42.16l5.565-14.203-20.803 14.839 15.238-.636ZM416.328 99.034l-5.56 14.205 20.802-14.84-15.242.635ZM381.073 60.576l.431-.309 9.938-7.087 13.089 2.76 8.129 11.398-1.653 13.273-10.368 7.396-13.094-2.753-8.13-11.398 1.658-13.28Z" fill="#FF1467"/>
            <path opacity=".28" d="m406.754 115.146-2.214-8.47-25.035 2.73 27.249 5.74Z" fill="#fff"/>
            <path opacity=".8" d="m438.157 67.3-10.785 23.075 7.298 4.858 3.487-27.933ZM385.297 26.047l2.224 8.475 25.055-2.731-27.279-5.744Z" fill="#fff"/>
            <path opacity=".28" d="m353.924 73.896 10.754-23.028-7.278-4.845-3.476 27.873Z" fill="#fff"/>
            <path opacity=".1" d="m370.661 87.152 6.472-11.882-13.084 2.607 6.612 9.275Z" fill="#fff"/>
            <path opacity=".72" d="m411.365 82.544-9.011 6.43 11.781 6.987-2.77-13.417ZM380.713 58.644l9.017-6.43-11.782-6.98 2.765 13.41Z" fill="#fff"/>
            <path opacity=".6" d="m379.185 61.317-12.829 3.058 11.411 8.32 1.418-11.378ZM400.639 88.007l10.368-7.396 1.653-13.273-8.129-11.398-13.089-2.76-10.389 7.41-1.638 13.266 8.13 11.398 13.094 2.753Z" fill="#fff"/>
            <path opacity=".8" d="m403.976 54.001-4.152-13.497-7.068 11.135L403.976 54ZM413.316 65.195l6.172-11.321-12.714 2.146 6.542 9.175ZM412.895 79.877l12.828-3.058-11.411-8.32-1.417 11.378Z" fill="#fff"/>
            <path opacity=".6" d="m388.105 87.193 4.153 13.497 7.068-11.134-11.221-2.363Z" fill="#fff"/>
            <path opacity=".4" d="m378.755 76.002-6.166 11.323 12.713-2.148-6.547-9.175ZM376.069 73.662l-11.19-8.159-1.327 10.653 12.517-2.494Z" fill="#fff"/>
            <path opacity=".28" d="m378.048 59.756-11.496-7.647-1.337 10.708 12.833-3.06Z" fill="#fff"/>
            <path opacity=".6" d="m378.779 58.109-2.825-13.714-8.581 6.122 11.406 7.592Z" fill="#fff"/>
            <path opacity=".4" d="M389.779 50.178 386.323 37l-8.52 6.078 11.976 7.1Z" fill="#fff"/>
            <path opacity=".6" d="m391.603 50.122 7.113-11.2-10.634-2.238 3.521 13.438Z" fill="#fff"/>
            <path opacity=".28" d="m401.365 39.478 4.083 13.27 6.436-11.051-10.519-2.219Z" fill="#fff"/>
            <path opacity=".6" d="m406.65 54.233 13.31-2.246-6.607-9.262-6.703 11.508ZM421.417 54.045l-6.472 11.877 13.089-2.603-6.617-9.274Z" fill="#fff"/>
            <path opacity=".28" d="m416.007 67.528 11.19 8.158 1.328-10.648-12.518 2.49Z" fill="#fff"/>
            <path opacity=".6" d="m413.968 81.453 11.556 7.694 1.342-10.77-12.898 3.076Z" fill="#fff"/>
            <path opacity=".4" d="m413.309 83.16 2.815 13.637 8.53-6.086-11.345-7.55Z" fill="#fff"/>
            <path opacity=".6" d="m402.298 91.014 3.446 13.189 8.536-6.088-11.982-7.101Z" fill="#fff"/>
            <path opacity=".28" d="m400.464 91.078-7.108 11.197 10.625 2.236-3.517-13.433Z" fill="#fff"/>
            <path opacity=".4" d="m390.717 101.716-4.067-13.213-6.332 11.025 10.399 2.188Z" fill="#fff"/>
            <path opacity=".1" d="m385.481 86.952-13.354 2.255 6.682 9.366 6.672-11.621Z" fill="#fff"/>
            <path opacity=".4" d="m362.13 78.257-8.24 1.641 19.751 27.692 4.197-7.313-15.708-22.02Z" fill="#fff"/>
            <path opacity=".28" d="m361.714 76.524 2.559-20.58-10.334 22.128 7.775-1.548Z" fill="#fff"/>
            <path opacity=".4" d="m365.79 49.456 7.599-5.419-14.812.62 7.213 4.8Z" fill="#fff"/>
            <path opacity=".6" d="m385.841 35.155-2.174-8.305-5.359 13.681 7.533-5.376Z" fill="#fff"/>
            <path opacity=".4" d="m412.826 40.07 4.047-6.954-24.439 2.663 20.392 4.291Z" fill="#fff"/>
            <path opacity=".8" d="m414.329 41.03 15.629 21.905 8.244-1.637-19.64-27.535-4.233 7.267Z" fill="#fff"/>
            <path opacity=".4" d="m430.367 64.677-2.564 20.576 10.339-22.124-7.775 1.548Z" fill="#fff"/>
            <path opacity=".6" d="m426.246 91.763-7.549 5.387 14.722-.614-7.173-4.773Z" fill="#fff"/>
            <path opacity=".4" d="m406.229 106.045 2.179 8.333 5.37-13.72-7.549 5.387Z" fill="#fff"/>
            <path opacity=".28" d="m379.381 101.151-3.962 6.904 24.224-2.64-20.262-4.264Z" fill="#fff"/>
            <path opacity=".8" d="m375.759 42.16 5.565-14.203-20.803 14.839 15.238-.636ZM416.328 99.034l-5.56 14.205 20.802-14.84-15.242.635Z" fill="#fff"/>
            <g style="mix-blend-mode:overlay" opacity=".4" fill="#FF1467">
                <path d="m406.756 115.145-2.214-8.47-25.035 2.731 27.249 5.739ZM438.158 67.3l-10.785 23.075 7.298 4.858 3.487-27.933ZM385.297 26.046l2.224 8.475 25.055-2.73-27.279-5.745ZM353.924 73.896l10.754-23.029-7.278-4.844-3.476 27.873ZM370.661 87.151l6.472-11.881-13.084 2.607 6.612 9.274ZM411.365 82.544l-9.011 6.43 11.781 6.987-2.77-13.417ZM380.713 58.644l9.017-6.43-11.782-6.98 2.765 13.41ZM379.185 61.317l-12.829 3.058 11.411 8.32 1.418-11.378ZM403.975 54.001l-4.152-13.497-7.068 11.135L403.975 54ZM413.319 65.195l6.171-11.321-12.713 2.146 6.542 9.175ZM412.897 79.877l12.829-3.058-11.411-8.32-1.418 11.378ZM388.106 87.193l4.153 13.496 7.068-11.133-11.221-2.363ZM378.756 76.002l-6.166 11.322 12.713-2.147-6.547-9.175ZM376.07 73.662l-11.19-8.16-1.327 10.653 12.517-2.493ZM378.048 59.756l-11.496-7.647-1.337 10.707 12.833-3.06ZM378.78 58.108l-2.825-13.713-8.581 6.121 11.406 7.592ZM389.78 50.178 386.324 37l-8.52 6.077 11.976 7.101ZM391.603 50.121l7.113-11.2-10.634-2.238 3.521 13.438ZM401.366 39.478l4.083 13.27 6.436-11.052-10.519-2.218ZM406.65 54.233l13.31-2.246-6.607-9.262-6.703 11.508ZM421.417 54.045l-6.472 11.877 13.089-2.603-6.617-9.274ZM416.008 67.528l11.19 8.158 1.328-10.648-12.518 2.49ZM413.97 81.452l11.556 7.695 1.342-10.771-12.898 3.076ZM413.307 83.16l2.815 13.637 8.53-6.086-11.345-7.55ZM402.297 91.013l3.446 13.189 8.536-6.088-11.982-7.1ZM400.464 91.078l-7.108 11.197 10.625 2.236-3.517-13.433ZM390.715 101.716l-4.067-13.213-6.332 11.025 10.399 2.188ZM385.482 86.951l-13.354 2.255 6.682 9.366 6.672-11.62ZM362.13 78.257l-8.24 1.641 19.751 27.692 4.197-7.313-15.708-22.02ZM361.714 76.524l2.559-20.58-10.334 22.128 7.775-1.548ZM365.79 49.456l7.599-5.419-14.812.62 7.213 4.8ZM385.844 35.155l-2.174-8.306-5.359 13.682 7.533-5.376ZM412.827 40.07l4.047-6.954-24.439 2.663 20.392 4.291ZM414.329 41.03l15.629 21.905 8.244-1.637-19.64-27.535-4.233 7.267ZM430.368 64.677l-2.564 20.576 10.338-22.124-7.774 1.548ZM426.246 91.763l-7.549 5.386 14.722-.614-7.173-4.772ZM406.23 106.044l2.179 8.333 5.37-13.72-7.549 5.387ZM379.382 101.151l-3.962 6.904 24.224-2.64-20.262-4.264ZM375.759 42.16l5.565-14.203-20.803 14.839 15.238-.636ZM416.328 99.034l-5.56 14.204 20.802-14.839-15.242.635Z"/>
            </g>
        </g>
        <mask id="e" style="mask-type:luminance" maskUnits="userSpaceOnUse" x="206" y="62" width="86" height="108">
            <path d="m222.271 62.895 69 11.798-16.27 95.158L206 158.053l16.271-95.158Z" fill="#fff"/>
        </mask>
        <g mask="url(#e)">
            <path d="M221.522 85.078 255.91 71.42s.016-.006.027-.008a.947.947 0 0 1 .155-.04c.022-.001.033-.003.05-.005a.732.732 0 0 1 .387.066c.016.004.027.014.044.021.05.026.094.056.138.09.006.005.017.007.022.017l27.888 24.305.022.026a.368.368 0 0 1 .088.103c.011.015.028.03.039.05.005.01.016.021.022.036.016.029.028.061.039.09a.148.148 0 0 0 .022.043c.016.061.027.12.038.183-.005.01-.005.017 0 .031 0 .054-.005.106-.005.158-.006.01-.006.018-.006.026l-8.628 50.457s0 .017-.006.026c-.005.052-.022.097-.039.143-.005.013-.005.026-.016.033a.951.951 0 0 1-.1.16c-.011.011-.016.019-.027.031a.881.881 0 0 1-.072.08l-.033.021a.5.5 0 0 1-.061.042c-.039.021-.072.041-.111.061-.011.007-.016.015-.027.017l-34.388 13.657s-.017.006-.028.008a.838.838 0 0 1-.204.045.707.707 0 0 1-.199-.008.72.72 0 0 1-.188-.058c-.017-.003-.028-.014-.044-.021a.634.634 0 0 1-.133-.09c-.011-.005-.017-.007-.028-.017l-27.893-24.305a.8.8 0 0 1-.262-.739l8.631-50.47a.806.806 0 0 1 .492-.61l.006.002Z" fill="#040A14"/>
            <path d="m218.803 108.182 9.701-13.39-6.224-6.96-3.477 20.35ZM236.795 101.68l14.532-5.773 1.642-9.596-22.067 8.764 5.893 6.605ZM245.403 135.34l14.598-5.798 3.732-21.811-11.846-10.319-14.599 5.798-3.726 21.811 11.841 10.319ZM252.909 96.178l11.785 10.268 7.695-4.316-17.838-15.548-1.642 9.596ZM265.324 107.931l-3.72 21.734 5.577 6.444 5.522-32.318-7.379 4.14ZM231.969 124.818l3.754-21.945-5.6-6.27-5.55 32.454 7.396-4.239ZM251.598 85.134l-12.78-4.635-7.562 12.713 20.342-8.078ZM272.736 100.305l-2.907-14.502-13.593.125 16.5 14.377ZM268.998 134.927l9.712-13.41-4.704-15.875-5.008 29.285ZM223.279 127.108l5.008-29.285-9.712 13.409 4.704 15.876ZM229.338 93.316l7.485-12.592-13.825 5.49 6.34 7.102ZM253.356 84.064l1.819-10.631-14.864 5.903 13.045 4.728ZM254.937 84.334l13.874-.126-12.056-10.505-1.818 10.631ZM274.498 100.94l8.215-4.612-11.072-9.653 2.857 14.265ZM274.781 102.62l4.726 15.941 3.522-20.57-8.248 4.629ZM222.539 130.226l-4.759-16.039-3.556 20.802 8.315-4.763Z" fill="#00A2FF"/>
            <path opacity=".1" d="m218.803 108.182 9.701-13.39-6.224-6.96-3.477 20.35Z" fill="#fff"/>
            <path opacity=".4" d="m236.795 101.68 14.532-5.773 1.642-9.596-22.067 8.764 5.893 6.605Z" fill="#fff"/>
            <path opacity=".6" d="m245.403 135.34 14.598-5.798 3.732-21.811-11.846-10.319-14.599 5.798-3.726 21.811 11.841 10.319ZM252.909 96.178l11.785 10.268 7.695-4.316-17.838-15.548-1.642 9.596Z" fill="#fff"/>
            <path opacity=".8" d="m265.324 107.931-3.72 21.734 5.577 6.444 5.522-32.318-7.379 4.14Z" fill="#fff"/>
            <path opacity=".1" d="m231.969 124.818 3.754-21.945-5.6-6.27-5.55 32.454 7.396-4.239Z" fill="#fff"/>
            <path opacity=".6" d="m251.598 85.134-12.78-4.635-7.562 12.713 20.342-8.078Z" fill="#fff"/>
            <path opacity=".8" d="m272.736 100.305-2.907-14.502-13.593.125 16.5 14.377Z" fill="#fff"/>
            <path opacity=".6" d="m268.998 134.927 9.712-13.41-4.704-15.875-5.008 29.285ZM223.279 127.108l5.008-29.285-9.712 13.409 4.704 15.876Z" fill="#fff"/>
            <path opacity=".4" d="m229.338 93.316 7.485-12.592-13.825 5.49 6.34 7.102ZM253.356 84.064l1.819-10.631-14.864 5.903 13.045 4.728Z" fill="#fff"/>
            <path opacity=".6" d="m254.937 84.334 13.874-.126-12.056-10.505-1.818 10.631ZM274.498 100.94l8.215-4.612-11.072-9.653 2.857 14.265Z" fill="#fff"/>
            <path opacity=".8" d="m274.781 102.62 4.726 15.941 3.522-20.57-8.248 4.629Z" fill="#fff"/>
            <path opacity=".1" d="m222.539 130.226-4.759-16.039-3.556 20.802 8.315-4.763Z" fill="#fff"/>
            <g style="mix-blend-mode:overlay" opacity=".4" fill="#00A2FF">
                <path d="m218.802 108.183 9.701-13.39-6.224-6.961-3.477 20.351ZM236.793 101.68l14.532-5.773 1.642-9.596-22.067 8.764 5.893 6.605ZM252.909 96.178l11.785 10.268 7.695-4.316-17.838-15.548-1.642 9.596ZM265.322 107.931l-3.72 21.735 5.577 6.443 5.522-32.318-7.379 4.14ZM231.968 124.818l3.754-21.944-5.6-6.271-5.55 32.455 7.396-4.24ZM251.596 85.134l-12.78-4.634-7.562 12.713 20.342-8.079ZM272.735 100.306l-2.908-14.502-13.593.125 16.501 14.377ZM268.998 134.927l9.712-13.41-4.704-15.875-5.008 29.285ZM223.279 127.108l5.008-29.285-9.712 13.41 4.704 15.875ZM229.337 93.317l7.485-12.593-13.825 5.491 6.34 7.102ZM253.354 84.064l1.819-10.631-14.864 5.903 13.045 4.728ZM254.937 84.335l13.874-.127-12.056-10.504-1.818 10.63ZM274.498 100.94l8.215-4.612-11.072-9.652 2.857 14.264ZM274.781 102.62l4.726 15.941 3.522-20.57-8.248 4.629ZM222.538 130.226l-4.759-16.039-3.556 20.802 8.315-4.763Z"/>
            </g>
        </g>
        <path d="M268.045 57.89c-.076.62-.67 1.04-1.328.938l-10.675-1.651c-.65-.1-1.121-.684-1.044-1.303.077-.62.671-1.04 1.321-.941l9.489 1.468 1.115-8.973c.077-.619.67-1.039 1.328-.936.65.099 1.121.684 1.044 1.303l-1.25 10.096ZM75.307 32.835C92.532 18.389 122.807 2.256 157.73.83c35.004-1.434 74.538 11.928 110.067 56.214l-1.875 1.326C230.869 14.677 192.106 1.702 157.934 3.1c-34.259 1.4-64.058 17.259-81.002 31.47l-1.625-1.736Z" fill="#D4D4D8"/>
        <path d="M28.783 51.135h-2.881a4.404 4.404 0 0 0-.619-1.625 4.547 4.547 0 0 0-1.108-1.191 4.773 4.773 0 0 0-1.468-.739A5.731 5.731 0 0 0 21 47.331c-1.09 0-2.065.274-2.927.822-.855.548-1.532 1.35-2.03 2.41-.493 1.058-.74 2.351-.74 3.877 0 1.54.247 2.838.74 3.897.498 1.058 1.178 1.859 2.04 2.4.861.542 1.83.813 2.908.813.597 0 1.163-.08 1.699-.24a4.893 4.893 0 0 0 1.468-.73 4.42 4.42 0 0 0 1.745-2.78l2.88.01a7.714 7.714 0 0 1-.895 2.567c-.437.776-1 1.447-1.69 2.013a7.64 7.64 0 0 1-2.345 1.302c-.88.308-1.84.461-2.88.461-1.638 0-3.097-.387-4.377-1.163-1.28-.782-2.29-1.899-3.028-3.351-.733-1.453-1.099-3.186-1.099-5.199 0-2.018.37-3.751 1.108-5.198.739-1.452 1.748-2.566 3.028-3.342 1.28-.782 2.736-1.173 4.368-1.173 1.003 0 1.938.145 2.806.434a7.408 7.408 0 0 1 2.355 1.256 6.909 6.909 0 0 1 1.726 2.013c.456.788.764 1.69.924 2.705Zm2.412 12.76V49.713h2.668v2.253h.148a3.428 3.428 0 0 1 1.366-1.8 3.91 3.91 0 0 1 2.235-.665 11.814 11.814 0 0 1 1.172.065v2.64a4.957 4.957 0 0 0-.59-.102 5.635 5.635 0 0 0-.85-.064c-.652 0-1.234.138-1.745.415a3.087 3.087 0 0 0-1.643 2.78v8.66h-2.761Zm14.803.286c-1.397 0-2.6-.298-3.61-.895-1.003-.604-1.78-1.45-2.327-2.54-.542-1.095-.812-2.378-.812-3.85 0-1.452.27-2.733.812-3.84.548-1.108 1.311-1.973 2.29-2.595.985-.622 2.136-.932 3.453-.932.8 0 1.576.132 2.327.397.75.264 1.425.68 2.022 1.246.597.566 1.068 1.302 1.412 2.207.345.898.517 1.99.517 3.277v.98H40.81v-2.07h8.568c0-.725-.148-1.369-.443-1.929a3.352 3.352 0 0 0-1.246-1.339c-.53-.326-1.152-.489-1.866-.489-.775 0-1.452.19-2.03.573a3.842 3.842 0 0 0-1.33 1.477A4.264 4.264 0 0 0 42 55.825v1.616c0 .948.166 1.754.499 2.42.338.664.809 1.172 1.412 1.523.603.344 1.308.517 2.115.517.523 0 1-.074 1.43-.222a3.09 3.09 0 0 0 1.118-.683c.314-.302.554-.674.72-1.117l2.613.47a4.733 4.733 0 0 1-1.126 2.023c-.536.572-1.21 1.018-2.023 1.338-.806.314-1.726.471-2.76.471Zm13.676-.009c-1.145 0-2.166-.292-3.065-.877-.892-.591-1.594-1.431-2.105-2.52-.505-1.096-.757-2.41-.757-3.943s.255-2.844.766-3.933c.517-1.09 1.225-1.924 2.124-2.503.898-.578 1.917-.867 3.056-.867.88 0 1.588.147 2.123.443.542.289.96.628 1.256 1.015.302.388.536.73.702 1.025h.166v-7.026h2.76v18.909h-2.695v-2.207h-.231a7.29 7.29 0 0 1-.72 1.034c-.308.388-.733.727-1.275 1.016-.541.29-1.243.434-2.105.434Zm.61-2.354c.794 0 1.465-.21 2.013-.628.553-.425.972-1.013 1.255-1.764.29-.75.434-1.625.434-2.622 0-.985-.141-1.846-.424-2.585-.284-.739-.7-1.314-1.247-1.727-.548-.412-1.225-.618-2.031-.618-.831 0-1.524.215-2.078.646-.554.43-.972 1.019-1.255 1.763-.277.745-.416 1.585-.416 2.521 0 .948.142 1.8.425 2.558.283.757.702 1.357 1.256 1.8.56.437 1.25.656 2.068.656Zm9.577 2.077V49.713h2.76v14.182h-2.76Zm1.394-16.37c-.48 0-.892-.16-1.237-.48a1.561 1.561 0 0 1-.508-1.163c0-.456.17-.844.508-1.164.344-.326.757-.49 1.237-.49.48 0 .89.164 1.228.49.345.32.517.708.517 1.163 0 .45-.172.838-.517 1.164-.339.32-.748.48-1.228.48Zm10.92 2.188v2.216H74.43v-2.216h7.746Zm-5.669-3.398h2.761v13.416c0 .535.08.939.24 1.21.16.264.366.446.619.544.258.093.538.139.84.139.222 0 .415-.016.582-.047.166-.03.295-.055.387-.073l.499 2.28c-.16.062-.388.123-.683.185a5.41 5.41 0 0 1-1.108.11 4.862 4.862 0 0 1-2.031-.387 3.484 3.484 0 0 1-1.524-1.256c-.388-.566-.582-1.277-.582-2.133V46.316Zm18.342 6.86-2.502.444a2.964 2.964 0 0 0-.499-.914 2.467 2.467 0 0 0-.905-.711c-.381-.185-.858-.277-1.43-.277-.782 0-1.435.175-1.958.526-.523.345-.785.791-.785 1.339 0 .474.175.855.526 1.145.351.289.918.526 1.7.71l2.252.518c1.305.301 2.278.766 2.918 1.394.64.628.96 1.443.96 2.447 0 .849-.246 1.606-.739 2.27-.486.66-1.166 1.177-2.04 1.552-.868.375-1.874.563-3.02.563-1.587 0-2.883-.338-3.886-1.015-1.004-.684-1.62-1.653-1.847-2.909l2.668-.406c.166.696.508 1.222 1.025 1.579.517.35 1.191.526 2.022.526.905 0 1.628-.188 2.17-.563.541-.382.812-.846.812-1.394 0-.444-.166-.816-.498-1.117-.326-.302-.828-.53-1.505-.684l-2.4-.526c-1.324-.302-2.303-.782-2.937-1.44-.628-.659-.942-1.493-.942-2.502 0-.838.234-1.57.702-2.198.468-.628 1.114-1.117 1.939-1.468.825-.357 1.77-.535 2.835-.535 1.532 0 2.739.332 3.619.997.88.658 1.462 1.542 1.745 2.65Z" fill="#fff"/>
        <path d="M4 78.895c2.43 0 40.784-11.567 97-5.895M75.73 76.359s9.705-.275 17.937 4.773" stroke="#D4D4D8" stroke-width="2" stroke-linecap="round" stroke-linejoin="round"/>
    </g>
    <defs>
        <clipPath id="a">
            <path fill="#fff" d="M0 0h516v121H0z"/>
        </clipPath>
    </defs>
</svg>
