<svg width="199" height="111" fill="none" xmlns="http://www.w3.org/2000/svg">
    <g opacity=".9" clip-path="url(#a)">
        <mask id="b" style="mask-type:luminance" maskUnits="userSpaceOnUse" x="-40" y="-33" width="343" height="243">
            <path d="M302.568-8.415-20.525-32.718-40 185.636l323.094 24.303L302.568-8.415Z" fill="#fff"/>
        </mask>
        <g mask="url(#b)">
            <path opacity=".6" d="M36.946.625 34.7-1.917C32.191-4.822 28.54-6.73 24.198-7.056 14.743-7.766 5.197-.741 2.678 8.86c-1.489 5.676-.225 11.083 2.997 14.851L8.218 26.6c2.362 2.628 5.706 4.408 9.753 4.847 10.037 1.085 20.115-6.53 22.29-16.76 1.165-5.49-.22-10.525-3.308-14.057l-.007-.004Z" fill="#AC692A"/>
            <path opacity=".6" d="M38.23 11.834c-1.978 10.221-12.042 17.984-22.28 16.964C5.848 27.793-.028 18.655 2.603 8.736 5.137-.806 14.704-7.71 24.172-6.999c9.467.712 15.958 9 14.058 18.829v.004Z" fill="#AC692A"/>
            <path opacity=".6" d="M37.935 11.65C35.99 21.68 26.112 29.29 16.067 28.294 6.152 27.309.377 18.352 2.955 8.613 5.437-.76 14.838-7.543 24.138-6.844c9.416.708 15.673 8.845 13.798 18.49v.005Z" fill="#FFB63D"/>
            <path opacity=".6" d="M36.225 11.59c-1.869 9.255-11 16.242-20.26 15.346-9.16-.884-14.58-9.127-12.255-18.17C5.967-.012 14.753-6.395 23.464-5.717c8.799.685 14.568 8.328 12.757 17.306h.004Z" fill="#FFD25E"/>
            <path opacity=".6" d="M28.183 8.152c-.462 2.127-1.45 3.726-2.966 4.787-1.524 1.064-3.446 1.491-5.767 1.286L18 14.097l-1.494 6.463-5.186-.482 4.562-19.012 6.455.528c2.37.193 4.035.852 5.005 1.977.973 1.133 1.256 2.655.837 4.577l.004.004ZM18.98 9.88l.934.082c.769.065 1.43-.096 1.984-.492.554-.392.913-.972 1.085-1.73.285-1.273-.276-1.968-1.686-2.085l-1.316-.11-1.002 4.339v-.004Z" fill="#fff"/>
            <path opacity=".6" d="m158.434-10.75 3.145-2.568c3.53-2.941 8.184-4.52 13.311-4.134 11.165.84 20.81 10.706 21.734 22.332.549 6.878-2.058 12.947-6.597 16.773l-3.564 2.916c-3.303 2.643-7.57 4.128-12.373 3.924-11.918-.508-22.064-11.154-22.453-23.45-.21-6.603 2.456-12.221 6.797-15.794Z" fill="#AC692A"/>
            <path opacity=".6" d="M154.581 2.089c.165 12.257 10.265 23.072 22.405 23.69 11.973.611 20.731-8.997 19.742-21.012-.953-11.564-10.655-21.293-21.833-22.133-11.177-.84-20.473 7.67-20.313 19.451l-.001.004Z" fill="#AC692A"/>
            <path opacity=".6" d="M154.963 1.926c.169 12.023 10.084 22.632 21.993 23.244 11.75.603 20.355-8.813 19.39-20.608-.928-11.355-10.461-20.913-21.44-21.739-11.118-.836-20.102 7.538-19.944 19.107l.001-.004Z" fill="#FFB63D"/>
            <path opacity=".6" d="M156.972 2.163c.239 11.11 9.415 20.858 20.384 21.448 10.856.586 18.894-8.062 18.076-19.005-.793-10.622-9.691-19.607-19.982-20.354-10.394-.755-18.711 7.131-18.478 17.907v.004Z" fill="#FFD25E"/>
            <path opacity=".6" d="M185.771 1.363c.098 2.48-.542 4.335-1.933 5.574-1.405 1.249-3.475 1.776-6.225 1.562l-1.744-.132.258 7.662-6.372-.357-.697-23.28 8.026.96c2.843.34 4.969 1.203 6.41 2.586 1.429 1.374 2.19 3.181 2.281 5.43l-.004-.005Zm-10.074 1.948 1.132.105c.927.085 1.65-.107 2.174-.574.521-.463.765-1.147.734-2.052-.056-1.516-.922-2.364-2.618-2.545l-1.593-.17.176 5.233-.005.003Z" fill="#fff"/>
            <path opacity=".6" d="M123.11 13.518c4.537 5.295-3.661 14.325-19.337 18.97-15.676 4.644-27.662 1.59-26.93-5.264.593-5.583 9.742-11.993 20.524-15.185 10.782-3.196 22.051-2.833 25.743 1.479Z" fill="#AC692A"/>
            <path opacity=".6" d="M122.639 13.568c4.386 5.184-3.68 13.997-18.987 18.53-15.306 4.534-27.053 1.595-26.386-5.091.548-5.464 9.518-11.764 20.124-14.904 10.605-3.14 21.662-2.777 25.249 1.461v.004Z" fill="#FFB63D"/>
            <path opacity=".6" d="M120.446 14.126c3.399 4.732-4.105 12.383-17.328 16.3-13.223 3.916-23.837 1.636-23.726-4.138.095-4.928 8.204-10.808 18.124-13.75 9.923-2.936 20.026-2.453 22.93 1.588Z" fill="#FFD25E"/>
            <path opacity=".6" d="M109.039 15.97c.525 1.059.145 2.137-1.167 3.226-1.342 1.11-3.526 2.12-6.535 3.013l-1.885.558 1.137 3.878-7.11 2.105-1.977-10.808 7.697-2.28c2.808-.83 5.02-1.218 6.65-1.16 1.661.059 2.725.542 3.186 1.469h.004Zm-10.277 4.458 1.178-.35c.969-.288 1.703-.628 2.19-1.026.486-.394.653-.785.512-1.172-.239-.64-1.216-.702-2.936-.19l-1.605.475.665 2.264h-.004Z" fill="#fff"/>
            <path opacity=".6" d="M124.147 15.26c1.769 5.645-7.342 13.345-20.346 17.197-13.004 3.852-24.983 2.4-26.752-3.248l2.348 7.493c1.77 5.644 13.744 7.099 26.752 3.248 13.004-3.852 22.115-11.552 20.346-17.197l-2.348-7.492Z" fill="#AC692A"/>
            <path d="M160.039 81.881c5.658 9.945 15.988 13.452 22.132 8.584 5.303-4.202 5.586-13.377 1.261-20.987-4.328-7.61-12.496-12.298-19.013-10.234-7.553 2.392-10.029 12.693-4.376 22.637h-.004Z" fill="#AC692A"/>
            <path d="M160.226 81.584c5.54 9.74 15.669 13.213 21.71 8.468 5.231-4.107 5.528-13.12 1.268-20.606-4.26-7.49-12.303-12.095-18.706-10.058-7.402 2.358-9.812 12.452-4.272 22.196Z" fill="#FFB63D"/>
            <path d="M161.197 81.272c5.164 9.082 14.642 12.598 20.496 8.342 5.227-3.8 5.66-12.588 1.455-19.981-4.204-7.393-12.117-11.752-18.241-9.536-6.862 2.483-8.873 12.093-3.71 21.175Z" fill="#FFD25E"/>
            <path d="M176.893 70.313c1.046 1.775 1.447 3.37 1.203 4.803-.244 1.444-1.128 2.625-2.675 3.549l-.986.59 3.212 5.33-3.512 2.285-10.256-16.765 4.945-2.43c1.723-.845 3.259-1.013 4.62-.523 1.341.48 2.488 1.534 3.445 3.16h.004Zm-4.627 5.344.656-.37c.537-.3.846-.723.939-1.268.092-.542-.058-1.14-.451-1.796-.66-1.101-1.484-1.393-2.488-.866l-.95.496 2.29 3.803h.004Z" fill="#fff"/>
            <path d="M176.547 93.602c-6.458 3.423-15.702-.85-20.652-9.55-4.944-8.7-3.72-18.528 2.733-21.951l4.136-2.193c-6.457 3.423-7.681 13.252-2.732 21.952 4.945 8.7 14.193 12.977 20.651 9.55l-4.136 2.192Z" fill="#AC692A"/>
            <path opacity=".6" d="M41.778 102.186c1.537 2.838-6.692 2.133-18.804-2.364C10.86 95.33 4.288 90.544 7.425 89.442c2.468-.869 10.43.898 18.225 3.79 7.795 2.893 14.921 6.724 16.128 8.954Z" fill="#AC692A"/>
            <path opacity=".6" d="M41.451 102.035c1.461 2.755-6.611 2.038-18.425-2.343C11.21 95.31 4.749 90.634 7.773 89.542c2.387-.863 10.2.87 17.867 3.714 7.67 2.845 14.655 6.607 15.811 8.783v-.004Z" fill="#FFB63D"/>
            <path opacity=".6" d="M40.026 101.547c.913 2.201-6.496 1.268-16.729-2.528-10.232-3.795-16.36-7.883-14.129-8.92 1.85-.86 9.056.737 16.354 3.446 7.299 2.71 13.745 6.177 14.504 8.006v-.004Z" fill="#FFD25E"/>
            <path opacity=".6" d="M32.018 97.845c.012.414-.579.524-1.797.313-1.246-.218-3.02-.753-5.295-1.597l-1.427-.528-.58 1.25-5.44-2.02 2.516-2.954 5.72 2.123c2.09.775 3.644 1.44 4.687 2.006 1.062.578 1.608 1.047 1.616 1.407Zm-8.176-2.555.883.33c.729.27 1.322.447 1.775.531.45.08.688.052.72-.077.055-.22-.563-.564-1.85-1.043l-1.201-.446-.328.71v-.005Z" fill="#fff"/>
            <path opacity=".6" d="M6.729 89.982c-.738 1.817 6.542 6.207 16.259 9.81 9.72 3.598 18.195 5.045 18.933 3.228l-2.69 6.61c-.738 1.817-9.217.369-18.934-3.229-9.72-3.599-17-7.992-16.258-9.81l2.69-6.609Z" fill="#AC692A"/>
            <path opacity=".7" d="M88.852 86.035c-12.397 2.732-23.066-2.8-23.743-11.351-.604-7.616 7.096-15.003 17.148-17.216 10.048-2.212 20.252 1.227 23.054 8.363 3.147 8.01-4.057 17.473-16.455 20.204h-.004Z" fill="#FFB63D"/>
            <path opacity=".7" d="M88.515 84.577c-11.252 2.48-21.012-2.488-21.725-10.262-.644-6.996 6.406-13.825 15.692-15.868 9.281-2.043 18.654 1.172 21.149 7.758 2.773 7.321-3.861 15.896-15.113 18.376l-.003-.004Z" fill="#FFD25E"/>
            <path opacity=".7" d="M90.156 76.35c-2.648.582-4.821.456-6.5-.367-1.652-.809-2.666-2.225-3.05-4.205l-.235-1.21-7.447 1.64-.579-4.192 21.762-4.795 1.634 5.227c.632 2.015.478 3.708-.49 5.055-.983 1.366-2.684 2.323-5.096 2.854l.001-.008Zm-4.844-6.874.183.776c.15.647.533 1.11 1.145 1.383.616.274 1.384.313 2.307.108 1.546-.341 2.155-1.115 1.83-2.31l-.299-1.096-5.157 1.136-.009.003Z" fill="#fff"/>
            <path opacity=".7" d="M106.789 71.337c1.91 7.878-5.577 16.346-16.718 18.917-11.14 2.57-21.721-1.73-23.63-9.605l-1.036-4.272c1.91 7.878 12.49 12.176 23.63 9.604 11.142-2.57 18.629-11.042 16.719-18.916l1.035 4.272Z" fill="#AC692A"/>
        </g>
    </g>
    <defs>
        <clipPath id="a">
            <path fill="#fff" d="M0 0h199v111H0z"/>
        </clipPath>
    </defs>
</svg>
