<svg width="118" height="92" fill="none" xmlns="http://www.w3.org/2000/svg">
    <g opacity=".9" clip-path="url(#a)">
        <path opacity=".6" d="m45.87 8.908-2.177-2.404c-2.436-2.742-5.853-4.647-9.807-5.165C25.274.21 17.01 6.038 15.257 14.546c-1.035 5.03.41 9.96 3.54 13.518l2.465 2.73c2.287 2.486 5.418 4.261 9.111 4.865 9.16 1.495 17.876-4.836 19.281-13.928.752-4.879-.782-9.481-3.777-12.818l-.008-.005Z" fill="#AC692A"/>
        <path opacity=".6" d="M47.706 19.061c-1.227 9.093-9.92 15.556-19.257 14.11-9.212-1.427-15.044-9.95-13.209-18.738C17.009 5.98 25.299.263 33.92 1.393c8.621 1.13 14.963 8.922 13.786 17.665v.003Z" fill="#AC692A"/>
        <path opacity=".6" d="M47.433 18.875c-1.208 8.92-9.741 15.257-18.902 13.84-9.041-1.397-14.773-9.753-12.975-18.38 1.73-8.304 9.877-13.92 18.346-12.81 8.574 1.124 14.696 8.767 13.53 17.347v.003Z" fill="#FFB63D"/>
        <path opacity=".6" d="M45.89 18.744c-1.18 8.228-9.07 14.042-17.514 12.757-8.352-1.27-13.722-8.964-12.115-16.98 1.56-7.777 9.17-13.065 17.104-12.005 8.014 1.07 13.667 8.245 12.522 16.227h.004Z" fill="#FFD25E"/>
        <path opacity=".6" d="M38.432 15.23c-.302 1.9-1.114 3.295-2.436 4.175-1.329.883-3.056 1.17-5.182.864l-1.328-.191-1.002 5.769-4.751-.706L26.83 8.18l5.91.813c2.17.298 3.725.98 4.67 2.048.95 1.076 1.293 2.467 1.018 4.185l.004.004Zm-8.289 1.083.856.123c.704.099 1.298-.013 1.78-.342.483-.326.778-.832.892-1.51.189-1.135-.36-1.793-1.652-1.973l-1.205-.168-.67 3.873v-.003Z" fill="#fff"/>
        <path opacity=".6" d="M122.495 22.78c4.358 4.892-2.505 12.425-16.314 15.718-13.81 3.293-24.728-.004-24.445-6 .229-4.886 8.087-10.064 17.585-12.327 9.498-2.266 19.627-1.375 23.174 2.609Z" fill="#AC692A"/>
        <path opacity=".6" d="M122.078 22.794c4.217 4.786-2.54 12.134-16.023 15.348-13.484 3.214-24.182.03-23.947-5.822.194-4.781 7.898-9.872 17.24-12.098 9.343-2.225 19.282-1.345 22.73 2.568v.004Z" fill="#FFB63D"/>
        <path opacity=".6" d="M120.157 23.151c3.306 4.338-3.008 10.691-14.656 13.467-11.648 2.777-21.293.23-21.508-4.845-.183-4.333 6.771-9.097 15.51-11.182 8.74-2.082 17.829-1.144 20.654 2.56Z" fill="#FFD25E"/>
        <path opacity=".6" d="M110.08 24.134c.533.974.249 1.92-.876 2.827-1.151.924-3.069 1.717-5.738 2.36l-1.671.403 1.24 3.53-6.306 1.518-2.382-9.776 6.827-1.645c2.491-.598 4.468-.831 5.943-.696 1.504.139 2.492.626 2.959 1.479h.004Zm-9.038 3.461 1.045-.252c.859-.208 1.503-.475 1.922-.806.417-.328.546-.669.397-1.023-.25-.585-1.137-.691-2.663-.321l-1.423.342.726 2.06h-.004Z" fill="#fff"/>
        <path opacity=".6" d="M123.384 24.579c1.895 5.069-5.863 11.398-17.326 14.135-11.463 2.736-22.295.846-24.19-4.226l2.516 6.73c1.895 5.068 12.724 6.96 24.19 4.224 11.463-2.736 19.221-9.065 17.326-14.134l-2.516-6.729Z" fill="#AC692A"/>
        <path opacity=".7" d="M94.818 87.778c-11.02 1.797-20.937-3.676-22.016-11.327-.963-6.814 5.569-12.999 14.505-14.454 8.932-1.456 18.315 2.13 21.231 8.63 3.276 7.295-2.696 15.354-13.716 17.151h-.004Z" fill="#FFB63D"/>
        <path opacity=".7" d="M94.44 86.455c-10.001 1.631-19.067-3.293-20.138-10.253-.963-6.263 5.014-11.984 13.268-13.328 8.25-1.344 16.872 2 19.481 7.993 2.901 6.663-2.605 13.96-12.607 15.591l-.004-.003Z" fill="#FFD25E"/>
        <path opacity=".7" d="M95.51 79.114c-2.345.378-4.302.158-5.853-.653-1.526-.797-2.513-2.096-2.965-3.861l-.278-1.08-6.594 1.069-.747-3.725 19.267-3.12 1.751 4.69c.677 1.808.631 3.292-.165 4.43-.807 1.154-2.281 1.911-4.416 2.257v-.007Zm-4.721-6.304.206.693c.17.578.539 1.006 1.103 1.278.567.272 1.259.345 2.076.212 1.369-.222 1.873-.874 1.516-1.943l-.328-.981-4.566.739-.007.002Z" fill="#fff"/>
        <path opacity=".7" d="M109.956 75.871c2.145 7.059-4.117 14.16-13.982 15.865-9.866 1.704-19.603-2.635-21.748-9.69l-1.163-3.828c2.145 7.059 11.882 11.395 21.748 9.69 9.865-1.705 16.128-8.81 13.983-15.864l1.162 3.828Z" fill="#AC692A"/>
    </g>
    <defs>
        <clipPath id="a">
            <path fill="#fff" d="M0 0h118v92H0z"/>
        </clipPath>
    </defs>
</svg>
