<svg width="25" height="24" fill="none" xmlns="http://www.w3.org/2000/svg">
    <g clip-path="url(#a)">
        <path d="M24.5 0H.5v24h24V0Z" fill="#000"/>
        <path d="M12.5 21.106v-3.083c-.307 0-.621-.027-.929-.074l-.48 3.042c.467.081.941.115 1.409.115Zm1.403-.108a8.704 8.704 0 0 0 1.377-.33l-.943-2.935a5.952 5.952 0 0 1-.908.216l.474 3.05Zm-4.182-.33.942-2.928a5.953 5.953 0 0 1-.862-.358l-1.39 2.746c.42.21.862.391 1.31.54Zm6.861-.54a9.172 9.172 0 0 0 1.203-.742l-1.804-2.49c-.247.183-.514.351-.795.486l1.396 2.746Zm-9.374-.749 1.804-2.49a6.034 6.034 0 0 1-.708-.606l-2.165 2.179c.334.33.695.64 1.07.917Zm11.64-.904.02-.02c.334-.33.64-.695.915-1.073l-2.472-1.814c-.18.25-.388.492-.602.708l-.033.034 1.042.991 1.13 1.174Zm-13.624-1.1 2.472-1.814c-.18-.25-.347-.52-.488-.796l-2.726 1.396c.214.425.461.83.742 1.215Zm15.294-1.207c.214-.418.394-.863.541-1.315l-2.913-.945a5.706 5.706 0 0 1-.354.864l2.726 1.396ZM3.94 14.853l2.913-.951a6.009 6.009 0 0 1-.214-.911l-3.026.479c.073.465.187.93.327 1.383Zm17.445-1.377c.074-.465.114-.944.114-1.416h-3.06c0 .31-.027.627-.074.938l3.02.479Zm-14.82-1.423c0-.31.028-.627.074-.938l-3.026-.479a10.04 10.04 0 0 0-.114 1.417h3.067Zm11.8-.93 3.027-.48a9.034 9.034 0 0 0-.327-1.383l-2.913.945c.093.303.167.607.213.917Zm-11.512-.918c.094-.297.214-.587.354-.864L4.482 7.945a9.051 9.051 0 0 0-.541 1.315l2.913.945ZM17.8 9.348l2.732-1.396a8.654 8.654 0 0 0-.741-1.215l-2.48 1.815c.181.25.348.52.489.796ZM7.696 8.545c.18-.25.388-.492.608-.715l.007-.007-2.165-2.179-.007.007a8.752 8.752 0 0 0-.915 1.08l2.472 1.814Zm9.013-.701.655-.668 1.503-1.511-.006-.007a9.806 9.806 0 0 0-1.063-.918l-1.803 2.49c.247.182.487.384.701.607l.013.007Zm-7.69-.628c.247-.182.514-.344.795-.485l-1.39-2.746c-.42.216-.822.465-1.202.742l1.797 2.49Zm6.187-.479 1.396-2.745a9.191 9.191 0 0 0-1.302-.547l-.95 2.928c.288.101.575.223.856.364Zm-4.53-.364c.294-.094.601-.169.909-.216l-.475-3.042a8.888 8.888 0 0 0-1.376.33l.942 2.928Zm2.76-.216.48-3.042A8.881 8.881 0 0 0 12.513 3v3.083a6 6 0 0 1 .922.074Z" fill="#fff"/>
        <path d="M12.553 18.109v-3.096c-.26 0-.514-.034-.768-.102l-.802 2.989c.515.135 1.043.209 1.57.209Zm1.57-.21a5.79 5.79 0 0 0 1.464-.606l-1.55-2.678c-.22.128-.461.229-.709.296l.796 2.989Zm-4.596-.606 1.55-2.678a3.186 3.186 0 0 1-.615-.473l-.027-.027-.975 1.033-1.203 1.167.02.02c.374.37.795.695 1.25.958Zm7.31-.958c.373-.378.7-.796.962-1.255l-2.68-1.552a2.956 2.956 0 0 1-.474.614l2.191 2.193Zm-9.529-1.262 2.68-1.545a2.988 2.988 0 0 1-.294-.708l-2.987.796c.134.506.34.999.601 1.457Zm11.099-1.45a6.214 6.214 0 0 0 .207-1.565H15.52a3 3 0 0 1-.1.769l2.987.796ZM9.6 12.05a3 3 0 0 1 .1-.769l-2.993-.796a6.213 6.213 0 0 0-.207 1.565h3.1Zm5.813-.762 2.994-.796a6.08 6.08 0 0 0-.602-1.464l-2.68 1.545c.121.23.221.465.288.715Zm-5.419-.715c.127-.216.281-.425.468-.607l.007-.007-1.11-1.106-1.062-1.1-.02.02a6.199 6.199 0 0 0-.962 1.248l2.68 1.552Zm4.65-.607 1.097-1.1 1.122-1.066-.027-.027a6.202 6.202 0 0 0-1.25-.964l-1.55 2.678c.221.128.422.283.609.465v.014Zm-3.567-.48c.22-.128.46-.229.708-.296l-.788-2.989a5.792 5.792 0 0 0-1.464.608l1.544 2.678Zm2.245-.29.802-2.988A6.107 6.107 0 0 0 12.56 6v3.096c.254 0 .515.034.762.102Z" fill="#fff"/>
    </g>
    <defs>
        <clipPath id="a">
            <rect x=".5" width="24" height="24" rx="12" fill="#fff"/>
        </clipPath>
    </defs>
</svg>
