<svg
  width="67"
  height="16"
  viewBox="0 0 67 16"
  fill="none"
  xmlns="http://www.w3.org/2000/svg"
>
  <g id="Layer_1" clip-path="url(#clip0_24951_23840)">
    <g id="Group">
      <path
        id="Vector"
        d="M22.4003 11.8963C21.4723 11.8963 20.7363 11.6403 20.2003 11.1203C19.6563 10.6003 19.3843 9.86431 19.3843 8.9043V7.10431C19.3843 6.1443 19.6563 5.4003 20.2003 4.8883C20.7443 4.3683 21.4723 4.1123 22.4003 4.1123C23.3203 4.1123 24.0323 4.3603 24.5363 4.8643C25.0403 5.3683 25.2883 6.0563 25.2883 6.9363V7.0003H23.8963V6.8963C23.8963 6.4563 23.7763 6.0883 23.5283 5.8083C23.2803 5.5203 22.9043 5.3843 22.4003 5.3843C21.9043 5.3843 21.5123 5.5363 21.2243 5.8403C20.9363 6.1443 20.8003 6.5603 20.8003 7.0883V8.9283C20.8003 9.4483 20.9443 9.8643 21.2243 10.1763C21.5123 10.4883 21.9043 10.6403 22.4003 10.6403C22.9043 10.6403 23.2803 10.4963 23.5283 10.2083C23.7763 9.9203 23.8963 9.56031 23.8963 9.12031V8.9283H25.2883V9.08031C25.2883 9.96031 25.0403 10.6483 24.5363 11.1523C24.0323 11.6403 23.3203 11.8963 22.4003 11.8963Z"
        fill="#FAFAFA"
      />
      <path
        id="Vector_2"
        d="M25.8481 11.7448L27.8161 4.25684H30.2721L32.2401 11.7448H30.7841L30.3761 10.0968H27.7041L27.2961 11.7448H25.8481ZM28.0401 8.79284H30.0481L29.1361 5.14484H28.9441L28.0401 8.79284Z"
        fill="#FAFAFA"
      />
      <path
        id="Vector_3"
        d="M33.1362 11.7448V4.25684H35.7522L37.0482 10.7768H37.2402L38.5362 4.25684H41.1522V11.7448H39.7842V5.29684H39.5922L38.3122 11.7448H35.9842L34.7042 5.29684H34.5122V11.7448H33.1362Z"
        fill="#FAFAFA"
      />
      <path
        id="Vector_4"
        d="M42.5679 11.7448V4.25684H47.3759V5.53684H43.9759V7.32084H47.0799V8.60084H43.9759V10.4488H47.4399V11.7288H42.5679V11.7448Z"
        fill="#FAFAFA"
      />
      <path
        id="Vector_5"
        d="M48.4966 11.7448V4.25684H49.9046V10.4568H53.3286V11.7368H48.4966V11.7448Z"
        fill="#FAFAFA"
      />
      <path
        id="Vector_6"
        d="M56.9447 11.8963C56.0007 11.8963 55.2567 11.6403 54.6967 11.1203C54.1367 10.6003 53.8647 9.86431 53.8647 8.9043V7.10431C53.8647 6.1443 54.1447 5.4003 54.6967 4.8883C55.2567 4.3683 56.0007 4.1123 56.9447 4.1123C57.8887 4.1123 58.6327 4.3683 59.1927 4.8883C59.7527 5.4083 60.0247 6.1443 60.0247 7.10431V8.9043C60.0247 9.86431 59.7447 10.6083 59.1927 11.1203C58.6327 11.6323 57.8807 11.8963 56.9447 11.8963ZM56.9447 10.6323C57.4727 10.6323 57.8807 10.4803 58.1767 10.1763C58.4727 9.8723 58.6167 9.45631 58.6167 8.9443V7.0563C58.6167 6.5443 58.4727 6.1363 58.1767 5.8243C57.8807 5.5203 57.4727 5.3683 56.9447 5.3683C56.4247 5.3683 56.0167 5.5203 55.7207 5.8243C55.4247 6.1283 55.2807 6.5443 55.2807 7.0563V8.9363C55.2807 9.4483 55.4247 9.8563 55.7207 10.1683C56.0087 10.4803 56.4247 10.6323 56.9447 10.6323Z"
        fill="#FAFAFA"
      />
      <path
        id="Vector_7"
        d="M62.6962 11.7446V5.54465H60.5122V4.26465H66.2882V5.54465H64.1042V11.7446H62.6962Z"
        fill="#FAFAFA"
      />
    </g>
    <path
      id="Vector_8"
      d="M10.0803 16V9.424C11.6483 9.592 12.7123 10.312 12.7123 10.312L13.7123 9.184C12.0723 8.016 9.64027 7.968 9.64027 7.968L9.24027 3.552C9.50427 3.376 9.68027 3.08 9.68027 2.736C9.68027 2.2 9.24027 1.76 8.70427 1.76C8.16827 1.76 7.72827 2.2 7.72827 2.736C7.72827 3.08 7.90427 3.384 8.16827 3.552L7.76827 7.968C7.76827 7.968 5.33627 8.008 3.69627 9.184L4.69627 10.312C4.69627 10.312 5.76027 9.592 7.32827 9.424V16C1.20027 11.456 0.696267 4.856 0.712267 2.664C0.712267 2.208 0.984267 1.792 1.40027 1.608C2.62427 1.064 5.41627 0 8.69627 0C11.9763 0 14.7683 1.064 15.9923 1.608C16.4083 1.792 16.6803 2.208 16.6803 2.664C16.6963 4.856 16.1923 11.456 10.0803 16Z"
      fill="#FAFAFA"
    />
  </g>
  <defs>
    <clipPath id="clip0_24951_23840">
      <rect
        width="65.576"
        height="16"
        fill="white"
        transform="translate(0.711914)"
      />
    </clipPath>
  </defs>
</svg>
