<svg width="22" height="14" viewBox="0 0 22 14" fill="none" xmlns="http://www.w3.org/2000/svg">
<path d="M0.738281 9.42035V13.5H6.97951M0.738281 9.42035L7.67974 0.5H11.6985M0.738281 9.42035H4.54391M11.6985 0.5L14.5603 4.82321L6.97951 13.5M11.6985 0.5L4.54391 9.42035M6.97951 13.5L4.54391 9.42035" stroke="#FCFC03" stroke-width="0.464286"/>
<path d="M14.5594 4.82321L11.6975 0.5L4.54297 9.42035L6.97857 13.5L14.5594 4.82321Z" fill="#FCFC03"/>
<path d="M5.95777 7.65887L1.625 8.3891L4.35123 4.76227L8.90307 3.95898L5.95777 7.65887Z" fill="#FCFC03"/>
<path d="M17.9698 5.12459L14.5206 4.83008L11.8396 8.02215M17.9698 5.12459L20.7812 8.38848L16.2537 12.9403M17.9698 5.12459L15.1515 8.38848M16.2537 12.9403L8.34277 12.1857L11.8396 8.02215M16.2537 12.9403L15.1515 8.38848M15.1515 8.38848L11.8396 8.02215" stroke="#FCFC03" stroke-width="0.464286"/>
<path d="M20.781 8.38889L17.9697 5.125L15.1514 8.38889L16.2536 12.9407L20.781 8.38889Z" fill="#FCFC03"/>
</svg>
