<svg width="15" height="16" viewBox="0 0 15 16" fill="none" xmlns="http://www.w3.org/2000/svg">
    <path
        d="M1.26855 16.0001V12.2167H1.74593V10.3053H2.2233V8.39397H2.70067V6.48261H3.17804V4.57125H3.65541V2.65989H4.13278V0.748535H13.6465V2.65989H14.6013V8.35278H12.2125V8.39209H13.1673V14.085H10.7785V15.9963H1.26855V16.0001ZM9.38761 12.2167V10.2679H6.0067V12.1792H5.52933V12.2186H9.38948L9.38761 12.2167ZM10.8197 6.48448V4.53568H7.43881V6.44704H6.96144V6.48635H10.8216L10.8197 6.48448Z"
        fill="#3F414A" />
    <path
        d="M0.893555 15.6251V11.8417H1.37093V9.93032H1.8483V8.01897H2.32567V6.10761H2.80304V4.19625H3.28041V2.28489H3.75778V0.373535H13.2715V2.28489H14.2263V7.97778H11.8375V8.01709H12.7923V13.71H10.4035V15.6213H0.893555V15.6251ZM9.01261 11.8417V9.89288H5.6317V11.8042H5.15433V11.8436H9.01448L9.01261 11.8417ZM10.4447 6.10948V4.16068H7.06381V6.07204H6.58644V6.11135H10.4466L10.4447 6.10948Z"
        fill="#3F414A" />
    <path
        d="M0.518555 15.2516V11.4681H0.995926V9.55679H1.4733V7.64543H1.95067V5.73407H2.42804V3.82272H2.90541V1.91136H3.38278V0H12.8965V1.91136H13.8513V7.60425H11.4625V7.64356H12.4173V13.3364H10.0285V15.2478H0.518555V15.2516ZM8.63761 11.4681V9.51935H5.2567V11.4307H4.77933V11.47H8.63948L8.63761 11.4681ZM10.0697 5.73595V3.78715H6.68881V5.6985H6.21144V5.73782H10.0716L10.0697 5.73595Z"
        fill="#3F414A" />
    <path
        d="M11.9423 0.592285V2.53297H12.9127V6.41435H10.972V2.53297H5.6351V4.47366H5.14993V6.41435H10.4868V8.35503H11.4572V12.2364H9.51647V8.35503H4.17958V10.2957H3.69441V12.2364H9.0313V14.1771H1.26855V12.2364H1.75373V10.2957H2.2389V8.35503H2.72407V6.41435H3.20924V4.47366H3.69441V2.53297H4.17958V0.592285H11.9423Z"
        fill="#C0C2CD" />
</svg>
    