<svg width="778" height="208" viewBox="0 0 778 208" fill="none" xmlns="http://www.w3.org/2000/svg">
    <path
        d="M9.72095 207.701V158.588H15.9177V133.777H22.1145V108.966H28.3113V84.1543H34.508V59.3429H40.7048V34.5315H46.9016V9.7201H170.4V34.5315H182.793V108.431H151.785V108.941H164.179V182.841H133.17V207.652H9.72095V207.701ZM115.115 158.588V133.291H71.227V158.102H65.0302V158.613H115.139L115.115 158.588ZM133.705 84.1786V58.8812H89.8173V83.6926H83.6205V84.2029H133.729L133.705 84.1786Z"
        fill="url(#paint0_linear_730_68579)" fill-opacity="0.22" />
    <path
        d="M164.712 207.7V158.612H170.909V133.8H177.105V109.013H183.326V84.2018H189.523V59.4147H195.72V34.6033H201.917V9.81625H251.005V58.9044H244.808V83.7158H238.611V108.503H232.415V133.314H226.218V158.101H220.021V158.612H313.021V207.7H164.712Z"
        fill="url(#paint1_linear_730_68579)" fill-opacity="0.22" />
    <path
        d="M307.314 207.7V158.612H363.109V133.8H369.33V109.013H375.527V84.2018H381.724V59.4147H387.92V58.9044H344.519V9.81625H492.804V58.9044H437.008V83.7158H430.812V108.503H424.615V133.314H418.418V158.101H412.221V158.612H455.623V207.7H307.314Z"
        fill="url(#paint2_linear_730_68579)" fill-opacity="0.22" />
    <path
        d="M499.508 207.7V158.612H505.705V133.8H511.901V109.013H518.122V84.2018H524.319V59.4147H530.516V58.9044H487.114V9.81625H635.399V58.9044H579.604V83.7158H573.407V108.503H567.211V133.314H561.014V158.101H554.817V182.913H548.62V207.7H499.508Z"
        fill="url(#paint3_linear_730_68579)" fill-opacity="0.22" />
    <path
        d="M592.51 207.7V158.612H598.707V133.8H629.715V109.013H660.699V84.2018H691.707V59.4147H722.715V58.9044H629.715V9.81625H778V58.9044H771.803V83.7158H740.819V108.503H709.811V133.314H678.803V158.101H647.819V158.612H740.819V207.7H592.51Z"
        fill="url(#paint4_linear_730_68579)" fill-opacity="0.22" />
    <path
        d="M4.86026 202.839V153.726H11.057V128.915H17.2538V104.103H23.4506V79.2919H29.6474V54.4805H35.8441V29.6692H42.0409V4.85776H165.539V29.6692H177.933V103.569H146.924V104.079H159.318V177.979H128.31V202.79H4.86026V202.839ZM110.254 153.726V128.429H66.3663V153.24H60.1695V153.75H110.278L110.254 153.726ZM128.844 79.3162V54.0188H84.9566V78.8302H78.7598V79.3405H128.869L128.844 79.3162Z"
        fill="url(#paint5_linear_730_68579)" fill-opacity="0.22" />
    <path
        d="M159.852 202.838V153.749H166.048V128.938H172.245V104.151H178.466V79.3395H184.663V54.5524H190.86V29.741H197.056V4.9539H246.145V54.0421H239.948V78.8535H233.751V103.641H227.554V128.452H221.358V153.239H215.161V153.749H308.161V202.838H159.852Z"
        fill="url(#paint6_linear_730_68579)" fill-opacity="0.22" />
    <path
        d="M302.453 202.838V153.749H358.249V128.938H364.47V104.151H370.666V79.3395H376.863V54.5524H383.06V54.0421H339.658V4.9539H487.943V54.0421H432.148V78.8535H425.951V103.641H419.755V128.452H413.558V153.239H407.361V153.749H450.763V202.838H302.453Z"
        fill="url(#paint7_linear_730_68579)" fill-opacity="0.22" />
    <path
        d="M494.646 202.838V153.749H500.843V128.938H507.039V104.151H513.261V79.3395H519.457V54.5524H525.654V54.0421H482.252V4.9539H630.538V54.0421H574.742V78.8535H568.545V103.641H562.349V128.452H556.152V153.239H549.955V178.05H543.758V202.838H494.646Z"
        fill="url(#paint8_linear_730_68579)" fill-opacity="0.22" />
    <path
        d="M587.65 202.838V153.749H593.846V128.938H624.855V104.151H655.838V79.3395H686.847V54.5524H717.855V54.0421H624.855V4.9539H773.14V54.0421H766.943V78.8535H735.959V103.641H704.951V128.452H673.943V153.239H642.959V153.749H735.959V202.838H587.65Z"
        fill="url(#paint9_linear_730_68579)" fill-opacity="0.22" />
    <path
        d="M0 197.981V148.868H6.19677V124.057H12.3935V99.2456H18.5903V74.4342H24.7871V49.6228H30.9839V24.8114H37.1806V0H160.679V24.8114H173.072V98.711H142.064V99.2213H154.458V173.121H123.449V197.932H0V197.981ZM105.394 148.868V123.571H61.506V148.382H55.3092V148.893H105.418L105.394 148.868ZM123.984 74.4585V49.1611H80.0963V73.9725H73.8996V74.4828H124.008L123.984 74.4585Z"
        fill="url(#paint10_linear_730_68579)" fill-opacity="0.22" />
    <path
        d="M154.99 197.98V148.892H161.187V124.08H167.384V99.2931H173.605V74.4817H179.802V49.6946H185.999V24.8832H192.195V0.0961456H241.284V49.1843H235.087V73.9957H228.89V98.7828H222.693V123.594H216.496V148.381H210.3V148.892H303.3V197.98H154.99Z"
        fill="url(#paint11_linear_730_68579)" fill-opacity="0.22" />
    <path
        d="M297.594 197.98V148.892H353.389V124.08H359.61V99.2931H365.807V74.4817H372.004V49.6946H378.201V49.1843H334.799V0.0961456H483.084V49.1843H427.289V73.9957H421.092V98.7828H414.895V123.594H408.698V148.381H402.502V148.892H445.903V197.98H297.594Z"
        fill="url(#paint12_linear_730_68579)" fill-opacity="0.22" />
    <path
        d="M489.786 197.98V148.892H495.982V124.08H502.179V99.2931H508.4V74.4817H514.597V49.6946H520.794V49.1843H477.392V0.0961456H625.677V49.1843H569.882V73.9957H563.685V98.7828H557.488V123.594H551.292V148.381H545.095V173.193H538.898V197.98H489.786Z"
        fill="url(#paint13_linear_730_68579)" fill-opacity="0.22" />
    <path
        d="M582.789 197.98V148.892H588.986V124.08H619.994V99.2931H650.978V74.4817H681.986V49.6946H712.995V49.1843H619.994V0.0961456H768.279V49.1843H762.083V73.9957H731.099V98.7828H700.091V123.594H669.082V148.381H638.099V148.892H731.099V197.98H582.789Z"
        fill="url(#paint14_linear_730_68579)" fill-opacity="0.22" />
    <path
        d="M148.278 7.68726V32.8794H160.874V83.2636H135.682V32.8794H66.4032V58.0715H60.1052V83.2636H129.384V108.456H141.98V158.84H116.787V108.456H47.5091V133.648H41.2111V158.84H110.489V184.032H9.72095V158.84H16.019V133.648H22.317V108.456H28.615V83.2636H34.9131V58.0715H41.2111V32.8794H47.5091V7.68726H148.278Z"
        fill="#FF036D" />
    <path
        d="M293.034 158.84V184.032H167.073V158.84H173.371V133.648H179.669V108.456H185.967V83.2636H192.265V58.0715H198.563V32.8794H204.861V7.68726H230.054V32.8794H223.756V58.0715H217.458V83.2636H211.16V108.456H204.861V133.648H198.563V158.84H293.034Z"
        fill="#FF036D" />
    <path
        d="M475.578 7.68726V32.8794H418.896V58.0715H412.598V83.2636H406.3V108.456H400.002V133.648H393.704V158.84H437.79V184.032H311.83V158.84H368.512V133.648H374.81V108.456H381.108V83.2636H387.406V58.0715H393.704V32.8794H349.618V7.68726H475.578Z"
        fill="#FF036D" />
    <path
        d="M620.335 7.68726V32.8794H563.652V58.0715H557.354V83.2636H551.056V108.456H544.758V133.648H538.46V158.84H532.162V184.032H506.97V158.84H513.268V133.648H519.566V108.456H525.864V83.2636H532.162V58.0715H538.46V32.8794H494.374V7.68726H620.335Z"
        fill="#FF036D" />
    <path
        d="M765.14 7.68726V32.8794H758.842V58.0715H733.65V32.8794H639.179V7.68726H765.14ZM727.352 83.2636H702.16V58.0715H727.352V83.2636ZM670.67 83.2636H695.862V108.456H670.67V83.2636ZM639.179 108.456H664.372V133.648H639.179V108.456ZM727.352 158.84V184.032H601.391V158.84H607.689V133.648H632.881V158.84H727.352Z"
        fill="#FF036D" />
    <defs>
        <linearGradient id="paint0_linear_730_68579" x1="96.2571" y1="9.7201" x2="96.2571"
            y2="207.701" gradientUnits="userSpaceOnUse">
            <stop stop-color="#DE076C" stop-opacity="0.74" />
            <stop offset="1" stop-color="#960178" stop-opacity="0.64" />
        </linearGradient>
        <linearGradient id="paint1_linear_730_68579" x1="238.867" y1="9.81625" x2="238.867"
            y2="207.7" gradientUnits="userSpaceOnUse">
            <stop stop-color="#DE076C" stop-opacity="0.74" />
            <stop offset="1" stop-color="#960178" stop-opacity="0.64" />
        </linearGradient>
        <linearGradient id="paint2_linear_730_68579" x1="400.059" y1="9.81625" x2="400.059"
            y2="207.7" gradientUnits="userSpaceOnUse">
            <stop stop-color="#DE076C" stop-opacity="0.74" />
            <stop offset="1" stop-color="#960178" stop-opacity="0.64" />
        </linearGradient>
        <linearGradient id="paint3_linear_730_68579" x1="561.257" y1="9.81625" x2="561.257"
            y2="207.7" gradientUnits="userSpaceOnUse">
            <stop stop-color="#DE076C" stop-opacity="0.74" />
            <stop offset="1" stop-color="#960178" stop-opacity="0.64" />
        </linearGradient>
        <linearGradient id="paint4_linear_730_68579" x1="685.255" y1="9.81625" x2="685.255"
            y2="207.7" gradientUnits="userSpaceOnUse">
            <stop stop-color="#DE076C" stop-opacity="0.74" />
            <stop offset="1" stop-color="#960178" stop-opacity="0.64" />
        </linearGradient>
        <linearGradient id="paint5_linear_730_68579" x1="91.3964" y1="4.85776" x2="91.3964"
            y2="202.839" gradientUnits="userSpaceOnUse">
            <stop stop-color="#DE076C" stop-opacity="0.74" />
            <stop offset="1" stop-color="#960178" stop-opacity="0.64" />
        </linearGradient>
        <linearGradient id="paint6_linear_730_68579" x1="234.006" y1="4.9539" x2="234.006"
            y2="202.838" gradientUnits="userSpaceOnUse">
            <stop stop-color="#DE076C" stop-opacity="0.74" />
            <stop offset="1" stop-color="#960178" stop-opacity="0.64" />
        </linearGradient>
        <linearGradient id="paint7_linear_730_68579" x1="395.198" y1="4.9539" x2="395.198"
            y2="202.838" gradientUnits="userSpaceOnUse">
            <stop stop-color="#DE076C" stop-opacity="0.74" />
            <stop offset="1" stop-color="#960178" stop-opacity="0.64" />
        </linearGradient>
        <linearGradient id="paint8_linear_730_68579" x1="556.395" y1="4.9539" x2="556.395"
            y2="202.838" gradientUnits="userSpaceOnUse">
            <stop stop-color="#DE076C" stop-opacity="0.74" />
            <stop offset="1" stop-color="#960178" stop-opacity="0.64" />
        </linearGradient>
        <linearGradient id="paint9_linear_730_68579" x1="680.395" y1="4.9539" x2="680.395"
            y2="202.838" gradientUnits="userSpaceOnUse">
            <stop stop-color="#DE076C" stop-opacity="0.74" />
            <stop offset="1" stop-color="#960178" stop-opacity="0.64" />
        </linearGradient>
        <linearGradient id="paint10_linear_730_68579" x1="86.5361" y1="0" x2="86.5361" y2="197.981"
            gradientUnits="userSpaceOnUse">
            <stop stop-color="#DE076C" stop-opacity="0.74" />
            <stop offset="1" stop-color="#960178" stop-opacity="0.64" />
        </linearGradient>
        <linearGradient id="paint11_linear_730_68579" x1="229.145" y1="0.0961456" x2="229.145"
            y2="197.98" gradientUnits="userSpaceOnUse">
            <stop stop-color="#DE076C" stop-opacity="0.74" />
            <stop offset="1" stop-color="#960178" stop-opacity="0.64" />
        </linearGradient>
        <linearGradient id="paint12_linear_730_68579" x1="390.339" y1="0.0961456" x2="390.339"
            y2="197.98" gradientUnits="userSpaceOnUse">
            <stop stop-color="#DE076C" stop-opacity="0.74" />
            <stop offset="1" stop-color="#960178" stop-opacity="0.64" />
        </linearGradient>
        <linearGradient id="paint13_linear_730_68579" x1="551.535" y1="0.0961456" x2="551.535"
            y2="197.98" gradientUnits="userSpaceOnUse">
            <stop stop-color="#DE076C" stop-opacity="0.74" />
            <stop offset="1" stop-color="#960178" stop-opacity="0.64" />
        </linearGradient>
        <linearGradient id="paint14_linear_730_68579" x1="675.534" y1="0.0961456" x2="675.534"
            y2="197.98" gradientUnits="userSpaceOnUse">
            <stop stop-color="#DE076C" stop-opacity="0.74" />
            <stop offset="1" stop-color="#960178" stop-opacity="0.64" />
        </linearGradient>
    </defs>
</svg>