<svg width="24" height="24" viewBox="0 0 24 24" fill="none" xmlns="http://www.w3.org/2000/svg">
<rect width="24" height="24" rx="12" fill="#0A0A0D"/>
<path fill-rule="evenodd" clip-rule="evenodd" d="M11.9684 24C15.4924 24 18.6626 22.489 20.863 20.0811L20.2775 19.4366C19.5529 18.6391 18.3177 18.5709 17.5088 19.2839L16.2598 20.3848C14.5607 21.8827 11.978 21.7882 10.394 20.1703L9.61301 19.3727C8.86306 18.6067 7.63421 18.5801 6.85133 19.3127L4.56058 21.4565C6.60279 23.0501 9.17436 24 11.9684 24ZM21.9702 17.9154L22.2545 18.2284C23.3621 16.4127 24 14.2807 24 12C24 9.23453 23.0621 6.68755 21.4861 4.65823C21.1932 4.73313 20.9132 4.87646 20.6714 5.08961L19.4224 6.19056C17.7233 7.68838 15.1406 7.59397 13.5566 5.97611L12.7756 5.17846C12.0256 4.4125 10.7968 4.3858 10.0139 5.11846L6.80042 8.12585L5.23708 6.47342L8.45058 3.46602C10.1399 1.88502 12.7917 1.94264 14.41 3.59551L15.1909 4.39317C15.9251 5.1429 17.1219 5.18665 17.9093 4.49254L19.1582 3.39159C19.3679 3.20682 19.5907 3.04637 19.8234 2.91003C17.7156 1.09658 14.9704 0 11.9684 0C5.93258 0 0.934849 4.4328 0.0693464 10.2124C1.71636 9.26676 3.85491 9.51398 5.23829 10.9269L6.14147 11.8493C6.84349 12.5664 7.97595 12.642 8.76806 12.0248L11.4454 9.93859C13.0524 8.68644 15.3274 8.74701 16.8647 10.0829L20.5103 13.2508L19.0094 14.9594L15.3637 11.7916C14.6513 11.1725 13.597 11.1444 12.8524 11.7247L10.175 13.8109C8.46568 15.1428 6.02196 14.9796 4.50707 13.4323L3.6039 12.5099C2.85394 11.7439 1.62509 11.7172 0.842217 12.4499L0 13.238C0.260464 15.7727 1.31188 18.0736 2.90401 19.8913L5.288 17.6602C6.97736 16.0793 9.62909 16.1368 11.2474 17.7898L12.0284 18.5874C12.7625 19.3371 13.9593 19.3809 14.7467 18.6868L15.9957 17.5859C17.741 16.0473 20.4066 16.1944 21.9702 17.9154Z" fill="url(#paint0_linear_780_17353)"/>
<defs>
<linearGradient id="paint0_linear_780_17353" x1="12" y1="1.78742e-07" x2="16.7179" y2="24.0001" gradientUnits="userSpaceOnUse">
<stop stop-color="#780000"/>
<stop offset="1" stop-color="#C1121F"/>
</linearGradient>
</defs>
</svg>
